%TF.GenerationSoftware,KiCad,Pcbnew,(6.0.8)*%
%TF.CreationDate,2022-12-08T15:19:17+02:00*%
%TF.ProjectId,Power Distribution,506f7765-7220-4446-9973-747269627574,V0*%
%TF.SameCoordinates,Original*%
%TF.FileFunction,Soldermask,Top*%
%TF.FilePolarity,Negative*%
%FSLAX46Y46*%
G04 Gerber Fmt 4.6, Leading zero omitted, Abs format (unit mm)*
G04 Created by KiCad (PCBNEW (6.0.8)) date 2022-12-08 15:19:17*
%MOMM*%
%LPD*%
G01*
G04 APERTURE LIST*
G04 Aperture macros list*
%AMRoundRect*
0 Rectangle with rounded corners*
0 $1 Rounding radius*
0 $2 $3 $4 $5 $6 $7 $8 $9 X,Y pos of 4 corners*
0 Add a 4 corners polygon primitive as box body*
4,1,4,$2,$3,$4,$5,$6,$7,$8,$9,$2,$3,0*
0 Add four circle primitives for the rounded corners*
1,1,$1+$1,$2,$3*
1,1,$1+$1,$4,$5*
1,1,$1+$1,$6,$7*
1,1,$1+$1,$8,$9*
0 Add four rect primitives between the rounded corners*
20,1,$1+$1,$2,$3,$4,$5,0*
20,1,$1+$1,$4,$5,$6,$7,0*
20,1,$1+$1,$6,$7,$8,$9,0*
20,1,$1+$1,$8,$9,$2,$3,0*%
G04 Aperture macros list end*
%ADD10RoundRect,0.250000X0.325000X0.650000X-0.325000X0.650000X-0.325000X-0.650000X0.325000X-0.650000X0*%
%ADD11R,1.300000X2.800000*%
%ADD12R,6.000000X6.500000*%
%ADD13R,3.300000X2.700000*%
%ADD14RoundRect,0.250000X0.450000X-0.262500X0.450000X0.262500X-0.450000X0.262500X-0.450000X-0.262500X0*%
%ADD15RoundRect,0.250000X-0.450000X0.262500X-0.450000X-0.262500X0.450000X-0.262500X0.450000X0.262500X0*%
%ADD16RoundRect,0.250000X0.475000X-0.250000X0.475000X0.250000X-0.475000X0.250000X-0.475000X-0.250000X0*%
%ADD17RoundRect,0.250000X-0.475000X0.250000X-0.475000X-0.250000X0.475000X-0.250000X0.475000X0.250000X0*%
%ADD18C,3.800000*%
%ADD19O,2.200000X1.200000*%
%ADD20O,1.800000X4.000000*%
%ADD21O,4.000000X1.800000*%
%ADD22O,1.000000X2.400000*%
%ADD23RoundRect,0.150000X-0.587500X-0.150000X0.587500X-0.150000X0.587500X0.150000X-0.587500X0.150000X0*%
%ADD24C,3.000000*%
%ADD25C,2.800000*%
%ADD26C,1.800000*%
G04 APERTURE END LIST*
D10*
%TO.C,C4*%
X248189229Y-150471984D03*
X245239229Y-150471984D03*
%TD*%
D11*
%TO.C,Q2*%
X249079653Y-135958548D03*
D12*
X246806653Y-142542548D03*
D11*
X244533653Y-135958548D03*
%TD*%
D13*
%TO.C,D1*%
X236420147Y-132977325D03*
X236420147Y-125605325D03*
%TD*%
%TO.C,D2*%
X236371480Y-155420000D03*
X236371480Y-148048000D03*
%TD*%
D14*
%TO.C,R4*%
X226422299Y-139234000D03*
X226422299Y-137409000D03*
%TD*%
%TO.C,R5*%
X218922299Y-139253286D03*
X218922299Y-137428286D03*
%TD*%
D15*
%TO.C,R3*%
X221672299Y-132634000D03*
X221672299Y-134459000D03*
%TD*%
D16*
%TO.C,C2*%
X206534799Y-145234000D03*
X206534799Y-143334000D03*
%TD*%
%TO.C,C1*%
X206284799Y-122934000D03*
X206284799Y-121034000D03*
%TD*%
D17*
%TO.C,C3*%
X243309528Y-128391500D03*
X243309528Y-130291500D03*
%TD*%
D18*
%TO.C,J2*%
X201114812Y-155129981D03*
X201114812Y-147929981D03*
D19*
X195114812Y-144779981D03*
X195114812Y-158279981D03*
%TD*%
D20*
%TO.C,J5*%
X253650799Y-154000000D03*
X259650799Y-154000000D03*
D21*
X256650799Y-149296000D03*
%TD*%
D22*
%TO.C,F1*%
X208495493Y-125618818D03*
X231121493Y-125618818D03*
%TD*%
D20*
%TO.C,J3*%
X253639455Y-126000000D03*
X259639455Y-126000000D03*
D21*
X256639455Y-121296000D03*
%TD*%
D14*
%TO.C,R2*%
X218922299Y-134459000D03*
X218922299Y-132634000D03*
%TD*%
D23*
%TO.C,Q1*%
X221734799Y-137390786D03*
X221734799Y-139290786D03*
X223609799Y-138340786D03*
%TD*%
D15*
%TO.C,R1*%
X246092299Y-128409000D03*
X246092299Y-130234000D03*
%TD*%
D20*
%TO.C,J4*%
X253650799Y-140000000D03*
X259650799Y-140000000D03*
D21*
X256650799Y-135296000D03*
%TD*%
D24*
%TO.C,TP1*%
X241284799Y-122484000D03*
%TD*%
D18*
%TO.C,J1*%
X201147257Y-132815093D03*
X201147257Y-125615093D03*
D19*
X195147257Y-122465093D03*
X195147257Y-135965093D03*
%TD*%
D24*
%TO.C,TP2*%
X246000000Y-122500000D03*
%TD*%
D22*
%TO.C,F2*%
X208471799Y-147984000D03*
X231097799Y-147984000D03*
%TD*%
D23*
%TO.C,Q3*%
X224484799Y-132596500D03*
X224484799Y-134496500D03*
X226359799Y-133546500D03*
%TD*%
D15*
%TO.C,R6*%
X229172299Y-132634000D03*
X229172299Y-134459000D03*
%TD*%
D24*
%TO.C,TP3*%
X250750000Y-122500000D03*
%TD*%
D25*
%TO.C,J6*%
X209997799Y-140673000D03*
X209997799Y-136713000D03*
X209997799Y-132751000D03*
%TD*%
D26*
%TO.C,J7*%
X236105799Y-138937000D03*
X233603799Y-138937000D03*
%TD*%
M02*
