%TF.GenerationSoftware,KiCad,Pcbnew,(6.0.8)*%
%TF.CreationDate,2022-12-08T15:19:17+02:00*%
%TF.ProjectId,Power Distribution,506f7765-7220-4446-9973-747269627574,V0*%
%TF.SameCoordinates,Original*%
%TF.FileFunction,Copper,L1,Top*%
%TF.FilePolarity,Positive*%
%FSLAX46Y46*%
G04 Gerber Fmt 4.6, Leading zero omitted, Abs format (unit mm)*
G04 Created by KiCad (PCBNEW (6.0.8)) date 2022-12-08 15:19:17*
%MOMM*%
%LPD*%
G01*
G04 APERTURE LIST*
G04 Aperture macros list*
%AMRoundRect*
0 Rectangle with rounded corners*
0 $1 Rounding radius*
0 $2 $3 $4 $5 $6 $7 $8 $9 X,Y pos of 4 corners*
0 Add a 4 corners polygon primitive as box body*
4,1,4,$2,$3,$4,$5,$6,$7,$8,$9,$2,$3,0*
0 Add four circle primitives for the rounded corners*
1,1,$1+$1,$2,$3*
1,1,$1+$1,$4,$5*
1,1,$1+$1,$6,$7*
1,1,$1+$1,$8,$9*
0 Add four rect primitives between the rounded corners*
20,1,$1+$1,$2,$3,$4,$5,0*
20,1,$1+$1,$4,$5,$6,$7,0*
20,1,$1+$1,$6,$7,$8,$9,0*
20,1,$1+$1,$8,$9,$2,$3,0*%
G04 Aperture macros list end*
%TA.AperFunction,SMDPad,CuDef*%
%ADD10RoundRect,0.250000X0.325000X0.650000X-0.325000X0.650000X-0.325000X-0.650000X0.325000X-0.650000X0*%
%TD*%
%TA.AperFunction,SMDPad,CuDef*%
%ADD11R,1.300000X2.800000*%
%TD*%
%TA.AperFunction,SMDPad,CuDef*%
%ADD12R,6.000000X6.500000*%
%TD*%
%TA.AperFunction,SMDPad,CuDef*%
%ADD13R,3.300000X2.700000*%
%TD*%
%TA.AperFunction,SMDPad,CuDef*%
%ADD14RoundRect,0.250000X0.450000X-0.262500X0.450000X0.262500X-0.450000X0.262500X-0.450000X-0.262500X0*%
%TD*%
%TA.AperFunction,SMDPad,CuDef*%
%ADD15RoundRect,0.250000X-0.450000X0.262500X-0.450000X-0.262500X0.450000X-0.262500X0.450000X0.262500X0*%
%TD*%
%TA.AperFunction,SMDPad,CuDef*%
%ADD16RoundRect,0.250000X0.475000X-0.250000X0.475000X0.250000X-0.475000X0.250000X-0.475000X-0.250000X0*%
%TD*%
%TA.AperFunction,SMDPad,CuDef*%
%ADD17RoundRect,0.250000X-0.475000X0.250000X-0.475000X-0.250000X0.475000X-0.250000X0.475000X0.250000X0*%
%TD*%
%TA.AperFunction,ComponentPad*%
%ADD18C,3.800000*%
%TD*%
%TA.AperFunction,ComponentPad*%
%ADD19O,2.200000X1.200000*%
%TD*%
%TA.AperFunction,ComponentPad*%
%ADD20O,1.800000X4.000000*%
%TD*%
%TA.AperFunction,ComponentPad*%
%ADD21O,4.000000X1.800000*%
%TD*%
%TA.AperFunction,ComponentPad*%
%ADD22O,1.000000X2.400000*%
%TD*%
%TA.AperFunction,SMDPad,CuDef*%
%ADD23RoundRect,0.150000X-0.587500X-0.150000X0.587500X-0.150000X0.587500X0.150000X-0.587500X0.150000X0*%
%TD*%
%TA.AperFunction,ComponentPad*%
%ADD24C,3.000000*%
%TD*%
%TA.AperFunction,ComponentPad*%
%ADD25C,2.800000*%
%TD*%
%TA.AperFunction,ComponentPad*%
%ADD26C,1.800000*%
%TD*%
%TA.AperFunction,ViaPad*%
%ADD27C,0.800000*%
%TD*%
%TA.AperFunction,Conductor*%
%ADD28C,0.400000*%
%TD*%
%TA.AperFunction,Conductor*%
%ADD29C,2.800000*%
%TD*%
%TA.AperFunction,Conductor*%
%ADD30C,0.800000*%
%TD*%
%TA.AperFunction,Conductor*%
%ADD31C,5.300000*%
%TD*%
G04 APERTURE END LIST*
D10*
%TO.P,C4,1*%
%TO.N,/Vout*%
X248189229Y-150471984D03*
%TO.P,C4,2*%
%TO.N,GND*%
X245239229Y-150471984D03*
%TD*%
D11*
%TO.P,Q2,1,G*%
%TO.N,Net-(C3-Pad2)*%
X249079653Y-135958548D03*
D12*
%TO.P,Q2,2,D*%
%TO.N,/Vout*%
X246806653Y-142542548D03*
D11*
%TO.P,Q2,3,S*%
%TO.N,/Supply*%
X244533653Y-135958548D03*
%TD*%
D13*
%TO.P,D1,1,K*%
%TO.N,/Supply*%
X236420147Y-132977325D03*
%TO.P,D1,2,A*%
%TO.N,/Mains*%
X236420147Y-125605325D03*
%TD*%
%TO.P,D2,1,K*%
%TO.N,/Supply*%
X236371480Y-155420000D03*
%TO.P,D2,2,A*%
%TO.N,/Battery*%
X236371480Y-148048000D03*
%TD*%
D14*
%TO.P,R4,1*%
%TO.N,Net-(C3-Pad2)*%
X226422299Y-139234000D03*
%TO.P,R4,2*%
%TO.N,Net-(Q1-Pad3)*%
X226422299Y-137409000D03*
%TD*%
%TO.P,R5,1*%
%TO.N,Net-(Q1-Pad1)*%
X218922299Y-139253286D03*
%TO.P,R5,2*%
%TO.N,GND*%
X218922299Y-137428286D03*
%TD*%
D15*
%TO.P,R3,1*%
%TO.N,Net-(Q1-Pad1)*%
X221672299Y-132634000D03*
%TO.P,R3,2*%
%TO.N,GND*%
X221672299Y-134459000D03*
%TD*%
D16*
%TO.P,C2,1*%
%TO.N,/Battery output*%
X206534799Y-145234000D03*
%TO.P,C2,2*%
%TO.N,GND*%
X206534799Y-143334000D03*
%TD*%
%TO.P,C1,1*%
%TO.N,/AC{slash}DC output*%
X206284799Y-122934000D03*
%TO.P,C1,2*%
%TO.N,GND*%
X206284799Y-121034000D03*
%TD*%
D17*
%TO.P,C3,1*%
%TO.N,/Supply*%
X243309528Y-128391500D03*
%TO.P,C3,2*%
%TO.N,Net-(C3-Pad2)*%
X243309528Y-130291500D03*
%TD*%
D18*
%TO.P,J2,1,V-*%
%TO.N,GND*%
X201114812Y-155129981D03*
%TO.P,J2,2,V+*%
%TO.N,/Battery output*%
X201114812Y-147929981D03*
D19*
%TO.P,J2,3*%
%TO.N,GND*%
X195114812Y-144779981D03*
%TO.P,J2,4*%
X195114812Y-158279981D03*
%TD*%
D20*
%TO.P,J5,1*%
%TO.N,/Vout*%
X253650799Y-154000000D03*
%TO.P,J5,2*%
%TO.N,GND*%
X259650799Y-154000000D03*
D21*
%TO.P,J5,3*%
%TO.N,unconnected-(J5-Pad3)*%
X256650799Y-149296000D03*
%TD*%
D22*
%TO.P,F1,1*%
%TO.N,/AC{slash}DC output*%
X208495493Y-125618818D03*
%TO.P,F1,2*%
%TO.N,/Mains*%
X231121493Y-125618818D03*
%TD*%
D20*
%TO.P,J3,1*%
%TO.N,/Vout*%
X253639455Y-126000000D03*
%TO.P,J3,2*%
%TO.N,GND*%
X259639455Y-126000000D03*
D21*
%TO.P,J3,3*%
%TO.N,unconnected-(J3-Pad3)*%
X256639455Y-121296000D03*
%TD*%
D14*
%TO.P,R2,1*%
%TO.N,/Switch*%
X218922299Y-134459000D03*
%TO.P,R2,2*%
%TO.N,Net-(Q1-Pad1)*%
X218922299Y-132634000D03*
%TD*%
D23*
%TO.P,Q1,1,G*%
%TO.N,Net-(Q1-Pad1)*%
X221734799Y-137390786D03*
%TO.P,Q1,2,S*%
%TO.N,GND*%
X221734799Y-139290786D03*
%TO.P,Q1,3,D*%
%TO.N,Net-(Q1-Pad3)*%
X223609799Y-138340786D03*
%TD*%
D15*
%TO.P,R1,1*%
%TO.N,/Supply*%
X246092299Y-128409000D03*
%TO.P,R1,2*%
%TO.N,Net-(C3-Pad2)*%
X246092299Y-130234000D03*
%TD*%
D20*
%TO.P,J4,1*%
%TO.N,/Vout*%
X253650799Y-140000000D03*
%TO.P,J4,2*%
%TO.N,GND*%
X259650799Y-140000000D03*
D21*
%TO.P,J4,3*%
%TO.N,unconnected-(J4-Pad3)*%
X256650799Y-135296000D03*
%TD*%
D24*
%TO.P,TP1,1,1*%
%TO.N,/Switch*%
X241284799Y-122484000D03*
%TD*%
D18*
%TO.P,J1,1,V-*%
%TO.N,GND*%
X201147257Y-132815093D03*
%TO.P,J1,2,V+*%
%TO.N,/AC{slash}DC output*%
X201147257Y-125615093D03*
D19*
%TO.P,J1,3*%
%TO.N,GND*%
X195147257Y-122465093D03*
%TO.P,J1,4*%
X195147257Y-135965093D03*
%TD*%
D24*
%TO.P,TP2,1,1*%
%TO.N,/Supply*%
X246000000Y-122500000D03*
%TD*%
D22*
%TO.P,F2,1*%
%TO.N,/Battery output*%
X208471799Y-147984000D03*
%TO.P,F2,2*%
%TO.N,/Battery*%
X231097799Y-147984000D03*
%TD*%
D23*
%TO.P,Q3,1,G*%
%TO.N,Net-(Q1-Pad1)*%
X224484799Y-132596500D03*
%TO.P,Q3,2,S*%
%TO.N,GND*%
X224484799Y-134496500D03*
%TO.P,Q3,3,D*%
%TO.N,Net-(Q3-Pad3)*%
X226359799Y-133546500D03*
%TD*%
D15*
%TO.P,R6,1*%
%TO.N,Net-(Q3-Pad3)*%
X229172299Y-132634000D03*
%TO.P,R6,2*%
%TO.N,Net-(J7-Pad2)*%
X229172299Y-134459000D03*
%TD*%
D24*
%TO.P,TP3,1,1*%
%TO.N,/Vout*%
X250750000Y-122500000D03*
%TD*%
D25*
%TO.P,J6,1,Pin_1*%
%TO.N,/Battery*%
X209997799Y-140673000D03*
%TO.P,J6,2,Pin_2*%
%TO.N,/Switch*%
X209997799Y-136713000D03*
%TO.P,J6,3,Pin_3*%
%TO.N,/Mains*%
X209997799Y-132751000D03*
%TD*%
D26*
%TO.P,J7,1,Pin_1*%
%TO.N,/Vout*%
X236105799Y-138937000D03*
%TO.P,J7,2,Pin_2*%
%TO.N,Net-(J7-Pad2)*%
X233603799Y-138937000D03*
%TD*%
D27*
%TO.N,Net-(C3-Pad2)*%
X229284799Y-138484000D03*
X242034799Y-133734000D03*
%TO.N,/Vout*%
X245784799Y-147484000D03*
%TD*%
D28*
%TO.N,/AC{slash}DC output*%
X206284799Y-122934000D02*
X203835299Y-122934000D01*
X203835299Y-122934000D02*
X201135299Y-125634000D01*
D29*
%TO.N,/Supply*%
X244533653Y-135958548D02*
X241310251Y-135958548D01*
X241284799Y-150506681D02*
X236371480Y-155420000D01*
X238278124Y-132977325D02*
X241284799Y-135984000D01*
X241284799Y-135984000D02*
X241284799Y-150506681D01*
D28*
X238723703Y-132977325D02*
X236420147Y-132977325D01*
X243359976Y-128409000D02*
X243342476Y-128391500D01*
D29*
X241310251Y-135958548D02*
X241284799Y-135984000D01*
D28*
X243309528Y-128391500D02*
X238723703Y-132977325D01*
X246000000Y-122500000D02*
X246000000Y-125701028D01*
X246092299Y-128409000D02*
X243359976Y-128409000D01*
X243342476Y-128391500D02*
X243328667Y-128377691D01*
X246000000Y-125701028D02*
X243309528Y-128391500D01*
D29*
X236420147Y-132977325D02*
X238278124Y-132977325D01*
D28*
%TO.N,Net-(C3-Pad2)*%
X246034799Y-130291500D02*
X246092299Y-130234000D01*
X228534799Y-139234000D02*
X229284799Y-138484000D01*
X246855105Y-133734000D02*
X249079653Y-135958548D01*
X242477299Y-130291500D02*
X243309528Y-130291500D01*
X240784799Y-131984000D02*
X242477299Y-130291500D01*
X240784799Y-132484000D02*
X240784799Y-131984000D01*
X242034799Y-133734000D02*
X246855105Y-133734000D01*
X226422299Y-139234000D02*
X228534799Y-139234000D01*
X243342476Y-130291500D02*
X246034799Y-130291500D01*
X242034799Y-133734000D02*
X240784799Y-132484000D01*
D29*
%TO.N,/Vout*%
X253639455Y-126000000D02*
X253000799Y-126638656D01*
X253000799Y-126638656D02*
X253000799Y-139350000D01*
D28*
X250750000Y-124949201D02*
X252439455Y-126638656D01*
D30*
X247534799Y-147484000D02*
X248189229Y-148138430D01*
D29*
X248189229Y-150471984D02*
X248189229Y-148138430D01*
X248189229Y-148138430D02*
X248189229Y-143925124D01*
D28*
X252439455Y-126638656D02*
X253000799Y-126638656D01*
D29*
X253000799Y-139350000D02*
X253650799Y-140000000D01*
D30*
X245784799Y-147484000D02*
X247534799Y-147484000D01*
D29*
X252467245Y-154750000D02*
X248189229Y-150471984D01*
X249349201Y-140000000D02*
X246806653Y-142542548D01*
X253650799Y-140000000D02*
X249349201Y-140000000D01*
D28*
X250750000Y-122500000D02*
X250750000Y-124949201D01*
D29*
X248189229Y-143925124D02*
X246806653Y-142542548D01*
X253650799Y-154750000D02*
X252467245Y-154750000D01*
D28*
%TO.N,/Battery output*%
X203866093Y-145234000D02*
X201135299Y-147964794D01*
X206534799Y-145234000D02*
X203866093Y-145234000D01*
D31*
%TO.N,/Mains*%
X231134986Y-125605325D02*
X231121493Y-125618818D01*
X236420147Y-125605325D02*
X231134986Y-125605325D01*
%TO.N,/Battery*%
X236371480Y-148048000D02*
X231161799Y-148048000D01*
X231161799Y-148048000D02*
X231097799Y-147984000D01*
D28*
%TO.N,/Switch*%
X217284799Y-129984000D02*
X210555799Y-136713000D01*
X210555799Y-136713000D02*
X209997799Y-136713000D01*
X216668299Y-136713000D02*
X209997799Y-136713000D01*
X238784799Y-129984000D02*
X217284799Y-129984000D01*
X241284799Y-127484000D02*
X238784799Y-129984000D01*
X241284799Y-122484000D02*
X241284799Y-127484000D01*
X218922299Y-134459000D02*
X216668299Y-136713000D01*
%TO.N,Net-(Q3-Pad3)*%
X228259799Y-133546500D02*
X229172299Y-132634000D01*
X226359799Y-133546500D02*
X228259799Y-133546500D01*
%TO.N,Net-(Q1-Pad1)*%
X224484799Y-132596500D02*
X223034799Y-132596500D01*
X218922299Y-139253286D02*
X219872299Y-139253286D01*
X218922299Y-132634000D02*
X221672299Y-132634000D01*
X223034799Y-132596500D02*
X223034799Y-135984000D01*
X219872299Y-139253286D02*
X221734799Y-137390786D01*
X223034799Y-136090786D02*
X221734799Y-137390786D01*
X223034799Y-132596500D02*
X221709799Y-132596500D01*
X221709799Y-132596500D02*
X221672299Y-132634000D01*
%TO.N,Net-(Q1-Pad3)*%
X226422299Y-137409000D02*
X224541585Y-137409000D01*
X224541585Y-137409000D02*
X223609799Y-138340786D01*
%TO.N,Net-(J7-Pad2)*%
X233603799Y-138937000D02*
X229172299Y-134505500D01*
%TD*%
%TA.AperFunction,Conductor*%
%TO.N,GND*%
G36*
X267218420Y-118012502D02*
G01*
X267264913Y-118066158D01*
X267276299Y-118118500D01*
X267276299Y-161099500D01*
X267256297Y-161167621D01*
X267202641Y-161214114D01*
X267150299Y-161225500D01*
X185169299Y-161225500D01*
X185101178Y-161205498D01*
X185054685Y-161151842D01*
X185043299Y-161099500D01*
X185043299Y-158547380D01*
X193539524Y-158547380D01*
X193561006Y-158636518D01*
X193564895Y-158647813D01*
X193647441Y-158829363D01*
X193653388Y-158839705D01*
X193768780Y-159002378D01*
X193776573Y-159011406D01*
X193920643Y-159149323D01*
X193930008Y-159156719D01*
X194097553Y-159264902D01*
X194108157Y-159270398D01*
X194293124Y-159344942D01*
X194304582Y-159348336D01*
X194501740Y-159386838D01*
X194510603Y-159387915D01*
X194513312Y-159387981D01*
X194842697Y-159387981D01*
X194857936Y-159383506D01*
X194859141Y-159382116D01*
X194860812Y-159374433D01*
X194860812Y-159369866D01*
X195368812Y-159369866D01*
X195373287Y-159385105D01*
X195374677Y-159386310D01*
X195382360Y-159387981D01*
X195664644Y-159387981D01*
X195670620Y-159387696D01*
X195819306Y-159373510D01*
X195831040Y-159371251D01*
X196022411Y-159315109D01*
X196033487Y-159310679D01*
X196210790Y-159219362D01*
X196220836Y-159212912D01*
X196377669Y-159089719D01*
X196386318Y-159081482D01*
X196517024Y-158930858D01*
X196523959Y-158921134D01*
X196623822Y-158748514D01*
X196628796Y-158737650D01*
X196694219Y-158549254D01*
X196694460Y-158548265D01*
X196692992Y-158537973D01*
X196679427Y-158533981D01*
X195386927Y-158533981D01*
X195371688Y-158538456D01*
X195370483Y-158539846D01*
X195368812Y-158547529D01*
X195368812Y-159369866D01*
X194860812Y-159369866D01*
X194860812Y-158552096D01*
X194856337Y-158536857D01*
X194854947Y-158535652D01*
X194847264Y-158533981D01*
X193554410Y-158533981D01*
X193540879Y-158537954D01*
X193539524Y-158547380D01*
X185043299Y-158547380D01*
X185043299Y-158011697D01*
X193535164Y-158011697D01*
X193536632Y-158021989D01*
X193550197Y-158025981D01*
X194842697Y-158025981D01*
X194857936Y-158021506D01*
X194859141Y-158020116D01*
X194860812Y-158012433D01*
X194860812Y-158007866D01*
X195368812Y-158007866D01*
X195373287Y-158023105D01*
X195374677Y-158024310D01*
X195382360Y-158025981D01*
X196675214Y-158025981D01*
X196688745Y-158022008D01*
X196690100Y-158012582D01*
X196668618Y-157923444D01*
X196664729Y-157912149D01*
X196582183Y-157730599D01*
X196576236Y-157720257D01*
X196460844Y-157557584D01*
X196453051Y-157548556D01*
X196308981Y-157410639D01*
X196299616Y-157403243D01*
X196132071Y-157295060D01*
X196121467Y-157289564D01*
X195936500Y-157215020D01*
X195925042Y-157211626D01*
X195727884Y-157173124D01*
X195719021Y-157172047D01*
X195716312Y-157171981D01*
X195386927Y-157171981D01*
X195371688Y-157176456D01*
X195370483Y-157177846D01*
X195368812Y-157185529D01*
X195368812Y-158007866D01*
X194860812Y-158007866D01*
X194860812Y-157190096D01*
X194856337Y-157174857D01*
X194854947Y-157173652D01*
X194847264Y-157171981D01*
X194564980Y-157171981D01*
X194559004Y-157172266D01*
X194410318Y-157186452D01*
X194398584Y-157188711D01*
X194207213Y-157244853D01*
X194196137Y-157249283D01*
X194018834Y-157340600D01*
X194008788Y-157347050D01*
X193851955Y-157470243D01*
X193843306Y-157478480D01*
X193712600Y-157629104D01*
X193705665Y-157638828D01*
X193605802Y-157811448D01*
X193600828Y-157822312D01*
X193535405Y-158010708D01*
X193535164Y-158011697D01*
X185043299Y-158011697D01*
X185043299Y-157004375D01*
X199605126Y-157004375D01*
X199613955Y-157015995D01*
X199818782Y-157164811D01*
X199825462Y-157169051D01*
X200084046Y-157311209D01*
X200091181Y-157314566D01*
X200365558Y-157423200D01*
X200373049Y-157425634D01*
X200658871Y-157499020D01*
X200666642Y-157500502D01*
X200959382Y-157537484D01*
X200967272Y-157537981D01*
X201262352Y-157537981D01*
X201270242Y-157537484D01*
X201562982Y-157500502D01*
X201570753Y-157499020D01*
X201856575Y-157425634D01*
X201864066Y-157423200D01*
X202138443Y-157314566D01*
X202145578Y-157311209D01*
X202404162Y-157169051D01*
X202410842Y-157164811D01*
X202616042Y-157015725D01*
X202624465Y-157004802D01*
X202617561Y-156991941D01*
X201127622Y-155502001D01*
X201113681Y-155494389D01*
X201111846Y-155494520D01*
X201105232Y-155498771D01*
X199611739Y-156992265D01*
X199605126Y-157004375D01*
X185043299Y-157004375D01*
X185043299Y-155133939D01*
X198702300Y-155133939D01*
X198720827Y-155428417D01*
X198721820Y-155436278D01*
X198777108Y-155726109D01*
X198779079Y-155733786D01*
X198870258Y-156014405D01*
X198873173Y-156021768D01*
X198998805Y-156288751D01*
X199002617Y-156295684D01*
X199160721Y-156544816D01*
X199165375Y-156551222D01*
X199230333Y-156629742D01*
X199242852Y-156638198D01*
X199253590Y-156631992D01*
X200742792Y-155142791D01*
X200749169Y-155131112D01*
X201479220Y-155131112D01*
X201479351Y-155132947D01*
X201483602Y-155139561D01*
X202974931Y-156630889D01*
X202988193Y-156638131D01*
X202998297Y-156630943D01*
X203064249Y-156551222D01*
X203068903Y-156544816D01*
X203227007Y-156295684D01*
X203230819Y-156288751D01*
X203356451Y-156021768D01*
X203359366Y-156014405D01*
X203450545Y-155733786D01*
X203452516Y-155726109D01*
X203507804Y-155436278D01*
X203508797Y-155428417D01*
X203527324Y-155133939D01*
X203527324Y-155126023D01*
X203508797Y-154831545D01*
X203507804Y-154823684D01*
X203452516Y-154533853D01*
X203450545Y-154526176D01*
X203359366Y-154245557D01*
X203356451Y-154238194D01*
X203230819Y-153971211D01*
X203227007Y-153964278D01*
X203068903Y-153715146D01*
X203064249Y-153708740D01*
X202999291Y-153630220D01*
X202986772Y-153621764D01*
X202976034Y-153627970D01*
X201486832Y-155117171D01*
X201479220Y-155131112D01*
X200749169Y-155131112D01*
X200750404Y-155128850D01*
X200750273Y-155127015D01*
X200746022Y-155120401D01*
X199254693Y-153629073D01*
X199241431Y-153621831D01*
X199231327Y-153629019D01*
X199165375Y-153708740D01*
X199160721Y-153715146D01*
X199002617Y-153964278D01*
X198998805Y-153971211D01*
X198873173Y-154238194D01*
X198870258Y-154245557D01*
X198779079Y-154526176D01*
X198777108Y-154533853D01*
X198721820Y-154823684D01*
X198720827Y-154831545D01*
X198702300Y-155126023D01*
X198702300Y-155133939D01*
X185043299Y-155133939D01*
X185043299Y-153255160D01*
X199605159Y-153255160D01*
X199612063Y-153268021D01*
X201102002Y-154757961D01*
X201115943Y-154765573D01*
X201117778Y-154765442D01*
X201124392Y-154761191D01*
X202617885Y-153267697D01*
X202624498Y-153255587D01*
X202615669Y-153243967D01*
X202410842Y-153095151D01*
X202404162Y-153090911D01*
X202145578Y-152948753D01*
X202138443Y-152945396D01*
X201864066Y-152836762D01*
X201856575Y-152834328D01*
X201570753Y-152760942D01*
X201562982Y-152759460D01*
X201270242Y-152722478D01*
X201262352Y-152721981D01*
X200967272Y-152721981D01*
X200959382Y-152722478D01*
X200666642Y-152759460D01*
X200658871Y-152760942D01*
X200373049Y-152834328D01*
X200365558Y-152836762D01*
X200091181Y-152945396D01*
X200084046Y-152948753D01*
X199825462Y-153090911D01*
X199818782Y-153095151D01*
X199613582Y-153244237D01*
X199605159Y-153255160D01*
X185043299Y-153255160D01*
X185043299Y-147929981D01*
X198701550Y-147929981D01*
X198720579Y-148232443D01*
X198777367Y-148530135D01*
X198778594Y-148533911D01*
X198853411Y-148764172D01*
X198871018Y-148818362D01*
X198872705Y-148821948D01*
X198872707Y-148821952D01*
X198904629Y-148889789D01*
X199000054Y-149092579D01*
X199002178Y-149095925D01*
X199002178Y-149095926D01*
X199022546Y-149128021D01*
X199162442Y-149348461D01*
X199164961Y-149351506D01*
X199164964Y-149351510D01*
X199206726Y-149401991D01*
X199355620Y-149581973D01*
X199576541Y-149789431D01*
X199821722Y-149967565D01*
X199825191Y-149969472D01*
X199825194Y-149969474D01*
X199955117Y-150040900D01*
X200087295Y-150113566D01*
X200090964Y-150115019D01*
X200090969Y-150115021D01*
X200330796Y-150209975D01*
X200369073Y-150225130D01*
X200662612Y-150300497D01*
X200963282Y-150338481D01*
X201266342Y-150338481D01*
X201567012Y-150300497D01*
X201860551Y-150225130D01*
X201898828Y-150209975D01*
X202138655Y-150115021D01*
X202138660Y-150115019D01*
X202142329Y-150113566D01*
X202274507Y-150040900D01*
X202404430Y-149969474D01*
X202404433Y-149969472D01*
X202407902Y-149967565D01*
X202653083Y-149789431D01*
X202874004Y-149581973D01*
X203022898Y-149401991D01*
X203064660Y-149351510D01*
X203064663Y-149351506D01*
X203067182Y-149348461D01*
X203207078Y-149128021D01*
X203227446Y-149095926D01*
X203227446Y-149095925D01*
X203229570Y-149092579D01*
X203324995Y-148889789D01*
X203356917Y-148821952D01*
X203356919Y-148821948D01*
X203358606Y-148818362D01*
X203376214Y-148764172D01*
X203386092Y-148733769D01*
X207463299Y-148733769D01*
X207463599Y-148736825D01*
X207463599Y-148736832D01*
X207466280Y-148764172D01*
X207477719Y-148880833D01*
X207534883Y-149070169D01*
X207627733Y-149244796D01*
X207653963Y-149276957D01*
X207748839Y-149393287D01*
X207748842Y-149393290D01*
X207752734Y-149398062D01*
X207757481Y-149401989D01*
X207757483Y-149401991D01*
X207900374Y-149520201D01*
X207900378Y-149520203D01*
X207905124Y-149524130D01*
X208079098Y-149618198D01*
X208268031Y-149676682D01*
X208274156Y-149677326D01*
X208274157Y-149677326D01*
X208458595Y-149696711D01*
X208458597Y-149696711D01*
X208464724Y-149697355D01*
X208547223Y-149689847D01*
X208655548Y-149679989D01*
X208655551Y-149679988D01*
X208661687Y-149679430D01*
X208667593Y-149677692D01*
X208667597Y-149677691D01*
X208822156Y-149632202D01*
X208851418Y-149623590D01*
X208856876Y-149620737D01*
X208856880Y-149620735D01*
X208947652Y-149573280D01*
X209026689Y-149531960D01*
X209180824Y-149408032D01*
X209307953Y-149256526D01*
X209310920Y-149251128D01*
X209310924Y-149251123D01*
X209400266Y-149088608D01*
X209403232Y-149083213D01*
X209405645Y-149075608D01*
X209461172Y-148900564D01*
X209461172Y-148900563D01*
X209463034Y-148894694D01*
X209480299Y-148740773D01*
X209480299Y-147234231D01*
X209479613Y-147227227D01*
X209472206Y-147151696D01*
X209465879Y-147087167D01*
X209452122Y-147041600D01*
X209437705Y-146993851D01*
X209408715Y-146897831D01*
X209315865Y-146723204D01*
X209226664Y-146613833D01*
X209194759Y-146574713D01*
X209194756Y-146574710D01*
X209190864Y-146569938D01*
X209180945Y-146561732D01*
X209043224Y-146447799D01*
X209043220Y-146447797D01*
X209038474Y-146443870D01*
X208864500Y-146349802D01*
X208675567Y-146291318D01*
X208669442Y-146290674D01*
X208669441Y-146290674D01*
X208485003Y-146271289D01*
X208485001Y-146271289D01*
X208478874Y-146270645D01*
X208398177Y-146277989D01*
X208288050Y-146288011D01*
X208288047Y-146288012D01*
X208281911Y-146288570D01*
X208276005Y-146290308D01*
X208276001Y-146290309D01*
X208171552Y-146321050D01*
X208092180Y-146344410D01*
X208086722Y-146347263D01*
X208086718Y-146347265D01*
X208034229Y-146374706D01*
X207916909Y-146436040D01*
X207762774Y-146559968D01*
X207635645Y-146711474D01*
X207632678Y-146716872D01*
X207632674Y-146716877D01*
X207584155Y-146805134D01*
X207540366Y-146884787D01*
X207538505Y-146890654D01*
X207538504Y-146890656D01*
X207483212Y-147064959D01*
X207480564Y-147073306D01*
X207463299Y-147227227D01*
X207463299Y-148733769D01*
X203386092Y-148733769D01*
X203451030Y-148533911D01*
X203452257Y-148530135D01*
X203509045Y-148232443D01*
X203528074Y-147929981D01*
X203509045Y-147627519D01*
X203452257Y-147329827D01*
X203368908Y-147073306D01*
X203359832Y-147045373D01*
X203359832Y-147045372D01*
X203358606Y-147041600D01*
X203300908Y-146918984D01*
X203290002Y-146848831D01*
X203318755Y-146783918D01*
X203325821Y-146776242D01*
X204122658Y-145979405D01*
X204184970Y-145945379D01*
X204211753Y-145942500D01*
X205393319Y-145942500D01*
X205461440Y-145962502D01*
X205482335Y-145979325D01*
X205586496Y-146083305D01*
X205592726Y-146087145D01*
X205592727Y-146087146D01*
X205730564Y-146172110D01*
X205737061Y-146176115D01*
X205810064Y-146200329D01*
X205898410Y-146229632D01*
X205898412Y-146229632D01*
X205904938Y-146231797D01*
X205911774Y-146232497D01*
X205911777Y-146232498D01*
X205954830Y-146236909D01*
X206009399Y-146242500D01*
X207060199Y-146242500D01*
X207063445Y-146242163D01*
X207063449Y-146242163D01*
X207159107Y-146232238D01*
X207159111Y-146232237D01*
X207165965Y-146231526D01*
X207172501Y-146229345D01*
X207172503Y-146229345D01*
X207304605Y-146185272D01*
X207333745Y-146175550D01*
X207484147Y-146082478D01*
X207609104Y-145957303D01*
X207642661Y-145902864D01*
X207698074Y-145812968D01*
X207698075Y-145812966D01*
X207701914Y-145806738D01*
X207757596Y-145638861D01*
X207768299Y-145534400D01*
X207768299Y-144933600D01*
X207764571Y-144897672D01*
X207758037Y-144834692D01*
X207758036Y-144834688D01*
X207757325Y-144827834D01*
X207701349Y-144660054D01*
X207608277Y-144509652D01*
X207483102Y-144384695D01*
X207478564Y-144381898D01*
X207437975Y-144324647D01*
X207434745Y-144253724D01*
X207470371Y-144192313D01*
X207478867Y-144184938D01*
X207489006Y-144176902D01*
X207603538Y-144062171D01*
X207612550Y-144050760D01*
X207697615Y-143912757D01*
X207703762Y-143899576D01*
X207754937Y-143745290D01*
X207757804Y-143731914D01*
X207767471Y-143637562D01*
X207767799Y-143631146D01*
X207767799Y-143606115D01*
X207763324Y-143590876D01*
X207761934Y-143589671D01*
X207754251Y-143588000D01*
X205319915Y-143588000D01*
X205304676Y-143592475D01*
X205303471Y-143593865D01*
X205301800Y-143601548D01*
X205301800Y-143631095D01*
X205302137Y-143637614D01*
X205312056Y-143733206D01*
X205314948Y-143746600D01*
X205366387Y-143900784D01*
X205372560Y-143913962D01*
X205457862Y-144051807D01*
X205466898Y-144063208D01*
X205581627Y-144177738D01*
X205590561Y-144184794D01*
X205631622Y-144242712D01*
X205634852Y-144313635D01*
X205599225Y-144375046D01*
X205591392Y-144381846D01*
X205585451Y-144385522D01*
X205580278Y-144390704D01*
X205482634Y-144488518D01*
X205420351Y-144522597D01*
X205393461Y-144525500D01*
X203895015Y-144525500D01*
X203886445Y-144525208D01*
X203836317Y-144521790D01*
X203836313Y-144521790D01*
X203828741Y-144521274D01*
X203765774Y-144532264D01*
X203759262Y-144533224D01*
X203695851Y-144540898D01*
X203688750Y-144543581D01*
X203686141Y-144544222D01*
X203669808Y-144548691D01*
X203667288Y-144549452D01*
X203659810Y-144550757D01*
X203652858Y-144553809D01*
X203652857Y-144553809D01*
X203601297Y-144576441D01*
X203595192Y-144578932D01*
X203542549Y-144598825D01*
X203542545Y-144598827D01*
X203535437Y-144601513D01*
X203529176Y-144605816D01*
X203526810Y-144607053D01*
X203512030Y-144615280D01*
X203509745Y-144616631D01*
X203502788Y-144619685D01*
X203496768Y-144624305D01*
X203496762Y-144624308D01*
X203465635Y-144648194D01*
X203452091Y-144658587D01*
X203446761Y-144662459D01*
X203400373Y-144694339D01*
X203400368Y-144694344D01*
X203394112Y-144698643D01*
X203389061Y-144704313D01*
X203389059Y-144704314D01*
X203352658Y-144745170D01*
X203347677Y-144750446D01*
X202344341Y-145753782D01*
X202282029Y-145787808D01*
X202211214Y-145782743D01*
X202194545Y-145775102D01*
X202145791Y-145748299D01*
X202145788Y-145748298D01*
X202142329Y-145746396D01*
X201860551Y-145634832D01*
X201567012Y-145559465D01*
X201266342Y-145521481D01*
X200963282Y-145521481D01*
X200662612Y-145559465D01*
X200369073Y-145634832D01*
X200365404Y-145636285D01*
X200365403Y-145636285D01*
X200090969Y-145744941D01*
X200090967Y-145744942D01*
X200087295Y-145746396D01*
X200083827Y-145748302D01*
X200083826Y-145748303D01*
X199829755Y-145887981D01*
X199821722Y-145892397D01*
X199576541Y-146070531D01*
X199355620Y-146277989D01*
X199162442Y-146511501D01*
X199000054Y-146767383D01*
X198931810Y-146912410D01*
X198877772Y-147027248D01*
X198871018Y-147041600D01*
X198869792Y-147045372D01*
X198869792Y-147045373D01*
X198860716Y-147073306D01*
X198777367Y-147329827D01*
X198720579Y-147627519D01*
X198701550Y-147929981D01*
X185043299Y-147929981D01*
X185043299Y-145047380D01*
X193539524Y-145047380D01*
X193561006Y-145136518D01*
X193564895Y-145147813D01*
X193647441Y-145329363D01*
X193653388Y-145339705D01*
X193768780Y-145502378D01*
X193776573Y-145511406D01*
X193920643Y-145649323D01*
X193930008Y-145656719D01*
X194097553Y-145764902D01*
X194108157Y-145770398D01*
X194293124Y-145844942D01*
X194304582Y-145848336D01*
X194501740Y-145886838D01*
X194510603Y-145887915D01*
X194513312Y-145887981D01*
X194842697Y-145887981D01*
X194857936Y-145883506D01*
X194859141Y-145882116D01*
X194860812Y-145874433D01*
X194860812Y-145869866D01*
X195368812Y-145869866D01*
X195373287Y-145885105D01*
X195374677Y-145886310D01*
X195382360Y-145887981D01*
X195664644Y-145887981D01*
X195670620Y-145887696D01*
X195819306Y-145873510D01*
X195831040Y-145871251D01*
X196022411Y-145815109D01*
X196033487Y-145810679D01*
X196210790Y-145719362D01*
X196220836Y-145712912D01*
X196377669Y-145589719D01*
X196386318Y-145581482D01*
X196517024Y-145430858D01*
X196523959Y-145421134D01*
X196623822Y-145248514D01*
X196628796Y-145237650D01*
X196694219Y-145049254D01*
X196694460Y-145048265D01*
X196692992Y-145037973D01*
X196679427Y-145033981D01*
X195386927Y-145033981D01*
X195371688Y-145038456D01*
X195370483Y-145039846D01*
X195368812Y-145047529D01*
X195368812Y-145869866D01*
X194860812Y-145869866D01*
X194860812Y-145052096D01*
X194856337Y-145036857D01*
X194854947Y-145035652D01*
X194847264Y-145033981D01*
X193554410Y-145033981D01*
X193540879Y-145037954D01*
X193539524Y-145047380D01*
X185043299Y-145047380D01*
X185043299Y-144511697D01*
X193535164Y-144511697D01*
X193536632Y-144521989D01*
X193550197Y-144525981D01*
X194842697Y-144525981D01*
X194857936Y-144521506D01*
X194859141Y-144520116D01*
X194860812Y-144512433D01*
X194860812Y-144507866D01*
X195368812Y-144507866D01*
X195373287Y-144523105D01*
X195374677Y-144524310D01*
X195382360Y-144525981D01*
X196675214Y-144525981D01*
X196688745Y-144522008D01*
X196690100Y-144512582D01*
X196668618Y-144423444D01*
X196664729Y-144412149D01*
X196582183Y-144230599D01*
X196576236Y-144220257D01*
X196460844Y-144057584D01*
X196453051Y-144048556D01*
X196308981Y-143910639D01*
X196299616Y-143903243D01*
X196132071Y-143795060D01*
X196121467Y-143789564D01*
X195936500Y-143715020D01*
X195925042Y-143711626D01*
X195727884Y-143673124D01*
X195719021Y-143672047D01*
X195716312Y-143671981D01*
X195386927Y-143671981D01*
X195371688Y-143676456D01*
X195370483Y-143677846D01*
X195368812Y-143685529D01*
X195368812Y-144507866D01*
X194860812Y-144507866D01*
X194860812Y-143690096D01*
X194856337Y-143674857D01*
X194854947Y-143673652D01*
X194847264Y-143671981D01*
X194564980Y-143671981D01*
X194559004Y-143672266D01*
X194410318Y-143686452D01*
X194398584Y-143688711D01*
X194207213Y-143744853D01*
X194196137Y-143749283D01*
X194018834Y-143840600D01*
X194008788Y-143847050D01*
X193851955Y-143970243D01*
X193843306Y-143978480D01*
X193712600Y-144129104D01*
X193705665Y-144138828D01*
X193605802Y-144311448D01*
X193600828Y-144322312D01*
X193535405Y-144510708D01*
X193535164Y-144511697D01*
X185043299Y-144511697D01*
X185043299Y-143061885D01*
X205301799Y-143061885D01*
X205306274Y-143077124D01*
X205307664Y-143078329D01*
X205315347Y-143080000D01*
X206262684Y-143080000D01*
X206277923Y-143075525D01*
X206279128Y-143074135D01*
X206280799Y-143066452D01*
X206280799Y-143061885D01*
X206788799Y-143061885D01*
X206793274Y-143077124D01*
X206794664Y-143078329D01*
X206802347Y-143080000D01*
X207749683Y-143080000D01*
X207764922Y-143075525D01*
X207766127Y-143074135D01*
X207767798Y-143066452D01*
X207767798Y-143036905D01*
X207767461Y-143030386D01*
X207757542Y-142934794D01*
X207754650Y-142921400D01*
X207703211Y-142767216D01*
X207697038Y-142754038D01*
X207611736Y-142616193D01*
X207602700Y-142604792D01*
X207487970Y-142490261D01*
X207476559Y-142481249D01*
X207338556Y-142396184D01*
X207325375Y-142390037D01*
X207171089Y-142338862D01*
X207157713Y-142335995D01*
X207063361Y-142326328D01*
X207056944Y-142326000D01*
X206806914Y-142326000D01*
X206791675Y-142330475D01*
X206790470Y-142331865D01*
X206788799Y-142339548D01*
X206788799Y-143061885D01*
X206280799Y-143061885D01*
X206280799Y-142344116D01*
X206276324Y-142328877D01*
X206274934Y-142327672D01*
X206267251Y-142326001D01*
X206012704Y-142326001D01*
X206006185Y-142326338D01*
X205910593Y-142336257D01*
X205897199Y-142339149D01*
X205743015Y-142390588D01*
X205729837Y-142396761D01*
X205591992Y-142482063D01*
X205580591Y-142491099D01*
X205466060Y-142605829D01*
X205457048Y-142617240D01*
X205371983Y-142755243D01*
X205365836Y-142768424D01*
X205314661Y-142922710D01*
X205311794Y-142936086D01*
X205302127Y-143030438D01*
X205301799Y-143036855D01*
X205301799Y-143061885D01*
X185043299Y-143061885D01*
X185043299Y-140612899D01*
X208085368Y-140612899D01*
X208085543Y-140617351D01*
X208093238Y-140813191D01*
X208095979Y-140882963D01*
X208144536Y-141148837D01*
X208230071Y-141405217D01*
X208350877Y-141646987D01*
X208379163Y-141687913D01*
X208457362Y-141801058D01*
X208504543Y-141869324D01*
X208688004Y-142067790D01*
X208897598Y-142238427D01*
X208901416Y-142240726D01*
X208901418Y-142240727D01*
X209112294Y-142367685D01*
X209129145Y-142377830D01*
X209133240Y-142379564D01*
X209133242Y-142379565D01*
X209373923Y-142481480D01*
X209373930Y-142481482D01*
X209378024Y-142483216D01*
X209407755Y-142491099D01*
X209634971Y-142551345D01*
X209634976Y-142551346D01*
X209639268Y-142552484D01*
X209643677Y-142553006D01*
X209643683Y-142553007D01*
X209793009Y-142570680D01*
X209907667Y-142584251D01*
X210177863Y-142577883D01*
X210182258Y-142577151D01*
X210182263Y-142577151D01*
X210440066Y-142534241D01*
X210440070Y-142534240D01*
X210444468Y-142533508D01*
X210616719Y-142479032D01*
X210697913Y-142453354D01*
X210697915Y-142453353D01*
X210702159Y-142452011D01*
X210706170Y-142450085D01*
X210706175Y-142450083D01*
X210941778Y-142336948D01*
X210941779Y-142336947D01*
X210945797Y-142335018D01*
X211094567Y-142235613D01*
X211166812Y-142187341D01*
X211166816Y-142187338D01*
X211170520Y-142184863D01*
X211173837Y-142181892D01*
X211173841Y-142181889D01*
X211368528Y-142007512D01*
X211371844Y-142004542D01*
X211545752Y-141797654D01*
X211555289Y-141782363D01*
X211686413Y-141572111D01*
X211686414Y-141572109D01*
X211688774Y-141568325D01*
X211798057Y-141321133D01*
X211871419Y-141061008D01*
X211894745Y-140887343D01*
X211906971Y-140796324D01*
X211906972Y-140796316D01*
X211907398Y-140793142D01*
X211908248Y-140766110D01*
X211911073Y-140676222D01*
X211911073Y-140676217D01*
X211911174Y-140673000D01*
X211892086Y-140403403D01*
X211835201Y-140139185D01*
X211827730Y-140118932D01*
X211743196Y-139889796D01*
X211741655Y-139885619D01*
X211724058Y-139853005D01*
X211615428Y-139651678D01*
X211615428Y-139651677D01*
X211613315Y-139647762D01*
X211452741Y-139430362D01*
X211441987Y-139419437D01*
X211302560Y-139277803D01*
X211263137Y-139237756D01*
X211186355Y-139179158D01*
X211051827Y-139076489D01*
X211051823Y-139076487D01*
X211048286Y-139073787D01*
X210812474Y-138941727D01*
X210560408Y-138844210D01*
X210553721Y-138842660D01*
X210447315Y-138817996D01*
X210385471Y-138783128D01*
X210352294Y-138720360D01*
X210358320Y-138649619D01*
X210401634Y-138593366D01*
X210444494Y-138573590D01*
X210444468Y-138573508D01*
X210445119Y-138573302D01*
X210445118Y-138573302D01*
X210682599Y-138498197D01*
X210697913Y-138493354D01*
X210697915Y-138493353D01*
X210702159Y-138492011D01*
X210706170Y-138490085D01*
X210706175Y-138490083D01*
X210941778Y-138376948D01*
X210941779Y-138376947D01*
X210945797Y-138375018D01*
X211108218Y-138266492D01*
X211166812Y-138227341D01*
X211166816Y-138227338D01*
X211170520Y-138224863D01*
X211173837Y-138221892D01*
X211173841Y-138221889D01*
X211368528Y-138047512D01*
X211371844Y-138044542D01*
X211545752Y-137837654D01*
X211562971Y-137810045D01*
X211686413Y-137612111D01*
X211686414Y-137612109D01*
X211688774Y-137608325D01*
X211697252Y-137589148D01*
X211738189Y-137496552D01*
X211784027Y-137442336D01*
X211853429Y-137421500D01*
X216639387Y-137421500D01*
X216647957Y-137421792D01*
X216698075Y-137425209D01*
X216698079Y-137425209D01*
X216705651Y-137425725D01*
X216713128Y-137424420D01*
X216713129Y-137424420D01*
X216739607Y-137419799D01*
X216768602Y-137414738D01*
X216775120Y-137413777D01*
X216838541Y-137406102D01*
X216845642Y-137403419D01*
X216848251Y-137402778D01*
X216864561Y-137398315D01*
X216867097Y-137397550D01*
X216874583Y-137396243D01*
X216933099Y-137370556D01*
X216939203Y-137368065D01*
X216991847Y-137348173D01*
X216991848Y-137348172D01*
X216998955Y-137345487D01*
X217005218Y-137341183D01*
X217007584Y-137339946D01*
X217022396Y-137331701D01*
X217024650Y-137330368D01*
X217031604Y-137327315D01*
X217082301Y-137288413D01*
X217087631Y-137284541D01*
X217134019Y-137252661D01*
X217134024Y-137252656D01*
X217140280Y-137248357D01*
X217181735Y-137201829D01*
X217186715Y-137196554D01*
X217523901Y-136859368D01*
X217586213Y-136825342D01*
X217657028Y-136830407D01*
X217713864Y-136872954D01*
X217738675Y-136939474D01*
X217732590Y-136988129D01*
X217727161Y-137004498D01*
X217724294Y-137017872D01*
X217714627Y-137112224D01*
X217714299Y-137118641D01*
X217714299Y-137156171D01*
X217718774Y-137171410D01*
X217720164Y-137172615D01*
X217727847Y-137174286D01*
X218650184Y-137174286D01*
X218665423Y-137169811D01*
X218666628Y-137168421D01*
X218668299Y-137160738D01*
X218668299Y-137156171D01*
X219176299Y-137156171D01*
X219180774Y-137171410D01*
X219182164Y-137172615D01*
X219189847Y-137174286D01*
X220112183Y-137174286D01*
X220127422Y-137169811D01*
X220128627Y-137168421D01*
X220130298Y-137160738D01*
X220130298Y-137118691D01*
X220129961Y-137112172D01*
X220120042Y-137016580D01*
X220117150Y-137003186D01*
X220065711Y-136849002D01*
X220059538Y-136835824D01*
X219974235Y-136697978D01*
X219965200Y-136686578D01*
X219850470Y-136572047D01*
X219839059Y-136563035D01*
X219701056Y-136477970D01*
X219687875Y-136471823D01*
X219533589Y-136420648D01*
X219520213Y-136417781D01*
X219425861Y-136408114D01*
X219419444Y-136407786D01*
X219194414Y-136407786D01*
X219179175Y-136412261D01*
X219177970Y-136413651D01*
X219176299Y-136421334D01*
X219176299Y-137156171D01*
X218668299Y-137156171D01*
X218668299Y-136425902D01*
X218663824Y-136410663D01*
X218662434Y-136409458D01*
X218654751Y-136407787D01*
X218425204Y-136407787D01*
X218418685Y-136408124D01*
X218323093Y-136418043D01*
X218309698Y-136420935D01*
X218295028Y-136425829D01*
X218224079Y-136428412D01*
X218162996Y-136392226D01*
X218131172Y-136328761D01*
X218138713Y-136258166D01*
X218166057Y-136217213D01*
X218866367Y-135516903D01*
X218928677Y-135482879D01*
X218955460Y-135480000D01*
X219422699Y-135480000D01*
X219425945Y-135479663D01*
X219425949Y-135479663D01*
X219521607Y-135469738D01*
X219521611Y-135469737D01*
X219528465Y-135469026D01*
X219535001Y-135466845D01*
X219535003Y-135466845D01*
X219668810Y-135422203D01*
X219696245Y-135413050D01*
X219846647Y-135319978D01*
X219880183Y-135286384D01*
X219966433Y-135199983D01*
X219971604Y-135194803D01*
X219984064Y-135174589D01*
X220060574Y-135050468D01*
X220060575Y-135050466D01*
X220064414Y-135044238D01*
X220100847Y-134934395D01*
X220117931Y-134882889D01*
X220117931Y-134882887D01*
X220120096Y-134876361D01*
X220122064Y-134857159D01*
X220130466Y-134775150D01*
X220130799Y-134771900D01*
X220130799Y-134768595D01*
X220464300Y-134768595D01*
X220464637Y-134775114D01*
X220474556Y-134870706D01*
X220477448Y-134884100D01*
X220528887Y-135038284D01*
X220535060Y-135051462D01*
X220620362Y-135189307D01*
X220629398Y-135200708D01*
X220744128Y-135315239D01*
X220755539Y-135324251D01*
X220893542Y-135409316D01*
X220906723Y-135415463D01*
X221061009Y-135466638D01*
X221074385Y-135469505D01*
X221168737Y-135479172D01*
X221175153Y-135479500D01*
X221400184Y-135479500D01*
X221415423Y-135475025D01*
X221416628Y-135473635D01*
X221418299Y-135465952D01*
X221418299Y-134731115D01*
X221413824Y-134715876D01*
X221412434Y-134714671D01*
X221404751Y-134713000D01*
X220482415Y-134713000D01*
X220467176Y-134717475D01*
X220465971Y-134718865D01*
X220464300Y-134726548D01*
X220464300Y-134768595D01*
X220130799Y-134768595D01*
X220130799Y-134146100D01*
X220126359Y-134103307D01*
X220120537Y-134047192D01*
X220120536Y-134047188D01*
X220119825Y-134040334D01*
X220099962Y-133980796D01*
X220066167Y-133879502D01*
X220063849Y-133872554D01*
X219970777Y-133722152D01*
X219884190Y-133635716D01*
X219850111Y-133573434D01*
X219855114Y-133502614D01*
X219884035Y-133457525D01*
X219961942Y-133379482D01*
X220024224Y-133345403D01*
X220051115Y-133342500D01*
X220543297Y-133342500D01*
X220611418Y-133362502D01*
X220632315Y-133379327D01*
X220710762Y-133457638D01*
X220744841Y-133519921D01*
X220739838Y-133590741D01*
X220710917Y-133635829D01*
X220628560Y-133718329D01*
X220619548Y-133729740D01*
X220534483Y-133867743D01*
X220528336Y-133880924D01*
X220477161Y-134035210D01*
X220474294Y-134048586D01*
X220464627Y-134142938D01*
X220464299Y-134149355D01*
X220464299Y-134186885D01*
X220468774Y-134202124D01*
X220470164Y-134203329D01*
X220477847Y-134205000D01*
X221800299Y-134205000D01*
X221868420Y-134225002D01*
X221914913Y-134278658D01*
X221926299Y-134331000D01*
X221926299Y-135461384D01*
X221930774Y-135476623D01*
X221932164Y-135477828D01*
X221939847Y-135479499D01*
X222169394Y-135479499D01*
X222175904Y-135479162D01*
X222187300Y-135477980D01*
X222257120Y-135490848D01*
X222308901Y-135539420D01*
X222326299Y-135603308D01*
X222326299Y-135745124D01*
X222306297Y-135813245D01*
X222289395Y-135834219D01*
X221578234Y-136545381D01*
X221515921Y-136579406D01*
X221489138Y-136582286D01*
X221080797Y-136582286D01*
X221078349Y-136582479D01*
X221078341Y-136582479D01*
X221049878Y-136584719D01*
X221049873Y-136584720D01*
X221043468Y-136585224D01*
X220971109Y-136606246D01*
X220891311Y-136629429D01*
X220891309Y-136629430D01*
X220883698Y-136631641D01*
X220876874Y-136635677D01*
X220747319Y-136712295D01*
X220747316Y-136712297D01*
X220740492Y-136716333D01*
X220622846Y-136833979D01*
X220618810Y-136840803D01*
X220618808Y-136840806D01*
X220560456Y-136939474D01*
X220538154Y-136977185D01*
X220535943Y-136984796D01*
X220535942Y-136984798D01*
X220532341Y-136997192D01*
X220491737Y-137136955D01*
X220491233Y-137143360D01*
X220491232Y-137143365D01*
X220489865Y-137160738D01*
X220488799Y-137174284D01*
X220488799Y-137582626D01*
X220468797Y-137650747D01*
X220451894Y-137671721D01*
X220345394Y-137778221D01*
X220283082Y-137812247D01*
X220212267Y-137807182D01*
X220155431Y-137764635D01*
X220137704Y-137717108D01*
X220135403Y-137717784D01*
X220125824Y-137685162D01*
X220124434Y-137683957D01*
X220116751Y-137682286D01*
X217732415Y-137682286D01*
X217717176Y-137686761D01*
X217715971Y-137688151D01*
X217714300Y-137695834D01*
X217714300Y-137737881D01*
X217714637Y-137744400D01*
X217724556Y-137839992D01*
X217727448Y-137853386D01*
X217778887Y-138007570D01*
X217785060Y-138020748D01*
X217870362Y-138158593D01*
X217879398Y-138169994D01*
X217960761Y-138251216D01*
X217994840Y-138313499D01*
X217989837Y-138384319D01*
X217960916Y-138429406D01*
X217878169Y-138512298D01*
X217878165Y-138512303D01*
X217872994Y-138517483D01*
X217869154Y-138523713D01*
X217869153Y-138523714D01*
X217784922Y-138660362D01*
X217780184Y-138668048D01*
X217724502Y-138835925D01*
X217723802Y-138842761D01*
X217723801Y-138842764D01*
X217722393Y-138856511D01*
X217713799Y-138940386D01*
X217713799Y-139566186D01*
X217714136Y-139569432D01*
X217714136Y-139569436D01*
X217723562Y-139660278D01*
X217724773Y-139671952D01*
X217726954Y-139678488D01*
X217726954Y-139678490D01*
X217758706Y-139773661D01*
X217780749Y-139839732D01*
X217873821Y-139990134D01*
X217998996Y-140115091D01*
X218005226Y-140118931D01*
X218005227Y-140118932D01*
X218142389Y-140203480D01*
X218149561Y-140207901D01*
X218212088Y-140228640D01*
X218310910Y-140261418D01*
X218310912Y-140261418D01*
X218317438Y-140263583D01*
X218324274Y-140264283D01*
X218324277Y-140264284D01*
X218356136Y-140267548D01*
X218421899Y-140274286D01*
X219422699Y-140274286D01*
X219425945Y-140273949D01*
X219425949Y-140273949D01*
X219521607Y-140264024D01*
X219521611Y-140264023D01*
X219528465Y-140263312D01*
X219535001Y-140261131D01*
X219535003Y-140261131D01*
X219683512Y-140211584D01*
X219696245Y-140207336D01*
X219846647Y-140114264D01*
X219880183Y-140080670D01*
X219966431Y-139994271D01*
X219971604Y-139989089D01*
X219971608Y-139989093D01*
X220027050Y-139949782D01*
X220035832Y-139947200D01*
X220042541Y-139946388D01*
X220049642Y-139943705D01*
X220052251Y-139943064D01*
X220068561Y-139938601D01*
X220071097Y-139937836D01*
X220078583Y-139936529D01*
X220137099Y-139910842D01*
X220143203Y-139908351D01*
X220195847Y-139888459D01*
X220195848Y-139888458D01*
X220202955Y-139885773D01*
X220209218Y-139881469D01*
X220211584Y-139880232D01*
X220226396Y-139871987D01*
X220228650Y-139870654D01*
X220235604Y-139867601D01*
X220286301Y-139828699D01*
X220291631Y-139824827D01*
X220338019Y-139792947D01*
X220338024Y-139792942D01*
X220344280Y-139788643D01*
X220355882Y-139775622D01*
X220376372Y-139752624D01*
X220436622Y-139715068D01*
X220507612Y-139716049D01*
X220566803Y-139755253D01*
X220578902Y-139772305D01*
X220619208Y-139840461D01*
X220628850Y-139852890D01*
X220735195Y-139959235D01*
X220747621Y-139968875D01*
X220877078Y-140045434D01*
X220891509Y-140051679D01*
X221037364Y-140094055D01*
X221049966Y-140096356D01*
X221078383Y-140098593D01*
X221083313Y-140098786D01*
X221462684Y-140098786D01*
X221477923Y-140094311D01*
X221479128Y-140092921D01*
X221480799Y-140085238D01*
X221480799Y-140080670D01*
X221988799Y-140080670D01*
X221993274Y-140095909D01*
X221994664Y-140097114D01*
X222002347Y-140098785D01*
X222386283Y-140098785D01*
X222391219Y-140098591D01*
X222419635Y-140096356D01*
X222432230Y-140094056D01*
X222578089Y-140051679D01*
X222592520Y-140045434D01*
X222721977Y-139968875D01*
X222734403Y-139959235D01*
X222840748Y-139852890D01*
X222850388Y-139840464D01*
X222926947Y-139711007D01*
X222933192Y-139696576D01*
X222972238Y-139562181D01*
X222972198Y-139548080D01*
X222964929Y-139544786D01*
X222006914Y-139544786D01*
X221991675Y-139549261D01*
X221990470Y-139550651D01*
X221988799Y-139558334D01*
X221988799Y-140080670D01*
X221480799Y-140080670D01*
X221480799Y-139162786D01*
X221500801Y-139094665D01*
X221554457Y-139048172D01*
X221606799Y-139036786D01*
X222617457Y-139036786D01*
X222681596Y-139054333D01*
X222758698Y-139099931D01*
X222766309Y-139102142D01*
X222766311Y-139102143D01*
X222818530Y-139117314D01*
X222918468Y-139146348D01*
X222924873Y-139146852D01*
X222924878Y-139146853D01*
X222953341Y-139149093D01*
X222953349Y-139149093D01*
X222955797Y-139149286D01*
X224263801Y-139149286D01*
X224266249Y-139149093D01*
X224266257Y-139149093D01*
X224294720Y-139146853D01*
X224294725Y-139146852D01*
X224301130Y-139146348D01*
X224401068Y-139117314D01*
X224453287Y-139102143D01*
X224453289Y-139102142D01*
X224460900Y-139099931D01*
X224538002Y-139054333D01*
X224597279Y-139019277D01*
X224597282Y-139019275D01*
X224604106Y-139015239D01*
X224721752Y-138897593D01*
X224725788Y-138890769D01*
X224725790Y-138890766D01*
X224802407Y-138761213D01*
X224806444Y-138754387D01*
X224852861Y-138594617D01*
X224853429Y-138587408D01*
X224855606Y-138559744D01*
X224855606Y-138559736D01*
X224855799Y-138557288D01*
X224855799Y-138243500D01*
X224875801Y-138175379D01*
X224929457Y-138128886D01*
X224981799Y-138117500D01*
X225293297Y-138117500D01*
X225361418Y-138137502D01*
X225382314Y-138154326D01*
X225431072Y-138202999D01*
X225460408Y-138232284D01*
X225494487Y-138294566D01*
X225489484Y-138365387D01*
X225460563Y-138410475D01*
X225445305Y-138425760D01*
X225372994Y-138498197D01*
X225369154Y-138504427D01*
X225369153Y-138504428D01*
X225313560Y-138594617D01*
X225280184Y-138648762D01*
X225275854Y-138661818D01*
X225234963Y-138785101D01*
X225224502Y-138816639D01*
X225223802Y-138823475D01*
X225223801Y-138823478D01*
X225221047Y-138850357D01*
X225213799Y-138921100D01*
X225213799Y-139546900D01*
X225214136Y-139550146D01*
X225214136Y-139550150D01*
X225223893Y-139644180D01*
X225224773Y-139652666D01*
X225226954Y-139659202D01*
X225226954Y-139659204D01*
X225253274Y-139738095D01*
X225280749Y-139820446D01*
X225373821Y-139970848D01*
X225498996Y-140095805D01*
X225505226Y-140099645D01*
X225505227Y-140099646D01*
X225642389Y-140184194D01*
X225649561Y-140188615D01*
X225707707Y-140207901D01*
X225810910Y-140242132D01*
X225810912Y-140242132D01*
X225817438Y-140244297D01*
X225824274Y-140244997D01*
X225824277Y-140244998D01*
X225867330Y-140249409D01*
X225921899Y-140255000D01*
X226922699Y-140255000D01*
X226925945Y-140254663D01*
X226925949Y-140254663D01*
X227021607Y-140244738D01*
X227021611Y-140244737D01*
X227028465Y-140244026D01*
X227035001Y-140241845D01*
X227035003Y-140241845D01*
X227167105Y-140197772D01*
X227196245Y-140188050D01*
X227346647Y-140094978D01*
X227431748Y-140009729D01*
X227461942Y-139979482D01*
X227524225Y-139945403D01*
X227551115Y-139942500D01*
X228505887Y-139942500D01*
X228514457Y-139942792D01*
X228564575Y-139946209D01*
X228564579Y-139946209D01*
X228572151Y-139946725D01*
X228579628Y-139945420D01*
X228579629Y-139945420D01*
X228630572Y-139936529D01*
X228635102Y-139935738D01*
X228641620Y-139934777D01*
X228705041Y-139927102D01*
X228712142Y-139924419D01*
X228714751Y-139923778D01*
X228731061Y-139919315D01*
X228733597Y-139918550D01*
X228741083Y-139917243D01*
X228799599Y-139891556D01*
X228805703Y-139889065D01*
X228814416Y-139885773D01*
X228865455Y-139866487D01*
X228871718Y-139862183D01*
X228874084Y-139860946D01*
X228888896Y-139852701D01*
X228891150Y-139851368D01*
X228898104Y-139848315D01*
X228948801Y-139809413D01*
X228954131Y-139805541D01*
X229000519Y-139773661D01*
X229000524Y-139773656D01*
X229006780Y-139769357D01*
X229031578Y-139741525D01*
X229048234Y-139722830D01*
X229053215Y-139717554D01*
X229351332Y-139419437D01*
X229414230Y-139385285D01*
X229430388Y-139381850D01*
X229567087Y-139352794D01*
X229593355Y-139341099D01*
X229735521Y-139277803D01*
X229735523Y-139277802D01*
X229741551Y-139275118D01*
X229896052Y-139162866D01*
X229903016Y-139155132D01*
X230019420Y-139025852D01*
X230019421Y-139025851D01*
X230023839Y-139020944D01*
X230095204Y-138897336D01*
X230116022Y-138861279D01*
X230116023Y-138861278D01*
X230119326Y-138855556D01*
X230178341Y-138673928D01*
X230179430Y-138663572D01*
X230197613Y-138490565D01*
X230198303Y-138484000D01*
X230189636Y-138401534D01*
X230179031Y-138300635D01*
X230179031Y-138300633D01*
X230178341Y-138294072D01*
X230119326Y-138112444D01*
X230114750Y-138104517D01*
X230064707Y-138017842D01*
X230023839Y-137947056D01*
X230018122Y-137940706D01*
X229900474Y-137810045D01*
X229900473Y-137810044D01*
X229896052Y-137805134D01*
X229781491Y-137721900D01*
X229746893Y-137696763D01*
X229746892Y-137696762D01*
X229741551Y-137692882D01*
X229735523Y-137690198D01*
X229735521Y-137690197D01*
X229573118Y-137617891D01*
X229573117Y-137617891D01*
X229567087Y-137615206D01*
X229463318Y-137593149D01*
X229386743Y-137576872D01*
X229386738Y-137576872D01*
X229380286Y-137575500D01*
X229189312Y-137575500D01*
X229182860Y-137576872D01*
X229182855Y-137576872D01*
X229106280Y-137593149D01*
X229002511Y-137615206D01*
X228996481Y-137617891D01*
X228996480Y-137617891D01*
X228834077Y-137690197D01*
X228834075Y-137690198D01*
X228828047Y-137692882D01*
X228822706Y-137696762D01*
X228822705Y-137696763D01*
X228788107Y-137721900D01*
X228673546Y-137805134D01*
X228669125Y-137810044D01*
X228669124Y-137810045D01*
X228551477Y-137940706D01*
X228545759Y-137947056D01*
X228504891Y-138017842D01*
X228454849Y-138104517D01*
X228450272Y-138112444D01*
X228441449Y-138139597D01*
X228409714Y-138237269D01*
X228391257Y-138294072D01*
X228389342Y-138312297D01*
X228386349Y-138340770D01*
X228359336Y-138406427D01*
X228350134Y-138416695D01*
X228278234Y-138488595D01*
X228215922Y-138522621D01*
X228189139Y-138525500D01*
X227551301Y-138525500D01*
X227483180Y-138505498D01*
X227462283Y-138488673D01*
X227451026Y-138477435D01*
X227384190Y-138410716D01*
X227350111Y-138348434D01*
X227355114Y-138277613D01*
X227384035Y-138232525D01*
X227466433Y-138149983D01*
X227471604Y-138144803D01*
X227475445Y-138138572D01*
X227560574Y-138000468D01*
X227560575Y-138000466D01*
X227564414Y-137994238D01*
X227595620Y-137900155D01*
X227617931Y-137832889D01*
X227617931Y-137832887D01*
X227620096Y-137826361D01*
X227630799Y-137721900D01*
X227630799Y-137096100D01*
X227628405Y-137073027D01*
X227620537Y-136997192D01*
X227620536Y-136997188D01*
X227619825Y-136990334D01*
X227612965Y-136969770D01*
X227566167Y-136829502D01*
X227563849Y-136822554D01*
X227470777Y-136672152D01*
X227345602Y-136547195D01*
X227339371Y-136543354D01*
X227201267Y-136458225D01*
X227201265Y-136458224D01*
X227195037Y-136454385D01*
X227072227Y-136413651D01*
X227033688Y-136400868D01*
X227033686Y-136400868D01*
X227027160Y-136398703D01*
X227020324Y-136398003D01*
X227020321Y-136398002D01*
X226977268Y-136393591D01*
X226922699Y-136388000D01*
X225921899Y-136388000D01*
X225918653Y-136388337D01*
X225918649Y-136388337D01*
X225822991Y-136398262D01*
X225822987Y-136398263D01*
X225816133Y-136398974D01*
X225809597Y-136401155D01*
X225809595Y-136401155D01*
X225677493Y-136445228D01*
X225648353Y-136454950D01*
X225497951Y-136548022D01*
X225492778Y-136553204D01*
X225382656Y-136663518D01*
X225320373Y-136697597D01*
X225293483Y-136700500D01*
X224570497Y-136700500D01*
X224561927Y-136700208D01*
X224511809Y-136696791D01*
X224511805Y-136696791D01*
X224504233Y-136696275D01*
X224496756Y-136697580D01*
X224496755Y-136697580D01*
X224496658Y-136697597D01*
X224441288Y-136707261D01*
X224434771Y-136708222D01*
X224371343Y-136715898D01*
X224364235Y-136718584D01*
X224361641Y-136719221D01*
X224345335Y-136723682D01*
X224342784Y-136724452D01*
X224335301Y-136725758D01*
X224328349Y-136728810D01*
X224328348Y-136728810D01*
X224276797Y-136751439D01*
X224270690Y-136753931D01*
X224218037Y-136773827D01*
X224210929Y-136776513D01*
X224204668Y-136780816D01*
X224202302Y-136782053D01*
X224187522Y-136790280D01*
X224185237Y-136791631D01*
X224178280Y-136794685D01*
X224172260Y-136799305D01*
X224172254Y-136799308D01*
X224150080Y-136816324D01*
X224127583Y-136833587D01*
X224122253Y-136837459D01*
X224075865Y-136869339D01*
X224075860Y-136869344D01*
X224069604Y-136873643D01*
X224064553Y-136879313D01*
X224064551Y-136879314D01*
X224028150Y-136920170D01*
X224023169Y-136925446D01*
X223453234Y-137495381D01*
X223390922Y-137529407D01*
X223364139Y-137532286D01*
X223106799Y-137532286D01*
X223038678Y-137512284D01*
X222992185Y-137458628D01*
X222980799Y-137406286D01*
X222980799Y-137198946D01*
X223000801Y-137130825D01*
X223017704Y-137109851D01*
X223566192Y-136561363D01*
X223645276Y-136460504D01*
X223715844Y-136304212D01*
X223747095Y-136135599D01*
X223742419Y-136054491D01*
X223742949Y-136038941D01*
X223742491Y-136038911D01*
X223742761Y-136034793D01*
X223743299Y-136030706D01*
X223743299Y-135430500D01*
X223763301Y-135362379D01*
X223816957Y-135315886D01*
X223869299Y-135304500D01*
X224212684Y-135304500D01*
X224227923Y-135300025D01*
X224229128Y-135298635D01*
X224230799Y-135290952D01*
X224230799Y-135286384D01*
X224738799Y-135286384D01*
X224743274Y-135301623D01*
X224744664Y-135302828D01*
X224752347Y-135304499D01*
X225136283Y-135304499D01*
X225141219Y-135304305D01*
X225169635Y-135302070D01*
X225182230Y-135299770D01*
X225328089Y-135257393D01*
X225342520Y-135251148D01*
X225471977Y-135174589D01*
X225484403Y-135164949D01*
X225590748Y-135058604D01*
X225600388Y-135046178D01*
X225676947Y-134916721D01*
X225683192Y-134902290D01*
X225722238Y-134767895D01*
X225722198Y-134753794D01*
X225714929Y-134750500D01*
X224756914Y-134750500D01*
X224741675Y-134754975D01*
X224740470Y-134756365D01*
X224738799Y-134764048D01*
X224738799Y-135286384D01*
X224230799Y-135286384D01*
X224230799Y-133706616D01*
X224226324Y-133691377D01*
X224224934Y-133690172D01*
X224217251Y-133688501D01*
X223869299Y-133688501D01*
X223801178Y-133668499D01*
X223754685Y-133614843D01*
X223743299Y-133562501D01*
X223743299Y-133531000D01*
X223763301Y-133462879D01*
X223816957Y-133416386D01*
X223869299Y-133405000D01*
X224987799Y-133405000D01*
X225055920Y-133425002D01*
X225102413Y-133478658D01*
X225113799Y-133531000D01*
X225113799Y-133562500D01*
X225093797Y-133630621D01*
X225040141Y-133677114D01*
X224987799Y-133688500D01*
X224756914Y-133688500D01*
X224741675Y-133692975D01*
X224740470Y-133694365D01*
X224738799Y-133702048D01*
X224738799Y-134224385D01*
X224743274Y-134239624D01*
X224744664Y-134240829D01*
X224752347Y-134242500D01*
X225367457Y-134242500D01*
X225431596Y-134260047D01*
X225508698Y-134305645D01*
X225516309Y-134307856D01*
X225516311Y-134307857D01*
X225553727Y-134318727D01*
X225668468Y-134352062D01*
X225674873Y-134352566D01*
X225674878Y-134352567D01*
X225703341Y-134354807D01*
X225703349Y-134354807D01*
X225705797Y-134355000D01*
X227013801Y-134355000D01*
X227016249Y-134354807D01*
X227016257Y-134354807D01*
X227044720Y-134352567D01*
X227044725Y-134352566D01*
X227051130Y-134352062D01*
X227165871Y-134318727D01*
X227203287Y-134307857D01*
X227203289Y-134307856D01*
X227210900Y-134305645D01*
X227266868Y-134272545D01*
X227331005Y-134255000D01*
X227837799Y-134255000D01*
X227905920Y-134275002D01*
X227952413Y-134328658D01*
X227963799Y-134381000D01*
X227963799Y-134771900D01*
X227964136Y-134775146D01*
X227964136Y-134775150D01*
X227974051Y-134870706D01*
X227974773Y-134877666D01*
X227976954Y-134884202D01*
X227976954Y-134884204D01*
X227992221Y-134929965D01*
X228030749Y-135045446D01*
X228123821Y-135195848D01*
X228248996Y-135320805D01*
X228255226Y-135324645D01*
X228255227Y-135324646D01*
X228392587Y-135409316D01*
X228399561Y-135413615D01*
X228434715Y-135425275D01*
X228560910Y-135467132D01*
X228560912Y-135467132D01*
X228567438Y-135469297D01*
X228574274Y-135469997D01*
X228574277Y-135469998D01*
X228617330Y-135474409D01*
X228671899Y-135480000D01*
X229092639Y-135480000D01*
X229160760Y-135500002D01*
X229181734Y-135516905D01*
X232189924Y-138525096D01*
X232223950Y-138587408D01*
X232222246Y-138647865D01*
X232218375Y-138661825D01*
X232215506Y-138672169D01*
X232190894Y-138902469D01*
X232191191Y-138907622D01*
X232191191Y-138907625D01*
X232202046Y-139095894D01*
X232204226Y-139133697D01*
X232205363Y-139138743D01*
X232205364Y-139138749D01*
X232229177Y-139244414D01*
X232255145Y-139359642D01*
X232257087Y-139364424D01*
X232257088Y-139364428D01*
X232340339Y-139569450D01*
X232342283Y-139574237D01*
X232463300Y-139771719D01*
X232614946Y-139946784D01*
X232793148Y-140094730D01*
X232993121Y-140211584D01*
X232997946Y-140213426D01*
X232997947Y-140213427D01*
X233061512Y-140237700D01*
X233209493Y-140294209D01*
X233214559Y-140295240D01*
X233214560Y-140295240D01*
X233267645Y-140306040D01*
X233436455Y-140340385D01*
X233567123Y-140345176D01*
X233662748Y-140348683D01*
X233662752Y-140348683D01*
X233667912Y-140348872D01*
X233673032Y-140348216D01*
X233673034Y-140348216D01*
X233746069Y-140338860D01*
X233897646Y-140319442D01*
X233902594Y-140317957D01*
X233902601Y-140317956D01*
X234114546Y-140254369D01*
X234119489Y-140252886D01*
X234124123Y-140250616D01*
X234322848Y-140153262D01*
X234322851Y-140153260D01*
X234327483Y-140150991D01*
X234516042Y-140016494D01*
X234680102Y-139853005D01*
X234750249Y-139755385D01*
X234806243Y-139711738D01*
X234876946Y-139705292D01*
X234939911Y-139738095D01*
X234960003Y-139763076D01*
X234962600Y-139767314D01*
X234962603Y-139767318D01*
X234965300Y-139771719D01*
X235116946Y-139946784D01*
X235295148Y-140094730D01*
X235495121Y-140211584D01*
X235499946Y-140213426D01*
X235499947Y-140213427D01*
X235563512Y-140237700D01*
X235711493Y-140294209D01*
X235716559Y-140295240D01*
X235716560Y-140295240D01*
X235769645Y-140306040D01*
X235938455Y-140340385D01*
X236069123Y-140345176D01*
X236164748Y-140348683D01*
X236164752Y-140348683D01*
X236169912Y-140348872D01*
X236175032Y-140348216D01*
X236175034Y-140348216D01*
X236248069Y-140338860D01*
X236399646Y-140319442D01*
X236404594Y-140317957D01*
X236404601Y-140317956D01*
X236616546Y-140254369D01*
X236621489Y-140252886D01*
X236626123Y-140250616D01*
X236824848Y-140153262D01*
X236824851Y-140153260D01*
X236829483Y-140150991D01*
X237018042Y-140016494D01*
X237182102Y-139853005D01*
X237317257Y-139664917D01*
X237325736Y-139647762D01*
X237417583Y-139461922D01*
X237417584Y-139461920D01*
X237419877Y-139457280D01*
X237487207Y-139235671D01*
X237517439Y-139006041D01*
X237517521Y-139002691D01*
X237519044Y-138940365D01*
X237519044Y-138940361D01*
X237519126Y-138937000D01*
X237510240Y-138828916D01*
X237500572Y-138711318D01*
X237500571Y-138711312D01*
X237500148Y-138706167D01*
X237466847Y-138573590D01*
X237444983Y-138486544D01*
X237444982Y-138486540D01*
X237443724Y-138481533D01*
X237435205Y-138461940D01*
X237353429Y-138273868D01*
X237353427Y-138273865D01*
X237351369Y-138269131D01*
X237225563Y-138074665D01*
X237069686Y-137903358D01*
X237065635Y-137900159D01*
X237065631Y-137900155D01*
X236891976Y-137763011D01*
X236891971Y-137763008D01*
X236887922Y-137759810D01*
X236883406Y-137757317D01*
X236883403Y-137757315D01*
X236689678Y-137650373D01*
X236689674Y-137650371D01*
X236685154Y-137647876D01*
X236680285Y-137646152D01*
X236680281Y-137646150D01*
X236471702Y-137572288D01*
X236471698Y-137572287D01*
X236466827Y-137570562D01*
X236461734Y-137569655D01*
X236461731Y-137569654D01*
X236243894Y-137530851D01*
X236243888Y-137530850D01*
X236238805Y-137529945D01*
X236165895Y-137529054D01*
X236012380Y-137527179D01*
X236012378Y-137527179D01*
X236007210Y-137527116D01*
X235778263Y-137562150D01*
X235558113Y-137634106D01*
X235553525Y-137636494D01*
X235553521Y-137636496D01*
X235358762Y-137737881D01*
X235352671Y-137741052D01*
X235348538Y-137744155D01*
X235348535Y-137744157D01*
X235184860Y-137867048D01*
X235167454Y-137880117D01*
X235007438Y-138047564D01*
X235004524Y-138051836D01*
X235004523Y-138051837D01*
X234959610Y-138117677D01*
X234904699Y-138162680D01*
X234834174Y-138170851D01*
X234770427Y-138139597D01*
X234749730Y-138115113D01*
X234746812Y-138110603D01*
X234723563Y-138074665D01*
X234567686Y-137903358D01*
X234563635Y-137900159D01*
X234563631Y-137900155D01*
X234389976Y-137763011D01*
X234389971Y-137763008D01*
X234385922Y-137759810D01*
X234381406Y-137757317D01*
X234381403Y-137757315D01*
X234187678Y-137650373D01*
X234187674Y-137650371D01*
X234183154Y-137647876D01*
X234178285Y-137646152D01*
X234178281Y-137646150D01*
X233969702Y-137572288D01*
X233969698Y-137572287D01*
X233964827Y-137570562D01*
X233959734Y-137569655D01*
X233959731Y-137569654D01*
X233741894Y-137530851D01*
X233741888Y-137530850D01*
X233736805Y-137529945D01*
X233663895Y-137529054D01*
X233510380Y-137527179D01*
X233510378Y-137527179D01*
X233505210Y-137527116D01*
X233299986Y-137558520D01*
X233229626Y-137549052D01*
X233191834Y-137523065D01*
X230417704Y-134748935D01*
X230383678Y-134686623D01*
X230380799Y-134659840D01*
X230380799Y-134146100D01*
X230376359Y-134103307D01*
X230370537Y-134047192D01*
X230370536Y-134047188D01*
X230369825Y-134040334D01*
X230349962Y-133980796D01*
X230316167Y-133879502D01*
X230313849Y-133872554D01*
X230220777Y-133722152D01*
X230134190Y-133635716D01*
X230100111Y-133573434D01*
X230105114Y-133502614D01*
X230134035Y-133457525D01*
X230216433Y-133374983D01*
X230221604Y-133369803D01*
X230225445Y-133363572D01*
X230310574Y-133225468D01*
X230310575Y-133225466D01*
X230314414Y-133219238D01*
X230370096Y-133051361D01*
X230380799Y-132946900D01*
X230380799Y-132321100D01*
X230369825Y-132215334D01*
X230356727Y-132176073D01*
X230316167Y-132054502D01*
X230313849Y-132047554D01*
X230220777Y-131897152D01*
X230095602Y-131772195D01*
X230014463Y-131722180D01*
X229951267Y-131683225D01*
X229951265Y-131683224D01*
X229945037Y-131679385D01*
X229784553Y-131626155D01*
X229783688Y-131625868D01*
X229783686Y-131625868D01*
X229777160Y-131623703D01*
X229770324Y-131623003D01*
X229770321Y-131623002D01*
X229727268Y-131618591D01*
X229672699Y-131613000D01*
X228671899Y-131613000D01*
X228668653Y-131613337D01*
X228668649Y-131613337D01*
X228572991Y-131623262D01*
X228572987Y-131623263D01*
X228566133Y-131623974D01*
X228559597Y-131626155D01*
X228559595Y-131626155D01*
X228427493Y-131670228D01*
X228398353Y-131679950D01*
X228247951Y-131773022D01*
X228122994Y-131898197D01*
X228119154Y-131904427D01*
X228119153Y-131904428D01*
X228039232Y-132034084D01*
X228030184Y-132048762D01*
X227974502Y-132216639D01*
X227963799Y-132321100D01*
X227963799Y-132712000D01*
X227943797Y-132780121D01*
X227890141Y-132826614D01*
X227837799Y-132838000D01*
X227331005Y-132838000D01*
X227266868Y-132820455D01*
X227210900Y-132787355D01*
X227203289Y-132785144D01*
X227203287Y-132785143D01*
X227151068Y-132769972D01*
X227051130Y-132740938D01*
X227044725Y-132740434D01*
X227044720Y-132740433D01*
X227016257Y-132738193D01*
X227016249Y-132738193D01*
X227013801Y-132738000D01*
X225856799Y-132738000D01*
X225788678Y-132717998D01*
X225742185Y-132664342D01*
X225730799Y-132612000D01*
X225730799Y-132379998D01*
X225727861Y-132342669D01*
X225681444Y-132182899D01*
X225606224Y-132055709D01*
X225600790Y-132046520D01*
X225600788Y-132046517D01*
X225596752Y-132039693D01*
X225479106Y-131922047D01*
X225472282Y-131918011D01*
X225472279Y-131918009D01*
X225342726Y-131841392D01*
X225342727Y-131841392D01*
X225335900Y-131837355D01*
X225328289Y-131835144D01*
X225328287Y-131835143D01*
X225276068Y-131819972D01*
X225176130Y-131790938D01*
X225169725Y-131790434D01*
X225169720Y-131790433D01*
X225141257Y-131788193D01*
X225141249Y-131788193D01*
X225138801Y-131788000D01*
X223830797Y-131788000D01*
X223828349Y-131788193D01*
X223828341Y-131788193D01*
X223799878Y-131790433D01*
X223799873Y-131790434D01*
X223793468Y-131790938D01*
X223693530Y-131819972D01*
X223641311Y-131835143D01*
X223641309Y-131835144D01*
X223633698Y-131837355D01*
X223577730Y-131870455D01*
X223513593Y-131888000D01*
X223043561Y-131888000D01*
X223042901Y-131887998D01*
X222957171Y-131887549D01*
X222957170Y-131887549D01*
X222952768Y-131887526D01*
X222951251Y-131887890D01*
X222949349Y-131888000D01*
X222763736Y-131888000D01*
X222695615Y-131867998D01*
X222674718Y-131851173D01*
X222600782Y-131777366D01*
X222595602Y-131772195D01*
X222514463Y-131722180D01*
X222451267Y-131683225D01*
X222451265Y-131683224D01*
X222445037Y-131679385D01*
X222284553Y-131626155D01*
X222283688Y-131625868D01*
X222283686Y-131625868D01*
X222277160Y-131623703D01*
X222270324Y-131623003D01*
X222270321Y-131623002D01*
X222227268Y-131618591D01*
X222172699Y-131613000D01*
X221171899Y-131613000D01*
X221168653Y-131613337D01*
X221168649Y-131613337D01*
X221072991Y-131623262D01*
X221072987Y-131623263D01*
X221066133Y-131623974D01*
X221059597Y-131626155D01*
X221059595Y-131626155D01*
X220927493Y-131670228D01*
X220898353Y-131679950D01*
X220747951Y-131773022D01*
X220742778Y-131778204D01*
X220632656Y-131888518D01*
X220570373Y-131922597D01*
X220543483Y-131925500D01*
X220051301Y-131925500D01*
X219983180Y-131905498D01*
X219962283Y-131888673D01*
X219850782Y-131777366D01*
X219845602Y-131772195D01*
X219764463Y-131722180D01*
X219701267Y-131683225D01*
X219701265Y-131683224D01*
X219695037Y-131679385D01*
X219534553Y-131626155D01*
X219533688Y-131625868D01*
X219533686Y-131625868D01*
X219527160Y-131623703D01*
X219520324Y-131623003D01*
X219520321Y-131623002D01*
X219477268Y-131618591D01*
X219422699Y-131613000D01*
X218421899Y-131613000D01*
X218418653Y-131613337D01*
X218418649Y-131613337D01*
X218322991Y-131623262D01*
X218322987Y-131623263D01*
X218316133Y-131623974D01*
X218309597Y-131626155D01*
X218309595Y-131626155D01*
X218177493Y-131670228D01*
X218148353Y-131679950D01*
X217997951Y-131773022D01*
X217872994Y-131898197D01*
X217869154Y-131904427D01*
X217869153Y-131904428D01*
X217789232Y-132034084D01*
X217780184Y-132048762D01*
X217724502Y-132216639D01*
X217713799Y-132321100D01*
X217713799Y-132946900D01*
X217714136Y-132950146D01*
X217714136Y-132950150D01*
X217723741Y-133042718D01*
X217724773Y-133052666D01*
X217726954Y-133059202D01*
X217726954Y-133059204D01*
X217747701Y-133121390D01*
X217780749Y-133220446D01*
X217873821Y-133370848D01*
X217928070Y-133425002D01*
X217960408Y-133457284D01*
X217994487Y-133519566D01*
X217989484Y-133590386D01*
X217960563Y-133635475D01*
X217949732Y-133646325D01*
X217872994Y-133723197D01*
X217780184Y-133873762D01*
X217724502Y-134041639D01*
X217723802Y-134048475D01*
X217723801Y-134048478D01*
X217722948Y-134056803D01*
X217713799Y-134146100D01*
X217713799Y-134613340D01*
X217693797Y-134681461D01*
X217676894Y-134702435D01*
X216411734Y-135967595D01*
X216349422Y-136001621D01*
X216322639Y-136004500D01*
X212570459Y-136004500D01*
X212502338Y-135984498D01*
X212455845Y-135930842D01*
X212445741Y-135860568D01*
X212475235Y-135795988D01*
X212481364Y-135789405D01*
X217541364Y-130729405D01*
X217603676Y-130695379D01*
X217630459Y-130692500D01*
X238755887Y-130692500D01*
X238764457Y-130692792D01*
X238814575Y-130696209D01*
X238814579Y-130696209D01*
X238822151Y-130696725D01*
X238829628Y-130695420D01*
X238829629Y-130695420D01*
X238856107Y-130690799D01*
X238885102Y-130685738D01*
X238891620Y-130684777D01*
X238955041Y-130677102D01*
X238962142Y-130674419D01*
X238964751Y-130673778D01*
X238981061Y-130669315D01*
X238983597Y-130668550D01*
X238991083Y-130667243D01*
X239049599Y-130641556D01*
X239055703Y-130639065D01*
X239108347Y-130619173D01*
X239108348Y-130619172D01*
X239115455Y-130616487D01*
X239121718Y-130612183D01*
X239124084Y-130610946D01*
X239138896Y-130602701D01*
X239141150Y-130601368D01*
X239148104Y-130598315D01*
X239198801Y-130559413D01*
X239204131Y-130555541D01*
X239250519Y-130523661D01*
X239250524Y-130523656D01*
X239256780Y-130519357D01*
X239298235Y-130472829D01*
X239303215Y-130467554D01*
X241765319Y-128005450D01*
X241771584Y-127999596D01*
X241787617Y-127985609D01*
X241815184Y-127961561D01*
X241851928Y-127909280D01*
X241855862Y-127903983D01*
X241862292Y-127895783D01*
X241920067Y-127854520D01*
X241990978Y-127851042D01*
X242052513Y-127886455D01*
X242085134Y-127949513D01*
X242084749Y-127986436D01*
X242086731Y-127986639D01*
X242076028Y-128091100D01*
X242076028Y-128570840D01*
X242056026Y-128638961D01*
X242039123Y-128659935D01*
X239394189Y-131304869D01*
X239331877Y-131338895D01*
X239261062Y-131333830D01*
X239248968Y-131328583D01*
X239225301Y-131316808D01*
X239213638Y-131310209D01*
X239192138Y-131296487D01*
X239188281Y-131294025D01*
X239097647Y-131253198D01*
X239093279Y-131251128D01*
X239008346Y-131208875D01*
X239008343Y-131208874D01*
X239004253Y-131206839D01*
X238975665Y-131197467D01*
X238963167Y-131192619D01*
X238939923Y-131182148D01*
X238939918Y-131182146D01*
X238935753Y-131180270D01*
X238931359Y-131179014D01*
X238931353Y-131179012D01*
X238840190Y-131152958D01*
X238835581Y-131151545D01*
X238741067Y-131120562D01*
X238713999Y-131115862D01*
X238711431Y-131115416D01*
X238698367Y-131112424D01*
X238673834Y-131105413D01*
X238673828Y-131105412D01*
X238669448Y-131104160D01*
X238617082Y-131097126D01*
X238570948Y-131090929D01*
X238566169Y-131090194D01*
X238471969Y-131073839D01*
X238471964Y-131073838D01*
X238468183Y-131073182D01*
X238464003Y-131072974D01*
X238426787Y-131071121D01*
X238416289Y-131070157D01*
X238394947Y-131067290D01*
X238263500Y-131068781D01*
X238260308Y-131068817D01*
X238258879Y-131068825D01*
X236349791Y-131068825D01*
X236347523Y-131068990D01*
X236347511Y-131068990D01*
X236228356Y-131077636D01*
X236143906Y-131083764D01*
X236000540Y-131115416D01*
X235998520Y-131115862D01*
X235971356Y-131118825D01*
X234722013Y-131118825D01*
X234659831Y-131125580D01*
X234523442Y-131176710D01*
X234406886Y-131264064D01*
X234319532Y-131380620D01*
X234268402Y-131517009D01*
X234261647Y-131579191D01*
X234261647Y-134375459D01*
X234268402Y-134437641D01*
X234319532Y-134574030D01*
X234406886Y-134690586D01*
X234523442Y-134777940D01*
X234659831Y-134829070D01*
X234722013Y-134835825D01*
X235956349Y-134835825D01*
X235977903Y-134837682D01*
X236090081Y-134857159D01*
X236230088Y-134881468D01*
X236258631Y-134882889D01*
X236316034Y-134885747D01*
X236316042Y-134885747D01*
X236317605Y-134885825D01*
X237435408Y-134885825D01*
X237503529Y-134905827D01*
X237524503Y-134922730D01*
X239339394Y-136737622D01*
X239373420Y-136799934D01*
X239376299Y-136826717D01*
X239376299Y-146466508D01*
X239356297Y-146534629D01*
X239302641Y-146581122D01*
X239232367Y-146591226D01*
X239167787Y-146561732D01*
X239139463Y-146526437D01*
X239131387Y-146511501D01*
X239065899Y-146390383D01*
X238864334Y-146100369D01*
X238852759Y-146087146D01*
X238634017Y-145837280D01*
X238631698Y-145834631D01*
X238370890Y-145596481D01*
X238085161Y-145388887D01*
X237778073Y-145214436D01*
X237572483Y-145126320D01*
X237456685Y-145076689D01*
X237456681Y-145076688D01*
X237453453Y-145075304D01*
X237316584Y-145033981D01*
X237118723Y-144974243D01*
X237118718Y-144974242D01*
X237115347Y-144973224D01*
X236881746Y-144930350D01*
X236771441Y-144910105D01*
X236771437Y-144910104D01*
X236767969Y-144909468D01*
X236577273Y-144896133D01*
X236484608Y-144889653D01*
X236484604Y-144889653D01*
X236482418Y-144889500D01*
X231750158Y-144889500D01*
X231728711Y-144887661D01*
X231464876Y-144842088D01*
X231464869Y-144842087D01*
X231461400Y-144841488D01*
X231108842Y-144820542D01*
X231105331Y-144820726D01*
X231105326Y-144820726D01*
X230932494Y-144829784D01*
X230756146Y-144839026D01*
X230614819Y-144862423D01*
X230411190Y-144896133D01*
X230411180Y-144896135D01*
X230407708Y-144896710D01*
X230404310Y-144897672D01*
X230404308Y-144897672D01*
X230362622Y-144909468D01*
X230067872Y-144992874D01*
X230064623Y-144994200D01*
X230064614Y-144994203D01*
X229744123Y-145124993D01*
X229744119Y-145124995D01*
X229740872Y-145126320D01*
X229430787Y-145295384D01*
X229141478Y-145497960D01*
X228876554Y-145731522D01*
X228874190Y-145734129D01*
X228874184Y-145734135D01*
X228685251Y-145942500D01*
X228639316Y-145993159D01*
X228637265Y-145996003D01*
X228637260Y-145996009D01*
X228510553Y-146171694D01*
X228432721Y-146279611D01*
X228430996Y-146282673D01*
X228430995Y-146282674D01*
X228261161Y-146584080D01*
X228259343Y-146587306D01*
X228257969Y-146590543D01*
X228124008Y-146906135D01*
X228121344Y-146912410D01*
X228088703Y-147021904D01*
X228024487Y-147237313D01*
X228020445Y-147250870D01*
X227957902Y-147598469D01*
X227957669Y-147601975D01*
X227957669Y-147601976D01*
X227935568Y-147934724D01*
X227934495Y-147950873D01*
X227950517Y-148303689D01*
X228005767Y-148652521D01*
X228099555Y-148993021D01*
X228100859Y-148996282D01*
X228100861Y-148996287D01*
X228140714Y-149095926D01*
X228230715Y-149320943D01*
X228397611Y-149632202D01*
X228598162Y-149922917D01*
X228600461Y-149925562D01*
X228600462Y-149925563D01*
X228762232Y-150111659D01*
X228785957Y-150138952D01*
X228850880Y-150203875D01*
X228856589Y-150209975D01*
X228901581Y-150261369D01*
X228904182Y-150263744D01*
X228977667Y-150330845D01*
X228981800Y-150334795D01*
X228991349Y-150344344D01*
X229043836Y-150391273D01*
X229044642Y-150392001D01*
X229162389Y-150499519D01*
X229165234Y-150501586D01*
X229165240Y-150501591D01*
X229170650Y-150505522D01*
X229180555Y-150513514D01*
X229188170Y-150520322D01*
X229219153Y-150542340D01*
X229318115Y-150612669D01*
X229319187Y-150613439D01*
X229341062Y-150629332D01*
X229448118Y-150707113D01*
X229451176Y-150708850D01*
X229451177Y-150708851D01*
X229456984Y-150712150D01*
X229467729Y-150718996D01*
X229473178Y-150722868D01*
X229473188Y-150722875D01*
X229476057Y-150724913D01*
X229510670Y-150744099D01*
X229615486Y-150802200D01*
X229616637Y-150802846D01*
X229682343Y-150840172D01*
X229755206Y-150881564D01*
X229758441Y-150882951D01*
X229758454Y-150882957D01*
X229764590Y-150885587D01*
X229776027Y-150891189D01*
X229779666Y-150893206D01*
X229784956Y-150896138D01*
X229932066Y-150957374D01*
X229933280Y-150957887D01*
X230011779Y-150991531D01*
X230079826Y-151020696D01*
X230089604Y-151023648D01*
X230101594Y-151027941D01*
X230111015Y-151031863D01*
X230114405Y-151032848D01*
X230114411Y-151032850D01*
X230264093Y-151076336D01*
X230265296Y-151076692D01*
X230338823Y-151098892D01*
X230414559Y-151121758D01*
X230414565Y-151121759D01*
X230417932Y-151122776D01*
X230421388Y-151123410D01*
X230421395Y-151123412D01*
X230425365Y-151124140D01*
X230427974Y-151124619D01*
X230440357Y-151127546D01*
X230450171Y-151130397D01*
X230453630Y-151130995D01*
X230453641Y-151130997D01*
X230560616Y-151149474D01*
X230607267Y-151157533D01*
X230608406Y-151157735D01*
X230765310Y-151186532D01*
X230775168Y-151187221D01*
X230775492Y-151187244D01*
X230788136Y-151188774D01*
X230798199Y-151190512D01*
X230957357Y-151199968D01*
X230958542Y-151200044D01*
X231050861Y-151206500D01*
X231063568Y-151206500D01*
X231071040Y-151206722D01*
X231150756Y-151211458D01*
X231154267Y-151211274D01*
X231154272Y-151211274D01*
X231242060Y-151206673D01*
X231248654Y-151206500D01*
X236460500Y-151206500D01*
X236462229Y-151206403D01*
X236462241Y-151206403D01*
X236649762Y-151195919D01*
X236724109Y-151191762D01*
X236819677Y-151175598D01*
X237068876Y-151133450D01*
X237068884Y-151133448D01*
X237072344Y-151132863D01*
X237411842Y-151035513D01*
X237525695Y-150988586D01*
X237735128Y-150902264D01*
X237735135Y-150902260D01*
X237738373Y-150900926D01*
X237969023Y-150774126D01*
X238038353Y-150758837D01*
X238104944Y-150783458D01*
X238147652Y-150840172D01*
X238152919Y-150910973D01*
X238118818Y-150973636D01*
X235567859Y-153524595D01*
X235505547Y-153558621D01*
X235478764Y-153561500D01*
X234673346Y-153561500D01*
X234611164Y-153568255D01*
X234474775Y-153619385D01*
X234358219Y-153706739D01*
X234270865Y-153823295D01*
X234219735Y-153959684D01*
X234212980Y-154021866D01*
X234212980Y-156818134D01*
X234219735Y-156880316D01*
X234270865Y-157016705D01*
X234358219Y-157133261D01*
X234474775Y-157220615D01*
X234611164Y-157271745D01*
X234673346Y-157278500D01*
X235918335Y-157278500D01*
X235950203Y-157282597D01*
X236018328Y-157300406D01*
X236018338Y-157300408D01*
X236022753Y-157301562D01*
X236298021Y-157332194D01*
X236302578Y-157332039D01*
X236302582Y-157332039D01*
X236570258Y-157322926D01*
X236570264Y-157322925D01*
X236574828Y-157322770D01*
X236808520Y-157280511D01*
X236830941Y-157278500D01*
X238069614Y-157278500D01*
X238131796Y-157271745D01*
X238268185Y-157220615D01*
X238384741Y-157133261D01*
X238472095Y-157016705D01*
X238523225Y-156880316D01*
X238529980Y-156818134D01*
X238529980Y-156012716D01*
X238549982Y-155944595D01*
X238566885Y-155923621D01*
X242553944Y-151936562D01*
X242564344Y-151927255D01*
X242581407Y-151913610D01*
X242581421Y-151913597D01*
X242584981Y-151910750D01*
X242657641Y-151832968D01*
X242660621Y-151829885D01*
X242684061Y-151806445D01*
X242685559Y-151804713D01*
X242685567Y-151804704D01*
X242702953Y-151784597D01*
X242706150Y-151781039D01*
X242774049Y-151708354D01*
X242791199Y-151683632D01*
X242799410Y-151673047D01*
X242819080Y-151650299D01*
X242872570Y-151566499D01*
X242875247Y-151562478D01*
X242920709Y-151496945D01*
X242931919Y-151480785D01*
X242945315Y-151453857D01*
X242951918Y-151442188D01*
X242965644Y-151420684D01*
X242968099Y-151416838D01*
X243008926Y-151326204D01*
X243010996Y-151321836D01*
X243053249Y-151236903D01*
X243053250Y-151236900D01*
X243055285Y-151232810D01*
X243064657Y-151204222D01*
X243069505Y-151191724D01*
X243079706Y-151169079D01*
X244156230Y-151169079D01*
X244156567Y-151175598D01*
X244166486Y-151271190D01*
X244169378Y-151284584D01*
X244220817Y-151438768D01*
X244226990Y-151451946D01*
X244312292Y-151589791D01*
X244321328Y-151601192D01*
X244436058Y-151715723D01*
X244447469Y-151724735D01*
X244585472Y-151809800D01*
X244598653Y-151815947D01*
X244752939Y-151867122D01*
X244766315Y-151869989D01*
X244860667Y-151879656D01*
X244867083Y-151879984D01*
X244967114Y-151879984D01*
X244982353Y-151875509D01*
X244983558Y-151874119D01*
X244985229Y-151866436D01*
X244985229Y-150744099D01*
X244980754Y-150728860D01*
X244979364Y-150727655D01*
X244971681Y-150725984D01*
X244174345Y-150725984D01*
X244159106Y-150730459D01*
X244157901Y-150731849D01*
X244156230Y-150739532D01*
X244156230Y-151169079D01*
X243079706Y-151169079D01*
X243079976Y-151168480D01*
X243079978Y-151168475D01*
X243081854Y-151164310D01*
X243091547Y-151130397D01*
X243109166Y-151068747D01*
X243110584Y-151064121D01*
X243119963Y-151035513D01*
X243141562Y-150969624D01*
X243146708Y-150939988D01*
X243149700Y-150926924D01*
X243156711Y-150902391D01*
X243156712Y-150902385D01*
X243157964Y-150898005D01*
X243170746Y-150802846D01*
X243171195Y-150799505D01*
X243171930Y-150794726D01*
X243188285Y-150700526D01*
X243188286Y-150700521D01*
X243188942Y-150696740D01*
X243191003Y-150655344D01*
X243191968Y-150644838D01*
X243194226Y-150628028D01*
X243194834Y-150623504D01*
X243193307Y-150488908D01*
X243193299Y-150487479D01*
X243193299Y-150199869D01*
X244156229Y-150199869D01*
X244160704Y-150215108D01*
X244162094Y-150216313D01*
X244169777Y-150217984D01*
X244967114Y-150217984D01*
X244982353Y-150213509D01*
X244983558Y-150212119D01*
X244985229Y-150204436D01*
X244985229Y-149082100D01*
X244980754Y-149066861D01*
X244979364Y-149065656D01*
X244971681Y-149063985D01*
X244867134Y-149063985D01*
X244860615Y-149064322D01*
X244765023Y-149074241D01*
X244751629Y-149077133D01*
X244597445Y-149128572D01*
X244584267Y-149134745D01*
X244446422Y-149220047D01*
X244435021Y-149229083D01*
X244320490Y-149343813D01*
X244311478Y-149355224D01*
X244226413Y-149493227D01*
X244220266Y-149506408D01*
X244169091Y-149660694D01*
X244166224Y-149674070D01*
X244156557Y-149768422D01*
X244156229Y-149774839D01*
X244156229Y-150199869D01*
X243193299Y-150199869D01*
X243193299Y-146200329D01*
X243213301Y-146132208D01*
X243266957Y-146085715D01*
X243337231Y-146075611D01*
X243401811Y-146105105D01*
X243420125Y-146124764D01*
X243443392Y-146155809D01*
X243559948Y-146243163D01*
X243696337Y-146294293D01*
X243758519Y-146301048D01*
X246154729Y-146301048D01*
X246222850Y-146321050D01*
X246269343Y-146374706D01*
X246280729Y-146427048D01*
X246280729Y-146449500D01*
X246260727Y-146517621D01*
X246207071Y-146564114D01*
X246154729Y-146575500D01*
X245689312Y-146575500D01*
X245648935Y-146584082D01*
X245635927Y-146586143D01*
X245615489Y-146588291D01*
X245601434Y-146589768D01*
X245601432Y-146589768D01*
X245594871Y-146590458D01*
X245588597Y-146592497D01*
X245588590Y-146592498D01*
X245555616Y-146603212D01*
X245542879Y-146606625D01*
X245508968Y-146613833D01*
X245508964Y-146613834D01*
X245502511Y-146615206D01*
X245464793Y-146631999D01*
X245452497Y-146636718D01*
X245413243Y-146649473D01*
X245407522Y-146652776D01*
X245377509Y-146670104D01*
X245365760Y-146676091D01*
X245328047Y-146692882D01*
X245322708Y-146696761D01*
X245322703Y-146696764D01*
X245294650Y-146717146D01*
X245283597Y-146724325D01*
X245247855Y-146744960D01*
X245242946Y-146749380D01*
X245242942Y-146749383D01*
X245217185Y-146772575D01*
X245206942Y-146780871D01*
X245173546Y-146805134D01*
X245169132Y-146810036D01*
X245169130Y-146810038D01*
X245145928Y-146835806D01*
X245136605Y-146845129D01*
X245105933Y-146872747D01*
X245081670Y-146906143D01*
X245073374Y-146916386D01*
X245050182Y-146942143D01*
X245050179Y-146942147D01*
X245045759Y-146947056D01*
X245025124Y-146982798D01*
X245017945Y-146993851D01*
X244997563Y-147021904D01*
X244997560Y-147021909D01*
X244993681Y-147027248D01*
X244990998Y-147033275D01*
X244990997Y-147033276D01*
X244976891Y-147064959D01*
X244970904Y-147076708D01*
X244950272Y-147112444D01*
X244948231Y-147118727D01*
X244948230Y-147118728D01*
X244937518Y-147151696D01*
X244932798Y-147163994D01*
X244916005Y-147201712D01*
X244914633Y-147208165D01*
X244914632Y-147208169D01*
X244907424Y-147242080D01*
X244904011Y-147254817D01*
X244893297Y-147287791D01*
X244893296Y-147287798D01*
X244891257Y-147294072D01*
X244890567Y-147300633D01*
X244890567Y-147300635D01*
X244886943Y-147335122D01*
X244884881Y-147348136D01*
X244876299Y-147388513D01*
X244876299Y-147429784D01*
X244875609Y-147442955D01*
X244871295Y-147484000D01*
X244871985Y-147490565D01*
X244875609Y-147525045D01*
X244876299Y-147538216D01*
X244876299Y-147579487D01*
X244884881Y-147619864D01*
X244886942Y-147632872D01*
X244891257Y-147673928D01*
X244893296Y-147680202D01*
X244893297Y-147680209D01*
X244904011Y-147713183D01*
X244907424Y-147725920D01*
X244916005Y-147766288D01*
X244932798Y-147804006D01*
X244937517Y-147816302D01*
X244950272Y-147855556D01*
X244953575Y-147861277D01*
X244970903Y-147891290D01*
X244976891Y-147903041D01*
X244990648Y-147933939D01*
X244993681Y-147940752D01*
X244997560Y-147946091D01*
X244997563Y-147946096D01*
X245017945Y-147974149D01*
X245025124Y-147985202D01*
X245045759Y-148020944D01*
X245050179Y-148025853D01*
X245050182Y-148025857D01*
X245073374Y-148051614D01*
X245081670Y-148061857D01*
X245105933Y-148095253D01*
X245110835Y-148099667D01*
X245110837Y-148099669D01*
X245136605Y-148122871D01*
X245145928Y-148132194D01*
X245173546Y-148162866D01*
X245206942Y-148187129D01*
X245217185Y-148195425D01*
X245242942Y-148218617D01*
X245242946Y-148218620D01*
X245247855Y-148223040D01*
X245283597Y-148243675D01*
X245294650Y-148250854D01*
X245322703Y-148271236D01*
X245322708Y-148271239D01*
X245328047Y-148275118D01*
X245334074Y-148277801D01*
X245334075Y-148277802D01*
X245365758Y-148291908D01*
X245377507Y-148297895D01*
X245413243Y-148318527D01*
X245419526Y-148320568D01*
X245419527Y-148320569D01*
X245452495Y-148331281D01*
X245464793Y-148336001D01*
X245502511Y-148352794D01*
X245508964Y-148354166D01*
X245508968Y-148354167D01*
X245542879Y-148361375D01*
X245555616Y-148364788D01*
X245588590Y-148375502D01*
X245588597Y-148375503D01*
X245594871Y-148377542D01*
X245601432Y-148378232D01*
X245601434Y-148378232D01*
X245615489Y-148379709D01*
X245635927Y-148381857D01*
X245648935Y-148383918D01*
X245689312Y-148392500D01*
X246154729Y-148392500D01*
X246222850Y-148412502D01*
X246269343Y-148466158D01*
X246280729Y-148518500D01*
X246280729Y-149162343D01*
X246260727Y-149230464D01*
X246207071Y-149276957D01*
X246136797Y-149287061D01*
X246072217Y-149257567D01*
X246065710Y-149251515D01*
X246042400Y-149228245D01*
X246030989Y-149219233D01*
X245892986Y-149134168D01*
X245879805Y-149128021D01*
X245725519Y-149076846D01*
X245712143Y-149073979D01*
X245617791Y-149064312D01*
X245611374Y-149063984D01*
X245511344Y-149063984D01*
X245496105Y-149068459D01*
X245494900Y-149069849D01*
X245493229Y-149077532D01*
X245493229Y-151861868D01*
X245497704Y-151877107D01*
X245499094Y-151878312D01*
X245506777Y-151879983D01*
X245611324Y-151879983D01*
X245617843Y-151879646D01*
X245713435Y-151869727D01*
X245726829Y-151866835D01*
X245881013Y-151815396D01*
X245894191Y-151809223D01*
X246032036Y-151723921D01*
X246043437Y-151714885D01*
X246157968Y-151600155D01*
X246166980Y-151588744D01*
X246252045Y-151450741D01*
X246258192Y-151437560D01*
X246273984Y-151389950D01*
X246314416Y-151331590D01*
X246379980Y-151304354D01*
X246449861Y-151316888D01*
X246501873Y-151365213D01*
X246505994Y-151372710D01*
X246544032Y-151447850D01*
X246548949Y-151457564D01*
X246551577Y-151461296D01*
X246551581Y-151461303D01*
X246566264Y-151482155D01*
X246573389Y-151493513D01*
X246575904Y-151498040D01*
X246587993Y-151519804D01*
X246590765Y-151523436D01*
X246648314Y-151598843D01*
X246651173Y-151602743D01*
X246708405Y-151684024D01*
X246710982Y-151686871D01*
X246710986Y-151686876D01*
X246736212Y-151714745D01*
X246742958Y-151722857D01*
X246753250Y-151736343D01*
X246753254Y-151736348D01*
X246756024Y-151739977D01*
X246759290Y-151743170D01*
X246759292Y-151743172D01*
X246852354Y-151834146D01*
X246853370Y-151835151D01*
X251037364Y-156019145D01*
X251046671Y-156029545D01*
X251060316Y-156046608D01*
X251060329Y-156046622D01*
X251063176Y-156050182D01*
X251066517Y-156053303D01*
X251140958Y-156122842D01*
X251144041Y-156125822D01*
X251167481Y-156149262D01*
X251181669Y-156161530D01*
X251189308Y-156168135D01*
X251192906Y-156171368D01*
X251265572Y-156239250D01*
X251290288Y-156256396D01*
X251300874Y-156264607D01*
X251323627Y-156284282D01*
X251407439Y-156337779D01*
X251411453Y-156340451D01*
X251493141Y-156397120D01*
X251497223Y-156399151D01*
X251497225Y-156399152D01*
X251520068Y-156410517D01*
X251531731Y-156417116D01*
X251550090Y-156428834D01*
X251557088Y-156433300D01*
X251632526Y-156467282D01*
X251647719Y-156474126D01*
X251652090Y-156476197D01*
X251737023Y-156518450D01*
X251741116Y-156520486D01*
X251745455Y-156521908D01*
X251745454Y-156521908D01*
X251769702Y-156529857D01*
X251782202Y-156534706D01*
X251805446Y-156545177D01*
X251805451Y-156545179D01*
X251809616Y-156547055D01*
X251814010Y-156548311D01*
X251814016Y-156548313D01*
X251905179Y-156574367D01*
X251909788Y-156575780D01*
X252004302Y-156606763D01*
X252022461Y-156609916D01*
X252033938Y-156611909D01*
X252047002Y-156614901D01*
X252071535Y-156621912D01*
X252071541Y-156621913D01*
X252075921Y-156623165D01*
X252124886Y-156629742D01*
X252174421Y-156636396D01*
X252179200Y-156637131D01*
X252273400Y-156653486D01*
X252273405Y-156653487D01*
X252277186Y-156654143D01*
X252281023Y-156654334D01*
X252318582Y-156656204D01*
X252329080Y-156657168D01*
X252350422Y-156660035D01*
X252485060Y-156658508D01*
X252486490Y-156658500D01*
X253721155Y-156658500D01*
X253723423Y-156658335D01*
X253723435Y-156658335D01*
X253842590Y-156649689D01*
X253927040Y-156643561D01*
X254065202Y-156613058D01*
X254193034Y-156584836D01*
X254193038Y-156584835D01*
X254197494Y-156583851D01*
X254364743Y-156520486D01*
X254452225Y-156487342D01*
X254452228Y-156487341D01*
X254456495Y-156485724D01*
X254698619Y-156351236D01*
X254918792Y-156183205D01*
X254950499Y-156150771D01*
X255069005Y-156029545D01*
X255112403Y-155985151D01*
X255217981Y-155840102D01*
X255272708Y-155764914D01*
X255272710Y-155764911D01*
X255275395Y-155761222D01*
X255404355Y-155516110D01*
X255409338Y-155502001D01*
X255495060Y-155259256D01*
X255496581Y-155254949D01*
X255515819Y-155157340D01*
X258242799Y-155157340D01*
X258243024Y-155162649D01*
X258257459Y-155332771D01*
X258259251Y-155343259D01*
X258316600Y-155564211D01*
X258320132Y-155574239D01*
X258413884Y-155782363D01*
X258419064Y-155791669D01*
X258546546Y-155981024D01*
X258553205Y-155989307D01*
X258710770Y-156154478D01*
X258718741Y-156161530D01*
X258901881Y-156297790D01*
X258910918Y-156303394D01*
X259114405Y-156406851D01*
X259124258Y-156410852D01*
X259342260Y-156478544D01*
X259352647Y-156480828D01*
X259378842Y-156484300D01*
X259393006Y-156482104D01*
X259396799Y-156468919D01*
X259396799Y-156467282D01*
X259904799Y-156467282D01*
X259908772Y-156480813D01*
X259919379Y-156482338D01*
X260051639Y-156454587D01*
X260061836Y-156451527D01*
X260274139Y-156367685D01*
X260283675Y-156362951D01*
X260478824Y-156244532D01*
X260487417Y-156238266D01*
X260659826Y-156088658D01*
X260667246Y-156081028D01*
X260811979Y-155904512D01*
X260818005Y-155895745D01*
X260930928Y-155697367D01*
X260935394Y-155687703D01*
X261013280Y-155473132D01*
X261016050Y-155462865D01*
X261056880Y-155237068D01*
X261057815Y-155228838D01*
X261058729Y-155209450D01*
X261058799Y-155206474D01*
X261058799Y-154272115D01*
X261054324Y-154256876D01*
X261052934Y-154255671D01*
X261045251Y-154254000D01*
X259922914Y-154254000D01*
X259907675Y-154258475D01*
X259906470Y-154259865D01*
X259904799Y-154267548D01*
X259904799Y-156467282D01*
X259396799Y-156467282D01*
X259396799Y-154272115D01*
X259392324Y-154256876D01*
X259390934Y-154255671D01*
X259383251Y-154254000D01*
X258260914Y-154254000D01*
X258245675Y-154258475D01*
X258244470Y-154259865D01*
X258242799Y-154267548D01*
X258242799Y-155157340D01*
X255515819Y-155157340D01*
X255550140Y-154983210D01*
X255550367Y-154978652D01*
X255563684Y-154711154D01*
X255563684Y-154711148D01*
X255563911Y-154706585D01*
X255537606Y-154430870D01*
X255497642Y-154267548D01*
X255472860Y-154166275D01*
X255471775Y-154161841D01*
X255367797Y-153905132D01*
X255264015Y-153727885D01*
X258242799Y-153727885D01*
X258247274Y-153743124D01*
X258248664Y-153744329D01*
X258256347Y-153746000D01*
X259378684Y-153746000D01*
X259393923Y-153741525D01*
X259395128Y-153740135D01*
X259396799Y-153732452D01*
X259396799Y-153727885D01*
X259904799Y-153727885D01*
X259909274Y-153743124D01*
X259910664Y-153744329D01*
X259918347Y-153746000D01*
X261040684Y-153746000D01*
X261055923Y-153741525D01*
X261057128Y-153740135D01*
X261058799Y-153732452D01*
X261058799Y-152842660D01*
X261058574Y-152837351D01*
X261044139Y-152667229D01*
X261042347Y-152656741D01*
X260984998Y-152435789D01*
X260981466Y-152425761D01*
X260887714Y-152217637D01*
X260882534Y-152208331D01*
X260755052Y-152018976D01*
X260748393Y-152010693D01*
X260590828Y-151845522D01*
X260582857Y-151838470D01*
X260399717Y-151702210D01*
X260390680Y-151696606D01*
X260187193Y-151593149D01*
X260177340Y-151589148D01*
X259959338Y-151521456D01*
X259948951Y-151519172D01*
X259922756Y-151515700D01*
X259908592Y-151517896D01*
X259904799Y-151531081D01*
X259904799Y-153727885D01*
X259396799Y-153727885D01*
X259396799Y-151532718D01*
X259392826Y-151519187D01*
X259382219Y-151517662D01*
X259249959Y-151545413D01*
X259239762Y-151548473D01*
X259027459Y-151632315D01*
X259017923Y-151637049D01*
X258822774Y-151755468D01*
X258814181Y-151761734D01*
X258641772Y-151911342D01*
X258634352Y-151918972D01*
X258489619Y-152095488D01*
X258483593Y-152104255D01*
X258370670Y-152302633D01*
X258366204Y-152312297D01*
X258288318Y-152526868D01*
X258285548Y-152537135D01*
X258244718Y-152762932D01*
X258243783Y-152771162D01*
X258242869Y-152790550D01*
X258242799Y-152793526D01*
X258242799Y-153727885D01*
X255264015Y-153727885D01*
X255227851Y-153666122D01*
X255086896Y-153489867D01*
X255059972Y-153424174D01*
X255059299Y-153411172D01*
X255059299Y-152839988D01*
X255044182Y-152661825D01*
X255009154Y-152526868D01*
X254985472Y-152435625D01*
X254985470Y-152435620D01*
X254984131Y-152430460D01*
X254885956Y-152212520D01*
X254752465Y-152014238D01*
X254715435Y-151975420D01*
X254657313Y-151914493D01*
X254587473Y-151841282D01*
X254395699Y-151698598D01*
X254390948Y-151696182D01*
X254390944Y-151696180D01*
X254187385Y-151592686D01*
X254187384Y-151592686D01*
X254182627Y-151590267D01*
X254038174Y-151545413D01*
X253959450Y-151520968D01*
X253959444Y-151520967D01*
X253954347Y-151519384D01*
X253826916Y-151502494D01*
X253722672Y-151488677D01*
X253722668Y-151488677D01*
X253717388Y-151487977D01*
X253712059Y-151488177D01*
X253712058Y-151488177D01*
X253614290Y-151491848D01*
X253478525Y-151496945D01*
X253391615Y-151515181D01*
X253249815Y-151544933D01*
X253249812Y-151544934D01*
X253244588Y-151546030D01*
X253022266Y-151633829D01*
X252817916Y-151757832D01*
X252813886Y-151761329D01*
X252645544Y-151907409D01*
X252637380Y-151914493D01*
X252626916Y-151927255D01*
X252587423Y-151975420D01*
X252528763Y-152015414D01*
X252457792Y-152017345D01*
X252400894Y-151984623D01*
X250134634Y-149718363D01*
X250100608Y-149656051D01*
X250097729Y-149629268D01*
X250097729Y-149229411D01*
X254138776Y-149229411D01*
X254147744Y-149468274D01*
X254148839Y-149473492D01*
X254192475Y-149681458D01*
X254196829Y-149702211D01*
X254284628Y-149924533D01*
X254408631Y-150128883D01*
X254412128Y-150132913D01*
X254550794Y-150292711D01*
X254565292Y-150309419D01*
X254569418Y-150312802D01*
X254569422Y-150312806D01*
X254666103Y-150392079D01*
X254750132Y-150460978D01*
X254754768Y-150463617D01*
X254754771Y-150463619D01*
X254866460Y-150527196D01*
X254957865Y-150579227D01*
X255182552Y-150660784D01*
X255187801Y-150661733D01*
X255187804Y-150661734D01*
X255413684Y-150702580D01*
X255413692Y-150702581D01*
X255417768Y-150703318D01*
X255436158Y-150704185D01*
X255441343Y-150704430D01*
X255441350Y-150704430D01*
X255442831Y-150704500D01*
X257810811Y-150704500D01*
X257988974Y-150689383D01*
X257994138Y-150688043D01*
X257994142Y-150688042D01*
X258215174Y-150630673D01*
X258215179Y-150630671D01*
X258220339Y-150629332D01*
X258413454Y-150542340D01*
X258433418Y-150533347D01*
X258433421Y-150533346D01*
X258438279Y-150531157D01*
X258636561Y-150397666D01*
X258643347Y-150391193D01*
X258779437Y-150261369D01*
X258809517Y-150232674D01*
X258822587Y-150215108D01*
X258949015Y-150045182D01*
X258952201Y-150040900D01*
X258957618Y-150030247D01*
X259058113Y-149832586D01*
X259058113Y-149832585D01*
X259060532Y-149827828D01*
X259105981Y-149681458D01*
X259129831Y-149604651D01*
X259129832Y-149604645D01*
X259131415Y-149599548D01*
X259157600Y-149401991D01*
X259162122Y-149367873D01*
X259162122Y-149367869D01*
X259162822Y-149362589D01*
X259162546Y-149355224D01*
X259158579Y-149249572D01*
X259153854Y-149123726D01*
X259104769Y-148889789D01*
X259016970Y-148667467D01*
X258892967Y-148463117D01*
X258830498Y-148391128D01*
X258739806Y-148286614D01*
X258739804Y-148286612D01*
X258736306Y-148282581D01*
X258732180Y-148279198D01*
X258732176Y-148279194D01*
X258555594Y-148134407D01*
X258551466Y-148131022D01*
X258546830Y-148128383D01*
X258546827Y-148128381D01*
X258348376Y-148015416D01*
X258343733Y-148012773D01*
X258119046Y-147931216D01*
X258113797Y-147930267D01*
X258113794Y-147930266D01*
X257887914Y-147889420D01*
X257887906Y-147889419D01*
X257883830Y-147888682D01*
X257865440Y-147887815D01*
X257860255Y-147887570D01*
X257860248Y-147887570D01*
X257858767Y-147887500D01*
X255490787Y-147887500D01*
X255312624Y-147902617D01*
X255307460Y-147903957D01*
X255307456Y-147903958D01*
X255086424Y-147961327D01*
X255086419Y-147961329D01*
X255081259Y-147962668D01*
X255076393Y-147964860D01*
X254868180Y-148058653D01*
X254868177Y-148058654D01*
X254863319Y-148060843D01*
X254665037Y-148194334D01*
X254661180Y-148198013D01*
X254661178Y-148198015D01*
X254621002Y-148236341D01*
X254492081Y-148359326D01*
X254488898Y-148363603D01*
X254488898Y-148363604D01*
X254468420Y-148391128D01*
X254349397Y-148551100D01*
X254346981Y-148555851D01*
X254346979Y-148555855D01*
X254254966Y-148736832D01*
X254241066Y-148764172D01*
X254225411Y-148814589D01*
X254171767Y-148987349D01*
X254171766Y-148987355D01*
X254170183Y-148992452D01*
X254138776Y-149229411D01*
X250097729Y-149229411D01*
X250097729Y-146272936D01*
X250117731Y-146204815D01*
X250148161Y-146172112D01*
X250169914Y-146155809D01*
X250257268Y-146039253D01*
X250308398Y-145902864D01*
X250315153Y-145840682D01*
X250315153Y-142034500D01*
X250335155Y-141966379D01*
X250388811Y-141919886D01*
X250441153Y-141908500D01*
X252430051Y-141908500D01*
X252498172Y-141928502D01*
X252534570Y-141964131D01*
X252540770Y-141973341D01*
X252549133Y-141985762D01*
X252714125Y-142158718D01*
X252905899Y-142301402D01*
X252910650Y-142303818D01*
X252910654Y-142303820D01*
X253114213Y-142407314D01*
X253118971Y-142409733D01*
X253233111Y-142445175D01*
X253342148Y-142479032D01*
X253342154Y-142479033D01*
X253347251Y-142480616D01*
X253474682Y-142497506D01*
X253578926Y-142511323D01*
X253578930Y-142511323D01*
X253584210Y-142512023D01*
X253589539Y-142511823D01*
X253589540Y-142511823D01*
X253687308Y-142508152D01*
X253823073Y-142503055D01*
X253925899Y-142481480D01*
X254051783Y-142455067D01*
X254051786Y-142455066D01*
X254057010Y-142453970D01*
X254279332Y-142366171D01*
X254483682Y-142242168D01*
X254549720Y-142184863D01*
X254660185Y-142089007D01*
X254660187Y-142089005D01*
X254664218Y-142085507D01*
X254667601Y-142081381D01*
X254667605Y-142081377D01*
X254812392Y-141904795D01*
X254815777Y-141900667D01*
X254835706Y-141865658D01*
X254931383Y-141697577D01*
X254934026Y-141692934D01*
X255015583Y-141468247D01*
X255038325Y-141342485D01*
X255065151Y-141284686D01*
X255068153Y-141281050D01*
X255075215Y-141273193D01*
X255109215Y-141238413D01*
X255109220Y-141238407D01*
X255112403Y-141235151D01*
X255115083Y-141231470D01*
X255115089Y-141231462D01*
X255157315Y-141173448D01*
X255162033Y-141167366D01*
X255170313Y-141157340D01*
X258242799Y-141157340D01*
X258243024Y-141162649D01*
X258257459Y-141332771D01*
X258259251Y-141343259D01*
X258316600Y-141564211D01*
X258320132Y-141574239D01*
X258413884Y-141782363D01*
X258419064Y-141791669D01*
X258546546Y-141981024D01*
X258553205Y-141989307D01*
X258710770Y-142154478D01*
X258718741Y-142161530D01*
X258901881Y-142297790D01*
X258910918Y-142303394D01*
X259114405Y-142406851D01*
X259124258Y-142410852D01*
X259342260Y-142478544D01*
X259352647Y-142480828D01*
X259378842Y-142484300D01*
X259393006Y-142482104D01*
X259396799Y-142468919D01*
X259396799Y-142467282D01*
X259904799Y-142467282D01*
X259908772Y-142480813D01*
X259919379Y-142482338D01*
X260051639Y-142454587D01*
X260061836Y-142451527D01*
X260274139Y-142367685D01*
X260283675Y-142362951D01*
X260478824Y-142244532D01*
X260487417Y-142238266D01*
X260659826Y-142088658D01*
X260667246Y-142081028D01*
X260811979Y-141904512D01*
X260818005Y-141895745D01*
X260930928Y-141697367D01*
X260935394Y-141687703D01*
X261013280Y-141473132D01*
X261016050Y-141462865D01*
X261056880Y-141237068D01*
X261057815Y-141228838D01*
X261058729Y-141209450D01*
X261058799Y-141206474D01*
X261058799Y-140272115D01*
X261054324Y-140256876D01*
X261052934Y-140255671D01*
X261045251Y-140254000D01*
X259922914Y-140254000D01*
X259907675Y-140258475D01*
X259906470Y-140259865D01*
X259904799Y-140267548D01*
X259904799Y-142467282D01*
X259396799Y-142467282D01*
X259396799Y-140272115D01*
X259392324Y-140256876D01*
X259390934Y-140255671D01*
X259383251Y-140254000D01*
X258260914Y-140254000D01*
X258245675Y-140258475D01*
X258244470Y-140259865D01*
X258242799Y-140267548D01*
X258242799Y-141157340D01*
X255170313Y-141157340D01*
X255207725Y-141112036D01*
X255207729Y-141112030D01*
X255210632Y-141108515D01*
X255238248Y-141063005D01*
X255244074Y-141054253D01*
X255275395Y-141011222D01*
X255310927Y-140943688D01*
X255314716Y-140936991D01*
X255344843Y-140887343D01*
X255354315Y-140871733D01*
X255375067Y-140822724D01*
X255379584Y-140813191D01*
X255388458Y-140796324D01*
X255404355Y-140766110D01*
X255429774Y-140694130D01*
X255432545Y-140686988D01*
X255460530Y-140620900D01*
X255460535Y-140620886D01*
X255462312Y-140616689D01*
X255475770Y-140565206D01*
X255478865Y-140555117D01*
X255495058Y-140509263D01*
X255495060Y-140509257D01*
X255496581Y-140504949D01*
X255511338Y-140430077D01*
X255513056Y-140422575D01*
X255531207Y-140353141D01*
X255532361Y-140348727D01*
X255538247Y-140295833D01*
X255539852Y-140285404D01*
X255542044Y-140274286D01*
X255550140Y-140233210D01*
X255551286Y-140210205D01*
X255553935Y-140156986D01*
X255554552Y-140149316D01*
X255560626Y-140094730D01*
X255562993Y-140073459D01*
X255561183Y-140020278D01*
X255561266Y-140009729D01*
X255563684Y-139961155D01*
X255563684Y-139961148D01*
X255563911Y-139956585D01*
X255556663Y-139880611D01*
X255556166Y-139872936D01*
X255555985Y-139867601D01*
X255554746Y-139831231D01*
X255553725Y-139801221D01*
X255553724Y-139801215D01*
X255553569Y-139796652D01*
X255546083Y-139755253D01*
X255544100Y-139744287D01*
X255542659Y-139733833D01*
X255542092Y-139727885D01*
X258242799Y-139727885D01*
X258247274Y-139743124D01*
X258248664Y-139744329D01*
X258256347Y-139746000D01*
X259378684Y-139746000D01*
X259393923Y-139741525D01*
X259395128Y-139740135D01*
X259396799Y-139732452D01*
X259396799Y-139727885D01*
X259904799Y-139727885D01*
X259909274Y-139743124D01*
X259910664Y-139744329D01*
X259918347Y-139746000D01*
X261040684Y-139746000D01*
X261055923Y-139741525D01*
X261057128Y-139740135D01*
X261058799Y-139732452D01*
X261058799Y-138842660D01*
X261058574Y-138837351D01*
X261044139Y-138667229D01*
X261042347Y-138656741D01*
X260984998Y-138435789D01*
X260981466Y-138425760D01*
X260887714Y-138217637D01*
X260882534Y-138208331D01*
X260755052Y-138018976D01*
X260748393Y-138010693D01*
X260590828Y-137845522D01*
X260582857Y-137838470D01*
X260399717Y-137702210D01*
X260390680Y-137696606D01*
X260187193Y-137593149D01*
X260177340Y-137589148D01*
X259959338Y-137521456D01*
X259948951Y-137519172D01*
X259922756Y-137515700D01*
X259908592Y-137517896D01*
X259904799Y-137531081D01*
X259904799Y-139727885D01*
X259396799Y-139727885D01*
X259396799Y-137532718D01*
X259392826Y-137519187D01*
X259382219Y-137517662D01*
X259249959Y-137545413D01*
X259239762Y-137548473D01*
X259027459Y-137632315D01*
X259017923Y-137637049D01*
X258822774Y-137755468D01*
X258814181Y-137761734D01*
X258641772Y-137911342D01*
X258634352Y-137918972D01*
X258489619Y-138095488D01*
X258483593Y-138104255D01*
X258370670Y-138302633D01*
X258366204Y-138312297D01*
X258288318Y-138526868D01*
X258285548Y-138537135D01*
X258244718Y-138762932D01*
X258243783Y-138771162D01*
X258242869Y-138790550D01*
X258242799Y-138793526D01*
X258242799Y-139727885D01*
X255542092Y-139727885D01*
X255538040Y-139685417D01*
X255538040Y-139685414D01*
X255537606Y-139680870D01*
X255532304Y-139659204D01*
X255519463Y-139606724D01*
X255517863Y-139599197D01*
X255508392Y-139546822D01*
X255504284Y-139524106D01*
X255487358Y-139473665D01*
X255484424Y-139463533D01*
X255481683Y-139452329D01*
X255471775Y-139411841D01*
X255443119Y-139341094D01*
X255440451Y-139333879D01*
X255417628Y-139265862D01*
X255417624Y-139265854D01*
X255416173Y-139261528D01*
X255392138Y-139214050D01*
X255387770Y-139204443D01*
X255369510Y-139159361D01*
X255369510Y-139159360D01*
X255367797Y-139155132D01*
X255329230Y-139089264D01*
X255325555Y-139082523D01*
X255293143Y-139018498D01*
X255293142Y-139018497D01*
X255291079Y-139014421D01*
X255260439Y-138970906D01*
X255254740Y-138962045D01*
X255230157Y-138920060D01*
X255230155Y-138920058D01*
X255227851Y-138916122D01*
X255180179Y-138856511D01*
X255175559Y-138850357D01*
X255165397Y-138835925D01*
X255131624Y-138787960D01*
X255129043Y-138785109D01*
X255129037Y-138785101D01*
X255080402Y-138731371D01*
X255075413Y-138725509D01*
X255071296Y-138720360D01*
X255069269Y-138717825D01*
X255044194Y-138661966D01*
X255044182Y-138661825D01*
X255041014Y-138649619D01*
X254985472Y-138435625D01*
X254985470Y-138435620D01*
X254984131Y-138430460D01*
X254931017Y-138312552D01*
X254920417Y-138289020D01*
X254909299Y-138237269D01*
X254909299Y-136741378D01*
X254929301Y-136673257D01*
X254982957Y-136626764D01*
X255053231Y-136616660D01*
X255078291Y-136622939D01*
X255182552Y-136660784D01*
X255187801Y-136661733D01*
X255187804Y-136661734D01*
X255413684Y-136702580D01*
X255413692Y-136702581D01*
X255417768Y-136703318D01*
X255436158Y-136704185D01*
X255441343Y-136704430D01*
X255441350Y-136704430D01*
X255442831Y-136704500D01*
X257810811Y-136704500D01*
X257988974Y-136689383D01*
X257994138Y-136688043D01*
X257994142Y-136688042D01*
X258215174Y-136630673D01*
X258215179Y-136630671D01*
X258220339Y-136629332D01*
X258248470Y-136616660D01*
X258433418Y-136533347D01*
X258433421Y-136533346D01*
X258438279Y-136531157D01*
X258636561Y-136397666D01*
X258646341Y-136388337D01*
X258742353Y-136296745D01*
X258809517Y-136232674D01*
X258952201Y-136040900D01*
X258972172Y-136001621D01*
X259058113Y-135832586D01*
X259058113Y-135832585D01*
X259060532Y-135827828D01*
X259120414Y-135634978D01*
X259129831Y-135604651D01*
X259129832Y-135604645D01*
X259131415Y-135599548D01*
X259154050Y-135428772D01*
X259162122Y-135367873D01*
X259162122Y-135367869D01*
X259162822Y-135362589D01*
X259161398Y-135324646D01*
X259156562Y-135195848D01*
X259153854Y-135123726D01*
X259104769Y-134889789D01*
X259016970Y-134667467D01*
X258892967Y-134463117D01*
X258884650Y-134453532D01*
X258739806Y-134286614D01*
X258739804Y-134286612D01*
X258736306Y-134282581D01*
X258732180Y-134279198D01*
X258732176Y-134279194D01*
X258573778Y-134149317D01*
X258551466Y-134131022D01*
X258546830Y-134128383D01*
X258546827Y-134128381D01*
X258348376Y-134015416D01*
X258343733Y-134012773D01*
X258119046Y-133931216D01*
X258113797Y-133930267D01*
X258113794Y-133930266D01*
X257887914Y-133889420D01*
X257887906Y-133889419D01*
X257883830Y-133888682D01*
X257865440Y-133887815D01*
X257860255Y-133887570D01*
X257860248Y-133887570D01*
X257858767Y-133887500D01*
X255490787Y-133887500D01*
X255312624Y-133902617D01*
X255307460Y-133903957D01*
X255307456Y-133903958D01*
X255194832Y-133933190D01*
X255081259Y-133962668D01*
X255076966Y-133964602D01*
X255006258Y-133968354D01*
X254944581Y-133933190D01*
X254911707Y-133870263D01*
X254909299Y-133845747D01*
X254909299Y-127748524D01*
X254920793Y-127696253D01*
X254922682Y-127692934D01*
X254930226Y-127672152D01*
X254961967Y-127584704D01*
X255004239Y-127468247D01*
X255005213Y-127462865D01*
X255026328Y-127346095D01*
X255027511Y-127339551D01*
X255056190Y-127279558D01*
X255092931Y-127237068D01*
X255161872Y-127157340D01*
X258231455Y-127157340D01*
X258231680Y-127162649D01*
X258246115Y-127332771D01*
X258247907Y-127343259D01*
X258305256Y-127564211D01*
X258308788Y-127574239D01*
X258402540Y-127782363D01*
X258407720Y-127791669D01*
X258535202Y-127981024D01*
X258541861Y-127989307D01*
X258699426Y-128154478D01*
X258707397Y-128161530D01*
X258890537Y-128297790D01*
X258899574Y-128303394D01*
X259103061Y-128406851D01*
X259112914Y-128410852D01*
X259330916Y-128478544D01*
X259341303Y-128480828D01*
X259367498Y-128484300D01*
X259381662Y-128482104D01*
X259385455Y-128468919D01*
X259385455Y-128467282D01*
X259893455Y-128467282D01*
X259897428Y-128480813D01*
X259908035Y-128482338D01*
X260040295Y-128454587D01*
X260050492Y-128451527D01*
X260262795Y-128367685D01*
X260272331Y-128362951D01*
X260467480Y-128244532D01*
X260476073Y-128238266D01*
X260648482Y-128088658D01*
X260655902Y-128081028D01*
X260800635Y-127904512D01*
X260806661Y-127895745D01*
X260919584Y-127697367D01*
X260924050Y-127687703D01*
X261001936Y-127473132D01*
X261004706Y-127462865D01*
X261045536Y-127237068D01*
X261046471Y-127228838D01*
X261047385Y-127209450D01*
X261047455Y-127206461D01*
X261047455Y-126272115D01*
X261042980Y-126256876D01*
X261041590Y-126255671D01*
X261033907Y-126254000D01*
X259911570Y-126254000D01*
X259896331Y-126258475D01*
X259895126Y-126259865D01*
X259893455Y-126267548D01*
X259893455Y-128467282D01*
X259385455Y-128467282D01*
X259385455Y-126272115D01*
X259380980Y-126256876D01*
X259379590Y-126255671D01*
X259371907Y-126254000D01*
X258249570Y-126254000D01*
X258234331Y-126258475D01*
X258233126Y-126259865D01*
X258231455Y-126267548D01*
X258231455Y-127157340D01*
X255161872Y-127157340D01*
X255173737Y-127143618D01*
X255238057Y-127042850D01*
X255320300Y-126914004D01*
X255320303Y-126913998D01*
X255322755Y-126910157D01*
X255436510Y-126657629D01*
X255512620Y-126391324D01*
X255513531Y-126384547D01*
X255548883Y-126121341D01*
X255549490Y-126116823D01*
X255547274Y-125921453D01*
X255546401Y-125844436D01*
X255546401Y-125844432D01*
X255546349Y-125839874D01*
X255528712Y-125727885D01*
X258231455Y-125727885D01*
X258235930Y-125743124D01*
X258237320Y-125744329D01*
X258245003Y-125746000D01*
X259367340Y-125746000D01*
X259382579Y-125741525D01*
X259383784Y-125740135D01*
X259385455Y-125732452D01*
X259385455Y-125727885D01*
X259893455Y-125727885D01*
X259897930Y-125743124D01*
X259899320Y-125744329D01*
X259907003Y-125746000D01*
X261029340Y-125746000D01*
X261044579Y-125741525D01*
X261045784Y-125740135D01*
X261047455Y-125732452D01*
X261047455Y-124842660D01*
X261047230Y-124837351D01*
X261032795Y-124667229D01*
X261031003Y-124656741D01*
X260973654Y-124435789D01*
X260970122Y-124425761D01*
X260876370Y-124217637D01*
X260871190Y-124208331D01*
X260743708Y-124018976D01*
X260737049Y-124010693D01*
X260579484Y-123845522D01*
X260571513Y-123838470D01*
X260388373Y-123702210D01*
X260379336Y-123696606D01*
X260175849Y-123593149D01*
X260165996Y-123589148D01*
X259947994Y-123521456D01*
X259937607Y-123519172D01*
X259911412Y-123515700D01*
X259897248Y-123517896D01*
X259893455Y-123531081D01*
X259893455Y-125727885D01*
X259385455Y-125727885D01*
X259385455Y-123532718D01*
X259381482Y-123519187D01*
X259370875Y-123517662D01*
X259238615Y-123545413D01*
X259228418Y-123548473D01*
X259016115Y-123632315D01*
X259006579Y-123637049D01*
X258811430Y-123755468D01*
X258802837Y-123761734D01*
X258630428Y-123911342D01*
X258623008Y-123918972D01*
X258478275Y-124095488D01*
X258472249Y-124104255D01*
X258359326Y-124302633D01*
X258354860Y-124312297D01*
X258276974Y-124526868D01*
X258274204Y-124537135D01*
X258233374Y-124762932D01*
X258232439Y-124771162D01*
X258231525Y-124790550D01*
X258231455Y-124793526D01*
X258231455Y-125727885D01*
X255528712Y-125727885D01*
X255503260Y-125566279D01*
X255425731Y-125316594D01*
X255422482Y-125306130D01*
X255422481Y-125306128D01*
X255421128Y-125301770D01*
X255301673Y-125051888D01*
X255147396Y-124821867D01*
X255063935Y-124729661D01*
X255033235Y-124666509D01*
X255032838Y-124661825D01*
X255024662Y-124630324D01*
X254974128Y-124435625D01*
X254974126Y-124435620D01*
X254972787Y-124430460D01*
X254915205Y-124302633D01*
X254876802Y-124217381D01*
X254876801Y-124217378D01*
X254874612Y-124212520D01*
X254741121Y-124014238D01*
X254726342Y-123998745D01*
X254605695Y-123872275D01*
X254576129Y-123841282D01*
X254384355Y-123698598D01*
X254379604Y-123696182D01*
X254379600Y-123696180D01*
X254176041Y-123592686D01*
X254176040Y-123592686D01*
X254171283Y-123590267D01*
X254026830Y-123545413D01*
X253948106Y-123520968D01*
X253948100Y-123520967D01*
X253943003Y-123519384D01*
X253815572Y-123502494D01*
X253711328Y-123488677D01*
X253711324Y-123488677D01*
X253706044Y-123487977D01*
X253700715Y-123488177D01*
X253700714Y-123488177D01*
X253602946Y-123491848D01*
X253467181Y-123496945D01*
X253393838Y-123512334D01*
X253238471Y-123544933D01*
X253238468Y-123544934D01*
X253233244Y-123546030D01*
X253010922Y-123633829D01*
X252806572Y-123757832D01*
X252802542Y-123761329D01*
X252667608Y-123878419D01*
X252626036Y-123914493D01*
X252622653Y-123918619D01*
X252622649Y-123918623D01*
X252547157Y-124010693D01*
X252474477Y-124099333D01*
X252471838Y-124103969D01*
X252471836Y-124103972D01*
X252393281Y-124241974D01*
X252356228Y-124307066D01*
X252274671Y-124531753D01*
X252273722Y-124537002D01*
X252273721Y-124537005D01*
X252252105Y-124656544D01*
X252217211Y-124723218D01*
X251960694Y-124979735D01*
X251898382Y-125013761D01*
X251827567Y-125008696D01*
X251782504Y-124979735D01*
X251495405Y-124692636D01*
X251461379Y-124630324D01*
X251458500Y-124603541D01*
X251458500Y-124464739D01*
X251478502Y-124396618D01*
X251536282Y-124348330D01*
X251583709Y-124328685D01*
X251645136Y-124303241D01*
X251813673Y-124204756D01*
X251877879Y-124167237D01*
X251877880Y-124167236D01*
X251881582Y-124165073D01*
X252097089Y-123996094D01*
X252113434Y-123979228D01*
X252247112Y-123841282D01*
X252287669Y-123799431D01*
X252290202Y-123795983D01*
X252290206Y-123795978D01*
X252447257Y-123582178D01*
X252449795Y-123578723D01*
X252453007Y-123572808D01*
X252578418Y-123341830D01*
X252578419Y-123341828D01*
X252580468Y-123338054D01*
X252664161Y-123116567D01*
X252675751Y-123085895D01*
X252675752Y-123085891D01*
X252677269Y-123081877D01*
X252708340Y-122946212D01*
X252737449Y-122819117D01*
X252737450Y-122819113D01*
X252738407Y-122814933D01*
X252742105Y-122773503D01*
X252762531Y-122544627D01*
X252762531Y-122544625D01*
X252762751Y-122542161D01*
X252762979Y-122520462D01*
X252763167Y-122502484D01*
X252763167Y-122502483D01*
X252763193Y-122500000D01*
X252760929Y-122466793D01*
X252744859Y-122231055D01*
X252744858Y-122231049D01*
X252744567Y-122226778D01*
X252743698Y-122222579D01*
X252700427Y-122013635D01*
X252689032Y-121958612D01*
X252597617Y-121700465D01*
X252483915Y-121480172D01*
X252473978Y-121460919D01*
X252473978Y-121460918D01*
X252472013Y-121457112D01*
X252463705Y-121445290D01*
X252357281Y-121293865D01*
X252314545Y-121233057D01*
X252311157Y-121229411D01*
X254127432Y-121229411D01*
X254136400Y-121468274D01*
X254148452Y-121525712D01*
X254181762Y-121684465D01*
X254185485Y-121702211D01*
X254273284Y-121924533D01*
X254397287Y-122128883D01*
X254400784Y-122132913D01*
X254547088Y-122301513D01*
X254553948Y-122309419D01*
X254558074Y-122312802D01*
X254558078Y-122312806D01*
X254657084Y-122393985D01*
X254738788Y-122460978D01*
X254743424Y-122463617D01*
X254743427Y-122463619D01*
X254885738Y-122544627D01*
X254946521Y-122579227D01*
X255171208Y-122660784D01*
X255176457Y-122661733D01*
X255176460Y-122661734D01*
X255402340Y-122702580D01*
X255402348Y-122702581D01*
X255406424Y-122703318D01*
X255424814Y-122704185D01*
X255429999Y-122704430D01*
X255430006Y-122704430D01*
X255431487Y-122704500D01*
X257799467Y-122704500D01*
X257977630Y-122689383D01*
X257982794Y-122688043D01*
X257982798Y-122688042D01*
X258203830Y-122630673D01*
X258203835Y-122630671D01*
X258208995Y-122629332D01*
X258234568Y-122617812D01*
X258422074Y-122533347D01*
X258422077Y-122533346D01*
X258426935Y-122531157D01*
X258445351Y-122518759D01*
X258490486Y-122488372D01*
X258625217Y-122397666D01*
X258664645Y-122360054D01*
X258752294Y-122276440D01*
X258798173Y-122232674D01*
X258940857Y-122040900D01*
X258949121Y-122024647D01*
X259046769Y-121832586D01*
X259046769Y-121832585D01*
X259049188Y-121827828D01*
X259093704Y-121684465D01*
X259118487Y-121604651D01*
X259118488Y-121604645D01*
X259120071Y-121599548D01*
X259140831Y-121442921D01*
X259150778Y-121367873D01*
X259150778Y-121367869D01*
X259151478Y-121362589D01*
X259150298Y-121331146D01*
X259146478Y-121229411D01*
X259142510Y-121123726D01*
X259093425Y-120889789D01*
X259005626Y-120667467D01*
X258881623Y-120463117D01*
X258791558Y-120359326D01*
X258728462Y-120286614D01*
X258728460Y-120286612D01*
X258724962Y-120282581D01*
X258720836Y-120279198D01*
X258720832Y-120279194D01*
X258544250Y-120134407D01*
X258540122Y-120131022D01*
X258535486Y-120128383D01*
X258535483Y-120128381D01*
X258337032Y-120015416D01*
X258332389Y-120012773D01*
X258107702Y-119931216D01*
X258102453Y-119930267D01*
X258102450Y-119930266D01*
X257876570Y-119889420D01*
X257876562Y-119889419D01*
X257872486Y-119888682D01*
X257854096Y-119887815D01*
X257848911Y-119887570D01*
X257848904Y-119887570D01*
X257847423Y-119887500D01*
X255479443Y-119887500D01*
X255301280Y-119902617D01*
X255296116Y-119903957D01*
X255296112Y-119903958D01*
X255075080Y-119961327D01*
X255075075Y-119961329D01*
X255069915Y-119962668D01*
X255065049Y-119964860D01*
X254856836Y-120058653D01*
X254856833Y-120058654D01*
X254851975Y-120060843D01*
X254653693Y-120194334D01*
X254480737Y-120359326D01*
X254338053Y-120551100D01*
X254335637Y-120555851D01*
X254335635Y-120555855D01*
X254246873Y-120730438D01*
X254229722Y-120764172D01*
X254208180Y-120833550D01*
X254160423Y-120987349D01*
X254160422Y-120987355D01*
X254158839Y-120992452D01*
X254153122Y-121035588D01*
X254129486Y-121213916D01*
X254127432Y-121229411D01*
X252311157Y-121229411D01*
X252217902Y-121129057D01*
X252131046Y-121035588D01*
X252131043Y-121035585D01*
X252128125Y-121032445D01*
X252124810Y-121029731D01*
X252124806Y-121029728D01*
X251919523Y-120861706D01*
X251916205Y-120858990D01*
X251706426Y-120730438D01*
X251686366Y-120718145D01*
X251686365Y-120718145D01*
X251682704Y-120715901D01*
X251678768Y-120714173D01*
X251435873Y-120607549D01*
X251435869Y-120607548D01*
X251431945Y-120605825D01*
X251168566Y-120530800D01*
X251164324Y-120530196D01*
X251164318Y-120530195D01*
X250963834Y-120501662D01*
X250897443Y-120492213D01*
X250753589Y-120491460D01*
X250627877Y-120490802D01*
X250627871Y-120490802D01*
X250623591Y-120490780D01*
X250619347Y-120491339D01*
X250619343Y-120491339D01*
X250500302Y-120507011D01*
X250352078Y-120526525D01*
X250347938Y-120527658D01*
X250347936Y-120527658D01*
X250277899Y-120546818D01*
X250087928Y-120598788D01*
X250083980Y-120600472D01*
X249839982Y-120704546D01*
X249839978Y-120704548D01*
X249836030Y-120706232D01*
X249784779Y-120736905D01*
X249604725Y-120844664D01*
X249604721Y-120844667D01*
X249601043Y-120846868D01*
X249387318Y-121018094D01*
X249198808Y-121216742D01*
X249039002Y-121439136D01*
X248910857Y-121681161D01*
X248909385Y-121685184D01*
X248909383Y-121685188D01*
X248821441Y-121925500D01*
X248816743Y-121938337D01*
X248758404Y-122205907D01*
X248736917Y-122478918D01*
X248752682Y-122752320D01*
X248753507Y-122756525D01*
X248753508Y-122756533D01*
X248767891Y-122829843D01*
X248805405Y-123021053D01*
X248806792Y-123025103D01*
X248806793Y-123025108D01*
X248892293Y-123274831D01*
X248894112Y-123280144D01*
X248925137Y-123341830D01*
X249014437Y-123519384D01*
X249017160Y-123524799D01*
X249019586Y-123528328D01*
X249019589Y-123528334D01*
X249161277Y-123734490D01*
X249172274Y-123750490D01*
X249175161Y-123753663D01*
X249175162Y-123753664D01*
X249353692Y-123949867D01*
X249356582Y-123953043D01*
X249566675Y-124128707D01*
X249570316Y-124130991D01*
X249795024Y-124271951D01*
X249795028Y-124271953D01*
X249798664Y-124274234D01*
X249802574Y-124275999D01*
X249802575Y-124276000D01*
X249827471Y-124287241D01*
X249967352Y-124350400D01*
X250021205Y-124396662D01*
X250041500Y-124465236D01*
X250041500Y-124920289D01*
X250041208Y-124928859D01*
X250037275Y-124986553D01*
X250038580Y-124994030D01*
X250038580Y-124994031D01*
X250048261Y-125049500D01*
X250049222Y-125056013D01*
X250056898Y-125119443D01*
X250059581Y-125126544D01*
X250060222Y-125129153D01*
X250064685Y-125145463D01*
X250065450Y-125147999D01*
X250066757Y-125155485D01*
X250069811Y-125162442D01*
X250092442Y-125213996D01*
X250094935Y-125220105D01*
X250109533Y-125258737D01*
X250117513Y-125279857D01*
X250121817Y-125286120D01*
X250123054Y-125288486D01*
X250131299Y-125303298D01*
X250132632Y-125305552D01*
X250135685Y-125312506D01*
X250140307Y-125318529D01*
X250174579Y-125363192D01*
X250178459Y-125368533D01*
X250210339Y-125414921D01*
X250210344Y-125414926D01*
X250214643Y-125421182D01*
X250220313Y-125426233D01*
X250220314Y-125426235D01*
X250261170Y-125462636D01*
X250266446Y-125467617D01*
X251072728Y-126273899D01*
X251106754Y-126336211D01*
X251107776Y-126384547D01*
X251105838Y-126395711D01*
X251096656Y-126448597D01*
X251096465Y-126452434D01*
X251094595Y-126489993D01*
X251093631Y-126500491D01*
X251090764Y-126521833D01*
X251090816Y-126526403D01*
X251092291Y-126656444D01*
X251092299Y-126657873D01*
X251092299Y-137965500D01*
X251072297Y-138033621D01*
X251018641Y-138080114D01*
X250966299Y-138091500D01*
X249918276Y-138091500D01*
X249850155Y-138071498D01*
X249803662Y-138017842D01*
X249793558Y-137947568D01*
X249823052Y-137882988D01*
X249874047Y-137847518D01*
X249967948Y-137812316D01*
X249967949Y-137812315D01*
X249976358Y-137809163D01*
X250092914Y-137721809D01*
X250180268Y-137605253D01*
X250231398Y-137468864D01*
X250238153Y-137406682D01*
X250238153Y-134510414D01*
X250231398Y-134448232D01*
X250180268Y-134311843D01*
X250092914Y-134195287D01*
X249976358Y-134107933D01*
X249839969Y-134056803D01*
X249777787Y-134050048D01*
X248381519Y-134050048D01*
X248319337Y-134056803D01*
X248311942Y-134059575D01*
X248311935Y-134059577D01*
X248293864Y-134066352D01*
X248223057Y-134071535D01*
X248160540Y-134037465D01*
X247376555Y-133253480D01*
X247370701Y-133247215D01*
X247352924Y-133226837D01*
X247332666Y-133203615D01*
X247280385Y-133166871D01*
X247275091Y-133162939D01*
X247230798Y-133128209D01*
X247224823Y-133123524D01*
X247217907Y-133120401D01*
X247215621Y-133119017D01*
X247200940Y-133110643D01*
X247198580Y-133109378D01*
X247192366Y-133105010D01*
X247185287Y-133102250D01*
X247185285Y-133102249D01*
X247132830Y-133081798D01*
X247126761Y-133079247D01*
X247068532Y-133052955D01*
X247061065Y-133051571D01*
X247058510Y-133050770D01*
X247042257Y-133046141D01*
X247039677Y-133045478D01*
X247032596Y-133042718D01*
X247025065Y-133041727D01*
X247025063Y-133041726D01*
X246995444Y-133037827D01*
X246969244Y-133034378D01*
X246962746Y-133033348D01*
X246899919Y-133021704D01*
X246892339Y-133022141D01*
X246892338Y-133022141D01*
X246837713Y-133025291D01*
X246830459Y-133025500D01*
X242646204Y-133025500D01*
X242578083Y-133005498D01*
X242572143Y-133001436D01*
X242496893Y-132946763D01*
X242496892Y-132946762D01*
X242491551Y-132942882D01*
X242485523Y-132940198D01*
X242485521Y-132940197D01*
X242323118Y-132867891D01*
X242323117Y-132867891D01*
X242317087Y-132865206D01*
X242164230Y-132832715D01*
X242101332Y-132798563D01*
X241625864Y-132323095D01*
X241591838Y-132260783D01*
X241596903Y-132189968D01*
X241625862Y-132144907D01*
X242475866Y-131294904D01*
X242538176Y-131260880D01*
X242604625Y-131264407D01*
X242679667Y-131289297D01*
X242686503Y-131289997D01*
X242686506Y-131289998D01*
X242725812Y-131294025D01*
X242784128Y-131300000D01*
X243834928Y-131300000D01*
X243838174Y-131299663D01*
X243838178Y-131299663D01*
X243933836Y-131289738D01*
X243933840Y-131289737D01*
X243940694Y-131289026D01*
X243947230Y-131286845D01*
X243947232Y-131286845D01*
X244101526Y-131235368D01*
X244108474Y-131233050D01*
X244258876Y-131139978D01*
X244273249Y-131125580D01*
X244361693Y-131036982D01*
X244423976Y-131002903D01*
X244450866Y-131000000D01*
X245020897Y-131000000D01*
X245089018Y-131020002D01*
X245109915Y-131036827D01*
X245144269Y-131071121D01*
X245168996Y-131095805D01*
X245175226Y-131099645D01*
X245175227Y-131099646D01*
X245312389Y-131184194D01*
X245319561Y-131188615D01*
X245399304Y-131215064D01*
X245480910Y-131242132D01*
X245480912Y-131242132D01*
X245487438Y-131244297D01*
X245494274Y-131244997D01*
X245494277Y-131244998D01*
X245537330Y-131249409D01*
X245591899Y-131255000D01*
X246592699Y-131255000D01*
X246595945Y-131254663D01*
X246595949Y-131254663D01*
X246691607Y-131244738D01*
X246691611Y-131244737D01*
X246698465Y-131244026D01*
X246705001Y-131241845D01*
X246705003Y-131241845D01*
X246852550Y-131192619D01*
X246866245Y-131188050D01*
X247016647Y-131094978D01*
X247141604Y-130969803D01*
X247181278Y-130905440D01*
X247230574Y-130825468D01*
X247230575Y-130825466D01*
X247234414Y-130819238D01*
X247276451Y-130692500D01*
X247287931Y-130657889D01*
X247287931Y-130657887D01*
X247290096Y-130651361D01*
X247291101Y-130641558D01*
X247299722Y-130557411D01*
X247300799Y-130546900D01*
X247300799Y-129921100D01*
X247289825Y-129815334D01*
X247233849Y-129647554D01*
X247140777Y-129497152D01*
X247054190Y-129410716D01*
X247020111Y-129348434D01*
X247025114Y-129277614D01*
X247054035Y-129232525D01*
X247136433Y-129149983D01*
X247141604Y-129144803D01*
X247145445Y-129138572D01*
X247230574Y-129000468D01*
X247230575Y-129000466D01*
X247234414Y-128994238D01*
X247290096Y-128826361D01*
X247300799Y-128721900D01*
X247300799Y-128096100D01*
X247300027Y-128088658D01*
X247290537Y-127997192D01*
X247290536Y-127997188D01*
X247289825Y-127990334D01*
X247278153Y-127955347D01*
X247236167Y-127829502D01*
X247233849Y-127822554D01*
X247140777Y-127672152D01*
X247015602Y-127547195D01*
X246901516Y-127476871D01*
X246871267Y-127458225D01*
X246871265Y-127458224D01*
X246865037Y-127454385D01*
X246785294Y-127427936D01*
X246703688Y-127400868D01*
X246703686Y-127400868D01*
X246697160Y-127398703D01*
X246690324Y-127398003D01*
X246690321Y-127398002D01*
X246644056Y-127393262D01*
X246592699Y-127388000D01*
X245619188Y-127388000D01*
X245551067Y-127367998D01*
X245504574Y-127314342D01*
X245494470Y-127244068D01*
X245523964Y-127179488D01*
X245530093Y-127172905D01*
X246480520Y-126222478D01*
X246486785Y-126216624D01*
X246492835Y-126211346D01*
X246530385Y-126178589D01*
X246567129Y-126126308D01*
X246571061Y-126121014D01*
X246605791Y-126076721D01*
X246610476Y-126070746D01*
X246613599Y-126063830D01*
X246614983Y-126061544D01*
X246623357Y-126046863D01*
X246624622Y-126044503D01*
X246628990Y-126038289D01*
X246652203Y-125978751D01*
X246654759Y-125972670D01*
X246660268Y-125960471D01*
X246681045Y-125914455D01*
X246682429Y-125906988D01*
X246683230Y-125904433D01*
X246687859Y-125888180D01*
X246688522Y-125885600D01*
X246691282Y-125878519D01*
X246699622Y-125815167D01*
X246700653Y-125808660D01*
X246710912Y-125753308D01*
X246712296Y-125745842D01*
X246708709Y-125683636D01*
X246708500Y-125676382D01*
X246708500Y-124464739D01*
X246728502Y-124396618D01*
X246786282Y-124348330D01*
X246833709Y-124328685D01*
X246895136Y-124303241D01*
X247063673Y-124204756D01*
X247127879Y-124167237D01*
X247127880Y-124167236D01*
X247131582Y-124165073D01*
X247347089Y-123996094D01*
X247363434Y-123979228D01*
X247497112Y-123841282D01*
X247537669Y-123799431D01*
X247540202Y-123795983D01*
X247540206Y-123795978D01*
X247697257Y-123582178D01*
X247699795Y-123578723D01*
X247703007Y-123572808D01*
X247828418Y-123341830D01*
X247828419Y-123341828D01*
X247830468Y-123338054D01*
X247914161Y-123116567D01*
X247925751Y-123085895D01*
X247925752Y-123085891D01*
X247927269Y-123081877D01*
X247958340Y-122946212D01*
X247987449Y-122819117D01*
X247987450Y-122819113D01*
X247988407Y-122814933D01*
X247992105Y-122773503D01*
X248012531Y-122544627D01*
X248012531Y-122544625D01*
X248012751Y-122542161D01*
X248012979Y-122520462D01*
X248013167Y-122502484D01*
X248013167Y-122502483D01*
X248013193Y-122500000D01*
X248010929Y-122466793D01*
X247994859Y-122231055D01*
X247994858Y-122231049D01*
X247994567Y-122226778D01*
X247993698Y-122222579D01*
X247950427Y-122013635D01*
X247939032Y-121958612D01*
X247847617Y-121700465D01*
X247733915Y-121480172D01*
X247723978Y-121460919D01*
X247723978Y-121460918D01*
X247722013Y-121457112D01*
X247713705Y-121445290D01*
X247607281Y-121293865D01*
X247564545Y-121233057D01*
X247467902Y-121129057D01*
X247381046Y-121035588D01*
X247381043Y-121035585D01*
X247378125Y-121032445D01*
X247374810Y-121029731D01*
X247374806Y-121029728D01*
X247169523Y-120861706D01*
X247166205Y-120858990D01*
X246956426Y-120730438D01*
X246936366Y-120718145D01*
X246936365Y-120718145D01*
X246932704Y-120715901D01*
X246928768Y-120714173D01*
X246685873Y-120607549D01*
X246685869Y-120607548D01*
X246681945Y-120605825D01*
X246418566Y-120530800D01*
X246414324Y-120530196D01*
X246414318Y-120530195D01*
X246213834Y-120501662D01*
X246147443Y-120492213D01*
X246003589Y-120491460D01*
X245877877Y-120490802D01*
X245877871Y-120490802D01*
X245873591Y-120490780D01*
X245869347Y-120491339D01*
X245869343Y-120491339D01*
X245750302Y-120507011D01*
X245602078Y-120526525D01*
X245597938Y-120527658D01*
X245597936Y-120527658D01*
X245527899Y-120546818D01*
X245337928Y-120598788D01*
X245333980Y-120600472D01*
X245089982Y-120704546D01*
X245089978Y-120704548D01*
X245086030Y-120706232D01*
X245034779Y-120736905D01*
X244854725Y-120844664D01*
X244854721Y-120844667D01*
X244851043Y-120846868D01*
X244637318Y-121018094D01*
X244448808Y-121216742D01*
X244289002Y-121439136D01*
X244160857Y-121681161D01*
X244159385Y-121685184D01*
X244159383Y-121685188D01*
X244071441Y-121925500D01*
X244066743Y-121938337D01*
X244008404Y-122205907D01*
X243986917Y-122478918D01*
X244002682Y-122752320D01*
X244003507Y-122756525D01*
X244003508Y-122756533D01*
X244017891Y-122829843D01*
X244055405Y-123021053D01*
X244056792Y-123025103D01*
X244056793Y-123025108D01*
X244142293Y-123274831D01*
X244144112Y-123280144D01*
X244175137Y-123341830D01*
X244264437Y-123519384D01*
X244267160Y-123524799D01*
X244269586Y-123528328D01*
X244269589Y-123528334D01*
X244411277Y-123734490D01*
X244422274Y-123750490D01*
X244425161Y-123753663D01*
X244425162Y-123753664D01*
X244603692Y-123949867D01*
X244606582Y-123953043D01*
X244816675Y-124128707D01*
X244820316Y-124130991D01*
X245045024Y-124271951D01*
X245045028Y-124271953D01*
X245048664Y-124274234D01*
X245052574Y-124275999D01*
X245052575Y-124276000D01*
X245077471Y-124287241D01*
X245217352Y-124350400D01*
X245271205Y-124396662D01*
X245291500Y-124465236D01*
X245291500Y-125355368D01*
X245271498Y-125423489D01*
X245254595Y-125444463D01*
X243352963Y-127346095D01*
X243290651Y-127380121D01*
X243263868Y-127383000D01*
X242784128Y-127383000D01*
X242780882Y-127383337D01*
X242780878Y-127383337D01*
X242685220Y-127393262D01*
X242685216Y-127393263D01*
X242678362Y-127393974D01*
X242671826Y-127396155D01*
X242671824Y-127396155D01*
X242663375Y-127398974D01*
X242510582Y-127449950D01*
X242360180Y-127543022D01*
X242235223Y-127668197D01*
X242231383Y-127674427D01*
X242231382Y-127674428D01*
X242213640Y-127703211D01*
X242160868Y-127750704D01*
X242090796Y-127762128D01*
X242025672Y-127733854D01*
X241986173Y-127674860D01*
X241981458Y-127620650D01*
X241984420Y-127598149D01*
X241985452Y-127591632D01*
X241986205Y-127587572D01*
X241997095Y-127528814D01*
X241993603Y-127468247D01*
X241993508Y-127466608D01*
X241993299Y-127459354D01*
X241993299Y-124448739D01*
X242013301Y-124380618D01*
X242071081Y-124332330D01*
X242137343Y-124304883D01*
X242179935Y-124287241D01*
X242329304Y-124199957D01*
X242412678Y-124151237D01*
X242412679Y-124151236D01*
X242416381Y-124149073D01*
X242631888Y-123980094D01*
X242648356Y-123963101D01*
X242819485Y-123786509D01*
X242822468Y-123783431D01*
X242825001Y-123779983D01*
X242825005Y-123779978D01*
X242982056Y-123566178D01*
X242984594Y-123562723D01*
X243000489Y-123533448D01*
X243113217Y-123325830D01*
X243113218Y-123325828D01*
X243115267Y-123322054D01*
X243177945Y-123156182D01*
X243210550Y-123069895D01*
X243210551Y-123069891D01*
X243212068Y-123065877D01*
X243244846Y-122922762D01*
X243272248Y-122803117D01*
X243272249Y-122803113D01*
X243273206Y-122798933D01*
X243278969Y-122734366D01*
X243297330Y-122528627D01*
X243297330Y-122528625D01*
X243297550Y-122526161D01*
X243297992Y-122484000D01*
X243297646Y-122478918D01*
X243279658Y-122215055D01*
X243279657Y-122215049D01*
X243279366Y-122210778D01*
X243277491Y-122201721D01*
X243234035Y-121991885D01*
X243223831Y-121942612D01*
X243132416Y-121684465D01*
X243006812Y-121441112D01*
X243002979Y-121435657D01*
X242858381Y-121229916D01*
X242849344Y-121217057D01*
X242677792Y-121032445D01*
X242665845Y-121019588D01*
X242665842Y-121019585D01*
X242662924Y-121016445D01*
X242659609Y-121013731D01*
X242659605Y-121013728D01*
X242470552Y-120858990D01*
X242451004Y-120842990D01*
X242217503Y-120699901D01*
X242213567Y-120698173D01*
X241970672Y-120591549D01*
X241970668Y-120591548D01*
X241966744Y-120589825D01*
X241703365Y-120514800D01*
X241699123Y-120514196D01*
X241699117Y-120514195D01*
X241498633Y-120485662D01*
X241432242Y-120476213D01*
X241288388Y-120475460D01*
X241162676Y-120474802D01*
X241162670Y-120474802D01*
X241158390Y-120474780D01*
X241154146Y-120475339D01*
X241154142Y-120475339D01*
X241036857Y-120490780D01*
X240886877Y-120510525D01*
X240882737Y-120511658D01*
X240882735Y-120511658D01*
X240830438Y-120525965D01*
X240622727Y-120582788D01*
X240618779Y-120584472D01*
X240374781Y-120688546D01*
X240374777Y-120688548D01*
X240370829Y-120690232D01*
X240292927Y-120736855D01*
X240139524Y-120828664D01*
X240139520Y-120828667D01*
X240135842Y-120830868D01*
X239922117Y-121002094D01*
X239733607Y-121200742D01*
X239573801Y-121423136D01*
X239445656Y-121665161D01*
X239444184Y-121669184D01*
X239444182Y-121669188D01*
X239368169Y-121876902D01*
X239351542Y-121922337D01*
X239293203Y-122189907D01*
X239289870Y-122232262D01*
X239272669Y-122450815D01*
X239271716Y-122462918D01*
X239287481Y-122736320D01*
X239288306Y-122740525D01*
X239288307Y-122740533D01*
X239305829Y-122829843D01*
X239340204Y-123005053D01*
X239341591Y-123009103D01*
X239341592Y-123009108D01*
X239422549Y-123245562D01*
X239428911Y-123264144D01*
X239456016Y-123318036D01*
X239545897Y-123496745D01*
X239551959Y-123508799D01*
X239554385Y-123512328D01*
X239554388Y-123512334D01*
X239657597Y-123662502D01*
X239707073Y-123734490D01*
X239709960Y-123737663D01*
X239709961Y-123737664D01*
X239887009Y-123932238D01*
X239891381Y-123937043D01*
X239894676Y-123939798D01*
X239894677Y-123939799D01*
X239946040Y-123982745D01*
X240101474Y-124112707D01*
X240105115Y-124114991D01*
X240329823Y-124255951D01*
X240329827Y-124255953D01*
X240333463Y-124258234D01*
X240337373Y-124259999D01*
X240337374Y-124260000D01*
X240363843Y-124271951D01*
X240502151Y-124334400D01*
X240556004Y-124380662D01*
X240576299Y-124449236D01*
X240576299Y-127138340D01*
X240556297Y-127206461D01*
X240539394Y-127227435D01*
X238528234Y-129238595D01*
X238465922Y-129272621D01*
X238439139Y-129275500D01*
X217313711Y-129275500D01*
X217305141Y-129275208D01*
X217255023Y-129271791D01*
X217255019Y-129271791D01*
X217247447Y-129271275D01*
X217239970Y-129272580D01*
X217239969Y-129272580D01*
X217213491Y-129277201D01*
X217184496Y-129282262D01*
X217177978Y-129283223D01*
X217114557Y-129290898D01*
X217107456Y-129293581D01*
X217104847Y-129294222D01*
X217088537Y-129298685D01*
X217086001Y-129299450D01*
X217078515Y-129300757D01*
X217031242Y-129321509D01*
X217020004Y-129326442D01*
X217013900Y-129328933D01*
X216954143Y-129351513D01*
X216947880Y-129355817D01*
X216945514Y-129357054D01*
X216930702Y-129365299D01*
X216928448Y-129366632D01*
X216921494Y-129369685D01*
X216870797Y-129408587D01*
X216865467Y-129412459D01*
X216819079Y-129444339D01*
X216819074Y-129444344D01*
X216812818Y-129448643D01*
X216807767Y-129454313D01*
X216807765Y-129454314D01*
X216771364Y-129495170D01*
X216766383Y-129500446D01*
X211182880Y-135083949D01*
X211120568Y-135117975D01*
X211049753Y-135112910D01*
X211032219Y-135104789D01*
X210902533Y-135032162D01*
X210812474Y-134981727D01*
X210560408Y-134884210D01*
X210556083Y-134883207D01*
X210556078Y-134883206D01*
X210448349Y-134858236D01*
X210443077Y-134857014D01*
X210381232Y-134822147D01*
X210348055Y-134759378D01*
X210354081Y-134688638D01*
X210397394Y-134632385D01*
X210441603Y-134611985D01*
X210444468Y-134611508D01*
X210612758Y-134558285D01*
X210697913Y-134531354D01*
X210697915Y-134531353D01*
X210702159Y-134530011D01*
X210706170Y-134528085D01*
X210706175Y-134528083D01*
X210941778Y-134414948D01*
X210941779Y-134414947D01*
X210945797Y-134413018D01*
X211090356Y-134316427D01*
X211166812Y-134265341D01*
X211166816Y-134265338D01*
X211170520Y-134262863D01*
X211173837Y-134259892D01*
X211173841Y-134259889D01*
X211368528Y-134085512D01*
X211371844Y-134082542D01*
X211545752Y-133875654D01*
X211550818Y-133867532D01*
X211686413Y-133650111D01*
X211686414Y-133650109D01*
X211688774Y-133646325D01*
X211713505Y-133590386D01*
X211752308Y-133502614D01*
X211798057Y-133399133D01*
X211871419Y-133139008D01*
X211882557Y-133056082D01*
X211906971Y-132874324D01*
X211906972Y-132874316D01*
X211907398Y-132871142D01*
X211908757Y-132827903D01*
X211911073Y-132754222D01*
X211911073Y-132754217D01*
X211911174Y-132751000D01*
X211892086Y-132481403D01*
X211835201Y-132217185D01*
X211833026Y-132211288D01*
X211743196Y-131967796D01*
X211741655Y-131963619D01*
X211710295Y-131905498D01*
X211615428Y-131729678D01*
X211615428Y-131729677D01*
X211613315Y-131725762D01*
X211452741Y-131508362D01*
X211263137Y-131315756D01*
X211163785Y-131239933D01*
X211051827Y-131154489D01*
X211051823Y-131154487D01*
X211048286Y-131151787D01*
X210812474Y-131019727D01*
X210560408Y-130922210D01*
X210556083Y-130921207D01*
X210556078Y-130921206D01*
X210450547Y-130896746D01*
X210297117Y-130861182D01*
X210027853Y-130837861D01*
X210023418Y-130838105D01*
X210023414Y-130838105D01*
X209762433Y-130852468D01*
X209762426Y-130852469D01*
X209757990Y-130852713D01*
X209626421Y-130878883D01*
X209497283Y-130904570D01*
X209497278Y-130904571D01*
X209492911Y-130905440D01*
X209488708Y-130906916D01*
X209242114Y-130993513D01*
X209242111Y-130993514D01*
X209237906Y-130994991D01*
X209233953Y-130997044D01*
X209233947Y-130997047D01*
X209157070Y-131036982D01*
X208998063Y-131119580D01*
X208994448Y-131122163D01*
X208994442Y-131122167D01*
X208781789Y-131274131D01*
X208781785Y-131274134D01*
X208778168Y-131276719D01*
X208740083Y-131313050D01*
X208672027Y-131377973D01*
X208582607Y-131463275D01*
X208415284Y-131675524D01*
X208413052Y-131679366D01*
X208413049Y-131679371D01*
X208281773Y-131905377D01*
X208281770Y-131905384D01*
X208279535Y-131909231D01*
X208277861Y-131913364D01*
X208220695Y-132054502D01*
X208178071Y-132159735D01*
X208177000Y-132164048D01*
X208176998Y-132164053D01*
X208113988Y-132417714D01*
X208112915Y-132422035D01*
X208112461Y-132426463D01*
X208112461Y-132426465D01*
X208104026Y-132508796D01*
X208085368Y-132690899D01*
X208085543Y-132695351D01*
X208095269Y-132942882D01*
X208095979Y-132960963D01*
X208144536Y-133226837D01*
X208145945Y-133231060D01*
X208208613Y-133418898D01*
X208230071Y-133483217D01*
X208283798Y-133590741D01*
X208346876Y-133716979D01*
X208350877Y-133724987D01*
X208353406Y-133728646D01*
X208494669Y-133933037D01*
X208504543Y-133947324D01*
X208598049Y-134048478D01*
X208677482Y-134134407D01*
X208688004Y-134145790D01*
X208897598Y-134316427D01*
X208901416Y-134318726D01*
X208901418Y-134318727D01*
X209098933Y-134437641D01*
X209129145Y-134455830D01*
X209133240Y-134457564D01*
X209133242Y-134457565D01*
X209373923Y-134559480D01*
X209373930Y-134559482D01*
X209378024Y-134561216D01*
X209525898Y-134600424D01*
X209561707Y-134609919D01*
X209622426Y-134646712D01*
X209653614Y-134710491D01*
X209645370Y-134781008D01*
X209600311Y-134835873D01*
X209553996Y-134855290D01*
X209544598Y-134857159D01*
X209497282Y-134866570D01*
X209497274Y-134866572D01*
X209492911Y-134867440D01*
X209488708Y-134868916D01*
X209242114Y-134955513D01*
X209242111Y-134955514D01*
X209237906Y-134956991D01*
X209233953Y-134959044D01*
X209233947Y-134959047D01*
X209155730Y-134999678D01*
X208998063Y-135081580D01*
X208994448Y-135084163D01*
X208994442Y-135084167D01*
X208781789Y-135236131D01*
X208781785Y-135236134D01*
X208778168Y-135238719D01*
X208709416Y-135304305D01*
X208592415Y-135415919D01*
X208582607Y-135425275D01*
X208415284Y-135637524D01*
X208413052Y-135641366D01*
X208413049Y-135641371D01*
X208281773Y-135867377D01*
X208281770Y-135867384D01*
X208279535Y-135871231D01*
X208178071Y-136121735D01*
X208177000Y-136126048D01*
X208176998Y-136126053D01*
X208113988Y-136379714D01*
X208112915Y-136384035D01*
X208112461Y-136388463D01*
X208112461Y-136388465D01*
X208085822Y-136648467D01*
X208085368Y-136652899D01*
X208086819Y-136689834D01*
X208095253Y-136904474D01*
X208095979Y-136922963D01*
X208096779Y-136927343D01*
X208141879Y-137174286D01*
X208144536Y-137188837D01*
X208145945Y-137193060D01*
X208223133Y-137424420D01*
X208230071Y-137445217D01*
X208272376Y-137529882D01*
X208316352Y-137617891D01*
X208350877Y-137686987D01*
X208390389Y-137744157D01*
X208500420Y-137903358D01*
X208504543Y-137909324D01*
X208581937Y-137993048D01*
X208672946Y-138091500D01*
X208688004Y-138107790D01*
X208691458Y-138110602D01*
X208691459Y-138110603D01*
X208739830Y-138149983D01*
X208897598Y-138278427D01*
X208901416Y-138280726D01*
X208901418Y-138280727D01*
X209110205Y-138406427D01*
X209129145Y-138417830D01*
X209133240Y-138419564D01*
X209133242Y-138419565D01*
X209373923Y-138521480D01*
X209373930Y-138521482D01*
X209378024Y-138523216D01*
X209557397Y-138570776D01*
X209618116Y-138607569D01*
X209649304Y-138671348D01*
X209641060Y-138741865D01*
X209596001Y-138796730D01*
X209549685Y-138816147D01*
X209497283Y-138826570D01*
X209497278Y-138826571D01*
X209492911Y-138827440D01*
X209488708Y-138828916D01*
X209242114Y-138915513D01*
X209242111Y-138915514D01*
X209237906Y-138916991D01*
X209233953Y-138919044D01*
X209233947Y-138919047D01*
X209134083Y-138970923D01*
X208998063Y-139041580D01*
X208994448Y-139044163D01*
X208994442Y-139044167D01*
X208781789Y-139196131D01*
X208781785Y-139196134D01*
X208778168Y-139198719D01*
X208737247Y-139237756D01*
X208614763Y-139354600D01*
X208582607Y-139385275D01*
X208415284Y-139597524D01*
X208413052Y-139601366D01*
X208413049Y-139601371D01*
X208281773Y-139827377D01*
X208281770Y-139827384D01*
X208279535Y-139831231D01*
X208275795Y-139840464D01*
X208202964Y-140020278D01*
X208178071Y-140081735D01*
X208177000Y-140086048D01*
X208176998Y-140086053D01*
X208113988Y-140339714D01*
X208112915Y-140344035D01*
X208112461Y-140348463D01*
X208112461Y-140348465D01*
X208104868Y-140422575D01*
X208085368Y-140612899D01*
X185043299Y-140612899D01*
X185043299Y-136232492D01*
X193571969Y-136232492D01*
X193593451Y-136321630D01*
X193597340Y-136332925D01*
X193679886Y-136514475D01*
X193685833Y-136524817D01*
X193801225Y-136687490D01*
X193809018Y-136696518D01*
X193953088Y-136834435D01*
X193962453Y-136841831D01*
X194129998Y-136950014D01*
X194140602Y-136955510D01*
X194325569Y-137030054D01*
X194337027Y-137033448D01*
X194534185Y-137071950D01*
X194543048Y-137073027D01*
X194545757Y-137073093D01*
X194875142Y-137073093D01*
X194890381Y-137068618D01*
X194891586Y-137067228D01*
X194893257Y-137059545D01*
X194893257Y-137054978D01*
X195401257Y-137054978D01*
X195405732Y-137070217D01*
X195407122Y-137071422D01*
X195414805Y-137073093D01*
X195697089Y-137073093D01*
X195703065Y-137072808D01*
X195851751Y-137058622D01*
X195863485Y-137056363D01*
X196054856Y-137000221D01*
X196065932Y-136995791D01*
X196243235Y-136904474D01*
X196253281Y-136898024D01*
X196410114Y-136774831D01*
X196418763Y-136766594D01*
X196549469Y-136615970D01*
X196556404Y-136606246D01*
X196656267Y-136433626D01*
X196661241Y-136422762D01*
X196726664Y-136234366D01*
X196726905Y-136233377D01*
X196725437Y-136223085D01*
X196711872Y-136219093D01*
X195419372Y-136219093D01*
X195404133Y-136223568D01*
X195402928Y-136224958D01*
X195401257Y-136232641D01*
X195401257Y-137054978D01*
X194893257Y-137054978D01*
X194893257Y-136237208D01*
X194888782Y-136221969D01*
X194887392Y-136220764D01*
X194879709Y-136219093D01*
X193586855Y-136219093D01*
X193573324Y-136223066D01*
X193571969Y-136232492D01*
X185043299Y-136232492D01*
X185043299Y-135696809D01*
X193567609Y-135696809D01*
X193569077Y-135707101D01*
X193582642Y-135711093D01*
X194875142Y-135711093D01*
X194890381Y-135706618D01*
X194891586Y-135705228D01*
X194893257Y-135697545D01*
X194893257Y-135692978D01*
X195401257Y-135692978D01*
X195405732Y-135708217D01*
X195407122Y-135709422D01*
X195414805Y-135711093D01*
X196707659Y-135711093D01*
X196721190Y-135707120D01*
X196722545Y-135697694D01*
X196701063Y-135608556D01*
X196697174Y-135597261D01*
X196614628Y-135415711D01*
X196608681Y-135405369D01*
X196493289Y-135242696D01*
X196485496Y-135233668D01*
X196341426Y-135095751D01*
X196332061Y-135088355D01*
X196164516Y-134980172D01*
X196153912Y-134974676D01*
X195968945Y-134900132D01*
X195957487Y-134896738D01*
X195760329Y-134858236D01*
X195751466Y-134857159D01*
X195748757Y-134857093D01*
X195419372Y-134857093D01*
X195404133Y-134861568D01*
X195402928Y-134862958D01*
X195401257Y-134870641D01*
X195401257Y-135692978D01*
X194893257Y-135692978D01*
X194893257Y-134875208D01*
X194888782Y-134859969D01*
X194887392Y-134858764D01*
X194879709Y-134857093D01*
X194597425Y-134857093D01*
X194591449Y-134857378D01*
X194442763Y-134871564D01*
X194431029Y-134873823D01*
X194239658Y-134929965D01*
X194228582Y-134934395D01*
X194051279Y-135025712D01*
X194041233Y-135032162D01*
X193884400Y-135155355D01*
X193875751Y-135163592D01*
X193745045Y-135314216D01*
X193738110Y-135323940D01*
X193638247Y-135496560D01*
X193633273Y-135507424D01*
X193567850Y-135695820D01*
X193567609Y-135696809D01*
X185043299Y-135696809D01*
X185043299Y-134689487D01*
X199637571Y-134689487D01*
X199646400Y-134701107D01*
X199851227Y-134849923D01*
X199857907Y-134854163D01*
X200116491Y-134996321D01*
X200123626Y-134999678D01*
X200398003Y-135108312D01*
X200405494Y-135110746D01*
X200691316Y-135184132D01*
X200699087Y-135185614D01*
X200991827Y-135222596D01*
X200999717Y-135223093D01*
X201294797Y-135223093D01*
X201302687Y-135222596D01*
X201595427Y-135185614D01*
X201603198Y-135184132D01*
X201889020Y-135110746D01*
X201896511Y-135108312D01*
X202170888Y-134999678D01*
X202178023Y-134996321D01*
X202436607Y-134854163D01*
X202443287Y-134849923D01*
X202648487Y-134700837D01*
X202656910Y-134689914D01*
X202650006Y-134677053D01*
X201160067Y-133187113D01*
X201146126Y-133179501D01*
X201144291Y-133179632D01*
X201137677Y-133183883D01*
X199644184Y-134677377D01*
X199637571Y-134689487D01*
X185043299Y-134689487D01*
X185043299Y-132819051D01*
X198734745Y-132819051D01*
X198753272Y-133113529D01*
X198754265Y-133121390D01*
X198809553Y-133411221D01*
X198811524Y-133418898D01*
X198902703Y-133699517D01*
X198905618Y-133706880D01*
X199031250Y-133973863D01*
X199035062Y-133980796D01*
X199193166Y-134229928D01*
X199197820Y-134236334D01*
X199262778Y-134314854D01*
X199275297Y-134323310D01*
X199286035Y-134317104D01*
X200775237Y-132827903D01*
X200781614Y-132816224D01*
X201511665Y-132816224D01*
X201511796Y-132818059D01*
X201516047Y-132824673D01*
X203007376Y-134316001D01*
X203020638Y-134323243D01*
X203030742Y-134316055D01*
X203096694Y-134236334D01*
X203101348Y-134229928D01*
X203259452Y-133980796D01*
X203263264Y-133973863D01*
X203388896Y-133706880D01*
X203391811Y-133699517D01*
X203482990Y-133418898D01*
X203484961Y-133411221D01*
X203540249Y-133121390D01*
X203541242Y-133113529D01*
X203559769Y-132819051D01*
X203559769Y-132811135D01*
X203541242Y-132516657D01*
X203540249Y-132508796D01*
X203484961Y-132218965D01*
X203482990Y-132211288D01*
X203391811Y-131930669D01*
X203388896Y-131923306D01*
X203263264Y-131656323D01*
X203259452Y-131649390D01*
X203101348Y-131400258D01*
X203096694Y-131393852D01*
X203031736Y-131315332D01*
X203019217Y-131306876D01*
X203008479Y-131313082D01*
X201519277Y-132802283D01*
X201511665Y-132816224D01*
X200781614Y-132816224D01*
X200782849Y-132813962D01*
X200782718Y-132812127D01*
X200778467Y-132805513D01*
X199287138Y-131314185D01*
X199273876Y-131306943D01*
X199263772Y-131314131D01*
X199197820Y-131393852D01*
X199193166Y-131400258D01*
X199035062Y-131649390D01*
X199031250Y-131656323D01*
X198905618Y-131923306D01*
X198902703Y-131930669D01*
X198811524Y-132211288D01*
X198809553Y-132218965D01*
X198754265Y-132508796D01*
X198753272Y-132516657D01*
X198734745Y-132811135D01*
X198734745Y-132819051D01*
X185043299Y-132819051D01*
X185043299Y-130940272D01*
X199637604Y-130940272D01*
X199644508Y-130953133D01*
X201134447Y-132443073D01*
X201148388Y-132450685D01*
X201150223Y-132450554D01*
X201156837Y-132446303D01*
X202650330Y-130952809D01*
X202656943Y-130940699D01*
X202648114Y-130929079D01*
X202443287Y-130780263D01*
X202436607Y-130776023D01*
X202178023Y-130633865D01*
X202170888Y-130630508D01*
X201896511Y-130521874D01*
X201889020Y-130519440D01*
X201603198Y-130446054D01*
X201595427Y-130444572D01*
X201302687Y-130407590D01*
X201294797Y-130407093D01*
X200999717Y-130407093D01*
X200991827Y-130407590D01*
X200699087Y-130444572D01*
X200691316Y-130446054D01*
X200405494Y-130519440D01*
X200398003Y-130521874D01*
X200123626Y-130630508D01*
X200116491Y-130633865D01*
X199857907Y-130776023D01*
X199851227Y-130780263D01*
X199646027Y-130929349D01*
X199637604Y-130940272D01*
X185043299Y-130940272D01*
X185043299Y-125615093D01*
X198733995Y-125615093D01*
X198753024Y-125917555D01*
X198809812Y-126215247D01*
X198903463Y-126503474D01*
X198905150Y-126507060D01*
X198905152Y-126507064D01*
X198958121Y-126619629D01*
X199032499Y-126777691D01*
X199194887Y-127033573D01*
X199197406Y-127036618D01*
X199197409Y-127036622D01*
X199205758Y-127046714D01*
X199388065Y-127267085D01*
X199411099Y-127288715D01*
X199588122Y-127454950D01*
X199608986Y-127474543D01*
X199854167Y-127652677D01*
X199857636Y-127654584D01*
X199857639Y-127654586D01*
X199932370Y-127695670D01*
X200119740Y-127798678D01*
X200123409Y-127800131D01*
X200123414Y-127800133D01*
X200397848Y-127908789D01*
X200401518Y-127910242D01*
X200695057Y-127985609D01*
X200995727Y-128023593D01*
X201298787Y-128023593D01*
X201599457Y-127985609D01*
X201892996Y-127910242D01*
X201896666Y-127908789D01*
X202171100Y-127800133D01*
X202171105Y-127800131D01*
X202174774Y-127798678D01*
X202362144Y-127695670D01*
X202436875Y-127654586D01*
X202436878Y-127654584D01*
X202440347Y-127652677D01*
X202685528Y-127474543D01*
X202706393Y-127454950D01*
X202883415Y-127288715D01*
X202906449Y-127267085D01*
X203088756Y-127046714D01*
X203097105Y-127036622D01*
X203097108Y-127036618D01*
X203099627Y-127033573D01*
X203262015Y-126777691D01*
X203336393Y-126619629D01*
X203389362Y-126507064D01*
X203389364Y-126507060D01*
X203391051Y-126503474D01*
X203434879Y-126368587D01*
X207486993Y-126368587D01*
X207487293Y-126371643D01*
X207487293Y-126371650D01*
X207493030Y-126430158D01*
X207501413Y-126515651D01*
X207558577Y-126704987D01*
X207651427Y-126879614D01*
X207679475Y-126914004D01*
X207772533Y-127028105D01*
X207772536Y-127028108D01*
X207776428Y-127032880D01*
X207781175Y-127036807D01*
X207781177Y-127036809D01*
X207924068Y-127155019D01*
X207924072Y-127155021D01*
X207928818Y-127158948D01*
X208102792Y-127253016D01*
X208291725Y-127311500D01*
X208297850Y-127312144D01*
X208297851Y-127312144D01*
X208482289Y-127331529D01*
X208482291Y-127331529D01*
X208488418Y-127332173D01*
X208570917Y-127324665D01*
X208679242Y-127314807D01*
X208679245Y-127314806D01*
X208685381Y-127314248D01*
X208691287Y-127312510D01*
X208691291Y-127312509D01*
X208836418Y-127269796D01*
X208875112Y-127258408D01*
X208880570Y-127255555D01*
X208880574Y-127255553D01*
X209038663Y-127172905D01*
X209050383Y-127166778D01*
X209204518Y-127042850D01*
X209331647Y-126891344D01*
X209334614Y-126885946D01*
X209334618Y-126885941D01*
X209423960Y-126723426D01*
X209426926Y-126718031D01*
X209429339Y-126710426D01*
X209484866Y-126535382D01*
X209484866Y-126535381D01*
X209486728Y-126529512D01*
X209503993Y-126375591D01*
X209503993Y-125607775D01*
X227958035Y-125607775D01*
X227958219Y-125611286D01*
X227958219Y-125611291D01*
X227965128Y-125743124D01*
X227976519Y-125960471D01*
X227980307Y-125983351D01*
X228033626Y-126305427D01*
X228033628Y-126305437D01*
X228034203Y-126308909D01*
X228035165Y-126312307D01*
X228035165Y-126312309D01*
X228072659Y-126444811D01*
X228130367Y-126648745D01*
X228131693Y-126651994D01*
X228131696Y-126652003D01*
X228235348Y-126905994D01*
X228263813Y-126975745D01*
X228432877Y-127285830D01*
X228434896Y-127288714D01*
X228434897Y-127288715D01*
X228450851Y-127311500D01*
X228635453Y-127575139D01*
X228869015Y-127840063D01*
X228871622Y-127842427D01*
X228871628Y-127842433D01*
X229029530Y-127985609D01*
X229130652Y-128077301D01*
X229133496Y-128079352D01*
X229133502Y-128079357D01*
X229353836Y-128238266D01*
X229417104Y-128283896D01*
X229420166Y-128285621D01*
X229420167Y-128285622D01*
X229714600Y-128451527D01*
X229724799Y-128457274D01*
X229728036Y-128458648D01*
X230046663Y-128593898D01*
X230046668Y-128593900D01*
X230049903Y-128595273D01*
X230188562Y-128636609D01*
X230384994Y-128695168D01*
X230385000Y-128695169D01*
X230388363Y-128696172D01*
X230735962Y-128758715D01*
X230739468Y-128758948D01*
X230739469Y-128758948D01*
X231084855Y-128781889D01*
X231084859Y-128781889D01*
X231088366Y-128782122D01*
X231441182Y-128766100D01*
X231445754Y-128765376D01*
X231465463Y-128763825D01*
X236509167Y-128763825D01*
X236510896Y-128763728D01*
X236510908Y-128763728D01*
X236698429Y-128753244D01*
X236772776Y-128749087D01*
X236914609Y-128725098D01*
X237117543Y-128690775D01*
X237117551Y-128690773D01*
X237121011Y-128690188D01*
X237460509Y-128592838D01*
X237574362Y-128545911D01*
X237783795Y-128459589D01*
X237783802Y-128459585D01*
X237787040Y-128458251D01*
X237978366Y-128353069D01*
X238093455Y-128289799D01*
X238093459Y-128289796D01*
X238096534Y-128288106D01*
X238385134Y-128084521D01*
X238483495Y-127997192D01*
X238646614Y-127852369D01*
X238646620Y-127852363D01*
X238649241Y-127850036D01*
X238679596Y-127816324D01*
X238883206Y-127590192D01*
X238883207Y-127590191D01*
X238885565Y-127587572D01*
X238980513Y-127454950D01*
X239089107Y-127303268D01*
X239089111Y-127303261D01*
X239091159Y-127300401D01*
X239263461Y-126992102D01*
X239400324Y-126666518D01*
X239401314Y-126663155D01*
X239401317Y-126663146D01*
X239463332Y-126452434D01*
X239500041Y-126327708D01*
X239561371Y-125979893D01*
X239561636Y-125975683D01*
X239583326Y-125630928D01*
X239583326Y-125630922D01*
X239583547Y-125627410D01*
X239573708Y-125426235D01*
X239566466Y-125278159D01*
X239566465Y-125278151D01*
X239566294Y-125274652D01*
X239563717Y-125258737D01*
X239510390Y-124929490D01*
X239510389Y-124929487D01*
X239509827Y-124926015D01*
X239508229Y-124920289D01*
X239415797Y-124589237D01*
X239414850Y-124585845D01*
X239348699Y-124422114D01*
X239283866Y-124261646D01*
X239283864Y-124261642D01*
X239282547Y-124258382D01*
X239257750Y-124212520D01*
X239203781Y-124112707D01*
X239114566Y-123947708D01*
X238913001Y-123657694D01*
X238904565Y-123648057D01*
X238682684Y-123394605D01*
X238680365Y-123391956D01*
X238419557Y-123153806D01*
X238133828Y-122946212D01*
X237826740Y-122771761D01*
X237609236Y-122678539D01*
X237505352Y-122634014D01*
X237505348Y-122634013D01*
X237502120Y-122632629D01*
X237376652Y-122594748D01*
X237167390Y-122531568D01*
X237167385Y-122531567D01*
X237164014Y-122530549D01*
X236964799Y-122493986D01*
X236820108Y-122467430D01*
X236820104Y-122467429D01*
X236816636Y-122466793D01*
X236626161Y-122453473D01*
X236533275Y-122446978D01*
X236533271Y-122446978D01*
X236531085Y-122446825D01*
X231244621Y-122446825D01*
X231236270Y-122446548D01*
X231171624Y-122442254D01*
X231171620Y-122442254D01*
X231168113Y-122442021D01*
X231068425Y-122446548D01*
X231065188Y-122446695D01*
X231059472Y-122446825D01*
X231045966Y-122446825D01*
X231044238Y-122446922D01*
X231044224Y-122446922D01*
X230975776Y-122450749D01*
X230974459Y-122450815D01*
X230915350Y-122453499D01*
X230815297Y-122458043D01*
X230811829Y-122458592D01*
X230811822Y-122458593D01*
X230805222Y-122459638D01*
X230792550Y-122460992D01*
X230785883Y-122461365D01*
X230785868Y-122461367D01*
X230782357Y-122461563D01*
X230778899Y-122462148D01*
X230778889Y-122462149D01*
X230625107Y-122488159D01*
X230623806Y-122488372D01*
X230550392Y-122500000D01*
X230466465Y-122513293D01*
X230463083Y-122514224D01*
X230463076Y-122514226D01*
X230456633Y-122516001D01*
X230444189Y-122518759D01*
X230440802Y-122519332D01*
X230434122Y-122520462D01*
X230280769Y-122564435D01*
X230279605Y-122564762D01*
X230129365Y-122606144D01*
X230129357Y-122606147D01*
X230125965Y-122607081D01*
X230122700Y-122608387D01*
X230122688Y-122608391D01*
X230116486Y-122610872D01*
X230104423Y-122615002D01*
X230094624Y-122617812D01*
X230091377Y-122619150D01*
X230091375Y-122619151D01*
X230064205Y-122630350D01*
X229947228Y-122678565D01*
X229946068Y-122679035D01*
X229801319Y-122736930D01*
X229801309Y-122736935D01*
X229798043Y-122738241D01*
X229791829Y-122741573D01*
X229789040Y-122743068D01*
X229777527Y-122748510D01*
X229771341Y-122751060D01*
X229771338Y-122751062D01*
X229768093Y-122752399D01*
X229642162Y-122821630D01*
X229628367Y-122829214D01*
X229627244Y-122829823D01*
X229486784Y-122905137D01*
X229483890Y-122907133D01*
X229483876Y-122907142D01*
X229478382Y-122910932D01*
X229467541Y-122917628D01*
X229458599Y-122922544D01*
X229328289Y-123014467D01*
X229327300Y-123015157D01*
X229278972Y-123048496D01*
X229196069Y-123105688D01*
X229193416Y-123107994D01*
X229193415Y-123107995D01*
X229188366Y-123112384D01*
X229178343Y-123120243D01*
X229169999Y-123126129D01*
X229079370Y-123206593D01*
X229050835Y-123231927D01*
X229049859Y-123232785D01*
X228980034Y-123293483D01*
X228971060Y-123302457D01*
X228965620Y-123307585D01*
X228905892Y-123360614D01*
X228903541Y-123363225D01*
X228844706Y-123428568D01*
X228840165Y-123433353D01*
X228825150Y-123448368D01*
X228823982Y-123449674D01*
X228823970Y-123449687D01*
X228698277Y-123590267D01*
X228649171Y-123645189D01*
X228444580Y-123933076D01*
X228273355Y-124241974D01*
X228137630Y-124568034D01*
X228039096Y-124907190D01*
X228038498Y-124910655D01*
X228038497Y-124910657D01*
X227996208Y-125155485D01*
X227978981Y-125255217D01*
X227958035Y-125607775D01*
X209503993Y-125607775D01*
X209503993Y-124869049D01*
X209503307Y-124862045D01*
X209490406Y-124730485D01*
X209489573Y-124721985D01*
X209432409Y-124532649D01*
X209339559Y-124358022D01*
X209269202Y-124271756D01*
X209218453Y-124209531D01*
X209218450Y-124209528D01*
X209214558Y-124204756D01*
X209204715Y-124196613D01*
X209066918Y-124082617D01*
X209066914Y-124082615D01*
X209062168Y-124078688D01*
X208888194Y-123984620D01*
X208699261Y-123926136D01*
X208693136Y-123925492D01*
X208693135Y-123925492D01*
X208508697Y-123906107D01*
X208508695Y-123906107D01*
X208502568Y-123905463D01*
X208437969Y-123911342D01*
X208311744Y-123922829D01*
X208311741Y-123922830D01*
X208305605Y-123923388D01*
X208299699Y-123925126D01*
X208299695Y-123925127D01*
X208204844Y-123953043D01*
X208115874Y-123979228D01*
X208110416Y-123982081D01*
X208110412Y-123982083D01*
X208019640Y-124029538D01*
X207940603Y-124070858D01*
X207786468Y-124194786D01*
X207659339Y-124346292D01*
X207656372Y-124351690D01*
X207656368Y-124351695D01*
X207593949Y-124465236D01*
X207564060Y-124519605D01*
X207562199Y-124525472D01*
X207562198Y-124525474D01*
X207549725Y-124564793D01*
X207504258Y-124708124D01*
X207486993Y-124862045D01*
X207486993Y-126368587D01*
X203434879Y-126368587D01*
X203484702Y-126215247D01*
X203541490Y-125917555D01*
X203560519Y-125615093D01*
X203541490Y-125312631D01*
X203484702Y-125014939D01*
X203391051Y-124726712D01*
X203317881Y-124571217D01*
X203306975Y-124501064D01*
X203335728Y-124436151D01*
X203342794Y-124428475D01*
X204091864Y-123679405D01*
X204154176Y-123645379D01*
X204180959Y-123642500D01*
X205143319Y-123642500D01*
X205211440Y-123662502D01*
X205232335Y-123679325D01*
X205336496Y-123783305D01*
X205342726Y-123787145D01*
X205342727Y-123787146D01*
X205479889Y-123871694D01*
X205487061Y-123876115D01*
X205566804Y-123902564D01*
X205648410Y-123929632D01*
X205648412Y-123929632D01*
X205654938Y-123931797D01*
X205661774Y-123932497D01*
X205661777Y-123932498D01*
X205704830Y-123936909D01*
X205759399Y-123942500D01*
X206810199Y-123942500D01*
X206813445Y-123942163D01*
X206813449Y-123942163D01*
X206909107Y-123932238D01*
X206909111Y-123932237D01*
X206915965Y-123931526D01*
X206922501Y-123929345D01*
X206922503Y-123929345D01*
X207054605Y-123885272D01*
X207083745Y-123875550D01*
X207234147Y-123782478D01*
X207359104Y-123657303D01*
X207412785Y-123570217D01*
X207448074Y-123512968D01*
X207448075Y-123512966D01*
X207451914Y-123506738D01*
X207500381Y-123360614D01*
X207505431Y-123345389D01*
X207505431Y-123345387D01*
X207507596Y-123338861D01*
X207509386Y-123321397D01*
X207517971Y-123237598D01*
X207518299Y-123234400D01*
X207518299Y-122633600D01*
X207516661Y-122617812D01*
X207508037Y-122534692D01*
X207508036Y-122534688D01*
X207507325Y-122527834D01*
X207504866Y-122520462D01*
X207453667Y-122367002D01*
X207451349Y-122360054D01*
X207358277Y-122209652D01*
X207233102Y-122084695D01*
X207228564Y-122081898D01*
X207187975Y-122024647D01*
X207184745Y-121953724D01*
X207220371Y-121892313D01*
X207228867Y-121884938D01*
X207239006Y-121876902D01*
X207353538Y-121762171D01*
X207362550Y-121750760D01*
X207447615Y-121612757D01*
X207453762Y-121599576D01*
X207504937Y-121445290D01*
X207507804Y-121431914D01*
X207517471Y-121337562D01*
X207517799Y-121331146D01*
X207517799Y-121306115D01*
X207513324Y-121290876D01*
X207511934Y-121289671D01*
X207504251Y-121288000D01*
X205069915Y-121288000D01*
X205054676Y-121292475D01*
X205053471Y-121293865D01*
X205051800Y-121301548D01*
X205051800Y-121331095D01*
X205052137Y-121337614D01*
X205062056Y-121433206D01*
X205064948Y-121446600D01*
X205116387Y-121600784D01*
X205122560Y-121613962D01*
X205207862Y-121751807D01*
X205216898Y-121763208D01*
X205331627Y-121877738D01*
X205340561Y-121884794D01*
X205381622Y-121942712D01*
X205384852Y-122013635D01*
X205349225Y-122075046D01*
X205341392Y-122081846D01*
X205335451Y-122085522D01*
X205330278Y-122090704D01*
X205232634Y-122188518D01*
X205170351Y-122222597D01*
X205143461Y-122225500D01*
X203864226Y-122225500D01*
X203855657Y-122225208D01*
X203805524Y-122221790D01*
X203805520Y-122221790D01*
X203797947Y-122221274D01*
X203734980Y-122232264D01*
X203728468Y-122233224D01*
X203665057Y-122240898D01*
X203657956Y-122243581D01*
X203655347Y-122244222D01*
X203639027Y-122248687D01*
X203636494Y-122249452D01*
X203629016Y-122250757D01*
X203570489Y-122276448D01*
X203564407Y-122278930D01*
X203544052Y-122286622D01*
X203511748Y-122298828D01*
X203511746Y-122298829D01*
X203504643Y-122301513D01*
X203498384Y-122305814D01*
X203496019Y-122307051D01*
X203481247Y-122315273D01*
X203478955Y-122316628D01*
X203471994Y-122319684D01*
X203465967Y-122324309D01*
X203465963Y-122324311D01*
X203421286Y-122358593D01*
X203415961Y-122362462D01*
X203363318Y-122398643D01*
X203358266Y-122404313D01*
X203358265Y-122404314D01*
X203321872Y-122445161D01*
X203316891Y-122450437D01*
X202345586Y-123421742D01*
X202283274Y-123455768D01*
X202212459Y-123450703D01*
X202195789Y-123443061D01*
X202178241Y-123433413D01*
X202178228Y-123433407D01*
X202174774Y-123431508D01*
X201928588Y-123334036D01*
X201896666Y-123321397D01*
X201896665Y-123321397D01*
X201892996Y-123319944D01*
X201599457Y-123244577D01*
X201298787Y-123206593D01*
X200995727Y-123206593D01*
X200695057Y-123244577D01*
X200401518Y-123319944D01*
X200397849Y-123321397D01*
X200397848Y-123321397D01*
X200123414Y-123430053D01*
X200123412Y-123430054D01*
X200119740Y-123431508D01*
X200116275Y-123433413D01*
X200116271Y-123433415D01*
X199858813Y-123574955D01*
X199854167Y-123577509D01*
X199739831Y-123660579D01*
X199616079Y-123750490D01*
X199608986Y-123755643D01*
X199606100Y-123758354D01*
X199606099Y-123758354D01*
X199579529Y-123783305D01*
X199388065Y-123963101D01*
X199301281Y-124068005D01*
X199223171Y-124162424D01*
X199194887Y-124196613D01*
X199032499Y-124452495D01*
X198903463Y-124726712D01*
X198809812Y-125014939D01*
X198753024Y-125312631D01*
X198733995Y-125615093D01*
X185043299Y-125615093D01*
X185043299Y-122732492D01*
X193571969Y-122732492D01*
X193593451Y-122821630D01*
X193597340Y-122832925D01*
X193679886Y-123014475D01*
X193685833Y-123024817D01*
X193801225Y-123187490D01*
X193809018Y-123196518D01*
X193953088Y-123334435D01*
X193962453Y-123341831D01*
X194129998Y-123450014D01*
X194140602Y-123455510D01*
X194325569Y-123530054D01*
X194337027Y-123533448D01*
X194534185Y-123571950D01*
X194543048Y-123573027D01*
X194545757Y-123573093D01*
X194875142Y-123573093D01*
X194890381Y-123568618D01*
X194891586Y-123567228D01*
X194893257Y-123559545D01*
X194893257Y-123554978D01*
X195401257Y-123554978D01*
X195405732Y-123570217D01*
X195407122Y-123571422D01*
X195414805Y-123573093D01*
X195697089Y-123573093D01*
X195703065Y-123572808D01*
X195851751Y-123558622D01*
X195863485Y-123556363D01*
X196054856Y-123500221D01*
X196065932Y-123495791D01*
X196243235Y-123404474D01*
X196253281Y-123398024D01*
X196410114Y-123274831D01*
X196418763Y-123266594D01*
X196549469Y-123115970D01*
X196556404Y-123106246D01*
X196656267Y-122933626D01*
X196661241Y-122922762D01*
X196726664Y-122734366D01*
X196726905Y-122733377D01*
X196725437Y-122723085D01*
X196711872Y-122719093D01*
X195419372Y-122719093D01*
X195404133Y-122723568D01*
X195402928Y-122724958D01*
X195401257Y-122732641D01*
X195401257Y-123554978D01*
X194893257Y-123554978D01*
X194893257Y-122737208D01*
X194888782Y-122721969D01*
X194887392Y-122720764D01*
X194879709Y-122719093D01*
X193586855Y-122719093D01*
X193573324Y-122723066D01*
X193571969Y-122732492D01*
X185043299Y-122732492D01*
X185043299Y-122196809D01*
X193567609Y-122196809D01*
X193569077Y-122207101D01*
X193582642Y-122211093D01*
X194875142Y-122211093D01*
X194890381Y-122206618D01*
X194891586Y-122205228D01*
X194893257Y-122197545D01*
X194893257Y-122192978D01*
X195401257Y-122192978D01*
X195405732Y-122208217D01*
X195407122Y-122209422D01*
X195414805Y-122211093D01*
X196707659Y-122211093D01*
X196721190Y-122207120D01*
X196722545Y-122197694D01*
X196701063Y-122108556D01*
X196697174Y-122097261D01*
X196614628Y-121915711D01*
X196608681Y-121905369D01*
X196493289Y-121742696D01*
X196485496Y-121733668D01*
X196341426Y-121595751D01*
X196332061Y-121588355D01*
X196164516Y-121480172D01*
X196153912Y-121474676D01*
X195968945Y-121400132D01*
X195957487Y-121396738D01*
X195760329Y-121358236D01*
X195751466Y-121357159D01*
X195748757Y-121357093D01*
X195419372Y-121357093D01*
X195404133Y-121361568D01*
X195402928Y-121362958D01*
X195401257Y-121370641D01*
X195401257Y-122192978D01*
X194893257Y-122192978D01*
X194893257Y-121375208D01*
X194888782Y-121359969D01*
X194887392Y-121358764D01*
X194879709Y-121357093D01*
X194597425Y-121357093D01*
X194591449Y-121357378D01*
X194442763Y-121371564D01*
X194431029Y-121373823D01*
X194239658Y-121429965D01*
X194228582Y-121434395D01*
X194051279Y-121525712D01*
X194041233Y-121532162D01*
X193884400Y-121655355D01*
X193875751Y-121663592D01*
X193745045Y-121814216D01*
X193738110Y-121823940D01*
X193638247Y-121996560D01*
X193633273Y-122007424D01*
X193567850Y-122195820D01*
X193567609Y-122196809D01*
X185043299Y-122196809D01*
X185043299Y-120761885D01*
X205051799Y-120761885D01*
X205056274Y-120777124D01*
X205057664Y-120778329D01*
X205065347Y-120780000D01*
X206012684Y-120780000D01*
X206027923Y-120775525D01*
X206029128Y-120774135D01*
X206030799Y-120766452D01*
X206030799Y-120761885D01*
X206538799Y-120761885D01*
X206543274Y-120777124D01*
X206544664Y-120778329D01*
X206552347Y-120780000D01*
X207499683Y-120780000D01*
X207514922Y-120775525D01*
X207516127Y-120774135D01*
X207517798Y-120766452D01*
X207517798Y-120736905D01*
X207517461Y-120730386D01*
X207507542Y-120634794D01*
X207504650Y-120621400D01*
X207453211Y-120467216D01*
X207447038Y-120454038D01*
X207361736Y-120316193D01*
X207352700Y-120304792D01*
X207237970Y-120190261D01*
X207226559Y-120181249D01*
X207088556Y-120096184D01*
X207075375Y-120090037D01*
X206921089Y-120038862D01*
X206907713Y-120035995D01*
X206813361Y-120026328D01*
X206806944Y-120026000D01*
X206556914Y-120026000D01*
X206541675Y-120030475D01*
X206540470Y-120031865D01*
X206538799Y-120039548D01*
X206538799Y-120761885D01*
X206030799Y-120761885D01*
X206030799Y-120044116D01*
X206026324Y-120028877D01*
X206024934Y-120027672D01*
X206017251Y-120026001D01*
X205762704Y-120026001D01*
X205756185Y-120026338D01*
X205660593Y-120036257D01*
X205647199Y-120039149D01*
X205493015Y-120090588D01*
X205479837Y-120096761D01*
X205341992Y-120182063D01*
X205330591Y-120191099D01*
X205216060Y-120305829D01*
X205207048Y-120317240D01*
X205121983Y-120455243D01*
X205115836Y-120468424D01*
X205064661Y-120622710D01*
X205061794Y-120636086D01*
X205052127Y-120730438D01*
X205051799Y-120736855D01*
X205051799Y-120761885D01*
X185043299Y-120761885D01*
X185043299Y-118118500D01*
X185063301Y-118050379D01*
X185116957Y-118003886D01*
X185169299Y-117992500D01*
X267150299Y-117992500D01*
X267218420Y-118012502D01*
G37*
%TD.AperFunction*%
%TD*%
M02*
