%TF.GenerationSoftware,KiCad,Pcbnew,7.0.2*%
%TF.CreationDate,2023-07-03T14:04:12+02:00*%
%TF.ProjectId,Power Distribution,506f7765-7220-4446-9973-747269627574,V0*%
%TF.SameCoordinates,Original*%
%TF.FileFunction,Copper,L1,Top*%
%TF.FilePolarity,Positive*%
%FSLAX46Y46*%
G04 Gerber Fmt 4.6, Leading zero omitted, Abs format (unit mm)*
G04 Created by KiCad (PCBNEW 7.0.2) date 2023-07-03 14:04:12*
%MOMM*%
%LPD*%
G01*
G04 APERTURE LIST*
G04 Aperture macros list*
%AMRoundRect*
0 Rectangle with rounded corners*
0 $1 Rounding radius*
0 $2 $3 $4 $5 $6 $7 $8 $9 X,Y pos of 4 corners*
0 Add a 4 corners polygon primitive as box body*
4,1,4,$2,$3,$4,$5,$6,$7,$8,$9,$2,$3,0*
0 Add four circle primitives for the rounded corners*
1,1,$1+$1,$2,$3*
1,1,$1+$1,$4,$5*
1,1,$1+$1,$6,$7*
1,1,$1+$1,$8,$9*
0 Add four rect primitives between the rounded corners*
20,1,$1+$1,$2,$3,$4,$5,0*
20,1,$1+$1,$4,$5,$6,$7,0*
20,1,$1+$1,$6,$7,$8,$9,0*
20,1,$1+$1,$8,$9,$2,$3,0*%
G04 Aperture macros list end*
%TA.AperFunction,ComponentPad*%
%ADD10R,1.700000X1.700000*%
%TD*%
%TA.AperFunction,ComponentPad*%
%ADD11O,1.700000X1.700000*%
%TD*%
%TA.AperFunction,SMDPad,CuDef*%
%ADD12RoundRect,0.250000X0.450000X-0.262500X0.450000X0.262500X-0.450000X0.262500X-0.450000X-0.262500X0*%
%TD*%
%TA.AperFunction,SMDPad,CuDef*%
%ADD13RoundRect,0.135000X0.185000X-0.135000X0.185000X0.135000X-0.185000X0.135000X-0.185000X-0.135000X0*%
%TD*%
%TA.AperFunction,ComponentPad*%
%ADD14C,1.000000*%
%TD*%
%TA.AperFunction,SMDPad,CuDef*%
%ADD15RoundRect,0.140000X0.170000X-0.140000X0.170000X0.140000X-0.170000X0.140000X-0.170000X-0.140000X0*%
%TD*%
%TA.AperFunction,ComponentPad*%
%ADD16O,1.800000X4.000000*%
%TD*%
%TA.AperFunction,ComponentPad*%
%ADD17O,4.000000X1.800000*%
%TD*%
%TA.AperFunction,SMDPad,CuDef*%
%ADD18R,3.300000X2.700000*%
%TD*%
%TA.AperFunction,SMDPad,CuDef*%
%ADD19RoundRect,0.135000X-0.135000X-0.185000X0.135000X-0.185000X0.135000X0.185000X-0.135000X0.185000X0*%
%TD*%
%TA.AperFunction,SMDPad,CuDef*%
%ADD20RoundRect,0.135000X-0.185000X0.135000X-0.185000X-0.135000X0.185000X-0.135000X0.185000X0.135000X0*%
%TD*%
%TA.AperFunction,ComponentPad*%
%ADD21C,3.800000*%
%TD*%
%TA.AperFunction,ComponentPad*%
%ADD22O,2.200000X1.200000*%
%TD*%
%TA.AperFunction,SMDPad,CuDef*%
%ADD23RoundRect,0.150000X-0.587500X-0.150000X0.587500X-0.150000X0.587500X0.150000X-0.587500X0.150000X0*%
%TD*%
%TA.AperFunction,SMDPad,CuDef*%
%ADD24RoundRect,0.250000X-0.450000X0.262500X-0.450000X-0.262500X0.450000X-0.262500X0.450000X0.262500X0*%
%TD*%
%TA.AperFunction,SMDPad,CuDef*%
%ADD25RoundRect,0.250000X0.325000X0.650000X-0.325000X0.650000X-0.325000X-0.650000X0.325000X-0.650000X0*%
%TD*%
%TA.AperFunction,ComponentPad*%
%ADD26O,1.000000X2.400000*%
%TD*%
%TA.AperFunction,ComponentPad*%
%ADD27C,1.800000*%
%TD*%
%TA.AperFunction,SMDPad,CuDef*%
%ADD28RoundRect,0.140000X-0.140000X-0.170000X0.140000X-0.170000X0.140000X0.170000X-0.140000X0.170000X0*%
%TD*%
%TA.AperFunction,SMDPad,CuDef*%
%ADD29RoundRect,0.250000X-0.350000X0.850000X-0.350000X-0.850000X0.350000X-0.850000X0.350000X0.850000X0*%
%TD*%
%TA.AperFunction,SMDPad,CuDef*%
%ADD30RoundRect,0.250000X-1.125000X1.275000X-1.125000X-1.275000X1.125000X-1.275000X1.125000X1.275000X0*%
%TD*%
%TA.AperFunction,SMDPad,CuDef*%
%ADD31RoundRect,0.249997X-2.650003X2.950003X-2.650003X-2.950003X2.650003X-2.950003X2.650003X2.950003X0*%
%TD*%
%TA.AperFunction,ViaPad*%
%ADD32C,0.800000*%
%TD*%
%TA.AperFunction,Conductor*%
%ADD33C,3.600000*%
%TD*%
%TA.AperFunction,Conductor*%
%ADD34C,2.800000*%
%TD*%
%TA.AperFunction,Conductor*%
%ADD35C,0.400000*%
%TD*%
G04 APERTURE END LIST*
D10*
%TO.P,J8,1,Pin_1*%
%TO.N,GND*%
X212250000Y-116750000D03*
D11*
%TO.P,J8,2,Pin_2*%
%TO.N,/AC{slash}DC output*%
X209710000Y-116750000D03*
%TD*%
D12*
%TO.P,R4,1*%
%TO.N,Net-(Q2-G)*%
X225000000Y-122912500D03*
%TO.P,R4,2*%
%TO.N,Net-(Q1-D)*%
X225000000Y-121087500D03*
%TD*%
D13*
%TO.P,R2,1*%
%TO.N,/Switch*%
X217510000Y-116585045D03*
%TO.P,R2,2*%
%TO.N,Net-(Q1-G)*%
X217510000Y-115565045D03*
%TD*%
D14*
%TO.P,TP1,1,1*%
%TO.N,/Switch*%
X242500000Y-104000000D03*
%TD*%
D15*
%TO.P,C2,1*%
%TO.N,/Battery output*%
X206666547Y-128816180D03*
%TO.P,C2,2*%
%TO.N,GND*%
X206666547Y-127856180D03*
%TD*%
D16*
%TO.P,J3,1*%
%TO.N,/Vout*%
X254866000Y-108266000D03*
%TO.P,J3,2*%
%TO.N,GND*%
X260866000Y-108266000D03*
D17*
%TO.P,J3,3*%
%TO.N,unconnected-(J3-Pad3)*%
X257866000Y-103562000D03*
%TD*%
D16*
%TO.P,J5,1*%
%TO.N,/Vout*%
X254866000Y-136266000D03*
%TO.P,J5,2*%
%TO.N,GND*%
X260866000Y-136266000D03*
D17*
%TO.P,J5,3*%
%TO.N,unconnected-(J5-Pad3)*%
X257866000Y-131562000D03*
%TD*%
D18*
%TO.P,D1,1,K*%
%TO.N,/Supply*%
X238740250Y-115624818D03*
%TO.P,D1,2,A*%
%TO.N,/Mains*%
X238740250Y-108252818D03*
%TD*%
D19*
%TO.P,R1,1*%
%TO.N,/Supply*%
X244288077Y-109781977D03*
%TO.P,R1,2*%
%TO.N,Net-(Q2-G)*%
X245308077Y-109781977D03*
%TD*%
D20*
%TO.P,R5,1*%
%TO.N,Net-(Q1-G)*%
X217256575Y-120118774D03*
%TO.P,R5,2*%
%TO.N,GND*%
X217256575Y-121138774D03*
%TD*%
D21*
%TO.P,J1,1,V-*%
%TO.N,GND*%
X202489656Y-115439131D03*
%TO.P,J1,2,V+*%
%TO.N,/AC{slash}DC output*%
X202489656Y-108239131D03*
D22*
%TO.P,J1,3*%
%TO.N,GND*%
X196489656Y-105089131D03*
%TO.P,J1,4*%
X196489656Y-118589131D03*
%TD*%
D23*
%TO.P,Q3,1,G*%
%TO.N,Net-(Q1-G)*%
X222250000Y-115575045D03*
%TO.P,Q3,2,S*%
%TO.N,GND*%
X222250000Y-117475045D03*
%TO.P,Q3,3,D*%
%TO.N,Net-(Q3-D)*%
X224125000Y-116525045D03*
%TD*%
D24*
%TO.P,R6,1*%
%TO.N,Net-(Q3-D)*%
X227520259Y-116544387D03*
%TO.P,R6,2*%
%TO.N,Net-(J7-Pin_2)*%
X227520259Y-118369387D03*
%TD*%
D25*
%TO.P,C4,1*%
%TO.N,/Vout*%
X253225000Y-129000000D03*
%TO.P,C4,2*%
%TO.N,GND*%
X250275000Y-129000000D03*
%TD*%
D14*
%TO.P,TP3,1,1*%
%TO.N,/Vout*%
X251000000Y-104000000D03*
%TD*%
D26*
%TO.P,F1,1*%
%TO.N,/AC{slash}DC output*%
X209624001Y-108250000D03*
%TO.P,F1,2*%
%TO.N,/Mains*%
X232250001Y-108250000D03*
%TD*%
D18*
%TO.P,D2,1,K*%
%TO.N,/Supply*%
X238740250Y-122957784D03*
%TO.P,D2,2,A*%
%TO.N,/Battery*%
X238740250Y-130329784D03*
%TD*%
D16*
%TO.P,J4,1*%
%TO.N,/Vout*%
X254866000Y-122516000D03*
%TO.P,J4,2*%
%TO.N,GND*%
X260866000Y-122516000D03*
D17*
%TO.P,J4,3*%
%TO.N,unconnected-(J4-Pad3)*%
X257866000Y-117812000D03*
%TD*%
D15*
%TO.P,C1,1*%
%TO.N,/AC{slash}DC output*%
X206841547Y-106816904D03*
%TO.P,C1,2*%
%TO.N,GND*%
X206841547Y-105856904D03*
%TD*%
D27*
%TO.P,J7,1,Pin_1*%
%TO.N,/Vout*%
X230042746Y-139683984D03*
%TO.P,J7,2,Pin_2*%
%TO.N,Net-(J7-Pin_2)*%
X227540746Y-139683984D03*
%TD*%
D14*
%TO.P,TP2,1,1*%
%TO.N,/Supply*%
X246750000Y-104000000D03*
%TD*%
D21*
%TO.P,J2,1,V-*%
%TO.N,GND*%
X202485688Y-137490965D03*
%TO.P,J2,2,V+*%
%TO.N,/Battery output*%
X202485688Y-130290965D03*
D22*
%TO.P,J2,3*%
%TO.N,GND*%
X196485688Y-127140965D03*
%TO.P,J2,4*%
X196485688Y-140640965D03*
%TD*%
D10*
%TO.P,J9,1,Pin_1*%
%TO.N,GND*%
X212250000Y-122000000D03*
D11*
%TO.P,J9,2,Pin_2*%
%TO.N,/Battery output*%
X209710000Y-122000000D03*
%TD*%
D20*
%TO.P,R3,1*%
%TO.N,Net-(Q1-G)*%
X219500000Y-115565045D03*
%TO.P,R3,2*%
%TO.N,GND*%
X219500000Y-116585045D03*
%TD*%
D23*
%TO.P,Q1,1,G*%
%TO.N,Net-(Q1-G)*%
X220125000Y-120125045D03*
%TO.P,Q1,2,S*%
%TO.N,GND*%
X220125000Y-122025045D03*
%TO.P,Q1,3,D*%
%TO.N,Net-(Q1-D)*%
X222000000Y-121075045D03*
%TD*%
D26*
%TO.P,F2,1*%
%TO.N,/Battery output*%
X209624000Y-130324463D03*
%TO.P,F2,2*%
%TO.N,/Battery*%
X232250000Y-130324463D03*
%TD*%
D28*
%TO.P,C3,1*%
%TO.N,/Supply*%
X244298077Y-111281977D03*
%TO.P,C3,2*%
%TO.N,Net-(Q2-G)*%
X245258077Y-111281977D03*
%TD*%
D10*
%TO.P,J6,1,Pin_1*%
%TO.N,/Battery*%
X218000000Y-139500000D03*
D11*
%TO.P,J6,2,Pin_2*%
%TO.N,/Switch*%
X215460000Y-139500000D03*
%TO.P,J6,3,Pin_3*%
%TO.N,/Mains*%
X212920000Y-139500000D03*
%TD*%
D29*
%TO.P,Q2,1,G*%
%TO.N,Net-(Q2-G)*%
X248859852Y-115528981D03*
D30*
%TO.P,Q2,2,D*%
%TO.N,/Vout*%
X248104852Y-120153981D03*
X245054852Y-120153981D03*
D31*
X246579852Y-121828981D03*
D30*
X248104852Y-123503981D03*
X245054852Y-123503981D03*
D29*
%TO.P,Q2,3,S*%
%TO.N,/Supply*%
X244299852Y-115528981D03*
%TD*%
D32*
%TO.N,GND*%
X223449083Y-118889288D03*
%TO.N,Net-(Q2-G)*%
X226627458Y-122927728D03*
X247000000Y-111250000D03*
%TD*%
D33*
%TO.N,/AC{slash}DC output*%
X209613132Y-108239131D02*
X209624001Y-108250000D01*
X202489656Y-108239131D02*
X209613132Y-108239131D01*
D34*
X209710000Y-116750000D02*
X209710000Y-108335999D01*
X209710000Y-108335999D02*
X209624001Y-108250000D01*
D35*
%TO.N,/Supply*%
X244298077Y-115527206D02*
X244299852Y-115528981D01*
D33*
X244299852Y-115528981D02*
X238836087Y-115528981D01*
D35*
X244298077Y-111281977D02*
X244298077Y-115527206D01*
D33*
X238740250Y-115624818D02*
X238740250Y-122957784D01*
D35*
X244288077Y-106461923D02*
X244288077Y-109781977D01*
X246750000Y-104000000D02*
X244288077Y-106461923D01*
X244298077Y-111281977D02*
X244298077Y-109791977D01*
D33*
X238836087Y-115528981D02*
X238740250Y-115624818D01*
D35*
X244298077Y-109791977D02*
X244288077Y-109781977D01*
D33*
%TO.N,/Vout*%
X253816000Y-109316000D02*
X253816000Y-121874494D01*
X254866000Y-108266000D02*
X253816000Y-109316000D01*
D35*
X236066016Y-139683984D02*
X230042746Y-139683984D01*
X245054852Y-130695148D02*
X236066016Y-139683984D01*
D33*
X253816000Y-135216000D02*
X254866000Y-136266000D01*
X247266871Y-122516000D02*
X246579852Y-121828981D01*
D35*
X245054852Y-123503981D02*
X245054852Y-130695148D01*
D33*
X246579852Y-121828981D02*
X253770487Y-121828981D01*
D35*
X251000000Y-104000000D02*
X254866000Y-107866000D01*
D33*
X253816000Y-121874494D02*
X253816000Y-135216000D01*
D35*
X254866000Y-107866000D02*
X254866000Y-108266000D01*
D33*
X253770487Y-121828981D02*
X253816000Y-121874494D01*
%TO.N,/Battery output*%
X202485688Y-130290965D02*
X209590502Y-130290965D01*
D34*
X209710000Y-122000000D02*
X209710000Y-130238463D01*
X209710000Y-130238463D02*
X209624000Y-130324463D01*
D33*
X209590502Y-130290965D02*
X209624000Y-130324463D01*
%TO.N,/Mains*%
X232250001Y-108250000D02*
X238737432Y-108250000D01*
X238737432Y-108250000D02*
X238740250Y-108252818D01*
%TO.N,/Battery*%
X232250000Y-130324463D02*
X238734929Y-130324463D01*
X238734929Y-130324463D02*
X238740250Y-130329784D01*
D35*
%TO.N,/Switch*%
X227927730Y-104000000D02*
X216740000Y-115187730D01*
X215460000Y-118635045D02*
X215460000Y-139500000D01*
X242500000Y-104000000D02*
X227927730Y-104000000D01*
X217335045Y-116585045D02*
X217510000Y-116585045D01*
X216740000Y-115990000D02*
X217335045Y-116585045D01*
X216740000Y-115187730D02*
X216740000Y-115990000D01*
X217510000Y-116585045D02*
X215460000Y-118635045D01*
%TO.N,Net-(Q2-G)*%
X248859852Y-115528981D02*
X245258077Y-111927206D01*
X246968023Y-111281977D02*
X247000000Y-111250000D01*
X245258077Y-111927206D02*
X245258077Y-111281977D01*
X225000000Y-122912500D02*
X226612230Y-122912500D01*
X245258077Y-111281977D02*
X246968023Y-111281977D01*
X245258077Y-109831977D02*
X245308077Y-109781977D01*
X226612230Y-122912500D02*
X226627458Y-122927728D01*
X245258077Y-111281977D02*
X245258077Y-109831977D01*
%TO.N,Net-(J7-Pin_2)*%
X227520259Y-118369387D02*
X227540746Y-118389874D01*
X227540746Y-118389874D02*
X227540746Y-139683984D01*
%TO.N,Net-(Q1-G)*%
X220874507Y-115565045D02*
X222240000Y-115565045D01*
X219500000Y-115565045D02*
X220874507Y-115565045D01*
X217256575Y-120118774D02*
X218500000Y-120118774D01*
X217510000Y-115565045D02*
X218500000Y-115565045D01*
X218500000Y-120118774D02*
X220118729Y-120118774D01*
X218500000Y-115565045D02*
X218500000Y-120118774D01*
X222240000Y-115565045D02*
X222250000Y-115575045D01*
X218500000Y-115565045D02*
X219500000Y-115565045D01*
%TO.N,Net-(Q1-D)*%
X222000000Y-121075045D02*
X224987545Y-121075045D01*
X224987545Y-121075045D02*
X225000000Y-121087500D01*
%TO.N,Net-(Q3-D)*%
X227500917Y-116525045D02*
X227520259Y-116544387D01*
X224125000Y-116525045D02*
X227500917Y-116525045D01*
%TD*%
%TA.AperFunction,Conductor*%
%TO.N,GND*%
G36*
X221325552Y-116290813D02*
G01*
X221398899Y-116334190D01*
X221558665Y-116380606D01*
X221558669Y-116380607D01*
X221595998Y-116383545D01*
X222755000Y-116383545D01*
X222822039Y-116403230D01*
X222867794Y-116456034D01*
X222879000Y-116507545D01*
X222879000Y-116551045D01*
X222859315Y-116618084D01*
X222806511Y-116663839D01*
X222755000Y-116675045D01*
X222500000Y-116675045D01*
X222500000Y-117225045D01*
X223139968Y-117225045D01*
X223203089Y-117242313D01*
X223273899Y-117284190D01*
X223433665Y-117330606D01*
X223433669Y-117330607D01*
X223470998Y-117333545D01*
X223473443Y-117333545D01*
X224776557Y-117333545D01*
X224779002Y-117333545D01*
X224816331Y-117330607D01*
X224976101Y-117284190D01*
X225032539Y-117250812D01*
X225095659Y-117233545D01*
X226373036Y-117233545D01*
X226440075Y-117253230D01*
X226458875Y-117272394D01*
X226460980Y-117270290D01*
X226471228Y-117280538D01*
X226471229Y-117280539D01*
X226559896Y-117369206D01*
X226593380Y-117430527D01*
X226588396Y-117500219D01*
X226559896Y-117544567D01*
X226471229Y-117633234D01*
X226378143Y-117784150D01*
X226322371Y-117952460D01*
X226312078Y-118053211D01*
X226312077Y-118053228D01*
X226311759Y-118056342D01*
X226311759Y-118059488D01*
X226311759Y-118059489D01*
X226311759Y-118679282D01*
X226311759Y-118679301D01*
X226311760Y-118682431D01*
X226312079Y-118685562D01*
X226312080Y-118685565D01*
X226322371Y-118786312D01*
X226378143Y-118954623D01*
X226471230Y-119105541D01*
X226596606Y-119230917D01*
X226759857Y-119331612D01*
X226759411Y-119332333D01*
X226804691Y-119363679D01*
X226831517Y-119428194D01*
X226832246Y-119441618D01*
X226832246Y-121895228D01*
X226812561Y-121962267D01*
X226759757Y-122008022D01*
X226708246Y-122019228D01*
X226531969Y-122019228D01*
X226345172Y-122058932D01*
X226170704Y-122136610D01*
X226162892Y-122142286D01*
X226097085Y-122165763D01*
X226029031Y-122149935D01*
X226002329Y-122129646D01*
X225960364Y-122087681D01*
X225926879Y-122026358D01*
X225931863Y-121956666D01*
X225960364Y-121912319D01*
X226049028Y-121823654D01*
X226049030Y-121823652D01*
X226142115Y-121672738D01*
X226197887Y-121504426D01*
X226208500Y-121400545D01*
X226208499Y-120774456D01*
X226197887Y-120670574D01*
X226142115Y-120502262D01*
X226049030Y-120351348D01*
X226049029Y-120351347D01*
X226049028Y-120351345D01*
X225923654Y-120225971D01*
X225772736Y-120132884D01*
X225604426Y-120077112D01*
X225503675Y-120066819D01*
X225503659Y-120066818D01*
X225500545Y-120066500D01*
X225497397Y-120066500D01*
X224502604Y-120066500D01*
X224502584Y-120066500D01*
X224499456Y-120066501D01*
X224496325Y-120066820D01*
X224496321Y-120066821D01*
X224395574Y-120077112D01*
X224227263Y-120132884D01*
X224076345Y-120225971D01*
X223972091Y-120330226D01*
X223910768Y-120363711D01*
X223884410Y-120366545D01*
X222970659Y-120366545D01*
X222907539Y-120349277D01*
X222860017Y-120321173D01*
X222851098Y-120315898D01*
X222691334Y-120269483D01*
X222656434Y-120266736D01*
X222656423Y-120266735D01*
X222654002Y-120266545D01*
X222651557Y-120266545D01*
X221495000Y-120266545D01*
X221427961Y-120246860D01*
X221382206Y-120194056D01*
X221371000Y-120142545D01*
X221371000Y-119910988D01*
X221371000Y-119908543D01*
X221368062Y-119871214D01*
X221321645Y-119711444D01*
X221236953Y-119568238D01*
X221236952Y-119568236D01*
X221119308Y-119450592D01*
X220976100Y-119365899D01*
X220816334Y-119319483D01*
X220781434Y-119316736D01*
X220781423Y-119316735D01*
X220779002Y-119316545D01*
X219470998Y-119316545D01*
X219468577Y-119316735D01*
X219468565Y-119316736D01*
X219433668Y-119319483D01*
X219367094Y-119338824D01*
X219297224Y-119338623D01*
X219238555Y-119300681D01*
X219209712Y-119237042D01*
X219208500Y-119219747D01*
X219208500Y-117725045D01*
X221015204Y-117725045D01*
X221015400Y-117727533D01*
X221061219Y-117885245D01*
X221144817Y-118026602D01*
X221260942Y-118142727D01*
X221402302Y-118226327D01*
X221560006Y-118272144D01*
X221594423Y-118274853D01*
X221599303Y-118275045D01*
X221999999Y-118275045D01*
X222000000Y-117725045D01*
X222500000Y-117725045D01*
X222500000Y-118275045D01*
X222900697Y-118275045D01*
X222905576Y-118274853D01*
X222939993Y-118272144D01*
X223097697Y-118226327D01*
X223239057Y-118142727D01*
X223355182Y-118026602D01*
X223438780Y-117885245D01*
X223484599Y-117727533D01*
X223484795Y-117725045D01*
X222500000Y-117725045D01*
X222000000Y-117725045D01*
X221015204Y-117725045D01*
X219208500Y-117725045D01*
X219208500Y-117447577D01*
X219228185Y-117380538D01*
X219248328Y-117356522D01*
X219250000Y-117354976D01*
X219250000Y-116835045D01*
X219750000Y-116835045D01*
X219750000Y-117354975D01*
X219785127Y-117352211D01*
X219939192Y-117307451D01*
X220077290Y-117225780D01*
X220078026Y-117225044D01*
X221015204Y-117225044D01*
X221015205Y-117225045D01*
X221999999Y-117225045D01*
X222000000Y-116675045D01*
X221599303Y-116675045D01*
X221594423Y-116675236D01*
X221560006Y-116677945D01*
X221402302Y-116723762D01*
X221260942Y-116807362D01*
X221144817Y-116923487D01*
X221061219Y-117064844D01*
X221015400Y-117222556D01*
X221015204Y-117225044D01*
X220078026Y-117225044D01*
X220190735Y-117112335D01*
X220272404Y-116974240D01*
X220312844Y-116835045D01*
X219750000Y-116835045D01*
X219250000Y-116835045D01*
X219250000Y-116467544D01*
X219269685Y-116400505D01*
X219322489Y-116354750D01*
X219373996Y-116343544D01*
X219749988Y-116343544D01*
X219786466Y-116340674D01*
X219788898Y-116339967D01*
X219823488Y-116335045D01*
X220312844Y-116335045D01*
X220321819Y-116323092D01*
X220377813Y-116281301D01*
X220420980Y-116273545D01*
X220831648Y-116273545D01*
X221262431Y-116273545D01*
X221325552Y-116290813D01*
G37*
%TD.AperFunction*%
%TA.AperFunction,Conductor*%
G36*
X266003243Y-99750669D02*
G01*
X266133628Y-99757503D01*
X266313910Y-99767628D01*
X266326309Y-99768955D01*
X266475647Y-99792608D01*
X266635321Y-99819737D01*
X266646619Y-99822205D01*
X266796693Y-99862418D01*
X266949188Y-99906351D01*
X266959253Y-99909726D01*
X267104710Y-99965562D01*
X267107599Y-99966714D01*
X267251768Y-100026430D01*
X267260594Y-100030500D01*
X267400064Y-100101565D01*
X267403748Y-100103521D01*
X267493848Y-100153316D01*
X267539548Y-100178574D01*
X267547061Y-100183081D01*
X267678754Y-100268604D01*
X267682947Y-100271452D01*
X267809147Y-100360996D01*
X267815428Y-100365759D01*
X267937567Y-100464665D01*
X267942158Y-100468571D01*
X268057424Y-100571579D01*
X268062478Y-100576358D01*
X268173640Y-100687520D01*
X268178419Y-100692574D01*
X268281427Y-100807840D01*
X268285333Y-100812431D01*
X268384239Y-100934570D01*
X268389002Y-100940851D01*
X268478546Y-101067051D01*
X268481409Y-101071266D01*
X268566907Y-101202921D01*
X268571430Y-101210460D01*
X268646477Y-101346250D01*
X268648433Y-101349934D01*
X268719498Y-101489404D01*
X268723575Y-101498247D01*
X268783259Y-101642337D01*
X268784462Y-101645353D01*
X268840265Y-101790727D01*
X268843655Y-101800836D01*
X268887579Y-101953297D01*
X268927793Y-102103379D01*
X268930262Y-102114685D01*
X268957394Y-102274369D01*
X268981040Y-102423670D01*
X268982371Y-102436108D01*
X268992509Y-102616617D01*
X268999330Y-102746756D01*
X268999500Y-102753246D01*
X268999500Y-142746753D01*
X268999330Y-142753243D01*
X268992509Y-142883382D01*
X268982372Y-143063887D01*
X268981040Y-143076331D01*
X268957394Y-143225629D01*
X268930263Y-143385308D01*
X268927791Y-143396624D01*
X268887579Y-143546701D01*
X268843653Y-143699170D01*
X268840268Y-143709263D01*
X268784462Y-143854645D01*
X268783259Y-143857661D01*
X268723575Y-144001751D01*
X268719498Y-144010594D01*
X268648433Y-144150064D01*
X268646477Y-144153748D01*
X268571430Y-144289538D01*
X268566897Y-144297094D01*
X268481412Y-144428728D01*
X268478546Y-144432947D01*
X268389002Y-144559147D01*
X268384239Y-144565428D01*
X268285333Y-144687567D01*
X268281427Y-144692158D01*
X268178419Y-144807424D01*
X268173640Y-144812478D01*
X268062478Y-144923640D01*
X268057424Y-144928419D01*
X267942158Y-145031427D01*
X267937567Y-145035333D01*
X267815428Y-145134239D01*
X267809147Y-145139002D01*
X267682947Y-145228546D01*
X267678728Y-145231412D01*
X267547094Y-145316897D01*
X267539538Y-145321430D01*
X267403748Y-145396477D01*
X267400064Y-145398433D01*
X267260594Y-145469498D01*
X267251751Y-145473575D01*
X267107661Y-145533259D01*
X267104645Y-145534462D01*
X266959271Y-145590265D01*
X266949162Y-145593655D01*
X266796702Y-145637579D01*
X266646619Y-145677793D01*
X266635313Y-145680262D01*
X266475630Y-145707394D01*
X266326328Y-145731040D01*
X266313890Y-145732371D01*
X266133382Y-145742509D01*
X266003244Y-145749330D01*
X265996754Y-145749500D01*
X189003247Y-145749500D01*
X188996757Y-145749330D01*
X188866617Y-145742509D01*
X188686111Y-145732372D01*
X188673666Y-145731040D01*
X188524369Y-145707394D01*
X188364690Y-145680263D01*
X188353374Y-145677791D01*
X188203298Y-145637579D01*
X188050828Y-145593653D01*
X188040735Y-145590268D01*
X187895353Y-145534462D01*
X187892337Y-145533259D01*
X187748247Y-145473575D01*
X187739404Y-145469498D01*
X187599934Y-145398433D01*
X187596250Y-145396477D01*
X187460460Y-145321430D01*
X187452921Y-145316907D01*
X187321266Y-145231409D01*
X187317051Y-145228546D01*
X187190851Y-145139002D01*
X187184570Y-145134239D01*
X187062431Y-145035333D01*
X187057840Y-145031427D01*
X186942574Y-144928419D01*
X186937520Y-144923640D01*
X186826358Y-144812478D01*
X186821579Y-144807424D01*
X186718571Y-144692158D01*
X186714665Y-144687567D01*
X186615759Y-144565428D01*
X186610996Y-144559147D01*
X186521452Y-144432947D01*
X186518604Y-144428754D01*
X186433081Y-144297061D01*
X186428568Y-144289538D01*
X186353521Y-144153748D01*
X186351565Y-144150064D01*
X186280500Y-144010594D01*
X186276430Y-144001768D01*
X186216714Y-143857599D01*
X186215562Y-143854710D01*
X186159729Y-143709260D01*
X186156346Y-143699170D01*
X186112414Y-143546679D01*
X186107316Y-143527652D01*
X186072202Y-143396605D01*
X186069738Y-143385323D01*
X186042601Y-143225606D01*
X186018956Y-143076316D01*
X186017627Y-143063890D01*
X186007490Y-142883382D01*
X186000670Y-142753244D01*
X186000500Y-142746755D01*
X186000500Y-140390964D01*
X194910319Y-140390964D01*
X194910320Y-140390965D01*
X195819577Y-140390965D01*
X195780078Y-140415422D01*
X195712487Y-140504927D01*
X195681793Y-140612805D01*
X195692142Y-140724486D01*
X195742136Y-140824887D01*
X195814619Y-140890965D01*
X194914430Y-140890965D01*
X194941458Y-141002375D01*
X195028727Y-141193470D01*
X195150580Y-141364586D01*
X195302621Y-141509557D01*
X195479343Y-141623131D01*
X195674373Y-141701209D01*
X195880650Y-141740965D01*
X196235688Y-141740965D01*
X196235688Y-140940965D01*
X196735688Y-140940965D01*
X196735688Y-141740965D01*
X197035138Y-141740965D01*
X197041047Y-141740683D01*
X197194808Y-141726000D01*
X197396375Y-141666815D01*
X197583100Y-141570552D01*
X197748226Y-141440695D01*
X197885799Y-141281928D01*
X197990834Y-141100001D01*
X198059544Y-140901476D01*
X198061056Y-140890965D01*
X197151799Y-140890965D01*
X197191298Y-140866508D01*
X197258889Y-140777003D01*
X197289583Y-140669125D01*
X197279234Y-140557444D01*
X197229240Y-140457043D01*
X197156757Y-140390965D01*
X198056945Y-140390965D01*
X198029917Y-140279554D01*
X197942648Y-140088459D01*
X197820795Y-139917343D01*
X197668754Y-139772372D01*
X197492032Y-139658798D01*
X197297002Y-139580720D01*
X197090726Y-139540965D01*
X196735688Y-139540965D01*
X196735688Y-140340965D01*
X196235688Y-140340965D01*
X196235688Y-139540965D01*
X195936238Y-139540965D01*
X195930328Y-139541246D01*
X195776567Y-139555929D01*
X195575000Y-139615114D01*
X195388275Y-139711377D01*
X195223149Y-139841234D01*
X195085576Y-140000001D01*
X194980541Y-140181928D01*
X194911831Y-140380453D01*
X194910319Y-140390964D01*
X186000500Y-140390964D01*
X186000500Y-137494859D01*
X200081188Y-137494859D01*
X200099660Y-137788465D01*
X200100634Y-137796185D01*
X200155761Y-138085171D01*
X200157697Y-138092710D01*
X200248609Y-138372506D01*
X200251469Y-138379730D01*
X200376738Y-138645941D01*
X200380480Y-138652747D01*
X200538118Y-138901146D01*
X200542694Y-138907444D01*
X200621000Y-139002099D01*
X201406661Y-138216437D01*
X201486026Y-138329781D01*
X201646872Y-138490627D01*
X201760214Y-138569990D01*
X200972252Y-139357951D01*
X201194008Y-139519067D01*
X201200579Y-139523237D01*
X201458382Y-139664965D01*
X201465421Y-139668278D01*
X201738958Y-139776578D01*
X201746353Y-139778981D01*
X202031313Y-139852147D01*
X202038944Y-139853602D01*
X202330828Y-139890476D01*
X202338587Y-139890965D01*
X202632789Y-139890965D01*
X202640547Y-139890476D01*
X202932431Y-139853602D01*
X202940062Y-139852147D01*
X203225022Y-139778981D01*
X203232417Y-139776578D01*
X203505954Y-139668278D01*
X203512993Y-139664965D01*
X203770796Y-139523237D01*
X203777366Y-139519067D01*
X203803609Y-139500000D01*
X211556843Y-139500000D01*
X211575435Y-139724363D01*
X211575435Y-139724366D01*
X211575436Y-139724368D01*
X211624118Y-139916610D01*
X211630705Y-139942618D01*
X211721138Y-140148788D01*
X211721140Y-140148791D01*
X211844278Y-140337268D01*
X211996760Y-140502906D01*
X212174424Y-140641189D01*
X212372426Y-140748342D01*
X212585365Y-140821444D01*
X212807431Y-140858500D01*
X213032569Y-140858500D01*
X213254635Y-140821444D01*
X213467574Y-140748342D01*
X213665576Y-140641189D01*
X213843240Y-140502906D01*
X213995722Y-140337268D01*
X214086191Y-140198793D01*
X214139336Y-140153438D01*
X214208567Y-140144014D01*
X214271903Y-140173515D01*
X214293807Y-140198794D01*
X214384275Y-140337265D01*
X214385300Y-140338378D01*
X214536760Y-140502906D01*
X214714424Y-140641189D01*
X214912426Y-140748342D01*
X215125365Y-140821444D01*
X215347431Y-140858500D01*
X215572569Y-140858500D01*
X215794635Y-140821444D01*
X216007574Y-140748342D01*
X216205576Y-140641189D01*
X216383240Y-140502906D01*
X216446452Y-140434239D01*
X216506337Y-140398251D01*
X216576175Y-140400351D01*
X216633791Y-140439875D01*
X216653861Y-140474889D01*
X216699110Y-140596204D01*
X216786738Y-140713261D01*
X216903796Y-140800889D01*
X217040794Y-140851988D01*
X217040797Y-140851988D01*
X217040799Y-140851989D01*
X217101362Y-140858500D01*
X217104672Y-140858500D01*
X218895328Y-140858500D01*
X218898638Y-140858500D01*
X218959201Y-140851989D01*
X218959203Y-140851988D01*
X218959205Y-140851988D01*
X219041097Y-140821443D01*
X219096204Y-140800889D01*
X219213261Y-140713261D01*
X219300889Y-140596204D01*
X219351989Y-140459201D01*
X219358500Y-140398638D01*
X219358500Y-138601362D01*
X219351989Y-138540799D01*
X219351988Y-138540797D01*
X219351988Y-138540794D01*
X219300889Y-138403796D01*
X219213261Y-138286738D01*
X219096203Y-138199110D01*
X218959205Y-138148011D01*
X218901924Y-138141853D01*
X218901918Y-138141852D01*
X218898638Y-138141500D01*
X217101362Y-138141500D01*
X217098082Y-138141852D01*
X217098075Y-138141853D01*
X217040794Y-138148011D01*
X216903796Y-138199110D01*
X216786738Y-138286738D01*
X216699110Y-138403796D01*
X216653861Y-138525110D01*
X216611989Y-138581043D01*
X216546524Y-138605459D01*
X216478252Y-138590606D01*
X216446451Y-138565758D01*
X216383242Y-138497096D01*
X216383241Y-138497095D01*
X216383240Y-138497094D01*
X216285143Y-138420741D01*
X216216337Y-138367186D01*
X216175524Y-138310475D01*
X216168500Y-138269333D01*
X216168500Y-122275045D01*
X218890204Y-122275045D01*
X218890400Y-122277533D01*
X218936219Y-122435245D01*
X219019817Y-122576602D01*
X219135942Y-122692727D01*
X219277302Y-122776327D01*
X219435006Y-122822144D01*
X219469423Y-122824853D01*
X219474303Y-122825045D01*
X219875000Y-122825045D01*
X219875000Y-122275045D01*
X220375000Y-122275045D01*
X220375000Y-122825045D01*
X220775697Y-122825045D01*
X220780576Y-122824853D01*
X220814993Y-122822144D01*
X220972697Y-122776327D01*
X221114057Y-122692727D01*
X221230182Y-122576602D01*
X221313780Y-122435245D01*
X221359599Y-122277533D01*
X221359795Y-122275045D01*
X220375000Y-122275045D01*
X219875000Y-122275045D01*
X218890204Y-122275045D01*
X216168500Y-122275045D01*
X216168500Y-121388774D01*
X216443731Y-121388774D01*
X216484170Y-121527969D01*
X216565839Y-121666064D01*
X216679284Y-121779509D01*
X216817382Y-121861180D01*
X216971447Y-121905940D01*
X217006575Y-121908704D01*
X217506574Y-121908704D01*
X217541702Y-121905940D01*
X217695767Y-121861180D01*
X217833865Y-121779509D01*
X217838330Y-121775044D01*
X218890204Y-121775044D01*
X218890205Y-121775045D01*
X219875000Y-121775045D01*
X219875000Y-121225045D01*
X219474303Y-121225045D01*
X219469423Y-121225236D01*
X219435006Y-121227945D01*
X219277302Y-121273762D01*
X219135942Y-121357362D01*
X219019817Y-121473487D01*
X218936219Y-121614844D01*
X218890400Y-121772556D01*
X218890204Y-121775044D01*
X217838330Y-121775044D01*
X217947310Y-121666064D01*
X218028979Y-121527969D01*
X218069419Y-121388774D01*
X217506575Y-121388774D01*
X217506574Y-121908704D01*
X217006575Y-121908704D01*
X217006575Y-121388774D01*
X216443731Y-121388774D01*
X216168500Y-121388774D01*
X216168500Y-118979876D01*
X216188185Y-118912837D01*
X216204814Y-118892200D01*
X217579819Y-117517194D01*
X217641142Y-117483710D01*
X217710834Y-117488694D01*
X217766767Y-117530566D01*
X217791184Y-117596030D01*
X217791500Y-117604876D01*
X217791500Y-119250176D01*
X217771815Y-119317215D01*
X217719011Y-119362970D01*
X217649853Y-119372914D01*
X217632905Y-119369253D01*
X217621364Y-119365900D01*
X217543041Y-119343145D01*
X217533689Y-119342408D01*
X217508996Y-119340465D01*
X217508985Y-119340464D01*
X217506564Y-119340274D01*
X217504119Y-119340274D01*
X217009008Y-119340274D01*
X217008982Y-119340274D01*
X217006587Y-119340275D01*
X217004194Y-119340463D01*
X217004175Y-119340464D01*
X216970107Y-119343145D01*
X216813979Y-119388504D01*
X216674033Y-119471268D01*
X216559069Y-119586232D01*
X216476305Y-119726178D01*
X216430946Y-119882304D01*
X216428689Y-119910988D01*
X216428075Y-119918785D01*
X216428075Y-119921228D01*
X216428075Y-119921229D01*
X216428075Y-120316340D01*
X216428075Y-120316365D01*
X216428076Y-120318762D01*
X216428264Y-120321155D01*
X216428265Y-120321173D01*
X216430946Y-120355241D01*
X216476305Y-120511369D01*
X216513346Y-120574002D01*
X216530529Y-120641726D01*
X216513347Y-120700243D01*
X216484168Y-120749583D01*
X216443730Y-120888773D01*
X216443730Y-120888774D01*
X216933086Y-120888774D01*
X216967682Y-120893698D01*
X216970109Y-120894403D01*
X217006586Y-120897274D01*
X217506563Y-120897273D01*
X217543041Y-120894403D01*
X217545473Y-120893696D01*
X217580063Y-120888774D01*
X218069419Y-120888774D01*
X218078394Y-120876821D01*
X218134388Y-120835030D01*
X218177555Y-120827274D01*
X218413972Y-120827274D01*
X218457141Y-120827274D01*
X219143737Y-120827274D01*
X219206858Y-120844542D01*
X219273899Y-120884190D01*
X219433665Y-120930606D01*
X219433669Y-120930607D01*
X219470998Y-120933545D01*
X220630000Y-120933545D01*
X220697039Y-120953230D01*
X220742794Y-121006034D01*
X220754000Y-121057545D01*
X220754000Y-121101045D01*
X220734315Y-121168084D01*
X220681511Y-121213839D01*
X220630000Y-121225045D01*
X220375000Y-121225045D01*
X220375000Y-121775045D01*
X221014968Y-121775045D01*
X221078089Y-121792313D01*
X221148899Y-121834190D01*
X221308665Y-121880606D01*
X221308669Y-121880607D01*
X221345998Y-121883545D01*
X221348443Y-121883545D01*
X222651557Y-121883545D01*
X222654002Y-121883545D01*
X222691331Y-121880607D01*
X222851101Y-121834190D01*
X222907539Y-121800812D01*
X222970659Y-121783545D01*
X223859501Y-121783545D01*
X223926540Y-121803230D01*
X223947182Y-121819864D01*
X224039636Y-121912318D01*
X224073121Y-121973641D01*
X224068137Y-122043333D01*
X224039637Y-122087680D01*
X223950970Y-122176347D01*
X223857884Y-122327263D01*
X223802112Y-122495573D01*
X223791819Y-122596324D01*
X223791818Y-122596341D01*
X223791500Y-122599455D01*
X223791500Y-122602601D01*
X223791500Y-122602602D01*
X223791500Y-123222395D01*
X223791500Y-123222414D01*
X223791501Y-123225544D01*
X223791820Y-123228675D01*
X223791821Y-123228678D01*
X223802112Y-123329425D01*
X223857884Y-123497736D01*
X223950971Y-123648654D01*
X224076345Y-123774028D01*
X224076347Y-123774029D01*
X224076348Y-123774030D01*
X224227262Y-123867115D01*
X224311417Y-123895001D01*
X224395573Y-123922887D01*
X224441602Y-123927589D01*
X224499455Y-123933500D01*
X225500544Y-123933499D01*
X225604426Y-123922887D01*
X225772738Y-123867115D01*
X225923652Y-123774030D01*
X225984690Y-123712991D01*
X226046010Y-123679507D01*
X226115702Y-123684491D01*
X226145257Y-123700356D01*
X226170705Y-123718846D01*
X226345172Y-123796523D01*
X226531969Y-123836228D01*
X226708246Y-123836228D01*
X226775285Y-123855913D01*
X226821040Y-123908717D01*
X226832246Y-123960228D01*
X226832246Y-138391991D01*
X226812561Y-138459030D01*
X226775210Y-138493676D01*
X226775838Y-138494483D01*
X226767730Y-138500792D01*
X226767729Y-138500794D01*
X226736488Y-138525110D01*
X226583526Y-138644165D01*
X226425430Y-138815902D01*
X226297762Y-139011314D01*
X226203997Y-139225075D01*
X226146694Y-139451362D01*
X226127418Y-139683983D01*
X226146694Y-139916605D01*
X226203997Y-140142892D01*
X226297762Y-140356653D01*
X226425430Y-140552065D01*
X226507474Y-140641188D01*
X226583526Y-140723802D01*
X226767729Y-140867174D01*
X226973019Y-140978271D01*
X227028213Y-140997219D01*
X227193792Y-141054064D01*
X227424034Y-141092484D01*
X227657458Y-141092484D01*
X227887699Y-141054064D01*
X227998085Y-141016167D01*
X228108473Y-140978271D01*
X228313763Y-140867174D01*
X228497966Y-140723802D01*
X228656060Y-140552067D01*
X228687937Y-140503274D01*
X228741083Y-140457918D01*
X228810314Y-140448494D01*
X228873650Y-140477996D01*
X228895553Y-140503273D01*
X228927432Y-140552067D01*
X229085526Y-140723802D01*
X229269729Y-140867174D01*
X229475019Y-140978271D01*
X229530213Y-140997219D01*
X229695792Y-141054064D01*
X229926034Y-141092484D01*
X230159458Y-141092484D01*
X230389699Y-141054064D01*
X230500084Y-141016167D01*
X230610473Y-140978271D01*
X230815763Y-140867174D01*
X230999966Y-140723802D01*
X231076018Y-140641188D01*
X231158056Y-140552072D01*
X231158057Y-140552069D01*
X231158060Y-140552067D01*
X231225618Y-140448661D01*
X231278765Y-140403306D01*
X231329427Y-140392484D01*
X236040853Y-140392484D01*
X236048340Y-140392710D01*
X236109109Y-140396386D01*
X236169010Y-140385408D01*
X236176380Y-140384287D01*
X236236817Y-140376949D01*
X236246514Y-140373271D01*
X236268140Y-140367243D01*
X236278345Y-140365373D01*
X236333866Y-140340384D01*
X236340768Y-140337526D01*
X236381205Y-140322189D01*
X236397691Y-140315938D01*
X236406235Y-140310039D01*
X236425770Y-140299021D01*
X236435242Y-140294759D01*
X236483178Y-140257201D01*
X236489159Y-140252800D01*
X236539289Y-140218199D01*
X236579689Y-140172595D01*
X236584776Y-140167192D01*
X245538060Y-131213908D01*
X245543463Y-131208821D01*
X245589067Y-131168421D01*
X245623668Y-131118291D01*
X245628074Y-131112305D01*
X245665627Y-131064374D01*
X245669889Y-131054902D01*
X245680907Y-131035367D01*
X245686806Y-131026823D01*
X245693057Y-131010337D01*
X245708394Y-130969900D01*
X245711252Y-130962998D01*
X245736241Y-130907477D01*
X245738112Y-130897261D01*
X245744139Y-130875646D01*
X245747817Y-130865949D01*
X245755156Y-130805502D01*
X245756272Y-130798162D01*
X245767254Y-130738240D01*
X245763578Y-130677464D01*
X245763352Y-130669978D01*
X245763352Y-129250000D01*
X249200001Y-129250000D01*
X249200001Y-129696829D01*
X249200321Y-129703111D01*
X249210493Y-129802695D01*
X249265642Y-129969122D01*
X249357683Y-130118345D01*
X249481654Y-130242316D01*
X249630877Y-130334357D01*
X249797303Y-130389506D01*
X249896890Y-130399680D01*
X249903168Y-130399999D01*
X250024998Y-130399999D01*
X250024999Y-130399998D01*
X250025000Y-129250000D01*
X249200001Y-129250000D01*
X245763352Y-129250000D01*
X245763352Y-128750000D01*
X249200000Y-128750000D01*
X250024999Y-128750000D01*
X250024999Y-127600000D01*
X249903171Y-127600000D01*
X249896888Y-127600321D01*
X249797304Y-127610493D01*
X249630877Y-127665642D01*
X249481654Y-127757683D01*
X249357683Y-127881654D01*
X249265642Y-128030877D01*
X249210493Y-128197303D01*
X249200319Y-128296890D01*
X249200000Y-128303168D01*
X249200000Y-128750000D01*
X245763352Y-128750000D01*
X245763352Y-125661481D01*
X245783037Y-125594442D01*
X245835841Y-125548687D01*
X245887352Y-125537481D01*
X249277253Y-125537481D01*
X249280400Y-125537481D01*
X249384281Y-125526868D01*
X249552592Y-125471096D01*
X249703505Y-125378012D01*
X249828883Y-125252634D01*
X249921967Y-125101721D01*
X249977739Y-124933410D01*
X249988352Y-124829529D01*
X249988352Y-124261481D01*
X250008037Y-124194442D01*
X250060841Y-124148687D01*
X250112352Y-124137481D01*
X251383500Y-124137481D01*
X251450539Y-124157166D01*
X251496294Y-124209970D01*
X251507500Y-124261481D01*
X251507500Y-127955411D01*
X251487815Y-128022450D01*
X251435011Y-128068205D01*
X251365853Y-128078149D01*
X251302297Y-128049124D01*
X251277961Y-128020508D01*
X251192315Y-127881653D01*
X251068345Y-127757683D01*
X250919122Y-127665642D01*
X250752696Y-127610493D01*
X250653109Y-127600319D01*
X250646832Y-127600000D01*
X250525000Y-127600000D01*
X250525000Y-130399999D01*
X250646829Y-130399999D01*
X250653111Y-130399678D01*
X250752695Y-130389506D01*
X250919122Y-130334357D01*
X251068345Y-130242316D01*
X251192316Y-130118345D01*
X251277961Y-129979492D01*
X251329909Y-129932767D01*
X251398871Y-129921544D01*
X251462953Y-129949387D01*
X251501810Y-130007456D01*
X251507500Y-130044588D01*
X251507500Y-135136365D01*
X251507234Y-135144475D01*
X251502547Y-135216000D01*
X251502812Y-135220040D01*
X251507498Y-135291536D01*
X251507538Y-135292177D01*
X251522073Y-135513923D01*
X251522075Y-135513938D01*
X251522339Y-135517966D01*
X251523129Y-135521938D01*
X251523130Y-135521945D01*
X251580583Y-135810782D01*
X251580585Y-135810789D01*
X251581376Y-135814766D01*
X251582681Y-135818610D01*
X251671674Y-136080777D01*
X251678648Y-136101320D01*
X251680443Y-136104961D01*
X251680444Y-136104962D01*
X251794373Y-136335988D01*
X251812491Y-136372726D01*
X251814741Y-136376093D01*
X251814746Y-136376102D01*
X251891721Y-136491303D01*
X251980614Y-136624341D01*
X251983291Y-136627393D01*
X251983296Y-136627400D01*
X252177468Y-136848809D01*
X252180142Y-136851858D01*
X252231340Y-136896758D01*
X252234027Y-136899114D01*
X252239949Y-136904661D01*
X253287078Y-137951790D01*
X253288604Y-137953128D01*
X253288608Y-137953132D01*
X253454600Y-138098703D01*
X253454606Y-138098707D01*
X253457659Y-138101385D01*
X253709274Y-138269509D01*
X253712914Y-138271304D01*
X253825696Y-138326922D01*
X253860374Y-138352333D01*
X253932074Y-138427144D01*
X254026652Y-138497093D01*
X254124843Y-138569715D01*
X254338933Y-138677657D01*
X254568185Y-138747864D01*
X254806005Y-138778318D01*
X255045551Y-138768143D01*
X255279932Y-138717630D01*
X255502404Y-138628233D01*
X255706569Y-138502524D01*
X255886551Y-138344119D01*
X255886552Y-138344116D01*
X255893480Y-138338020D01*
X255920554Y-138319894D01*
X256022726Y-138269509D01*
X256274341Y-138101385D01*
X256501858Y-137901858D01*
X256701385Y-137674341D01*
X256869509Y-137422726D01*
X257003352Y-137151320D01*
X257100623Y-136864766D01*
X257159661Y-136567966D01*
X257179452Y-136266000D01*
X257163067Y-136015999D01*
X259465999Y-136015999D01*
X259466000Y-136016000D01*
X260266000Y-136016000D01*
X260266000Y-136516000D01*
X259466000Y-136516000D01*
X259466000Y-137422841D01*
X259466223Y-137428097D01*
X259481148Y-137603455D01*
X259541198Y-137834083D01*
X259639360Y-138051241D01*
X259772811Y-138248687D01*
X259937711Y-138420741D01*
X260129315Y-138562450D01*
X260342113Y-138669741D01*
X260569983Y-138739525D01*
X260616000Y-138745417D01*
X260616000Y-137861881D01*
X260709369Y-137900556D01*
X260866000Y-137921177D01*
X261022631Y-137900556D01*
X261116000Y-137861881D01*
X261116000Y-138744264D01*
X261277436Y-138709473D01*
X261498560Y-138620617D01*
X261701497Y-138495664D01*
X261880394Y-138338215D01*
X262030106Y-138152800D01*
X262146332Y-137944749D01*
X262225726Y-137720042D01*
X262266000Y-137485160D01*
X262266000Y-136516000D01*
X261466000Y-136516000D01*
X261466000Y-136016000D01*
X262266000Y-136016000D01*
X262266000Y-135109158D01*
X262265776Y-135103902D01*
X262250851Y-134928544D01*
X262190801Y-134697916D01*
X262092639Y-134480758D01*
X261959188Y-134283312D01*
X261794288Y-134111258D01*
X261602684Y-133969549D01*
X261389886Y-133862258D01*
X261162017Y-133792474D01*
X261115999Y-133786581D01*
X261115999Y-134670117D01*
X261022631Y-134631444D01*
X260866000Y-134610823D01*
X260709369Y-134631444D01*
X260616000Y-134670118D01*
X260616000Y-133787734D01*
X260615999Y-133787734D01*
X260454565Y-133822526D01*
X260233437Y-133911383D01*
X260030502Y-134036335D01*
X259851605Y-134193784D01*
X259701893Y-134379199D01*
X259585667Y-134587250D01*
X259506273Y-134811957D01*
X259466000Y-135046839D01*
X259465999Y-136015999D01*
X257163067Y-136015999D01*
X257159661Y-135964033D01*
X257100623Y-135667234D01*
X257003352Y-135380680D01*
X256869509Y-135109274D01*
X256836163Y-135059369D01*
X256703644Y-134861040D01*
X256701385Y-134857659D01*
X256698707Y-134854606D01*
X256698703Y-134854600D01*
X256553132Y-134688608D01*
X256553128Y-134688604D01*
X256551790Y-134687078D01*
X256451962Y-134587250D01*
X256160819Y-134296106D01*
X256127334Y-134234783D01*
X256124500Y-134208425D01*
X256124500Y-133004499D01*
X256144185Y-132937460D01*
X256196989Y-132891705D01*
X256266147Y-132881761D01*
X256289807Y-132887581D01*
X256409806Y-132929980D01*
X256409808Y-132929980D01*
X256409810Y-132929981D01*
X256646117Y-132970500D01*
X256646119Y-132970500D01*
X259023196Y-132970500D01*
X259025827Y-132970500D01*
X259204898Y-132955259D01*
X259359582Y-132914982D01*
X259436925Y-132894844D01*
X259546163Y-132845465D01*
X259655402Y-132796086D01*
X259854047Y-132661825D01*
X260027144Y-132495925D01*
X260169715Y-132303157D01*
X260277657Y-132089067D01*
X260347864Y-131859815D01*
X260378318Y-131621995D01*
X260368143Y-131382449D01*
X260317630Y-131148068D01*
X260228233Y-130925596D01*
X260102524Y-130721431D01*
X259944119Y-130541449D01*
X259944118Y-130541449D01*
X259757576Y-130390824D01*
X259548261Y-130273895D01*
X259322189Y-130194018D01*
X259085883Y-130153500D01*
X259085881Y-130153500D01*
X256706173Y-130153500D01*
X256703558Y-130153722D01*
X256703547Y-130153723D01*
X256527103Y-130168740D01*
X256284863Y-130231815D01*
X256284201Y-130229272D01*
X256230370Y-130236796D01*
X256166929Y-130207521D01*
X256129386Y-130148595D01*
X256124500Y-130114129D01*
X256124500Y-124283543D01*
X256140246Y-124223068D01*
X256147563Y-124209970D01*
X256154105Y-124198260D01*
X256233980Y-123972194D01*
X256251998Y-123867115D01*
X256274500Y-123735883D01*
X256274500Y-122265999D01*
X259465999Y-122265999D01*
X259466000Y-122266000D01*
X260266000Y-122266000D01*
X260266000Y-122766000D01*
X259466000Y-122766000D01*
X259466000Y-123672841D01*
X259466223Y-123678097D01*
X259481148Y-123853455D01*
X259541198Y-124084083D01*
X259639360Y-124301241D01*
X259772811Y-124498687D01*
X259937711Y-124670741D01*
X260129315Y-124812450D01*
X260342113Y-124919741D01*
X260569983Y-124989525D01*
X260616000Y-124995417D01*
X260616000Y-124111881D01*
X260709369Y-124150556D01*
X260866000Y-124171177D01*
X261022631Y-124150556D01*
X261116000Y-124111881D01*
X261116000Y-124994264D01*
X261277436Y-124959473D01*
X261498560Y-124870617D01*
X261701497Y-124745664D01*
X261880394Y-124588215D01*
X262030106Y-124402800D01*
X262146332Y-124194749D01*
X262225726Y-123970042D01*
X262266000Y-123735160D01*
X262266000Y-122766000D01*
X261466000Y-122766000D01*
X261466000Y-122266000D01*
X262266000Y-122266000D01*
X262266000Y-121359158D01*
X262265776Y-121353902D01*
X262250851Y-121178544D01*
X262190801Y-120947916D01*
X262092639Y-120730758D01*
X261959188Y-120533312D01*
X261794288Y-120361258D01*
X261602684Y-120219549D01*
X261389886Y-120112258D01*
X261162017Y-120042474D01*
X261115999Y-120036581D01*
X261115999Y-120920117D01*
X261022631Y-120881444D01*
X260866000Y-120860823D01*
X260709369Y-120881444D01*
X260616000Y-120920118D01*
X260616000Y-120037734D01*
X260615999Y-120037734D01*
X260454565Y-120072526D01*
X260233437Y-120161383D01*
X260030502Y-120286335D01*
X259851605Y-120443784D01*
X259701893Y-120629199D01*
X259585667Y-120837250D01*
X259506273Y-121061957D01*
X259466000Y-121296839D01*
X259465999Y-122265999D01*
X256274500Y-122265999D01*
X256274500Y-121358804D01*
X256274500Y-121356173D01*
X256259259Y-121177102D01*
X256223059Y-121038075D01*
X256198844Y-120945074D01*
X256135508Y-120804960D01*
X256124500Y-120753884D01*
X256124500Y-119254499D01*
X256144185Y-119187460D01*
X256196989Y-119141705D01*
X256266147Y-119131761D01*
X256289807Y-119137581D01*
X256409806Y-119179980D01*
X256409808Y-119179980D01*
X256409810Y-119179981D01*
X256646117Y-119220500D01*
X256646119Y-119220500D01*
X259023196Y-119220500D01*
X259025827Y-119220500D01*
X259204898Y-119205259D01*
X259359582Y-119164982D01*
X259436925Y-119144844D01*
X259546162Y-119095465D01*
X259655402Y-119046086D01*
X259854047Y-118911825D01*
X260027144Y-118745925D01*
X260169715Y-118553157D01*
X260277657Y-118339067D01*
X260347864Y-118109815D01*
X260378318Y-117871995D01*
X260368143Y-117632449D01*
X260317630Y-117398068D01*
X260228233Y-117175596D01*
X260102524Y-116971431D01*
X259944119Y-116791449D01*
X259879325Y-116739131D01*
X259757576Y-116640824D01*
X259548261Y-116523895D01*
X259322189Y-116444018D01*
X259085883Y-116403500D01*
X259085881Y-116403500D01*
X256706173Y-116403500D01*
X256703558Y-116403722D01*
X256703547Y-116403723D01*
X256527103Y-116418740D01*
X256284863Y-116481815D01*
X256284201Y-116479272D01*
X256230370Y-116486796D01*
X256166929Y-116457521D01*
X256129386Y-116398595D01*
X256124500Y-116364129D01*
X256124500Y-110323573D01*
X256144185Y-110256534D01*
X256160819Y-110235892D01*
X256328268Y-110068443D01*
X256551790Y-109844922D01*
X256701385Y-109674341D01*
X256869509Y-109422726D01*
X257003352Y-109151320D01*
X257100623Y-108864766D01*
X257159661Y-108567967D01*
X257179452Y-108266000D01*
X257163067Y-108015999D01*
X259465999Y-108015999D01*
X259466000Y-108016000D01*
X260266000Y-108016000D01*
X260266000Y-108516000D01*
X259466000Y-108516000D01*
X259466000Y-109422841D01*
X259466223Y-109428097D01*
X259481148Y-109603455D01*
X259541198Y-109834083D01*
X259639360Y-110051241D01*
X259772811Y-110248687D01*
X259937711Y-110420741D01*
X260129315Y-110562450D01*
X260342113Y-110669741D01*
X260569983Y-110739525D01*
X260616000Y-110745417D01*
X260616000Y-109861881D01*
X260709369Y-109900556D01*
X260866000Y-109921177D01*
X261022631Y-109900556D01*
X261116000Y-109861881D01*
X261116000Y-110744264D01*
X261277436Y-110709473D01*
X261498560Y-110620617D01*
X261701497Y-110495664D01*
X261880394Y-110338215D01*
X262030106Y-110152800D01*
X262146332Y-109944749D01*
X262225726Y-109720042D01*
X262266000Y-109485160D01*
X262266000Y-108516000D01*
X261466000Y-108516000D01*
X261466000Y-108016000D01*
X262266000Y-108016000D01*
X262266000Y-107109158D01*
X262265776Y-107103902D01*
X262250851Y-106928544D01*
X262190801Y-106697916D01*
X262092639Y-106480758D01*
X261959188Y-106283312D01*
X261794288Y-106111258D01*
X261602684Y-105969549D01*
X261389886Y-105862258D01*
X261162017Y-105792474D01*
X261115999Y-105786581D01*
X261115999Y-106670117D01*
X261022631Y-106631444D01*
X260866000Y-106610823D01*
X260709369Y-106631444D01*
X260616000Y-106670118D01*
X260616000Y-105787734D01*
X260615999Y-105787734D01*
X260454565Y-105822526D01*
X260233437Y-105911383D01*
X260030502Y-106036335D01*
X259851605Y-106193784D01*
X259701893Y-106379199D01*
X259585667Y-106587250D01*
X259506273Y-106811957D01*
X259466000Y-107046839D01*
X259465999Y-108015999D01*
X257163067Y-108015999D01*
X257159661Y-107964034D01*
X257100624Y-107667235D01*
X257003352Y-107380680D01*
X256869509Y-107109274D01*
X256858817Y-107093273D01*
X256703644Y-106861040D01*
X256701385Y-106857659D01*
X256698707Y-106854606D01*
X256698703Y-106854600D01*
X256504531Y-106633190D01*
X256501858Y-106630142D01*
X256487089Y-106617190D01*
X256277399Y-106433296D01*
X256277391Y-106433290D01*
X256274341Y-106430615D01*
X256247007Y-106412351D01*
X256026100Y-106264745D01*
X256026095Y-106264742D01*
X256022726Y-106262491D01*
X255948592Y-106225932D01*
X255906301Y-106205076D01*
X255871624Y-106179665D01*
X255799925Y-106104855D01*
X255607157Y-105962285D01*
X255393067Y-105854343D01*
X255163815Y-105784136D01*
X254925995Y-105753682D01*
X254925991Y-105753682D01*
X254686451Y-105763856D01*
X254452066Y-105814370D01*
X254229595Y-105903766D01*
X254112574Y-105975819D01*
X254045167Y-105994206D01*
X253978520Y-105973231D01*
X253959880Y-105957910D01*
X252046000Y-104044030D01*
X252012515Y-103982707D01*
X252010278Y-103968503D01*
X251993908Y-103802302D01*
X251993908Y-103802301D01*
X251993908Y-103802299D01*
X251936241Y-103612196D01*
X251877345Y-103502008D01*
X255353682Y-103502008D01*
X255363856Y-103741548D01*
X255414370Y-103975933D01*
X255503765Y-104198400D01*
X255503767Y-104198404D01*
X255620385Y-104387804D01*
X255629477Y-104402570D01*
X255787880Y-104582550D01*
X255974423Y-104733175D01*
X256164095Y-104839131D01*
X256183740Y-104850105D01*
X256409806Y-104929980D01*
X256409808Y-104929980D01*
X256409810Y-104929981D01*
X256646117Y-104970500D01*
X256646119Y-104970500D01*
X259023196Y-104970500D01*
X259025827Y-104970500D01*
X259204898Y-104955259D01*
X259397117Y-104905209D01*
X259436925Y-104894844D01*
X259581156Y-104829647D01*
X259655402Y-104796086D01*
X259854047Y-104661825D01*
X260027144Y-104495925D01*
X260169715Y-104303157D01*
X260277657Y-104089067D01*
X260347864Y-103859815D01*
X260378318Y-103621995D01*
X260368143Y-103382449D01*
X260317630Y-103148068D01*
X260228233Y-102925596D01*
X260102524Y-102721431D01*
X259944119Y-102541449D01*
X259845941Y-102462175D01*
X259757576Y-102390824D01*
X259548261Y-102273895D01*
X259322189Y-102194018D01*
X259085883Y-102153500D01*
X259085881Y-102153500D01*
X256706173Y-102153500D01*
X256703558Y-102153722D01*
X256703547Y-102153723D01*
X256527103Y-102168740D01*
X256295074Y-102229155D01*
X256076598Y-102327913D01*
X255877953Y-102462174D01*
X255704855Y-102628075D01*
X255562285Y-102820842D01*
X255454343Y-103034932D01*
X255384391Y-103263353D01*
X255384136Y-103264185D01*
X255358321Y-103465783D01*
X255353682Y-103502008D01*
X251877345Y-103502008D01*
X251842595Y-103436996D01*
X251716568Y-103283432D01*
X251563004Y-103157405D01*
X251563003Y-103157404D01*
X251468390Y-103106833D01*
X251387804Y-103063759D01*
X251197701Y-103006092D01*
X251197698Y-103006091D01*
X251000000Y-102986620D01*
X250802301Y-103006091D01*
X250738931Y-103025314D01*
X250612196Y-103063759D01*
X250612192Y-103063760D01*
X250612192Y-103063761D01*
X250436996Y-103157404D01*
X250283432Y-103283432D01*
X250157404Y-103436996D01*
X250063761Y-103612192D01*
X250063759Y-103612196D01*
X250060788Y-103621991D01*
X250006091Y-103802301D01*
X249986620Y-104000000D01*
X250006091Y-104197698D01*
X250006092Y-104197701D01*
X250063759Y-104387804D01*
X250157405Y-104563004D01*
X250283432Y-104716568D01*
X250436996Y-104842595D01*
X250612196Y-104936241D01*
X250802299Y-104993908D01*
X250899879Y-105003518D01*
X250968503Y-105010278D01*
X251033290Y-105036439D01*
X251044030Y-105046000D01*
X252844977Y-106846947D01*
X252878462Y-106908270D01*
X252873478Y-106977962D01*
X252844977Y-107022309D01*
X252239948Y-107627338D01*
X252234028Y-107632883D01*
X252183192Y-107677466D01*
X252183182Y-107677475D01*
X252180142Y-107680142D01*
X252177475Y-107683182D01*
X252177468Y-107683190D01*
X251983296Y-107904599D01*
X251983285Y-107904613D01*
X251980614Y-107907659D01*
X251978355Y-107911039D01*
X251978351Y-107911045D01*
X251880577Y-108057376D01*
X251814745Y-108155899D01*
X251814738Y-108155911D01*
X251812491Y-108159274D01*
X251810701Y-108162902D01*
X251810695Y-108162914D01*
X251680444Y-108427037D01*
X251680441Y-108427043D01*
X251678648Y-108430680D01*
X251677344Y-108434519D01*
X251677342Y-108434526D01*
X251582681Y-108713389D01*
X251581376Y-108717234D01*
X251580585Y-108721206D01*
X251580583Y-108721217D01*
X251523130Y-109010054D01*
X251523128Y-109010063D01*
X251522339Y-109014034D01*
X251522074Y-109018074D01*
X251522074Y-109018076D01*
X251505651Y-109268649D01*
X251502547Y-109316000D01*
X251502812Y-109320043D01*
X251502812Y-109320054D01*
X251507234Y-109387508D01*
X251507500Y-109395618D01*
X251507500Y-119396481D01*
X251487815Y-119463520D01*
X251435011Y-119509275D01*
X251383500Y-119520481D01*
X250112352Y-119520481D01*
X250045313Y-119500796D01*
X249999558Y-119447992D01*
X249988352Y-119396481D01*
X249988352Y-118831580D01*
X249988352Y-118828433D01*
X249979923Y-118745925D01*
X249977739Y-118724551D01*
X249956417Y-118660206D01*
X249921967Y-118556241D01*
X249828883Y-118405328D01*
X249828882Y-118405326D01*
X249703506Y-118279950D01*
X249552592Y-118186866D01*
X249384281Y-118131093D01*
X249283530Y-118120800D01*
X249283514Y-118120799D01*
X249280400Y-118120481D01*
X243879304Y-118120481D01*
X243876190Y-118120799D01*
X243876173Y-118120800D01*
X243775422Y-118131093D01*
X243607111Y-118186866D01*
X243456197Y-118279950D01*
X243330821Y-118405326D01*
X243237737Y-118556240D01*
X243181964Y-118724551D01*
X243171671Y-118825302D01*
X243171670Y-118825319D01*
X243171352Y-118828433D01*
X243171352Y-124829529D01*
X243171670Y-124832643D01*
X243171671Y-124832659D01*
X243181964Y-124933410D01*
X243237737Y-125101721D01*
X243330821Y-125252635D01*
X243456197Y-125378011D01*
X243456199Y-125378012D01*
X243607112Y-125471096D01*
X243719649Y-125508386D01*
X243775422Y-125526868D01*
X243821451Y-125531570D01*
X243879304Y-125537481D01*
X243879307Y-125537481D01*
X244222352Y-125537481D01*
X244289391Y-125557166D01*
X244335146Y-125609970D01*
X244346352Y-125661481D01*
X244346352Y-130350316D01*
X244326667Y-130417355D01*
X244310033Y-130437997D01*
X235808865Y-138939165D01*
X235747542Y-138972650D01*
X235721184Y-138975484D01*
X231329427Y-138975484D01*
X231262388Y-138955799D01*
X231225618Y-138919306D01*
X231164974Y-138826484D01*
X231158060Y-138815901D01*
X231158059Y-138815900D01*
X231158056Y-138815895D01*
X230999969Y-138644168D01*
X230904312Y-138569715D01*
X230815763Y-138500794D01*
X230610473Y-138389697D01*
X230610472Y-138389696D01*
X230610471Y-138389696D01*
X230389699Y-138313903D01*
X230159458Y-138275484D01*
X229926034Y-138275484D01*
X229695792Y-138313903D01*
X229475020Y-138389696D01*
X229269729Y-138500794D01*
X229085526Y-138644165D01*
X228927429Y-138815904D01*
X228895554Y-138864693D01*
X228842408Y-138910050D01*
X228773177Y-138919473D01*
X228709841Y-138889971D01*
X228687938Y-138864693D01*
X228656062Y-138815904D01*
X228656061Y-138815903D01*
X228656060Y-138815901D01*
X228497966Y-138644166D01*
X228477495Y-138628233D01*
X228365161Y-138540799D01*
X228313763Y-138500794D01*
X228313760Y-138500792D01*
X228305654Y-138494483D01*
X228306508Y-138493385D01*
X228264635Y-138451820D01*
X228249246Y-138391991D01*
X228249246Y-130324463D01*
X229936547Y-130324463D01*
X229956339Y-130626429D01*
X229957129Y-130630401D01*
X229957130Y-130630408D01*
X230014583Y-130919245D01*
X230014585Y-130919252D01*
X230015376Y-130923229D01*
X230016681Y-130927073D01*
X230100255Y-131173276D01*
X230112648Y-131209783D01*
X230114443Y-131213424D01*
X230114444Y-131213425D01*
X230197798Y-131382451D01*
X230246491Y-131481189D01*
X230248741Y-131484556D01*
X230248746Y-131484565D01*
X230340571Y-131621991D01*
X230414614Y-131732804D01*
X230417291Y-131735856D01*
X230417296Y-131735863D01*
X230596286Y-131939960D01*
X230614142Y-131960321D01*
X230617190Y-131962994D01*
X230838599Y-132157166D01*
X230838604Y-132157169D01*
X230841659Y-132159849D01*
X230969378Y-132245188D01*
X231089897Y-132325716D01*
X231089899Y-132325717D01*
X231093274Y-132327972D01*
X231364680Y-132461815D01*
X231651234Y-132559087D01*
X231948034Y-132618124D01*
X232174432Y-132632963D01*
X238579433Y-132632963D01*
X238587543Y-132633228D01*
X238740250Y-132643237D01*
X239042216Y-132623445D01*
X239339015Y-132564408D01*
X239625570Y-132467136D01*
X239896976Y-132333293D01*
X240082720Y-132209182D01*
X240149399Y-132188304D01*
X240151612Y-132188284D01*
X240435578Y-132188284D01*
X240438888Y-132188284D01*
X240499451Y-132181773D01*
X240499453Y-132181772D01*
X240499455Y-132181772D01*
X240590680Y-132147746D01*
X240636454Y-132130673D01*
X240753511Y-132043045D01*
X240841139Y-131925988D01*
X240892239Y-131788985D01*
X240898750Y-131728422D01*
X240898750Y-131173275D01*
X240905331Y-131133417D01*
X240911501Y-131115241D01*
X240974874Y-130928550D01*
X241033911Y-130631750D01*
X241053703Y-130329784D01*
X241033911Y-130027818D01*
X240974874Y-129731018D01*
X240905331Y-129526150D01*
X240898750Y-129486292D01*
X240898750Y-129250000D01*
X240898750Y-128931146D01*
X240892239Y-128870583D01*
X240892238Y-128870581D01*
X240892238Y-128870578D01*
X240841139Y-128733580D01*
X240753511Y-128616522D01*
X240636453Y-128528894D01*
X240499455Y-128477795D01*
X240442174Y-128471637D01*
X240442168Y-128471636D01*
X240438888Y-128471284D01*
X240435578Y-128471284D01*
X240154255Y-128471284D01*
X240087216Y-128451599D01*
X240085365Y-128450386D01*
X239895031Y-128323209D01*
X239895022Y-128323204D01*
X239891655Y-128320954D01*
X239888021Y-128319162D01*
X239888016Y-128319159D01*
X239623891Y-128188907D01*
X239623890Y-128188906D01*
X239620249Y-128187111D01*
X239333695Y-128089839D01*
X239329718Y-128089048D01*
X239329711Y-128089046D01*
X239040874Y-128031593D01*
X239040867Y-128031592D01*
X239036895Y-128030802D01*
X238810497Y-128015963D01*
X238734929Y-128011010D01*
X238730886Y-128011275D01*
X238663404Y-128015698D01*
X238655294Y-128015963D01*
X232174432Y-128015963D01*
X232172423Y-128016094D01*
X232172413Y-128016095D01*
X231952076Y-128030537D01*
X231952074Y-128030537D01*
X231948034Y-128030802D01*
X231944063Y-128031591D01*
X231944054Y-128031593D01*
X231655217Y-128089046D01*
X231655206Y-128089048D01*
X231651234Y-128089839D01*
X231647391Y-128091143D01*
X231647389Y-128091144D01*
X231368526Y-128185805D01*
X231368519Y-128185807D01*
X231364680Y-128187111D01*
X231361043Y-128188904D01*
X231361037Y-128188907D01*
X231096912Y-128319159D01*
X231096900Y-128319165D01*
X231093274Y-128320954D01*
X231089912Y-128323199D01*
X231089897Y-128323209D01*
X230845045Y-128486814D01*
X230845039Y-128486818D01*
X230841659Y-128489077D01*
X230838613Y-128491748D01*
X230838599Y-128491759D01*
X230617190Y-128685931D01*
X230617182Y-128685938D01*
X230614142Y-128688605D01*
X230611475Y-128691645D01*
X230611468Y-128691653D01*
X230417295Y-128913064D01*
X230417289Y-128913071D01*
X230414614Y-128916122D01*
X230412360Y-128919494D01*
X230412354Y-128919503D01*
X230248745Y-129164361D01*
X230248737Y-129164373D01*
X230246491Y-129167736D01*
X230244701Y-129171364D01*
X230244695Y-129171376D01*
X230114444Y-129435500D01*
X230114442Y-129435505D01*
X230112648Y-129439143D01*
X230111347Y-129442977D01*
X230111342Y-129442989D01*
X230027218Y-129690811D01*
X230015376Y-129725697D01*
X230014585Y-129729669D01*
X230014583Y-129729680D01*
X229957130Y-130018517D01*
X229957130Y-130018519D01*
X229956339Y-130022497D01*
X229956074Y-130026537D01*
X229956074Y-130026539D01*
X229942293Y-130236796D01*
X229936547Y-130324463D01*
X228249246Y-130324463D01*
X228249246Y-119420195D01*
X228268931Y-119353156D01*
X228308149Y-119314656D01*
X228330806Y-119300681D01*
X228443911Y-119230917D01*
X228569289Y-119105539D01*
X228662374Y-118954625D01*
X228718146Y-118786313D01*
X228728759Y-118682432D01*
X228728758Y-118056343D01*
X228718146Y-117952461D01*
X228662374Y-117784149D01*
X228569289Y-117633235D01*
X228532084Y-117596030D01*
X228480622Y-117544567D01*
X228447138Y-117483243D01*
X228452122Y-117413552D01*
X228480621Y-117369206D01*
X228569289Y-117280539D01*
X228662374Y-117129625D01*
X228718146Y-116961313D01*
X228728759Y-116857432D01*
X228728758Y-116231343D01*
X228718146Y-116127461D01*
X228662374Y-115959149D01*
X228569289Y-115808235D01*
X228569288Y-115808234D01*
X228569287Y-115808232D01*
X228443913Y-115682858D01*
X228349815Y-115624818D01*
X236426797Y-115624818D01*
X236427062Y-115628861D01*
X236427062Y-115628872D01*
X236431484Y-115696326D01*
X236431750Y-115704436D01*
X236431750Y-123033352D01*
X236446589Y-123259750D01*
X236447379Y-123263722D01*
X236447380Y-123263729D01*
X236504833Y-123552566D01*
X236504835Y-123552573D01*
X236505626Y-123556550D01*
X236546886Y-123678097D01*
X236575169Y-123761417D01*
X236581750Y-123801276D01*
X236581749Y-124353112D01*
X236581750Y-124353130D01*
X236581750Y-124356422D01*
X236582102Y-124359702D01*
X236582103Y-124359708D01*
X236588261Y-124416989D01*
X236639360Y-124553987D01*
X236726988Y-124671045D01*
X236844046Y-124758673D01*
X236981044Y-124809772D01*
X236981047Y-124809772D01*
X236981049Y-124809773D01*
X237041612Y-124816284D01*
X237328887Y-124816284D01*
X237395926Y-124835969D01*
X237397779Y-124837182D01*
X237583523Y-124961293D01*
X237854930Y-125095136D01*
X238141484Y-125192408D01*
X238438284Y-125251445D01*
X238740250Y-125271237D01*
X239042216Y-125251445D01*
X239339016Y-125192408D01*
X239625570Y-125095136D01*
X239896976Y-124961293D01*
X240082721Y-124837182D01*
X240149400Y-124816304D01*
X240151613Y-124816284D01*
X240435578Y-124816284D01*
X240438888Y-124816284D01*
X240499451Y-124809773D01*
X240499453Y-124809772D01*
X240499455Y-124809772D01*
X240577374Y-124780708D01*
X240636454Y-124758673D01*
X240753511Y-124671045D01*
X240841139Y-124553988D01*
X240892239Y-124416985D01*
X240898750Y-124356422D01*
X240898750Y-123801276D01*
X240905331Y-123761417D01*
X240974874Y-123556550D01*
X241033911Y-123259750D01*
X241048750Y-123033352D01*
X241048750Y-117961481D01*
X241068435Y-117894442D01*
X241121239Y-117848687D01*
X241172750Y-117837481D01*
X244373390Y-117837481D01*
X244375420Y-117837481D01*
X244601818Y-117822642D01*
X244898618Y-117763605D01*
X245185172Y-117666333D01*
X245456578Y-117532490D01*
X245708193Y-117364367D01*
X245935710Y-117164839D01*
X246135238Y-116937322D01*
X246303361Y-116685708D01*
X246437204Y-116414301D01*
X246534476Y-116127747D01*
X246593513Y-115830947D01*
X246613305Y-115528981D01*
X246593513Y-115227015D01*
X246534476Y-114930215D01*
X246437204Y-114643661D01*
X246303361Y-114372255D01*
X246201789Y-114220241D01*
X246180912Y-114153566D01*
X246199397Y-114086186D01*
X246251376Y-114039496D01*
X246320346Y-114028320D01*
X246384409Y-114056206D01*
X246392573Y-114063672D01*
X247715033Y-115386132D01*
X247748518Y-115447455D01*
X247751352Y-115473813D01*
X247751352Y-116426376D01*
X247751352Y-116426395D01*
X247751353Y-116429525D01*
X247751672Y-116432656D01*
X247751673Y-116432659D01*
X247761964Y-116533406D01*
X247817736Y-116701717D01*
X247910823Y-116852635D01*
X248036197Y-116978009D01*
X248036199Y-116978010D01*
X248036200Y-116978011D01*
X248187114Y-117071096D01*
X248271270Y-117098982D01*
X248355425Y-117126868D01*
X248401454Y-117131570D01*
X248459307Y-117137481D01*
X249260396Y-117137480D01*
X249364278Y-117126868D01*
X249532590Y-117071096D01*
X249683504Y-116978011D01*
X249808882Y-116852633D01*
X249901967Y-116701719D01*
X249957739Y-116533407D01*
X249968352Y-116429526D01*
X249968351Y-114628437D01*
X249957739Y-114524555D01*
X249901967Y-114356243D01*
X249808882Y-114205329D01*
X249808881Y-114205328D01*
X249808880Y-114205326D01*
X249683506Y-114079952D01*
X249532588Y-113986865D01*
X249364278Y-113931093D01*
X249263527Y-113920800D01*
X249263511Y-113920799D01*
X249260397Y-113920481D01*
X249257249Y-113920481D01*
X248462456Y-113920481D01*
X248462436Y-113920481D01*
X248459308Y-113920482D01*
X248456177Y-113920801D01*
X248456173Y-113920802D01*
X248341915Y-113932474D01*
X248341704Y-113930413D01*
X248289472Y-113932207D01*
X248232623Y-113899782D01*
X246675819Y-112342978D01*
X246642334Y-112281655D01*
X246647318Y-112211963D01*
X246689190Y-112156030D01*
X246754654Y-112131613D01*
X246789281Y-112134007D01*
X246904511Y-112158500D01*
X246904513Y-112158500D01*
X247095489Y-112158500D01*
X247282285Y-112118795D01*
X247282286Y-112118794D01*
X247282288Y-112118794D01*
X247456752Y-112041118D01*
X247611253Y-111928866D01*
X247739040Y-111786944D01*
X247768765Y-111735460D01*
X247834527Y-111621556D01*
X247856402Y-111554231D01*
X247893542Y-111439928D01*
X247913504Y-111250000D01*
X247893542Y-111060072D01*
X247834527Y-110878444D01*
X247834527Y-110878443D01*
X247739042Y-110713058D01*
X247680131Y-110647631D01*
X247611253Y-110571134D01*
X247456752Y-110458882D01*
X247456751Y-110458881D01*
X247282285Y-110381204D01*
X247095489Y-110341500D01*
X247095487Y-110341500D01*
X246904513Y-110341500D01*
X246904511Y-110341500D01*
X246717714Y-110381204D01*
X246543247Y-110458881D01*
X246418117Y-110549795D01*
X246352310Y-110573275D01*
X246345231Y-110573477D01*
X246090577Y-110573477D01*
X246023538Y-110553792D01*
X245977783Y-110500988D01*
X245966577Y-110449477D01*
X245966577Y-110379850D01*
X245983845Y-110316729D01*
X245986515Y-110312214D01*
X246038346Y-110224573D01*
X246083706Y-110068443D01*
X246086577Y-110031966D01*
X246086576Y-109531989D01*
X246083706Y-109495511D01*
X246038346Y-109339381D01*
X245955583Y-109199436D01*
X245840618Y-109084471D01*
X245728350Y-109018076D01*
X245700672Y-109001707D01*
X245544546Y-108956348D01*
X245510498Y-108953668D01*
X245510487Y-108953667D01*
X245508066Y-108953477D01*
X245505622Y-108953477D01*
X245120577Y-108953477D01*
X245053538Y-108933792D01*
X245007783Y-108880988D01*
X244996577Y-108829477D01*
X244996577Y-106806753D01*
X245016262Y-106739714D01*
X245032891Y-106719077D01*
X246705970Y-105045998D01*
X246767291Y-105012515D01*
X246781495Y-105010278D01*
X246787363Y-105009700D01*
X246947701Y-104993908D01*
X247137804Y-104936241D01*
X247313004Y-104842595D01*
X247466568Y-104716568D01*
X247592595Y-104563004D01*
X247686241Y-104387804D01*
X247743908Y-104197701D01*
X247763380Y-104000000D01*
X247743908Y-103802299D01*
X247686241Y-103612196D01*
X247592595Y-103436996D01*
X247466568Y-103283432D01*
X247313004Y-103157405D01*
X247313003Y-103157404D01*
X247218390Y-103106833D01*
X247137804Y-103063759D01*
X246947701Y-103006092D01*
X246947698Y-103006091D01*
X246774247Y-102989008D01*
X246750000Y-102986620D01*
X246749999Y-102986620D01*
X246552301Y-103006091D01*
X246488931Y-103025314D01*
X246362196Y-103063759D01*
X246362192Y-103063760D01*
X246362192Y-103063761D01*
X246186996Y-103157404D01*
X246033432Y-103283432D01*
X245907404Y-103436996D01*
X245813761Y-103612192D01*
X245813759Y-103612196D01*
X245810788Y-103621991D01*
X245756091Y-103802302D01*
X245739722Y-103968501D01*
X245713561Y-104033289D01*
X245704000Y-104044028D01*
X243804881Y-105943147D01*
X243799429Y-105948280D01*
X243753860Y-105988651D01*
X243719278Y-106038750D01*
X243714842Y-106044779D01*
X243677302Y-106092696D01*
X243673041Y-106102163D01*
X243662023Y-106121698D01*
X243656122Y-106130248D01*
X243634534Y-106187168D01*
X243631670Y-106194084D01*
X243606687Y-106249594D01*
X243604815Y-106259812D01*
X243598791Y-106281419D01*
X243595112Y-106291119D01*
X243587773Y-106351555D01*
X243586646Y-106358954D01*
X243575674Y-106418828D01*
X243579351Y-106479597D01*
X243579577Y-106487084D01*
X243579577Y-109268649D01*
X243562310Y-109331768D01*
X243557807Y-109339381D01*
X243512448Y-109495507D01*
X243512448Y-109495511D01*
X243509577Y-109531988D01*
X243509577Y-109534431D01*
X243509577Y-109534432D01*
X243509577Y-110029543D01*
X243509577Y-110029568D01*
X243509578Y-110031965D01*
X243509766Y-110034358D01*
X243509767Y-110034376D01*
X243512448Y-110068444D01*
X243557807Y-110224574D01*
X243572309Y-110249095D01*
X243589576Y-110312214D01*
X243589576Y-110765373D01*
X243572310Y-110828491D01*
X243558182Y-110852380D01*
X243512471Y-111009719D01*
X243512471Y-111009723D01*
X243509577Y-111046493D01*
X243509577Y-111517461D01*
X243509767Y-111519882D01*
X243509768Y-111519893D01*
X243512471Y-111554234D01*
X243558183Y-111711575D01*
X243572308Y-111735460D01*
X243589576Y-111798580D01*
X243589577Y-113096481D01*
X243569892Y-113163520D01*
X243517089Y-113209275D01*
X243465577Y-113220481D01*
X238915722Y-113220481D01*
X238907612Y-113220216D01*
X238840130Y-113215793D01*
X238836087Y-113215528D01*
X238832044Y-113215793D01*
X238760519Y-113220481D01*
X238538163Y-113235055D01*
X238538161Y-113235055D01*
X238534121Y-113235320D01*
X238530150Y-113236109D01*
X238530141Y-113236111D01*
X238241304Y-113293564D01*
X238241293Y-113293566D01*
X238237321Y-113294357D01*
X238233478Y-113295661D01*
X238233476Y-113295662D01*
X237954613Y-113390323D01*
X237954611Y-113390324D01*
X237950767Y-113391629D01*
X237947130Y-113393422D01*
X237947124Y-113393425D01*
X237682999Y-113523677D01*
X237682987Y-113523683D01*
X237679361Y-113525472D01*
X237675999Y-113527717D01*
X237675984Y-113527727D01*
X237431132Y-113691332D01*
X237431126Y-113691336D01*
X237427746Y-113693595D01*
X237424700Y-113696266D01*
X237424686Y-113696277D01*
X237379910Y-113735546D01*
X237316528Y-113764949D01*
X237298151Y-113766318D01*
X237041612Y-113766318D01*
X237038332Y-113766670D01*
X237038325Y-113766671D01*
X236981044Y-113772829D01*
X236844046Y-113823928D01*
X236726988Y-113911556D01*
X236639360Y-114028614D01*
X236588261Y-114165612D01*
X236582388Y-114220244D01*
X236581750Y-114226180D01*
X236581750Y-114229470D01*
X236581749Y-114229489D01*
X236581750Y-114781326D01*
X236575169Y-114821184D01*
X236506934Y-115022197D01*
X236506931Y-115022205D01*
X236505626Y-115026052D01*
X236504834Y-115030030D01*
X236504831Y-115030044D01*
X236447380Y-115318872D01*
X236447378Y-115318881D01*
X236446589Y-115322852D01*
X236446324Y-115326892D01*
X236446324Y-115326894D01*
X236432750Y-115534000D01*
X236426797Y-115624818D01*
X228349815Y-115624818D01*
X228343254Y-115620771D01*
X228292997Y-115589772D01*
X228292996Y-115589771D01*
X228292995Y-115589771D01*
X228124685Y-115533999D01*
X228023934Y-115523706D01*
X228023918Y-115523705D01*
X228020804Y-115523387D01*
X228017656Y-115523387D01*
X227022863Y-115523387D01*
X227022843Y-115523387D01*
X227019715Y-115523388D01*
X227016584Y-115523707D01*
X227016580Y-115523708D01*
X226915833Y-115533999D01*
X226747522Y-115589771D01*
X226596606Y-115682857D01*
X226562919Y-115716545D01*
X226499236Y-115780227D01*
X226437916Y-115813711D01*
X226411557Y-115816545D01*
X225095659Y-115816545D01*
X225032539Y-115799277D01*
X224976101Y-115765900D01*
X224976098Y-115765898D01*
X224816334Y-115719483D01*
X224781434Y-115716736D01*
X224781423Y-115716735D01*
X224779002Y-115716545D01*
X224776557Y-115716545D01*
X223620000Y-115716545D01*
X223552961Y-115696860D01*
X223507206Y-115644056D01*
X223496000Y-115592545D01*
X223496000Y-115360988D01*
X223496000Y-115358543D01*
X223493062Y-115321214D01*
X223446645Y-115161444D01*
X223366574Y-115026052D01*
X223361952Y-115018236D01*
X223244308Y-114900592D01*
X223101100Y-114815899D01*
X222941334Y-114769483D01*
X222906434Y-114766736D01*
X222906423Y-114766735D01*
X222904002Y-114766545D01*
X221595998Y-114766545D01*
X221593577Y-114766735D01*
X221593565Y-114766736D01*
X221558665Y-114769483D01*
X221398901Y-114815898D01*
X221379136Y-114827587D01*
X221359369Y-114839277D01*
X221296250Y-114856545D01*
X220013328Y-114856545D01*
X219950207Y-114839277D01*
X219942595Y-114834775D01*
X219786469Y-114789416D01*
X219752421Y-114786736D01*
X219752410Y-114786735D01*
X219749989Y-114786545D01*
X219747544Y-114786545D01*
X219252433Y-114786545D01*
X219252407Y-114786545D01*
X219250012Y-114786546D01*
X219247619Y-114786734D01*
X219247600Y-114786735D01*
X219213532Y-114789416D01*
X219057404Y-114834775D01*
X219049793Y-114839277D01*
X218986672Y-114856545D01*
X218372517Y-114856545D01*
X218305478Y-114836860D01*
X218259723Y-114784056D01*
X218249779Y-114714898D01*
X218278804Y-114651342D01*
X218284836Y-114644864D01*
X223185776Y-109743925D01*
X224679701Y-108250000D01*
X229936548Y-108250000D01*
X229956340Y-108551966D01*
X229957130Y-108555938D01*
X229957131Y-108555945D01*
X230014584Y-108844782D01*
X230014586Y-108844789D01*
X230015377Y-108848766D01*
X230050922Y-108953477D01*
X230109998Y-109127512D01*
X230112649Y-109135320D01*
X230114444Y-109138961D01*
X230114445Y-109138962D01*
X230244027Y-109401729D01*
X230246492Y-109406726D01*
X230248742Y-109410093D01*
X230248747Y-109410102D01*
X230388053Y-109618588D01*
X230414615Y-109658341D01*
X230417292Y-109661393D01*
X230417297Y-109661400D01*
X230611469Y-109882809D01*
X230614143Y-109885858D01*
X230617191Y-109888531D01*
X230838600Y-110082703D01*
X230838605Y-110082706D01*
X230841660Y-110085386D01*
X230942553Y-110152800D01*
X231089898Y-110251253D01*
X231089902Y-110251255D01*
X231093275Y-110253509D01*
X231364681Y-110387352D01*
X231651235Y-110484624D01*
X231948035Y-110543661D01*
X232174433Y-110558500D01*
X238617630Y-110558500D01*
X238625740Y-110558765D01*
X238740250Y-110566270D01*
X239042216Y-110546479D01*
X239339015Y-110487442D01*
X239625570Y-110390170D01*
X239896976Y-110256327D01*
X240082720Y-110132216D01*
X240149399Y-110111338D01*
X240151612Y-110111318D01*
X240435578Y-110111318D01*
X240438888Y-110111318D01*
X240499451Y-110104807D01*
X240499453Y-110104806D01*
X240499455Y-110104806D01*
X240577374Y-110075742D01*
X240636454Y-110053707D01*
X240753511Y-109966079D01*
X240841139Y-109849022D01*
X240892239Y-109712019D01*
X240898750Y-109651456D01*
X240898750Y-109096307D01*
X240905331Y-109056449D01*
X240923913Y-109001708D01*
X240974873Y-108851584D01*
X241033911Y-108554784D01*
X241053702Y-108252818D01*
X241033911Y-107950851D01*
X240974873Y-107654052D01*
X240905329Y-107449179D01*
X240898750Y-107409327D01*
X240898750Y-106857489D01*
X240898750Y-106857488D01*
X240898750Y-106854180D01*
X240892239Y-106793617D01*
X240892238Y-106793615D01*
X240892238Y-106793612D01*
X240841139Y-106656614D01*
X240753511Y-106539556D01*
X240636453Y-106451928D01*
X240499455Y-106400829D01*
X240442174Y-106394671D01*
X240442168Y-106394670D01*
X240438888Y-106394318D01*
X240435578Y-106394318D01*
X240153012Y-106394318D01*
X240085973Y-106374633D01*
X240084122Y-106373420D01*
X239897534Y-106248747D01*
X239894158Y-106246491D01*
X239890524Y-106244699D01*
X239890519Y-106244696D01*
X239626394Y-106114444D01*
X239626393Y-106114443D01*
X239622752Y-106112648D01*
X239618657Y-106111258D01*
X239414126Y-106041829D01*
X239336198Y-106015376D01*
X239332221Y-106014585D01*
X239332214Y-106014583D01*
X239043377Y-105957130D01*
X239043370Y-105957129D01*
X239039398Y-105956339D01*
X238813000Y-105941500D01*
X238737432Y-105936547D01*
X238733389Y-105936812D01*
X238665907Y-105941235D01*
X238657797Y-105941500D01*
X232174433Y-105941500D01*
X232172424Y-105941631D01*
X232172414Y-105941632D01*
X231952077Y-105956074D01*
X231952075Y-105956074D01*
X231948035Y-105956339D01*
X231944064Y-105957128D01*
X231944055Y-105957130D01*
X231655218Y-106014583D01*
X231655207Y-106014585D01*
X231651235Y-106015376D01*
X231647392Y-106016680D01*
X231647390Y-106016681D01*
X231368527Y-106111342D01*
X231368520Y-106111344D01*
X231364681Y-106112648D01*
X231361044Y-106114441D01*
X231361038Y-106114444D01*
X231096913Y-106244696D01*
X231096901Y-106244702D01*
X231093275Y-106246491D01*
X231089913Y-106248736D01*
X231089898Y-106248746D01*
X230845046Y-106412351D01*
X230845040Y-106412355D01*
X230841660Y-106414614D01*
X230838614Y-106417285D01*
X230838600Y-106417296D01*
X230617191Y-106611468D01*
X230617183Y-106611475D01*
X230614143Y-106614142D01*
X230611476Y-106617182D01*
X230611469Y-106617190D01*
X230417296Y-106838601D01*
X230417290Y-106838608D01*
X230414615Y-106841659D01*
X230412361Y-106845031D01*
X230412355Y-106845040D01*
X230248746Y-107089898D01*
X230248738Y-107089910D01*
X230246492Y-107093273D01*
X230244702Y-107096901D01*
X230244696Y-107096913D01*
X230114445Y-107361037D01*
X230114442Y-107361043D01*
X230112649Y-107364680D01*
X230111345Y-107368519D01*
X230111343Y-107368526D01*
X230018238Y-107642806D01*
X230015377Y-107651234D01*
X230014586Y-107655206D01*
X230014584Y-107655217D01*
X229957131Y-107944054D01*
X229957129Y-107944063D01*
X229956340Y-107948034D01*
X229956075Y-107952074D01*
X229956075Y-107952076D01*
X229942256Y-108162914D01*
X229936548Y-108250000D01*
X224679701Y-108250000D01*
X228184881Y-104744819D01*
X228246205Y-104711334D01*
X228272563Y-104708500D01*
X241729233Y-104708500D01*
X241796272Y-104728185D01*
X241807898Y-104736647D01*
X241936996Y-104842595D01*
X242112196Y-104936241D01*
X242302299Y-104993908D01*
X242500000Y-105013380D01*
X242697701Y-104993908D01*
X242887804Y-104936241D01*
X243063004Y-104842595D01*
X243216568Y-104716568D01*
X243342595Y-104563004D01*
X243436241Y-104387804D01*
X243493908Y-104197701D01*
X243513380Y-104000000D01*
X243493908Y-103802299D01*
X243436241Y-103612196D01*
X243342595Y-103436996D01*
X243216568Y-103283432D01*
X243063004Y-103157405D01*
X243063003Y-103157404D01*
X242968390Y-103106833D01*
X242887804Y-103063759D01*
X242697701Y-103006092D01*
X242697698Y-103006091D01*
X242500000Y-102986620D01*
X242302301Y-103006091D01*
X242238931Y-103025314D01*
X242112196Y-103063759D01*
X242112192Y-103063760D01*
X242112192Y-103063761D01*
X241936996Y-103157404D01*
X241807898Y-103263353D01*
X241743588Y-103290666D01*
X241729233Y-103291500D01*
X227952882Y-103291500D01*
X227945396Y-103291274D01*
X227884635Y-103287598D01*
X227824769Y-103298569D01*
X227817367Y-103299696D01*
X227756927Y-103307035D01*
X227747219Y-103310717D01*
X227725609Y-103316741D01*
X227715399Y-103318612D01*
X227659886Y-103343595D01*
X227652971Y-103346459D01*
X227596053Y-103368046D01*
X227587504Y-103373947D01*
X227567969Y-103384965D01*
X227558504Y-103389225D01*
X227510591Y-103426761D01*
X227504564Y-103431196D01*
X227454458Y-103465783D01*
X227414095Y-103511343D01*
X227408962Y-103516795D01*
X216256804Y-114668954D01*
X216251352Y-114674087D01*
X216205783Y-114714458D01*
X216171201Y-114764557D01*
X216166765Y-114770586D01*
X216129225Y-114818503D01*
X216124964Y-114827970D01*
X216113946Y-114847505D01*
X216108045Y-114856055D01*
X216086457Y-114912975D01*
X216083593Y-114919891D01*
X216058610Y-114975401D01*
X216056738Y-114985619D01*
X216050714Y-115007226D01*
X216047035Y-115016926D01*
X216039696Y-115077362D01*
X216038569Y-115084761D01*
X216027597Y-115144635D01*
X216031274Y-115205404D01*
X216031500Y-115212891D01*
X216031500Y-115964837D01*
X216031274Y-115972324D01*
X216027597Y-116033095D01*
X216038569Y-116092970D01*
X216039696Y-116100369D01*
X216047035Y-116160802D01*
X216050713Y-116170500D01*
X216056738Y-116192111D01*
X216058611Y-116202329D01*
X216083597Y-116257848D01*
X216086463Y-116264766D01*
X216098048Y-116295314D01*
X216108047Y-116321677D01*
X216113941Y-116330216D01*
X216124964Y-116349760D01*
X216129224Y-116359225D01*
X216166761Y-116407137D01*
X216171200Y-116413170D01*
X216205782Y-116463270D01*
X216205784Y-116463272D01*
X216205785Y-116463273D01*
X216251370Y-116503658D01*
X216256805Y-116508775D01*
X216332871Y-116584841D01*
X216366356Y-116646164D01*
X216361372Y-116715856D01*
X216332871Y-116760203D01*
X214976804Y-118116269D01*
X214971352Y-118121402D01*
X214925783Y-118161773D01*
X214891201Y-118211872D01*
X214886765Y-118217901D01*
X214849225Y-118265818D01*
X214844964Y-118275285D01*
X214833946Y-118294820D01*
X214828045Y-118303370D01*
X214806457Y-118360290D01*
X214803593Y-118367206D01*
X214778610Y-118422716D01*
X214776738Y-118432934D01*
X214770714Y-118454541D01*
X214767035Y-118464241D01*
X214759696Y-118524677D01*
X214758569Y-118532076D01*
X214747597Y-118591950D01*
X214751274Y-118652719D01*
X214751500Y-118660206D01*
X214751500Y-138269333D01*
X214731815Y-138336372D01*
X214703663Y-138367186D01*
X214536760Y-138497093D01*
X214384277Y-138662732D01*
X214293809Y-138801205D01*
X214240663Y-138846562D01*
X214171431Y-138855986D01*
X214108095Y-138826484D01*
X214086191Y-138801205D01*
X213995722Y-138662732D01*
X213942998Y-138605459D01*
X213843240Y-138497094D01*
X213665576Y-138358811D01*
X213467574Y-138251658D01*
X213467573Y-138251657D01*
X213467572Y-138251657D01*
X213254636Y-138178556D01*
X213032569Y-138141500D01*
X212807431Y-138141500D01*
X212585363Y-138178556D01*
X212372427Y-138251657D01*
X212174424Y-138358811D01*
X211996760Y-138497094D01*
X211844279Y-138662730D01*
X211721138Y-138851211D01*
X211630705Y-139057381D01*
X211575435Y-139275636D01*
X211556843Y-139500000D01*
X203803609Y-139500000D01*
X203999121Y-139357951D01*
X203999122Y-139357951D01*
X203211161Y-138569990D01*
X203324504Y-138490627D01*
X203485350Y-138329781D01*
X203564713Y-138216437D01*
X204350374Y-139002098D01*
X204428685Y-138907439D01*
X204433256Y-138901147D01*
X204590895Y-138652747D01*
X204594637Y-138645941D01*
X204719906Y-138379730D01*
X204722766Y-138372506D01*
X204813678Y-138092710D01*
X204815614Y-138085171D01*
X204870741Y-137796185D01*
X204871715Y-137788465D01*
X204890188Y-137494859D01*
X204890188Y-137487070D01*
X204871715Y-137193464D01*
X204870741Y-137185744D01*
X204815614Y-136896758D01*
X204813678Y-136889219D01*
X204722766Y-136609423D01*
X204719906Y-136602199D01*
X204594637Y-136335988D01*
X204590895Y-136329182D01*
X204433257Y-136080783D01*
X204428681Y-136074485D01*
X204350374Y-135979829D01*
X203564713Y-136765490D01*
X203485350Y-136652149D01*
X203324504Y-136491303D01*
X203211159Y-136411938D01*
X203999122Y-135623977D01*
X203777367Y-135462862D01*
X203770796Y-135458692D01*
X203512993Y-135316964D01*
X203505954Y-135313651D01*
X203232417Y-135205351D01*
X203225022Y-135202948D01*
X202940062Y-135129782D01*
X202932431Y-135128327D01*
X202640547Y-135091453D01*
X202632789Y-135090965D01*
X202338587Y-135090965D01*
X202330828Y-135091453D01*
X202038944Y-135128327D01*
X202031313Y-135129782D01*
X201746353Y-135202948D01*
X201738958Y-135205351D01*
X201465421Y-135313651D01*
X201458382Y-135316964D01*
X201200587Y-135458688D01*
X201193997Y-135462870D01*
X200972253Y-135623976D01*
X200972252Y-135623977D01*
X201760214Y-136411939D01*
X201646872Y-136491303D01*
X201486026Y-136652149D01*
X201406662Y-136765491D01*
X200621000Y-135979829D01*
X200542683Y-136074499D01*
X200538122Y-136080777D01*
X200380480Y-136329182D01*
X200376738Y-136335988D01*
X200251469Y-136602199D01*
X200248609Y-136609423D01*
X200157697Y-136889219D01*
X200155761Y-136896758D01*
X200100634Y-137185744D01*
X200099660Y-137193464D01*
X200081188Y-137487070D01*
X200081188Y-137494859D01*
X186000500Y-137494859D01*
X186000500Y-130290965D01*
X200072426Y-130290965D01*
X200091455Y-130593427D01*
X200092182Y-130597239D01*
X200092184Y-130597253D01*
X200145291Y-130875646D01*
X200148243Y-130891119D01*
X200241894Y-131179346D01*
X200243551Y-131182869D01*
X200243553Y-131182872D01*
X200369271Y-131450039D01*
X200369276Y-131450048D01*
X200370930Y-131453563D01*
X200533318Y-131709445D01*
X200535791Y-131712435D01*
X200535793Y-131712437D01*
X200552642Y-131732804D01*
X200726496Y-131942957D01*
X200729333Y-131945621D01*
X200944574Y-132147746D01*
X200944580Y-132147751D01*
X200947417Y-132150415D01*
X201192598Y-132328549D01*
X201196005Y-132330422D01*
X201431737Y-132460018D01*
X201458171Y-132474550D01*
X201739949Y-132586114D01*
X202033488Y-132661481D01*
X202334158Y-132699465D01*
X202338052Y-132699465D01*
X202633324Y-132699465D01*
X202637218Y-132699465D01*
X202937888Y-132661481D01*
X203164253Y-132603361D01*
X203195091Y-132599465D01*
X209216018Y-132599465D01*
X209240209Y-132601848D01*
X209322033Y-132618124D01*
X209624000Y-132637915D01*
X209925966Y-132618124D01*
X210222765Y-132559087D01*
X210509320Y-132461815D01*
X210780726Y-132327972D01*
X211032341Y-132159848D01*
X211259858Y-131960321D01*
X211459385Y-131732804D01*
X211627509Y-131481189D01*
X211761352Y-131209783D01*
X211858623Y-130923229D01*
X211917661Y-130626429D01*
X211937452Y-130324463D01*
X211917661Y-130022496D01*
X211858623Y-129725697D01*
X211761352Y-129439142D01*
X211631288Y-129175399D01*
X211618500Y-129120555D01*
X211618500Y-123474000D01*
X211638185Y-123406961D01*
X211690989Y-123361206D01*
X211742500Y-123350000D01*
X212000000Y-123350000D01*
X212000000Y-122435501D01*
X212107685Y-122484680D01*
X212214237Y-122500000D01*
X212285763Y-122500000D01*
X212392315Y-122484680D01*
X212499999Y-122435501D01*
X212499999Y-123349999D01*
X212500000Y-123350000D01*
X213144518Y-123350000D01*
X213151132Y-123349645D01*
X213207371Y-123343599D01*
X213342089Y-123293352D01*
X213457188Y-123207188D01*
X213543352Y-123092089D01*
X213593599Y-122957371D01*
X213599645Y-122901132D01*
X213600000Y-122894518D01*
X213600000Y-122250000D01*
X212683686Y-122250000D01*
X212709493Y-122209844D01*
X212750000Y-122071889D01*
X212750000Y-121928111D01*
X212709493Y-121790156D01*
X212683686Y-121750000D01*
X213600000Y-121750000D01*
X213600000Y-121105481D01*
X213599645Y-121098867D01*
X213593599Y-121042628D01*
X213543352Y-120907910D01*
X213457188Y-120792811D01*
X213342089Y-120706647D01*
X213207371Y-120656400D01*
X213151132Y-120650354D01*
X213144518Y-120650000D01*
X212500000Y-120650000D01*
X212499999Y-121564498D01*
X212392315Y-121515320D01*
X212285763Y-121500000D01*
X212214237Y-121500000D01*
X212107685Y-121515320D01*
X212000000Y-121564498D01*
X212000000Y-120650000D01*
X211355482Y-120650000D01*
X211348867Y-120650354D01*
X211292626Y-120656400D01*
X211202468Y-120690028D01*
X211132777Y-120695012D01*
X211073070Y-120663114D01*
X210934084Y-120529115D01*
X210706869Y-120366556D01*
X210458419Y-120238820D01*
X210194016Y-120148617D01*
X209919293Y-120097874D01*
X209640111Y-120087671D01*
X209362418Y-120118226D01*
X209092135Y-120188886D01*
X208908942Y-120266736D01*
X208835019Y-120298150D01*
X208731613Y-120361258D01*
X208596549Y-120443686D01*
X208381818Y-120622387D01*
X208381816Y-120622389D01*
X208291655Y-120723015D01*
X208195386Y-120830457D01*
X208041240Y-121063451D01*
X207922663Y-121316396D01*
X207875402Y-121473487D01*
X207842176Y-121583925D01*
X207806896Y-121823654D01*
X207801500Y-121860318D01*
X207801500Y-127858465D01*
X207781815Y-127925504D01*
X207729011Y-127971259D01*
X207677500Y-127982465D01*
X203195091Y-127982465D01*
X203164254Y-127978569D01*
X202941666Y-127921419D01*
X202941665Y-127921418D01*
X202937888Y-127920449D01*
X202934025Y-127919961D01*
X202934020Y-127919960D01*
X202641082Y-127882953D01*
X202641079Y-127882952D01*
X202637218Y-127882465D01*
X202334158Y-127882465D01*
X202330297Y-127882952D01*
X202330293Y-127882953D01*
X202037355Y-127919960D01*
X202037347Y-127919961D01*
X202033488Y-127920449D01*
X202029713Y-127921418D01*
X202029709Y-127921419D01*
X201743728Y-127994845D01*
X201743717Y-127994848D01*
X201739949Y-127995816D01*
X201736331Y-127997248D01*
X201736323Y-127997251D01*
X201461789Y-128105947D01*
X201461781Y-128105950D01*
X201458171Y-128107380D01*
X201454776Y-128109246D01*
X201454762Y-128109253D01*
X201196005Y-128251507D01*
X201195993Y-128251514D01*
X201192598Y-128253381D01*
X201189454Y-128255664D01*
X201189448Y-128255669D01*
X200950573Y-128429221D01*
X200950562Y-128429229D01*
X200947417Y-128431515D01*
X200944589Y-128434170D01*
X200944574Y-128434183D01*
X200729333Y-128636308D01*
X200729325Y-128636315D01*
X200726496Y-128638973D01*
X200724021Y-128641964D01*
X200724017Y-128641969D01*
X200535793Y-128869492D01*
X200535785Y-128869502D01*
X200533318Y-128872485D01*
X200531242Y-128875755D01*
X200531237Y-128875763D01*
X200373015Y-129125081D01*
X200370930Y-129128367D01*
X200369279Y-129131874D01*
X200369271Y-129131890D01*
X200243553Y-129399057D01*
X200243549Y-129399065D01*
X200241894Y-129402584D01*
X200240690Y-129406289D01*
X200240689Y-129406292D01*
X200214696Y-129486292D01*
X200148243Y-129690811D01*
X200147514Y-129694631D01*
X200147512Y-129694640D01*
X200092184Y-129984676D01*
X200092181Y-129984692D01*
X200091455Y-129988503D01*
X200091210Y-129992394D01*
X200091210Y-129992396D01*
X200088727Y-130031860D01*
X200072426Y-130290965D01*
X186000500Y-130290965D01*
X186000500Y-126890964D01*
X194910319Y-126890964D01*
X194910320Y-126890965D01*
X195819577Y-126890965D01*
X195780078Y-126915422D01*
X195712487Y-127004927D01*
X195681793Y-127112805D01*
X195692142Y-127224486D01*
X195742136Y-127324887D01*
X195814619Y-127390965D01*
X194914430Y-127390965D01*
X194941458Y-127502375D01*
X195028727Y-127693470D01*
X195150580Y-127864586D01*
X195302621Y-128009557D01*
X195479343Y-128123131D01*
X195674373Y-128201209D01*
X195880650Y-128240965D01*
X196235688Y-128240965D01*
X196235688Y-127440965D01*
X196735688Y-127440965D01*
X196735688Y-128240965D01*
X197035138Y-128240965D01*
X197041047Y-128240683D01*
X197194808Y-128226000D01*
X197396375Y-128166815D01*
X197583100Y-128070552D01*
X197748226Y-127940695D01*
X197885799Y-127781928D01*
X197987267Y-127606180D01*
X205862043Y-127606180D01*
X206416546Y-127606180D01*
X206416547Y-127077390D01*
X206916546Y-127077390D01*
X206916547Y-127606180D01*
X207471051Y-127606180D01*
X207428578Y-127459983D01*
X207346265Y-127320800D01*
X207231926Y-127206461D01*
X207092741Y-127124147D01*
X206937464Y-127079035D01*
X206916547Y-127077389D01*
X206916546Y-127077390D01*
X206416547Y-127077390D01*
X206416546Y-127077389D01*
X206395629Y-127079035D01*
X206240352Y-127124147D01*
X206101167Y-127206461D01*
X205986828Y-127320800D01*
X205904515Y-127459983D01*
X205862043Y-127606180D01*
X197987267Y-127606180D01*
X197990835Y-127600000D01*
X198059544Y-127401476D01*
X198061056Y-127390965D01*
X197151799Y-127390965D01*
X197191298Y-127366508D01*
X197258889Y-127277003D01*
X197289583Y-127169125D01*
X197279234Y-127057444D01*
X197229240Y-126957043D01*
X197156757Y-126890965D01*
X198056945Y-126890965D01*
X198029917Y-126779554D01*
X197942648Y-126588459D01*
X197820795Y-126417343D01*
X197668754Y-126272372D01*
X197492032Y-126158798D01*
X197297002Y-126080720D01*
X197090726Y-126040965D01*
X196735688Y-126040965D01*
X196735688Y-126840965D01*
X196235688Y-126840965D01*
X196235688Y-126040965D01*
X195936238Y-126040965D01*
X195930328Y-126041246D01*
X195776567Y-126055929D01*
X195575000Y-126115114D01*
X195388275Y-126211377D01*
X195223149Y-126341234D01*
X195085576Y-126500001D01*
X194980541Y-126681928D01*
X194911831Y-126880453D01*
X194910319Y-126890964D01*
X186000500Y-126890964D01*
X186000500Y-118339130D01*
X194914287Y-118339130D01*
X194914288Y-118339131D01*
X195823545Y-118339131D01*
X195784046Y-118363588D01*
X195716455Y-118453093D01*
X195685761Y-118560971D01*
X195696110Y-118672652D01*
X195746104Y-118773053D01*
X195818587Y-118839131D01*
X194918398Y-118839131D01*
X194945426Y-118950541D01*
X195032695Y-119141636D01*
X195154548Y-119312752D01*
X195306589Y-119457723D01*
X195483311Y-119571297D01*
X195678341Y-119649375D01*
X195884618Y-119689131D01*
X196239656Y-119689131D01*
X196239656Y-118889131D01*
X196739656Y-118889131D01*
X196739656Y-119689131D01*
X197039106Y-119689131D01*
X197045015Y-119688849D01*
X197198776Y-119674166D01*
X197400343Y-119614981D01*
X197587068Y-119518718D01*
X197752194Y-119388861D01*
X197889767Y-119230094D01*
X197994802Y-119048167D01*
X198063512Y-118849642D01*
X198065024Y-118839131D01*
X197155767Y-118839131D01*
X197195266Y-118814674D01*
X197262857Y-118725169D01*
X197293551Y-118617291D01*
X197283202Y-118505610D01*
X197233208Y-118405209D01*
X197160725Y-118339131D01*
X198060913Y-118339131D01*
X198033885Y-118227720D01*
X197946616Y-118036625D01*
X197824763Y-117865509D01*
X197672722Y-117720538D01*
X197496000Y-117606964D01*
X197300970Y-117528886D01*
X197094694Y-117489131D01*
X196739656Y-117489131D01*
X196739656Y-118289131D01*
X196239656Y-118289131D01*
X196239656Y-117489131D01*
X195940206Y-117489131D01*
X195934296Y-117489412D01*
X195780535Y-117504095D01*
X195578968Y-117563280D01*
X195392243Y-117659543D01*
X195227117Y-117789400D01*
X195089544Y-117948167D01*
X194984509Y-118130094D01*
X194915799Y-118328619D01*
X194914287Y-118339130D01*
X186000500Y-118339130D01*
X186000500Y-115443025D01*
X200085156Y-115443025D01*
X200103628Y-115736631D01*
X200104602Y-115744351D01*
X200159729Y-116033337D01*
X200161665Y-116040876D01*
X200252577Y-116320672D01*
X200255437Y-116327896D01*
X200380706Y-116594107D01*
X200384448Y-116600913D01*
X200542086Y-116849312D01*
X200546662Y-116855610D01*
X200624968Y-116950265D01*
X201410629Y-116164603D01*
X201489994Y-116277947D01*
X201650840Y-116438793D01*
X201764182Y-116518156D01*
X200976220Y-117306117D01*
X201197976Y-117467233D01*
X201204547Y-117471403D01*
X201462350Y-117613131D01*
X201469389Y-117616444D01*
X201742926Y-117724744D01*
X201750321Y-117727147D01*
X202035281Y-117800313D01*
X202042912Y-117801768D01*
X202334796Y-117838642D01*
X202342555Y-117839131D01*
X202636757Y-117839131D01*
X202644515Y-117838642D01*
X202936399Y-117801768D01*
X202944030Y-117800313D01*
X203228990Y-117727147D01*
X203236385Y-117724744D01*
X203509922Y-117616444D01*
X203516961Y-117613131D01*
X203774764Y-117471403D01*
X203781334Y-117467233D01*
X204003089Y-117306117D01*
X204003090Y-117306117D01*
X203215129Y-116518156D01*
X203328472Y-116438793D01*
X203489318Y-116277947D01*
X203568681Y-116164603D01*
X204354342Y-116950264D01*
X204432653Y-116855605D01*
X204437224Y-116849313D01*
X204594863Y-116600913D01*
X204598605Y-116594107D01*
X204723874Y-116327896D01*
X204726734Y-116320672D01*
X204817646Y-116040876D01*
X204819582Y-116033337D01*
X204874709Y-115744351D01*
X204875683Y-115736631D01*
X204894156Y-115443025D01*
X204894156Y-115435236D01*
X204875683Y-115141630D01*
X204874709Y-115133910D01*
X204819582Y-114844924D01*
X204817646Y-114837385D01*
X204726734Y-114557589D01*
X204723874Y-114550365D01*
X204598605Y-114284154D01*
X204594863Y-114277348D01*
X204437225Y-114028949D01*
X204432649Y-114022651D01*
X204354342Y-113927995D01*
X203568681Y-114713656D01*
X203489318Y-114600315D01*
X203328472Y-114439469D01*
X203215128Y-114360105D01*
X204003090Y-113572143D01*
X203781335Y-113411028D01*
X203774764Y-113406858D01*
X203516961Y-113265130D01*
X203509922Y-113261817D01*
X203236385Y-113153517D01*
X203228990Y-113151114D01*
X202944030Y-113077948D01*
X202936399Y-113076493D01*
X202644515Y-113039619D01*
X202636757Y-113039131D01*
X202342555Y-113039131D01*
X202334796Y-113039619D01*
X202042912Y-113076493D01*
X202035281Y-113077948D01*
X201750321Y-113151114D01*
X201742926Y-113153517D01*
X201469389Y-113261817D01*
X201462350Y-113265130D01*
X201204555Y-113406854D01*
X201197965Y-113411036D01*
X200976221Y-113572142D01*
X200976220Y-113572143D01*
X201764182Y-114360105D01*
X201650840Y-114439469D01*
X201489994Y-114600315D01*
X201410630Y-114713657D01*
X200624968Y-113927995D01*
X200546651Y-114022665D01*
X200542090Y-114028943D01*
X200384448Y-114277348D01*
X200380706Y-114284154D01*
X200255437Y-114550365D01*
X200252577Y-114557589D01*
X200161665Y-114837385D01*
X200159729Y-114844924D01*
X200104602Y-115133910D01*
X200103628Y-115141630D01*
X200085156Y-115435236D01*
X200085156Y-115443025D01*
X186000500Y-115443025D01*
X186000500Y-108239131D01*
X200076394Y-108239131D01*
X200095423Y-108541593D01*
X200096150Y-108545405D01*
X200096152Y-108545419D01*
X200128928Y-108717234D01*
X200152211Y-108839285D01*
X200153415Y-108842992D01*
X200153416Y-108842994D01*
X200157457Y-108855431D01*
X200245862Y-109127512D01*
X200247519Y-109131035D01*
X200247521Y-109131038D01*
X200373239Y-109398205D01*
X200373244Y-109398214D01*
X200374898Y-109401729D01*
X200537286Y-109657611D01*
X200539759Y-109660601D01*
X200539761Y-109660603D01*
X200588933Y-109720042D01*
X200730464Y-109891123D01*
X200733301Y-109893787D01*
X200948542Y-110095912D01*
X200948548Y-110095917D01*
X200951385Y-110098581D01*
X201196566Y-110276715D01*
X201199973Y-110278588D01*
X201458546Y-110420741D01*
X201462139Y-110422716D01*
X201743917Y-110534280D01*
X202037456Y-110609647D01*
X202338126Y-110647631D01*
X202342020Y-110647631D01*
X202637292Y-110647631D01*
X202641186Y-110647631D01*
X202941856Y-110609647D01*
X203168221Y-110551527D01*
X203199059Y-110547631D01*
X207677500Y-110547631D01*
X207744539Y-110567316D01*
X207790294Y-110620120D01*
X207801500Y-110671631D01*
X207801500Y-116819748D01*
X207801664Y-116821997D01*
X207801665Y-116822007D01*
X207816787Y-117028624D01*
X207877529Y-117301304D01*
X207920461Y-117413552D01*
X207977330Y-117562242D01*
X208114058Y-117805866D01*
X208160113Y-117865509D01*
X208284800Y-118026986D01*
X208485915Y-118220884D01*
X208485918Y-118220886D01*
X208485919Y-118220887D01*
X208561618Y-118275045D01*
X208713130Y-118383443D01*
X208961580Y-118511179D01*
X209225983Y-118601382D01*
X209500706Y-118652125D01*
X209779888Y-118662328D01*
X209779888Y-118662327D01*
X209779889Y-118662328D01*
X210057581Y-118631773D01*
X210112976Y-118617291D01*
X210327864Y-118561113D01*
X210396193Y-118532076D01*
X210584981Y-118451850D01*
X210823448Y-118306315D01*
X210926101Y-118220887D01*
X211038182Y-118127613D01*
X211043747Y-118121402D01*
X211068318Y-118093979D01*
X211127713Y-118057186D01*
X211197573Y-118058345D01*
X211204004Y-118060544D01*
X211292628Y-118093599D01*
X211348867Y-118099645D01*
X211355482Y-118100000D01*
X212000000Y-118100000D01*
X212000000Y-117185501D01*
X212107685Y-117234680D01*
X212214237Y-117250000D01*
X212285763Y-117250000D01*
X212392315Y-117234680D01*
X212499999Y-117185501D01*
X212499999Y-118099999D01*
X212500000Y-118100000D01*
X213144518Y-118100000D01*
X213151132Y-118099645D01*
X213207371Y-118093599D01*
X213342089Y-118043352D01*
X213457188Y-117957188D01*
X213543352Y-117842089D01*
X213593599Y-117707371D01*
X213599645Y-117651132D01*
X213600000Y-117644518D01*
X213600000Y-117000000D01*
X212683686Y-117000000D01*
X212709493Y-116959844D01*
X212750000Y-116821889D01*
X212750000Y-116678111D01*
X212709493Y-116540156D01*
X212683686Y-116500000D01*
X213600000Y-116500000D01*
X213600000Y-115855481D01*
X213599645Y-115848867D01*
X213593599Y-115792628D01*
X213543352Y-115657910D01*
X213457188Y-115542811D01*
X213342089Y-115456647D01*
X213207371Y-115406400D01*
X213151132Y-115400354D01*
X213144518Y-115400000D01*
X212500000Y-115400000D01*
X212499999Y-116314498D01*
X212392315Y-116265320D01*
X212285763Y-116250000D01*
X212214237Y-116250000D01*
X212107685Y-116265320D01*
X212000000Y-116314498D01*
X212000000Y-115400000D01*
X211742500Y-115400000D01*
X211675461Y-115380315D01*
X211629706Y-115327511D01*
X211618500Y-115276000D01*
X211618500Y-109453908D01*
X211631288Y-109399064D01*
X211631712Y-109398205D01*
X211761353Y-109135320D01*
X211858625Y-108848766D01*
X211917662Y-108551966D01*
X211937454Y-108250000D01*
X211917662Y-107948034D01*
X211858625Y-107651234D01*
X211761353Y-107364680D01*
X211627510Y-107093274D01*
X211459386Y-106841659D01*
X211456708Y-106838606D01*
X211456704Y-106838600D01*
X211311134Y-106672609D01*
X211311130Y-106672605D01*
X211309792Y-106671079D01*
X211301793Y-106663080D01*
X211296246Y-106657158D01*
X211270208Y-106627468D01*
X211248990Y-106603273D01*
X211162763Y-106527654D01*
X211113689Y-106484617D01*
X211021473Y-106403745D01*
X210943365Y-106351555D01*
X210773234Y-106237877D01*
X210773225Y-106237872D01*
X210769858Y-106235622D01*
X210766224Y-106233830D01*
X210766219Y-106233827D01*
X210502094Y-106103575D01*
X210502093Y-106103574D01*
X210498452Y-106101779D01*
X210471697Y-106092697D01*
X210321845Y-106041829D01*
X210211898Y-106004507D01*
X210207921Y-106003716D01*
X210207914Y-106003714D01*
X209919077Y-105946261D01*
X209919070Y-105946260D01*
X209915098Y-105945470D01*
X209688700Y-105930631D01*
X209613132Y-105925678D01*
X209609089Y-105925943D01*
X209541607Y-105930366D01*
X209533497Y-105930631D01*
X203199059Y-105930631D01*
X203168222Y-105926735D01*
X202945634Y-105869585D01*
X202945633Y-105869584D01*
X202941856Y-105868615D01*
X202937993Y-105868127D01*
X202937988Y-105868126D01*
X202645050Y-105831119D01*
X202645047Y-105831118D01*
X202641186Y-105830631D01*
X202338126Y-105830631D01*
X202334265Y-105831118D01*
X202334261Y-105831119D01*
X202041323Y-105868126D01*
X202041315Y-105868127D01*
X202037456Y-105868615D01*
X202033681Y-105869584D01*
X202033677Y-105869585D01*
X201747696Y-105943011D01*
X201747685Y-105943014D01*
X201743917Y-105943982D01*
X201740299Y-105945414D01*
X201740291Y-105945417D01*
X201465757Y-106054113D01*
X201465749Y-106054116D01*
X201462139Y-106055546D01*
X201458744Y-106057412D01*
X201458730Y-106057419D01*
X201199973Y-106199673D01*
X201199961Y-106199680D01*
X201196566Y-106201547D01*
X201193422Y-106203830D01*
X201193416Y-106203835D01*
X200954541Y-106377387D01*
X200954530Y-106377395D01*
X200951385Y-106379681D01*
X200948557Y-106382336D01*
X200948542Y-106382349D01*
X200733301Y-106584474D01*
X200733293Y-106584481D01*
X200730464Y-106587139D01*
X200727989Y-106590130D01*
X200727985Y-106590135D01*
X200539761Y-106817658D01*
X200539753Y-106817668D01*
X200537286Y-106820651D01*
X200535210Y-106823921D01*
X200535205Y-106823929D01*
X200376983Y-107073247D01*
X200374898Y-107076533D01*
X200373247Y-107080040D01*
X200373239Y-107080056D01*
X200247521Y-107347223D01*
X200247517Y-107347231D01*
X200245862Y-107350750D01*
X200244658Y-107354455D01*
X200244657Y-107354458D01*
X200155993Y-107627338D01*
X200152211Y-107638977D01*
X200151482Y-107642797D01*
X200151480Y-107642806D01*
X200096152Y-107932842D01*
X200096149Y-107932858D01*
X200095423Y-107936669D01*
X200076394Y-108239131D01*
X186000500Y-108239131D01*
X186000500Y-104839130D01*
X194914287Y-104839130D01*
X194914288Y-104839131D01*
X195823545Y-104839131D01*
X195784046Y-104863588D01*
X195716455Y-104953093D01*
X195685761Y-105060971D01*
X195696110Y-105172652D01*
X195746104Y-105273053D01*
X195818587Y-105339131D01*
X194918398Y-105339131D01*
X194945426Y-105450541D01*
X195032695Y-105641636D01*
X195154548Y-105812752D01*
X195306589Y-105957723D01*
X195483311Y-106071297D01*
X195678341Y-106149375D01*
X195884618Y-106189131D01*
X196239656Y-106189131D01*
X196239656Y-105389131D01*
X196739656Y-105389131D01*
X196739656Y-106189131D01*
X197039106Y-106189131D01*
X197045015Y-106188849D01*
X197198776Y-106174166D01*
X197400343Y-106114981D01*
X197587068Y-106018718D01*
X197752194Y-105888861D01*
X197889767Y-105730094D01*
X197960890Y-105606904D01*
X206037043Y-105606904D01*
X206591547Y-105606904D01*
X206591547Y-105078114D01*
X206591546Y-105078113D01*
X207091547Y-105078113D01*
X207091547Y-105606904D01*
X207646051Y-105606904D01*
X207603578Y-105460707D01*
X207521265Y-105321524D01*
X207406926Y-105207185D01*
X207267741Y-105124871D01*
X207112464Y-105079759D01*
X207091547Y-105078113D01*
X206591546Y-105078113D01*
X206570629Y-105079759D01*
X206415352Y-105124871D01*
X206276167Y-105207185D01*
X206161828Y-105321524D01*
X206079515Y-105460707D01*
X206037043Y-105606904D01*
X197960890Y-105606904D01*
X197994802Y-105548167D01*
X198063512Y-105349642D01*
X198065024Y-105339131D01*
X197155767Y-105339131D01*
X197195266Y-105314674D01*
X197262857Y-105225169D01*
X197293551Y-105117291D01*
X197283202Y-105005610D01*
X197233208Y-104905209D01*
X197160725Y-104839131D01*
X198060913Y-104839131D01*
X198033885Y-104727720D01*
X197946616Y-104536625D01*
X197824763Y-104365509D01*
X197672722Y-104220538D01*
X197496000Y-104106964D01*
X197300970Y-104028886D01*
X197094694Y-103989131D01*
X196739656Y-103989131D01*
X196739656Y-104789131D01*
X196239656Y-104789131D01*
X196239656Y-103989131D01*
X195940206Y-103989131D01*
X195934296Y-103989412D01*
X195780535Y-104004095D01*
X195578968Y-104063280D01*
X195392243Y-104159543D01*
X195227117Y-104289400D01*
X195089544Y-104448167D01*
X194984509Y-104630094D01*
X194915799Y-104828619D01*
X194914287Y-104839130D01*
X186000500Y-104839130D01*
X186000500Y-102753245D01*
X186000670Y-102746756D01*
X186007490Y-102616617D01*
X186017628Y-102436085D01*
X186018954Y-102423694D01*
X186042610Y-102274334D01*
X186042686Y-102273895D01*
X186069739Y-102114669D01*
X186072206Y-102103379D01*
X186112425Y-101953279D01*
X186156353Y-101800803D01*
X186159721Y-101790759D01*
X186215583Y-101645233D01*
X186216692Y-101642452D01*
X186276439Y-101498212D01*
X186280488Y-101489429D01*
X186351569Y-101349925D01*
X186353521Y-101346250D01*
X186428588Y-101210426D01*
X186433065Y-101202962D01*
X186518633Y-101071199D01*
X186521434Y-101067077D01*
X186611010Y-100940832D01*
X186615733Y-100934603D01*
X186714702Y-100812386D01*
X186718532Y-100807885D01*
X186821613Y-100692537D01*
X186826323Y-100687556D01*
X186937556Y-100576323D01*
X186942537Y-100571613D01*
X187057885Y-100468532D01*
X187062386Y-100464702D01*
X187184603Y-100365733D01*
X187190832Y-100361010D01*
X187317077Y-100271434D01*
X187321199Y-100268633D01*
X187452962Y-100183065D01*
X187460426Y-100178588D01*
X187596255Y-100103517D01*
X187599934Y-100101565D01*
X187739429Y-100030488D01*
X187748212Y-100026439D01*
X187892452Y-99966692D01*
X187895233Y-99965583D01*
X188040753Y-99909724D01*
X188050818Y-99906349D01*
X188203292Y-99862422D01*
X188353407Y-99822198D01*
X188364672Y-99819739D01*
X188524337Y-99792610D01*
X188673688Y-99768955D01*
X188686098Y-99767627D01*
X188866566Y-99757493D01*
X188996756Y-99750669D01*
X189003245Y-99750500D01*
X265996755Y-99750500D01*
X266003243Y-99750669D01*
G37*
%TD.AperFunction*%
%TD*%
M02*
