%TF.GenerationSoftware,KiCad,Pcbnew,(6.0.8)*%
%TF.CreationDate,2022-12-08T15:19:17+02:00*%
%TF.ProjectId,Power Distribution,506f7765-7220-4446-9973-747269627574,V0*%
%TF.SameCoordinates,Original*%
%TF.FileFunction,Legend,Bot*%
%TF.FilePolarity,Positive*%
%FSLAX46Y46*%
G04 Gerber Fmt 4.6, Leading zero omitted, Abs format (unit mm)*
G04 Created by KiCad (PCBNEW (6.0.8)) date 2022-12-08 15:19:17*
%MOMM*%
%LPD*%
G01*
G04 APERTURE LIST*
%ADD10C,0.150000*%
%ADD11C,0.125000*%
%ADD12C,0.152000*%
%ADD13C,0.254000*%
%ADD14C,3.800000*%
%ADD15O,2.200000X1.200000*%
%ADD16O,1.800000X4.000000*%
%ADD17O,4.000000X1.800000*%
%ADD18O,1.000000X2.400000*%
%ADD19C,3.000000*%
%ADD20C,2.800000*%
%ADD21C,1.800000*%
G04 APERTURE END LIST*
D10*
X247714285Y-120053571D02*
X247607142Y-120089285D01*
X247428571Y-120089285D01*
X247357142Y-120053571D01*
X247321428Y-120017857D01*
X247285714Y-119946428D01*
X247285714Y-119875000D01*
X247321428Y-119803571D01*
X247357142Y-119767857D01*
X247428571Y-119732142D01*
X247571428Y-119696428D01*
X247642857Y-119660714D01*
X247678571Y-119625000D01*
X247714285Y-119553571D01*
X247714285Y-119482142D01*
X247678571Y-119410714D01*
X247642857Y-119375000D01*
X247571428Y-119339285D01*
X247392857Y-119339285D01*
X247285714Y-119375000D01*
X246642857Y-119589285D02*
X246642857Y-120089285D01*
X246964285Y-119589285D02*
X246964285Y-119982142D01*
X246928571Y-120053571D01*
X246857142Y-120089285D01*
X246750000Y-120089285D01*
X246678571Y-120053571D01*
X246642857Y-120017857D01*
X246285714Y-119589285D02*
X246285714Y-120339285D01*
X246285714Y-119625000D02*
X246214285Y-119589285D01*
X246071428Y-119589285D01*
X246000000Y-119625000D01*
X245964285Y-119660714D01*
X245928571Y-119732142D01*
X245928571Y-119946428D01*
X245964285Y-120017857D01*
X246000000Y-120053571D01*
X246071428Y-120089285D01*
X246214285Y-120089285D01*
X246285714Y-120053571D01*
X245607142Y-119589285D02*
X245607142Y-120339285D01*
X245607142Y-119625000D02*
X245535714Y-119589285D01*
X245392857Y-119589285D01*
X245321428Y-119625000D01*
X245285714Y-119660714D01*
X245250000Y-119732142D01*
X245250000Y-119946428D01*
X245285714Y-120017857D01*
X245321428Y-120053571D01*
X245392857Y-120089285D01*
X245535714Y-120089285D01*
X245607142Y-120053571D01*
X244821428Y-120089285D02*
X244892857Y-120053571D01*
X244928571Y-119982142D01*
X244928571Y-119339285D01*
X244607142Y-119589285D02*
X244428571Y-120089285D01*
X244250000Y-119589285D02*
X244428571Y-120089285D01*
X244500000Y-120267857D01*
X244535714Y-120303571D01*
X244607142Y-120339285D01*
X186095238Y-131892857D02*
X186047619Y-131750000D01*
X186047619Y-131511904D01*
X186095238Y-131416666D01*
X186142857Y-131369047D01*
X186238095Y-131321428D01*
X186333333Y-131321428D01*
X186428571Y-131369047D01*
X186476190Y-131416666D01*
X186523809Y-131511904D01*
X186571428Y-131702380D01*
X186619047Y-131797619D01*
X186666666Y-131845238D01*
X186761904Y-131892857D01*
X186857142Y-131892857D01*
X186952380Y-131845238D01*
X187000000Y-131797619D01*
X187047619Y-131702380D01*
X187047619Y-131464285D01*
X187000000Y-131321428D01*
X186714285Y-130464285D02*
X186047619Y-130464285D01*
X186714285Y-130892857D02*
X186190476Y-130892857D01*
X186095238Y-130845238D01*
X186047619Y-130750000D01*
X186047619Y-130607142D01*
X186095238Y-130511904D01*
X186142857Y-130464285D01*
X186714285Y-129988095D02*
X185714285Y-129988095D01*
X186666666Y-129988095D02*
X186714285Y-129892857D01*
X186714285Y-129702380D01*
X186666666Y-129607142D01*
X186619047Y-129559523D01*
X186523809Y-129511904D01*
X186238095Y-129511904D01*
X186142857Y-129559523D01*
X186095238Y-129607142D01*
X186047619Y-129702380D01*
X186047619Y-129892857D01*
X186095238Y-129988095D01*
X186714285Y-129083333D02*
X185714285Y-129083333D01*
X186666666Y-129083333D02*
X186714285Y-128988095D01*
X186714285Y-128797619D01*
X186666666Y-128702380D01*
X186619047Y-128654761D01*
X186523809Y-128607142D01*
X186238095Y-128607142D01*
X186142857Y-128654761D01*
X186095238Y-128702380D01*
X186047619Y-128797619D01*
X186047619Y-128988095D01*
X186095238Y-129083333D01*
X186047619Y-128035714D02*
X186095238Y-128130952D01*
X186190476Y-128178571D01*
X187047619Y-128178571D01*
X186714285Y-127750000D02*
X186047619Y-127511904D01*
X186714285Y-127273809D02*
X186047619Y-127511904D01*
X185809523Y-127607142D01*
X185761904Y-127654761D01*
X185714285Y-127750000D01*
X186047619Y-125607142D02*
X186047619Y-126178571D01*
X186047619Y-125892857D02*
X187047619Y-125892857D01*
X186904761Y-125988095D01*
X186809523Y-126083333D01*
X186761904Y-126178571D01*
X204308608Y-136186380D02*
X204118132Y-136186380D01*
X204022894Y-136234000D01*
X203927656Y-136329238D01*
X203880037Y-136519714D01*
X203880037Y-136853047D01*
X203927656Y-137043523D01*
X204022894Y-137138761D01*
X204118132Y-137186380D01*
X204308608Y-137186380D01*
X204403846Y-137138761D01*
X204499084Y-137043523D01*
X204546703Y-136853047D01*
X204546703Y-136519714D01*
X204499084Y-136329238D01*
X204403846Y-136234000D01*
X204308608Y-136186380D01*
X203022894Y-136519714D02*
X203022894Y-137186380D01*
X203451465Y-136519714D02*
X203451465Y-137043523D01*
X203403846Y-137138761D01*
X203308608Y-137186380D01*
X203165751Y-137186380D01*
X203070513Y-137138761D01*
X203022894Y-137091142D01*
X202689560Y-136519714D02*
X202308608Y-136519714D01*
X202546703Y-136186380D02*
X202546703Y-137043523D01*
X202499084Y-137138761D01*
X202403846Y-137186380D01*
X202308608Y-137186380D01*
X201975275Y-136519714D02*
X201975275Y-137519714D01*
X201975275Y-136567333D02*
X201880037Y-136519714D01*
X201689560Y-136519714D01*
X201594322Y-136567333D01*
X201546703Y-136614952D01*
X201499084Y-136710190D01*
X201499084Y-136995904D01*
X201546703Y-137091142D01*
X201594322Y-137138761D01*
X201689560Y-137186380D01*
X201880037Y-137186380D01*
X201975275Y-137138761D01*
X200641941Y-136519714D02*
X200641941Y-137186380D01*
X201070513Y-136519714D02*
X201070513Y-137043523D01*
X201022894Y-137138761D01*
X200927656Y-137186380D01*
X200784799Y-137186380D01*
X200689560Y-137138761D01*
X200641941Y-137091142D01*
X200308608Y-136519714D02*
X199927656Y-136519714D01*
X200165751Y-136186380D02*
X200165751Y-137043523D01*
X200118132Y-137138761D01*
X200022894Y-137186380D01*
X199927656Y-137186380D01*
X237723013Y-143131380D02*
X238199203Y-143131380D01*
X238199203Y-142131380D01*
X237389679Y-142607571D02*
X237056346Y-142607571D01*
X236913489Y-143131380D02*
X237389679Y-143131380D01*
X237389679Y-142131380D01*
X236913489Y-142131380D01*
X236484918Y-143131380D02*
X236484918Y-142131380D01*
X236246822Y-142131380D01*
X236103965Y-142179000D01*
X236008727Y-142274238D01*
X235961108Y-142369476D01*
X235913489Y-142559952D01*
X235913489Y-142702809D01*
X235961108Y-142893285D01*
X236008727Y-142988523D01*
X236103965Y-143083761D01*
X236246822Y-143131380D01*
X236484918Y-143131380D01*
X238199203Y-144741380D02*
X238199203Y-143741380D01*
X237723013Y-144074714D02*
X237723013Y-144741380D01*
X237723013Y-144169952D02*
X237675394Y-144122333D01*
X237580156Y-144074714D01*
X237437299Y-144074714D01*
X237342060Y-144122333D01*
X237294441Y-144217571D01*
X237294441Y-144741380D01*
X236389679Y-144741380D02*
X236389679Y-143741380D01*
X236389679Y-144693761D02*
X236484918Y-144741380D01*
X236675394Y-144741380D01*
X236770632Y-144693761D01*
X236818251Y-144646142D01*
X236865870Y-144550904D01*
X236865870Y-144265190D01*
X236818251Y-144169952D01*
X236770632Y-144122333D01*
X236675394Y-144074714D01*
X236484918Y-144074714D01*
X236389679Y-144122333D01*
X235913489Y-144741380D02*
X235913489Y-144074714D01*
X235913489Y-143741380D02*
X235961108Y-143789000D01*
X235913489Y-143836619D01*
X235865870Y-143789000D01*
X235913489Y-143741380D01*
X235913489Y-143836619D01*
X235008727Y-144693761D02*
X235103965Y-144741380D01*
X235294441Y-144741380D01*
X235389679Y-144693761D01*
X235437299Y-144646142D01*
X235484918Y-144550904D01*
X235484918Y-144265190D01*
X235437299Y-144169952D01*
X235389679Y-144122333D01*
X235294441Y-144074714D01*
X235103965Y-144074714D01*
X235008727Y-144122333D01*
X234151584Y-144741380D02*
X234151584Y-144217571D01*
X234199203Y-144122333D01*
X234294441Y-144074714D01*
X234484918Y-144074714D01*
X234580156Y-144122333D01*
X234151584Y-144693761D02*
X234246822Y-144741380D01*
X234484918Y-144741380D01*
X234580156Y-144693761D01*
X234627775Y-144598523D01*
X234627775Y-144503285D01*
X234580156Y-144408047D01*
X234484918Y-144360428D01*
X234246822Y-144360428D01*
X234151584Y-144312809D01*
X233818251Y-144074714D02*
X233437299Y-144074714D01*
X233675394Y-143741380D02*
X233675394Y-144598523D01*
X233627775Y-144693761D01*
X233532537Y-144741380D01*
X233437299Y-144741380D01*
X232961108Y-144741380D02*
X233056346Y-144693761D01*
X233103965Y-144646142D01*
X233151584Y-144550904D01*
X233151584Y-144265190D01*
X233103965Y-144169952D01*
X233056346Y-144122333D01*
X232961108Y-144074714D01*
X232818251Y-144074714D01*
X232723013Y-144122333D01*
X232675394Y-144169952D01*
X232627775Y-144265190D01*
X232627775Y-144550904D01*
X232675394Y-144646142D01*
X232723013Y-144693761D01*
X232818251Y-144741380D01*
X232961108Y-144741380D01*
X232199203Y-144741380D02*
X232199203Y-144074714D01*
X232199203Y-144265190D02*
X232151584Y-144169952D01*
X232103965Y-144122333D01*
X232008727Y-144074714D01*
X231913489Y-144074714D01*
X185845238Y-154642857D02*
X185797619Y-154500000D01*
X185797619Y-154261904D01*
X185845238Y-154166666D01*
X185892857Y-154119047D01*
X185988095Y-154071428D01*
X186083333Y-154071428D01*
X186178571Y-154119047D01*
X186226190Y-154166666D01*
X186273809Y-154261904D01*
X186321428Y-154452380D01*
X186369047Y-154547619D01*
X186416666Y-154595238D01*
X186511904Y-154642857D01*
X186607142Y-154642857D01*
X186702380Y-154595238D01*
X186750000Y-154547619D01*
X186797619Y-154452380D01*
X186797619Y-154214285D01*
X186750000Y-154071428D01*
X186464285Y-153214285D02*
X185797619Y-153214285D01*
X186464285Y-153642857D02*
X185940476Y-153642857D01*
X185845238Y-153595238D01*
X185797619Y-153500000D01*
X185797619Y-153357142D01*
X185845238Y-153261904D01*
X185892857Y-153214285D01*
X186464285Y-152738095D02*
X185464285Y-152738095D01*
X186416666Y-152738095D02*
X186464285Y-152642857D01*
X186464285Y-152452380D01*
X186416666Y-152357142D01*
X186369047Y-152309523D01*
X186273809Y-152261904D01*
X185988095Y-152261904D01*
X185892857Y-152309523D01*
X185845238Y-152357142D01*
X185797619Y-152452380D01*
X185797619Y-152642857D01*
X185845238Y-152738095D01*
X186464285Y-151833333D02*
X185464285Y-151833333D01*
X186416666Y-151833333D02*
X186464285Y-151738095D01*
X186464285Y-151547619D01*
X186416666Y-151452380D01*
X186369047Y-151404761D01*
X186273809Y-151357142D01*
X185988095Y-151357142D01*
X185892857Y-151404761D01*
X185845238Y-151452380D01*
X185797619Y-151547619D01*
X185797619Y-151738095D01*
X185845238Y-151833333D01*
X185797619Y-150785714D02*
X185845238Y-150880952D01*
X185940476Y-150928571D01*
X186797619Y-150928571D01*
X186464285Y-150500000D02*
X185797619Y-150261904D01*
X186464285Y-150023809D02*
X185797619Y-150261904D01*
X185559523Y-150357142D01*
X185511904Y-150404761D01*
X185464285Y-150500000D01*
X186702380Y-148928571D02*
X186750000Y-148880952D01*
X186797619Y-148785714D01*
X186797619Y-148547619D01*
X186750000Y-148452380D01*
X186702380Y-148404761D01*
X186607142Y-148357142D01*
X186511904Y-148357142D01*
X186369047Y-148404761D01*
X185797619Y-148976190D01*
X185797619Y-148357142D01*
X264952380Y-122869047D02*
X264952380Y-123059523D01*
X265000000Y-123154761D01*
X265095238Y-123250000D01*
X265285714Y-123297619D01*
X265619047Y-123297619D01*
X265809523Y-123250000D01*
X265904761Y-123154761D01*
X265952380Y-123059523D01*
X265952380Y-122869047D01*
X265904761Y-122773809D01*
X265809523Y-122678571D01*
X265619047Y-122630952D01*
X265285714Y-122630952D01*
X265095238Y-122678571D01*
X265000000Y-122773809D01*
X264952380Y-122869047D01*
X265285714Y-124154761D02*
X265952380Y-124154761D01*
X265285714Y-123726190D02*
X265809523Y-123726190D01*
X265904761Y-123773809D01*
X265952380Y-123869047D01*
X265952380Y-124011904D01*
X265904761Y-124107142D01*
X265857142Y-124154761D01*
X265285714Y-124488095D02*
X265285714Y-124869047D01*
X264952380Y-124630952D02*
X265809523Y-124630952D01*
X265904761Y-124678571D01*
X265952380Y-124773809D01*
X265952380Y-124869047D01*
X265285714Y-125202380D02*
X266285714Y-125202380D01*
X265333333Y-125202380D02*
X265285714Y-125297619D01*
X265285714Y-125488095D01*
X265333333Y-125583333D01*
X265380952Y-125630952D01*
X265476190Y-125678571D01*
X265761904Y-125678571D01*
X265857142Y-125630952D01*
X265904761Y-125583333D01*
X265952380Y-125488095D01*
X265952380Y-125297619D01*
X265904761Y-125202380D01*
X265285714Y-126535714D02*
X265952380Y-126535714D01*
X265285714Y-126107142D02*
X265809523Y-126107142D01*
X265904761Y-126154761D01*
X265952380Y-126250000D01*
X265952380Y-126392857D01*
X265904761Y-126488095D01*
X265857142Y-126535714D01*
X265285714Y-126869047D02*
X265285714Y-127250000D01*
X264952380Y-127011904D02*
X265809523Y-127011904D01*
X265904761Y-127059523D01*
X265952380Y-127154761D01*
X265952380Y-127250000D01*
X265952380Y-128869047D02*
X265952380Y-128297619D01*
X265952380Y-128583333D02*
X264952380Y-128583333D01*
X265095238Y-128488095D01*
X265190476Y-128392857D01*
X265238095Y-128297619D01*
X212390656Y-129888761D02*
X212247799Y-129936380D01*
X212009703Y-129936380D01*
X211914465Y-129888761D01*
X211866846Y-129841142D01*
X211819227Y-129745904D01*
X211819227Y-129650666D01*
X211866846Y-129555428D01*
X211914465Y-129507809D01*
X212009703Y-129460190D01*
X212200179Y-129412571D01*
X212295418Y-129364952D01*
X212343037Y-129317333D01*
X212390656Y-129222095D01*
X212390656Y-129126857D01*
X212343037Y-129031619D01*
X212295418Y-128984000D01*
X212200179Y-128936380D01*
X211962084Y-128936380D01*
X211819227Y-128984000D01*
X210962084Y-129269714D02*
X210962084Y-129936380D01*
X211390656Y-129269714D02*
X211390656Y-129793523D01*
X211343037Y-129888761D01*
X211247799Y-129936380D01*
X211104941Y-129936380D01*
X211009703Y-129888761D01*
X210962084Y-129841142D01*
X210485894Y-129269714D02*
X210485894Y-130269714D01*
X210485894Y-129317333D02*
X210390656Y-129269714D01*
X210200179Y-129269714D01*
X210104941Y-129317333D01*
X210057322Y-129364952D01*
X210009703Y-129460190D01*
X210009703Y-129745904D01*
X210057322Y-129841142D01*
X210104941Y-129888761D01*
X210200179Y-129936380D01*
X210390656Y-129936380D01*
X210485894Y-129888761D01*
X209581132Y-129269714D02*
X209581132Y-130269714D01*
X209581132Y-129317333D02*
X209485894Y-129269714D01*
X209295418Y-129269714D01*
X209200179Y-129317333D01*
X209152560Y-129364952D01*
X209104941Y-129460190D01*
X209104941Y-129745904D01*
X209152560Y-129841142D01*
X209200179Y-129888761D01*
X209295418Y-129936380D01*
X209485894Y-129936380D01*
X209581132Y-129888761D01*
X208533513Y-129936380D02*
X208628751Y-129888761D01*
X208676370Y-129793523D01*
X208676370Y-128936380D01*
X208247799Y-129269714D02*
X208009703Y-129936380D01*
X207771608Y-129269714D02*
X208009703Y-129936380D01*
X208104941Y-130174476D01*
X208152560Y-130222095D01*
X208247799Y-130269714D01*
X206104941Y-129936380D02*
X206676370Y-129936380D01*
X206390656Y-129936380D02*
X206390656Y-128936380D01*
X206485894Y-129079238D01*
X206581132Y-129174476D01*
X206676370Y-129222095D01*
X230992974Y-155147380D02*
X230992974Y-154147380D01*
X230612022Y-154147380D01*
X230516784Y-154195000D01*
X230469165Y-154242619D01*
X230421546Y-154337857D01*
X230421546Y-154480714D01*
X230469165Y-154575952D01*
X230516784Y-154623571D01*
X230612022Y-154671190D01*
X230992974Y-154671190D01*
X229850117Y-155147380D02*
X229945355Y-155099761D01*
X229992974Y-155052142D01*
X230040593Y-154956904D01*
X230040593Y-154671190D01*
X229992974Y-154575952D01*
X229945355Y-154528333D01*
X229850117Y-154480714D01*
X229707260Y-154480714D01*
X229612022Y-154528333D01*
X229564403Y-154575952D01*
X229516784Y-154671190D01*
X229516784Y-154956904D01*
X229564403Y-155052142D01*
X229612022Y-155099761D01*
X229707260Y-155147380D01*
X229850117Y-155147380D01*
X229183450Y-154480714D02*
X228992974Y-155147380D01*
X228802498Y-154671190D01*
X228612022Y-155147380D01*
X228421546Y-154480714D01*
X227659641Y-155099761D02*
X227754879Y-155147380D01*
X227945355Y-155147380D01*
X228040593Y-155099761D01*
X228088212Y-155004523D01*
X228088212Y-154623571D01*
X228040593Y-154528333D01*
X227945355Y-154480714D01*
X227754879Y-154480714D01*
X227659641Y-154528333D01*
X227612022Y-154623571D01*
X227612022Y-154718809D01*
X228088212Y-154814047D01*
X227183450Y-155147380D02*
X227183450Y-154480714D01*
X227183450Y-154671190D02*
X227135831Y-154575952D01*
X227088212Y-154528333D01*
X226992974Y-154480714D01*
X226897736Y-154480714D01*
X225802498Y-155147380D02*
X225802498Y-154147380D01*
X225564403Y-154147380D01*
X225421546Y-154195000D01*
X225326308Y-154290238D01*
X225278689Y-154385476D01*
X225231070Y-154575952D01*
X225231070Y-154718809D01*
X225278689Y-154909285D01*
X225326308Y-155004523D01*
X225421546Y-155099761D01*
X225564403Y-155147380D01*
X225802498Y-155147380D01*
X224802498Y-155147380D02*
X224802498Y-154480714D01*
X224802498Y-154147380D02*
X224850117Y-154195000D01*
X224802498Y-154242619D01*
X224754879Y-154195000D01*
X224802498Y-154147380D01*
X224802498Y-154242619D01*
X224373927Y-155099761D02*
X224278689Y-155147380D01*
X224088212Y-155147380D01*
X223992974Y-155099761D01*
X223945355Y-155004523D01*
X223945355Y-154956904D01*
X223992974Y-154861666D01*
X224088212Y-154814047D01*
X224231070Y-154814047D01*
X224326308Y-154766428D01*
X224373927Y-154671190D01*
X224373927Y-154623571D01*
X224326308Y-154528333D01*
X224231070Y-154480714D01*
X224088212Y-154480714D01*
X223992974Y-154528333D01*
X223659641Y-154480714D02*
X223278689Y-154480714D01*
X223516784Y-154147380D02*
X223516784Y-155004523D01*
X223469165Y-155099761D01*
X223373927Y-155147380D01*
X223278689Y-155147380D01*
X222945355Y-155147380D02*
X222945355Y-154480714D01*
X222945355Y-154671190D02*
X222897736Y-154575952D01*
X222850117Y-154528333D01*
X222754879Y-154480714D01*
X222659641Y-154480714D01*
X222326308Y-155147380D02*
X222326308Y-154480714D01*
X222326308Y-154147380D02*
X222373927Y-154195000D01*
X222326308Y-154242619D01*
X222278689Y-154195000D01*
X222326308Y-154147380D01*
X222326308Y-154242619D01*
X221850117Y-155147380D02*
X221850117Y-154147380D01*
X221850117Y-154528333D02*
X221754879Y-154480714D01*
X221564403Y-154480714D01*
X221469165Y-154528333D01*
X221421546Y-154575952D01*
X221373927Y-154671190D01*
X221373927Y-154956904D01*
X221421546Y-155052142D01*
X221469165Y-155099761D01*
X221564403Y-155147380D01*
X221754879Y-155147380D01*
X221850117Y-155099761D01*
X220516784Y-154480714D02*
X220516784Y-155147380D01*
X220945355Y-154480714D02*
X220945355Y-155004523D01*
X220897736Y-155099761D01*
X220802498Y-155147380D01*
X220659641Y-155147380D01*
X220564403Y-155099761D01*
X220516784Y-155052142D01*
X220183450Y-154480714D02*
X219802498Y-154480714D01*
X220040593Y-154147380D02*
X220040593Y-155004523D01*
X219992974Y-155099761D01*
X219897736Y-155147380D01*
X219802498Y-155147380D01*
X219469165Y-155147380D02*
X219469165Y-154480714D01*
X219469165Y-154147380D02*
X219516784Y-154195000D01*
X219469165Y-154242619D01*
X219421546Y-154195000D01*
X219469165Y-154147380D01*
X219469165Y-154242619D01*
X218850117Y-155147380D02*
X218945355Y-155099761D01*
X218992974Y-155052142D01*
X219040593Y-154956904D01*
X219040593Y-154671190D01*
X218992974Y-154575952D01*
X218945355Y-154528333D01*
X218850117Y-154480714D01*
X218707260Y-154480714D01*
X218612022Y-154528333D01*
X218564403Y-154575952D01*
X218516784Y-154671190D01*
X218516784Y-154956904D01*
X218564403Y-155052142D01*
X218612022Y-155099761D01*
X218707260Y-155147380D01*
X218850117Y-155147380D01*
X218088212Y-154480714D02*
X218088212Y-155147380D01*
X218088212Y-154575952D02*
X218040593Y-154528333D01*
X217945355Y-154480714D01*
X217802498Y-154480714D01*
X217707260Y-154528333D01*
X217659641Y-154623571D01*
X217659641Y-155147380D01*
X216564403Y-154480714D02*
X216183450Y-154480714D01*
X216421546Y-155147380D02*
X216421546Y-154290238D01*
X216373927Y-154195000D01*
X216278689Y-154147380D01*
X216183450Y-154147380D01*
X215707260Y-155147380D02*
X215802498Y-155099761D01*
X215850117Y-155052142D01*
X215897736Y-154956904D01*
X215897736Y-154671190D01*
X215850117Y-154575952D01*
X215802498Y-154528333D01*
X215707260Y-154480714D01*
X215564403Y-154480714D01*
X215469165Y-154528333D01*
X215421546Y-154575952D01*
X215373927Y-154671190D01*
X215373927Y-154956904D01*
X215421546Y-155052142D01*
X215469165Y-155099761D01*
X215564403Y-155147380D01*
X215707260Y-155147380D01*
X214945355Y-155147380D02*
X214945355Y-154480714D01*
X214945355Y-154671190D02*
X214897736Y-154575952D01*
X214850117Y-154528333D01*
X214754879Y-154480714D01*
X214659641Y-154480714D01*
X231040593Y-156709761D02*
X230897736Y-156757380D01*
X230659641Y-156757380D01*
X230564403Y-156709761D01*
X230516784Y-156662142D01*
X230469165Y-156566904D01*
X230469165Y-156471666D01*
X230516784Y-156376428D01*
X230564403Y-156328809D01*
X230659641Y-156281190D01*
X230850117Y-156233571D01*
X230945355Y-156185952D01*
X230992974Y-156138333D01*
X231040593Y-156043095D01*
X231040593Y-155947857D01*
X230992974Y-155852619D01*
X230945355Y-155805000D01*
X230850117Y-155757380D01*
X230612022Y-155757380D01*
X230469165Y-155805000D01*
X229659641Y-156709761D02*
X229754879Y-156757380D01*
X229945355Y-156757380D01*
X230040593Y-156709761D01*
X230088212Y-156614523D01*
X230088212Y-156233571D01*
X230040593Y-156138333D01*
X229945355Y-156090714D01*
X229754879Y-156090714D01*
X229659641Y-156138333D01*
X229612022Y-156233571D01*
X229612022Y-156328809D01*
X230088212Y-156424047D01*
X228754879Y-156757380D02*
X228754879Y-156233571D01*
X228802498Y-156138333D01*
X228897736Y-156090714D01*
X229088212Y-156090714D01*
X229183450Y-156138333D01*
X228754879Y-156709761D02*
X228850117Y-156757380D01*
X229088212Y-156757380D01*
X229183450Y-156709761D01*
X229231070Y-156614523D01*
X229231070Y-156519285D01*
X229183450Y-156424047D01*
X229088212Y-156376428D01*
X228850117Y-156376428D01*
X228754879Y-156328809D01*
X227516784Y-156757380D02*
X227516784Y-155757380D01*
X226612022Y-156709761D02*
X226707260Y-156757380D01*
X226897736Y-156757380D01*
X226992974Y-156709761D01*
X227040593Y-156662142D01*
X227088212Y-156566904D01*
X227088212Y-156281190D01*
X227040593Y-156185952D01*
X226992974Y-156138333D01*
X226897736Y-156090714D01*
X226707260Y-156090714D01*
X226612022Y-156138333D01*
X225802498Y-156709761D02*
X225897736Y-156757380D01*
X226088212Y-156757380D01*
X226183450Y-156709761D01*
X226231070Y-156614523D01*
X226231070Y-156233571D01*
X226183450Y-156138333D01*
X226088212Y-156090714D01*
X225897736Y-156090714D01*
X225802498Y-156138333D01*
X225754879Y-156233571D01*
X225754879Y-156328809D01*
X226231070Y-156424047D01*
X224564403Y-156757380D02*
X224564403Y-155757380D01*
X224088212Y-156757380D02*
X224088212Y-156090714D01*
X224088212Y-156185952D02*
X224040593Y-156138333D01*
X223945355Y-156090714D01*
X223802498Y-156090714D01*
X223707260Y-156138333D01*
X223659641Y-156233571D01*
X223659641Y-156757380D01*
X223659641Y-156233571D02*
X223612022Y-156138333D01*
X223516784Y-156090714D01*
X223373927Y-156090714D01*
X223278689Y-156138333D01*
X223231070Y-156233571D01*
X223231070Y-156757380D01*
X222326308Y-156757380D02*
X222326308Y-156233571D01*
X222373927Y-156138333D01*
X222469165Y-156090714D01*
X222659641Y-156090714D01*
X222754879Y-156138333D01*
X222326308Y-156709761D02*
X222421546Y-156757380D01*
X222659641Y-156757380D01*
X222754879Y-156709761D01*
X222802498Y-156614523D01*
X222802498Y-156519285D01*
X222754879Y-156424047D01*
X222659641Y-156376428D01*
X222421546Y-156376428D01*
X222326308Y-156328809D01*
X221421546Y-156090714D02*
X221421546Y-156900238D01*
X221469165Y-156995476D01*
X221516784Y-157043095D01*
X221612022Y-157090714D01*
X221754879Y-157090714D01*
X221850117Y-157043095D01*
X221421546Y-156709761D02*
X221516784Y-156757380D01*
X221707260Y-156757380D01*
X221802498Y-156709761D01*
X221850117Y-156662142D01*
X221897736Y-156566904D01*
X221897736Y-156281190D01*
X221850117Y-156185952D01*
X221802498Y-156138333D01*
X221707260Y-156090714D01*
X221516784Y-156090714D01*
X221421546Y-156138333D01*
X220945355Y-156757380D02*
X220945355Y-156090714D01*
X220945355Y-155757380D02*
X220992974Y-155805000D01*
X220945355Y-155852619D01*
X220897736Y-155805000D01*
X220945355Y-155757380D01*
X220945355Y-155852619D01*
X220469165Y-156090714D02*
X220469165Y-156757380D01*
X220469165Y-156185952D02*
X220421546Y-156138333D01*
X220326308Y-156090714D01*
X220183450Y-156090714D01*
X220088212Y-156138333D01*
X220040593Y-156233571D01*
X220040593Y-156757380D01*
X219135831Y-156090714D02*
X219135831Y-156900238D01*
X219183450Y-156995476D01*
X219231070Y-157043095D01*
X219326308Y-157090714D01*
X219469165Y-157090714D01*
X219564403Y-157043095D01*
X219135831Y-156709761D02*
X219231070Y-156757380D01*
X219421546Y-156757380D01*
X219516784Y-156709761D01*
X219564403Y-156662142D01*
X219612022Y-156566904D01*
X219612022Y-156281190D01*
X219564403Y-156185952D01*
X219516784Y-156138333D01*
X219421546Y-156090714D01*
X219231070Y-156090714D01*
X219135831Y-156138333D01*
X217326308Y-156757380D02*
X217659641Y-156281190D01*
X217897736Y-156757380D02*
X217897736Y-155757380D01*
X217516784Y-155757380D01*
X217421546Y-155805000D01*
X217373927Y-155852619D01*
X217326308Y-155947857D01*
X217326308Y-156090714D01*
X217373927Y-156185952D01*
X217421546Y-156233571D01*
X217516784Y-156281190D01*
X217897736Y-156281190D01*
X216897736Y-156757380D02*
X216897736Y-156090714D01*
X216897736Y-155757380D02*
X216945355Y-155805000D01*
X216897736Y-155852619D01*
X216850117Y-155805000D01*
X216897736Y-155757380D01*
X216897736Y-155852619D01*
X215992974Y-156090714D02*
X215992974Y-156900238D01*
X216040593Y-156995476D01*
X216088212Y-157043095D01*
X216183450Y-157090714D01*
X216326308Y-157090714D01*
X216421546Y-157043095D01*
X215992974Y-156709761D02*
X216088212Y-156757380D01*
X216278689Y-156757380D01*
X216373927Y-156709761D01*
X216421546Y-156662142D01*
X216469165Y-156566904D01*
X216469165Y-156281190D01*
X216421546Y-156185952D01*
X216373927Y-156138333D01*
X216278689Y-156090714D01*
X216088212Y-156090714D01*
X215992974Y-156138333D01*
X236915751Y-134305428D02*
X236153846Y-134305428D01*
X236534799Y-134686380D02*
X236534799Y-133924476D01*
X215332418Y-141853047D02*
X215332418Y-141281619D01*
X214332418Y-141567333D02*
X215332418Y-141567333D01*
X214332418Y-140805428D02*
X214380037Y-140900666D01*
X214427656Y-140948285D01*
X214522894Y-140995904D01*
X214808608Y-140995904D01*
X214903846Y-140948285D01*
X214951465Y-140900666D01*
X214999084Y-140805428D01*
X214999084Y-140662571D01*
X214951465Y-140567333D01*
X214903846Y-140519714D01*
X214808608Y-140472095D01*
X214522894Y-140472095D01*
X214427656Y-140519714D01*
X214380037Y-140567333D01*
X214332418Y-140662571D01*
X214332418Y-140805428D01*
X214999084Y-139614952D02*
X214189560Y-139614952D01*
X214094322Y-139662571D01*
X214046703Y-139710190D01*
X213999084Y-139805428D01*
X213999084Y-139948285D01*
X214046703Y-140043523D01*
X214380037Y-139614952D02*
X214332418Y-139710190D01*
X214332418Y-139900666D01*
X214380037Y-139995904D01*
X214427656Y-140043523D01*
X214522894Y-140091142D01*
X214808608Y-140091142D01*
X214903846Y-140043523D01*
X214951465Y-139995904D01*
X214999084Y-139900666D01*
X214999084Y-139710190D01*
X214951465Y-139614952D01*
X214999084Y-138710190D02*
X214189560Y-138710190D01*
X214094322Y-138757809D01*
X214046703Y-138805428D01*
X213999084Y-138900666D01*
X213999084Y-139043523D01*
X214046703Y-139138761D01*
X214380037Y-138710190D02*
X214332418Y-138805428D01*
X214332418Y-138995904D01*
X214380037Y-139091142D01*
X214427656Y-139138761D01*
X214522894Y-139186380D01*
X214808608Y-139186380D01*
X214903846Y-139138761D01*
X214951465Y-139091142D01*
X214999084Y-138995904D01*
X214999084Y-138805428D01*
X214951465Y-138710190D01*
X214332418Y-138091142D02*
X214380037Y-138186380D01*
X214475275Y-138234000D01*
X215332418Y-138234000D01*
X214380037Y-137329238D02*
X214332418Y-137424476D01*
X214332418Y-137614952D01*
X214380037Y-137710190D01*
X214475275Y-137757809D01*
X214856227Y-137757809D01*
X214951465Y-137710190D01*
X214999084Y-137614952D01*
X214999084Y-137424476D01*
X214951465Y-137329238D01*
X214856227Y-137281619D01*
X214760989Y-137281619D01*
X214665751Y-137757809D01*
X214380037Y-136138761D02*
X214332418Y-135995904D01*
X214332418Y-135757809D01*
X214380037Y-135662571D01*
X214427656Y-135614952D01*
X214522894Y-135567333D01*
X214618132Y-135567333D01*
X214713370Y-135614952D01*
X214760989Y-135662571D01*
X214808608Y-135757809D01*
X214856227Y-135948285D01*
X214903846Y-136043523D01*
X214951465Y-136091142D01*
X215046703Y-136138761D01*
X215141941Y-136138761D01*
X215237179Y-136091142D01*
X215284799Y-136043523D01*
X215332418Y-135948285D01*
X215332418Y-135710190D01*
X215284799Y-135567333D01*
X214999084Y-135234000D02*
X214332418Y-135043523D01*
X214808608Y-134853047D01*
X214332418Y-134662571D01*
X214999084Y-134472095D01*
X214332418Y-134091142D02*
X214999084Y-134091142D01*
X215332418Y-134091142D02*
X215284799Y-134138761D01*
X215237179Y-134091142D01*
X215284799Y-134043523D01*
X215332418Y-134091142D01*
X215237179Y-134091142D01*
X214999084Y-133757809D02*
X214999084Y-133376857D01*
X215332418Y-133614952D02*
X214475275Y-133614952D01*
X214380037Y-133567333D01*
X214332418Y-133472095D01*
X214332418Y-133376857D01*
X214380037Y-132614952D02*
X214332418Y-132710190D01*
X214332418Y-132900666D01*
X214380037Y-132995904D01*
X214427656Y-133043523D01*
X214522894Y-133091142D01*
X214808608Y-133091142D01*
X214903846Y-133043523D01*
X214951465Y-132995904D01*
X214999084Y-132900666D01*
X214999084Y-132710190D01*
X214951465Y-132614952D01*
X214332418Y-132186380D02*
X215332418Y-132186380D01*
X214332418Y-131757809D02*
X214856227Y-131757809D01*
X214951465Y-131805428D01*
X214999084Y-131900666D01*
X214999084Y-132043523D01*
X214951465Y-132138761D01*
X214903846Y-132186380D01*
X233665751Y-134305428D02*
X232903846Y-134305428D01*
X265202380Y-150869047D02*
X265202380Y-151059523D01*
X265250000Y-151154761D01*
X265345238Y-151250000D01*
X265535714Y-151297619D01*
X265869047Y-151297619D01*
X266059523Y-151250000D01*
X266154761Y-151154761D01*
X266202380Y-151059523D01*
X266202380Y-150869047D01*
X266154761Y-150773809D01*
X266059523Y-150678571D01*
X265869047Y-150630952D01*
X265535714Y-150630952D01*
X265345238Y-150678571D01*
X265250000Y-150773809D01*
X265202380Y-150869047D01*
X265535714Y-152154761D02*
X266202380Y-152154761D01*
X265535714Y-151726190D02*
X266059523Y-151726190D01*
X266154761Y-151773809D01*
X266202380Y-151869047D01*
X266202380Y-152011904D01*
X266154761Y-152107142D01*
X266107142Y-152154761D01*
X265535714Y-152488095D02*
X265535714Y-152869047D01*
X265202380Y-152630952D02*
X266059523Y-152630952D01*
X266154761Y-152678571D01*
X266202380Y-152773809D01*
X266202380Y-152869047D01*
X265535714Y-153202380D02*
X266535714Y-153202380D01*
X265583333Y-153202380D02*
X265535714Y-153297619D01*
X265535714Y-153488095D01*
X265583333Y-153583333D01*
X265630952Y-153630952D01*
X265726190Y-153678571D01*
X266011904Y-153678571D01*
X266107142Y-153630952D01*
X266154761Y-153583333D01*
X266202380Y-153488095D01*
X266202380Y-153297619D01*
X266154761Y-153202380D01*
X265535714Y-154535714D02*
X266202380Y-154535714D01*
X265535714Y-154107142D02*
X266059523Y-154107142D01*
X266154761Y-154154761D01*
X266202380Y-154250000D01*
X266202380Y-154392857D01*
X266154761Y-154488095D01*
X266107142Y-154535714D01*
X265535714Y-154869047D02*
X265535714Y-155250000D01*
X265202380Y-155011904D02*
X266059523Y-155011904D01*
X266154761Y-155059523D01*
X266202380Y-155154761D01*
X266202380Y-155250000D01*
X265202380Y-156250000D02*
X265202380Y-156869047D01*
X265583333Y-156535714D01*
X265583333Y-156678571D01*
X265630952Y-156773809D01*
X265678571Y-156821428D01*
X265773809Y-156869047D01*
X266011904Y-156869047D01*
X266107142Y-156821428D01*
X266154761Y-156773809D01*
X266202380Y-156678571D01*
X266202380Y-156392857D01*
X266154761Y-156297619D01*
X266107142Y-156250000D01*
X265202380Y-136869047D02*
X265202380Y-137059523D01*
X265250000Y-137154761D01*
X265345238Y-137250000D01*
X265535714Y-137297619D01*
X265869047Y-137297619D01*
X266059523Y-137250000D01*
X266154761Y-137154761D01*
X266202380Y-137059523D01*
X266202380Y-136869047D01*
X266154761Y-136773809D01*
X266059523Y-136678571D01*
X265869047Y-136630952D01*
X265535714Y-136630952D01*
X265345238Y-136678571D01*
X265250000Y-136773809D01*
X265202380Y-136869047D01*
X265535714Y-138154761D02*
X266202380Y-138154761D01*
X265535714Y-137726190D02*
X266059523Y-137726190D01*
X266154761Y-137773809D01*
X266202380Y-137869047D01*
X266202380Y-138011904D01*
X266154761Y-138107142D01*
X266107142Y-138154761D01*
X265535714Y-138488095D02*
X265535714Y-138869047D01*
X265202380Y-138630952D02*
X266059523Y-138630952D01*
X266154761Y-138678571D01*
X266202380Y-138773809D01*
X266202380Y-138869047D01*
X265535714Y-139202380D02*
X266535714Y-139202380D01*
X265583333Y-139202380D02*
X265535714Y-139297619D01*
X265535714Y-139488095D01*
X265583333Y-139583333D01*
X265630952Y-139630952D01*
X265726190Y-139678571D01*
X266011904Y-139678571D01*
X266107142Y-139630952D01*
X266154761Y-139583333D01*
X266202380Y-139488095D01*
X266202380Y-139297619D01*
X266154761Y-139202380D01*
X265535714Y-140535714D02*
X266202380Y-140535714D01*
X265535714Y-140107142D02*
X266059523Y-140107142D01*
X266154761Y-140154761D01*
X266202380Y-140250000D01*
X266202380Y-140392857D01*
X266154761Y-140488095D01*
X266107142Y-140535714D01*
X265535714Y-140869047D02*
X265535714Y-141250000D01*
X265202380Y-141011904D02*
X266059523Y-141011904D01*
X266154761Y-141059523D01*
X266202380Y-141154761D01*
X266202380Y-141250000D01*
X265297619Y-142297619D02*
X265250000Y-142345238D01*
X265202380Y-142440476D01*
X265202380Y-142678571D01*
X265250000Y-142773809D01*
X265297619Y-142821428D01*
X265392857Y-142869047D01*
X265488095Y-142869047D01*
X265630952Y-142821428D01*
X266202380Y-142250000D01*
X266202380Y-142869047D01*
D11*
X200202380Y-160464285D02*
X200130952Y-160488095D01*
X200107142Y-160511904D01*
X200083333Y-160559523D01*
X200083333Y-160630952D01*
X200107142Y-160678571D01*
X200130952Y-160702380D01*
X200178571Y-160726190D01*
X200369047Y-160726190D01*
X200369047Y-160226190D01*
X200202380Y-160226190D01*
X200154761Y-160250000D01*
X200130952Y-160273809D01*
X200107142Y-160321428D01*
X200107142Y-160369047D01*
X200130952Y-160416666D01*
X200154761Y-160440476D01*
X200202380Y-160464285D01*
X200369047Y-160464285D01*
X199654761Y-160726190D02*
X199654761Y-160464285D01*
X199678571Y-160416666D01*
X199726190Y-160392857D01*
X199821428Y-160392857D01*
X199869047Y-160416666D01*
X199654761Y-160702380D02*
X199702380Y-160726190D01*
X199821428Y-160726190D01*
X199869047Y-160702380D01*
X199892857Y-160654761D01*
X199892857Y-160607142D01*
X199869047Y-160559523D01*
X199821428Y-160535714D01*
X199702380Y-160535714D01*
X199654761Y-160511904D01*
X199440476Y-160702380D02*
X199392857Y-160726190D01*
X199297619Y-160726190D01*
X199250000Y-160702380D01*
X199226190Y-160654761D01*
X199226190Y-160630952D01*
X199250000Y-160583333D01*
X199297619Y-160559523D01*
X199369047Y-160559523D01*
X199416666Y-160535714D01*
X199440476Y-160488095D01*
X199440476Y-160464285D01*
X199416666Y-160416666D01*
X199369047Y-160392857D01*
X199297619Y-160392857D01*
X199250000Y-160416666D01*
X198821428Y-160702380D02*
X198869047Y-160726190D01*
X198964285Y-160726190D01*
X199011904Y-160702380D01*
X199035714Y-160654761D01*
X199035714Y-160464285D01*
X199011904Y-160416666D01*
X198964285Y-160392857D01*
X198869047Y-160392857D01*
X198821428Y-160416666D01*
X198797619Y-160464285D01*
X198797619Y-160511904D01*
X199035714Y-160559523D01*
X198369047Y-160726190D02*
X198369047Y-160226190D01*
X198369047Y-160702380D02*
X198416666Y-160726190D01*
X198511904Y-160726190D01*
X198559523Y-160702380D01*
X198583333Y-160678571D01*
X198607142Y-160630952D01*
X198607142Y-160488095D01*
X198583333Y-160440476D01*
X198559523Y-160416666D01*
X198511904Y-160392857D01*
X198416666Y-160392857D01*
X198369047Y-160416666D01*
X197678571Y-160726190D02*
X197726190Y-160702380D01*
X197750000Y-160678571D01*
X197773809Y-160630952D01*
X197773809Y-160488095D01*
X197750000Y-160440476D01*
X197726190Y-160416666D01*
X197678571Y-160392857D01*
X197607142Y-160392857D01*
X197559523Y-160416666D01*
X197535714Y-160440476D01*
X197511904Y-160488095D01*
X197511904Y-160630952D01*
X197535714Y-160678571D01*
X197559523Y-160702380D01*
X197607142Y-160726190D01*
X197678571Y-160726190D01*
X197369047Y-160392857D02*
X197178571Y-160392857D01*
X197297619Y-160726190D02*
X197297619Y-160297619D01*
X197273809Y-160250000D01*
X197226190Y-160226190D01*
X197178571Y-160226190D01*
X197083333Y-160392857D02*
X196892857Y-160392857D01*
X197011904Y-160726190D02*
X197011904Y-160297619D01*
X196988095Y-160250000D01*
X196940476Y-160226190D01*
X196892857Y-160226190D01*
X196273809Y-160726190D02*
X196321428Y-160702380D01*
X196345238Y-160678571D01*
X196369047Y-160630952D01*
X196369047Y-160488095D01*
X196345238Y-160440476D01*
X196321428Y-160416666D01*
X196273809Y-160392857D01*
X196202380Y-160392857D01*
X196154761Y-160416666D01*
X196130952Y-160440476D01*
X196107142Y-160488095D01*
X196107142Y-160630952D01*
X196130952Y-160678571D01*
X196154761Y-160702380D01*
X196202380Y-160726190D01*
X196273809Y-160726190D01*
X195964285Y-160392857D02*
X195773809Y-160392857D01*
X195892857Y-160726190D02*
X195892857Y-160297619D01*
X195869047Y-160250000D01*
X195821428Y-160226190D01*
X195773809Y-160226190D01*
X195011904Y-160726190D02*
X195011904Y-160226190D01*
X195011904Y-160702380D02*
X195059523Y-160726190D01*
X195154761Y-160726190D01*
X195202380Y-160702380D01*
X195226190Y-160678571D01*
X195250000Y-160630952D01*
X195250000Y-160488095D01*
X195226190Y-160440476D01*
X195202380Y-160416666D01*
X195154761Y-160392857D01*
X195059523Y-160392857D01*
X195011904Y-160416666D01*
X194583333Y-160702380D02*
X194630952Y-160726190D01*
X194726190Y-160726190D01*
X194773809Y-160702380D01*
X194797619Y-160654761D01*
X194797619Y-160464285D01*
X194773809Y-160416666D01*
X194726190Y-160392857D01*
X194630952Y-160392857D01*
X194583333Y-160416666D01*
X194559523Y-160464285D01*
X194559523Y-160511904D01*
X194797619Y-160559523D01*
X194369047Y-160702380D02*
X194321428Y-160726190D01*
X194226190Y-160726190D01*
X194178571Y-160702380D01*
X194154761Y-160654761D01*
X194154761Y-160630952D01*
X194178571Y-160583333D01*
X194226190Y-160559523D01*
X194297619Y-160559523D01*
X194345238Y-160535714D01*
X194369047Y-160488095D01*
X194369047Y-160464285D01*
X194345238Y-160416666D01*
X194297619Y-160392857D01*
X194226190Y-160392857D01*
X194178571Y-160416666D01*
X193940476Y-160726190D02*
X193940476Y-160392857D01*
X193940476Y-160226190D02*
X193964285Y-160250000D01*
X193940476Y-160273809D01*
X193916666Y-160250000D01*
X193940476Y-160226190D01*
X193940476Y-160273809D01*
X193488095Y-160392857D02*
X193488095Y-160797619D01*
X193511904Y-160845238D01*
X193535714Y-160869047D01*
X193583333Y-160892857D01*
X193654761Y-160892857D01*
X193702380Y-160869047D01*
X193488095Y-160702380D02*
X193535714Y-160726190D01*
X193630952Y-160726190D01*
X193678571Y-160702380D01*
X193702380Y-160678571D01*
X193726190Y-160630952D01*
X193726190Y-160488095D01*
X193702380Y-160440476D01*
X193678571Y-160416666D01*
X193630952Y-160392857D01*
X193535714Y-160392857D01*
X193488095Y-160416666D01*
X193250000Y-160392857D02*
X193250000Y-160726190D01*
X193250000Y-160440476D02*
X193226190Y-160416666D01*
X193178571Y-160392857D01*
X193107142Y-160392857D01*
X193059523Y-160416666D01*
X193035714Y-160464285D01*
X193035714Y-160726190D01*
X192416666Y-160726190D02*
X192416666Y-160226190D01*
X192416666Y-160416666D02*
X192369047Y-160392857D01*
X192273809Y-160392857D01*
X192226190Y-160416666D01*
X192202380Y-160440476D01*
X192178571Y-160488095D01*
X192178571Y-160630952D01*
X192202380Y-160678571D01*
X192226190Y-160702380D01*
X192273809Y-160726190D01*
X192369047Y-160726190D01*
X192416666Y-160702380D01*
X192011904Y-160392857D02*
X191892857Y-160726190D01*
X191773809Y-160392857D02*
X191892857Y-160726190D01*
X191940476Y-160845238D01*
X191964285Y-160869047D01*
X192011904Y-160892857D01*
X191226190Y-160702380D02*
X191154761Y-160726190D01*
X191035714Y-160726190D01*
X190988095Y-160702380D01*
X190964285Y-160678571D01*
X190940476Y-160630952D01*
X190940476Y-160583333D01*
X190964285Y-160535714D01*
X190988095Y-160511904D01*
X191035714Y-160488095D01*
X191130952Y-160464285D01*
X191178571Y-160440476D01*
X191202380Y-160416666D01*
X191226190Y-160369047D01*
X191226190Y-160321428D01*
X191202380Y-160273809D01*
X191178571Y-160250000D01*
X191130952Y-160226190D01*
X191011904Y-160226190D01*
X190940476Y-160250000D01*
X190797619Y-160392857D02*
X190607142Y-160392857D01*
X190726190Y-160226190D02*
X190726190Y-160654761D01*
X190702380Y-160702380D01*
X190654761Y-160726190D01*
X190607142Y-160726190D01*
X190226190Y-160726190D02*
X190226190Y-160464285D01*
X190250000Y-160416666D01*
X190297619Y-160392857D01*
X190392857Y-160392857D01*
X190440476Y-160416666D01*
X190226190Y-160702380D02*
X190273809Y-160726190D01*
X190392857Y-160726190D01*
X190440476Y-160702380D01*
X190464285Y-160654761D01*
X190464285Y-160607142D01*
X190440476Y-160559523D01*
X190392857Y-160535714D01*
X190273809Y-160535714D01*
X190226190Y-160511904D01*
X189988095Y-160392857D02*
X189988095Y-160726190D01*
X189988095Y-160440476D02*
X189964285Y-160416666D01*
X189916666Y-160392857D01*
X189845238Y-160392857D01*
X189797619Y-160416666D01*
X189773809Y-160464285D01*
X189773809Y-160726190D01*
X189607142Y-160392857D02*
X189416666Y-160392857D01*
X189535714Y-160226190D02*
X189535714Y-160654761D01*
X189511904Y-160702380D01*
X189464285Y-160726190D01*
X189416666Y-160726190D01*
X189178571Y-160726190D02*
X189226190Y-160702380D01*
X189250000Y-160678571D01*
X189273809Y-160630952D01*
X189273809Y-160488095D01*
X189250000Y-160440476D01*
X189226190Y-160416666D01*
X189178571Y-160392857D01*
X189107142Y-160392857D01*
X189059523Y-160416666D01*
X189035714Y-160440476D01*
X189011904Y-160488095D01*
X189011904Y-160630952D01*
X189035714Y-160678571D01*
X189059523Y-160702380D01*
X189107142Y-160726190D01*
X189178571Y-160726190D01*
X188797619Y-160392857D02*
X188797619Y-160726190D01*
X188797619Y-160440476D02*
X188773809Y-160416666D01*
X188726190Y-160392857D01*
X188654761Y-160392857D01*
X188607142Y-160416666D01*
X188583333Y-160464285D01*
X188583333Y-160726190D01*
X187821428Y-160916666D02*
X187845238Y-160892857D01*
X187892857Y-160821428D01*
X187916666Y-160773809D01*
X187940476Y-160702380D01*
X187964285Y-160583333D01*
X187964285Y-160488095D01*
X187940476Y-160369047D01*
X187916666Y-160297619D01*
X187892857Y-160250000D01*
X187845238Y-160178571D01*
X187821428Y-160154761D01*
X187654761Y-160273809D02*
X187630952Y-160250000D01*
X187583333Y-160226190D01*
X187464285Y-160226190D01*
X187416666Y-160250000D01*
X187392857Y-160273809D01*
X187369047Y-160321428D01*
X187369047Y-160369047D01*
X187392857Y-160440476D01*
X187678571Y-160726190D01*
X187369047Y-160726190D01*
X187059523Y-160226190D02*
X187011904Y-160226190D01*
X186964285Y-160250000D01*
X186940476Y-160273809D01*
X186916666Y-160321428D01*
X186892857Y-160416666D01*
X186892857Y-160535714D01*
X186916666Y-160630952D01*
X186940476Y-160678571D01*
X186964285Y-160702380D01*
X187011904Y-160726190D01*
X187059523Y-160726190D01*
X187107142Y-160702380D01*
X187130952Y-160678571D01*
X187154761Y-160630952D01*
X187178571Y-160535714D01*
X187178571Y-160416666D01*
X187154761Y-160321428D01*
X187130952Y-160273809D01*
X187107142Y-160250000D01*
X187059523Y-160226190D01*
X186702380Y-160273809D02*
X186678571Y-160250000D01*
X186630952Y-160226190D01*
X186511904Y-160226190D01*
X186464285Y-160250000D01*
X186440476Y-160273809D01*
X186416666Y-160321428D01*
X186416666Y-160369047D01*
X186440476Y-160440476D01*
X186726190Y-160726190D01*
X186416666Y-160726190D01*
X186226190Y-160273809D02*
X186202380Y-160250000D01*
X186154761Y-160226190D01*
X186035714Y-160226190D01*
X185988095Y-160250000D01*
X185964285Y-160273809D01*
X185940476Y-160321428D01*
X185940476Y-160369047D01*
X185964285Y-160440476D01*
X186250000Y-160726190D01*
X185940476Y-160726190D01*
X185773809Y-160916666D02*
X185750000Y-160892857D01*
X185702380Y-160821428D01*
X185678571Y-160773809D01*
X185654761Y-160702380D01*
X185630952Y-160583333D01*
X185630952Y-160488095D01*
X185654761Y-160369047D01*
X185678571Y-160297619D01*
X185702380Y-160250000D01*
X185750000Y-160178571D01*
X185773809Y-160154761D01*
D10*
X212140656Y-144138761D02*
X211997799Y-144186380D01*
X211759703Y-144186380D01*
X211664465Y-144138761D01*
X211616846Y-144091142D01*
X211569227Y-143995904D01*
X211569227Y-143900666D01*
X211616846Y-143805428D01*
X211664465Y-143757809D01*
X211759703Y-143710190D01*
X211950179Y-143662571D01*
X212045418Y-143614952D01*
X212093037Y-143567333D01*
X212140656Y-143472095D01*
X212140656Y-143376857D01*
X212093037Y-143281619D01*
X212045418Y-143234000D01*
X211950179Y-143186380D01*
X211712084Y-143186380D01*
X211569227Y-143234000D01*
X210712084Y-143519714D02*
X210712084Y-144186380D01*
X211140656Y-143519714D02*
X211140656Y-144043523D01*
X211093037Y-144138761D01*
X210997799Y-144186380D01*
X210854941Y-144186380D01*
X210759703Y-144138761D01*
X210712084Y-144091142D01*
X210235894Y-143519714D02*
X210235894Y-144519714D01*
X210235894Y-143567333D02*
X210140656Y-143519714D01*
X209950179Y-143519714D01*
X209854941Y-143567333D01*
X209807322Y-143614952D01*
X209759703Y-143710190D01*
X209759703Y-143995904D01*
X209807322Y-144091142D01*
X209854941Y-144138761D01*
X209950179Y-144186380D01*
X210140656Y-144186380D01*
X210235894Y-144138761D01*
X209331132Y-143519714D02*
X209331132Y-144519714D01*
X209331132Y-143567333D02*
X209235894Y-143519714D01*
X209045418Y-143519714D01*
X208950179Y-143567333D01*
X208902560Y-143614952D01*
X208854941Y-143710190D01*
X208854941Y-143995904D01*
X208902560Y-144091142D01*
X208950179Y-144138761D01*
X209045418Y-144186380D01*
X209235894Y-144186380D01*
X209331132Y-144138761D01*
X208283513Y-144186380D02*
X208378751Y-144138761D01*
X208426370Y-144043523D01*
X208426370Y-143186380D01*
X207997799Y-143519714D02*
X207759703Y-144186380D01*
X207521608Y-143519714D02*
X207759703Y-144186380D01*
X207854941Y-144424476D01*
X207902560Y-144472095D01*
X207997799Y-144519714D01*
X206426370Y-143281619D02*
X206378751Y-143234000D01*
X206283513Y-143186380D01*
X206045418Y-143186380D01*
X205950179Y-143234000D01*
X205902560Y-143281619D01*
X205854941Y-143376857D01*
X205854941Y-143472095D01*
X205902560Y-143614952D01*
X206473989Y-144186380D01*
X205854941Y-144186380D01*
X251892857Y-119339285D02*
X251642857Y-120089285D01*
X251392857Y-119339285D01*
X251035714Y-120089285D02*
X251107142Y-120053571D01*
X251142857Y-120017857D01*
X251178571Y-119946428D01*
X251178571Y-119732142D01*
X251142857Y-119660714D01*
X251107142Y-119625000D01*
X251035714Y-119589285D01*
X250928571Y-119589285D01*
X250857142Y-119625000D01*
X250821428Y-119660714D01*
X250785714Y-119732142D01*
X250785714Y-119946428D01*
X250821428Y-120017857D01*
X250857142Y-120053571D01*
X250928571Y-120089285D01*
X251035714Y-120089285D01*
X250142857Y-119589285D02*
X250142857Y-120089285D01*
X250464285Y-119589285D02*
X250464285Y-119982142D01*
X250428571Y-120053571D01*
X250357142Y-120089285D01*
X250250000Y-120089285D01*
X250178571Y-120053571D01*
X250142857Y-120017857D01*
X249892857Y-119589285D02*
X249607142Y-119589285D01*
X249785714Y-119339285D02*
X249785714Y-119982142D01*
X249750000Y-120053571D01*
X249678571Y-120089285D01*
X249607142Y-120089285D01*
X231052498Y-159001535D02*
X231052498Y-158251535D01*
X230873927Y-158251535D01*
X230766784Y-158287250D01*
X230695355Y-158358678D01*
X230659641Y-158430107D01*
X230623927Y-158572964D01*
X230623927Y-158680107D01*
X230659641Y-158822964D01*
X230695355Y-158894392D01*
X230766784Y-158965821D01*
X230873927Y-159001535D01*
X231052498Y-159001535D01*
X230016784Y-158965821D02*
X230088212Y-159001535D01*
X230231070Y-159001535D01*
X230302498Y-158965821D01*
X230338212Y-158894392D01*
X230338212Y-158608678D01*
X230302498Y-158537250D01*
X230231070Y-158501535D01*
X230088212Y-158501535D01*
X230016784Y-158537250D01*
X229981070Y-158608678D01*
X229981070Y-158680107D01*
X230338212Y-158751535D01*
X229695355Y-158965821D02*
X229623927Y-159001535D01*
X229481070Y-159001535D01*
X229409641Y-158965821D01*
X229373927Y-158894392D01*
X229373927Y-158858678D01*
X229409641Y-158787250D01*
X229481070Y-158751535D01*
X229588212Y-158751535D01*
X229659641Y-158715821D01*
X229695355Y-158644392D01*
X229695355Y-158608678D01*
X229659641Y-158537250D01*
X229588212Y-158501535D01*
X229481070Y-158501535D01*
X229409641Y-158537250D01*
X229052498Y-159001535D02*
X229052498Y-158501535D01*
X229052498Y-158251535D02*
X229088212Y-158287250D01*
X229052498Y-158322964D01*
X229016784Y-158287250D01*
X229052498Y-158251535D01*
X229052498Y-158322964D01*
X228373927Y-158501535D02*
X228373927Y-159108678D01*
X228409641Y-159180107D01*
X228445355Y-159215821D01*
X228516784Y-159251535D01*
X228623927Y-159251535D01*
X228695355Y-159215821D01*
X228373927Y-158965821D02*
X228445355Y-159001535D01*
X228588212Y-159001535D01*
X228659641Y-158965821D01*
X228695355Y-158930107D01*
X228731070Y-158858678D01*
X228731070Y-158644392D01*
X228695355Y-158572964D01*
X228659641Y-158537250D01*
X228588212Y-158501535D01*
X228445355Y-158501535D01*
X228373927Y-158537250D01*
X228016784Y-158501535D02*
X228016784Y-159001535D01*
X228016784Y-158572964D02*
X227981070Y-158537250D01*
X227909641Y-158501535D01*
X227802498Y-158501535D01*
X227731070Y-158537250D01*
X227695355Y-158608678D01*
X227695355Y-159001535D01*
X227052498Y-158965821D02*
X227123927Y-159001535D01*
X227266784Y-159001535D01*
X227338212Y-158965821D01*
X227373927Y-158894392D01*
X227373927Y-158608678D01*
X227338212Y-158537250D01*
X227266784Y-158501535D01*
X227123927Y-158501535D01*
X227052498Y-158537250D01*
X227016784Y-158608678D01*
X227016784Y-158680107D01*
X227373927Y-158751535D01*
X226373927Y-159001535D02*
X226373927Y-158251535D01*
X226373927Y-158965821D02*
X226445355Y-159001535D01*
X226588212Y-159001535D01*
X226659641Y-158965821D01*
X226695355Y-158930107D01*
X226731070Y-158858678D01*
X226731070Y-158644392D01*
X226695355Y-158572964D01*
X226659641Y-158537250D01*
X226588212Y-158501535D01*
X226445355Y-158501535D01*
X226373927Y-158537250D01*
X225445355Y-159001535D02*
X225445355Y-158251535D01*
X225445355Y-158537250D02*
X225373927Y-158501535D01*
X225231070Y-158501535D01*
X225159641Y-158537250D01*
X225123927Y-158572964D01*
X225088212Y-158644392D01*
X225088212Y-158858678D01*
X225123927Y-158930107D01*
X225159641Y-158965821D01*
X225231070Y-159001535D01*
X225373927Y-159001535D01*
X225445355Y-158965821D01*
X224838212Y-158501535D02*
X224659641Y-159001535D01*
X224481070Y-158501535D02*
X224659641Y-159001535D01*
X224731070Y-159180107D01*
X224766784Y-159215821D01*
X224838212Y-159251535D01*
X223659641Y-158965821D02*
X223552498Y-159001535D01*
X223373927Y-159001535D01*
X223302498Y-158965821D01*
X223266784Y-158930107D01*
X223231070Y-158858678D01*
X223231070Y-158787250D01*
X223266784Y-158715821D01*
X223302498Y-158680107D01*
X223373927Y-158644392D01*
X223516784Y-158608678D01*
X223588212Y-158572964D01*
X223623927Y-158537250D01*
X223659641Y-158465821D01*
X223659641Y-158394392D01*
X223623927Y-158322964D01*
X223588212Y-158287250D01*
X223516784Y-158251535D01*
X223338212Y-158251535D01*
X223231070Y-158287250D01*
X222588212Y-159001535D02*
X222588212Y-158608678D01*
X222623927Y-158537250D01*
X222695355Y-158501535D01*
X222838212Y-158501535D01*
X222909641Y-158537250D01*
X222588212Y-158965821D02*
X222659641Y-159001535D01*
X222838212Y-159001535D01*
X222909641Y-158965821D01*
X222945355Y-158894392D01*
X222945355Y-158822964D01*
X222909641Y-158751535D01*
X222838212Y-158715821D01*
X222659641Y-158715821D01*
X222588212Y-158680107D01*
X222231070Y-159001535D02*
X222231070Y-158501535D01*
X222231070Y-158644392D02*
X222195355Y-158572964D01*
X222159641Y-158537250D01*
X222088212Y-158501535D01*
X222016784Y-158501535D01*
X221445355Y-159001535D02*
X221445355Y-158608678D01*
X221481070Y-158537250D01*
X221552498Y-158501535D01*
X221695355Y-158501535D01*
X221766784Y-158537250D01*
X221445355Y-158965821D02*
X221516784Y-159001535D01*
X221695355Y-159001535D01*
X221766784Y-158965821D01*
X221802498Y-158894392D01*
X221802498Y-158822964D01*
X221766784Y-158751535D01*
X221695355Y-158715821D01*
X221516784Y-158715821D01*
X221445355Y-158680107D01*
X221088212Y-159001535D02*
X221088212Y-158251535D01*
X220766784Y-159001535D02*
X220766784Y-158608678D01*
X220802498Y-158537250D01*
X220873927Y-158501535D01*
X220981070Y-158501535D01*
X221052498Y-158537250D01*
X221088212Y-158572964D01*
X219945355Y-158251535D02*
X219516784Y-158251535D01*
X219731070Y-159001535D02*
X219731070Y-158251535D01*
X218945355Y-159001535D02*
X218945355Y-158608678D01*
X218981070Y-158537250D01*
X219052498Y-158501535D01*
X219195355Y-158501535D01*
X219266784Y-158537250D01*
X218945355Y-158965821D02*
X219016784Y-159001535D01*
X219195355Y-159001535D01*
X219266784Y-158965821D01*
X219302498Y-158894392D01*
X219302498Y-158822964D01*
X219266784Y-158751535D01*
X219195355Y-158715821D01*
X219016784Y-158715821D01*
X218945355Y-158680107D01*
X218481070Y-159001535D02*
X218552498Y-158965821D01*
X218588212Y-158894392D01*
X218588212Y-158251535D01*
X218088212Y-159001535D02*
X218159641Y-158965821D01*
X218195355Y-158894392D01*
X218195355Y-158251535D01*
X217481070Y-159001535D02*
X217481070Y-158608678D01*
X217516784Y-158537250D01*
X217588212Y-158501535D01*
X217731070Y-158501535D01*
X217802498Y-158537250D01*
X217481070Y-158965821D02*
X217552498Y-159001535D01*
X217731070Y-159001535D01*
X217802498Y-158965821D01*
X217838212Y-158894392D01*
X217838212Y-158822964D01*
X217802498Y-158751535D01*
X217731070Y-158715821D01*
X217552498Y-158715821D01*
X217481070Y-158680107D01*
X216802498Y-158965821D02*
X216873927Y-159001535D01*
X217016784Y-159001535D01*
X217088212Y-158965821D01*
X217123927Y-158930107D01*
X217159641Y-158858678D01*
X217159641Y-158644392D01*
X217123927Y-158572964D01*
X217088212Y-158537250D01*
X217016784Y-158501535D01*
X216873927Y-158501535D01*
X216802498Y-158537250D01*
X216481070Y-159001535D02*
X216481070Y-158251535D01*
X216409641Y-158715821D02*
X216195355Y-159001535D01*
X216195355Y-158501535D02*
X216481070Y-158787250D01*
X231052498Y-160209035D02*
X231052498Y-159459035D01*
X230873927Y-159459035D01*
X230766784Y-159494750D01*
X230695355Y-159566178D01*
X230659641Y-159637607D01*
X230623927Y-159780464D01*
X230623927Y-159887607D01*
X230659641Y-160030464D01*
X230695355Y-160101892D01*
X230766784Y-160173321D01*
X230873927Y-160209035D01*
X231052498Y-160209035D01*
X230016784Y-160173321D02*
X230088212Y-160209035D01*
X230231070Y-160209035D01*
X230302498Y-160173321D01*
X230338212Y-160101892D01*
X230338212Y-159816178D01*
X230302498Y-159744750D01*
X230231070Y-159709035D01*
X230088212Y-159709035D01*
X230016784Y-159744750D01*
X229981070Y-159816178D01*
X229981070Y-159887607D01*
X230338212Y-159959035D01*
X229338212Y-160173321D02*
X229409641Y-160209035D01*
X229552498Y-160209035D01*
X229623927Y-160173321D01*
X229659641Y-160137607D01*
X229695355Y-160066178D01*
X229695355Y-159851892D01*
X229659641Y-159780464D01*
X229623927Y-159744750D01*
X229552498Y-159709035D01*
X229409641Y-159709035D01*
X229338212Y-159744750D01*
X228731070Y-160173321D02*
X228802498Y-160209035D01*
X228945355Y-160209035D01*
X229016784Y-160173321D01*
X229052498Y-160101892D01*
X229052498Y-159816178D01*
X229016784Y-159744750D01*
X228945355Y-159709035D01*
X228802498Y-159709035D01*
X228731070Y-159744750D01*
X228695355Y-159816178D01*
X228695355Y-159887607D01*
X229052498Y-159959035D01*
X228373927Y-160209035D02*
X228373927Y-159709035D01*
X228373927Y-159780464D02*
X228338212Y-159744750D01*
X228266784Y-159709035D01*
X228159641Y-159709035D01*
X228088212Y-159744750D01*
X228052498Y-159816178D01*
X228052498Y-160209035D01*
X228052498Y-159816178D02*
X228016784Y-159744750D01*
X227945355Y-159709035D01*
X227838212Y-159709035D01*
X227766784Y-159744750D01*
X227731070Y-159816178D01*
X227731070Y-160209035D01*
X227373927Y-160209035D02*
X227373927Y-159459035D01*
X227373927Y-159744750D02*
X227302498Y-159709035D01*
X227159641Y-159709035D01*
X227088212Y-159744750D01*
X227052498Y-159780464D01*
X227016784Y-159851892D01*
X227016784Y-160066178D01*
X227052498Y-160137607D01*
X227088212Y-160173321D01*
X227159641Y-160209035D01*
X227302498Y-160209035D01*
X227373927Y-160173321D01*
X226409641Y-160173321D02*
X226481070Y-160209035D01*
X226623927Y-160209035D01*
X226695355Y-160173321D01*
X226731070Y-160101892D01*
X226731070Y-159816178D01*
X226695355Y-159744750D01*
X226623927Y-159709035D01*
X226481070Y-159709035D01*
X226409641Y-159744750D01*
X226373927Y-159816178D01*
X226373927Y-159887607D01*
X226731070Y-159959035D01*
X226052498Y-160209035D02*
X226052498Y-159709035D01*
X226052498Y-159851892D02*
X226016784Y-159780464D01*
X225981070Y-159744750D01*
X225909641Y-159709035D01*
X225838212Y-159709035D01*
X225052498Y-159530464D02*
X225016784Y-159494750D01*
X224945355Y-159459035D01*
X224766784Y-159459035D01*
X224695355Y-159494750D01*
X224659641Y-159530464D01*
X224623927Y-159601892D01*
X224623927Y-159673321D01*
X224659641Y-159780464D01*
X225088212Y-160209035D01*
X224623927Y-160209035D01*
X224159641Y-159459035D02*
X224088212Y-159459035D01*
X224016784Y-159494750D01*
X223981070Y-159530464D01*
X223945355Y-159601892D01*
X223909641Y-159744750D01*
X223909641Y-159923321D01*
X223945355Y-160066178D01*
X223981070Y-160137607D01*
X224016784Y-160173321D01*
X224088212Y-160209035D01*
X224159641Y-160209035D01*
X224231070Y-160173321D01*
X224266784Y-160137607D01*
X224302498Y-160066178D01*
X224338212Y-159923321D01*
X224338212Y-159744750D01*
X224302498Y-159601892D01*
X224266784Y-159530464D01*
X224231070Y-159494750D01*
X224159641Y-159459035D01*
X223623927Y-159530464D02*
X223588212Y-159494750D01*
X223516784Y-159459035D01*
X223338212Y-159459035D01*
X223266784Y-159494750D01*
X223231070Y-159530464D01*
X223195355Y-159601892D01*
X223195355Y-159673321D01*
X223231070Y-159780464D01*
X223659641Y-160209035D01*
X223195355Y-160209035D01*
X222909641Y-159530464D02*
X222873927Y-159494750D01*
X222802498Y-159459035D01*
X222623927Y-159459035D01*
X222552498Y-159494750D01*
X222516784Y-159530464D01*
X222481070Y-159601892D01*
X222481070Y-159673321D01*
X222516784Y-159780464D01*
X222945355Y-160209035D01*
X222481070Y-160209035D01*
X242910714Y-118949821D02*
X242803571Y-118985535D01*
X242625000Y-118985535D01*
X242553571Y-118949821D01*
X242517857Y-118914107D01*
X242482142Y-118842678D01*
X242482142Y-118771250D01*
X242517857Y-118699821D01*
X242553571Y-118664107D01*
X242625000Y-118628392D01*
X242767857Y-118592678D01*
X242839285Y-118556964D01*
X242875000Y-118521250D01*
X242910714Y-118449821D01*
X242910714Y-118378392D01*
X242875000Y-118306964D01*
X242839285Y-118271250D01*
X242767857Y-118235535D01*
X242589285Y-118235535D01*
X242482142Y-118271250D01*
X242232142Y-118485535D02*
X242089285Y-118985535D01*
X241946428Y-118628392D01*
X241803571Y-118985535D01*
X241660714Y-118485535D01*
X241375000Y-118985535D02*
X241375000Y-118485535D01*
X241375000Y-118235535D02*
X241410714Y-118271250D01*
X241375000Y-118306964D01*
X241339285Y-118271250D01*
X241375000Y-118235535D01*
X241375000Y-118306964D01*
X241125000Y-118485535D02*
X240839285Y-118485535D01*
X241017857Y-118235535D02*
X241017857Y-118878392D01*
X240982142Y-118949821D01*
X240910714Y-118985535D01*
X240839285Y-118985535D01*
X240267857Y-118949821D02*
X240339285Y-118985535D01*
X240482142Y-118985535D01*
X240553571Y-118949821D01*
X240589285Y-118914107D01*
X240625000Y-118842678D01*
X240625000Y-118628392D01*
X240589285Y-118556964D01*
X240553571Y-118521250D01*
X240482142Y-118485535D01*
X240339285Y-118485535D01*
X240267857Y-118521250D01*
X239946428Y-118985535D02*
X239946428Y-118235535D01*
X239625000Y-118985535D02*
X239625000Y-118592678D01*
X239660714Y-118521250D01*
X239732142Y-118485535D01*
X239839285Y-118485535D01*
X239910714Y-118521250D01*
X239946428Y-118556964D01*
X242767857Y-119443035D02*
X242625000Y-119443035D01*
X242553571Y-119478750D01*
X242482142Y-119550178D01*
X242446428Y-119693035D01*
X242446428Y-119943035D01*
X242482142Y-120085892D01*
X242553571Y-120157321D01*
X242625000Y-120193035D01*
X242767857Y-120193035D01*
X242839285Y-120157321D01*
X242910714Y-120085892D01*
X242946428Y-119943035D01*
X242946428Y-119693035D01*
X242910714Y-119550178D01*
X242839285Y-119478750D01*
X242767857Y-119443035D01*
X241803571Y-119693035D02*
X241803571Y-120193035D01*
X242125000Y-119693035D02*
X242125000Y-120085892D01*
X242089285Y-120157321D01*
X242017857Y-120193035D01*
X241910714Y-120193035D01*
X241839285Y-120157321D01*
X241803571Y-120121607D01*
X241553571Y-119693035D02*
X241267857Y-119693035D01*
X241446428Y-119443035D02*
X241446428Y-120085892D01*
X241410714Y-120157321D01*
X241339285Y-120193035D01*
X241267857Y-120193035D01*
X241017857Y-119693035D02*
X241017857Y-120443035D01*
X241017857Y-119728750D02*
X240946428Y-119693035D01*
X240803571Y-119693035D01*
X240732142Y-119728750D01*
X240696428Y-119764464D01*
X240660714Y-119835892D01*
X240660714Y-120050178D01*
X240696428Y-120121607D01*
X240732142Y-120157321D01*
X240803571Y-120193035D01*
X240946428Y-120193035D01*
X241017857Y-120157321D01*
X240017857Y-119693035D02*
X240017857Y-120193035D01*
X240339285Y-119693035D02*
X240339285Y-120085892D01*
X240303571Y-120157321D01*
X240232142Y-120193035D01*
X240125000Y-120193035D01*
X240053571Y-120157321D01*
X240017857Y-120121607D01*
X239767857Y-119693035D02*
X239482142Y-119693035D01*
X239660714Y-119443035D02*
X239660714Y-120085892D01*
X239625000Y-120157321D01*
X239553571Y-120193035D01*
X239482142Y-120193035D01*
D12*
%TO.C,J6*%
X211871870Y-148524485D02*
X212688299Y-148524485D01*
X212851584Y-148470057D01*
X212960441Y-148361200D01*
X213014870Y-148197914D01*
X213014870Y-148089057D01*
X211871870Y-149558628D02*
X211871870Y-149340914D01*
X211926299Y-149232057D01*
X211980727Y-149177628D01*
X212144013Y-149068771D01*
X212361727Y-149014342D01*
X212797156Y-149014342D01*
X212906013Y-149068771D01*
X212960441Y-149123200D01*
X213014870Y-149232057D01*
X213014870Y-149449771D01*
X212960441Y-149558628D01*
X212906013Y-149613057D01*
X212797156Y-149667485D01*
X212525013Y-149667485D01*
X212416156Y-149613057D01*
X212361727Y-149558628D01*
X212307299Y-149449771D01*
X212307299Y-149232057D01*
X212361727Y-149123200D01*
X212416156Y-149068771D01*
X212525013Y-149014342D01*
%TO.C,J7*%
X240587284Y-135858071D02*
X240587284Y-136674500D01*
X240641713Y-136837785D01*
X240750570Y-136946642D01*
X240913856Y-137001071D01*
X241022713Y-137001071D01*
X240151856Y-135858071D02*
X239389856Y-135858071D01*
X239879713Y-137001071D01*
D13*
%TO.C,J6*%
X213397799Y-130763000D02*
X205171799Y-130763000D01*
X212547799Y-141763000D02*
X213397799Y-141763000D01*
X213397799Y-131642000D02*
X212547799Y-131642000D01*
X212547799Y-131642000D02*
X212547799Y-141763000D01*
X213397799Y-142705000D02*
X213397799Y-130763000D01*
X205171799Y-130767000D02*
X205171799Y-142705000D01*
X205171799Y-142705000D02*
X213397799Y-142705000D01*
%TO.C,J7*%
X233057799Y-141350000D02*
X233057799Y-140766000D01*
X237299799Y-141350000D02*
X237299799Y-140766000D01*
X237934799Y-136245000D02*
X237908799Y-136245000D01*
X231660799Y-140766000D02*
X237934799Y-140766000D01*
X231076799Y-135610000D02*
X231076799Y-135686000D01*
X236524799Y-141363000D02*
X236524799Y-140779000D01*
X231076799Y-135686000D02*
X231685799Y-136295000D01*
X238518799Y-135610000D02*
X238518799Y-135686000D01*
X238543799Y-135584000D02*
X238543799Y-141384000D01*
X238543799Y-139902000D02*
X237959799Y-139902000D01*
X231635799Y-140080000D02*
X231050799Y-140080000D01*
X231660799Y-136219000D02*
X231660799Y-140766000D01*
X237934799Y-136219000D02*
X231660799Y-136219000D01*
X231025799Y-135584000D02*
X231025799Y-141375000D01*
X237934799Y-140766000D02*
X237934799Y-136245000D01*
X238518799Y-135686000D02*
X237908799Y-136295000D01*
X238543799Y-135584000D02*
X231043799Y-135584000D01*
X232282799Y-141363000D02*
X232282799Y-140779000D01*
X238525799Y-141375000D02*
X231025799Y-141375000D01*
%TD*%
%LPC*%
D14*
%TO.C,J2*%
X201114812Y-155129981D03*
X201114812Y-147929981D03*
D15*
X195114812Y-144779981D03*
X195114812Y-158279981D03*
%TD*%
D16*
%TO.C,J5*%
X253650799Y-154000000D03*
X259650799Y-154000000D03*
D17*
X256650799Y-149296000D03*
%TD*%
D18*
%TO.C,F1*%
X208495493Y-125618818D03*
X231121493Y-125618818D03*
%TD*%
D16*
%TO.C,J3*%
X253639455Y-126000000D03*
X259639455Y-126000000D03*
D17*
X256639455Y-121296000D03*
%TD*%
D16*
%TO.C,J4*%
X253650799Y-140000000D03*
X259650799Y-140000000D03*
D17*
X256650799Y-135296000D03*
%TD*%
D19*
%TO.C,TP1*%
X241284799Y-122484000D03*
%TD*%
D14*
%TO.C,J1*%
X201147257Y-132815093D03*
X201147257Y-125615093D03*
D15*
X195147257Y-122465093D03*
X195147257Y-135965093D03*
%TD*%
D19*
%TO.C,TP2*%
X246000000Y-122500000D03*
%TD*%
D18*
%TO.C,F2*%
X208471799Y-147984000D03*
X231097799Y-147984000D03*
%TD*%
D19*
%TO.C,TP3*%
X250750000Y-122500000D03*
%TD*%
D20*
%TO.C,J6*%
X209997799Y-140673000D03*
X209997799Y-136713000D03*
X209997799Y-132751000D03*
%TD*%
D21*
%TO.C,J7*%
X236105799Y-138937000D03*
X233603799Y-138937000D03*
%TD*%
M02*
