%TF.GenerationSoftware,KiCad,Pcbnew,7.0.2*%
%TF.CreationDate,2023-07-03T14:04:12+02:00*%
%TF.ProjectId,Power Distribution,506f7765-7220-4446-9973-747269627574,V0*%
%TF.SameCoordinates,Original*%
%TF.FileFunction,Copper,L2,Bot*%
%TF.FilePolarity,Positive*%
%FSLAX46Y46*%
G04 Gerber Fmt 4.6, Leading zero omitted, Abs format (unit mm)*
G04 Created by KiCad (PCBNEW 7.0.2) date 2023-07-03 14:04:12*
%MOMM*%
%LPD*%
G01*
G04 APERTURE LIST*
%TA.AperFunction,ComponentPad*%
%ADD10R,1.700000X1.700000*%
%TD*%
%TA.AperFunction,ComponentPad*%
%ADD11O,1.700000X1.700000*%
%TD*%
%TA.AperFunction,ComponentPad*%
%ADD12C,1.000000*%
%TD*%
%TA.AperFunction,ComponentPad*%
%ADD13O,1.800000X4.000000*%
%TD*%
%TA.AperFunction,ComponentPad*%
%ADD14O,4.000000X1.800000*%
%TD*%
%TA.AperFunction,ComponentPad*%
%ADD15C,3.800000*%
%TD*%
%TA.AperFunction,ComponentPad*%
%ADD16O,2.200000X1.200000*%
%TD*%
%TA.AperFunction,ComponentPad*%
%ADD17O,1.000000X2.400000*%
%TD*%
%TA.AperFunction,ComponentPad*%
%ADD18C,1.800000*%
%TD*%
%TA.AperFunction,ViaPad*%
%ADD19C,0.800000*%
%TD*%
%TA.AperFunction,Conductor*%
%ADD20C,0.400000*%
%TD*%
G04 APERTURE END LIST*
D10*
%TO.P,J8,1,Pin_1*%
%TO.N,GND*%
X212250000Y-116750000D03*
D11*
%TO.P,J8,2,Pin_2*%
%TO.N,/AC{slash}DC output*%
X209710000Y-116750000D03*
%TD*%
D12*
%TO.P,TP1,1,1*%
%TO.N,/Switch*%
X242500000Y-104000000D03*
%TD*%
D13*
%TO.P,J3,1*%
%TO.N,/Vout*%
X254866000Y-108266000D03*
%TO.P,J3,2*%
%TO.N,GND*%
X260866000Y-108266000D03*
D14*
%TO.P,J3,3*%
%TO.N,unconnected-(J3-Pad3)*%
X257866000Y-103562000D03*
%TD*%
D13*
%TO.P,J5,1*%
%TO.N,/Vout*%
X254866000Y-136266000D03*
%TO.P,J5,2*%
%TO.N,GND*%
X260866000Y-136266000D03*
D14*
%TO.P,J5,3*%
%TO.N,unconnected-(J5-Pad3)*%
X257866000Y-131562000D03*
%TD*%
D15*
%TO.P,J1,1,V-*%
%TO.N,GND*%
X202489656Y-115439131D03*
%TO.P,J1,2,V+*%
%TO.N,/AC{slash}DC output*%
X202489656Y-108239131D03*
D16*
%TO.P,J1,3*%
%TO.N,GND*%
X196489656Y-105089131D03*
%TO.P,J1,4*%
X196489656Y-118589131D03*
%TD*%
D12*
%TO.P,TP3,1,1*%
%TO.N,/Vout*%
X251000000Y-104000000D03*
%TD*%
D17*
%TO.P,F1,1*%
%TO.N,/AC{slash}DC output*%
X209624001Y-108250000D03*
%TO.P,F1,2*%
%TO.N,/Mains*%
X232250001Y-108250000D03*
%TD*%
D13*
%TO.P,J4,1*%
%TO.N,/Vout*%
X254866000Y-122516000D03*
%TO.P,J4,2*%
%TO.N,GND*%
X260866000Y-122516000D03*
D14*
%TO.P,J4,3*%
%TO.N,unconnected-(J4-Pad3)*%
X257866000Y-117812000D03*
%TD*%
D18*
%TO.P,J7,1,Pin_1*%
%TO.N,/Vout*%
X230042746Y-139683984D03*
%TO.P,J7,2,Pin_2*%
%TO.N,Net-(J7-Pin_2)*%
X227540746Y-139683984D03*
%TD*%
D12*
%TO.P,TP2,1,1*%
%TO.N,/Supply*%
X246750000Y-104000000D03*
%TD*%
D15*
%TO.P,J2,1,V-*%
%TO.N,GND*%
X202485688Y-137490965D03*
%TO.P,J2,2,V+*%
%TO.N,/Battery output*%
X202485688Y-130290965D03*
D16*
%TO.P,J2,3*%
%TO.N,GND*%
X196485688Y-127140965D03*
%TO.P,J2,4*%
X196485688Y-140640965D03*
%TD*%
D10*
%TO.P,J9,1,Pin_1*%
%TO.N,GND*%
X212250000Y-122000000D03*
D11*
%TO.P,J9,2,Pin_2*%
%TO.N,/Battery output*%
X209710000Y-122000000D03*
%TD*%
D17*
%TO.P,F2,1*%
%TO.N,/Battery output*%
X209624000Y-130324463D03*
%TO.P,F2,2*%
%TO.N,/Battery*%
X232250000Y-130324463D03*
%TD*%
D10*
%TO.P,J6,1,Pin_1*%
%TO.N,/Battery*%
X218000000Y-139500000D03*
D11*
%TO.P,J6,2,Pin_2*%
%TO.N,/Switch*%
X215460000Y-139500000D03*
%TO.P,J6,3,Pin_3*%
%TO.N,/Mains*%
X212920000Y-139500000D03*
%TD*%
D19*
%TO.N,GND*%
X223449083Y-118889288D03*
%TO.N,Net-(Q2-G)*%
X226627458Y-122927728D03*
X247000000Y-111250000D03*
%TD*%
D20*
%TO.N,/Mains*%
X212920000Y-127580001D02*
X232250001Y-108250000D01*
X212920000Y-139500000D02*
X212920000Y-127580001D01*
%TO.N,/Battery*%
X218000000Y-139500000D02*
X223074463Y-139500000D01*
X223074463Y-139500000D02*
X232250000Y-130324463D01*
%TO.N,Net-(Q2-G)*%
X226627458Y-122927728D02*
X235322272Y-122927728D01*
X235322272Y-122927728D02*
X247000000Y-111250000D01*
%TD*%
%TA.AperFunction,Conductor*%
%TO.N,GND*%
G36*
X266003243Y-99750669D02*
G01*
X266133628Y-99757503D01*
X266313910Y-99767628D01*
X266326309Y-99768955D01*
X266475647Y-99792608D01*
X266635321Y-99819737D01*
X266646619Y-99822205D01*
X266796693Y-99862418D01*
X266949188Y-99906351D01*
X266959253Y-99909726D01*
X267104710Y-99965562D01*
X267107599Y-99966714D01*
X267251768Y-100026430D01*
X267260594Y-100030500D01*
X267400064Y-100101565D01*
X267403748Y-100103521D01*
X267493848Y-100153316D01*
X267539548Y-100178574D01*
X267547061Y-100183081D01*
X267678754Y-100268604D01*
X267682947Y-100271452D01*
X267809147Y-100360996D01*
X267815428Y-100365759D01*
X267937567Y-100464665D01*
X267942158Y-100468571D01*
X268057424Y-100571579D01*
X268062478Y-100576358D01*
X268173640Y-100687520D01*
X268178419Y-100692574D01*
X268281427Y-100807840D01*
X268285333Y-100812431D01*
X268384239Y-100934570D01*
X268389002Y-100940851D01*
X268478546Y-101067051D01*
X268481409Y-101071266D01*
X268566907Y-101202921D01*
X268571430Y-101210460D01*
X268646477Y-101346250D01*
X268648433Y-101349934D01*
X268719498Y-101489404D01*
X268723575Y-101498247D01*
X268783259Y-101642337D01*
X268784462Y-101645353D01*
X268840265Y-101790727D01*
X268843655Y-101800836D01*
X268887579Y-101953297D01*
X268927793Y-102103379D01*
X268930262Y-102114685D01*
X268957394Y-102274369D01*
X268981040Y-102423670D01*
X268982371Y-102436108D01*
X268992509Y-102616617D01*
X268999330Y-102746756D01*
X268999500Y-102753246D01*
X268999500Y-142746753D01*
X268999330Y-142753243D01*
X268992509Y-142883382D01*
X268982372Y-143063887D01*
X268981040Y-143076331D01*
X268957394Y-143225629D01*
X268930263Y-143385308D01*
X268927791Y-143396624D01*
X268887579Y-143546701D01*
X268843653Y-143699170D01*
X268840268Y-143709263D01*
X268784462Y-143854645D01*
X268783259Y-143857661D01*
X268723575Y-144001751D01*
X268719498Y-144010594D01*
X268648433Y-144150064D01*
X268646477Y-144153748D01*
X268571430Y-144289538D01*
X268566897Y-144297094D01*
X268481412Y-144428728D01*
X268478546Y-144432947D01*
X268389002Y-144559147D01*
X268384239Y-144565428D01*
X268285333Y-144687567D01*
X268281427Y-144692158D01*
X268178419Y-144807424D01*
X268173640Y-144812478D01*
X268062478Y-144923640D01*
X268057424Y-144928419D01*
X267942158Y-145031427D01*
X267937567Y-145035333D01*
X267815428Y-145134239D01*
X267809147Y-145139002D01*
X267682947Y-145228546D01*
X267678728Y-145231412D01*
X267547094Y-145316897D01*
X267539538Y-145321430D01*
X267403748Y-145396477D01*
X267400064Y-145398433D01*
X267260594Y-145469498D01*
X267251751Y-145473575D01*
X267107661Y-145533259D01*
X267104645Y-145534462D01*
X266959271Y-145590265D01*
X266949162Y-145593655D01*
X266796702Y-145637579D01*
X266646619Y-145677793D01*
X266635313Y-145680262D01*
X266475630Y-145707394D01*
X266326328Y-145731040D01*
X266313890Y-145732371D01*
X266133382Y-145742509D01*
X266003244Y-145749330D01*
X265996754Y-145749500D01*
X189003247Y-145749500D01*
X188996757Y-145749330D01*
X188866617Y-145742509D01*
X188686111Y-145732372D01*
X188673666Y-145731040D01*
X188524369Y-145707394D01*
X188364690Y-145680263D01*
X188353374Y-145677791D01*
X188203298Y-145637579D01*
X188050828Y-145593653D01*
X188040735Y-145590268D01*
X187895353Y-145534462D01*
X187892337Y-145533259D01*
X187748247Y-145473575D01*
X187739404Y-145469498D01*
X187599934Y-145398433D01*
X187596250Y-145396477D01*
X187460460Y-145321430D01*
X187452921Y-145316907D01*
X187321266Y-145231409D01*
X187317051Y-145228546D01*
X187190851Y-145139002D01*
X187184570Y-145134239D01*
X187062431Y-145035333D01*
X187057840Y-145031427D01*
X186942574Y-144928419D01*
X186937520Y-144923640D01*
X186826358Y-144812478D01*
X186821579Y-144807424D01*
X186718571Y-144692158D01*
X186714665Y-144687567D01*
X186615759Y-144565428D01*
X186610996Y-144559147D01*
X186521452Y-144432947D01*
X186518604Y-144428754D01*
X186433081Y-144297061D01*
X186428568Y-144289538D01*
X186353521Y-144153748D01*
X186351565Y-144150064D01*
X186280500Y-144010594D01*
X186276430Y-144001768D01*
X186216714Y-143857599D01*
X186215562Y-143854710D01*
X186159729Y-143709260D01*
X186156346Y-143699170D01*
X186112414Y-143546679D01*
X186107316Y-143527652D01*
X186072202Y-143396605D01*
X186069738Y-143385323D01*
X186042601Y-143225606D01*
X186018956Y-143076316D01*
X186017627Y-143063890D01*
X186007490Y-142883382D01*
X186000670Y-142753244D01*
X186000500Y-142746755D01*
X186000500Y-140390964D01*
X194910319Y-140390964D01*
X194910320Y-140390965D01*
X195819577Y-140390965D01*
X195780078Y-140415422D01*
X195712487Y-140504927D01*
X195681793Y-140612805D01*
X195692142Y-140724486D01*
X195742136Y-140824887D01*
X195814619Y-140890965D01*
X194914430Y-140890965D01*
X194941458Y-141002375D01*
X195028727Y-141193470D01*
X195150580Y-141364586D01*
X195302621Y-141509557D01*
X195479343Y-141623131D01*
X195674373Y-141701209D01*
X195880650Y-141740965D01*
X196235688Y-141740965D01*
X196235688Y-140940965D01*
X196735688Y-140940965D01*
X196735688Y-141740965D01*
X197035138Y-141740965D01*
X197041047Y-141740683D01*
X197194808Y-141726000D01*
X197396375Y-141666815D01*
X197583100Y-141570552D01*
X197748226Y-141440695D01*
X197885799Y-141281928D01*
X197990834Y-141100001D01*
X198059544Y-140901476D01*
X198061056Y-140890965D01*
X197151799Y-140890965D01*
X197191298Y-140866508D01*
X197258889Y-140777003D01*
X197289583Y-140669125D01*
X197279234Y-140557444D01*
X197229240Y-140457043D01*
X197156757Y-140390965D01*
X198056945Y-140390965D01*
X198029917Y-140279554D01*
X197942648Y-140088459D01*
X197820795Y-139917343D01*
X197668754Y-139772372D01*
X197492032Y-139658798D01*
X197297002Y-139580720D01*
X197090726Y-139540965D01*
X196735688Y-139540965D01*
X196735688Y-140340965D01*
X196235688Y-140340965D01*
X196235688Y-139540965D01*
X195936238Y-139540965D01*
X195930328Y-139541246D01*
X195776567Y-139555929D01*
X195575000Y-139615114D01*
X195388275Y-139711377D01*
X195223149Y-139841234D01*
X195085576Y-140000001D01*
X194980541Y-140181928D01*
X194911831Y-140380453D01*
X194910319Y-140390964D01*
X186000500Y-140390964D01*
X186000500Y-137494859D01*
X200081188Y-137494859D01*
X200099660Y-137788465D01*
X200100634Y-137796185D01*
X200155761Y-138085171D01*
X200157697Y-138092710D01*
X200248609Y-138372506D01*
X200251469Y-138379730D01*
X200376738Y-138645941D01*
X200380480Y-138652747D01*
X200538118Y-138901146D01*
X200542694Y-138907444D01*
X200621000Y-139002099D01*
X201406661Y-138216437D01*
X201486026Y-138329781D01*
X201646872Y-138490627D01*
X201760214Y-138569990D01*
X200972252Y-139357951D01*
X201194008Y-139519067D01*
X201200579Y-139523237D01*
X201458382Y-139664965D01*
X201465421Y-139668278D01*
X201738958Y-139776578D01*
X201746353Y-139778981D01*
X202031313Y-139852147D01*
X202038944Y-139853602D01*
X202330828Y-139890476D01*
X202338587Y-139890965D01*
X202632789Y-139890965D01*
X202640547Y-139890476D01*
X202932431Y-139853602D01*
X202940062Y-139852147D01*
X203225022Y-139778981D01*
X203232417Y-139776578D01*
X203505954Y-139668278D01*
X203512993Y-139664965D01*
X203770796Y-139523237D01*
X203777366Y-139519067D01*
X203803609Y-139500000D01*
X211556843Y-139500000D01*
X211575435Y-139724363D01*
X211575435Y-139724366D01*
X211575436Y-139724368D01*
X211624118Y-139916610D01*
X211630705Y-139942618D01*
X211721138Y-140148788D01*
X211721140Y-140148791D01*
X211844278Y-140337268D01*
X211996760Y-140502906D01*
X212174424Y-140641189D01*
X212372426Y-140748342D01*
X212585365Y-140821444D01*
X212807431Y-140858500D01*
X213032569Y-140858500D01*
X213254635Y-140821444D01*
X213467574Y-140748342D01*
X213665576Y-140641189D01*
X213843240Y-140502906D01*
X213995722Y-140337268D01*
X214086191Y-140198793D01*
X214139336Y-140153438D01*
X214208567Y-140144014D01*
X214271903Y-140173515D01*
X214293807Y-140198794D01*
X214384275Y-140337265D01*
X214384277Y-140337267D01*
X214384278Y-140337268D01*
X214536760Y-140502906D01*
X214714424Y-140641189D01*
X214912426Y-140748342D01*
X215125365Y-140821444D01*
X215347431Y-140858500D01*
X215572569Y-140858500D01*
X215794635Y-140821444D01*
X216007574Y-140748342D01*
X216205576Y-140641189D01*
X216383240Y-140502906D01*
X216446452Y-140434239D01*
X216506337Y-140398251D01*
X216576175Y-140400351D01*
X216633791Y-140439875D01*
X216653861Y-140474889D01*
X216699110Y-140596204D01*
X216786738Y-140713261D01*
X216903796Y-140800889D01*
X217040794Y-140851988D01*
X217040797Y-140851988D01*
X217040799Y-140851989D01*
X217101362Y-140858500D01*
X217104672Y-140858500D01*
X218895328Y-140858500D01*
X218898638Y-140858500D01*
X218959201Y-140851989D01*
X218959203Y-140851988D01*
X218959205Y-140851988D01*
X219041097Y-140821443D01*
X219096204Y-140800889D01*
X219213261Y-140713261D01*
X219300889Y-140596204D01*
X219351989Y-140459201D01*
X219358500Y-140398638D01*
X219358500Y-140332500D01*
X219378185Y-140265461D01*
X219430989Y-140219706D01*
X219482500Y-140208500D01*
X223049300Y-140208500D01*
X223056787Y-140208726D01*
X223117556Y-140212402D01*
X223177457Y-140201424D01*
X223184827Y-140200303D01*
X223245264Y-140192965D01*
X223254961Y-140189287D01*
X223276587Y-140183259D01*
X223286792Y-140181389D01*
X223342313Y-140156400D01*
X223349215Y-140153542D01*
X223389652Y-140138205D01*
X223406138Y-140131954D01*
X223414682Y-140126055D01*
X223434217Y-140115037D01*
X223443689Y-140110775D01*
X223491625Y-140073217D01*
X223497606Y-140068816D01*
X223547736Y-140034215D01*
X223588136Y-139988611D01*
X223593223Y-139983208D01*
X223892448Y-139683983D01*
X226127418Y-139683983D01*
X226146694Y-139916605D01*
X226203997Y-140142892D01*
X226297762Y-140356653D01*
X226425430Y-140552065D01*
X226507474Y-140641188D01*
X226583526Y-140723802D01*
X226767729Y-140867174D01*
X226973019Y-140978271D01*
X227028213Y-140997219D01*
X227193792Y-141054064D01*
X227424034Y-141092484D01*
X227657458Y-141092484D01*
X227887699Y-141054064D01*
X227998085Y-141016167D01*
X228108473Y-140978271D01*
X228313763Y-140867174D01*
X228497966Y-140723802D01*
X228656060Y-140552067D01*
X228687937Y-140503274D01*
X228741083Y-140457918D01*
X228810314Y-140448494D01*
X228873650Y-140477996D01*
X228895553Y-140503273D01*
X228927432Y-140552067D01*
X229085526Y-140723802D01*
X229269729Y-140867174D01*
X229475019Y-140978271D01*
X229530213Y-140997219D01*
X229695792Y-141054064D01*
X229926034Y-141092484D01*
X230159458Y-141092484D01*
X230389699Y-141054064D01*
X230500084Y-141016167D01*
X230610473Y-140978271D01*
X230815763Y-140867174D01*
X230999966Y-140723802D01*
X231158060Y-140552067D01*
X231285730Y-140356653D01*
X231379495Y-140142891D01*
X231436797Y-139916610D01*
X231456073Y-139683984D01*
X231436797Y-139451358D01*
X231379495Y-139225077D01*
X231285730Y-139011315D01*
X231178092Y-138846562D01*
X231158061Y-138815902D01*
X230999965Y-138644165D01*
X230940749Y-138598075D01*
X230815763Y-138500794D01*
X230610473Y-138389697D01*
X230610472Y-138389696D01*
X230610471Y-138389696D01*
X230389699Y-138313903D01*
X230159458Y-138275484D01*
X229926034Y-138275484D01*
X229695792Y-138313903D01*
X229475020Y-138389696D01*
X229269729Y-138500794D01*
X229085526Y-138644165D01*
X228927429Y-138815904D01*
X228895554Y-138864693D01*
X228842408Y-138910050D01*
X228773177Y-138919473D01*
X228709841Y-138889971D01*
X228687938Y-138864693D01*
X228656062Y-138815904D01*
X228656061Y-138815903D01*
X228656060Y-138815901D01*
X228497966Y-138644166D01*
X228477495Y-138628233D01*
X228438749Y-138598075D01*
X228313763Y-138500794D01*
X228108473Y-138389697D01*
X228108472Y-138389696D01*
X228108471Y-138389696D01*
X227887699Y-138313903D01*
X227657458Y-138275484D01*
X227424034Y-138275484D01*
X227193792Y-138313903D01*
X226973020Y-138389696D01*
X226767729Y-138500794D01*
X226583526Y-138644165D01*
X226425430Y-138815902D01*
X226297762Y-139011314D01*
X226203997Y-139225075D01*
X226146694Y-139451362D01*
X226127418Y-139683983D01*
X223892448Y-139683983D01*
X228530315Y-135046116D01*
X253457499Y-135046116D01*
X253457500Y-136264698D01*
X253457500Y-137425827D01*
X253457722Y-137428442D01*
X253457723Y-137428452D01*
X253472740Y-137604896D01*
X253533155Y-137836925D01*
X253631913Y-138055401D01*
X253764560Y-138251657D01*
X253766175Y-138254047D01*
X253932075Y-138427144D01*
X254124843Y-138569715D01*
X254338933Y-138677657D01*
X254568185Y-138747864D01*
X254806005Y-138778318D01*
X255045551Y-138768143D01*
X255279932Y-138717630D01*
X255502404Y-138628233D01*
X255706569Y-138502524D01*
X255886551Y-138344119D01*
X256037175Y-138157576D01*
X256154105Y-137948260D01*
X256233980Y-137722194D01*
X256251745Y-137618588D01*
X256274500Y-137485883D01*
X256274500Y-136015999D01*
X259465999Y-136015999D01*
X259466000Y-136016000D01*
X260266000Y-136016000D01*
X260266000Y-136516000D01*
X259466000Y-136516000D01*
X259466000Y-137422841D01*
X259466223Y-137428097D01*
X259481148Y-137603455D01*
X259541198Y-137834083D01*
X259639360Y-138051241D01*
X259772811Y-138248687D01*
X259937711Y-138420741D01*
X260129315Y-138562450D01*
X260342113Y-138669741D01*
X260569983Y-138739525D01*
X260616000Y-138745417D01*
X260616000Y-137861881D01*
X260709369Y-137900556D01*
X260866000Y-137921177D01*
X261022631Y-137900556D01*
X261116000Y-137861881D01*
X261116000Y-138744264D01*
X261277436Y-138709473D01*
X261498560Y-138620617D01*
X261701497Y-138495664D01*
X261880394Y-138338215D01*
X262030106Y-138152800D01*
X262146332Y-137944749D01*
X262225726Y-137720042D01*
X262266000Y-137485160D01*
X262266000Y-136516000D01*
X261466000Y-136516000D01*
X261466000Y-136016000D01*
X262266000Y-136016000D01*
X262266000Y-135109158D01*
X262265776Y-135103902D01*
X262250851Y-134928544D01*
X262190801Y-134697916D01*
X262092639Y-134480758D01*
X261959188Y-134283312D01*
X261794288Y-134111258D01*
X261602684Y-133969549D01*
X261389886Y-133862258D01*
X261162017Y-133792474D01*
X261115999Y-133786581D01*
X261115999Y-134670117D01*
X261022631Y-134631444D01*
X260866000Y-134610823D01*
X260709369Y-134631444D01*
X260616000Y-134670118D01*
X260616000Y-133787734D01*
X260615999Y-133787734D01*
X260454565Y-133822526D01*
X260233437Y-133911383D01*
X260030502Y-134036335D01*
X259851605Y-134193784D01*
X259701893Y-134379199D01*
X259585667Y-134587250D01*
X259506273Y-134811957D01*
X259466000Y-135046839D01*
X259465999Y-136015999D01*
X256274500Y-136015999D01*
X256274500Y-135108804D01*
X256274500Y-135106173D01*
X256259259Y-134927102D01*
X256229278Y-134811957D01*
X256198844Y-134695074D01*
X256100086Y-134476598D01*
X255965825Y-134277953D01*
X255799924Y-134104855D01*
X255607157Y-133962285D01*
X255393067Y-133854343D01*
X255163815Y-133784136D01*
X255163814Y-133784136D01*
X254925995Y-133753682D01*
X254925991Y-133753682D01*
X254686451Y-133763856D01*
X254452066Y-133814370D01*
X254229599Y-133903765D01*
X254025429Y-134029477D01*
X253845449Y-134187880D01*
X253694824Y-134374423D01*
X253577895Y-134583738D01*
X253498018Y-134809810D01*
X253457499Y-135046116D01*
X228530315Y-135046116D01*
X231636552Y-131939879D01*
X231697873Y-131906396D01*
X231767565Y-131911380D01*
X231782681Y-131918202D01*
X231862196Y-131960704D01*
X232052299Y-132018371D01*
X232250000Y-132037843D01*
X232447701Y-132018371D01*
X232637804Y-131960704D01*
X232813004Y-131867058D01*
X232966568Y-131741031D01*
X233092595Y-131587467D01*
X233138274Y-131502008D01*
X255353682Y-131502008D01*
X255363856Y-131741548D01*
X255414370Y-131975933D01*
X255503765Y-132198400D01*
X255503767Y-132198404D01*
X255629476Y-132402569D01*
X255629477Y-132402570D01*
X255787880Y-132582550D01*
X255974423Y-132733175D01*
X256183738Y-132850104D01*
X256183740Y-132850105D01*
X256409806Y-132929980D01*
X256409808Y-132929980D01*
X256409810Y-132929981D01*
X256646117Y-132970500D01*
X256646119Y-132970500D01*
X259023196Y-132970500D01*
X259025827Y-132970500D01*
X259204898Y-132955259D01*
X259359582Y-132914982D01*
X259436925Y-132894844D01*
X259546163Y-132845465D01*
X259655402Y-132796086D01*
X259854047Y-132661825D01*
X260027144Y-132495925D01*
X260169715Y-132303157D01*
X260277657Y-132089067D01*
X260347864Y-131859815D01*
X260378318Y-131621995D01*
X260368143Y-131382449D01*
X260317630Y-131148068D01*
X260228233Y-130925596D01*
X260102524Y-130721431D01*
X259944119Y-130541449D01*
X259845941Y-130462175D01*
X259757576Y-130390824D01*
X259548261Y-130273895D01*
X259322189Y-130194018D01*
X259085883Y-130153500D01*
X259085881Y-130153500D01*
X256706173Y-130153500D01*
X256703558Y-130153722D01*
X256703547Y-130153723D01*
X256527103Y-130168740D01*
X256295074Y-130229155D01*
X256076598Y-130327913D01*
X255877953Y-130462174D01*
X255704855Y-130628075D01*
X255562285Y-130820842D01*
X255454343Y-131034932D01*
X255397005Y-131222164D01*
X255384136Y-131264185D01*
X255359886Y-131453563D01*
X255353682Y-131502008D01*
X233138274Y-131502008D01*
X233186241Y-131412267D01*
X233243908Y-131222164D01*
X233258500Y-131074010D01*
X233258500Y-129574916D01*
X233243908Y-129426762D01*
X233186241Y-129236659D01*
X233092595Y-129061459D01*
X232966568Y-128907895D01*
X232813004Y-128781868D01*
X232813003Y-128781867D01*
X232718390Y-128731296D01*
X232637804Y-128688222D01*
X232447701Y-128630555D01*
X232447698Y-128630554D01*
X232274247Y-128613471D01*
X232250000Y-128611083D01*
X232249999Y-128611083D01*
X232052301Y-128630554D01*
X231988931Y-128649777D01*
X231862196Y-128688222D01*
X231862192Y-128688223D01*
X231862192Y-128688224D01*
X231686996Y-128781867D01*
X231533432Y-128907895D01*
X231407404Y-129061459D01*
X231313761Y-129236655D01*
X231313759Y-129236659D01*
X231275314Y-129363394D01*
X231256091Y-129426764D01*
X231241798Y-129571881D01*
X231241797Y-129571899D01*
X231241500Y-129574916D01*
X231241500Y-129577965D01*
X231241500Y-130279631D01*
X231221815Y-130346670D01*
X231205181Y-130367312D01*
X222817312Y-138755181D01*
X222755989Y-138788666D01*
X222729631Y-138791500D01*
X219482500Y-138791500D01*
X219415461Y-138771815D01*
X219369706Y-138719011D01*
X219358500Y-138667500D01*
X219358500Y-138604671D01*
X219358500Y-138604670D01*
X219358500Y-138601362D01*
X219351989Y-138540799D01*
X219351988Y-138540797D01*
X219351988Y-138540794D01*
X219300889Y-138403796D01*
X219213261Y-138286738D01*
X219096203Y-138199110D01*
X218959205Y-138148011D01*
X218901924Y-138141853D01*
X218901918Y-138141852D01*
X218898638Y-138141500D01*
X217101362Y-138141500D01*
X217098082Y-138141852D01*
X217098075Y-138141853D01*
X217040794Y-138148011D01*
X216903796Y-138199110D01*
X216786738Y-138286738D01*
X216699110Y-138403796D01*
X216653861Y-138525110D01*
X216611989Y-138581043D01*
X216546524Y-138605459D01*
X216478252Y-138590606D01*
X216446451Y-138565758D01*
X216383242Y-138497096D01*
X216383241Y-138497095D01*
X216383240Y-138497094D01*
X216205576Y-138358811D01*
X216007574Y-138251658D01*
X216007573Y-138251657D01*
X216007572Y-138251657D01*
X215794636Y-138178556D01*
X215572569Y-138141500D01*
X215347431Y-138141500D01*
X215125363Y-138178556D01*
X214912427Y-138251657D01*
X214714424Y-138358811D01*
X214536760Y-138497094D01*
X214384277Y-138662732D01*
X214293809Y-138801205D01*
X214240663Y-138846562D01*
X214171431Y-138855986D01*
X214108095Y-138826484D01*
X214086191Y-138801205D01*
X213995722Y-138662732D01*
X213843239Y-138497093D01*
X213676337Y-138367186D01*
X213635524Y-138310475D01*
X213628500Y-138269333D01*
X213628500Y-127924832D01*
X213648185Y-127857793D01*
X213664814Y-127837156D01*
X218574243Y-122927727D01*
X225713954Y-122927727D01*
X225733916Y-123117657D01*
X225792930Y-123299284D01*
X225888415Y-123464669D01*
X225888418Y-123464672D01*
X226016205Y-123606594D01*
X226089588Y-123659910D01*
X226170706Y-123718846D01*
X226345172Y-123796523D01*
X226531969Y-123836228D01*
X226531971Y-123836228D01*
X226722947Y-123836228D01*
X226909743Y-123796523D01*
X226909744Y-123796522D01*
X226909746Y-123796522D01*
X227084210Y-123718846D01*
X227165327Y-123659910D01*
X227231134Y-123636430D01*
X227238214Y-123636228D01*
X235297109Y-123636228D01*
X235304596Y-123636454D01*
X235365365Y-123640130D01*
X235425266Y-123629152D01*
X235432636Y-123628031D01*
X235493073Y-123620693D01*
X235502770Y-123617015D01*
X235524396Y-123610987D01*
X235534601Y-123609117D01*
X235590122Y-123584128D01*
X235597024Y-123581270D01*
X235637461Y-123565933D01*
X235653947Y-123559682D01*
X235662491Y-123553783D01*
X235682026Y-123542765D01*
X235691498Y-123538503D01*
X235739434Y-123500945D01*
X235745415Y-123496544D01*
X235795545Y-123461943D01*
X235835945Y-123416339D01*
X235841032Y-123410936D01*
X237955852Y-121296116D01*
X253457499Y-121296116D01*
X253457500Y-122484680D01*
X253457500Y-123675827D01*
X253457722Y-123678442D01*
X253457723Y-123678452D01*
X253472740Y-123854896D01*
X253533155Y-124086925D01*
X253631913Y-124305401D01*
X253700972Y-124407576D01*
X253766175Y-124504047D01*
X253932075Y-124677144D01*
X254124843Y-124819715D01*
X254338933Y-124927657D01*
X254568185Y-124997864D01*
X254806005Y-125028318D01*
X255045551Y-125018143D01*
X255279932Y-124967630D01*
X255502404Y-124878233D01*
X255706569Y-124752524D01*
X255886551Y-124594119D01*
X256037175Y-124407576D01*
X256154105Y-124198260D01*
X256233980Y-123972194D01*
X256251745Y-123868588D01*
X256274500Y-123735883D01*
X256274500Y-122265999D01*
X259465999Y-122265999D01*
X259466000Y-122266000D01*
X260266000Y-122266000D01*
X260266000Y-122766000D01*
X259466000Y-122766000D01*
X259466000Y-123672841D01*
X259466223Y-123678097D01*
X259481148Y-123853455D01*
X259541198Y-124084083D01*
X259639360Y-124301241D01*
X259772811Y-124498687D01*
X259937711Y-124670741D01*
X260129315Y-124812450D01*
X260342113Y-124919741D01*
X260569983Y-124989525D01*
X260616000Y-124995417D01*
X260616000Y-124111881D01*
X260709369Y-124150556D01*
X260866000Y-124171177D01*
X261022631Y-124150556D01*
X261116000Y-124111881D01*
X261116000Y-124994264D01*
X261277436Y-124959473D01*
X261498560Y-124870617D01*
X261701497Y-124745664D01*
X261880394Y-124588215D01*
X262030106Y-124402800D01*
X262146332Y-124194749D01*
X262225726Y-123970042D01*
X262266000Y-123735160D01*
X262266000Y-122766000D01*
X261466000Y-122766000D01*
X261466000Y-122266000D01*
X262266000Y-122266000D01*
X262266000Y-121359158D01*
X262265776Y-121353902D01*
X262250851Y-121178544D01*
X262190801Y-120947916D01*
X262092639Y-120730758D01*
X261959188Y-120533312D01*
X261794288Y-120361258D01*
X261602684Y-120219549D01*
X261389886Y-120112258D01*
X261162017Y-120042474D01*
X261115999Y-120036581D01*
X261115999Y-120920117D01*
X261022631Y-120881444D01*
X260866000Y-120860823D01*
X260709369Y-120881444D01*
X260616000Y-120920118D01*
X260616000Y-120037734D01*
X260615999Y-120037734D01*
X260454565Y-120072526D01*
X260233437Y-120161383D01*
X260030502Y-120286335D01*
X259851605Y-120443784D01*
X259701893Y-120629199D01*
X259585667Y-120837250D01*
X259506273Y-121061957D01*
X259466000Y-121296839D01*
X259465999Y-122265999D01*
X256274500Y-122265999D01*
X256274500Y-121358804D01*
X256274500Y-121356173D01*
X256259259Y-121177102D01*
X256229278Y-121061957D01*
X256198844Y-120945074D01*
X256100086Y-120726598D01*
X255965825Y-120527953D01*
X255799924Y-120354855D01*
X255607157Y-120212285D01*
X255393067Y-120104343D01*
X255163815Y-120034136D01*
X255163814Y-120034136D01*
X254925995Y-120003682D01*
X254925991Y-120003682D01*
X254686451Y-120013856D01*
X254452066Y-120064370D01*
X254229599Y-120153765D01*
X254025429Y-120279477D01*
X253845449Y-120437880D01*
X253694824Y-120624423D01*
X253577895Y-120833738D01*
X253498018Y-121059810D01*
X253457499Y-121296116D01*
X237955852Y-121296116D01*
X241499960Y-117752008D01*
X255353682Y-117752008D01*
X255363856Y-117991548D01*
X255414370Y-118225933D01*
X255503765Y-118448400D01*
X255503767Y-118448404D01*
X255538990Y-118505610D01*
X255629477Y-118652570D01*
X255787880Y-118832550D01*
X255974423Y-118983175D01*
X256183738Y-119100104D01*
X256183740Y-119100105D01*
X256409806Y-119179980D01*
X256409808Y-119179980D01*
X256409810Y-119179981D01*
X256646117Y-119220500D01*
X256646119Y-119220500D01*
X259023196Y-119220500D01*
X259025827Y-119220500D01*
X259204898Y-119205259D01*
X259359582Y-119164982D01*
X259436925Y-119144844D01*
X259546162Y-119095465D01*
X259655402Y-119046086D01*
X259854047Y-118911825D01*
X260027144Y-118745925D01*
X260169715Y-118553157D01*
X260277657Y-118339067D01*
X260347864Y-118109815D01*
X260378318Y-117871995D01*
X260368143Y-117632449D01*
X260317630Y-117398068D01*
X260228233Y-117175596D01*
X260102524Y-116971431D01*
X259944119Y-116791449D01*
X259879325Y-116739131D01*
X259757576Y-116640824D01*
X259548261Y-116523895D01*
X259322189Y-116444018D01*
X259085883Y-116403500D01*
X259085881Y-116403500D01*
X256706173Y-116403500D01*
X256703558Y-116403722D01*
X256703547Y-116403723D01*
X256527103Y-116418740D01*
X256295074Y-116479155D01*
X256076598Y-116577913D01*
X255877953Y-116712174D01*
X255704855Y-116878075D01*
X255562285Y-117070842D01*
X255454343Y-117284932D01*
X255391723Y-117489412D01*
X255384136Y-117514185D01*
X255356866Y-117727147D01*
X255353682Y-117752008D01*
X241499960Y-117752008D01*
X247066954Y-112185015D01*
X247128275Y-112151532D01*
X247128852Y-112151408D01*
X247282285Y-112118795D01*
X247282286Y-112118794D01*
X247282288Y-112118794D01*
X247456752Y-112041118D01*
X247611253Y-111928866D01*
X247739040Y-111786944D01*
X247834527Y-111621556D01*
X247893542Y-111439928D01*
X247913504Y-111250000D01*
X247893542Y-111060072D01*
X247834527Y-110878444D01*
X247834527Y-110878443D01*
X247739042Y-110713058D01*
X247680131Y-110647631D01*
X247611253Y-110571134D01*
X247456752Y-110458882D01*
X247456751Y-110458881D01*
X247282285Y-110381204D01*
X247095489Y-110341500D01*
X247095487Y-110341500D01*
X246904513Y-110341500D01*
X246904511Y-110341500D01*
X246717714Y-110381204D01*
X246543248Y-110458881D01*
X246388748Y-110571133D01*
X246260957Y-110713058D01*
X246165472Y-110878443D01*
X246106458Y-111060070D01*
X246101476Y-111107474D01*
X246074891Y-111172088D01*
X246065836Y-111182192D01*
X235065121Y-122182909D01*
X235003798Y-122216394D01*
X234977440Y-122219228D01*
X227238214Y-122219228D01*
X227171175Y-122199543D01*
X227165328Y-122195546D01*
X227084209Y-122136609D01*
X226909743Y-122058932D01*
X226722947Y-122019228D01*
X226722945Y-122019228D01*
X226531971Y-122019228D01*
X226531969Y-122019228D01*
X226345172Y-122058932D01*
X226170706Y-122136609D01*
X226016206Y-122248861D01*
X225888415Y-122390786D01*
X225792930Y-122556171D01*
X225733916Y-122737798D01*
X225713954Y-122927727D01*
X218574243Y-122927727D01*
X231636553Y-109865416D01*
X231697874Y-109831933D01*
X231767566Y-109836917D01*
X231782682Y-109843739D01*
X231862197Y-109886241D01*
X232052300Y-109943908D01*
X232250001Y-109963380D01*
X232447702Y-109943908D01*
X232637805Y-109886241D01*
X232813005Y-109792595D01*
X232966569Y-109666568D01*
X233092596Y-109513004D01*
X233186242Y-109337804D01*
X233243909Y-109147701D01*
X233258501Y-108999547D01*
X233258501Y-107500453D01*
X233243909Y-107352299D01*
X233186242Y-107162196D01*
X233124196Y-107046116D01*
X253457499Y-107046116D01*
X253457500Y-108235236D01*
X253457500Y-109425827D01*
X253457722Y-109428442D01*
X253457723Y-109428452D01*
X253472740Y-109604896D01*
X253533155Y-109836925D01*
X253631913Y-110055401D01*
X253766174Y-110254046D01*
X253789696Y-110278588D01*
X253932075Y-110427144D01*
X254124843Y-110569715D01*
X254338933Y-110677657D01*
X254568185Y-110747864D01*
X254806005Y-110778318D01*
X255045551Y-110768143D01*
X255279932Y-110717630D01*
X255502404Y-110628233D01*
X255706569Y-110502524D01*
X255886551Y-110344119D01*
X256037175Y-110157576D01*
X256154105Y-109948260D01*
X256233980Y-109722194D01*
X256251745Y-109618588D01*
X256274500Y-109485883D01*
X256274500Y-108015999D01*
X259465999Y-108015999D01*
X259466000Y-108016000D01*
X260266000Y-108016000D01*
X260266000Y-108516000D01*
X259466000Y-108516000D01*
X259466000Y-109422841D01*
X259466223Y-109428097D01*
X259481148Y-109603455D01*
X259541198Y-109834083D01*
X259639360Y-110051241D01*
X259772811Y-110248687D01*
X259937711Y-110420741D01*
X260129315Y-110562450D01*
X260342113Y-110669741D01*
X260569983Y-110739525D01*
X260616000Y-110745417D01*
X260616000Y-109861881D01*
X260709369Y-109900556D01*
X260866000Y-109921177D01*
X261022631Y-109900556D01*
X261116000Y-109861881D01*
X261116000Y-110744264D01*
X261277436Y-110709473D01*
X261498560Y-110620617D01*
X261701497Y-110495664D01*
X261880394Y-110338215D01*
X262030106Y-110152800D01*
X262146332Y-109944749D01*
X262225726Y-109720042D01*
X262266000Y-109485160D01*
X262266000Y-108516000D01*
X261466000Y-108516000D01*
X261466000Y-108016000D01*
X262266000Y-108016000D01*
X262266000Y-107109158D01*
X262265776Y-107103902D01*
X262250851Y-106928544D01*
X262190801Y-106697916D01*
X262092639Y-106480758D01*
X261959188Y-106283312D01*
X261794288Y-106111258D01*
X261602684Y-105969549D01*
X261389886Y-105862258D01*
X261162017Y-105792474D01*
X261115999Y-105786581D01*
X261115999Y-106670117D01*
X261022631Y-106631444D01*
X260866000Y-106610823D01*
X260709369Y-106631444D01*
X260616000Y-106670118D01*
X260616000Y-105787734D01*
X260615999Y-105787734D01*
X260454565Y-105822526D01*
X260233437Y-105911383D01*
X260030502Y-106036335D01*
X259851605Y-106193784D01*
X259701893Y-106379199D01*
X259585667Y-106587250D01*
X259506273Y-106811957D01*
X259466000Y-107046839D01*
X259465999Y-108015999D01*
X256274500Y-108015999D01*
X256274500Y-107108804D01*
X256274500Y-107106173D01*
X256259259Y-106927102D01*
X256229278Y-106811957D01*
X256198844Y-106695074D01*
X256100086Y-106476598D01*
X255965825Y-106277953D01*
X255799924Y-106104855D01*
X255607157Y-105962285D01*
X255393067Y-105854343D01*
X255163815Y-105784136D01*
X254925995Y-105753682D01*
X254925991Y-105753682D01*
X254686451Y-105763856D01*
X254452066Y-105814370D01*
X254229599Y-105903765D01*
X254025429Y-106029477D01*
X253845449Y-106187880D01*
X253694824Y-106374423D01*
X253577895Y-106583738D01*
X253498018Y-106809810D01*
X253457499Y-107046116D01*
X233124196Y-107046116D01*
X233092596Y-106986996D01*
X232966569Y-106833432D01*
X232813005Y-106707405D01*
X232813004Y-106707404D01*
X232670891Y-106631444D01*
X232637805Y-106613759D01*
X232447702Y-106556092D01*
X232447699Y-106556091D01*
X232250001Y-106536620D01*
X232052302Y-106556091D01*
X231988932Y-106575314D01*
X231862197Y-106613759D01*
X231862193Y-106613760D01*
X231862193Y-106613761D01*
X231686997Y-106707404D01*
X231533433Y-106833432D01*
X231407405Y-106986996D01*
X231342109Y-107109158D01*
X231313760Y-107162196D01*
X231275315Y-107288931D01*
X231256092Y-107352301D01*
X231241799Y-107497418D01*
X231241798Y-107497436D01*
X231241501Y-107500453D01*
X231241501Y-107503502D01*
X231241501Y-108205167D01*
X231221816Y-108272206D01*
X231205182Y-108292848D01*
X212436804Y-127061225D01*
X212431352Y-127066358D01*
X212385783Y-127106729D01*
X212351201Y-127156828D01*
X212346765Y-127162857D01*
X212309225Y-127210774D01*
X212304964Y-127220241D01*
X212293946Y-127239776D01*
X212288045Y-127248326D01*
X212266457Y-127305246D01*
X212263593Y-127312162D01*
X212238610Y-127367672D01*
X212236738Y-127377890D01*
X212230714Y-127399497D01*
X212227035Y-127409197D01*
X212219696Y-127469633D01*
X212218569Y-127477032D01*
X212207597Y-127536906D01*
X212211274Y-127597675D01*
X212211500Y-127605162D01*
X212211500Y-138269333D01*
X212191815Y-138336372D01*
X212163663Y-138367186D01*
X211996760Y-138497093D01*
X211844279Y-138662730D01*
X211721138Y-138851211D01*
X211630705Y-139057381D01*
X211575435Y-139275636D01*
X211556843Y-139500000D01*
X203803609Y-139500000D01*
X203999121Y-139357951D01*
X203999122Y-139357951D01*
X203211161Y-138569990D01*
X203324504Y-138490627D01*
X203485350Y-138329781D01*
X203564713Y-138216437D01*
X204350374Y-139002098D01*
X204428685Y-138907439D01*
X204433256Y-138901147D01*
X204590895Y-138652747D01*
X204594637Y-138645941D01*
X204719906Y-138379730D01*
X204722766Y-138372506D01*
X204813678Y-138092710D01*
X204815614Y-138085171D01*
X204870741Y-137796185D01*
X204871715Y-137788465D01*
X204890188Y-137494859D01*
X204890188Y-137487070D01*
X204871715Y-137193464D01*
X204870741Y-137185744D01*
X204815614Y-136896758D01*
X204813678Y-136889219D01*
X204722766Y-136609423D01*
X204719906Y-136602199D01*
X204594637Y-136335988D01*
X204590895Y-136329182D01*
X204433257Y-136080783D01*
X204428681Y-136074485D01*
X204350374Y-135979829D01*
X203564713Y-136765490D01*
X203485350Y-136652149D01*
X203324504Y-136491303D01*
X203211159Y-136411938D01*
X203999122Y-135623977D01*
X203777367Y-135462862D01*
X203770796Y-135458692D01*
X203512993Y-135316964D01*
X203505954Y-135313651D01*
X203232417Y-135205351D01*
X203225022Y-135202948D01*
X202940062Y-135129782D01*
X202932431Y-135128327D01*
X202640547Y-135091453D01*
X202632789Y-135090965D01*
X202338587Y-135090965D01*
X202330828Y-135091453D01*
X202038944Y-135128327D01*
X202031313Y-135129782D01*
X201746353Y-135202948D01*
X201738958Y-135205351D01*
X201465421Y-135313651D01*
X201458382Y-135316964D01*
X201200587Y-135458688D01*
X201193997Y-135462870D01*
X200972253Y-135623976D01*
X200972252Y-135623977D01*
X201760214Y-136411939D01*
X201646872Y-136491303D01*
X201486026Y-136652149D01*
X201406662Y-136765491D01*
X200621000Y-135979829D01*
X200542683Y-136074499D01*
X200538122Y-136080777D01*
X200380480Y-136329182D01*
X200376738Y-136335988D01*
X200251469Y-136602199D01*
X200248609Y-136609423D01*
X200157697Y-136889219D01*
X200155761Y-136896758D01*
X200100634Y-137185744D01*
X200099660Y-137193464D01*
X200081188Y-137487070D01*
X200081188Y-137494859D01*
X186000500Y-137494859D01*
X186000500Y-130290965D01*
X200072426Y-130290965D01*
X200091455Y-130593427D01*
X200092182Y-130597239D01*
X200092184Y-130597253D01*
X200134837Y-130820843D01*
X200148243Y-130891119D01*
X200241894Y-131179346D01*
X200243551Y-131182869D01*
X200243553Y-131182872D01*
X200369271Y-131450039D01*
X200369276Y-131450048D01*
X200370930Y-131453563D01*
X200533318Y-131709445D01*
X200726496Y-131942957D01*
X200745395Y-131960704D01*
X200944574Y-132147746D01*
X200944580Y-132147751D01*
X200947417Y-132150415D01*
X201192598Y-132328549D01*
X201458171Y-132474550D01*
X201739949Y-132586114D01*
X202033488Y-132661481D01*
X202334158Y-132699465D01*
X202338052Y-132699465D01*
X202633324Y-132699465D01*
X202637218Y-132699465D01*
X202937888Y-132661481D01*
X203231427Y-132586114D01*
X203513205Y-132474550D01*
X203778778Y-132328549D01*
X204023959Y-132150415D01*
X204244880Y-131942957D01*
X204438058Y-131709445D01*
X204600446Y-131453563D01*
X204729482Y-131179346D01*
X204763708Y-131074010D01*
X208615500Y-131074010D01*
X208615797Y-131077027D01*
X208615798Y-131077044D01*
X208630091Y-131222161D01*
X208630092Y-131222164D01*
X208687759Y-131412267D01*
X208781405Y-131587467D01*
X208907432Y-131741031D01*
X209060996Y-131867058D01*
X209236196Y-131960704D01*
X209426299Y-132018371D01*
X209624000Y-132037843D01*
X209821701Y-132018371D01*
X210011804Y-131960704D01*
X210187004Y-131867058D01*
X210340568Y-131741031D01*
X210466595Y-131587467D01*
X210560241Y-131412267D01*
X210617908Y-131222164D01*
X210632500Y-131074010D01*
X210632500Y-129574916D01*
X210617908Y-129426762D01*
X210560241Y-129236659D01*
X210466595Y-129061459D01*
X210340568Y-128907895D01*
X210187004Y-128781868D01*
X210187003Y-128781867D01*
X210092390Y-128731296D01*
X210011804Y-128688222D01*
X209821701Y-128630555D01*
X209821698Y-128630554D01*
X209624000Y-128611083D01*
X209426301Y-128630554D01*
X209362931Y-128649777D01*
X209236196Y-128688222D01*
X209236192Y-128688223D01*
X209236192Y-128688224D01*
X209060996Y-128781867D01*
X208907432Y-128907895D01*
X208781404Y-129061459D01*
X208687761Y-129236655D01*
X208687759Y-129236659D01*
X208649314Y-129363394D01*
X208630091Y-129426764D01*
X208615798Y-129571881D01*
X208615797Y-129571899D01*
X208615500Y-129574916D01*
X208615500Y-131074010D01*
X204763708Y-131074010D01*
X204823133Y-130891119D01*
X204879921Y-130593427D01*
X204898950Y-130290965D01*
X204879921Y-129988503D01*
X204823133Y-129690811D01*
X204729482Y-129402584D01*
X204600446Y-129128367D01*
X204438058Y-128872485D01*
X204244880Y-128638973D01*
X204215180Y-128611083D01*
X204026801Y-128434183D01*
X204026793Y-128434177D01*
X204023959Y-128431515D01*
X203778778Y-128253381D01*
X203775374Y-128251510D01*
X203775370Y-128251507D01*
X203516613Y-128109253D01*
X203516605Y-128109249D01*
X203513205Y-128107380D01*
X203509586Y-128105947D01*
X203235052Y-127997251D01*
X203235048Y-127997249D01*
X203231427Y-127995816D01*
X203227653Y-127994847D01*
X203227647Y-127994845D01*
X202941666Y-127921419D01*
X202941665Y-127921418D01*
X202937888Y-127920449D01*
X202934025Y-127919961D01*
X202934020Y-127919960D01*
X202641082Y-127882953D01*
X202641079Y-127882952D01*
X202637218Y-127882465D01*
X202334158Y-127882465D01*
X202330297Y-127882952D01*
X202330293Y-127882953D01*
X202037355Y-127919960D01*
X202037347Y-127919961D01*
X202033488Y-127920449D01*
X202029713Y-127921418D01*
X202029709Y-127921419D01*
X201743728Y-127994845D01*
X201743717Y-127994848D01*
X201739949Y-127995816D01*
X201736331Y-127997248D01*
X201736323Y-127997251D01*
X201461789Y-128105947D01*
X201461781Y-128105950D01*
X201458171Y-128107380D01*
X201454776Y-128109246D01*
X201454762Y-128109253D01*
X201196005Y-128251507D01*
X201195993Y-128251514D01*
X201192598Y-128253381D01*
X201189454Y-128255664D01*
X201189448Y-128255669D01*
X200950573Y-128429221D01*
X200950562Y-128429229D01*
X200947417Y-128431515D01*
X200944589Y-128434170D01*
X200944574Y-128434183D01*
X200729333Y-128636308D01*
X200729325Y-128636315D01*
X200726496Y-128638973D01*
X200724021Y-128641964D01*
X200724017Y-128641969D01*
X200535793Y-128869492D01*
X200535785Y-128869502D01*
X200533318Y-128872485D01*
X200531242Y-128875755D01*
X200531237Y-128875763D01*
X200413391Y-129061459D01*
X200370930Y-129128367D01*
X200369279Y-129131874D01*
X200369271Y-129131890D01*
X200243553Y-129399057D01*
X200243549Y-129399065D01*
X200241894Y-129402584D01*
X200240690Y-129406289D01*
X200240689Y-129406292D01*
X200185900Y-129574916D01*
X200148243Y-129690811D01*
X200147514Y-129694631D01*
X200147512Y-129694640D01*
X200092184Y-129984676D01*
X200092181Y-129984692D01*
X200091455Y-129988503D01*
X200072426Y-130290965D01*
X186000500Y-130290965D01*
X186000500Y-126890964D01*
X194910319Y-126890964D01*
X194910320Y-126890965D01*
X195819577Y-126890965D01*
X195780078Y-126915422D01*
X195712487Y-127004927D01*
X195681793Y-127112805D01*
X195692142Y-127224486D01*
X195742136Y-127324887D01*
X195814619Y-127390965D01*
X194914430Y-127390965D01*
X194941458Y-127502375D01*
X195028727Y-127693470D01*
X195150580Y-127864586D01*
X195302621Y-128009557D01*
X195479343Y-128123131D01*
X195674373Y-128201209D01*
X195880650Y-128240965D01*
X196235688Y-128240965D01*
X196235688Y-127440965D01*
X196735688Y-127440965D01*
X196735688Y-128240965D01*
X197035138Y-128240965D01*
X197041047Y-128240683D01*
X197194808Y-128226000D01*
X197396375Y-128166815D01*
X197583100Y-128070552D01*
X197748226Y-127940695D01*
X197885799Y-127781928D01*
X197990834Y-127600001D01*
X198059544Y-127401476D01*
X198061056Y-127390965D01*
X197151799Y-127390965D01*
X197191298Y-127366508D01*
X197258889Y-127277003D01*
X197289583Y-127169125D01*
X197279234Y-127057444D01*
X197229240Y-126957043D01*
X197156757Y-126890965D01*
X198056945Y-126890965D01*
X198029917Y-126779554D01*
X197942648Y-126588459D01*
X197820795Y-126417343D01*
X197668754Y-126272372D01*
X197492032Y-126158798D01*
X197297002Y-126080720D01*
X197090726Y-126040965D01*
X196735688Y-126040965D01*
X196735688Y-126840965D01*
X196235688Y-126840965D01*
X196235688Y-126040965D01*
X195936238Y-126040965D01*
X195930328Y-126041246D01*
X195776567Y-126055929D01*
X195575000Y-126115114D01*
X195388275Y-126211377D01*
X195223149Y-126341234D01*
X195085576Y-126500001D01*
X194980541Y-126681928D01*
X194911831Y-126880453D01*
X194910319Y-126890964D01*
X186000500Y-126890964D01*
X186000500Y-122000000D01*
X208346843Y-122000000D01*
X208365435Y-122224363D01*
X208365435Y-122224366D01*
X208365436Y-122224368D01*
X208407578Y-122390784D01*
X208420705Y-122442618D01*
X208511138Y-122648788D01*
X208511140Y-122648791D01*
X208634278Y-122837268D01*
X208786760Y-123002906D01*
X208964424Y-123141189D01*
X209162426Y-123248342D01*
X209375365Y-123321444D01*
X209597431Y-123358500D01*
X209822569Y-123358500D01*
X210044635Y-123321444D01*
X210257574Y-123248342D01*
X210455576Y-123141189D01*
X210633240Y-123002906D01*
X210666847Y-122966398D01*
X210702908Y-122927228D01*
X210762795Y-122891237D01*
X210832633Y-122893338D01*
X210890249Y-122932862D01*
X210910319Y-122967877D01*
X210956647Y-123092089D01*
X211042811Y-123207188D01*
X211157910Y-123293352D01*
X211292628Y-123343599D01*
X211348867Y-123349645D01*
X211355482Y-123350000D01*
X212000000Y-123350000D01*
X212000000Y-122435501D01*
X212107685Y-122484680D01*
X212214237Y-122500000D01*
X212285763Y-122500000D01*
X212392315Y-122484680D01*
X212499999Y-122435501D01*
X212499999Y-123349999D01*
X212500000Y-123350000D01*
X213144518Y-123350000D01*
X213151132Y-123349645D01*
X213207371Y-123343599D01*
X213342089Y-123293352D01*
X213457188Y-123207188D01*
X213543352Y-123092089D01*
X213593599Y-122957371D01*
X213599645Y-122901132D01*
X213600000Y-122894518D01*
X213600000Y-122250000D01*
X212683686Y-122250000D01*
X212709493Y-122209844D01*
X212750000Y-122071889D01*
X212750000Y-121928111D01*
X212709493Y-121790156D01*
X212683686Y-121750000D01*
X213600000Y-121750000D01*
X213600000Y-121105481D01*
X213599645Y-121098867D01*
X213593599Y-121042628D01*
X213543352Y-120907910D01*
X213457188Y-120792811D01*
X213342089Y-120706647D01*
X213207371Y-120656400D01*
X213151132Y-120650354D01*
X213144518Y-120650000D01*
X212500000Y-120650000D01*
X212499999Y-121564498D01*
X212392315Y-121515320D01*
X212285763Y-121500000D01*
X212214237Y-121500000D01*
X212107685Y-121515320D01*
X212000000Y-121564498D01*
X212000000Y-120650000D01*
X211355482Y-120650000D01*
X211348867Y-120650354D01*
X211292628Y-120656400D01*
X211157910Y-120706647D01*
X211042811Y-120792811D01*
X210956647Y-120907911D01*
X210910319Y-121032122D01*
X210868447Y-121088055D01*
X210802983Y-121112472D01*
X210734710Y-121097620D01*
X210702908Y-121072772D01*
X210633240Y-120997094D01*
X210633239Y-120997094D01*
X210455576Y-120858811D01*
X210257574Y-120751658D01*
X210257573Y-120751657D01*
X210257572Y-120751657D01*
X210044636Y-120678556D01*
X209822569Y-120641500D01*
X209597431Y-120641500D01*
X209375363Y-120678556D01*
X209162427Y-120751657D01*
X208964424Y-120858811D01*
X208786760Y-120997094D01*
X208634279Y-121162730D01*
X208511138Y-121351211D01*
X208420705Y-121557381D01*
X208365435Y-121775636D01*
X208346843Y-122000000D01*
X186000500Y-122000000D01*
X186000500Y-118339130D01*
X194914287Y-118339130D01*
X194914288Y-118339131D01*
X195823545Y-118339131D01*
X195784046Y-118363588D01*
X195716455Y-118453093D01*
X195685761Y-118560971D01*
X195696110Y-118672652D01*
X195746104Y-118773053D01*
X195818587Y-118839131D01*
X194918398Y-118839131D01*
X194945426Y-118950541D01*
X195032695Y-119141636D01*
X195154548Y-119312752D01*
X195306589Y-119457723D01*
X195483311Y-119571297D01*
X195678341Y-119649375D01*
X195884618Y-119689131D01*
X196239656Y-119689131D01*
X196239656Y-118889131D01*
X196739656Y-118889131D01*
X196739656Y-119689131D01*
X197039106Y-119689131D01*
X197045015Y-119688849D01*
X197198776Y-119674166D01*
X197400343Y-119614981D01*
X197587068Y-119518718D01*
X197752194Y-119388861D01*
X197889767Y-119230094D01*
X197994802Y-119048167D01*
X198063512Y-118849642D01*
X198065024Y-118839131D01*
X197155767Y-118839131D01*
X197195266Y-118814674D01*
X197262857Y-118725169D01*
X197293551Y-118617291D01*
X197283202Y-118505610D01*
X197233208Y-118405209D01*
X197160725Y-118339131D01*
X198060913Y-118339131D01*
X198033885Y-118227720D01*
X197946616Y-118036625D01*
X197824763Y-117865509D01*
X197672722Y-117720538D01*
X197496000Y-117606964D01*
X197300970Y-117528886D01*
X197094694Y-117489131D01*
X196739656Y-117489131D01*
X196739656Y-118289131D01*
X196239656Y-118289131D01*
X196239656Y-117489131D01*
X195940206Y-117489131D01*
X195934296Y-117489412D01*
X195780535Y-117504095D01*
X195578968Y-117563280D01*
X195392243Y-117659543D01*
X195227117Y-117789400D01*
X195089544Y-117948167D01*
X194984509Y-118130094D01*
X194915799Y-118328619D01*
X194914287Y-118339130D01*
X186000500Y-118339130D01*
X186000500Y-115443025D01*
X200085156Y-115443025D01*
X200103628Y-115736631D01*
X200104602Y-115744351D01*
X200159729Y-116033337D01*
X200161665Y-116040876D01*
X200252577Y-116320672D01*
X200255437Y-116327896D01*
X200380706Y-116594107D01*
X200384448Y-116600913D01*
X200542086Y-116849312D01*
X200546662Y-116855610D01*
X200624968Y-116950265D01*
X201410629Y-116164603D01*
X201489994Y-116277947D01*
X201650840Y-116438793D01*
X201764182Y-116518156D01*
X200976220Y-117306117D01*
X201197976Y-117467233D01*
X201204547Y-117471403D01*
X201462350Y-117613131D01*
X201469389Y-117616444D01*
X201742926Y-117724744D01*
X201750321Y-117727147D01*
X202035281Y-117800313D01*
X202042912Y-117801768D01*
X202334796Y-117838642D01*
X202342555Y-117839131D01*
X202636757Y-117839131D01*
X202644515Y-117838642D01*
X202936399Y-117801768D01*
X202944030Y-117800313D01*
X203228990Y-117727147D01*
X203236385Y-117724744D01*
X203509922Y-117616444D01*
X203516961Y-117613131D01*
X203774764Y-117471403D01*
X203781334Y-117467233D01*
X204003089Y-117306117D01*
X204003090Y-117306117D01*
X203215129Y-116518156D01*
X203328472Y-116438793D01*
X203489318Y-116277947D01*
X203568681Y-116164603D01*
X204354342Y-116950264D01*
X204432653Y-116855605D01*
X204437224Y-116849313D01*
X204500250Y-116749999D01*
X208346843Y-116749999D01*
X208365435Y-116974363D01*
X208420705Y-117192618D01*
X208511138Y-117398788D01*
X208511140Y-117398791D01*
X208634278Y-117587268D01*
X208786760Y-117752906D01*
X208964424Y-117891189D01*
X209162426Y-117998342D01*
X209375365Y-118071444D01*
X209597431Y-118108500D01*
X209822569Y-118108500D01*
X210044635Y-118071444D01*
X210257574Y-117998342D01*
X210455576Y-117891189D01*
X210633240Y-117752906D01*
X210666847Y-117716398D01*
X210702908Y-117677228D01*
X210762795Y-117641237D01*
X210832633Y-117643338D01*
X210890249Y-117682862D01*
X210910319Y-117717877D01*
X210956647Y-117842089D01*
X211042811Y-117957188D01*
X211157910Y-118043352D01*
X211292628Y-118093599D01*
X211348867Y-118099645D01*
X211355482Y-118100000D01*
X212000000Y-118100000D01*
X212000000Y-117185501D01*
X212107685Y-117234680D01*
X212214237Y-117250000D01*
X212285763Y-117250000D01*
X212392315Y-117234680D01*
X212499999Y-117185501D01*
X212499999Y-118099999D01*
X212500000Y-118100000D01*
X213144518Y-118100000D01*
X213151132Y-118099645D01*
X213207371Y-118093599D01*
X213342089Y-118043352D01*
X213457188Y-117957188D01*
X213543352Y-117842089D01*
X213593599Y-117707371D01*
X213599645Y-117651132D01*
X213600000Y-117644518D01*
X213600000Y-117000000D01*
X212683686Y-117000000D01*
X212709493Y-116959844D01*
X212750000Y-116821889D01*
X212750000Y-116678111D01*
X212709493Y-116540156D01*
X212683686Y-116500000D01*
X213600000Y-116500000D01*
X213600000Y-115855481D01*
X213599645Y-115848867D01*
X213593599Y-115792628D01*
X213543352Y-115657910D01*
X213457188Y-115542811D01*
X213342089Y-115456647D01*
X213207371Y-115406400D01*
X213151132Y-115400354D01*
X213144518Y-115400000D01*
X212500000Y-115400000D01*
X212499999Y-116314498D01*
X212392315Y-116265320D01*
X212285763Y-116250000D01*
X212214237Y-116250000D01*
X212107685Y-116265320D01*
X212000000Y-116314498D01*
X212000000Y-115400000D01*
X211355482Y-115400000D01*
X211348867Y-115400354D01*
X211292628Y-115406400D01*
X211157910Y-115456647D01*
X211042811Y-115542811D01*
X210956647Y-115657911D01*
X210910319Y-115782122D01*
X210868447Y-115838055D01*
X210802983Y-115862472D01*
X210734710Y-115847620D01*
X210702908Y-115822772D01*
X210633240Y-115747094D01*
X210528712Y-115665736D01*
X210455576Y-115608811D01*
X210257574Y-115501658D01*
X210257573Y-115501657D01*
X210257572Y-115501657D01*
X210044636Y-115428556D01*
X209822569Y-115391500D01*
X209597431Y-115391500D01*
X209375363Y-115428556D01*
X209162427Y-115501657D01*
X208964424Y-115608811D01*
X208786760Y-115747094D01*
X208634279Y-115912730D01*
X208511138Y-116101211D01*
X208420705Y-116307381D01*
X208365435Y-116525636D01*
X208346843Y-116749999D01*
X204500250Y-116749999D01*
X204594863Y-116600913D01*
X204598605Y-116594107D01*
X204723874Y-116327896D01*
X204726734Y-116320672D01*
X204817646Y-116040876D01*
X204819582Y-116033337D01*
X204874709Y-115744351D01*
X204875683Y-115736631D01*
X204894156Y-115443025D01*
X204894156Y-115435236D01*
X204875683Y-115141630D01*
X204874709Y-115133910D01*
X204819582Y-114844924D01*
X204817646Y-114837385D01*
X204726734Y-114557589D01*
X204723874Y-114550365D01*
X204598605Y-114284154D01*
X204594863Y-114277348D01*
X204437225Y-114028949D01*
X204432649Y-114022651D01*
X204354342Y-113927995D01*
X203568681Y-114713656D01*
X203489318Y-114600315D01*
X203328472Y-114439469D01*
X203215128Y-114360105D01*
X204003090Y-113572143D01*
X203781335Y-113411028D01*
X203774764Y-113406858D01*
X203516961Y-113265130D01*
X203509922Y-113261817D01*
X203236385Y-113153517D01*
X203228990Y-113151114D01*
X202944030Y-113077948D01*
X202936399Y-113076493D01*
X202644515Y-113039619D01*
X202636757Y-113039131D01*
X202342555Y-113039131D01*
X202334796Y-113039619D01*
X202042912Y-113076493D01*
X202035281Y-113077948D01*
X201750321Y-113151114D01*
X201742926Y-113153517D01*
X201469389Y-113261817D01*
X201462350Y-113265130D01*
X201204555Y-113406854D01*
X201197965Y-113411036D01*
X200976221Y-113572142D01*
X200976220Y-113572143D01*
X201764182Y-114360105D01*
X201650840Y-114439469D01*
X201489994Y-114600315D01*
X201410630Y-114713657D01*
X200624968Y-113927995D01*
X200546651Y-114022665D01*
X200542090Y-114028943D01*
X200384448Y-114277348D01*
X200380706Y-114284154D01*
X200255437Y-114550365D01*
X200252577Y-114557589D01*
X200161665Y-114837385D01*
X200159729Y-114844924D01*
X200104602Y-115133910D01*
X200103628Y-115141630D01*
X200085156Y-115435236D01*
X200085156Y-115443025D01*
X186000500Y-115443025D01*
X186000500Y-108239131D01*
X200076394Y-108239131D01*
X200095423Y-108541593D01*
X200096150Y-108545405D01*
X200096152Y-108545419D01*
X200151480Y-108835455D01*
X200152211Y-108839285D01*
X200245862Y-109127512D01*
X200247519Y-109131035D01*
X200247521Y-109131038D01*
X200373239Y-109398205D01*
X200373244Y-109398214D01*
X200374898Y-109401729D01*
X200537286Y-109657611D01*
X200730464Y-109891123D01*
X200733301Y-109893787D01*
X200948542Y-110095912D01*
X200948548Y-110095917D01*
X200951385Y-110098581D01*
X201196566Y-110276715D01*
X201199973Y-110278588D01*
X201458546Y-110420741D01*
X201462139Y-110422716D01*
X201743917Y-110534280D01*
X202037456Y-110609647D01*
X202338126Y-110647631D01*
X202342020Y-110647631D01*
X202637292Y-110647631D01*
X202641186Y-110647631D01*
X202941856Y-110609647D01*
X203235395Y-110534280D01*
X203517173Y-110422716D01*
X203782746Y-110276715D01*
X204027927Y-110098581D01*
X204248848Y-109891123D01*
X204442026Y-109657611D01*
X204604414Y-109401729D01*
X204733450Y-109127512D01*
X204775029Y-108999547D01*
X208615501Y-108999547D01*
X208615798Y-109002564D01*
X208615799Y-109002581D01*
X208630092Y-109147698D01*
X208630093Y-109147701D01*
X208687760Y-109337804D01*
X208723684Y-109405014D01*
X208766909Y-109485883D01*
X208781406Y-109513004D01*
X208907433Y-109666568D01*
X209060997Y-109792595D01*
X209236197Y-109886241D01*
X209426300Y-109943908D01*
X209624001Y-109963380D01*
X209821702Y-109943908D01*
X210011805Y-109886241D01*
X210187005Y-109792595D01*
X210340569Y-109666568D01*
X210466596Y-109513004D01*
X210560242Y-109337804D01*
X210617909Y-109147701D01*
X210632501Y-108999547D01*
X210632501Y-107500453D01*
X210617909Y-107352299D01*
X210560242Y-107162196D01*
X210466596Y-106986996D01*
X210340569Y-106833432D01*
X210187005Y-106707405D01*
X210187004Y-106707404D01*
X210044891Y-106631444D01*
X210011805Y-106613759D01*
X209821702Y-106556092D01*
X209821699Y-106556091D01*
X209624001Y-106536620D01*
X209426302Y-106556091D01*
X209362932Y-106575314D01*
X209236197Y-106613759D01*
X209236193Y-106613760D01*
X209236193Y-106613761D01*
X209060997Y-106707404D01*
X208907433Y-106833432D01*
X208781405Y-106986996D01*
X208716109Y-107109158D01*
X208687760Y-107162196D01*
X208649315Y-107288931D01*
X208630092Y-107352301D01*
X208615799Y-107497418D01*
X208615798Y-107497436D01*
X208615501Y-107500453D01*
X208615501Y-108999547D01*
X204775029Y-108999547D01*
X204827101Y-108839285D01*
X204883889Y-108541593D01*
X204902918Y-108239131D01*
X204883889Y-107936669D01*
X204827101Y-107638977D01*
X204733450Y-107350750D01*
X204619766Y-107109158D01*
X204606072Y-107080056D01*
X204606070Y-107080053D01*
X204604414Y-107076533D01*
X204442026Y-106820651D01*
X204248848Y-106587139D01*
X204195051Y-106536620D01*
X204030769Y-106382349D01*
X204030761Y-106382343D01*
X204027927Y-106379681D01*
X204020691Y-106374424D01*
X203785895Y-106203835D01*
X203785896Y-106203835D01*
X203782746Y-106201547D01*
X203779342Y-106199676D01*
X203779338Y-106199673D01*
X203520581Y-106057419D01*
X203520573Y-106057415D01*
X203517173Y-106055546D01*
X203468652Y-106036335D01*
X203239020Y-105945417D01*
X203239016Y-105945415D01*
X203235395Y-105943982D01*
X203231621Y-105943013D01*
X203231615Y-105943011D01*
X202945634Y-105869585D01*
X202945633Y-105869584D01*
X202941856Y-105868615D01*
X202937993Y-105868127D01*
X202937988Y-105868126D01*
X202645050Y-105831119D01*
X202645047Y-105831118D01*
X202641186Y-105830631D01*
X202338126Y-105830631D01*
X202334265Y-105831118D01*
X202334261Y-105831119D01*
X202041323Y-105868126D01*
X202041315Y-105868127D01*
X202037456Y-105868615D01*
X202033681Y-105869584D01*
X202033677Y-105869585D01*
X201747696Y-105943011D01*
X201747685Y-105943014D01*
X201743917Y-105943982D01*
X201740299Y-105945414D01*
X201740291Y-105945417D01*
X201465757Y-106054113D01*
X201465749Y-106054116D01*
X201462139Y-106055546D01*
X201458744Y-106057412D01*
X201458730Y-106057419D01*
X201199973Y-106199673D01*
X201199961Y-106199680D01*
X201196566Y-106201547D01*
X201193422Y-106203830D01*
X201193416Y-106203835D01*
X200954541Y-106377387D01*
X200954530Y-106377395D01*
X200951385Y-106379681D01*
X200948557Y-106382336D01*
X200948542Y-106382349D01*
X200733301Y-106584474D01*
X200733293Y-106584481D01*
X200730464Y-106587139D01*
X200727989Y-106590130D01*
X200727985Y-106590135D01*
X200539761Y-106817658D01*
X200539753Y-106817668D01*
X200537286Y-106820651D01*
X200535210Y-106823921D01*
X200535205Y-106823929D01*
X200376983Y-107073247D01*
X200374898Y-107076533D01*
X200373247Y-107080040D01*
X200373239Y-107080056D01*
X200247521Y-107347223D01*
X200247517Y-107347231D01*
X200245862Y-107350750D01*
X200244658Y-107354455D01*
X200244657Y-107354458D01*
X200196230Y-107503502D01*
X200152211Y-107638977D01*
X200151482Y-107642797D01*
X200151480Y-107642806D01*
X200096152Y-107932842D01*
X200096149Y-107932858D01*
X200095423Y-107936669D01*
X200076394Y-108239131D01*
X186000500Y-108239131D01*
X186000500Y-104839130D01*
X194914287Y-104839130D01*
X194914288Y-104839131D01*
X195823545Y-104839131D01*
X195784046Y-104863588D01*
X195716455Y-104953093D01*
X195685761Y-105060971D01*
X195696110Y-105172652D01*
X195746104Y-105273053D01*
X195818587Y-105339131D01*
X194918398Y-105339131D01*
X194945426Y-105450541D01*
X195032695Y-105641636D01*
X195154548Y-105812752D01*
X195306589Y-105957723D01*
X195483311Y-106071297D01*
X195678341Y-106149375D01*
X195884618Y-106189131D01*
X196239656Y-106189131D01*
X196239656Y-105389131D01*
X196739656Y-105389131D01*
X196739656Y-106189131D01*
X197039106Y-106189131D01*
X197045015Y-106188849D01*
X197198776Y-106174166D01*
X197400343Y-106114981D01*
X197587068Y-106018718D01*
X197752194Y-105888861D01*
X197889767Y-105730094D01*
X197994802Y-105548167D01*
X198063512Y-105349642D01*
X198065024Y-105339131D01*
X197155767Y-105339131D01*
X197195266Y-105314674D01*
X197262857Y-105225169D01*
X197293551Y-105117291D01*
X197283202Y-105005610D01*
X197233208Y-104905209D01*
X197160725Y-104839131D01*
X198060913Y-104839131D01*
X198033885Y-104727720D01*
X197946616Y-104536625D01*
X197824763Y-104365509D01*
X197672722Y-104220538D01*
X197496000Y-104106964D01*
X197300970Y-104028886D01*
X197151090Y-104000000D01*
X241486620Y-104000000D01*
X241506091Y-104197698D01*
X241506092Y-104197701D01*
X241563759Y-104387804D01*
X241657405Y-104563004D01*
X241783432Y-104716568D01*
X241936996Y-104842595D01*
X242112196Y-104936241D01*
X242302299Y-104993908D01*
X242500000Y-105013380D01*
X242697701Y-104993908D01*
X242887804Y-104936241D01*
X243063004Y-104842595D01*
X243216568Y-104716568D01*
X243342595Y-104563004D01*
X243436241Y-104387804D01*
X243493908Y-104197701D01*
X243513380Y-104000000D01*
X245736620Y-104000000D01*
X245756091Y-104197698D01*
X245756092Y-104197701D01*
X245813759Y-104387804D01*
X245907405Y-104563004D01*
X246033432Y-104716568D01*
X246186996Y-104842595D01*
X246362196Y-104936241D01*
X246552299Y-104993908D01*
X246750000Y-105013380D01*
X246947701Y-104993908D01*
X247137804Y-104936241D01*
X247313004Y-104842595D01*
X247466568Y-104716568D01*
X247592595Y-104563004D01*
X247686241Y-104387804D01*
X247743908Y-104197701D01*
X247763380Y-104000000D01*
X249986620Y-104000000D01*
X250006091Y-104197698D01*
X250006092Y-104197701D01*
X250063759Y-104387804D01*
X250157405Y-104563004D01*
X250283432Y-104716568D01*
X250436996Y-104842595D01*
X250612196Y-104936241D01*
X250802299Y-104993908D01*
X251000000Y-105013380D01*
X251197701Y-104993908D01*
X251387804Y-104936241D01*
X251563004Y-104842595D01*
X251716568Y-104716568D01*
X251842595Y-104563004D01*
X251936241Y-104387804D01*
X251993908Y-104197701D01*
X252013380Y-104000000D01*
X251993908Y-103802299D01*
X251936241Y-103612196D01*
X251877345Y-103502008D01*
X255353682Y-103502008D01*
X255363856Y-103741548D01*
X255414370Y-103975933D01*
X255503765Y-104198400D01*
X255503767Y-104198404D01*
X255620385Y-104387804D01*
X255629477Y-104402570D01*
X255787880Y-104582550D01*
X255974423Y-104733175D01*
X256164095Y-104839131D01*
X256183740Y-104850105D01*
X256409806Y-104929980D01*
X256409808Y-104929980D01*
X256409810Y-104929981D01*
X256646117Y-104970500D01*
X256646119Y-104970500D01*
X259023196Y-104970500D01*
X259025827Y-104970500D01*
X259204898Y-104955259D01*
X259397117Y-104905209D01*
X259436925Y-104894844D01*
X259581156Y-104829647D01*
X259655402Y-104796086D01*
X259854047Y-104661825D01*
X260027144Y-104495925D01*
X260169715Y-104303157D01*
X260277657Y-104089067D01*
X260347864Y-103859815D01*
X260378318Y-103621995D01*
X260368143Y-103382449D01*
X260317630Y-103148068D01*
X260228233Y-102925596D01*
X260102524Y-102721431D01*
X259944119Y-102541449D01*
X259845941Y-102462175D01*
X259757576Y-102390824D01*
X259548261Y-102273895D01*
X259322189Y-102194018D01*
X259085883Y-102153500D01*
X259085881Y-102153500D01*
X256706173Y-102153500D01*
X256703558Y-102153722D01*
X256703547Y-102153723D01*
X256527103Y-102168740D01*
X256295074Y-102229155D01*
X256076598Y-102327913D01*
X255877953Y-102462174D01*
X255704855Y-102628075D01*
X255562285Y-102820842D01*
X255454343Y-103034932D01*
X255416837Y-103157405D01*
X255384136Y-103264185D01*
X255368992Y-103382451D01*
X255353682Y-103502008D01*
X251877345Y-103502008D01*
X251842595Y-103436996D01*
X251716568Y-103283432D01*
X251563004Y-103157405D01*
X251563003Y-103157404D01*
X251468390Y-103106833D01*
X251387804Y-103063759D01*
X251197701Y-103006092D01*
X251197698Y-103006091D01*
X251000000Y-102986620D01*
X250802301Y-103006091D01*
X250738931Y-103025314D01*
X250612196Y-103063759D01*
X250612192Y-103063760D01*
X250612192Y-103063761D01*
X250436996Y-103157404D01*
X250283432Y-103283432D01*
X250157404Y-103436996D01*
X250122655Y-103502008D01*
X250063759Y-103612196D01*
X250060788Y-103621991D01*
X250006091Y-103802301D01*
X249986620Y-104000000D01*
X247763380Y-104000000D01*
X247743908Y-103802299D01*
X247686241Y-103612196D01*
X247592595Y-103436996D01*
X247466568Y-103283432D01*
X247313004Y-103157405D01*
X247313003Y-103157404D01*
X247218390Y-103106833D01*
X247137804Y-103063759D01*
X246947701Y-103006092D01*
X246947698Y-103006091D01*
X246774247Y-102989008D01*
X246750000Y-102986620D01*
X246749999Y-102986620D01*
X246552301Y-103006091D01*
X246488931Y-103025314D01*
X246362196Y-103063759D01*
X246362192Y-103063760D01*
X246362192Y-103063761D01*
X246186996Y-103157404D01*
X246033432Y-103283432D01*
X245907404Y-103436996D01*
X245872655Y-103502008D01*
X245813759Y-103612196D01*
X245810788Y-103621991D01*
X245756091Y-103802301D01*
X245736620Y-104000000D01*
X243513380Y-104000000D01*
X243493908Y-103802299D01*
X243436241Y-103612196D01*
X243342595Y-103436996D01*
X243216568Y-103283432D01*
X243063004Y-103157405D01*
X243063003Y-103157404D01*
X242968390Y-103106833D01*
X242887804Y-103063759D01*
X242697701Y-103006092D01*
X242697698Y-103006091D01*
X242500000Y-102986620D01*
X242302301Y-103006091D01*
X242238931Y-103025314D01*
X242112196Y-103063759D01*
X242112192Y-103063760D01*
X242112192Y-103063761D01*
X241936996Y-103157404D01*
X241783432Y-103283432D01*
X241657404Y-103436996D01*
X241622655Y-103502008D01*
X241563759Y-103612196D01*
X241560788Y-103621991D01*
X241506091Y-103802301D01*
X241486620Y-104000000D01*
X197151090Y-104000000D01*
X197094694Y-103989131D01*
X196739656Y-103989131D01*
X196739656Y-104789131D01*
X196239656Y-104789131D01*
X196239656Y-103989131D01*
X195940206Y-103989131D01*
X195934296Y-103989412D01*
X195780535Y-104004095D01*
X195578968Y-104063280D01*
X195392243Y-104159543D01*
X195227117Y-104289400D01*
X195089544Y-104448167D01*
X194984509Y-104630094D01*
X194915799Y-104828619D01*
X194914287Y-104839130D01*
X186000500Y-104839130D01*
X186000500Y-102753245D01*
X186000670Y-102746756D01*
X186007490Y-102616617D01*
X186017628Y-102436085D01*
X186018954Y-102423694D01*
X186042610Y-102274334D01*
X186042686Y-102273895D01*
X186069739Y-102114669D01*
X186072206Y-102103379D01*
X186112425Y-101953279D01*
X186156353Y-101800803D01*
X186159721Y-101790759D01*
X186215583Y-101645233D01*
X186216692Y-101642452D01*
X186276439Y-101498212D01*
X186280488Y-101489429D01*
X186351569Y-101349925D01*
X186353521Y-101346250D01*
X186428588Y-101210426D01*
X186433065Y-101202962D01*
X186518633Y-101071199D01*
X186521434Y-101067077D01*
X186611010Y-100940832D01*
X186615733Y-100934603D01*
X186714702Y-100812386D01*
X186718532Y-100807885D01*
X186821613Y-100692537D01*
X186826323Y-100687556D01*
X186937556Y-100576323D01*
X186942537Y-100571613D01*
X187057885Y-100468532D01*
X187062386Y-100464702D01*
X187184603Y-100365733D01*
X187190832Y-100361010D01*
X187317077Y-100271434D01*
X187321199Y-100268633D01*
X187452962Y-100183065D01*
X187460426Y-100178588D01*
X187596255Y-100103517D01*
X187599934Y-100101565D01*
X187739429Y-100030488D01*
X187748212Y-100026439D01*
X187892452Y-99966692D01*
X187895233Y-99965583D01*
X188040753Y-99909724D01*
X188050818Y-99906349D01*
X188203292Y-99862422D01*
X188353407Y-99822198D01*
X188364672Y-99819739D01*
X188524337Y-99792610D01*
X188673688Y-99768955D01*
X188686098Y-99767627D01*
X188866566Y-99757493D01*
X188996756Y-99750669D01*
X189003245Y-99750500D01*
X265996755Y-99750500D01*
X266003243Y-99750669D01*
G37*
%TD.AperFunction*%
%TD*%
M02*
