M48
; DRILL file {KiCad 7.0.2} date Mon Jul  3 14:04:12 2023
; FORMAT={-:-/ absolute / inch / decimal}
; #@! TF.CreationDate,2023-07-03T14:04:12+02:00
; #@! TF.GenerationSoftware,Kicad,Pcbnew,7.0.2
; #@! TF.FileFunction,Plated,1,2,PTH
FMAT,2
INCH
; #@! TA.AperFunction,Plated,PTH,ViaDrill
T1C0.0157
; #@! TA.AperFunction,Plated,PTH,ComponentDrill
T2C0.0197
; #@! TA.AperFunction,Plated,PTH,ComponentDrill
T3C0.0236
; #@! TA.AperFunction,Plated,PTH,ComponentDrill
T4C0.0394
; #@! TA.AperFunction,Plated,PTH,ComponentDrill
T5C0.0433
; #@! TA.AperFunction,Plated,PTH,ComponentDrill
T6C0.0472
; #@! TA.AperFunction,Plated,PTH,ComponentDrill
T7C0.1024
%
G90
G05
T1
X8.7972Y-4.6807
X8.9223Y-4.8397
X9.7244Y-4.3799
T2
X9.5472Y-4.0945
X9.7146Y-4.0945
X9.8819Y-4.0945
T4
X8.2563Y-4.5965
X8.2563Y-4.8031
X8.3563Y-4.5965
X8.3563Y-4.8031
X8.3827Y-5.4921
X8.4827Y-5.4921
X8.5827Y-5.4921
T5
X8.9583Y-5.4994
X9.0568Y-5.4994
T7
X7.9719Y-5.1296
X7.9719Y-5.413
X7.972Y-4.2614
X7.972Y-4.5448
T3
G00X7.716Y-5.0055
M15
G01X7.7553Y-5.0055
M16
G05
G00X7.716Y-5.537
M15
G01X7.7553Y-5.537
M16
G05
G00X7.7161Y-4.1374
M15
G01X7.7555Y-4.1374
M16
G05
G00X7.7161Y-4.6689
M15
G01X7.7555Y-4.6689
M16
G05
G00X8.2529Y-5.1096
M15
G01X8.2529Y-5.1521
M16
G05
G00X8.2529Y-4.2406
M15
G01X8.2529Y-4.2831
M16
G05
G00X9.1437Y-5.1096
M15
G01X9.1437Y-5.1521
M16
G05
G00X9.1437Y-4.2406
M15
G01X9.1437Y-4.2831
M16
G05
T6
G00X10.0341Y-4.3038
M15
G01X10.0341Y-4.2211
M16
G05
G00X10.0341Y-4.8648
M15
G01X10.0341Y-4.7821
M16
G05
G00X10.0341Y-5.4061
M15
G01X10.0341Y-5.3235
M16
G05
G00X10.1935Y-4.0772
M15
G01X10.1109Y-4.0772
M16
G05
G00X10.1935Y-4.6383
M15
G01X10.1109Y-4.6383
M16
G05
G00X10.1935Y-5.1796
M15
G01X10.1109Y-5.1796
M16
G05
G00X10.2703Y-4.3038
M15
G01X10.2703Y-4.2211
M16
G05
G00X10.2703Y-4.8648
M15
G01X10.2703Y-4.7821
M16
G05
G00X10.2703Y-5.4061
M15
G01X10.2703Y-5.3235
M16
G05
T0
M30
