M48
; DRILL file {KiCad (6.0.8)} date Thu Dec  8 15:19:17 2022
; FORMAT={-:-/ absolute / inch / decimal}
; #@! TF.CreationDate,2022-12-08T15:19:17+02:00
; #@! TF.GenerationSoftware,Kicad,Pcbnew,(6.0.8)
; #@! TF.FileFunction,Plated,1,2,PTH
FMAT,2
INCH
; #@! TA.AperFunction,Plated,PTH,ViaDrill
T1C0.0157
; #@! TA.AperFunction,Plated,PTH,ComponentDrill
T2C0.0236
; #@! TA.AperFunction,Plated,PTH,ComponentDrill
T3C0.0433
; #@! TA.AperFunction,Plated,PTH,ComponentDrill
T4C0.0472
; #@! TA.AperFunction,Plated,PTH,ComponentDrill
T5C0.0709
; #@! TA.AperFunction,Plated,PTH,ComponentDrill
T6C0.0787
; #@! TA.AperFunction,Plated,PTH,ComponentDrill
T7C0.1024
%
G90
G05
T1
X9.027Y-5.4521
X9.5289Y-5.2651
X9.6766Y-5.8065
T3
X9.197Y-5.47
X9.2955Y-5.47
T5
X8.2676Y-5.3824
X8.2676Y-5.5383
T6
X8.2676Y-5.2264
X9.4994Y-4.8222
X9.685Y-4.8228
X9.872Y-4.8228
T7
X7.9179Y-5.824
X7.9179Y-6.1075
X7.9192Y-4.9455
X7.9192Y-5.2289
T2
G00X7.662Y-5.7
M15
G01X7.7014Y-5.7
M16
G05
G00X7.662Y-6.2315
M15
G01X7.7014Y-6.2315
M16
G05
G00X7.6633Y-4.8215
M15
G01X7.7026Y-4.8215
M16
G05
G00X7.6633Y-5.353
M15
G01X7.7026Y-5.353
M16
G05
G00X8.2076Y-5.8049
M15
G01X8.2076Y-5.8474
M16
G05
G00X8.2085Y-4.9244
M15
G01X8.2085Y-4.9669
M16
G05
G00X9.0983Y-5.8049
M15
G01X9.0983Y-5.8474
M16
G05
G00X9.0993Y-4.9244
M15
G01X9.0993Y-4.9669
M16
G05
T4
G00X9.9858Y-5.002
M15
G01X9.9858Y-4.9193
M16
G05
G00X9.9863Y-5.5531
M15
G01X9.9863Y-5.4705
M16
G05
G00X9.9863Y-6.1043
M15
G01X9.9863Y-6.0217
M16
G05
G00X10.1453Y-4.7754
M15
G01X10.0626Y-4.7754
M16
G05
G00X10.1457Y-5.3266
M15
G01X10.063Y-5.3266
M16
G05
G00X10.1457Y-5.8778
M15
G01X10.063Y-5.8778
M16
G05
G00X10.222Y-5.002
M15
G01X10.222Y-4.9193
M16
G05
G00X10.2225Y-5.5531
M15
G01X10.2225Y-5.4705
M16
G05
G00X10.2225Y-6.1043
M15
G01X10.2225Y-6.0217
M16
G05
T0
M30
