%TF.GenerationSoftware,KiCad,Pcbnew,7.0.2*%
%TF.CreationDate,2023-07-03T14:20:41+02:00*%
%TF.ProjectId,Temperature Controller,54656d70-6572-4617-9475-726520436f6e,V0*%
%TF.SameCoordinates,Original*%
%TF.FileFunction,Other,Comment*%
%FSLAX46Y46*%
G04 Gerber Fmt 4.6, Leading zero omitted, Abs format (unit mm)*
G04 Created by KiCad (PCBNEW 7.0.2) date 2023-07-03 14:20:41*
%MOMM*%
%LPD*%
G01*
G04 APERTURE LIST*
%ADD10C,0.150000*%
G04 APERTURE END LIST*
D10*
%TO.C,J1*%
X130795952Y-101844238D02*
X131605476Y-101844238D01*
X131605476Y-101844238D02*
X131700714Y-101891857D01*
X131700714Y-101891857D02*
X131748333Y-101939476D01*
X131748333Y-101939476D02*
X131795952Y-102034714D01*
X131795952Y-102034714D02*
X131795952Y-102177571D01*
X131795952Y-102177571D02*
X131748333Y-102272809D01*
X131415000Y-101844238D02*
X131462619Y-101939476D01*
X131462619Y-101939476D02*
X131462619Y-102129952D01*
X131462619Y-102129952D02*
X131415000Y-102225190D01*
X131415000Y-102225190D02*
X131367380Y-102272809D01*
X131367380Y-102272809D02*
X131272142Y-102320428D01*
X131272142Y-102320428D02*
X130986428Y-102320428D01*
X130986428Y-102320428D02*
X130891190Y-102272809D01*
X130891190Y-102272809D02*
X130843571Y-102225190D01*
X130843571Y-102225190D02*
X130795952Y-102129952D01*
X130795952Y-102129952D02*
X130795952Y-101939476D01*
X130795952Y-101939476D02*
X130843571Y-101844238D01*
X130795952Y-100939476D02*
X131605476Y-100939476D01*
X131605476Y-100939476D02*
X131700714Y-100987095D01*
X131700714Y-100987095D02*
X131748333Y-101034714D01*
X131748333Y-101034714D02*
X131795952Y-101129952D01*
X131795952Y-101129952D02*
X131795952Y-101272809D01*
X131795952Y-101272809D02*
X131748333Y-101368047D01*
X131415000Y-100939476D02*
X131462619Y-101034714D01*
X131462619Y-101034714D02*
X131462619Y-101225190D01*
X131462619Y-101225190D02*
X131415000Y-101320428D01*
X131415000Y-101320428D02*
X131367380Y-101368047D01*
X131367380Y-101368047D02*
X131272142Y-101415666D01*
X131272142Y-101415666D02*
X130986428Y-101415666D01*
X130986428Y-101415666D02*
X130891190Y-101368047D01*
X130891190Y-101368047D02*
X130843571Y-101320428D01*
X130843571Y-101320428D02*
X130795952Y-101225190D01*
X130795952Y-101225190D02*
X130795952Y-101034714D01*
X130795952Y-101034714D02*
X130843571Y-100939476D01*
X131415000Y-100082333D02*
X131462619Y-100177571D01*
X131462619Y-100177571D02*
X131462619Y-100368047D01*
X131462619Y-100368047D02*
X131415000Y-100463285D01*
X131415000Y-100463285D02*
X131319761Y-100510904D01*
X131319761Y-100510904D02*
X130938809Y-100510904D01*
X130938809Y-100510904D02*
X130843571Y-100463285D01*
X130843571Y-100463285D02*
X130795952Y-100368047D01*
X130795952Y-100368047D02*
X130795952Y-100177571D01*
X130795952Y-100177571D02*
X130843571Y-100082333D01*
X130843571Y-100082333D02*
X130938809Y-100034714D01*
X130938809Y-100034714D02*
X131034047Y-100034714D01*
X131034047Y-100034714D02*
X131129285Y-100510904D01*
X131462619Y-99082333D02*
X131462619Y-99653761D01*
X131462619Y-99368047D02*
X130462619Y-99368047D01*
X130462619Y-99368047D02*
X130605476Y-99463285D01*
X130605476Y-99463285D02*
X130700714Y-99558523D01*
X130700714Y-99558523D02*
X130748333Y-99653761D01*
X130462619Y-98177571D02*
X130462619Y-98653761D01*
X130462619Y-98653761D02*
X130938809Y-98701380D01*
X130938809Y-98701380D02*
X130891190Y-98653761D01*
X130891190Y-98653761D02*
X130843571Y-98558523D01*
X130843571Y-98558523D02*
X130843571Y-98320428D01*
X130843571Y-98320428D02*
X130891190Y-98225190D01*
X130891190Y-98225190D02*
X130938809Y-98177571D01*
X130938809Y-98177571D02*
X131034047Y-98129952D01*
X131034047Y-98129952D02*
X131272142Y-98129952D01*
X131272142Y-98129952D02*
X131367380Y-98177571D01*
X131367380Y-98177571D02*
X131415000Y-98225190D01*
X131415000Y-98225190D02*
X131462619Y-98320428D01*
X131462619Y-98320428D02*
X131462619Y-98558523D01*
X131462619Y-98558523D02*
X131415000Y-98653761D01*
X131415000Y-98653761D02*
X131367380Y-98701380D01*
X130795952Y-97272809D02*
X131462619Y-97272809D01*
X130415000Y-97510904D02*
X131129285Y-97748999D01*
X131129285Y-97748999D02*
X131129285Y-97129952D01*
%TO.C,J2*%
X121545952Y-101844238D02*
X122355476Y-101844238D01*
X122355476Y-101844238D02*
X122450714Y-101891857D01*
X122450714Y-101891857D02*
X122498333Y-101939476D01*
X122498333Y-101939476D02*
X122545952Y-102034714D01*
X122545952Y-102034714D02*
X122545952Y-102177571D01*
X122545952Y-102177571D02*
X122498333Y-102272809D01*
X122165000Y-101844238D02*
X122212619Y-101939476D01*
X122212619Y-101939476D02*
X122212619Y-102129952D01*
X122212619Y-102129952D02*
X122165000Y-102225190D01*
X122165000Y-102225190D02*
X122117380Y-102272809D01*
X122117380Y-102272809D02*
X122022142Y-102320428D01*
X122022142Y-102320428D02*
X121736428Y-102320428D01*
X121736428Y-102320428D02*
X121641190Y-102272809D01*
X121641190Y-102272809D02*
X121593571Y-102225190D01*
X121593571Y-102225190D02*
X121545952Y-102129952D01*
X121545952Y-102129952D02*
X121545952Y-101939476D01*
X121545952Y-101939476D02*
X121593571Y-101844238D01*
X121545952Y-100939476D02*
X122355476Y-100939476D01*
X122355476Y-100939476D02*
X122450714Y-100987095D01*
X122450714Y-100987095D02*
X122498333Y-101034714D01*
X122498333Y-101034714D02*
X122545952Y-101129952D01*
X122545952Y-101129952D02*
X122545952Y-101272809D01*
X122545952Y-101272809D02*
X122498333Y-101368047D01*
X122165000Y-100939476D02*
X122212619Y-101034714D01*
X122212619Y-101034714D02*
X122212619Y-101225190D01*
X122212619Y-101225190D02*
X122165000Y-101320428D01*
X122165000Y-101320428D02*
X122117380Y-101368047D01*
X122117380Y-101368047D02*
X122022142Y-101415666D01*
X122022142Y-101415666D02*
X121736428Y-101415666D01*
X121736428Y-101415666D02*
X121641190Y-101368047D01*
X121641190Y-101368047D02*
X121593571Y-101320428D01*
X121593571Y-101320428D02*
X121545952Y-101225190D01*
X121545952Y-101225190D02*
X121545952Y-101034714D01*
X121545952Y-101034714D02*
X121593571Y-100939476D01*
X122165000Y-100082333D02*
X122212619Y-100177571D01*
X122212619Y-100177571D02*
X122212619Y-100368047D01*
X122212619Y-100368047D02*
X122165000Y-100463285D01*
X122165000Y-100463285D02*
X122069761Y-100510904D01*
X122069761Y-100510904D02*
X121688809Y-100510904D01*
X121688809Y-100510904D02*
X121593571Y-100463285D01*
X121593571Y-100463285D02*
X121545952Y-100368047D01*
X121545952Y-100368047D02*
X121545952Y-100177571D01*
X121545952Y-100177571D02*
X121593571Y-100082333D01*
X121593571Y-100082333D02*
X121688809Y-100034714D01*
X121688809Y-100034714D02*
X121784047Y-100034714D01*
X121784047Y-100034714D02*
X121879285Y-100510904D01*
X122212619Y-99082333D02*
X122212619Y-99653761D01*
X122212619Y-99368047D02*
X121212619Y-99368047D01*
X121212619Y-99368047D02*
X121355476Y-99463285D01*
X121355476Y-99463285D02*
X121450714Y-99558523D01*
X121450714Y-99558523D02*
X121498333Y-99653761D01*
X121212619Y-98177571D02*
X121212619Y-98653761D01*
X121212619Y-98653761D02*
X121688809Y-98701380D01*
X121688809Y-98701380D02*
X121641190Y-98653761D01*
X121641190Y-98653761D02*
X121593571Y-98558523D01*
X121593571Y-98558523D02*
X121593571Y-98320428D01*
X121593571Y-98320428D02*
X121641190Y-98225190D01*
X121641190Y-98225190D02*
X121688809Y-98177571D01*
X121688809Y-98177571D02*
X121784047Y-98129952D01*
X121784047Y-98129952D02*
X122022142Y-98129952D01*
X122022142Y-98129952D02*
X122117380Y-98177571D01*
X122117380Y-98177571D02*
X122165000Y-98225190D01*
X122165000Y-98225190D02*
X122212619Y-98320428D01*
X122212619Y-98320428D02*
X122212619Y-98558523D01*
X122212619Y-98558523D02*
X122165000Y-98653761D01*
X122165000Y-98653761D02*
X122117380Y-98701380D01*
X121545952Y-97272809D02*
X122212619Y-97272809D01*
X121165000Y-97510904D02*
X121879285Y-97748999D01*
X121879285Y-97748999D02*
X121879285Y-97129952D01*
%TO.C,J5*%
X156881952Y-96211238D02*
X157691476Y-96211238D01*
X157691476Y-96211238D02*
X157786714Y-96258857D01*
X157786714Y-96258857D02*
X157834333Y-96306476D01*
X157834333Y-96306476D02*
X157881952Y-96401714D01*
X157881952Y-96401714D02*
X157881952Y-96544571D01*
X157881952Y-96544571D02*
X157834333Y-96639809D01*
X157501000Y-96211238D02*
X157548619Y-96306476D01*
X157548619Y-96306476D02*
X157548619Y-96496952D01*
X157548619Y-96496952D02*
X157501000Y-96592190D01*
X157501000Y-96592190D02*
X157453380Y-96639809D01*
X157453380Y-96639809D02*
X157358142Y-96687428D01*
X157358142Y-96687428D02*
X157072428Y-96687428D01*
X157072428Y-96687428D02*
X156977190Y-96639809D01*
X156977190Y-96639809D02*
X156929571Y-96592190D01*
X156929571Y-96592190D02*
X156881952Y-96496952D01*
X156881952Y-96496952D02*
X156881952Y-96306476D01*
X156881952Y-96306476D02*
X156929571Y-96211238D01*
X156881952Y-95306476D02*
X157691476Y-95306476D01*
X157691476Y-95306476D02*
X157786714Y-95354095D01*
X157786714Y-95354095D02*
X157834333Y-95401714D01*
X157834333Y-95401714D02*
X157881952Y-95496952D01*
X157881952Y-95496952D02*
X157881952Y-95639809D01*
X157881952Y-95639809D02*
X157834333Y-95735047D01*
X157501000Y-95306476D02*
X157548619Y-95401714D01*
X157548619Y-95401714D02*
X157548619Y-95592190D01*
X157548619Y-95592190D02*
X157501000Y-95687428D01*
X157501000Y-95687428D02*
X157453380Y-95735047D01*
X157453380Y-95735047D02*
X157358142Y-95782666D01*
X157358142Y-95782666D02*
X157072428Y-95782666D01*
X157072428Y-95782666D02*
X156977190Y-95735047D01*
X156977190Y-95735047D02*
X156929571Y-95687428D01*
X156929571Y-95687428D02*
X156881952Y-95592190D01*
X156881952Y-95592190D02*
X156881952Y-95401714D01*
X156881952Y-95401714D02*
X156929571Y-95306476D01*
X157501000Y-94449333D02*
X157548619Y-94544571D01*
X157548619Y-94544571D02*
X157548619Y-94735047D01*
X157548619Y-94735047D02*
X157501000Y-94830285D01*
X157501000Y-94830285D02*
X157405761Y-94877904D01*
X157405761Y-94877904D02*
X157024809Y-94877904D01*
X157024809Y-94877904D02*
X156929571Y-94830285D01*
X156929571Y-94830285D02*
X156881952Y-94735047D01*
X156881952Y-94735047D02*
X156881952Y-94544571D01*
X156881952Y-94544571D02*
X156929571Y-94449333D01*
X156929571Y-94449333D02*
X157024809Y-94401714D01*
X157024809Y-94401714D02*
X157120047Y-94401714D01*
X157120047Y-94401714D02*
X157215285Y-94877904D01*
X157548619Y-93449333D02*
X157548619Y-94020761D01*
X157548619Y-93735047D02*
X156548619Y-93735047D01*
X156548619Y-93735047D02*
X156691476Y-93830285D01*
X156691476Y-93830285D02*
X156786714Y-93925523D01*
X156786714Y-93925523D02*
X156834333Y-94020761D01*
X156643857Y-93068380D02*
X156596238Y-93020761D01*
X156596238Y-93020761D02*
X156548619Y-92925523D01*
X156548619Y-92925523D02*
X156548619Y-92687428D01*
X156548619Y-92687428D02*
X156596238Y-92592190D01*
X156596238Y-92592190D02*
X156643857Y-92544571D01*
X156643857Y-92544571D02*
X156739095Y-92496952D01*
X156739095Y-92496952D02*
X156834333Y-92496952D01*
X156834333Y-92496952D02*
X156977190Y-92544571D01*
X156977190Y-92544571D02*
X157548619Y-93115999D01*
X157548619Y-93115999D02*
X157548619Y-92496952D01*
X156548619Y-92163618D02*
X156548619Y-91496952D01*
X156548619Y-91496952D02*
X157548619Y-91925523D01*
%TO.C,J3*%
X112092952Y-101844238D02*
X112902476Y-101844238D01*
X112902476Y-101844238D02*
X112997714Y-101891857D01*
X112997714Y-101891857D02*
X113045333Y-101939476D01*
X113045333Y-101939476D02*
X113092952Y-102034714D01*
X113092952Y-102034714D02*
X113092952Y-102177571D01*
X113092952Y-102177571D02*
X113045333Y-102272809D01*
X112712000Y-101844238D02*
X112759619Y-101939476D01*
X112759619Y-101939476D02*
X112759619Y-102129952D01*
X112759619Y-102129952D02*
X112712000Y-102225190D01*
X112712000Y-102225190D02*
X112664380Y-102272809D01*
X112664380Y-102272809D02*
X112569142Y-102320428D01*
X112569142Y-102320428D02*
X112283428Y-102320428D01*
X112283428Y-102320428D02*
X112188190Y-102272809D01*
X112188190Y-102272809D02*
X112140571Y-102225190D01*
X112140571Y-102225190D02*
X112092952Y-102129952D01*
X112092952Y-102129952D02*
X112092952Y-101939476D01*
X112092952Y-101939476D02*
X112140571Y-101844238D01*
X112092952Y-100939476D02*
X112902476Y-100939476D01*
X112902476Y-100939476D02*
X112997714Y-100987095D01*
X112997714Y-100987095D02*
X113045333Y-101034714D01*
X113045333Y-101034714D02*
X113092952Y-101129952D01*
X113092952Y-101129952D02*
X113092952Y-101272809D01*
X113092952Y-101272809D02*
X113045333Y-101368047D01*
X112712000Y-100939476D02*
X112759619Y-101034714D01*
X112759619Y-101034714D02*
X112759619Y-101225190D01*
X112759619Y-101225190D02*
X112712000Y-101320428D01*
X112712000Y-101320428D02*
X112664380Y-101368047D01*
X112664380Y-101368047D02*
X112569142Y-101415666D01*
X112569142Y-101415666D02*
X112283428Y-101415666D01*
X112283428Y-101415666D02*
X112188190Y-101368047D01*
X112188190Y-101368047D02*
X112140571Y-101320428D01*
X112140571Y-101320428D02*
X112092952Y-101225190D01*
X112092952Y-101225190D02*
X112092952Y-101034714D01*
X112092952Y-101034714D02*
X112140571Y-100939476D01*
X112712000Y-100082333D02*
X112759619Y-100177571D01*
X112759619Y-100177571D02*
X112759619Y-100368047D01*
X112759619Y-100368047D02*
X112712000Y-100463285D01*
X112712000Y-100463285D02*
X112616761Y-100510904D01*
X112616761Y-100510904D02*
X112235809Y-100510904D01*
X112235809Y-100510904D02*
X112140571Y-100463285D01*
X112140571Y-100463285D02*
X112092952Y-100368047D01*
X112092952Y-100368047D02*
X112092952Y-100177571D01*
X112092952Y-100177571D02*
X112140571Y-100082333D01*
X112140571Y-100082333D02*
X112235809Y-100034714D01*
X112235809Y-100034714D02*
X112331047Y-100034714D01*
X112331047Y-100034714D02*
X112426285Y-100510904D01*
X112759619Y-99082333D02*
X112759619Y-99653761D01*
X112759619Y-99368047D02*
X111759619Y-99368047D01*
X111759619Y-99368047D02*
X111902476Y-99463285D01*
X111902476Y-99463285D02*
X111997714Y-99558523D01*
X111997714Y-99558523D02*
X112045333Y-99653761D01*
X111759619Y-98177571D02*
X111759619Y-98653761D01*
X111759619Y-98653761D02*
X112235809Y-98701380D01*
X112235809Y-98701380D02*
X112188190Y-98653761D01*
X112188190Y-98653761D02*
X112140571Y-98558523D01*
X112140571Y-98558523D02*
X112140571Y-98320428D01*
X112140571Y-98320428D02*
X112188190Y-98225190D01*
X112188190Y-98225190D02*
X112235809Y-98177571D01*
X112235809Y-98177571D02*
X112331047Y-98129952D01*
X112331047Y-98129952D02*
X112569142Y-98129952D01*
X112569142Y-98129952D02*
X112664380Y-98177571D01*
X112664380Y-98177571D02*
X112712000Y-98225190D01*
X112712000Y-98225190D02*
X112759619Y-98320428D01*
X112759619Y-98320428D02*
X112759619Y-98558523D01*
X112759619Y-98558523D02*
X112712000Y-98653761D01*
X112712000Y-98653761D02*
X112664380Y-98701380D01*
X112092952Y-97272809D02*
X112759619Y-97272809D01*
X111712000Y-97510904D02*
X112426285Y-97748999D01*
X112426285Y-97748999D02*
X112426285Y-97129952D01*
%TO.C,J1*%
G36*
X129300000Y-96149000D02*
G01*
X128700000Y-96149000D01*
X128700000Y-98149000D01*
X128500000Y-98149000D01*
X128500000Y-95949000D01*
X129300000Y-95949000D01*
X129300000Y-96149000D01*
G37*
G36*
X128700000Y-103449000D02*
G01*
X129300000Y-103449000D01*
X129300000Y-103649000D01*
X128500000Y-103649000D01*
X128500000Y-101449000D01*
X128700000Y-101449000D01*
X128700000Y-103449000D01*
G37*
G36*
X134400000Y-103649000D02*
G01*
X129800000Y-103649000D01*
X129800000Y-103549000D01*
X129800000Y-103449000D01*
X134200000Y-103449000D01*
X134200000Y-96249000D01*
X134200000Y-96149000D01*
X129800000Y-96149000D01*
X129800000Y-95949000D01*
X134400000Y-95949000D01*
X134400000Y-103649000D01*
G37*
%TO.C,J2*%
G36*
X120050000Y-96149000D02*
G01*
X119450000Y-96149000D01*
X119450000Y-98149000D01*
X119250000Y-98149000D01*
X119250000Y-95949000D01*
X120050000Y-95949000D01*
X120050000Y-96149000D01*
G37*
G36*
X119450000Y-103449000D02*
G01*
X120050000Y-103449000D01*
X120050000Y-103649000D01*
X119250000Y-103649000D01*
X119250000Y-101449000D01*
X119450000Y-101449000D01*
X119450000Y-103449000D01*
G37*
G36*
X125150000Y-103649000D02*
G01*
X120550000Y-103649000D01*
X120550000Y-103549000D01*
X120550000Y-103449000D01*
X124950000Y-103449000D01*
X124950000Y-96249000D01*
X124950000Y-96149000D01*
X120550000Y-96149000D01*
X120550000Y-95949000D01*
X125150000Y-95949000D01*
X125150000Y-103649000D01*
G37*
%TO.C,J3*%
G36*
X110597000Y-96149000D02*
G01*
X109997000Y-96149000D01*
X109997000Y-98149000D01*
X109797000Y-98149000D01*
X109797000Y-95949000D01*
X110597000Y-95949000D01*
X110597000Y-96149000D01*
G37*
G36*
X109997000Y-103449000D02*
G01*
X110597000Y-103449000D01*
X110597000Y-103649000D01*
X109797000Y-103649000D01*
X109797000Y-101449000D01*
X109997000Y-101449000D01*
X109997000Y-103449000D01*
G37*
G36*
X115697000Y-103649000D02*
G01*
X111097000Y-103649000D01*
X111097000Y-103549000D01*
X111097000Y-103449000D01*
X115497000Y-103449000D01*
X115497000Y-96249000D01*
X115497000Y-96149000D01*
X111097000Y-96149000D01*
X111097000Y-95949000D01*
X115697000Y-95949000D01*
X115697000Y-103649000D01*
G37*
%TD*%
M02*
