M48
; DRILL file {KiCad 7.0.2} date Mon Jul  3 14:20:41 2023
; FORMAT={-:-/ absolute / inch / decimal}
; #@! TF.CreationDate,2023-07-03T14:20:41+02:00
; #@! TF.GenerationSoftware,Kicad,Pcbnew,7.0.2
; #@! TF.FileFunction,Plated,1,2,PTH
FMAT,2
INCH
; #@! TA.AperFunction,Plated,PTH,ViaDrill
T1C0.0157
; #@! TA.AperFunction,Plated,PTH,ComponentDrill
T2C0.0197
; #@! TA.AperFunction,Plated,PTH,ComponentDrill
T3C0.0394
; #@! TA.AperFunction,Plated,PTH,ComponentDrill
T4C0.0433
; #@! TA.AperFunction,Plated,PTH,ComponentDrill
T5C0.0472
; #@! TA.AperFunction,Plated,PTH,ComponentDrill
T6C0.0512
; #@! TA.AperFunction,Plated,PTH,ComponentDrill
T7C0.0520
%
G90
G05
T1
X5.2239Y-3.3538
X5.4636Y-3.4539
X5.5413Y-3.6319
X5.6483Y-3.793
T2
X4.5768Y-3.4843
X4.8327Y-3.4744
X5.748Y-2.2894
X5.748Y-2.5886
X5.748Y-2.8327
X6.0039Y-3.2579
X6.063Y-2.4902
T3
X4.1646Y-2.2374
X4.1646Y-2.3374
X4.1646Y-2.4374
X4.1646Y-2.5374
X4.1646Y-2.6374
X4.1646Y-2.7374
X4.1646Y-2.8374
X4.1646Y-2.9374
X4.1646Y-3.0374
X4.1646Y-3.1374
X4.1646Y-3.2374
X4.1646Y-3.3374
X4.1646Y-3.4374
X4.1646Y-3.5374
X4.1646Y-3.6374
X4.1646Y-3.7374
X4.1646Y-3.8374
X4.1646Y-3.9374
X4.1646Y-4.0374
X4.5177Y-3.1693
X4.9902Y-3.1693
X6.4646Y-2.2374
X6.4646Y-2.3374
X6.4646Y-2.4374
X6.4646Y-2.5374
X6.4646Y-2.6374
X6.4646Y-2.7374
X6.4646Y-2.8374
X6.4646Y-2.9374
X6.4646Y-3.0374
X6.4646Y-3.1374
X6.4646Y-3.2374
X6.4646Y-3.3374
X6.4646Y-3.4374
X6.4646Y-3.5374
X6.4646Y-3.6374
X6.4646Y-3.7374
X6.4646Y-3.8374
X6.4646Y-3.9374
X6.4646Y-4.0374
T4
X4.4211Y-3.8779
X4.4211Y-3.9764
X4.7933Y-3.8779
X4.7933Y-3.9764
X5.1575Y-3.8779
X5.1575Y-3.9764
T6
X4.5157Y-2.687
X4.752Y-3.2461
X4.9902Y-2.689
T7
X4.5552Y-2.2315
X4.752Y-2.2315
X4.9489Y-2.2315
T5
G00X6.0506Y-3.5872
M15
G01X6.1332Y-3.5872
M16
G05
G00X6.0506Y-3.8235
M15
G01X6.1332Y-3.8235
M16
G05
G00X6.2771Y-3.7467
M15
G01X6.2771Y-3.664
M16
G05
T0
M30
