%TF.GenerationSoftware,KiCad,Pcbnew,7.0.2*%
%TF.CreationDate,2023-07-03T14:20:41+02:00*%
%TF.ProjectId,Temperature Controller,54656d70-6572-4617-9475-726520436f6e,V0*%
%TF.SameCoordinates,Original*%
%TF.FileFunction,Paste,Top*%
%TF.FilePolarity,Positive*%
%FSLAX46Y46*%
G04 Gerber Fmt 4.6, Leading zero omitted, Abs format (unit mm)*
G04 Created by KiCad (PCBNEW 7.0.2) date 2023-07-03 14:20:41*
%MOMM*%
%LPD*%
G01*
G04 APERTURE LIST*
G04 Aperture macros list*
%AMRoundRect*
0 Rectangle with rounded corners*
0 $1 Rounding radius*
0 $2 $3 $4 $5 $6 $7 $8 $9 X,Y pos of 4 corners*
0 Add a 4 corners polygon primitive as box body*
4,1,4,$2,$3,$4,$5,$6,$7,$8,$9,$2,$3,0*
0 Add four circle primitives for the rounded corners*
1,1,$1+$1,$2,$3*
1,1,$1+$1,$4,$5*
1,1,$1+$1,$6,$7*
1,1,$1+$1,$8,$9*
0 Add four rect primitives between the rounded corners*
20,1,$1+$1,$2,$3,$4,$5,0*
20,1,$1+$1,$4,$5,$6,$7,0*
20,1,$1+$1,$6,$7,$8,$9,0*
20,1,$1+$1,$8,$9,$2,$3,0*%
G04 Aperture macros list end*
%ADD10RoundRect,0.200000X-0.275000X0.200000X-0.275000X-0.200000X0.275000X-0.200000X0.275000X0.200000X0*%
%ADD11RoundRect,0.225000X0.375000X-0.225000X0.375000X0.225000X-0.375000X0.225000X-0.375000X-0.225000X0*%
%ADD12RoundRect,0.200000X-0.200000X-0.275000X0.200000X-0.275000X0.200000X0.275000X-0.200000X0.275000X0*%
%ADD13C,1.800000*%
%ADD14RoundRect,0.218750X-0.256250X0.218750X-0.256250X-0.218750X0.256250X-0.218750X0.256250X0.218750X0*%
%ADD15R,0.450000X1.450000*%
%ADD16RoundRect,0.200000X0.275000X-0.200000X0.275000X0.200000X-0.275000X0.200000X-0.275000X-0.200000X0*%
%ADD17O,4.000000X1.800000*%
%ADD18O,1.800000X4.000000*%
%ADD19RoundRect,0.150000X-0.150000X0.587500X-0.150000X-0.587500X0.150000X-0.587500X0.150000X0.587500X0*%
%ADD20RoundRect,0.150000X0.587500X0.150000X-0.587500X0.150000X-0.587500X-0.150000X0.587500X-0.150000X0*%
%ADD21RoundRect,0.225000X-0.250000X0.225000X-0.250000X-0.225000X0.250000X-0.225000X0.250000X0.225000X0*%
G04 APERTURE END LIST*
D10*
%TO.C,R8*%
X139013709Y-93072122D03*
X139013709Y-94722122D03*
%TD*%
D11*
%TO.C,D1*%
X138250000Y-70150000D03*
X138250000Y-66850000D03*
%TD*%
D10*
%TO.C,R6*%
X109139148Y-92389332D03*
X109139148Y-94039332D03*
%TD*%
%TO.C,R7*%
X145214051Y-90300000D03*
X145214051Y-91950000D03*
%TD*%
%TO.C,R5*%
X146964051Y-90300000D03*
X146964051Y-91950000D03*
%TD*%
%TO.C,R1*%
X140525533Y-86081568D03*
X140525533Y-87731568D03*
%TD*%
D12*
%TO.C,R3*%
X144292033Y-87740767D03*
X145942033Y-87740767D03*
%TD*%
D13*
%TO.C,J1*%
X131000000Y-98498000D03*
X131000000Y-101000000D03*
%TD*%
%TO.C,J2*%
X121750000Y-98498000D03*
X121750000Y-101000000D03*
%TD*%
D10*
%TO.C,R4*%
X129500000Y-88175000D03*
X129500000Y-89825000D03*
%TD*%
D14*
%TO.C,D2*%
X135932172Y-66829415D03*
X135932172Y-68404415D03*
%TD*%
D15*
%TO.C,U1*%
X143059200Y-90312982D03*
X142409200Y-90312982D03*
X141759200Y-90312982D03*
X141109200Y-90312982D03*
X141109200Y-94712982D03*
X141759200Y-94712982D03*
X142409200Y-94712982D03*
X143059200Y-94712982D03*
%TD*%
D10*
%TO.C,R13*%
X143405567Y-99498901D03*
X143405567Y-101148901D03*
%TD*%
%TO.C,R12*%
X141489776Y-61632594D03*
X141489776Y-63282594D03*
%TD*%
D16*
%TO.C,R11*%
X133750000Y-70052165D03*
X133750000Y-68402165D03*
%TD*%
D17*
%TO.C,J5*%
X154734000Y-91116000D03*
X154734000Y-97116000D03*
D18*
X159438000Y-94116000D03*
%TD*%
D19*
%TO.C,Q3*%
X139200000Y-61618567D03*
X137300000Y-61618567D03*
X138250000Y-63493567D03*
%TD*%
D20*
%TO.C,U2*%
X141127500Y-101149182D03*
X141127500Y-99249182D03*
X139252500Y-100199182D03*
%TD*%
D21*
%TO.C,C4*%
X135918333Y-70057477D03*
X135918333Y-71607477D03*
%TD*%
D10*
%TO.C,R2*%
X142402569Y-86081568D03*
X142402569Y-87731568D03*
%TD*%
D13*
%TO.C,J3*%
X112297000Y-98498000D03*
X112297000Y-101000000D03*
%TD*%
D16*
%TO.C,R14*%
X145145567Y-101148901D03*
X145145567Y-99498901D03*
%TD*%
M02*
