%TF.GenerationSoftware,KiCad,Pcbnew,(6.0.8)*%
%TF.CreationDate,2022-12-08T15:17:31+02:00*%
%TF.ProjectId,Temperature Controller,54656d70-6572-4617-9475-726520436f6e,rev?*%
%TF.SameCoordinates,Original*%
%TF.FileFunction,Soldermask,Top*%
%TF.FilePolarity,Negative*%
%FSLAX46Y46*%
G04 Gerber Fmt 4.6, Leading zero omitted, Abs format (unit mm)*
G04 Created by KiCad (PCBNEW (6.0.8)) date 2022-12-08 15:17:31*
%MOMM*%
%LPD*%
G01*
G04 APERTURE LIST*
G04 Aperture macros list*
%AMRoundRect*
0 Rectangle with rounded corners*
0 $1 Rounding radius*
0 $2 $3 $4 $5 $6 $7 $8 $9 X,Y pos of 4 corners*
0 Add a 4 corners polygon primitive as box body*
4,1,4,$2,$3,$4,$5,$6,$7,$8,$9,$2,$3,0*
0 Add four circle primitives for the rounded corners*
1,1,$1+$1,$2,$3*
1,1,$1+$1,$4,$5*
1,1,$1+$1,$6,$7*
1,1,$1+$1,$8,$9*
0 Add four rect primitives between the rounded corners*
20,1,$1+$1,$2,$3,$4,$5,0*
20,1,$1+$1,$4,$5,$6,$7,0*
20,1,$1+$1,$6,$7,$8,$9,0*
20,1,$1+$1,$8,$9,$2,$3,0*%
G04 Aperture macros list end*
%ADD10RoundRect,0.250000X-0.450000X0.262500X-0.450000X-0.262500X0.450000X-0.262500X0.450000X0.262500X0*%
%ADD11O,4.000000X1.800000*%
%ADD12O,1.800000X4.000000*%
%ADD13R,2.800000X1.300000*%
%ADD14R,6.500000X6.000000*%
%ADD15RoundRect,0.250000X-0.262500X-0.450000X0.262500X-0.450000X0.262500X0.450000X-0.262500X0.450000X0*%
%ADD16C,2.000000*%
%ADD17O,2.045000X0.588000*%
%ADD18C,1.500000*%
%ADD19RoundRect,0.150000X0.587500X0.150000X-0.587500X0.150000X-0.587500X-0.150000X0.587500X-0.150000X0*%
%ADD20RoundRect,0.250000X0.475000X-0.250000X0.475000X0.250000X-0.475000X0.250000X-0.475000X-0.250000X0*%
%ADD21RoundRect,0.250000X0.450000X-0.262500X0.450000X0.262500X-0.450000X0.262500X-0.450000X-0.262500X0*%
%ADD22C,1.800000*%
%ADD23RoundRect,0.250000X-0.475000X0.250000X-0.475000X-0.250000X0.475000X-0.250000X0.475000X0.250000X0*%
%ADD24RoundRect,0.250000X0.262500X0.450000X-0.262500X0.450000X-0.262500X-0.450000X0.262500X-0.450000X0*%
%ADD25RoundRect,0.250000X0.250000X0.475000X-0.250000X0.475000X-0.250000X-0.475000X0.250000X-0.475000X0*%
%ADD26R,1.700000X1.700000*%
%ADD27O,1.700000X1.700000*%
G04 APERTURE END LIST*
D10*
%TO.C,R1*%
X140750000Y-94587500D03*
X140750000Y-96412500D03*
%TD*%
D11*
%TO.C,J5*%
X146266000Y-64134000D03*
X146266000Y-58134000D03*
D12*
X141562000Y-61134000D03*
%TD*%
D13*
%TO.C,Q2*%
X146277123Y-74521124D03*
D14*
X139693123Y-72248124D03*
D13*
X146277123Y-69975124D03*
%TD*%
D15*
%TO.C,R10*%
X146175000Y-78425278D03*
X148000000Y-78425278D03*
%TD*%
D16*
%TO.C,TP5*%
X119250000Y-63750000D03*
%TD*%
D17*
%TO.C,U1*%
X149228000Y-98845000D03*
X149228000Y-100115000D03*
X149228000Y-101385000D03*
X149228000Y-102655000D03*
X154772000Y-102655000D03*
X154772000Y-101385000D03*
X154772000Y-100115000D03*
X154772000Y-98845000D03*
%TD*%
D18*
%TO.C,TP9*%
X143000000Y-99500000D03*
%TD*%
D16*
%TO.C,TP2*%
X119250000Y-55979721D03*
%TD*%
%TO.C,TP7*%
X119250000Y-71250000D03*
%TD*%
D19*
%TO.C,Q1*%
X152852302Y-79370142D03*
X152852302Y-77470142D03*
X150977302Y-78420142D03*
%TD*%
D10*
%TO.C,R7*%
X152500000Y-70000000D03*
X152500000Y-71825000D03*
%TD*%
D20*
%TO.C,C2*%
X158750000Y-98700000D03*
X158750000Y-96800000D03*
%TD*%
D21*
%TO.C,R3*%
X145250000Y-96412500D03*
X145250000Y-94587500D03*
%TD*%
D22*
%TO.C,J4*%
X128556999Y-72179000D03*
X128556999Y-74681000D03*
%TD*%
D21*
%TO.C,R6*%
X111389668Y-91955995D03*
X111389668Y-90130995D03*
%TD*%
D18*
%TO.C,TP8*%
X138250000Y-99500000D03*
%TD*%
D23*
%TO.C,C3*%
X150000000Y-69982500D03*
X150000000Y-71882500D03*
%TD*%
D10*
%TO.C,R8*%
X155500000Y-70000000D03*
X155500000Y-71825000D03*
%TD*%
D16*
%TO.C,TP6*%
X112250000Y-71250000D03*
%TD*%
%TO.C,TP4*%
X112250000Y-63750000D03*
%TD*%
%TO.C,TP1*%
X112250000Y-55979721D03*
%TD*%
D10*
%TO.C,R2*%
X143000000Y-94587500D03*
X143000000Y-96412500D03*
%TD*%
D16*
%TO.C,TP3*%
X126250000Y-56000000D03*
%TD*%
D10*
%TO.C,R5*%
X146175037Y-99837500D03*
X146175037Y-101662500D03*
%TD*%
D21*
%TO.C,R9*%
X158000000Y-71825000D03*
X158000000Y-70000000D03*
%TD*%
D22*
%TO.C,J3*%
X128547000Y-80929000D03*
X128547000Y-83431000D03*
%TD*%
%TO.C,J1*%
X128547000Y-98929000D03*
X128547000Y-101431000D03*
%TD*%
D24*
%TO.C,R4*%
X138500000Y-90752828D03*
X136675000Y-90752828D03*
%TD*%
D25*
%TO.C,C1*%
X154752991Y-94888549D03*
X152852991Y-94888549D03*
%TD*%
D22*
%TO.C,J2*%
X128556999Y-89929000D03*
X128556999Y-92431000D03*
%TD*%
D26*
%TO.C,J7*%
X105780000Y-56830000D03*
D27*
X105780000Y-59370000D03*
X105780000Y-61910000D03*
X105780000Y-64450000D03*
X105780000Y-66990000D03*
X105780000Y-69530000D03*
X105780000Y-72070000D03*
X105780000Y-74610000D03*
X105780000Y-77150000D03*
X105780000Y-79690000D03*
X105780000Y-82230000D03*
X105780000Y-84770000D03*
X105780000Y-87310000D03*
X105780000Y-89850000D03*
X105780000Y-92390000D03*
X105780000Y-94930000D03*
X105780000Y-97470000D03*
X105780000Y-100010000D03*
X105780000Y-102550000D03*
%TD*%
D26*
%TO.C,J6*%
X164200000Y-56830000D03*
D27*
X164200000Y-59370000D03*
X164200000Y-61910000D03*
X164200000Y-64450000D03*
X164200000Y-66990000D03*
X164200000Y-69530000D03*
X164200000Y-72070000D03*
X164200000Y-74610000D03*
X164200000Y-77150000D03*
X164200000Y-79690000D03*
X164200000Y-82230000D03*
X164200000Y-84770000D03*
X164200000Y-87310000D03*
X164200000Y-89850000D03*
X164200000Y-92390000D03*
X164200000Y-94930000D03*
X164200000Y-97470000D03*
X164200000Y-100010000D03*
X164200000Y-102550000D03*
%TD*%
M02*
