%TF.GenerationSoftware,KiCad,Pcbnew,(6.0.8)*%
%TF.CreationDate,2022-12-08T15:17:31+02:00*%
%TF.ProjectId,Temperature Controller,54656d70-6572-4617-9475-726520436f6e,rev?*%
%TF.SameCoordinates,Original*%
%TF.FileFunction,Legend,Bot*%
%TF.FilePolarity,Positive*%
%FSLAX46Y46*%
G04 Gerber Fmt 4.6, Leading zero omitted, Abs format (unit mm)*
G04 Created by KiCad (PCBNEW (6.0.8)) date 2022-12-08 15:17:31*
%MOMM*%
%LPD*%
G01*
G04 APERTURE LIST*
%ADD10C,0.150000*%
%ADD11C,0.120000*%
%ADD12O,4.000000X1.800000*%
%ADD13O,1.800000X4.000000*%
%ADD14C,2.000000*%
%ADD15C,1.800000*%
%ADD16R,1.700000X1.700000*%
%ADD17O,1.700000X1.700000*%
G04 APERTURE END LIST*
D10*
X102950238Y-95624761D02*
X102902619Y-95481904D01*
X102902619Y-95243809D01*
X102950238Y-95148571D01*
X102997857Y-95100952D01*
X103093095Y-95053333D01*
X103188333Y-95053333D01*
X103283571Y-95100952D01*
X103331190Y-95148571D01*
X103378809Y-95243809D01*
X103426428Y-95434285D01*
X103474047Y-95529523D01*
X103521666Y-95577142D01*
X103616904Y-95624761D01*
X103712142Y-95624761D01*
X103807380Y-95577142D01*
X103855000Y-95529523D01*
X103902619Y-95434285D01*
X103902619Y-95196190D01*
X103855000Y-95053333D01*
X103902619Y-94767619D02*
X103902619Y-94196190D01*
X102902619Y-94481904D02*
X103902619Y-94481904D01*
X102902619Y-93862857D02*
X103902619Y-93862857D01*
X103188333Y-93529523D01*
X103902619Y-93196190D01*
X102902619Y-93196190D01*
X103902619Y-92815238D02*
X103902619Y-92196190D01*
X103521666Y-92529523D01*
X103521666Y-92386666D01*
X103474047Y-92291428D01*
X103426428Y-92243809D01*
X103331190Y-92196190D01*
X103093095Y-92196190D01*
X102997857Y-92243809D01*
X102950238Y-92291428D01*
X102902619Y-92386666D01*
X102902619Y-92672380D01*
X102950238Y-92767619D01*
X102997857Y-92815238D01*
X103807380Y-91815238D02*
X103855000Y-91767619D01*
X103902619Y-91672380D01*
X103902619Y-91434285D01*
X103855000Y-91339047D01*
X103807380Y-91291428D01*
X103712142Y-91243809D01*
X103616904Y-91243809D01*
X103474047Y-91291428D01*
X102902619Y-91862857D01*
X102902619Y-91243809D01*
X102902619Y-90053333D02*
X103902619Y-90053333D01*
X102902619Y-89481904D01*
X103902619Y-89481904D01*
X103569285Y-88577142D02*
X102902619Y-88577142D01*
X103569285Y-89005714D02*
X103045476Y-89005714D01*
X102950238Y-88958095D01*
X102902619Y-88862857D01*
X102902619Y-88720000D01*
X102950238Y-88624761D01*
X102997857Y-88577142D01*
X102950238Y-87672380D02*
X102902619Y-87767619D01*
X102902619Y-87958095D01*
X102950238Y-88053333D01*
X102997857Y-88100952D01*
X103093095Y-88148571D01*
X103378809Y-88148571D01*
X103474047Y-88100952D01*
X103521666Y-88053333D01*
X103569285Y-87958095D01*
X103569285Y-87767619D01*
X103521666Y-87672380D01*
X102902619Y-87100952D02*
X102950238Y-87196190D01*
X103045476Y-87243809D01*
X103902619Y-87243809D01*
X102950238Y-86339047D02*
X102902619Y-86434285D01*
X102902619Y-86624761D01*
X102950238Y-86720000D01*
X103045476Y-86767619D01*
X103426428Y-86767619D01*
X103521666Y-86720000D01*
X103569285Y-86624761D01*
X103569285Y-86434285D01*
X103521666Y-86339047D01*
X103426428Y-86291428D01*
X103331190Y-86291428D01*
X103235952Y-86767619D01*
X102902619Y-85720000D02*
X102950238Y-85815238D01*
X102997857Y-85862857D01*
X103093095Y-85910476D01*
X103378809Y-85910476D01*
X103474047Y-85862857D01*
X103521666Y-85815238D01*
X103569285Y-85720000D01*
X103569285Y-85577142D01*
X103521666Y-85481904D01*
X103474047Y-85434285D01*
X103378809Y-85386666D01*
X103093095Y-85386666D01*
X102997857Y-85434285D01*
X102950238Y-85481904D01*
X102902619Y-85577142D01*
X102902619Y-85720000D01*
X103283571Y-84958095D02*
X103283571Y-84196190D01*
X103902619Y-83291428D02*
X103902619Y-83481904D01*
X103855000Y-83577142D01*
X103807380Y-83624761D01*
X103664523Y-83720000D01*
X103474047Y-83767619D01*
X103093095Y-83767619D01*
X102997857Y-83720000D01*
X102950238Y-83672380D01*
X102902619Y-83577142D01*
X102902619Y-83386666D01*
X102950238Y-83291428D01*
X102997857Y-83243809D01*
X103093095Y-83196190D01*
X103331190Y-83196190D01*
X103426428Y-83243809D01*
X103474047Y-83291428D01*
X103521666Y-83386666D01*
X103521666Y-83577142D01*
X103474047Y-83672380D01*
X103426428Y-83720000D01*
X103331190Y-83767619D01*
X103569285Y-82339047D02*
X102902619Y-82339047D01*
X103950238Y-82577142D02*
X103235952Y-82815238D01*
X103235952Y-82196190D01*
X102902619Y-81053333D02*
X103902619Y-81053333D01*
X103426428Y-81053333D02*
X103426428Y-80481904D01*
X102902619Y-80481904D02*
X103902619Y-80481904D01*
X102902619Y-79577142D02*
X103426428Y-79577142D01*
X103521666Y-79624761D01*
X103569285Y-79720000D01*
X103569285Y-79910476D01*
X103521666Y-80005714D01*
X102950238Y-79577142D02*
X102902619Y-79672380D01*
X102902619Y-79910476D01*
X102950238Y-80005714D01*
X103045476Y-80053333D01*
X103140714Y-80053333D01*
X103235952Y-80005714D01*
X103283571Y-79910476D01*
X103283571Y-79672380D01*
X103331190Y-79577142D01*
X103569285Y-79243809D02*
X103569285Y-78862857D01*
X103902619Y-79100952D02*
X103045476Y-79100952D01*
X102950238Y-79053333D01*
X102902619Y-78958095D01*
X102902619Y-78862857D01*
X103902619Y-77910476D02*
X103902619Y-77339047D01*
X102902619Y-77624761D02*
X103902619Y-77624761D01*
X102950238Y-76624761D02*
X102902619Y-76720000D01*
X102902619Y-76910476D01*
X102950238Y-77005714D01*
X103045476Y-77053333D01*
X103426428Y-77053333D01*
X103521666Y-77005714D01*
X103569285Y-76910476D01*
X103569285Y-76720000D01*
X103521666Y-76624761D01*
X103426428Y-76577142D01*
X103331190Y-76577142D01*
X103235952Y-77053333D01*
X102902619Y-76148571D02*
X103569285Y-76148571D01*
X103474047Y-76148571D02*
X103521666Y-76100952D01*
X103569285Y-76005714D01*
X103569285Y-75862857D01*
X103521666Y-75767619D01*
X103426428Y-75720000D01*
X102902619Y-75720000D01*
X103426428Y-75720000D02*
X103521666Y-75672380D01*
X103569285Y-75577142D01*
X103569285Y-75434285D01*
X103521666Y-75339047D01*
X103426428Y-75291428D01*
X102902619Y-75291428D01*
X103569285Y-74815238D02*
X102569285Y-74815238D01*
X103521666Y-74815238D02*
X103569285Y-74720000D01*
X103569285Y-74529523D01*
X103521666Y-74434285D01*
X103474047Y-74386666D01*
X103378809Y-74339047D01*
X103093095Y-74339047D01*
X102997857Y-74386666D01*
X102950238Y-74434285D01*
X102902619Y-74529523D01*
X102902619Y-74720000D01*
X102950238Y-74815238D01*
X102950238Y-73529523D02*
X102902619Y-73624761D01*
X102902619Y-73815238D01*
X102950238Y-73910476D01*
X103045476Y-73958095D01*
X103426428Y-73958095D01*
X103521666Y-73910476D01*
X103569285Y-73815238D01*
X103569285Y-73624761D01*
X103521666Y-73529523D01*
X103426428Y-73481904D01*
X103331190Y-73481904D01*
X103235952Y-73958095D01*
X102902619Y-73053333D02*
X103569285Y-73053333D01*
X103378809Y-73053333D02*
X103474047Y-73005714D01*
X103521666Y-72958095D01*
X103569285Y-72862857D01*
X103569285Y-72767619D01*
X102902619Y-72005714D02*
X103426428Y-72005714D01*
X103521666Y-72053333D01*
X103569285Y-72148571D01*
X103569285Y-72339047D01*
X103521666Y-72434285D01*
X102950238Y-72005714D02*
X102902619Y-72100952D01*
X102902619Y-72339047D01*
X102950238Y-72434285D01*
X103045476Y-72481904D01*
X103140714Y-72481904D01*
X103235952Y-72434285D01*
X103283571Y-72339047D01*
X103283571Y-72100952D01*
X103331190Y-72005714D01*
X103569285Y-71672380D02*
X103569285Y-71291428D01*
X103902619Y-71529523D02*
X103045476Y-71529523D01*
X102950238Y-71481904D01*
X102902619Y-71386666D01*
X102902619Y-71291428D01*
X103569285Y-70529523D02*
X102902619Y-70529523D01*
X103569285Y-70958095D02*
X103045476Y-70958095D01*
X102950238Y-70910476D01*
X102902619Y-70815238D01*
X102902619Y-70672380D01*
X102950238Y-70577142D01*
X102997857Y-70529523D01*
X102902619Y-70053333D02*
X103569285Y-70053333D01*
X103378809Y-70053333D02*
X103474047Y-70005714D01*
X103521666Y-69958095D01*
X103569285Y-69862857D01*
X103569285Y-69767619D01*
X102950238Y-69053333D02*
X102902619Y-69148571D01*
X102902619Y-69339047D01*
X102950238Y-69434285D01*
X103045476Y-69481904D01*
X103426428Y-69481904D01*
X103521666Y-69434285D01*
X103569285Y-69339047D01*
X103569285Y-69148571D01*
X103521666Y-69053333D01*
X103426428Y-69005714D01*
X103331190Y-69005714D01*
X103235952Y-69481904D01*
X102997857Y-67243809D02*
X102950238Y-67291428D01*
X102902619Y-67434285D01*
X102902619Y-67529523D01*
X102950238Y-67672380D01*
X103045476Y-67767619D01*
X103140714Y-67815238D01*
X103331190Y-67862857D01*
X103474047Y-67862857D01*
X103664523Y-67815238D01*
X103759761Y-67767619D01*
X103855000Y-67672380D01*
X103902619Y-67529523D01*
X103902619Y-67434285D01*
X103855000Y-67291428D01*
X103807380Y-67243809D01*
X102902619Y-66672380D02*
X102950238Y-66767619D01*
X102997857Y-66815238D01*
X103093095Y-66862857D01*
X103378809Y-66862857D01*
X103474047Y-66815238D01*
X103521666Y-66767619D01*
X103569285Y-66672380D01*
X103569285Y-66529523D01*
X103521666Y-66434285D01*
X103474047Y-66386666D01*
X103378809Y-66339047D01*
X103093095Y-66339047D01*
X102997857Y-66386666D01*
X102950238Y-66434285D01*
X102902619Y-66529523D01*
X102902619Y-66672380D01*
X103569285Y-65910476D02*
X102902619Y-65910476D01*
X103474047Y-65910476D02*
X103521666Y-65862857D01*
X103569285Y-65767619D01*
X103569285Y-65624761D01*
X103521666Y-65529523D01*
X103426428Y-65481904D01*
X102902619Y-65481904D01*
X103569285Y-65148571D02*
X103569285Y-64767619D01*
X103902619Y-65005714D02*
X103045476Y-65005714D01*
X102950238Y-64958095D01*
X102902619Y-64862857D01*
X102902619Y-64767619D01*
X102902619Y-64434285D02*
X103569285Y-64434285D01*
X103378809Y-64434285D02*
X103474047Y-64386666D01*
X103521666Y-64339047D01*
X103569285Y-64243809D01*
X103569285Y-64148571D01*
X102902619Y-63672380D02*
X102950238Y-63767619D01*
X102997857Y-63815238D01*
X103093095Y-63862857D01*
X103378809Y-63862857D01*
X103474047Y-63815238D01*
X103521666Y-63767619D01*
X103569285Y-63672380D01*
X103569285Y-63529523D01*
X103521666Y-63434285D01*
X103474047Y-63386666D01*
X103378809Y-63339047D01*
X103093095Y-63339047D01*
X102997857Y-63386666D01*
X102950238Y-63434285D01*
X102902619Y-63529523D01*
X102902619Y-63672380D01*
X102902619Y-62767619D02*
X102950238Y-62862857D01*
X103045476Y-62910476D01*
X103902619Y-62910476D01*
X102902619Y-62243809D02*
X102950238Y-62339047D01*
X103045476Y-62386666D01*
X103902619Y-62386666D01*
X102950238Y-61481904D02*
X102902619Y-61577142D01*
X102902619Y-61767619D01*
X102950238Y-61862857D01*
X103045476Y-61910476D01*
X103426428Y-61910476D01*
X103521666Y-61862857D01*
X103569285Y-61767619D01*
X103569285Y-61577142D01*
X103521666Y-61481904D01*
X103426428Y-61434285D01*
X103331190Y-61434285D01*
X103235952Y-61910476D01*
X102902619Y-61005714D02*
X103569285Y-61005714D01*
X103378809Y-61005714D02*
X103474047Y-60958095D01*
X103521666Y-60910476D01*
X103569285Y-60815238D01*
X103569285Y-60720000D01*
X101959285Y-87981904D02*
X101959285Y-87600952D01*
X101292619Y-87839047D02*
X102149761Y-87839047D01*
X102245000Y-87791428D01*
X102292619Y-87696190D01*
X102292619Y-87600952D01*
X101292619Y-87124761D02*
X101340238Y-87220000D01*
X101387857Y-87267619D01*
X101483095Y-87315238D01*
X101768809Y-87315238D01*
X101864047Y-87267619D01*
X101911666Y-87220000D01*
X101959285Y-87124761D01*
X101959285Y-86981904D01*
X101911666Y-86886666D01*
X101864047Y-86839047D01*
X101768809Y-86791428D01*
X101483095Y-86791428D01*
X101387857Y-86839047D01*
X101340238Y-86886666D01*
X101292619Y-86981904D01*
X101292619Y-87124761D01*
X101292619Y-86362857D02*
X101959285Y-86362857D01*
X101768809Y-86362857D02*
X101864047Y-86315238D01*
X101911666Y-86267619D01*
X101959285Y-86172380D01*
X101959285Y-86077142D01*
X101340238Y-85029523D02*
X101292619Y-84886666D01*
X101292619Y-84648571D01*
X101340238Y-84553333D01*
X101387857Y-84505714D01*
X101483095Y-84458095D01*
X101578333Y-84458095D01*
X101673571Y-84505714D01*
X101721190Y-84553333D01*
X101768809Y-84648571D01*
X101816428Y-84839047D01*
X101864047Y-84934285D01*
X101911666Y-84981904D01*
X102006904Y-85029523D01*
X102102142Y-85029523D01*
X102197380Y-84981904D01*
X102245000Y-84934285D01*
X102292619Y-84839047D01*
X102292619Y-84600952D01*
X102245000Y-84458095D01*
X101340238Y-83648571D02*
X101292619Y-83743809D01*
X101292619Y-83934285D01*
X101340238Y-84029523D01*
X101435476Y-84077142D01*
X101816428Y-84077142D01*
X101911666Y-84029523D01*
X101959285Y-83934285D01*
X101959285Y-83743809D01*
X101911666Y-83648571D01*
X101816428Y-83600952D01*
X101721190Y-83600952D01*
X101625952Y-84077142D01*
X101292619Y-82743809D02*
X101816428Y-82743809D01*
X101911666Y-82791428D01*
X101959285Y-82886666D01*
X101959285Y-83077142D01*
X101911666Y-83172380D01*
X101340238Y-82743809D02*
X101292619Y-82839047D01*
X101292619Y-83077142D01*
X101340238Y-83172380D01*
X101435476Y-83220000D01*
X101530714Y-83220000D01*
X101625952Y-83172380D01*
X101673571Y-83077142D01*
X101673571Y-82839047D01*
X101721190Y-82743809D01*
X101292619Y-81505714D02*
X102292619Y-81505714D01*
X101340238Y-80600952D02*
X101292619Y-80696190D01*
X101292619Y-80886666D01*
X101340238Y-80981904D01*
X101387857Y-81029523D01*
X101483095Y-81077142D01*
X101768809Y-81077142D01*
X101864047Y-81029523D01*
X101911666Y-80981904D01*
X101959285Y-80886666D01*
X101959285Y-80696190D01*
X101911666Y-80600952D01*
X101340238Y-79791428D02*
X101292619Y-79886666D01*
X101292619Y-80077142D01*
X101340238Y-80172380D01*
X101435476Y-80220000D01*
X101816428Y-80220000D01*
X101911666Y-80172380D01*
X101959285Y-80077142D01*
X101959285Y-79886666D01*
X101911666Y-79791428D01*
X101816428Y-79743809D01*
X101721190Y-79743809D01*
X101625952Y-80220000D01*
X101292619Y-78553333D02*
X102292619Y-78553333D01*
X101292619Y-78077142D02*
X101959285Y-78077142D01*
X101864047Y-78077142D02*
X101911666Y-78029523D01*
X101959285Y-77934285D01*
X101959285Y-77791428D01*
X101911666Y-77696190D01*
X101816428Y-77648571D01*
X101292619Y-77648571D01*
X101816428Y-77648571D02*
X101911666Y-77600952D01*
X101959285Y-77505714D01*
X101959285Y-77362857D01*
X101911666Y-77267619D01*
X101816428Y-77220000D01*
X101292619Y-77220000D01*
X101292619Y-76315238D02*
X101816428Y-76315238D01*
X101911666Y-76362857D01*
X101959285Y-76458095D01*
X101959285Y-76648571D01*
X101911666Y-76743809D01*
X101340238Y-76315238D02*
X101292619Y-76410476D01*
X101292619Y-76648571D01*
X101340238Y-76743809D01*
X101435476Y-76791428D01*
X101530714Y-76791428D01*
X101625952Y-76743809D01*
X101673571Y-76648571D01*
X101673571Y-76410476D01*
X101721190Y-76315238D01*
X101959285Y-75410476D02*
X101149761Y-75410476D01*
X101054523Y-75458095D01*
X101006904Y-75505714D01*
X100959285Y-75600952D01*
X100959285Y-75743809D01*
X101006904Y-75839047D01*
X101340238Y-75410476D02*
X101292619Y-75505714D01*
X101292619Y-75696190D01*
X101340238Y-75791428D01*
X101387857Y-75839047D01*
X101483095Y-75886666D01*
X101768809Y-75886666D01*
X101864047Y-75839047D01*
X101911666Y-75791428D01*
X101959285Y-75696190D01*
X101959285Y-75505714D01*
X101911666Y-75410476D01*
X101292619Y-74934285D02*
X101959285Y-74934285D01*
X102292619Y-74934285D02*
X102245000Y-74981904D01*
X102197380Y-74934285D01*
X102245000Y-74886666D01*
X102292619Y-74934285D01*
X102197380Y-74934285D01*
X101959285Y-74458095D02*
X101292619Y-74458095D01*
X101864047Y-74458095D02*
X101911666Y-74410476D01*
X101959285Y-74315238D01*
X101959285Y-74172380D01*
X101911666Y-74077142D01*
X101816428Y-74029523D01*
X101292619Y-74029523D01*
X101292619Y-73553333D02*
X101959285Y-73553333D01*
X102292619Y-73553333D02*
X102245000Y-73600952D01*
X102197380Y-73553333D01*
X102245000Y-73505714D01*
X102292619Y-73553333D01*
X102197380Y-73553333D01*
X101959285Y-73077142D02*
X101292619Y-73077142D01*
X101864047Y-73077142D02*
X101911666Y-73029523D01*
X101959285Y-72934285D01*
X101959285Y-72791428D01*
X101911666Y-72696190D01*
X101816428Y-72648571D01*
X101292619Y-72648571D01*
X101959285Y-71743809D02*
X101149761Y-71743809D01*
X101054523Y-71791428D01*
X101006904Y-71839047D01*
X100959285Y-71934285D01*
X100959285Y-72077142D01*
X101006904Y-72172380D01*
X101340238Y-71743809D02*
X101292619Y-71839047D01*
X101292619Y-72029523D01*
X101340238Y-72124761D01*
X101387857Y-72172380D01*
X101483095Y-72220000D01*
X101768809Y-72220000D01*
X101864047Y-72172380D01*
X101911666Y-72124761D01*
X101959285Y-72029523D01*
X101959285Y-71839047D01*
X101911666Y-71743809D01*
X101292619Y-69934285D02*
X101768809Y-70267619D01*
X101292619Y-70505714D02*
X102292619Y-70505714D01*
X102292619Y-70124761D01*
X102245000Y-70029523D01*
X102197380Y-69981904D01*
X102102142Y-69934285D01*
X101959285Y-69934285D01*
X101864047Y-69981904D01*
X101816428Y-70029523D01*
X101768809Y-70124761D01*
X101768809Y-70505714D01*
X101292619Y-69505714D02*
X101959285Y-69505714D01*
X102292619Y-69505714D02*
X102245000Y-69553333D01*
X102197380Y-69505714D01*
X102245000Y-69458095D01*
X102292619Y-69505714D01*
X102197380Y-69505714D01*
X101959285Y-68600952D02*
X101149761Y-68600952D01*
X101054523Y-68648571D01*
X101006904Y-68696190D01*
X100959285Y-68791428D01*
X100959285Y-68934285D01*
X101006904Y-69029523D01*
X101340238Y-68600952D02*
X101292619Y-68696190D01*
X101292619Y-68886666D01*
X101340238Y-68981904D01*
X101387857Y-69029523D01*
X101483095Y-69077142D01*
X101768809Y-69077142D01*
X101864047Y-69029523D01*
X101911666Y-68981904D01*
X101959285Y-68886666D01*
X101959285Y-68696190D01*
X101911666Y-68600952D01*
X168144464Y-103723928D02*
X168894464Y-103723928D01*
X168894464Y-103545357D01*
X168858750Y-103438214D01*
X168787321Y-103366785D01*
X168715892Y-103331071D01*
X168573035Y-103295357D01*
X168465892Y-103295357D01*
X168323035Y-103331071D01*
X168251607Y-103366785D01*
X168180178Y-103438214D01*
X168144464Y-103545357D01*
X168144464Y-103723928D01*
X168180178Y-102688214D02*
X168144464Y-102759642D01*
X168144464Y-102902500D01*
X168180178Y-102973928D01*
X168251607Y-103009642D01*
X168537321Y-103009642D01*
X168608750Y-102973928D01*
X168644464Y-102902500D01*
X168644464Y-102759642D01*
X168608750Y-102688214D01*
X168537321Y-102652500D01*
X168465892Y-102652500D01*
X168394464Y-103009642D01*
X168180178Y-102366785D02*
X168144464Y-102295357D01*
X168144464Y-102152500D01*
X168180178Y-102081071D01*
X168251607Y-102045357D01*
X168287321Y-102045357D01*
X168358750Y-102081071D01*
X168394464Y-102152500D01*
X168394464Y-102259642D01*
X168430178Y-102331071D01*
X168501607Y-102366785D01*
X168537321Y-102366785D01*
X168608750Y-102331071D01*
X168644464Y-102259642D01*
X168644464Y-102152500D01*
X168608750Y-102081071D01*
X168144464Y-101723928D02*
X168644464Y-101723928D01*
X168894464Y-101723928D02*
X168858750Y-101759642D01*
X168823035Y-101723928D01*
X168858750Y-101688214D01*
X168894464Y-101723928D01*
X168823035Y-101723928D01*
X168644464Y-101045357D02*
X168037321Y-101045357D01*
X167965892Y-101081071D01*
X167930178Y-101116785D01*
X167894464Y-101188214D01*
X167894464Y-101295357D01*
X167930178Y-101366785D01*
X168180178Y-101045357D02*
X168144464Y-101116785D01*
X168144464Y-101259642D01*
X168180178Y-101331071D01*
X168215892Y-101366785D01*
X168287321Y-101402500D01*
X168501607Y-101402500D01*
X168573035Y-101366785D01*
X168608750Y-101331071D01*
X168644464Y-101259642D01*
X168644464Y-101116785D01*
X168608750Y-101045357D01*
X168644464Y-100688214D02*
X168144464Y-100688214D01*
X168573035Y-100688214D02*
X168608750Y-100652500D01*
X168644464Y-100581071D01*
X168644464Y-100473928D01*
X168608750Y-100402500D01*
X168537321Y-100366785D01*
X168144464Y-100366785D01*
X168180178Y-99723928D02*
X168144464Y-99795357D01*
X168144464Y-99938214D01*
X168180178Y-100009642D01*
X168251607Y-100045357D01*
X168537321Y-100045357D01*
X168608750Y-100009642D01*
X168644464Y-99938214D01*
X168644464Y-99795357D01*
X168608750Y-99723928D01*
X168537321Y-99688214D01*
X168465892Y-99688214D01*
X168394464Y-100045357D01*
X168144464Y-99045357D02*
X168894464Y-99045357D01*
X168180178Y-99045357D02*
X168144464Y-99116785D01*
X168144464Y-99259642D01*
X168180178Y-99331071D01*
X168215892Y-99366785D01*
X168287321Y-99402500D01*
X168501607Y-99402500D01*
X168573035Y-99366785D01*
X168608750Y-99331071D01*
X168644464Y-99259642D01*
X168644464Y-99116785D01*
X168608750Y-99045357D01*
X168144464Y-98116785D02*
X168894464Y-98116785D01*
X168608750Y-98116785D02*
X168644464Y-98045357D01*
X168644464Y-97902500D01*
X168608750Y-97831071D01*
X168573035Y-97795357D01*
X168501607Y-97759642D01*
X168287321Y-97759642D01*
X168215892Y-97795357D01*
X168180178Y-97831071D01*
X168144464Y-97902500D01*
X168144464Y-98045357D01*
X168180178Y-98116785D01*
X168644464Y-97509642D02*
X168144464Y-97331071D01*
X168644464Y-97152500D02*
X168144464Y-97331071D01*
X167965892Y-97402500D01*
X167930178Y-97438214D01*
X167894464Y-97509642D01*
X168180178Y-96331071D02*
X168144464Y-96223928D01*
X168144464Y-96045357D01*
X168180178Y-95973928D01*
X168215892Y-95938214D01*
X168287321Y-95902500D01*
X168358750Y-95902500D01*
X168430178Y-95938214D01*
X168465892Y-95973928D01*
X168501607Y-96045357D01*
X168537321Y-96188214D01*
X168573035Y-96259642D01*
X168608750Y-96295357D01*
X168680178Y-96331071D01*
X168751607Y-96331071D01*
X168823035Y-96295357D01*
X168858750Y-96259642D01*
X168894464Y-96188214D01*
X168894464Y-96009642D01*
X168858750Y-95902500D01*
X168144464Y-95259642D02*
X168537321Y-95259642D01*
X168608750Y-95295357D01*
X168644464Y-95366785D01*
X168644464Y-95509642D01*
X168608750Y-95581071D01*
X168180178Y-95259642D02*
X168144464Y-95331071D01*
X168144464Y-95509642D01*
X168180178Y-95581071D01*
X168251607Y-95616785D01*
X168323035Y-95616785D01*
X168394464Y-95581071D01*
X168430178Y-95509642D01*
X168430178Y-95331071D01*
X168465892Y-95259642D01*
X168144464Y-94902500D02*
X168644464Y-94902500D01*
X168501607Y-94902500D02*
X168573035Y-94866785D01*
X168608750Y-94831071D01*
X168644464Y-94759642D01*
X168644464Y-94688214D01*
X168144464Y-94116785D02*
X168537321Y-94116785D01*
X168608750Y-94152500D01*
X168644464Y-94223928D01*
X168644464Y-94366785D01*
X168608750Y-94438214D01*
X168180178Y-94116785D02*
X168144464Y-94188214D01*
X168144464Y-94366785D01*
X168180178Y-94438214D01*
X168251607Y-94473928D01*
X168323035Y-94473928D01*
X168394464Y-94438214D01*
X168430178Y-94366785D01*
X168430178Y-94188214D01*
X168465892Y-94116785D01*
X168144464Y-93759642D02*
X168894464Y-93759642D01*
X168144464Y-93438214D02*
X168537321Y-93438214D01*
X168608750Y-93473928D01*
X168644464Y-93545357D01*
X168644464Y-93652500D01*
X168608750Y-93723928D01*
X168573035Y-93759642D01*
X168894464Y-92616785D02*
X168894464Y-92188214D01*
X168144464Y-92402500D02*
X168894464Y-92402500D01*
X168144464Y-91616785D02*
X168537321Y-91616785D01*
X168608750Y-91652500D01*
X168644464Y-91723928D01*
X168644464Y-91866785D01*
X168608750Y-91938214D01*
X168180178Y-91616785D02*
X168144464Y-91688214D01*
X168144464Y-91866785D01*
X168180178Y-91938214D01*
X168251607Y-91973928D01*
X168323035Y-91973928D01*
X168394464Y-91938214D01*
X168430178Y-91866785D01*
X168430178Y-91688214D01*
X168465892Y-91616785D01*
X168144464Y-91152500D02*
X168180178Y-91223928D01*
X168251607Y-91259642D01*
X168894464Y-91259642D01*
X168144464Y-90759642D02*
X168180178Y-90831071D01*
X168251607Y-90866785D01*
X168894464Y-90866785D01*
X168144464Y-90152500D02*
X168537321Y-90152500D01*
X168608750Y-90188214D01*
X168644464Y-90259642D01*
X168644464Y-90402500D01*
X168608750Y-90473928D01*
X168180178Y-90152500D02*
X168144464Y-90223928D01*
X168144464Y-90402500D01*
X168180178Y-90473928D01*
X168251607Y-90509642D01*
X168323035Y-90509642D01*
X168394464Y-90473928D01*
X168430178Y-90402500D01*
X168430178Y-90223928D01*
X168465892Y-90152500D01*
X168180178Y-89473928D02*
X168144464Y-89545357D01*
X168144464Y-89688214D01*
X168180178Y-89759642D01*
X168215892Y-89795357D01*
X168287321Y-89831071D01*
X168501607Y-89831071D01*
X168573035Y-89795357D01*
X168608750Y-89759642D01*
X168644464Y-89688214D01*
X168644464Y-89545357D01*
X168608750Y-89473928D01*
X168144464Y-89152500D02*
X168894464Y-89152500D01*
X168430178Y-89081071D02*
X168144464Y-88866785D01*
X168644464Y-88866785D02*
X168358750Y-89152500D01*
X166936964Y-103723928D02*
X167686964Y-103723928D01*
X167686964Y-103545357D01*
X167651250Y-103438214D01*
X167579821Y-103366785D01*
X167508392Y-103331071D01*
X167365535Y-103295357D01*
X167258392Y-103295357D01*
X167115535Y-103331071D01*
X167044107Y-103366785D01*
X166972678Y-103438214D01*
X166936964Y-103545357D01*
X166936964Y-103723928D01*
X166972678Y-102688214D02*
X166936964Y-102759642D01*
X166936964Y-102902500D01*
X166972678Y-102973928D01*
X167044107Y-103009642D01*
X167329821Y-103009642D01*
X167401250Y-102973928D01*
X167436964Y-102902500D01*
X167436964Y-102759642D01*
X167401250Y-102688214D01*
X167329821Y-102652500D01*
X167258392Y-102652500D01*
X167186964Y-103009642D01*
X166972678Y-102009642D02*
X166936964Y-102081071D01*
X166936964Y-102223928D01*
X166972678Y-102295357D01*
X167008392Y-102331071D01*
X167079821Y-102366785D01*
X167294107Y-102366785D01*
X167365535Y-102331071D01*
X167401250Y-102295357D01*
X167436964Y-102223928D01*
X167436964Y-102081071D01*
X167401250Y-102009642D01*
X166936964Y-101688214D02*
X167436964Y-101688214D01*
X167365535Y-101688214D02*
X167401250Y-101652500D01*
X167436964Y-101581071D01*
X167436964Y-101473928D01*
X167401250Y-101402500D01*
X167329821Y-101366785D01*
X166936964Y-101366785D01*
X167329821Y-101366785D02*
X167401250Y-101331071D01*
X167436964Y-101259642D01*
X167436964Y-101152500D01*
X167401250Y-101081071D01*
X167329821Y-101045357D01*
X166936964Y-101045357D01*
X166972678Y-100402500D02*
X166936964Y-100473928D01*
X166936964Y-100616785D01*
X166972678Y-100688214D01*
X167044107Y-100723928D01*
X167329821Y-100723928D01*
X167401250Y-100688214D01*
X167436964Y-100616785D01*
X167436964Y-100473928D01*
X167401250Y-100402500D01*
X167329821Y-100366785D01*
X167258392Y-100366785D01*
X167186964Y-100723928D01*
X166936964Y-100045357D02*
X167436964Y-100045357D01*
X167365535Y-100045357D02*
X167401250Y-100009642D01*
X167436964Y-99938214D01*
X167436964Y-99831071D01*
X167401250Y-99759642D01*
X167329821Y-99723928D01*
X166936964Y-99723928D01*
X167329821Y-99723928D02*
X167401250Y-99688214D01*
X167436964Y-99616785D01*
X167436964Y-99509642D01*
X167401250Y-99438214D01*
X167329821Y-99402500D01*
X166936964Y-99402500D01*
X166936964Y-99045357D02*
X167686964Y-99045357D01*
X167401250Y-99045357D02*
X167436964Y-98973928D01*
X167436964Y-98831071D01*
X167401250Y-98759642D01*
X167365535Y-98723928D01*
X167294107Y-98688214D01*
X167079821Y-98688214D01*
X167008392Y-98723928D01*
X166972678Y-98759642D01*
X166936964Y-98831071D01*
X166936964Y-98973928D01*
X166972678Y-99045357D01*
X166972678Y-98081071D02*
X166936964Y-98152500D01*
X166936964Y-98295357D01*
X166972678Y-98366785D01*
X167044107Y-98402500D01*
X167329821Y-98402500D01*
X167401250Y-98366785D01*
X167436964Y-98295357D01*
X167436964Y-98152500D01*
X167401250Y-98081071D01*
X167329821Y-98045357D01*
X167258392Y-98045357D01*
X167186964Y-98402500D01*
X166936964Y-97723928D02*
X167436964Y-97723928D01*
X167294107Y-97723928D02*
X167365535Y-97688214D01*
X167401250Y-97652500D01*
X167436964Y-97581071D01*
X167436964Y-97509642D01*
X167615535Y-96723928D02*
X167651250Y-96688214D01*
X167686964Y-96616785D01*
X167686964Y-96438214D01*
X167651250Y-96366785D01*
X167615535Y-96331071D01*
X167544107Y-96295357D01*
X167472678Y-96295357D01*
X167365535Y-96331071D01*
X166936964Y-96759642D01*
X166936964Y-96295357D01*
X167686964Y-95831071D02*
X167686964Y-95759642D01*
X167651250Y-95688214D01*
X167615535Y-95652500D01*
X167544107Y-95616785D01*
X167401250Y-95581071D01*
X167222678Y-95581071D01*
X167079821Y-95616785D01*
X167008392Y-95652500D01*
X166972678Y-95688214D01*
X166936964Y-95759642D01*
X166936964Y-95831071D01*
X166972678Y-95902500D01*
X167008392Y-95938214D01*
X167079821Y-95973928D01*
X167222678Y-96009642D01*
X167401250Y-96009642D01*
X167544107Y-95973928D01*
X167615535Y-95938214D01*
X167651250Y-95902500D01*
X167686964Y-95831071D01*
X167615535Y-95295357D02*
X167651250Y-95259642D01*
X167686964Y-95188214D01*
X167686964Y-95009642D01*
X167651250Y-94938214D01*
X167615535Y-94902500D01*
X167544107Y-94866785D01*
X167472678Y-94866785D01*
X167365535Y-94902500D01*
X166936964Y-95331071D01*
X166936964Y-94866785D01*
X167615535Y-94581071D02*
X167651250Y-94545357D01*
X167686964Y-94473928D01*
X167686964Y-94295357D01*
X167651250Y-94223928D01*
X167615535Y-94188214D01*
X167544107Y-94152500D01*
X167472678Y-94152500D01*
X167365535Y-94188214D01*
X166936964Y-94616785D01*
X166936964Y-94152500D01*
%TO.C,J7*%
X107113333Y-53882380D02*
X107113333Y-54596666D01*
X107160952Y-54739523D01*
X107256190Y-54834761D01*
X107399047Y-54882380D01*
X107494285Y-54882380D01*
X106732380Y-53882380D02*
X106065714Y-53882380D01*
X106494285Y-54882380D01*
%TO.C,J6*%
X165533333Y-53882380D02*
X165533333Y-54596666D01*
X165580952Y-54739523D01*
X165676190Y-54834761D01*
X165819047Y-54882380D01*
X165914285Y-54882380D01*
X164628571Y-53882380D02*
X164819047Y-53882380D01*
X164914285Y-53930000D01*
X164961904Y-53977619D01*
X165057142Y-54120476D01*
X165104761Y-54310952D01*
X165104761Y-54691904D01*
X165057142Y-54787142D01*
X165009523Y-54834761D01*
X164914285Y-54882380D01*
X164723809Y-54882380D01*
X164628571Y-54834761D01*
X164580952Y-54787142D01*
X164533333Y-54691904D01*
X164533333Y-54453809D01*
X164580952Y-54358571D01*
X164628571Y-54310952D01*
X164723809Y-54263333D01*
X164914285Y-54263333D01*
X165009523Y-54310952D01*
X165057142Y-54358571D01*
X165104761Y-54453809D01*
D11*
%TO.C,J7*%
X107110000Y-103880000D02*
X104450000Y-103880000D01*
X107110000Y-55500000D02*
X105780000Y-55500000D01*
X104450000Y-58100000D02*
X104450000Y-103880000D01*
X107110000Y-58100000D02*
X107110000Y-103880000D01*
X107110000Y-58100000D02*
X104450000Y-58100000D01*
X107110000Y-56830000D02*
X107110000Y-55500000D01*
%TO.C,J6*%
X162870000Y-58100000D02*
X162870000Y-103880000D01*
X165530000Y-103880000D02*
X162870000Y-103880000D01*
X165530000Y-58100000D02*
X165530000Y-103880000D01*
X165530000Y-58100000D02*
X162870000Y-58100000D01*
X165530000Y-55500000D02*
X164200000Y-55500000D01*
X165530000Y-56830000D02*
X165530000Y-55500000D01*
%TD*%
%LPC*%
D12*
%TO.C,J5*%
X146266000Y-64134000D03*
X146266000Y-58134000D03*
D13*
X141562000Y-61134000D03*
%TD*%
D14*
%TO.C,TP5*%
X119250000Y-63750000D03*
%TD*%
%TO.C,TP2*%
X119250000Y-55979721D03*
%TD*%
%TO.C,TP7*%
X119250000Y-71250000D03*
%TD*%
D15*
%TO.C,J4*%
X128556999Y-72179000D03*
X128556999Y-74681000D03*
%TD*%
D14*
%TO.C,TP6*%
X112250000Y-71250000D03*
%TD*%
%TO.C,TP4*%
X112250000Y-63750000D03*
%TD*%
%TO.C,TP1*%
X112250000Y-55979721D03*
%TD*%
%TO.C,TP3*%
X126250000Y-56000000D03*
%TD*%
D15*
%TO.C,J3*%
X128547000Y-80929000D03*
X128547000Y-83431000D03*
%TD*%
%TO.C,J1*%
X128547000Y-98929000D03*
X128547000Y-101431000D03*
%TD*%
%TO.C,J2*%
X128556999Y-89929000D03*
X128556999Y-92431000D03*
%TD*%
D16*
%TO.C,J7*%
X105780000Y-56830000D03*
D17*
X105780000Y-59370000D03*
X105780000Y-61910000D03*
X105780000Y-64450000D03*
X105780000Y-66990000D03*
X105780000Y-69530000D03*
X105780000Y-72070000D03*
X105780000Y-74610000D03*
X105780000Y-77150000D03*
X105780000Y-79690000D03*
X105780000Y-82230000D03*
X105780000Y-84770000D03*
X105780000Y-87310000D03*
X105780000Y-89850000D03*
X105780000Y-92390000D03*
X105780000Y-94930000D03*
X105780000Y-97470000D03*
X105780000Y-100010000D03*
X105780000Y-102550000D03*
%TD*%
D16*
%TO.C,J6*%
X164200000Y-56830000D03*
D17*
X164200000Y-59370000D03*
X164200000Y-61910000D03*
X164200000Y-64450000D03*
X164200000Y-66990000D03*
X164200000Y-69530000D03*
X164200000Y-72070000D03*
X164200000Y-74610000D03*
X164200000Y-77150000D03*
X164200000Y-79690000D03*
X164200000Y-82230000D03*
X164200000Y-84770000D03*
X164200000Y-87310000D03*
X164200000Y-89850000D03*
X164200000Y-92390000D03*
X164200000Y-94930000D03*
X164200000Y-97470000D03*
X164200000Y-100010000D03*
X164200000Y-102550000D03*
%TD*%
M02*
