%TF.GenerationSoftware,KiCad,Pcbnew,(6.0.8)*%
%TF.CreationDate,2022-12-08T15:17:31+02:00*%
%TF.ProjectId,Temperature Controller,54656d70-6572-4617-9475-726520436f6e,rev?*%
%TF.SameCoordinates,Original*%
%TF.FileFunction,Copper,L1,Top*%
%TF.FilePolarity,Positive*%
%FSLAX46Y46*%
G04 Gerber Fmt 4.6, Leading zero omitted, Abs format (unit mm)*
G04 Created by KiCad (PCBNEW (6.0.8)) date 2022-12-08 15:17:31*
%MOMM*%
%LPD*%
G01*
G04 APERTURE LIST*
G04 Aperture macros list*
%AMRoundRect*
0 Rectangle with rounded corners*
0 $1 Rounding radius*
0 $2 $3 $4 $5 $6 $7 $8 $9 X,Y pos of 4 corners*
0 Add a 4 corners polygon primitive as box body*
4,1,4,$2,$3,$4,$5,$6,$7,$8,$9,$2,$3,0*
0 Add four circle primitives for the rounded corners*
1,1,$1+$1,$2,$3*
1,1,$1+$1,$4,$5*
1,1,$1+$1,$6,$7*
1,1,$1+$1,$8,$9*
0 Add four rect primitives between the rounded corners*
20,1,$1+$1,$2,$3,$4,$5,0*
20,1,$1+$1,$4,$5,$6,$7,0*
20,1,$1+$1,$6,$7,$8,$9,0*
20,1,$1+$1,$8,$9,$2,$3,0*%
G04 Aperture macros list end*
%TA.AperFunction,SMDPad,CuDef*%
%ADD10RoundRect,0.250000X-0.450000X0.262500X-0.450000X-0.262500X0.450000X-0.262500X0.450000X0.262500X0*%
%TD*%
%TA.AperFunction,ComponentPad*%
%ADD11O,4.000000X1.800000*%
%TD*%
%TA.AperFunction,ComponentPad*%
%ADD12O,1.800000X4.000000*%
%TD*%
%TA.AperFunction,SMDPad,CuDef*%
%ADD13R,2.800000X1.300000*%
%TD*%
%TA.AperFunction,SMDPad,CuDef*%
%ADD14R,6.500000X6.000000*%
%TD*%
%TA.AperFunction,SMDPad,CuDef*%
%ADD15RoundRect,0.250000X-0.262500X-0.450000X0.262500X-0.450000X0.262500X0.450000X-0.262500X0.450000X0*%
%TD*%
%TA.AperFunction,ComponentPad*%
%ADD16C,2.000000*%
%TD*%
%TA.AperFunction,SMDPad,CuDef*%
%ADD17O,2.045000X0.588000*%
%TD*%
%TA.AperFunction,SMDPad,CuDef*%
%ADD18C,1.500000*%
%TD*%
%TA.AperFunction,SMDPad,CuDef*%
%ADD19RoundRect,0.150000X0.587500X0.150000X-0.587500X0.150000X-0.587500X-0.150000X0.587500X-0.150000X0*%
%TD*%
%TA.AperFunction,SMDPad,CuDef*%
%ADD20RoundRect,0.250000X0.475000X-0.250000X0.475000X0.250000X-0.475000X0.250000X-0.475000X-0.250000X0*%
%TD*%
%TA.AperFunction,SMDPad,CuDef*%
%ADD21RoundRect,0.250000X0.450000X-0.262500X0.450000X0.262500X-0.450000X0.262500X-0.450000X-0.262500X0*%
%TD*%
%TA.AperFunction,ComponentPad*%
%ADD22C,1.800000*%
%TD*%
%TA.AperFunction,SMDPad,CuDef*%
%ADD23RoundRect,0.250000X-0.475000X0.250000X-0.475000X-0.250000X0.475000X-0.250000X0.475000X0.250000X0*%
%TD*%
%TA.AperFunction,SMDPad,CuDef*%
%ADD24RoundRect,0.250000X0.262500X0.450000X-0.262500X0.450000X-0.262500X-0.450000X0.262500X-0.450000X0*%
%TD*%
%TA.AperFunction,SMDPad,CuDef*%
%ADD25RoundRect,0.250000X0.250000X0.475000X-0.250000X0.475000X-0.250000X-0.475000X0.250000X-0.475000X0*%
%TD*%
%TA.AperFunction,ComponentPad*%
%ADD26R,1.700000X1.700000*%
%TD*%
%TA.AperFunction,ComponentPad*%
%ADD27O,1.700000X1.700000*%
%TD*%
%TA.AperFunction,Conductor*%
%ADD28C,0.300000*%
%TD*%
%TA.AperFunction,Conductor*%
%ADD29C,2.800000*%
%TD*%
%TA.AperFunction,Conductor*%
%ADD30C,0.800000*%
%TD*%
G04 APERTURE END LIST*
D10*
%TO.P,R1,1*%
%TO.N,/+3V3*%
X140750000Y-94587500D03*
%TO.P,R1,2*%
%TO.N,/Va*%
X140750000Y-96412500D03*
%TD*%
D11*
%TO.P,J5,1*%
%TO.N,/Bat_In*%
X146266000Y-64134000D03*
%TO.P,J5,2*%
%TO.N,GND*%
X146266000Y-58134000D03*
D12*
%TO.P,J5,3*%
%TO.N,unconnected-(J5-Pad3)*%
X141562000Y-61134000D03*
%TD*%
D13*
%TO.P,Q2,1,G*%
%TO.N,Net-(C3-Pad2)*%
X146277123Y-74521124D03*
D14*
%TO.P,Q2,2,D*%
%TO.N,/HeaterV+*%
X139693123Y-72248124D03*
D13*
%TO.P,Q2,3,S*%
%TO.N,/Bat_In*%
X146277123Y-69975124D03*
%TD*%
D15*
%TO.P,R10,1*%
%TO.N,Net-(C3-Pad2)*%
X146175000Y-78425278D03*
%TO.P,R10,2*%
%TO.N,Net-(Q1-Pad3)*%
X148000000Y-78425278D03*
%TD*%
D16*
%TO.P,TP5,1,1*%
%TO.N,/PC0*%
X119250000Y-63750000D03*
%TD*%
D17*
%TO.P,U1,1,-*%
%TO.N,/Vb*%
X149228000Y-98845000D03*
%TO.P,U1,2,Rg*%
%TO.N,Net-(R5-Pad1)*%
X149228000Y-100115000D03*
%TO.P,U1,3,Rg*%
%TO.N,Net-(R5-Pad2)*%
X149228000Y-101385000D03*
%TO.P,U1,4,+*%
%TO.N,/Va*%
X149228000Y-102655000D03*
%TO.P,U1,5,Vs-*%
%TO.N,GND*%
X154772000Y-102655000D03*
%TO.P,U1,6,Ref*%
X154772000Y-101385000D03*
%TO.P,U1,7*%
%TO.N,/PC0*%
X154772000Y-100115000D03*
%TO.P,U1,8,Vs+*%
%TO.N,/+3V3*%
X154772000Y-98845000D03*
%TD*%
D18*
%TO.P,TP9,1,1*%
%TO.N,/Vb*%
X143000000Y-99500000D03*
%TD*%
D16*
%TO.P,TP2,1,1*%
%TO.N,/+5V*%
X119250000Y-55979721D03*
%TD*%
%TO.P,TP7,1,1*%
%TO.N,/PB3*%
X119250000Y-71250000D03*
%TD*%
D19*
%TO.P,Q1,1,G*%
%TO.N,Net-(Q1-Pad1)*%
X152852302Y-79370142D03*
%TO.P,Q1,2,S*%
%TO.N,GND*%
X152852302Y-77470142D03*
%TO.P,Q1,3,D*%
%TO.N,Net-(Q1-Pad3)*%
X150977302Y-78420142D03*
%TD*%
D10*
%TO.P,R7,1*%
%TO.N,/Bat_In*%
X152500000Y-70000000D03*
%TO.P,R7,2*%
%TO.N,Net-(C3-Pad2)*%
X152500000Y-71825000D03*
%TD*%
D20*
%TO.P,C2,1*%
%TO.N,/PC0*%
X158750000Y-98700000D03*
%TO.P,C2,2*%
%TO.N,GND*%
X158750000Y-96800000D03*
%TD*%
D21*
%TO.P,R3,1*%
%TO.N,/Vb*%
X145250000Y-96412500D03*
%TO.P,R3,2*%
%TO.N,GND*%
X145250000Y-94587500D03*
%TD*%
D22*
%TO.P,J4,1,Pin_1*%
%TO.N,/HeaterV+*%
X128556999Y-72179000D03*
%TO.P,J4,2,Pin_2*%
%TO.N,GND*%
X128556999Y-74681000D03*
%TD*%
D21*
%TO.P,R6,1*%
%TO.N,/PB5*%
X111389668Y-91955995D03*
%TO.P,R6,2*%
%TO.N,Net-(J3-Pad1)*%
X111389668Y-90130995D03*
%TD*%
D18*
%TO.P,TP8,1,1*%
%TO.N,/Va*%
X138250000Y-99500000D03*
%TD*%
D23*
%TO.P,C3,1*%
%TO.N,/Bat_In*%
X150000000Y-69982500D03*
%TO.P,C3,2*%
%TO.N,Net-(C3-Pad2)*%
X150000000Y-71882500D03*
%TD*%
D10*
%TO.P,R8,1*%
%TO.N,/PD2*%
X155500000Y-70000000D03*
%TO.P,R8,2*%
%TO.N,Net-(Q1-Pad1)*%
X155500000Y-71825000D03*
%TD*%
D16*
%TO.P,TP6,1,1*%
%TO.N,/PB5*%
X112250000Y-71250000D03*
%TD*%
%TO.P,TP4,1,1*%
%TO.N,/PD2*%
X112250000Y-63750000D03*
%TD*%
%TO.P,TP1,1,1*%
%TO.N,/Bat_In*%
X112250000Y-55979721D03*
%TD*%
D10*
%TO.P,R2,1*%
%TO.N,/+3V3*%
X143000000Y-94587500D03*
%TO.P,R2,2*%
%TO.N,/Vb*%
X143000000Y-96412500D03*
%TD*%
D16*
%TO.P,TP3,1,1*%
%TO.N,GND*%
X126250000Y-56000000D03*
%TD*%
D10*
%TO.P,R5,1*%
%TO.N,Net-(R5-Pad1)*%
X146175037Y-99837500D03*
%TO.P,R5,2*%
%TO.N,Net-(R5-Pad2)*%
X146175037Y-101662500D03*
%TD*%
D21*
%TO.P,R9,1*%
%TO.N,Net-(Q1-Pad1)*%
X158000000Y-71825000D03*
%TO.P,R9,2*%
%TO.N,GND*%
X158000000Y-70000000D03*
%TD*%
D22*
%TO.P,J3,1,Pin_1*%
%TO.N,Net-(J3-Pad1)*%
X128547000Y-80929000D03*
%TO.P,J3,2,Pin_2*%
%TO.N,GND*%
X128547000Y-83431000D03*
%TD*%
%TO.P,J1,1,Pin_1*%
%TO.N,/Va*%
X128547000Y-98929000D03*
%TO.P,J1,2,Pin_2*%
%TO.N,GND*%
X128547000Y-101431000D03*
%TD*%
D24*
%TO.P,R4,1*%
%TO.N,/+3V3*%
X138500000Y-90752828D03*
%TO.P,R4,2*%
%TO.N,/PB3*%
X136675000Y-90752828D03*
%TD*%
D25*
%TO.P,C1,1*%
%TO.N,/+3V3*%
X154752991Y-94888549D03*
%TO.P,C1,2*%
%TO.N,GND*%
X152852991Y-94888549D03*
%TD*%
D22*
%TO.P,J2,1,Pin_1*%
%TO.N,/PB3*%
X128556999Y-89929000D03*
%TO.P,J2,2,Pin_2*%
%TO.N,GND*%
X128556999Y-92431000D03*
%TD*%
D26*
%TO.P,J7,1,Pin_1*%
%TO.N,/PC9*%
X105780000Y-56830000D03*
D27*
%TO.P,J7,2,Pin_2*%
%TO.N,/PB8*%
X105780000Y-59370000D03*
%TO.P,J7,3,Pin_3*%
%TO.N,/PB9*%
X105780000Y-61910000D03*
%TO.P,J7,4,Pin_4*%
%TO.N,/AVDD*%
X105780000Y-64450000D03*
%TO.P,J7,5,Pin_5*%
%TO.N,GND*%
X105780000Y-66990000D03*
%TO.P,J7,6,Pin_6*%
%TO.N,/PA5*%
X105780000Y-69530000D03*
%TO.P,J7,7,Pin_7*%
%TO.N,/PA6*%
X105780000Y-72070000D03*
%TO.P,J7,8,Pin_8*%
%TO.N,/PA7*%
X105780000Y-74610000D03*
%TO.P,J7,9,Pin_9*%
%TO.N,/PB6*%
X105780000Y-77150000D03*
%TO.P,J7,10,Pin_10*%
%TO.N,/PC7*%
X105780000Y-79690000D03*
%TO.P,J7,11,Pin_11*%
%TO.N,/PA9*%
X105780000Y-82230000D03*
%TO.P,J7,12,Pin_12*%
%TO.N,/PA8*%
X105780000Y-84770000D03*
%TO.P,J7,13,Pin_13*%
%TO.N,/PB10*%
X105780000Y-87310000D03*
%TO.P,J7,14,Pin_14*%
%TO.N,/PB4*%
X105780000Y-89850000D03*
%TO.P,J7,15,Pin_15*%
%TO.N,/PB5*%
X105780000Y-92390000D03*
%TO.P,J7,16,Pin_16*%
%TO.N,/PB3*%
X105780000Y-94930000D03*
%TO.P,J7,17,Pin_17*%
%TO.N,/PA10*%
X105780000Y-97470000D03*
%TO.P,J7,18,Pin_18*%
%TO.N,/PA2*%
X105780000Y-100010000D03*
%TO.P,J7,19,Pin_19*%
%TO.N,/PA3*%
X105780000Y-102550000D03*
%TD*%
D26*
%TO.P,J6,1,Pin_1*%
%TO.N,/PC11*%
X164200000Y-56830000D03*
D27*
%TO.P,J6,2,Pin_2*%
%TO.N,/PD2*%
X164200000Y-59370000D03*
%TO.P,J6,3,Pin_3*%
%TO.N,/E5V*%
X164200000Y-61910000D03*
%TO.P,J6,4,Pin_4*%
%TO.N,GND*%
X164200000Y-64450000D03*
%TO.P,J6,5,Pin_5*%
%TO.N,/NC1*%
X164200000Y-66990000D03*
%TO.P,J6,6,Pin_6*%
%TO.N,/IOREF*%
X164200000Y-69530000D03*
%TO.P,J6,7,Pin_7*%
%TO.N,/RESET*%
X164200000Y-72070000D03*
%TO.P,J6,8,Pin_8*%
%TO.N,/+3V3*%
X164200000Y-74610000D03*
%TO.P,J6,9,Pin_9*%
%TO.N,/+5V*%
X164200000Y-77150000D03*
%TO.P,J6,10,Pin_10*%
%TO.N,GND*%
X164200000Y-79690000D03*
%TO.P,J6,11,Pin_11*%
X164200000Y-82230000D03*
%TO.P,J6,12,Pin_12*%
%TO.N,/VIN*%
X164200000Y-84770000D03*
%TO.P,J6,13,Pin_13*%
%TO.N,/NC2*%
X164200000Y-87310000D03*
%TO.P,J6,14,Pin_14*%
%TO.N,/PA0*%
X164200000Y-89850000D03*
%TO.P,J6,15,Pin_15*%
%TO.N,/PA1*%
X164200000Y-92390000D03*
%TO.P,J6,16,Pin_16*%
%TO.N,/PA4*%
X164200000Y-94930000D03*
%TO.P,J6,17,Pin_17*%
%TO.N,/PB0*%
X164200000Y-97470000D03*
%TO.P,J6,18,Pin_18*%
%TO.N,/PC1*%
X164200000Y-100010000D03*
%TO.P,J6,19,Pin_19*%
%TO.N,/PC0*%
X164200000Y-102550000D03*
%TD*%
D28*
%TO.N,/Bat_In*%
X152500000Y-70000000D02*
X150017500Y-70000000D01*
D29*
X146277123Y-64145123D02*
X146266000Y-64134000D01*
D28*
X149984290Y-69975124D02*
X146277123Y-69975124D01*
D29*
X146277123Y-69975124D02*
X146277123Y-64145123D01*
D28*
X150017500Y-70000000D02*
X150000000Y-69982500D01*
%TO.N,Net-(C3-Pad2)*%
X152442500Y-71882500D02*
X152500000Y-71825000D01*
X148907413Y-71890834D02*
X149991666Y-71890834D01*
X146277123Y-78323155D02*
X146175000Y-78425278D01*
X150000000Y-71882500D02*
X152442500Y-71882500D01*
X148907413Y-71890834D02*
X146277123Y-74521124D01*
X146277123Y-74521124D02*
X146277123Y-78323155D01*
X149991666Y-71890834D02*
X150000000Y-71882500D01*
X146277123Y-78399823D02*
X146251668Y-78425278D01*
%TO.N,/PC0*%
X158865000Y-100115000D02*
X154772000Y-100115000D01*
X164200000Y-102550000D02*
X161765000Y-100115000D01*
X158750000Y-98700000D02*
X158750000Y-100000000D01*
X161765000Y-100115000D02*
X158865000Y-100115000D01*
X158750000Y-100000000D02*
X158865000Y-100115000D01*
%TO.N,/Va*%
X131063500Y-96412500D02*
X140750000Y-96412500D01*
X137500000Y-98750000D02*
X128726000Y-98750000D01*
X140750000Y-100250000D02*
X140750000Y-96412500D01*
X128726000Y-98750000D02*
X128547000Y-98929000D01*
X128547000Y-98929000D02*
X131063500Y-96412500D01*
X149228000Y-102655000D02*
X143155000Y-102655000D01*
X143155000Y-102655000D02*
X140750000Y-100250000D01*
X138250000Y-99500000D02*
X137500000Y-98750000D01*
%TO.N,Net-(J3-Pad1)*%
X119345005Y-90130995D02*
X128547000Y-80929000D01*
X111389668Y-90130995D02*
X119345005Y-90130995D01*
%TO.N,/PD2*%
X161820000Y-59370000D02*
X155500000Y-65690000D01*
X164200000Y-59370000D02*
X161820000Y-59370000D01*
X155500000Y-65690000D02*
X155500000Y-70000000D01*
D30*
%TO.N,/+3V3*%
X140750000Y-90750000D02*
X145680000Y-90750000D01*
X154772000Y-94907558D02*
X154752991Y-94888549D01*
X138502828Y-90750000D02*
X138500000Y-90752828D01*
X140750000Y-90750000D02*
X138502828Y-90750000D01*
X154752991Y-90252991D02*
X150590000Y-86090000D01*
X150590000Y-86090000D02*
X150340000Y-86090000D01*
D28*
X140750000Y-94587500D02*
X143000000Y-94587500D01*
D30*
X145680000Y-90750000D02*
X150340000Y-86090000D01*
X140750000Y-90750000D02*
X140750000Y-94587500D01*
X154772000Y-98845000D02*
X154772000Y-94907558D01*
X161820000Y-74610000D02*
X164200000Y-74610000D01*
X150340000Y-86090000D02*
X161820000Y-74610000D01*
X154752991Y-94888549D02*
X154752991Y-90252991D01*
D28*
%TO.N,/PB5*%
X106210000Y-91960000D02*
X111385663Y-91960000D01*
X111385663Y-91960000D02*
X111389668Y-91955995D01*
X105780000Y-92390000D02*
X106210000Y-91960000D01*
%TO.N,/PB3*%
X129370828Y-90752828D02*
X136675000Y-90752828D01*
X123976000Y-94500000D02*
X128547000Y-89929000D01*
X105780000Y-94930000D02*
X106210000Y-94500000D01*
X128547000Y-89929000D02*
X129370828Y-90752828D01*
X106210000Y-94500000D02*
X123976000Y-94500000D01*
D29*
%TO.N,/HeaterV+*%
X139693123Y-72248124D02*
X139575999Y-72131000D01*
X139575999Y-72131000D02*
X128556999Y-72131000D01*
D28*
%TO.N,Net-(Q1-Pad1)*%
X155500000Y-71825000D02*
X158000000Y-71825000D01*
X158000000Y-74222444D02*
X158000000Y-71825000D01*
X152852302Y-79370142D02*
X158000000Y-74222444D01*
%TO.N,/Vb*%
X147682500Y-98845000D02*
X149228000Y-98845000D01*
X143000000Y-96412500D02*
X145250000Y-96412500D01*
X145250000Y-96412500D02*
X147682500Y-98845000D01*
X143000000Y-98750000D02*
X143000000Y-96412500D01*
%TO.N,Net-(R5-Pad1)*%
X149228000Y-100115000D02*
X146452537Y-100115000D01*
X146175271Y-100115000D02*
X146175037Y-100114766D01*
X146452537Y-100115000D02*
X146175037Y-99837500D01*
%TO.N,Net-(R5-Pad2)*%
X146452537Y-101385000D02*
X146175037Y-101662500D01*
X149228000Y-101385000D02*
X146452537Y-101385000D01*
%TO.N,Net-(Q1-Pad3)*%
X148081804Y-78420142D02*
X150977302Y-78420142D01*
X148076668Y-78425278D02*
X148081804Y-78420142D01*
%TD*%
%TA.AperFunction,Conductor*%
%TO.N,GND*%
G36*
X169433621Y-50528502D02*
G01*
X169480114Y-50582158D01*
X169491500Y-50634500D01*
X169491500Y-104365500D01*
X169471498Y-104433621D01*
X169417842Y-104480114D01*
X169365500Y-104491500D01*
X100634500Y-104491500D01*
X100566379Y-104471498D01*
X100519886Y-104417842D01*
X100508500Y-104365500D01*
X100508500Y-102516695D01*
X104417251Y-102516695D01*
X104417548Y-102521848D01*
X104417548Y-102521851D01*
X104425954Y-102667631D01*
X104430110Y-102739715D01*
X104431247Y-102744761D01*
X104431248Y-102744767D01*
X104446280Y-102811468D01*
X104479222Y-102957639D01*
X104517461Y-103051811D01*
X104555661Y-103145886D01*
X104563266Y-103164616D01*
X104580030Y-103191972D01*
X104646558Y-103300536D01*
X104679987Y-103355088D01*
X104826250Y-103523938D01*
X104998126Y-103666632D01*
X105191000Y-103779338D01*
X105399692Y-103859030D01*
X105404760Y-103860061D01*
X105404763Y-103860062D01*
X105512017Y-103881883D01*
X105618597Y-103903567D01*
X105623772Y-103903757D01*
X105623774Y-103903757D01*
X105836673Y-103911564D01*
X105836677Y-103911564D01*
X105841837Y-103911753D01*
X105846957Y-103911097D01*
X105846959Y-103911097D01*
X106058288Y-103884025D01*
X106058289Y-103884025D01*
X106063416Y-103883368D01*
X106068366Y-103881883D01*
X106272429Y-103820661D01*
X106272434Y-103820659D01*
X106277384Y-103819174D01*
X106477994Y-103720896D01*
X106659860Y-103591173D01*
X106818096Y-103433489D01*
X106877594Y-103350689D01*
X106945435Y-103256277D01*
X106948453Y-103252077D01*
X106950958Y-103247010D01*
X107045136Y-103056453D01*
X107045137Y-103056451D01*
X107047430Y-103051811D01*
X107112370Y-102838069D01*
X107141529Y-102616590D01*
X107141611Y-102613240D01*
X107142120Y-102592406D01*
X127750423Y-102592406D01*
X127755704Y-102599461D01*
X127932080Y-102702527D01*
X127941363Y-102706974D01*
X128148003Y-102785883D01*
X128157901Y-102788759D01*
X128374653Y-102832857D01*
X128384883Y-102834076D01*
X128605914Y-102842182D01*
X128616223Y-102841714D01*
X128835623Y-102813608D01*
X128845688Y-102811468D01*
X129057557Y-102747905D01*
X129067152Y-102744144D01*
X129265778Y-102646838D01*
X129274636Y-102641559D01*
X129332097Y-102600572D01*
X129340497Y-102589874D01*
X129333510Y-102576721D01*
X128559811Y-101803021D01*
X128545868Y-101795408D01*
X128544034Y-101795539D01*
X128537420Y-101799790D01*
X127757180Y-102580031D01*
X127750423Y-102592406D01*
X107142120Y-102592406D01*
X107143074Y-102553365D01*
X107143074Y-102553361D01*
X107143156Y-102550000D01*
X107124852Y-102327361D01*
X107070431Y-102110702D01*
X106981354Y-101905840D01*
X106909912Y-101795408D01*
X106862822Y-101722617D01*
X106862820Y-101722614D01*
X106860014Y-101718277D01*
X106709670Y-101553051D01*
X106705619Y-101549852D01*
X106705615Y-101549848D01*
X106538414Y-101417800D01*
X106538410Y-101417798D01*
X106534359Y-101414598D01*
X106510882Y-101401638D01*
X127134893Y-101401638D01*
X127147627Y-101622468D01*
X127149061Y-101632670D01*
X127197685Y-101848439D01*
X127200773Y-101858292D01*
X127283986Y-102063220D01*
X127288634Y-102072421D01*
X127377097Y-102216781D01*
X127387553Y-102226242D01*
X127396331Y-102222458D01*
X128174979Y-101443811D01*
X128181356Y-101432132D01*
X128911408Y-101432132D01*
X128911539Y-101433966D01*
X128915790Y-101440580D01*
X129693307Y-102218096D01*
X129705313Y-102224652D01*
X129717052Y-102215684D01*
X129755010Y-102162859D01*
X129760321Y-102154020D01*
X129858318Y-101955737D01*
X129862117Y-101946142D01*
X129926415Y-101734517D01*
X129928594Y-101724436D01*
X129957702Y-101503338D01*
X129958221Y-101496663D01*
X129959744Y-101434364D01*
X129959550Y-101427646D01*
X129941279Y-101205400D01*
X129939596Y-101195238D01*
X129885710Y-100980708D01*
X129882389Y-100970953D01*
X129794193Y-100768118D01*
X129789315Y-100759020D01*
X129716224Y-100646038D01*
X129705538Y-100636835D01*
X129695973Y-100641238D01*
X128919021Y-101418189D01*
X128911408Y-101432132D01*
X128181356Y-101432132D01*
X128182592Y-101429868D01*
X128182461Y-101428034D01*
X128178210Y-101421420D01*
X127400862Y-100644073D01*
X127389330Y-100637776D01*
X127377048Y-100647399D01*
X127321467Y-100728877D01*
X127316379Y-100737833D01*
X127223252Y-100938459D01*
X127219689Y-100948146D01*
X127160581Y-101161280D01*
X127158650Y-101171400D01*
X127135145Y-101391349D01*
X127134893Y-101401638D01*
X106510882Y-101401638D01*
X106493053Y-101391796D01*
X106443084Y-101341364D01*
X106428312Y-101271921D01*
X106453428Y-101205516D01*
X106480780Y-101178909D01*
X106547946Y-101131000D01*
X106659860Y-101051173D01*
X106675724Y-101035365D01*
X106763248Y-100948146D01*
X106818096Y-100893489D01*
X106822181Y-100887805D01*
X106945435Y-100716277D01*
X106948453Y-100712077D01*
X106952269Y-100704357D01*
X107045136Y-100516453D01*
X107045137Y-100516451D01*
X107047430Y-100511811D01*
X107097836Y-100345906D01*
X107110865Y-100303023D01*
X107110865Y-100303021D01*
X107112370Y-100298069D01*
X107141529Y-100076590D01*
X107143156Y-100010000D01*
X107124852Y-99787361D01*
X107070431Y-99570702D01*
X106981354Y-99365840D01*
X106903847Y-99246032D01*
X106862822Y-99182617D01*
X106862820Y-99182614D01*
X106860014Y-99178277D01*
X106709670Y-99013051D01*
X106705619Y-99009852D01*
X106705615Y-99009848D01*
X106538414Y-98877800D01*
X106538410Y-98877798D01*
X106534359Y-98874598D01*
X106493053Y-98851796D01*
X106443084Y-98801364D01*
X106428312Y-98731921D01*
X106453428Y-98665516D01*
X106480780Y-98638909D01*
X106533359Y-98601405D01*
X106659860Y-98511173D01*
X106673458Y-98497623D01*
X106765457Y-98405944D01*
X106818096Y-98353489D01*
X106822181Y-98347805D01*
X106945435Y-98176277D01*
X106948453Y-98172077D01*
X106951686Y-98165537D01*
X107045136Y-97976453D01*
X107045137Y-97976451D01*
X107047430Y-97971811D01*
X107112370Y-97758069D01*
X107141529Y-97536590D01*
X107141611Y-97533240D01*
X107143074Y-97473365D01*
X107143074Y-97473361D01*
X107143156Y-97470000D01*
X107124852Y-97247361D01*
X107070431Y-97030702D01*
X106981354Y-96825840D01*
X106893307Y-96689740D01*
X106862822Y-96642617D01*
X106862820Y-96642614D01*
X106860014Y-96638277D01*
X106709670Y-96473051D01*
X106705619Y-96469852D01*
X106705615Y-96469848D01*
X106538414Y-96337800D01*
X106538410Y-96337798D01*
X106534359Y-96334598D01*
X106493053Y-96311796D01*
X106443084Y-96261364D01*
X106428312Y-96191921D01*
X106453428Y-96125516D01*
X106480780Y-96098909D01*
X106548243Y-96050788D01*
X106659860Y-95971173D01*
X106696393Y-95934768D01*
X106766871Y-95864535D01*
X106818096Y-95813489D01*
X106833295Y-95792338D01*
X106945435Y-95636277D01*
X106948453Y-95632077D01*
X106992040Y-95543886D01*
X107045136Y-95436453D01*
X107045137Y-95436451D01*
X107047430Y-95431811D01*
X107103316Y-95247869D01*
X107142255Y-95188507D01*
X107207109Y-95159620D01*
X107223873Y-95158500D01*
X123893944Y-95158500D01*
X123905800Y-95159059D01*
X123905803Y-95159059D01*
X123913537Y-95160788D01*
X123984369Y-95158562D01*
X123988327Y-95158500D01*
X124017432Y-95158500D01*
X124021832Y-95157944D01*
X124033664Y-95157012D01*
X124079831Y-95155562D01*
X124100421Y-95149580D01*
X124119782Y-95145570D01*
X124130472Y-95144220D01*
X124133204Y-95143875D01*
X124133205Y-95143875D01*
X124141064Y-95142882D01*
X124148429Y-95139966D01*
X124148433Y-95139965D01*
X124184021Y-95125874D01*
X124195231Y-95122035D01*
X124239600Y-95109145D01*
X124258065Y-95098225D01*
X124275805Y-95089534D01*
X124295756Y-95081635D01*
X124333129Y-95054482D01*
X124343048Y-95047967D01*
X124375977Y-95028493D01*
X124375981Y-95028490D01*
X124382807Y-95024453D01*
X124397971Y-95009289D01*
X124413005Y-94996448D01*
X124430357Y-94983841D01*
X124459803Y-94948247D01*
X124467792Y-94939468D01*
X125814854Y-93592406D01*
X127760422Y-93592406D01*
X127765703Y-93599461D01*
X127942079Y-93702527D01*
X127951362Y-93706974D01*
X128158002Y-93785883D01*
X128167900Y-93788759D01*
X128384652Y-93832857D01*
X128394882Y-93834076D01*
X128615913Y-93842182D01*
X128626222Y-93841714D01*
X128845622Y-93813608D01*
X128855687Y-93811468D01*
X129067556Y-93747905D01*
X129077151Y-93744144D01*
X129275777Y-93646838D01*
X129284635Y-93641559D01*
X129342096Y-93600572D01*
X129350496Y-93589874D01*
X129343509Y-93576721D01*
X128569810Y-92803021D01*
X128555867Y-92795408D01*
X128554033Y-92795539D01*
X128547419Y-92799790D01*
X127767179Y-93580031D01*
X127760422Y-93592406D01*
X125814854Y-93592406D01*
X126938590Y-92468670D01*
X127000902Y-92434644D01*
X127071717Y-92439709D01*
X127128553Y-92482256D01*
X127153476Y-92550511D01*
X127157626Y-92622469D01*
X127159060Y-92632670D01*
X127207684Y-92848439D01*
X127210772Y-92858292D01*
X127293985Y-93063220D01*
X127298633Y-93072421D01*
X127387096Y-93216781D01*
X127397552Y-93226242D01*
X127406330Y-93222458D01*
X128467904Y-92160885D01*
X128530216Y-92126859D01*
X128601032Y-92131924D01*
X128646094Y-92160885D01*
X129703302Y-93218092D01*
X129715313Y-93224651D01*
X129727051Y-93215684D01*
X129765009Y-93162859D01*
X129770320Y-93154020D01*
X129868317Y-92955737D01*
X129872116Y-92946142D01*
X129936414Y-92734517D01*
X129938593Y-92724436D01*
X129967701Y-92503338D01*
X129968220Y-92496663D01*
X129969743Y-92434364D01*
X129969549Y-92427646D01*
X129951278Y-92205400D01*
X129949595Y-92195238D01*
X129895709Y-91980708D01*
X129892388Y-91970953D01*
X129804192Y-91768118D01*
X129799314Y-91759020D01*
X129700171Y-91605768D01*
X129679964Y-91537708D01*
X129699760Y-91469527D01*
X129753275Y-91422873D01*
X129805963Y-91411328D01*
X135591643Y-91411328D01*
X135659764Y-91431330D01*
X135706257Y-91484986D01*
X135711166Y-91497450D01*
X135718630Y-91519823D01*
X135718633Y-91519830D01*
X135720950Y-91526774D01*
X135814022Y-91677176D01*
X135939197Y-91802133D01*
X135945427Y-91805973D01*
X135945428Y-91805974D01*
X136082590Y-91890522D01*
X136089762Y-91894943D01*
X136149057Y-91914610D01*
X136251111Y-91948460D01*
X136251113Y-91948460D01*
X136257639Y-91950625D01*
X136264475Y-91951325D01*
X136264478Y-91951326D01*
X136307366Y-91955720D01*
X136362100Y-91961328D01*
X136987900Y-91961328D01*
X136991146Y-91960991D01*
X136991150Y-91960991D01*
X137086808Y-91951066D01*
X137086812Y-91951065D01*
X137093666Y-91950354D01*
X137100202Y-91948173D01*
X137100204Y-91948173D01*
X137232306Y-91904100D01*
X137261446Y-91894378D01*
X137411848Y-91801306D01*
X137498284Y-91714719D01*
X137560566Y-91680640D01*
X137631386Y-91685643D01*
X137676476Y-91714564D01*
X137764197Y-91802133D01*
X137770427Y-91805973D01*
X137770428Y-91805974D01*
X137907590Y-91890522D01*
X137914762Y-91894943D01*
X137974057Y-91914610D01*
X138076111Y-91948460D01*
X138076113Y-91948460D01*
X138082639Y-91950625D01*
X138089475Y-91951325D01*
X138089478Y-91951326D01*
X138132366Y-91955720D01*
X138187100Y-91961328D01*
X138812900Y-91961328D01*
X138816146Y-91960991D01*
X138816150Y-91960991D01*
X138911808Y-91951066D01*
X138911812Y-91951065D01*
X138918666Y-91950354D01*
X138925202Y-91948173D01*
X138925204Y-91948173D01*
X139057306Y-91904100D01*
X139086446Y-91894378D01*
X139236848Y-91801306D01*
X139287476Y-91750590D01*
X139342488Y-91695482D01*
X139404771Y-91661403D01*
X139431661Y-91658500D01*
X139715500Y-91658500D01*
X139783621Y-91678502D01*
X139830114Y-91732158D01*
X139841500Y-91784500D01*
X139841500Y-93658520D01*
X139821498Y-93726641D01*
X139804675Y-93747536D01*
X139700695Y-93851697D01*
X139696855Y-93857927D01*
X139696854Y-93857928D01*
X139653045Y-93929000D01*
X139607885Y-94002262D01*
X139552203Y-94170139D01*
X139541500Y-94274600D01*
X139541500Y-94900400D01*
X139541837Y-94903646D01*
X139541837Y-94903650D01*
X139551618Y-94997914D01*
X139552474Y-95006166D01*
X139554655Y-95012702D01*
X139554655Y-95012704D01*
X139583188Y-95098228D01*
X139608450Y-95173946D01*
X139701522Y-95324348D01*
X139706704Y-95329521D01*
X139788109Y-95410784D01*
X139822188Y-95473066D01*
X139817185Y-95543886D01*
X139788264Y-95588975D01*
X139749868Y-95627438D01*
X139700695Y-95676697D01*
X139689958Y-95694116D01*
X139637187Y-95741609D01*
X139582698Y-95754000D01*
X131145556Y-95754000D01*
X131133700Y-95753441D01*
X131133697Y-95753441D01*
X131125963Y-95751712D01*
X131070946Y-95753441D01*
X131055131Y-95753938D01*
X131051173Y-95754000D01*
X131022068Y-95754000D01*
X131017668Y-95754556D01*
X131005836Y-95755488D01*
X130959669Y-95756938D01*
X130939079Y-95762920D01*
X130919718Y-95766930D01*
X130912730Y-95767812D01*
X130906296Y-95768625D01*
X130906295Y-95768625D01*
X130898436Y-95769618D01*
X130891071Y-95772534D01*
X130891067Y-95772535D01*
X130855482Y-95786624D01*
X130844252Y-95790469D01*
X130799899Y-95803355D01*
X130788467Y-95810116D01*
X130781443Y-95814270D01*
X130763687Y-95822969D01*
X130743744Y-95830865D01*
X130727376Y-95842757D01*
X130706368Y-95858020D01*
X130696449Y-95864535D01*
X130663523Y-95884008D01*
X130663519Y-95884011D01*
X130656693Y-95888048D01*
X130641532Y-95903209D01*
X130626500Y-95916048D01*
X130609143Y-95928659D01*
X130585459Y-95957288D01*
X130579693Y-95964258D01*
X130571703Y-95973038D01*
X129017446Y-97527294D01*
X128955134Y-97561320D01*
X128906255Y-97562246D01*
X128685095Y-97522851D01*
X128685089Y-97522850D01*
X128680006Y-97521945D01*
X128607096Y-97521054D01*
X128453581Y-97519179D01*
X128453579Y-97519179D01*
X128448411Y-97519116D01*
X128219464Y-97554150D01*
X127999314Y-97626106D01*
X127994726Y-97628494D01*
X127994722Y-97628496D01*
X127819475Y-97719724D01*
X127793872Y-97733052D01*
X127789739Y-97736155D01*
X127789736Y-97736157D01*
X127630295Y-97855869D01*
X127608655Y-97872117D01*
X127541081Y-97942829D01*
X127516717Y-97968325D01*
X127448639Y-98039564D01*
X127445725Y-98043836D01*
X127445724Y-98043837D01*
X127382381Y-98136695D01*
X127318119Y-98230899D01*
X127220602Y-98440981D01*
X127158707Y-98664169D01*
X127134095Y-98894469D01*
X127134392Y-98899622D01*
X127134392Y-98899625D01*
X127144096Y-99067924D01*
X127147427Y-99125697D01*
X127148564Y-99130743D01*
X127148565Y-99130749D01*
X127174546Y-99246032D01*
X127198346Y-99351642D01*
X127200288Y-99356424D01*
X127200289Y-99356428D01*
X127274548Y-99539305D01*
X127285484Y-99566237D01*
X127320761Y-99623804D01*
X127401175Y-99755027D01*
X127406501Y-99763719D01*
X127558147Y-99938784D01*
X127648920Y-100014145D01*
X127736349Y-100086730D01*
X127735474Y-100087784D01*
X127775834Y-100138285D01*
X127783137Y-100208905D01*
X127760206Y-100261398D01*
X127752508Y-100271712D01*
X127759251Y-100284040D01*
X128534189Y-101058979D01*
X128548132Y-101066592D01*
X128549966Y-101066461D01*
X128556580Y-101062210D01*
X129335994Y-100282795D01*
X129343011Y-100269944D01*
X129332361Y-100255327D01*
X129308412Y-100188492D01*
X129324399Y-100119319D01*
X129361029Y-100078549D01*
X129411356Y-100042651D01*
X129459243Y-100008494D01*
X129623303Y-99845005D01*
X129758458Y-99656917D01*
X129765141Y-99643396D01*
X129826065Y-99520124D01*
X129846551Y-99478673D01*
X129894664Y-99426466D01*
X129959508Y-99408500D01*
X136863230Y-99408500D01*
X136931351Y-99428502D01*
X136977844Y-99482158D01*
X136988750Y-99523517D01*
X137005885Y-99719371D01*
X137062880Y-99932076D01*
X137099912Y-100011492D01*
X137153618Y-100126666D01*
X137153621Y-100126671D01*
X137155944Y-100131653D01*
X137159100Y-100136160D01*
X137159101Y-100136162D01*
X137278055Y-100306045D01*
X137282251Y-100312038D01*
X137437962Y-100467749D01*
X137442471Y-100470906D01*
X137442473Y-100470908D01*
X137492581Y-100505994D01*
X137618346Y-100594056D01*
X137817924Y-100687120D01*
X138030629Y-100744115D01*
X138250000Y-100763307D01*
X138469371Y-100744115D01*
X138682076Y-100687120D01*
X138881654Y-100594056D01*
X139007419Y-100505994D01*
X139057527Y-100470908D01*
X139057529Y-100470906D01*
X139062038Y-100467749D01*
X139217749Y-100312038D01*
X139221946Y-100306045D01*
X139340899Y-100136162D01*
X139340900Y-100136160D01*
X139344056Y-100131653D01*
X139346379Y-100126671D01*
X139346382Y-100126666D01*
X139400088Y-100011492D01*
X139437120Y-99932076D01*
X139494115Y-99719371D01*
X139513307Y-99500000D01*
X139494115Y-99280629D01*
X139437120Y-99067924D01*
X139392702Y-98972668D01*
X139346382Y-98873334D01*
X139346379Y-98873329D01*
X139344056Y-98868347D01*
X139326752Y-98843634D01*
X139220908Y-98692473D01*
X139220906Y-98692470D01*
X139217749Y-98687962D01*
X139062038Y-98532251D01*
X139036218Y-98514171D01*
X138982759Y-98476739D01*
X138881654Y-98405944D01*
X138682076Y-98312880D01*
X138469371Y-98255885D01*
X138250000Y-98236693D01*
X138030629Y-98255885D01*
X138024565Y-98257510D01*
X138024223Y-98257502D01*
X138019902Y-98258264D01*
X138019749Y-98257395D01*
X137953589Y-98255818D01*
X137905706Y-98227652D01*
X137902034Y-98224204D01*
X137890133Y-98213028D01*
X137883181Y-98209206D01*
X137871342Y-98202697D01*
X137854818Y-98191843D01*
X137844132Y-98183555D01*
X137837868Y-98178696D01*
X137830596Y-98175549D01*
X137830594Y-98175548D01*
X137795465Y-98160346D01*
X137784805Y-98155124D01*
X137751284Y-98136695D01*
X137751282Y-98136694D01*
X137744337Y-98132876D01*
X137723559Y-98127541D01*
X137704869Y-98121142D01*
X137685176Y-98112620D01*
X137639552Y-98105394D01*
X137627929Y-98102987D01*
X137599928Y-98095798D01*
X137583188Y-98091500D01*
X137561741Y-98091500D01*
X137542031Y-98089949D01*
X137520848Y-98086594D01*
X137474859Y-98090941D01*
X137463004Y-98091500D01*
X130619949Y-98091500D01*
X130551828Y-98071498D01*
X130505335Y-98017842D01*
X130495231Y-97947568D01*
X130524725Y-97882988D01*
X130530854Y-97876405D01*
X131299354Y-97107905D01*
X131361666Y-97073879D01*
X131388449Y-97071000D01*
X139582835Y-97071000D01*
X139650956Y-97091002D01*
X139689978Y-97130695D01*
X139697669Y-97143123D01*
X139697673Y-97143128D01*
X139701522Y-97149348D01*
X139826697Y-97274305D01*
X139832927Y-97278145D01*
X139832928Y-97278146D01*
X139970090Y-97362694D01*
X139977262Y-97367115D01*
X140005170Y-97376372D01*
X140063528Y-97416803D01*
X140090764Y-97482367D01*
X140091500Y-97495964D01*
X140091500Y-100167944D01*
X140090941Y-100179800D01*
X140089212Y-100187537D01*
X140089884Y-100208905D01*
X140091438Y-100258369D01*
X140091500Y-100262327D01*
X140091500Y-100291432D01*
X140092056Y-100295832D01*
X140092988Y-100307664D01*
X140094438Y-100353831D01*
X140096650Y-100361444D01*
X140096650Y-100361445D01*
X140100419Y-100374416D01*
X140104430Y-100393782D01*
X140107118Y-100415064D01*
X140110034Y-100422429D01*
X140110035Y-100422433D01*
X140124126Y-100458021D01*
X140127965Y-100469231D01*
X140140855Y-100513600D01*
X140151775Y-100532065D01*
X140160466Y-100549805D01*
X140168365Y-100569756D01*
X140186020Y-100594056D01*
X140195516Y-100607126D01*
X140202033Y-100617048D01*
X140221507Y-100649977D01*
X140221510Y-100649981D01*
X140225547Y-100656807D01*
X140240711Y-100671971D01*
X140253551Y-100687004D01*
X140266159Y-100704357D01*
X140290624Y-100724596D01*
X140301752Y-100733802D01*
X140310532Y-100741792D01*
X142631345Y-103062605D01*
X142639335Y-103071385D01*
X142643584Y-103078080D01*
X142649362Y-103083506D01*
X142649363Y-103083507D01*
X142695257Y-103126604D01*
X142698099Y-103129359D01*
X142718667Y-103149927D01*
X142722170Y-103152644D01*
X142731195Y-103160352D01*
X142764867Y-103191972D01*
X142771818Y-103195793D01*
X142771819Y-103195794D01*
X142783658Y-103202303D01*
X142800182Y-103213157D01*
X142810271Y-103220982D01*
X142817132Y-103226304D01*
X142824404Y-103229451D01*
X142824406Y-103229452D01*
X142859535Y-103244654D01*
X142870195Y-103249876D01*
X142874199Y-103252077D01*
X142910663Y-103272124D01*
X142931441Y-103277459D01*
X142950131Y-103283858D01*
X142969824Y-103292380D01*
X143013596Y-103299313D01*
X143015448Y-103299606D01*
X143027071Y-103302013D01*
X143055072Y-103309202D01*
X143071812Y-103313500D01*
X143093259Y-103313500D01*
X143112969Y-103315051D01*
X143134152Y-103318406D01*
X143180141Y-103314059D01*
X143191996Y-103313500D01*
X148002701Y-103313500D01*
X148070956Y-103333589D01*
X148140422Y-103378357D01*
X148147045Y-103380768D01*
X148147048Y-103380769D01*
X148302981Y-103437524D01*
X148302986Y-103437525D01*
X148309604Y-103439934D01*
X148448653Y-103457500D01*
X150001771Y-103457500D01*
X150135418Y-103442509D01*
X150142813Y-103439934D01*
X150211282Y-103416090D01*
X150305443Y-103383300D01*
X150439382Y-103299606D01*
X150452151Y-103291627D01*
X150458125Y-103287894D01*
X150550870Y-103195794D01*
X150580879Y-103165994D01*
X150580882Y-103165990D01*
X150585876Y-103161031D01*
X150591199Y-103152644D01*
X150678568Y-103014973D01*
X150678570Y-103014969D01*
X150682346Y-103009019D01*
X150714170Y-102919647D01*
X153286347Y-102919647D01*
X153310967Y-102991969D01*
X153316928Y-103004635D01*
X153403826Y-103145886D01*
X153412445Y-103156918D01*
X153528480Y-103275409D01*
X153539321Y-103284251D01*
X153678722Y-103374089D01*
X153691271Y-103380318D01*
X153847100Y-103437035D01*
X153860715Y-103440328D01*
X153988753Y-103456503D01*
X153996643Y-103457000D01*
X154499885Y-103457000D01*
X154515124Y-103452525D01*
X154516329Y-103451135D01*
X154518000Y-103443452D01*
X154518000Y-103438885D01*
X155026000Y-103438885D01*
X155030475Y-103454124D01*
X155031865Y-103455329D01*
X155039548Y-103457000D01*
X155542221Y-103457000D01*
X155549245Y-103456607D01*
X155672310Y-103442804D01*
X155685956Y-103439703D01*
X155842572Y-103385163D01*
X155855201Y-103379112D01*
X155995839Y-103291232D01*
X156006811Y-103282535D01*
X156124487Y-103165679D01*
X156133259Y-103154768D01*
X156222115Y-103014752D01*
X156228259Y-103002155D01*
X156255354Y-102926067D01*
X156256150Y-102911987D01*
X156250480Y-102909000D01*
X155044115Y-102909000D01*
X155028876Y-102913475D01*
X155027671Y-102914865D01*
X155026000Y-102922548D01*
X155026000Y-103438885D01*
X154518000Y-103438885D01*
X154518000Y-102927115D01*
X154513525Y-102911876D01*
X154512135Y-102910671D01*
X154504452Y-102909000D01*
X153300837Y-102909000D01*
X153287306Y-102912973D01*
X153286347Y-102919647D01*
X150714170Y-102919647D01*
X150742741Y-102839411D01*
X150743574Y-102832425D01*
X150743575Y-102832421D01*
X150763224Y-102667631D01*
X150764058Y-102660638D01*
X150745239Y-102481584D01*
X150687218Y-102311150D01*
X150592880Y-102157805D01*
X150587954Y-102152774D01*
X150587951Y-102152771D01*
X150544525Y-102108426D01*
X150511155Y-102045761D01*
X150516961Y-101975002D01*
X150545765Y-101930863D01*
X150580879Y-101895994D01*
X150580882Y-101895990D01*
X150585876Y-101891031D01*
X150592004Y-101881375D01*
X150678568Y-101744973D01*
X150678570Y-101744969D01*
X150682346Y-101739019D01*
X150714170Y-101649647D01*
X153286347Y-101649647D01*
X153310967Y-101721969D01*
X153316928Y-101734635D01*
X153403826Y-101875886D01*
X153412441Y-101886913D01*
X153456179Y-101931576D01*
X153489550Y-101994241D01*
X153483745Y-102065000D01*
X153454940Y-102109141D01*
X153419513Y-102144321D01*
X153410741Y-102155232D01*
X153321885Y-102295248D01*
X153315741Y-102307845D01*
X153288646Y-102383933D01*
X153287850Y-102398013D01*
X153293520Y-102401000D01*
X154499885Y-102401000D01*
X154515124Y-102396525D01*
X154516329Y-102395135D01*
X154518000Y-102387452D01*
X154518000Y-102382885D01*
X155026000Y-102382885D01*
X155030475Y-102398124D01*
X155031865Y-102399329D01*
X155039548Y-102401000D01*
X156243163Y-102401000D01*
X156256694Y-102397027D01*
X156257653Y-102390353D01*
X156233033Y-102318031D01*
X156227072Y-102305365D01*
X156140174Y-102164114D01*
X156131559Y-102153087D01*
X156087821Y-102108424D01*
X156054450Y-102045759D01*
X156060255Y-101975000D01*
X156089060Y-101930859D01*
X156124487Y-101895679D01*
X156133259Y-101884768D01*
X156222115Y-101744752D01*
X156228259Y-101732155D01*
X156255354Y-101656067D01*
X156256150Y-101641987D01*
X156250480Y-101639000D01*
X155044115Y-101639000D01*
X155028876Y-101643475D01*
X155027671Y-101644865D01*
X155026000Y-101652548D01*
X155026000Y-102382885D01*
X154518000Y-102382885D01*
X154518000Y-101657115D01*
X154513525Y-101641876D01*
X154512135Y-101640671D01*
X154504452Y-101639000D01*
X153300837Y-101639000D01*
X153287306Y-101642973D01*
X153286347Y-101649647D01*
X150714170Y-101649647D01*
X150742741Y-101569411D01*
X150743574Y-101562425D01*
X150743575Y-101562421D01*
X150759645Y-101427646D01*
X150764058Y-101390638D01*
X150745239Y-101211584D01*
X150697391Y-101071032D01*
X150689488Y-101047817D01*
X150689487Y-101047814D01*
X150687218Y-101041150D01*
X150592880Y-100887805D01*
X150587954Y-100882774D01*
X150587951Y-100882771D01*
X150544525Y-100838426D01*
X150511155Y-100775761D01*
X150516961Y-100705002D01*
X150545765Y-100660863D01*
X150549850Y-100656807D01*
X150556727Y-100649977D01*
X150580879Y-100625994D01*
X150580882Y-100625990D01*
X150585876Y-100621031D01*
X150593093Y-100609659D01*
X150678568Y-100474973D01*
X150678570Y-100474969D01*
X150682346Y-100469019D01*
X150726185Y-100345906D01*
X150740379Y-100306045D01*
X150740380Y-100306043D01*
X150742741Y-100299411D01*
X150743574Y-100292425D01*
X150743575Y-100292421D01*
X150762207Y-100136162D01*
X150764058Y-100120638D01*
X150745239Y-99941584D01*
X150739238Y-99923955D01*
X150689488Y-99777817D01*
X150689487Y-99777814D01*
X150687218Y-99771150D01*
X150592880Y-99617805D01*
X150587954Y-99612774D01*
X150587951Y-99612771D01*
X150544525Y-99568426D01*
X150511155Y-99505761D01*
X150516961Y-99435002D01*
X150545765Y-99390863D01*
X150580879Y-99355994D01*
X150580882Y-99355990D01*
X150585876Y-99351031D01*
X150592004Y-99341375D01*
X150678568Y-99204973D01*
X150678570Y-99204969D01*
X150682346Y-99199019D01*
X150742741Y-99029411D01*
X150743574Y-99022425D01*
X150743575Y-99022421D01*
X150763224Y-98857631D01*
X150764058Y-98850638D01*
X150745239Y-98671584D01*
X150715194Y-98583327D01*
X150689488Y-98507817D01*
X150689487Y-98507814D01*
X150687218Y-98501150D01*
X150592880Y-98347805D01*
X150505195Y-98258264D01*
X150471841Y-98224204D01*
X150471840Y-98224203D01*
X150466913Y-98219172D01*
X150315578Y-98121643D01*
X150308955Y-98119232D01*
X150308952Y-98119231D01*
X150153019Y-98062476D01*
X150153014Y-98062475D01*
X150146396Y-98060066D01*
X150007347Y-98042500D01*
X148454229Y-98042500D01*
X148320582Y-98057491D01*
X148313929Y-98059808D01*
X148313928Y-98059808D01*
X148306267Y-98062476D01*
X148150557Y-98116700D01*
X148144582Y-98120433D01*
X148144581Y-98120434D01*
X148137151Y-98125077D01*
X148072400Y-98165538D01*
X148004033Y-98184673D01*
X147936172Y-98163808D01*
X147916537Y-98147778D01*
X146495405Y-96726645D01*
X146461379Y-96664333D01*
X146458500Y-96637550D01*
X146458500Y-96099600D01*
X146454076Y-96056961D01*
X146448238Y-96000692D01*
X146448237Y-96000688D01*
X146447526Y-95993834D01*
X146438069Y-95965486D01*
X146393868Y-95833002D01*
X146391550Y-95826054D01*
X146298478Y-95675652D01*
X146250180Y-95627438D01*
X146211537Y-95588862D01*
X146177458Y-95526579D01*
X146182461Y-95455759D01*
X146211382Y-95410671D01*
X146211409Y-95410644D01*
X151844992Y-95410644D01*
X151845329Y-95417163D01*
X151855248Y-95512755D01*
X151858140Y-95526149D01*
X151909579Y-95680333D01*
X151915752Y-95693511D01*
X152001054Y-95831356D01*
X152010090Y-95842757D01*
X152124820Y-95957288D01*
X152136231Y-95966300D01*
X152274234Y-96051365D01*
X152287415Y-96057512D01*
X152441701Y-96108687D01*
X152455077Y-96111554D01*
X152549429Y-96121221D01*
X152555845Y-96121549D01*
X152580876Y-96121549D01*
X152596115Y-96117074D01*
X152597320Y-96115684D01*
X152598991Y-96108001D01*
X152598991Y-95160664D01*
X152594516Y-95145425D01*
X152593126Y-95144220D01*
X152585443Y-95142549D01*
X151863107Y-95142549D01*
X151847868Y-95147024D01*
X151846663Y-95148414D01*
X151844992Y-95156097D01*
X151844992Y-95410644D01*
X146211409Y-95410644D01*
X146293739Y-95328171D01*
X146302751Y-95316760D01*
X146387816Y-95178757D01*
X146393963Y-95165576D01*
X146445138Y-95011290D01*
X146448005Y-94997914D01*
X146457672Y-94903562D01*
X146458000Y-94897146D01*
X146458000Y-94859615D01*
X146453525Y-94844376D01*
X146452135Y-94843171D01*
X146444452Y-94841500D01*
X145122000Y-94841500D01*
X145053879Y-94821498D01*
X145007386Y-94767842D01*
X144996000Y-94715500D01*
X144996000Y-94616434D01*
X151844991Y-94616434D01*
X151849466Y-94631673D01*
X151850856Y-94632878D01*
X151858539Y-94634549D01*
X152580876Y-94634549D01*
X152596115Y-94630074D01*
X152597320Y-94628684D01*
X152598991Y-94621001D01*
X152598991Y-93673665D01*
X152594516Y-93658426D01*
X152593126Y-93657221D01*
X152585443Y-93655550D01*
X152555896Y-93655550D01*
X152549377Y-93655887D01*
X152453785Y-93665806D01*
X152440391Y-93668698D01*
X152286207Y-93720137D01*
X152273029Y-93726310D01*
X152135184Y-93811612D01*
X152123783Y-93820648D01*
X152009252Y-93935378D01*
X152000240Y-93946789D01*
X151915175Y-94084792D01*
X151909028Y-94097973D01*
X151857853Y-94252259D01*
X151854986Y-94265635D01*
X151845319Y-94359987D01*
X151844991Y-94366404D01*
X151844991Y-94616434D01*
X144996000Y-94616434D01*
X144996000Y-94315385D01*
X145504000Y-94315385D01*
X145508475Y-94330624D01*
X145509865Y-94331829D01*
X145517548Y-94333500D01*
X146439884Y-94333500D01*
X146455123Y-94329025D01*
X146456328Y-94327635D01*
X146457999Y-94319952D01*
X146457999Y-94277905D01*
X146457662Y-94271386D01*
X146447743Y-94175794D01*
X146444851Y-94162400D01*
X146393412Y-94008216D01*
X146387239Y-93995038D01*
X146301937Y-93857193D01*
X146292901Y-93845792D01*
X146178171Y-93731261D01*
X146166760Y-93722249D01*
X146028757Y-93637184D01*
X146015576Y-93631037D01*
X145861290Y-93579862D01*
X145847914Y-93576995D01*
X145753562Y-93567328D01*
X145747145Y-93567000D01*
X145522115Y-93567000D01*
X145506876Y-93571475D01*
X145505671Y-93572865D01*
X145504000Y-93580548D01*
X145504000Y-94315385D01*
X144996000Y-94315385D01*
X144996000Y-93585116D01*
X144991525Y-93569877D01*
X144990135Y-93568672D01*
X144982452Y-93567001D01*
X144752905Y-93567001D01*
X144746386Y-93567338D01*
X144650794Y-93577257D01*
X144637400Y-93580149D01*
X144483216Y-93631588D01*
X144470038Y-93637761D01*
X144332193Y-93723063D01*
X144320792Y-93732099D01*
X144214613Y-93838462D01*
X144152330Y-93872541D01*
X144081510Y-93867538D01*
X144036422Y-93838617D01*
X143928483Y-93730866D01*
X143923303Y-93725695D01*
X143916277Y-93721364D01*
X143778968Y-93636725D01*
X143778966Y-93636724D01*
X143772738Y-93632885D01*
X143650697Y-93592406D01*
X143611389Y-93579368D01*
X143611387Y-93579368D01*
X143604861Y-93577203D01*
X143598025Y-93576503D01*
X143598022Y-93576502D01*
X143554969Y-93572091D01*
X143500400Y-93566500D01*
X142499600Y-93566500D01*
X142496354Y-93566837D01*
X142496350Y-93566837D01*
X142400692Y-93576762D01*
X142400688Y-93576763D01*
X142393834Y-93577474D01*
X142387298Y-93579655D01*
X142387296Y-93579655D01*
X142268353Y-93619338D01*
X142226054Y-93633450D01*
X142075652Y-93726522D01*
X142070479Y-93731704D01*
X141964259Y-93838109D01*
X141901976Y-93872188D01*
X141831156Y-93867185D01*
X141786068Y-93838264D01*
X141768422Y-93820648D01*
X141724204Y-93776507D01*
X141695482Y-93747835D01*
X141661403Y-93685552D01*
X141658500Y-93658662D01*
X141658500Y-91784500D01*
X141678502Y-91716379D01*
X141732158Y-91669886D01*
X141784500Y-91658500D01*
X145598583Y-91658500D01*
X145618292Y-91660051D01*
X145632190Y-91662252D01*
X145638777Y-91661907D01*
X145638782Y-91661907D01*
X145700480Y-91658673D01*
X145707074Y-91658500D01*
X145727610Y-91658500D01*
X145730882Y-91658156D01*
X145730884Y-91658156D01*
X145748042Y-91656353D01*
X145754616Y-91655836D01*
X145816308Y-91652603D01*
X145816312Y-91652602D01*
X145822903Y-91652257D01*
X145829284Y-91650547D01*
X145829286Y-91650547D01*
X145836491Y-91648617D01*
X145855925Y-91645015D01*
X145863354Y-91644234D01*
X145863363Y-91644232D01*
X145869928Y-91643542D01*
X145934997Y-91622400D01*
X145941299Y-91620533D01*
X146007370Y-91602829D01*
X146019908Y-91596440D01*
X146038174Y-91588875D01*
X146045272Y-91586569D01*
X146045274Y-91586568D01*
X146051556Y-91584527D01*
X146110785Y-91550331D01*
X146116579Y-91547185D01*
X146122463Y-91544187D01*
X146177530Y-91516129D01*
X146188467Y-91507273D01*
X146204763Y-91496073D01*
X146211224Y-91492343D01*
X146211228Y-91492340D01*
X146216944Y-91489040D01*
X146221850Y-91484623D01*
X146221855Y-91484619D01*
X146267769Y-91443278D01*
X146272784Y-91438994D01*
X146286177Y-91428148D01*
X146288741Y-91426072D01*
X146303256Y-91411557D01*
X146308041Y-91407016D01*
X146353957Y-91365673D01*
X146358866Y-91361253D01*
X146367140Y-91349865D01*
X146379981Y-91334832D01*
X150375905Y-87338908D01*
X150438217Y-87304882D01*
X150509032Y-87309947D01*
X150554095Y-87338908D01*
X153807586Y-90592399D01*
X153841612Y-90654711D01*
X153844491Y-90681494D01*
X153844491Y-93778864D01*
X153824489Y-93846985D01*
X153770833Y-93893478D01*
X153700559Y-93903582D01*
X153635979Y-93874088D01*
X153629473Y-93868037D01*
X153581162Y-93819810D01*
X153569751Y-93810798D01*
X153431748Y-93725733D01*
X153418567Y-93719586D01*
X153264281Y-93668411D01*
X153250905Y-93665544D01*
X153156553Y-93655877D01*
X153150136Y-93655549D01*
X153125106Y-93655549D01*
X153109867Y-93660024D01*
X153108662Y-93661414D01*
X153106991Y-93669097D01*
X153106991Y-96103433D01*
X153111466Y-96118672D01*
X153112856Y-96119877D01*
X153120539Y-96121548D01*
X153150086Y-96121548D01*
X153156605Y-96121211D01*
X153252197Y-96111292D01*
X153265591Y-96108400D01*
X153419775Y-96056961D01*
X153432953Y-96050788D01*
X153570798Y-95965486D01*
X153582199Y-95956450D01*
X153648327Y-95890207D01*
X153710610Y-95856128D01*
X153781430Y-95861131D01*
X153838303Y-95903628D01*
X153863171Y-95970127D01*
X153863500Y-95979225D01*
X153863500Y-97968325D01*
X153843498Y-98036446D01*
X153789842Y-98082939D01*
X153778958Y-98087308D01*
X153694557Y-98116700D01*
X153541875Y-98212106D01*
X153498272Y-98255406D01*
X153419121Y-98334006D01*
X153419118Y-98334010D01*
X153414124Y-98338969D01*
X153410350Y-98344915D01*
X153410349Y-98344917D01*
X153321432Y-98485027D01*
X153321430Y-98485031D01*
X153317654Y-98490981D01*
X153311659Y-98507817D01*
X153278334Y-98601405D01*
X153257259Y-98660589D01*
X153256426Y-98667575D01*
X153256425Y-98667579D01*
X153246197Y-98753357D01*
X153235942Y-98839362D01*
X153236678Y-98846365D01*
X153236678Y-98846366D01*
X153239645Y-98874598D01*
X153254761Y-99018416D01*
X153257031Y-99025084D01*
X153309183Y-99178277D01*
X153312782Y-99188850D01*
X153407120Y-99342195D01*
X153412046Y-99347226D01*
X153412049Y-99347229D01*
X153455475Y-99391574D01*
X153488845Y-99454239D01*
X153483039Y-99524998D01*
X153454235Y-99569137D01*
X153419121Y-99604006D01*
X153419118Y-99604010D01*
X153414124Y-99608969D01*
X153410350Y-99614915D01*
X153410349Y-99614917D01*
X153321432Y-99755027D01*
X153321430Y-99755031D01*
X153317654Y-99760981D01*
X153257259Y-99930589D01*
X153256426Y-99937575D01*
X153256425Y-99937579D01*
X153243897Y-100042651D01*
X153235942Y-100109362D01*
X153236678Y-100116365D01*
X153236678Y-100116366D01*
X153237127Y-100120638D01*
X153254761Y-100288416D01*
X153257031Y-100295084D01*
X153300900Y-100423946D01*
X153312782Y-100458850D01*
X153407120Y-100612195D01*
X153412049Y-100617228D01*
X153455825Y-100661931D01*
X153489195Y-100724596D01*
X153483389Y-100795354D01*
X153454585Y-100839494D01*
X153419513Y-100874322D01*
X153410741Y-100885232D01*
X153321885Y-101025248D01*
X153315741Y-101037845D01*
X153288646Y-101113933D01*
X153287850Y-101128013D01*
X153293520Y-101131000D01*
X156243163Y-101131000D01*
X156256694Y-101127027D01*
X156257653Y-101120353D01*
X156233033Y-101048031D01*
X156227072Y-101035365D01*
X156184105Y-100965522D01*
X156165447Y-100897021D01*
X156186786Y-100829307D01*
X156241346Y-100783879D01*
X156291423Y-100773500D01*
X158803259Y-100773500D01*
X158822969Y-100775051D01*
X158844152Y-100778406D01*
X158890141Y-100774059D01*
X158901996Y-100773500D01*
X161440050Y-100773500D01*
X161508171Y-100793502D01*
X161529145Y-100810405D01*
X162842101Y-102123361D01*
X162876127Y-102185673D01*
X162874424Y-102246125D01*
X162860989Y-102294570D01*
X162837251Y-102516695D01*
X162837548Y-102521848D01*
X162837548Y-102521851D01*
X162845954Y-102667631D01*
X162850110Y-102739715D01*
X162851247Y-102744761D01*
X162851248Y-102744767D01*
X162866280Y-102811468D01*
X162899222Y-102957639D01*
X162937461Y-103051811D01*
X162975661Y-103145886D01*
X162983266Y-103164616D01*
X163000030Y-103191972D01*
X163066558Y-103300536D01*
X163099987Y-103355088D01*
X163246250Y-103523938D01*
X163418126Y-103666632D01*
X163611000Y-103779338D01*
X163819692Y-103859030D01*
X163824760Y-103860061D01*
X163824763Y-103860062D01*
X163932017Y-103881883D01*
X164038597Y-103903567D01*
X164043772Y-103903757D01*
X164043774Y-103903757D01*
X164256673Y-103911564D01*
X164256677Y-103911564D01*
X164261837Y-103911753D01*
X164266957Y-103911097D01*
X164266959Y-103911097D01*
X164478288Y-103884025D01*
X164478289Y-103884025D01*
X164483416Y-103883368D01*
X164488366Y-103881883D01*
X164692429Y-103820661D01*
X164692434Y-103820659D01*
X164697384Y-103819174D01*
X164897994Y-103720896D01*
X165079860Y-103591173D01*
X165238096Y-103433489D01*
X165297594Y-103350689D01*
X165365435Y-103256277D01*
X165368453Y-103252077D01*
X165370958Y-103247010D01*
X165465136Y-103056453D01*
X165465137Y-103056451D01*
X165467430Y-103051811D01*
X165532370Y-102838069D01*
X165561529Y-102616590D01*
X165561611Y-102613240D01*
X165563074Y-102553365D01*
X165563074Y-102553361D01*
X165563156Y-102550000D01*
X165544852Y-102327361D01*
X165490431Y-102110702D01*
X165401354Y-101905840D01*
X165329912Y-101795408D01*
X165282822Y-101722617D01*
X165282820Y-101722614D01*
X165280014Y-101718277D01*
X165129670Y-101553051D01*
X165125619Y-101549852D01*
X165125615Y-101549848D01*
X164958414Y-101417800D01*
X164958410Y-101417798D01*
X164954359Y-101414598D01*
X164913053Y-101391796D01*
X164863084Y-101341364D01*
X164848312Y-101271921D01*
X164873428Y-101205516D01*
X164900780Y-101178909D01*
X164967946Y-101131000D01*
X165079860Y-101051173D01*
X165095724Y-101035365D01*
X165183248Y-100948146D01*
X165238096Y-100893489D01*
X165242181Y-100887805D01*
X165365435Y-100716277D01*
X165368453Y-100712077D01*
X165372269Y-100704357D01*
X165465136Y-100516453D01*
X165465137Y-100516451D01*
X165467430Y-100511811D01*
X165517836Y-100345906D01*
X165530865Y-100303023D01*
X165530865Y-100303021D01*
X165532370Y-100298069D01*
X165561529Y-100076590D01*
X165563156Y-100010000D01*
X165544852Y-99787361D01*
X165490431Y-99570702D01*
X165401354Y-99365840D01*
X165323847Y-99246032D01*
X165282822Y-99182617D01*
X165282820Y-99182614D01*
X165280014Y-99178277D01*
X165129670Y-99013051D01*
X165125619Y-99009852D01*
X165125615Y-99009848D01*
X164958414Y-98877800D01*
X164958410Y-98877798D01*
X164954359Y-98874598D01*
X164913053Y-98851796D01*
X164863084Y-98801364D01*
X164848312Y-98731921D01*
X164873428Y-98665516D01*
X164900780Y-98638909D01*
X164953359Y-98601405D01*
X165079860Y-98511173D01*
X165093458Y-98497623D01*
X165185457Y-98405944D01*
X165238096Y-98353489D01*
X165242181Y-98347805D01*
X165365435Y-98176277D01*
X165368453Y-98172077D01*
X165371686Y-98165537D01*
X165465136Y-97976453D01*
X165465137Y-97976451D01*
X165467430Y-97971811D01*
X165532370Y-97758069D01*
X165561529Y-97536590D01*
X165561611Y-97533240D01*
X165563074Y-97473365D01*
X165563074Y-97473361D01*
X165563156Y-97470000D01*
X165544852Y-97247361D01*
X165490431Y-97030702D01*
X165401354Y-96825840D01*
X165313307Y-96689740D01*
X165282822Y-96642617D01*
X165282820Y-96642614D01*
X165280014Y-96638277D01*
X165129670Y-96473051D01*
X165125619Y-96469852D01*
X165125615Y-96469848D01*
X164958414Y-96337800D01*
X164958410Y-96337798D01*
X164954359Y-96334598D01*
X164913053Y-96311796D01*
X164863084Y-96261364D01*
X164848312Y-96191921D01*
X164873428Y-96125516D01*
X164900780Y-96098909D01*
X164968243Y-96050788D01*
X165079860Y-95971173D01*
X165116393Y-95934768D01*
X165186871Y-95864535D01*
X165238096Y-95813489D01*
X165253295Y-95792338D01*
X165365435Y-95636277D01*
X165368453Y-95632077D01*
X165412040Y-95543886D01*
X165465136Y-95436453D01*
X165465137Y-95436451D01*
X165467430Y-95431811D01*
X165532370Y-95218069D01*
X165561529Y-94996590D01*
X165561727Y-94988501D01*
X165563074Y-94933365D01*
X165563074Y-94933361D01*
X165563156Y-94930000D01*
X165544852Y-94707361D01*
X165490431Y-94490702D01*
X165401354Y-94285840D01*
X165326504Y-94170139D01*
X165282822Y-94102617D01*
X165282820Y-94102614D01*
X165280014Y-94098277D01*
X165129670Y-93933051D01*
X165125619Y-93929852D01*
X165125615Y-93929848D01*
X164958414Y-93797800D01*
X164958410Y-93797798D01*
X164954359Y-93794598D01*
X164913053Y-93771796D01*
X164863084Y-93721364D01*
X164848312Y-93651921D01*
X164873428Y-93585516D01*
X164900780Y-93558909D01*
X164944603Y-93527650D01*
X165079860Y-93431173D01*
X165238096Y-93273489D01*
X165273190Y-93224651D01*
X165365435Y-93096277D01*
X165368453Y-93092077D01*
X165430402Y-92966733D01*
X165465136Y-92896453D01*
X165465137Y-92896451D01*
X165467430Y-92891811D01*
X165532370Y-92678069D01*
X165561529Y-92456590D01*
X165561611Y-92453240D01*
X165563074Y-92393365D01*
X165563074Y-92393361D01*
X165563156Y-92390000D01*
X165544852Y-92167361D01*
X165490431Y-91950702D01*
X165401354Y-91745840D01*
X165352217Y-91669886D01*
X165282822Y-91562617D01*
X165282820Y-91562614D01*
X165280014Y-91558277D01*
X165129670Y-91393051D01*
X165125619Y-91389852D01*
X165125615Y-91389848D01*
X164958414Y-91257800D01*
X164958410Y-91257798D01*
X164954359Y-91254598D01*
X164913053Y-91231796D01*
X164863084Y-91181364D01*
X164848312Y-91111921D01*
X164873428Y-91045516D01*
X164900780Y-91018909D01*
X164944603Y-90987650D01*
X165079860Y-90891173D01*
X165104321Y-90866798D01*
X165216828Y-90754683D01*
X165238096Y-90733489D01*
X165241162Y-90729223D01*
X165365435Y-90556277D01*
X165368453Y-90552077D01*
X165373037Y-90542803D01*
X165465136Y-90356453D01*
X165465137Y-90356451D01*
X165467430Y-90351811D01*
X165532370Y-90138069D01*
X165561529Y-89916590D01*
X165562061Y-89894817D01*
X165563074Y-89853365D01*
X165563074Y-89853361D01*
X165563156Y-89850000D01*
X165544852Y-89627361D01*
X165490431Y-89410702D01*
X165401354Y-89205840D01*
X165347674Y-89122863D01*
X165282822Y-89022617D01*
X165282820Y-89022614D01*
X165280014Y-89018277D01*
X165129670Y-88853051D01*
X165125619Y-88849852D01*
X165125615Y-88849848D01*
X164958414Y-88717800D01*
X164958410Y-88717798D01*
X164954359Y-88714598D01*
X164913053Y-88691796D01*
X164863084Y-88641364D01*
X164848312Y-88571921D01*
X164873428Y-88505516D01*
X164900780Y-88478909D01*
X164944603Y-88447650D01*
X165079860Y-88351173D01*
X165238096Y-88193489D01*
X165297594Y-88110689D01*
X165365435Y-88016277D01*
X165368453Y-88012077D01*
X165467430Y-87811811D01*
X165532370Y-87598069D01*
X165561529Y-87376590D01*
X165563156Y-87310000D01*
X165544852Y-87087361D01*
X165490431Y-86870702D01*
X165401354Y-86665840D01*
X165280014Y-86478277D01*
X165129670Y-86313051D01*
X165125619Y-86309852D01*
X165125615Y-86309848D01*
X164958414Y-86177800D01*
X164958410Y-86177798D01*
X164954359Y-86174598D01*
X164913053Y-86151796D01*
X164863084Y-86101364D01*
X164848312Y-86031921D01*
X164873428Y-85965516D01*
X164900780Y-85938909D01*
X164944603Y-85907650D01*
X165079860Y-85811173D01*
X165238096Y-85653489D01*
X165297594Y-85570689D01*
X165365435Y-85476277D01*
X165368453Y-85472077D01*
X165467430Y-85271811D01*
X165532370Y-85058069D01*
X165561529Y-84836590D01*
X165563156Y-84770000D01*
X165544852Y-84547361D01*
X165490431Y-84330702D01*
X165401354Y-84125840D01*
X165360843Y-84063220D01*
X165282822Y-83942617D01*
X165282820Y-83942614D01*
X165280014Y-83938277D01*
X165129670Y-83773051D01*
X165125619Y-83769852D01*
X165125615Y-83769848D01*
X164958414Y-83637800D01*
X164958410Y-83637798D01*
X164954359Y-83634598D01*
X164912569Y-83611529D01*
X164862598Y-83561097D01*
X164847826Y-83491654D01*
X164872942Y-83425248D01*
X164900294Y-83398641D01*
X165075328Y-83273792D01*
X165083200Y-83267139D01*
X165234052Y-83116812D01*
X165240730Y-83108965D01*
X165365003Y-82936020D01*
X165370313Y-82927183D01*
X165464670Y-82736267D01*
X165468469Y-82726672D01*
X165530377Y-82522910D01*
X165532555Y-82512837D01*
X165533986Y-82501962D01*
X165531775Y-82487778D01*
X165518617Y-82484000D01*
X162883225Y-82484000D01*
X162869694Y-82487973D01*
X162868257Y-82497966D01*
X162898565Y-82632446D01*
X162901645Y-82642275D01*
X162981770Y-82839603D01*
X162986413Y-82848794D01*
X163097694Y-83030388D01*
X163103777Y-83038699D01*
X163243213Y-83199667D01*
X163250580Y-83206883D01*
X163414434Y-83342916D01*
X163422881Y-83348831D01*
X163491969Y-83389203D01*
X163540693Y-83440842D01*
X163553764Y-83510625D01*
X163527033Y-83576396D01*
X163486584Y-83609752D01*
X163473607Y-83616507D01*
X163469474Y-83619610D01*
X163469471Y-83619612D01*
X163316432Y-83734517D01*
X163294965Y-83750635D01*
X163140629Y-83912138D01*
X163014743Y-84096680D01*
X162999003Y-84130590D01*
X162954603Y-84226242D01*
X162920688Y-84299305D01*
X162860989Y-84514570D01*
X162837251Y-84736695D01*
X162837548Y-84741848D01*
X162837548Y-84741851D01*
X162842866Y-84834076D01*
X162850110Y-84959715D01*
X162851247Y-84964761D01*
X162851248Y-84964767D01*
X162871119Y-85052939D01*
X162899222Y-85177639D01*
X162983266Y-85384616D01*
X163099987Y-85575088D01*
X163246250Y-85743938D01*
X163418126Y-85886632D01*
X163476885Y-85920968D01*
X163491445Y-85929476D01*
X163540169Y-85981114D01*
X163553240Y-86050897D01*
X163526509Y-86116669D01*
X163486055Y-86150027D01*
X163473607Y-86156507D01*
X163469474Y-86159610D01*
X163469471Y-86159612D01*
X163445247Y-86177800D01*
X163294965Y-86290635D01*
X163140629Y-86452138D01*
X163014743Y-86636680D01*
X162920688Y-86839305D01*
X162860989Y-87054570D01*
X162837251Y-87276695D01*
X162837548Y-87281848D01*
X162837548Y-87281851D01*
X162843011Y-87376590D01*
X162850110Y-87499715D01*
X162851247Y-87504761D01*
X162851248Y-87504767D01*
X162871119Y-87592939D01*
X162899222Y-87717639D01*
X162983266Y-87924616D01*
X163099987Y-88115088D01*
X163246250Y-88283938D01*
X163418126Y-88426632D01*
X163488595Y-88467811D01*
X163491445Y-88469476D01*
X163540169Y-88521114D01*
X163553240Y-88590897D01*
X163526509Y-88656669D01*
X163486055Y-88690027D01*
X163473607Y-88696507D01*
X163469474Y-88699610D01*
X163469471Y-88699612D01*
X163299100Y-88827530D01*
X163294965Y-88830635D01*
X163140629Y-88992138D01*
X163014743Y-89176680D01*
X162920688Y-89379305D01*
X162860989Y-89594570D01*
X162837251Y-89816695D01*
X162837548Y-89821848D01*
X162837548Y-89821851D01*
X162843533Y-89925646D01*
X162850110Y-90039715D01*
X162851247Y-90044761D01*
X162851248Y-90044767D01*
X162868322Y-90120529D01*
X162899222Y-90257639D01*
X162983266Y-90464616D01*
X162985965Y-90469020D01*
X163084187Y-90629304D01*
X163099987Y-90655088D01*
X163246250Y-90823938D01*
X163418126Y-90966632D01*
X163474560Y-90999609D01*
X163491445Y-91009476D01*
X163540169Y-91061114D01*
X163553240Y-91130897D01*
X163526509Y-91196669D01*
X163486055Y-91230027D01*
X163473607Y-91236507D01*
X163469474Y-91239610D01*
X163469471Y-91239612D01*
X163299100Y-91367530D01*
X163294965Y-91370635D01*
X163258090Y-91409222D01*
X163153065Y-91519125D01*
X163140629Y-91532138D01*
X163137715Y-91536410D01*
X163137714Y-91536411D01*
X163062711Y-91646361D01*
X163014743Y-91716680D01*
X162975461Y-91801306D01*
X162931183Y-91896696D01*
X162920688Y-91919305D01*
X162860989Y-92134570D01*
X162837251Y-92356695D01*
X162837548Y-92361848D01*
X162837548Y-92361851D01*
X162843011Y-92456590D01*
X162850110Y-92579715D01*
X162851247Y-92584761D01*
X162851248Y-92584767D01*
X162859103Y-92619620D01*
X162899222Y-92797639D01*
X162945806Y-92912363D01*
X162971914Y-92976658D01*
X162983266Y-93004616D01*
X163024817Y-93072421D01*
X163074821Y-93154020D01*
X163099987Y-93195088D01*
X163246250Y-93363938D01*
X163418126Y-93506632D01*
X163488595Y-93547811D01*
X163491445Y-93549476D01*
X163540169Y-93601114D01*
X163553240Y-93670897D01*
X163526509Y-93736669D01*
X163486055Y-93770027D01*
X163473607Y-93776507D01*
X163469474Y-93779610D01*
X163469471Y-93779612D01*
X163299100Y-93907530D01*
X163294965Y-93910635D01*
X163291393Y-93914373D01*
X163208559Y-94001054D01*
X163140629Y-94072138D01*
X163137715Y-94076410D01*
X163137714Y-94076411D01*
X163122798Y-94098277D01*
X163014743Y-94256680D01*
X162920688Y-94459305D01*
X162860989Y-94674570D01*
X162837251Y-94896695D01*
X162837548Y-94901848D01*
X162837548Y-94901851D01*
X162847914Y-95081635D01*
X162850110Y-95119715D01*
X162851247Y-95124761D01*
X162851248Y-95124767D01*
X162865613Y-95188507D01*
X162899222Y-95337639D01*
X162983266Y-95544616D01*
X162985965Y-95549020D01*
X163074509Y-95693511D01*
X163099987Y-95735088D01*
X163246250Y-95903938D01*
X163418126Y-96046632D01*
X163426226Y-96051365D01*
X163491445Y-96089476D01*
X163540169Y-96141114D01*
X163553240Y-96210897D01*
X163526509Y-96276669D01*
X163486055Y-96310027D01*
X163473607Y-96316507D01*
X163469474Y-96319610D01*
X163469471Y-96319612D01*
X163445247Y-96337800D01*
X163294965Y-96450635D01*
X163140629Y-96612138D01*
X163137715Y-96616410D01*
X163137714Y-96616411D01*
X163062518Y-96726645D01*
X163014743Y-96796680D01*
X162920688Y-96999305D01*
X162860989Y-97214570D01*
X162837251Y-97436695D01*
X162837548Y-97441848D01*
X162837548Y-97441851D01*
X162843011Y-97536590D01*
X162850110Y-97659715D01*
X162851247Y-97664761D01*
X162851248Y-97664767D01*
X162857273Y-97691500D01*
X162899222Y-97877639D01*
X162936920Y-97970479D01*
X162973193Y-98059808D01*
X162983266Y-98084616D01*
X163029673Y-98160346D01*
X163089145Y-98257395D01*
X163099987Y-98275088D01*
X163246250Y-98443938D01*
X163418126Y-98586632D01*
X163443407Y-98601405D01*
X163491445Y-98629476D01*
X163540169Y-98681114D01*
X163553240Y-98750897D01*
X163526509Y-98816669D01*
X163486055Y-98850027D01*
X163473607Y-98856507D01*
X163469474Y-98859610D01*
X163469471Y-98859612D01*
X163306860Y-98981704D01*
X163294965Y-98990635D01*
X163288708Y-98997183D01*
X163191115Y-99099308D01*
X163140629Y-99152138D01*
X163137715Y-99156410D01*
X163137714Y-99156411D01*
X163108649Y-99199019D01*
X163014743Y-99336680D01*
X162979741Y-99412085D01*
X162926021Y-99527817D01*
X162920688Y-99539305D01*
X162860989Y-99754570D01*
X162860440Y-99759707D01*
X162838293Y-99966945D01*
X162811165Y-100032555D01*
X162752873Y-100073083D01*
X162681923Y-100075662D01*
X162623911Y-100042651D01*
X162288655Y-99707395D01*
X162280665Y-99698615D01*
X162280663Y-99698613D01*
X162276416Y-99691920D01*
X162239142Y-99656917D01*
X162224743Y-99643396D01*
X162221901Y-99640641D01*
X162201333Y-99620073D01*
X162197826Y-99617353D01*
X162188804Y-99609647D01*
X162160913Y-99583456D01*
X162155133Y-99578028D01*
X162148181Y-99574206D01*
X162136342Y-99567697D01*
X162119818Y-99556843D01*
X162109132Y-99548555D01*
X162102868Y-99543696D01*
X162095596Y-99540549D01*
X162095594Y-99540548D01*
X162060465Y-99525346D01*
X162049805Y-99520124D01*
X162016284Y-99501695D01*
X162016282Y-99501694D01*
X162009337Y-99497876D01*
X161988559Y-99492541D01*
X161969869Y-99486142D01*
X161950176Y-99477620D01*
X161904552Y-99470394D01*
X161892929Y-99467987D01*
X161864928Y-99460798D01*
X161848188Y-99456500D01*
X161826741Y-99456500D01*
X161807031Y-99454949D01*
X161793677Y-99452834D01*
X161785848Y-99451594D01*
X161739859Y-99455941D01*
X161728004Y-99456500D01*
X160028270Y-99456500D01*
X159960149Y-99436498D01*
X159913656Y-99382842D01*
X159903552Y-99312568D01*
X159913834Y-99278060D01*
X159917115Y-99272738D01*
X159921603Y-99259209D01*
X159970632Y-99111389D01*
X159970632Y-99111387D01*
X159972797Y-99104861D01*
X159983500Y-99000400D01*
X159983500Y-98399600D01*
X159979094Y-98357137D01*
X159973238Y-98300692D01*
X159973237Y-98300688D01*
X159972526Y-98293834D01*
X159966457Y-98275641D01*
X159918868Y-98133002D01*
X159916550Y-98126054D01*
X159823478Y-97975652D01*
X159698303Y-97850695D01*
X159693765Y-97847898D01*
X159653176Y-97790647D01*
X159649946Y-97719724D01*
X159685572Y-97658313D01*
X159694068Y-97650938D01*
X159704207Y-97642902D01*
X159818739Y-97528171D01*
X159827751Y-97516760D01*
X159912816Y-97378757D01*
X159918963Y-97365576D01*
X159970138Y-97211290D01*
X159973005Y-97197914D01*
X159982672Y-97103562D01*
X159983000Y-97097146D01*
X159983000Y-97072115D01*
X159978525Y-97056876D01*
X159977135Y-97055671D01*
X159969452Y-97054000D01*
X157535116Y-97054000D01*
X157519877Y-97058475D01*
X157518672Y-97059865D01*
X157517001Y-97067548D01*
X157517001Y-97097095D01*
X157517338Y-97103614D01*
X157527257Y-97199206D01*
X157530149Y-97212600D01*
X157581588Y-97366784D01*
X157587761Y-97379962D01*
X157673063Y-97517807D01*
X157682099Y-97529208D01*
X157796828Y-97643738D01*
X157805762Y-97650794D01*
X157846823Y-97708712D01*
X157850053Y-97779635D01*
X157814426Y-97841046D01*
X157806593Y-97847846D01*
X157800652Y-97851522D01*
X157675695Y-97976697D01*
X157671855Y-97982927D01*
X157671854Y-97982928D01*
X157589396Y-98116700D01*
X157582885Y-98127262D01*
X157580581Y-98134209D01*
X157533854Y-98275088D01*
X157527203Y-98295139D01*
X157516500Y-98399600D01*
X157516500Y-99000400D01*
X157516837Y-99003646D01*
X157516837Y-99003650D01*
X157526473Y-99096517D01*
X157527474Y-99106166D01*
X157529655Y-99112702D01*
X157529655Y-99112704D01*
X157576216Y-99252262D01*
X157583450Y-99273946D01*
X157585994Y-99278057D01*
X157596625Y-99347221D01*
X157567759Y-99412085D01*
X157508408Y-99451046D01*
X157471739Y-99456500D01*
X156292136Y-99456500D01*
X156224015Y-99436498D01*
X156177522Y-99382842D01*
X156167418Y-99312568D01*
X156185750Y-99262988D01*
X156226346Y-99199019D01*
X156286741Y-99029411D01*
X156287574Y-99022425D01*
X156287575Y-99022421D01*
X156307224Y-98857631D01*
X156308058Y-98850638D01*
X156289239Y-98671584D01*
X156259194Y-98583327D01*
X156233488Y-98507817D01*
X156233487Y-98507814D01*
X156231218Y-98501150D01*
X156136880Y-98347805D01*
X156049195Y-98258264D01*
X156015841Y-98224204D01*
X156015840Y-98224203D01*
X156010913Y-98219172D01*
X155859578Y-98121643D01*
X155763405Y-98086639D01*
X155706234Y-98044545D01*
X155680896Y-97978223D01*
X155680500Y-97968238D01*
X155680500Y-96527885D01*
X157517000Y-96527885D01*
X157521475Y-96543124D01*
X157522865Y-96544329D01*
X157530548Y-96546000D01*
X158477885Y-96546000D01*
X158493124Y-96541525D01*
X158494329Y-96540135D01*
X158496000Y-96532452D01*
X158496000Y-96527885D01*
X159004000Y-96527885D01*
X159008475Y-96543124D01*
X159009865Y-96544329D01*
X159017548Y-96546000D01*
X159964884Y-96546000D01*
X159980123Y-96541525D01*
X159981328Y-96540135D01*
X159982999Y-96532452D01*
X159982999Y-96502905D01*
X159982662Y-96496386D01*
X159972743Y-96400794D01*
X159969851Y-96387400D01*
X159918412Y-96233216D01*
X159912239Y-96220038D01*
X159826937Y-96082193D01*
X159817901Y-96070792D01*
X159703171Y-95956261D01*
X159691760Y-95947249D01*
X159553757Y-95862184D01*
X159540576Y-95856037D01*
X159386290Y-95804862D01*
X159372914Y-95801995D01*
X159278562Y-95792328D01*
X159272145Y-95792000D01*
X159022115Y-95792000D01*
X159006876Y-95796475D01*
X159005671Y-95797865D01*
X159004000Y-95805548D01*
X159004000Y-96527885D01*
X158496000Y-96527885D01*
X158496000Y-95810116D01*
X158491525Y-95794877D01*
X158490135Y-95793672D01*
X158482452Y-95792001D01*
X158227905Y-95792001D01*
X158221386Y-95792338D01*
X158125794Y-95802257D01*
X158112400Y-95805149D01*
X157958216Y-95856588D01*
X157945038Y-95862761D01*
X157807193Y-95948063D01*
X157795792Y-95957099D01*
X157681261Y-96071829D01*
X157672249Y-96083240D01*
X157587184Y-96221243D01*
X157581037Y-96234424D01*
X157529862Y-96388710D01*
X157526995Y-96402086D01*
X157517328Y-96496438D01*
X157517000Y-96502855D01*
X157517000Y-96527885D01*
X155680500Y-96527885D01*
X155680500Y-95743537D01*
X155692117Y-95691136D01*
X155695106Y-95686287D01*
X155698634Y-95675652D01*
X155748623Y-95524938D01*
X155748623Y-95524936D01*
X155750788Y-95518410D01*
X155752674Y-95500009D01*
X155759661Y-95431811D01*
X155761491Y-95413949D01*
X155761491Y-94363149D01*
X155758415Y-94333500D01*
X155751229Y-94264241D01*
X155751228Y-94264237D01*
X155750517Y-94257383D01*
X155694541Y-94089603D01*
X155680347Y-94066666D01*
X155661491Y-94000363D01*
X155661491Y-90334407D01*
X155663042Y-90314695D01*
X155664211Y-90307315D01*
X155665243Y-90300800D01*
X155661664Y-90232510D01*
X155661491Y-90225916D01*
X155661491Y-90205381D01*
X155659344Y-90184951D01*
X155658827Y-90178376D01*
X155655594Y-90116687D01*
X155655594Y-90116686D01*
X155655248Y-90110087D01*
X155651607Y-90096499D01*
X155648003Y-90077052D01*
X155647224Y-90069635D01*
X155647223Y-90069631D01*
X155646533Y-90063063D01*
X155625393Y-89998000D01*
X155623520Y-89991676D01*
X155607530Y-89932001D01*
X155607529Y-89931997D01*
X155605820Y-89925621D01*
X155599431Y-89913083D01*
X155591866Y-89894817D01*
X155589560Y-89887719D01*
X155589559Y-89887717D01*
X155587518Y-89881435D01*
X155553322Y-89822206D01*
X155550176Y-89816412D01*
X155537196Y-89790937D01*
X155519120Y-89755461D01*
X155510264Y-89744524D01*
X155499064Y-89728228D01*
X155495334Y-89721767D01*
X155495331Y-89721763D01*
X155492031Y-89716047D01*
X155487614Y-89711141D01*
X155487610Y-89711136D01*
X155446269Y-89665222D01*
X155441985Y-89660207D01*
X155431139Y-89646814D01*
X155429063Y-89644250D01*
X155414548Y-89629735D01*
X155410007Y-89624950D01*
X155401169Y-89615134D01*
X155364244Y-89574125D01*
X155352856Y-89565851D01*
X155337823Y-89553010D01*
X151838908Y-86054095D01*
X151804882Y-85991783D01*
X151809947Y-85920968D01*
X151838908Y-85875905D01*
X155750630Y-81964183D01*
X162864389Y-81964183D01*
X162865912Y-81972607D01*
X162878292Y-81976000D01*
X163927885Y-81976000D01*
X163943124Y-81971525D01*
X163944329Y-81970135D01*
X163946000Y-81962452D01*
X163946000Y-81957885D01*
X164454000Y-81957885D01*
X164458475Y-81973124D01*
X164459865Y-81974329D01*
X164467548Y-81976000D01*
X165518344Y-81976000D01*
X165531875Y-81972027D01*
X165533180Y-81962947D01*
X165491214Y-81795875D01*
X165487894Y-81786124D01*
X165402972Y-81590814D01*
X165398105Y-81581739D01*
X165282426Y-81402926D01*
X165276136Y-81394757D01*
X165132806Y-81237240D01*
X165125273Y-81230215D01*
X164958139Y-81098222D01*
X164949552Y-81092517D01*
X164912116Y-81071851D01*
X164862146Y-81021419D01*
X164847374Y-80951976D01*
X164872490Y-80885571D01*
X164899842Y-80858964D01*
X165075327Y-80733792D01*
X165083200Y-80727139D01*
X165234052Y-80576812D01*
X165240730Y-80568965D01*
X165365003Y-80396020D01*
X165370313Y-80387183D01*
X165464670Y-80196267D01*
X165468469Y-80186672D01*
X165530377Y-79982910D01*
X165532555Y-79972837D01*
X165533986Y-79961962D01*
X165531775Y-79947778D01*
X165518617Y-79944000D01*
X164472115Y-79944000D01*
X164456876Y-79948475D01*
X164455671Y-79949865D01*
X164454000Y-79957548D01*
X164454000Y-81957885D01*
X163946000Y-81957885D01*
X163946000Y-79962115D01*
X163941525Y-79946876D01*
X163940135Y-79945671D01*
X163932452Y-79944000D01*
X162883225Y-79944000D01*
X162869694Y-79947973D01*
X162868257Y-79957966D01*
X162898565Y-80092446D01*
X162901645Y-80102275D01*
X162981770Y-80299603D01*
X162986413Y-80308794D01*
X163097694Y-80490388D01*
X163103777Y-80498699D01*
X163243213Y-80659667D01*
X163250580Y-80666883D01*
X163414434Y-80802916D01*
X163422881Y-80808831D01*
X163492479Y-80849501D01*
X163541203Y-80901140D01*
X163554274Y-80970923D01*
X163527543Y-81036694D01*
X163487087Y-81070053D01*
X163478462Y-81074542D01*
X163469738Y-81080036D01*
X163299433Y-81207905D01*
X163291726Y-81214748D01*
X163144590Y-81368717D01*
X163138104Y-81376727D01*
X163018098Y-81552649D01*
X163013000Y-81561623D01*
X162923338Y-81754783D01*
X162919775Y-81764470D01*
X162864389Y-81964183D01*
X155750630Y-81964183D01*
X162159408Y-75555405D01*
X162221720Y-75521379D01*
X162248503Y-75518500D01*
X163132011Y-75518500D01*
X163200132Y-75538502D01*
X163227248Y-75562002D01*
X163242864Y-75580030D01*
X163242869Y-75580035D01*
X163246250Y-75583938D01*
X163418126Y-75726632D01*
X163488595Y-75767811D01*
X163491445Y-75769476D01*
X163540169Y-75821114D01*
X163553240Y-75890897D01*
X163526509Y-75956669D01*
X163486055Y-75990027D01*
X163473607Y-75996507D01*
X163469474Y-75999610D01*
X163469471Y-75999612D01*
X163299100Y-76127530D01*
X163294965Y-76130635D01*
X163140629Y-76292138D01*
X163014743Y-76476680D01*
X162999003Y-76510590D01*
X162926459Y-76666873D01*
X162920688Y-76679305D01*
X162860989Y-76894570D01*
X162837251Y-77116695D01*
X162837548Y-77121848D01*
X162837548Y-77121851D01*
X162843780Y-77229933D01*
X162850110Y-77339715D01*
X162851247Y-77344761D01*
X162851248Y-77344767D01*
X162859635Y-77381982D01*
X162899222Y-77557639D01*
X162937461Y-77651811D01*
X162975581Y-77745689D01*
X162983266Y-77764616D01*
X163017461Y-77820417D01*
X163083446Y-77928095D01*
X163099987Y-77955088D01*
X163246250Y-78123938D01*
X163418126Y-78266632D01*
X163437823Y-78278142D01*
X163491955Y-78309774D01*
X163540679Y-78361412D01*
X163553750Y-78431195D01*
X163527019Y-78496967D01*
X163486562Y-78530327D01*
X163478457Y-78534546D01*
X163469738Y-78540036D01*
X163299433Y-78667905D01*
X163291726Y-78674748D01*
X163144590Y-78828717D01*
X163138104Y-78836727D01*
X163018098Y-79012649D01*
X163013000Y-79021623D01*
X162923338Y-79214783D01*
X162919775Y-79224470D01*
X162864389Y-79424183D01*
X162865912Y-79432607D01*
X162878292Y-79436000D01*
X165518344Y-79436000D01*
X165531875Y-79432027D01*
X165533180Y-79422947D01*
X165491214Y-79255875D01*
X165487894Y-79246124D01*
X165402972Y-79050814D01*
X165398105Y-79041739D01*
X165282426Y-78862926D01*
X165276136Y-78854757D01*
X165132806Y-78697240D01*
X165125273Y-78690215D01*
X164958139Y-78558222D01*
X164949556Y-78552520D01*
X164912602Y-78532120D01*
X164862631Y-78481687D01*
X164847859Y-78412245D01*
X164872975Y-78345839D01*
X164900327Y-78319232D01*
X164929893Y-78298143D01*
X165079860Y-78191173D01*
X165238096Y-78033489D01*
X165297594Y-77950689D01*
X165365435Y-77856277D01*
X165368453Y-77852077D01*
X165384101Y-77820417D01*
X165465136Y-77656453D01*
X165465137Y-77656451D01*
X165467430Y-77651811D01*
X165532370Y-77438069D01*
X165561529Y-77216590D01*
X165561611Y-77213240D01*
X165563074Y-77153365D01*
X165563074Y-77153361D01*
X165563156Y-77150000D01*
X165544852Y-76927361D01*
X165490431Y-76710702D01*
X165401354Y-76505840D01*
X165280014Y-76318277D01*
X165129670Y-76153051D01*
X165125619Y-76149852D01*
X165125615Y-76149848D01*
X164958414Y-76017800D01*
X164958410Y-76017798D01*
X164954359Y-76014598D01*
X164913053Y-75991796D01*
X164863084Y-75941364D01*
X164848312Y-75871921D01*
X164873428Y-75805516D01*
X164900780Y-75778909D01*
X164958829Y-75737503D01*
X165079860Y-75651173D01*
X165114388Y-75616766D01*
X165234435Y-75497137D01*
X165238096Y-75493489D01*
X165251633Y-75474651D01*
X165365435Y-75316277D01*
X165368453Y-75312077D01*
X165374593Y-75299655D01*
X165465136Y-75116453D01*
X165465137Y-75116451D01*
X165467430Y-75111811D01*
X165532370Y-74898069D01*
X165561529Y-74676590D01*
X165562139Y-74651638D01*
X165563074Y-74613365D01*
X165563074Y-74613361D01*
X165563156Y-74610000D01*
X165544852Y-74387361D01*
X165490431Y-74170702D01*
X165401354Y-73965840D01*
X165357140Y-73897495D01*
X165282822Y-73782617D01*
X165282820Y-73782614D01*
X165280014Y-73778277D01*
X165129670Y-73613051D01*
X165125619Y-73609852D01*
X165125615Y-73609848D01*
X164958414Y-73477800D01*
X164958410Y-73477798D01*
X164954359Y-73474598D01*
X164913053Y-73451796D01*
X164863084Y-73401364D01*
X164848312Y-73331921D01*
X164873428Y-73265516D01*
X164900780Y-73238909D01*
X164944603Y-73207650D01*
X165079860Y-73111173D01*
X165238096Y-72953489D01*
X165270527Y-72908357D01*
X165365435Y-72776277D01*
X165368453Y-72772077D01*
X165373050Y-72762777D01*
X165465136Y-72576453D01*
X165465137Y-72576451D01*
X165467430Y-72571811D01*
X165518264Y-72404498D01*
X165530865Y-72363023D01*
X165530865Y-72363021D01*
X165532370Y-72358069D01*
X165561529Y-72136590D01*
X165563156Y-72070000D01*
X165544852Y-71847361D01*
X165490431Y-71630702D01*
X165401354Y-71425840D01*
X165310708Y-71285722D01*
X165282822Y-71242617D01*
X165282820Y-71242614D01*
X165280014Y-71238277D01*
X165129670Y-71073051D01*
X165125619Y-71069852D01*
X165125615Y-71069848D01*
X164958414Y-70937800D01*
X164958410Y-70937798D01*
X164954359Y-70934598D01*
X164913053Y-70911796D01*
X164863084Y-70861364D01*
X164848312Y-70791921D01*
X164873428Y-70725516D01*
X164900780Y-70698909D01*
X164964264Y-70653626D01*
X165079860Y-70571173D01*
X165088025Y-70563037D01*
X165226340Y-70425204D01*
X165238096Y-70413489D01*
X165297594Y-70330689D01*
X165365435Y-70236277D01*
X165368453Y-70232077D01*
X165378814Y-70211114D01*
X165465136Y-70036453D01*
X165465137Y-70036451D01*
X165467430Y-70031811D01*
X165532370Y-69818069D01*
X165561529Y-69596590D01*
X165561902Y-69581334D01*
X165563074Y-69533365D01*
X165563074Y-69533361D01*
X165563156Y-69530000D01*
X165544852Y-69307361D01*
X165490431Y-69090702D01*
X165401354Y-68885840D01*
X165361906Y-68824862D01*
X165282822Y-68702617D01*
X165282820Y-68702614D01*
X165280014Y-68698277D01*
X165129670Y-68533051D01*
X165125619Y-68529852D01*
X165125615Y-68529848D01*
X164958414Y-68397800D01*
X164958410Y-68397798D01*
X164954359Y-68394598D01*
X164913053Y-68371796D01*
X164863084Y-68321364D01*
X164848312Y-68251921D01*
X164873428Y-68185516D01*
X164900780Y-68158909D01*
X164944603Y-68127650D01*
X165079860Y-68031173D01*
X165238096Y-67873489D01*
X165297594Y-67790689D01*
X165365435Y-67696277D01*
X165368453Y-67692077D01*
X165467430Y-67491811D01*
X165532370Y-67278069D01*
X165561529Y-67056590D01*
X165563156Y-66990000D01*
X165544852Y-66767361D01*
X165490431Y-66550702D01*
X165401354Y-66345840D01*
X165280014Y-66158277D01*
X165129670Y-65993051D01*
X165125619Y-65989852D01*
X165125615Y-65989848D01*
X164958414Y-65857800D01*
X164958410Y-65857798D01*
X164954359Y-65854598D01*
X164912569Y-65831529D01*
X164862598Y-65781097D01*
X164847826Y-65711654D01*
X164872942Y-65645248D01*
X164900294Y-65618641D01*
X165075328Y-65493792D01*
X165083200Y-65487139D01*
X165234052Y-65336812D01*
X165240730Y-65328965D01*
X165365003Y-65156020D01*
X165370313Y-65147183D01*
X165464670Y-64956267D01*
X165468469Y-64946672D01*
X165530377Y-64742910D01*
X165532555Y-64732837D01*
X165533986Y-64721962D01*
X165531775Y-64707778D01*
X165518617Y-64704000D01*
X162883225Y-64704000D01*
X162869694Y-64707973D01*
X162868257Y-64717966D01*
X162898565Y-64852446D01*
X162901645Y-64862275D01*
X162981770Y-65059603D01*
X162986413Y-65068794D01*
X163097694Y-65250388D01*
X163103777Y-65258699D01*
X163243213Y-65419667D01*
X163250580Y-65426883D01*
X163414434Y-65562916D01*
X163422881Y-65568831D01*
X163491969Y-65609203D01*
X163540693Y-65660842D01*
X163553764Y-65730625D01*
X163527033Y-65796396D01*
X163486584Y-65829752D01*
X163473607Y-65836507D01*
X163469474Y-65839610D01*
X163469471Y-65839612D01*
X163299100Y-65967530D01*
X163294965Y-65970635D01*
X163140629Y-66132138D01*
X163137715Y-66136410D01*
X163137714Y-66136411D01*
X163125404Y-66154457D01*
X163014743Y-66316680D01*
X162920688Y-66519305D01*
X162860989Y-66734570D01*
X162837251Y-66956695D01*
X162837548Y-66961848D01*
X162837548Y-66961851D01*
X162843011Y-67056590D01*
X162850110Y-67179715D01*
X162851247Y-67184761D01*
X162851248Y-67184767D01*
X162864597Y-67244000D01*
X162899222Y-67397639D01*
X162983266Y-67604616D01*
X163099987Y-67795088D01*
X163246250Y-67963938D01*
X163418126Y-68106632D01*
X163488595Y-68147811D01*
X163491445Y-68149476D01*
X163540169Y-68201114D01*
X163553240Y-68270897D01*
X163526509Y-68336669D01*
X163486055Y-68370027D01*
X163473607Y-68376507D01*
X163469474Y-68379610D01*
X163469471Y-68379612D01*
X163445247Y-68397800D01*
X163294965Y-68510635D01*
X163140629Y-68672138D01*
X163014743Y-68856680D01*
X162999003Y-68890590D01*
X162931429Y-69036166D01*
X162920688Y-69059305D01*
X162860989Y-69274570D01*
X162837251Y-69496695D01*
X162837548Y-69501848D01*
X162837548Y-69501851D01*
X162843011Y-69596590D01*
X162850110Y-69719715D01*
X162851247Y-69724761D01*
X162851248Y-69724767D01*
X162871085Y-69812789D01*
X162899222Y-69937639D01*
X162983266Y-70144616D01*
X163004968Y-70180031D01*
X163077730Y-70298767D01*
X163099987Y-70335088D01*
X163246250Y-70503938D01*
X163418126Y-70646632D01*
X163472665Y-70678502D01*
X163491445Y-70689476D01*
X163540169Y-70741114D01*
X163553240Y-70810897D01*
X163526509Y-70876669D01*
X163486055Y-70910027D01*
X163473607Y-70916507D01*
X163469474Y-70919610D01*
X163469471Y-70919612D01*
X163299100Y-71047530D01*
X163294965Y-71050635D01*
X163140629Y-71212138D01*
X163137715Y-71216410D01*
X163137714Y-71216411D01*
X163090433Y-71285722D01*
X163014743Y-71396680D01*
X162920688Y-71599305D01*
X162860989Y-71814570D01*
X162837251Y-72036695D01*
X162837548Y-72041848D01*
X162837548Y-72041851D01*
X162842898Y-72134634D01*
X162850110Y-72259715D01*
X162851247Y-72264761D01*
X162851248Y-72264767D01*
X162863689Y-72319969D01*
X162899222Y-72477639D01*
X162983266Y-72684616D01*
X162986725Y-72690260D01*
X163074101Y-72832845D01*
X163099987Y-72875088D01*
X163246250Y-73043938D01*
X163418126Y-73186632D01*
X163472568Y-73218445D01*
X163491445Y-73229476D01*
X163540169Y-73281114D01*
X163553240Y-73350897D01*
X163526509Y-73416669D01*
X163486055Y-73450027D01*
X163473607Y-73456507D01*
X163469474Y-73459610D01*
X163469471Y-73459612D01*
X163405207Y-73507863D01*
X163294965Y-73590635D01*
X163254646Y-73632827D01*
X163226241Y-73662551D01*
X163164717Y-73697981D01*
X163135147Y-73701500D01*
X161901417Y-73701500D01*
X161881707Y-73699949D01*
X161874327Y-73698780D01*
X161874326Y-73698780D01*
X161867810Y-73697748D01*
X161861223Y-73698093D01*
X161861218Y-73698093D01*
X161799520Y-73701327D01*
X161792926Y-73701500D01*
X161772390Y-73701500D01*
X161769118Y-73701844D01*
X161769116Y-73701844D01*
X161751958Y-73703647D01*
X161745384Y-73704164D01*
X161683696Y-73707397D01*
X161683694Y-73707397D01*
X161677097Y-73707743D01*
X161663504Y-73711385D01*
X161644075Y-73714986D01*
X161630072Y-73716458D01*
X161565025Y-73737593D01*
X161558712Y-73739463D01*
X161538074Y-73744993D01*
X161499003Y-73755462D01*
X161499000Y-73755463D01*
X161492630Y-73757170D01*
X161480085Y-73763562D01*
X161461826Y-73771125D01*
X161448444Y-73775473D01*
X161442723Y-73778776D01*
X161389223Y-73809664D01*
X161383426Y-73812812D01*
X161328351Y-73840874D01*
X161328348Y-73840876D01*
X161322470Y-73843871D01*
X161317342Y-73848024D01*
X161317340Y-73848025D01*
X161311534Y-73852727D01*
X161295237Y-73863927D01*
X161288776Y-73867657D01*
X161288772Y-73867660D01*
X161283056Y-73870960D01*
X161278150Y-73875377D01*
X161278145Y-73875381D01*
X161232231Y-73916722D01*
X161227216Y-73921006D01*
X161218718Y-73927888D01*
X161211259Y-73933928D01*
X161196744Y-73948443D01*
X161191959Y-73952984D01*
X161141134Y-73998747D01*
X161137255Y-74004086D01*
X161137254Y-74004087D01*
X161132860Y-74010135D01*
X161120019Y-74025168D01*
X149716744Y-85428443D01*
X149711959Y-85432984D01*
X149661134Y-85478747D01*
X149657255Y-85484086D01*
X149657254Y-85484087D01*
X149652860Y-85490135D01*
X149640019Y-85505168D01*
X145340592Y-89804595D01*
X145278280Y-89838621D01*
X145251497Y-89841500D01*
X139426147Y-89841500D01*
X139358026Y-89821498D01*
X139337129Y-89804673D01*
X139323525Y-89791092D01*
X139235803Y-89703523D01*
X139173668Y-89665222D01*
X139091468Y-89614553D01*
X139091466Y-89614552D01*
X139085238Y-89610713D01*
X138963230Y-89570245D01*
X138923889Y-89557196D01*
X138923887Y-89557196D01*
X138917361Y-89555031D01*
X138910525Y-89554331D01*
X138910522Y-89554330D01*
X138867469Y-89549919D01*
X138812900Y-89544328D01*
X138187100Y-89544328D01*
X138183854Y-89544665D01*
X138183850Y-89544665D01*
X138088192Y-89554590D01*
X138088188Y-89554591D01*
X138081334Y-89555302D01*
X138074798Y-89557483D01*
X138074796Y-89557483D01*
X137963634Y-89594570D01*
X137913554Y-89611278D01*
X137763152Y-89704350D01*
X137757979Y-89709532D01*
X137676716Y-89790937D01*
X137614434Y-89825016D01*
X137543614Y-89820013D01*
X137498525Y-89791092D01*
X137415983Y-89708694D01*
X137410803Y-89703523D01*
X137348668Y-89665222D01*
X137266468Y-89614553D01*
X137266466Y-89614552D01*
X137260238Y-89610713D01*
X137138230Y-89570245D01*
X137098889Y-89557196D01*
X137098887Y-89557196D01*
X137092361Y-89555031D01*
X137085525Y-89554331D01*
X137085522Y-89554330D01*
X137042469Y-89549919D01*
X136987900Y-89544328D01*
X136362100Y-89544328D01*
X136358854Y-89544665D01*
X136358850Y-89544665D01*
X136263192Y-89554590D01*
X136263188Y-89554591D01*
X136256334Y-89555302D01*
X136249798Y-89557483D01*
X136249796Y-89557483D01*
X136138634Y-89594570D01*
X136088554Y-89611278D01*
X135938152Y-89704350D01*
X135813195Y-89829525D01*
X135809355Y-89835755D01*
X135809354Y-89835756D01*
X135750028Y-89932001D01*
X135720385Y-89980090D01*
X135711129Y-90007997D01*
X135670697Y-90066356D01*
X135605133Y-90093592D01*
X135591536Y-90094328D01*
X130095402Y-90094328D01*
X130027281Y-90074326D01*
X129980788Y-90020670D01*
X129969440Y-89965249D01*
X129970244Y-89932364D01*
X129970244Y-89932360D01*
X129970326Y-89929000D01*
X129963132Y-89841500D01*
X129951772Y-89703318D01*
X129951771Y-89703312D01*
X129951348Y-89698167D01*
X129912789Y-89544656D01*
X129896183Y-89478544D01*
X129896182Y-89478540D01*
X129894924Y-89473533D01*
X129885776Y-89452493D01*
X129804629Y-89265868D01*
X129804627Y-89265865D01*
X129802569Y-89261131D01*
X129676763Y-89066665D01*
X129629258Y-89014457D01*
X129605548Y-88988401D01*
X129520886Y-88895358D01*
X129516835Y-88892159D01*
X129516831Y-88892155D01*
X129343176Y-88755011D01*
X129343171Y-88755008D01*
X129339122Y-88751810D01*
X129334606Y-88749317D01*
X129334603Y-88749315D01*
X129140878Y-88642373D01*
X129140874Y-88642371D01*
X129136354Y-88639876D01*
X129131485Y-88638152D01*
X129131481Y-88638150D01*
X128922902Y-88564288D01*
X128922898Y-88564287D01*
X128918027Y-88562562D01*
X128912934Y-88561655D01*
X128912931Y-88561654D01*
X128695094Y-88522851D01*
X128695088Y-88522850D01*
X128690005Y-88521945D01*
X128617095Y-88521054D01*
X128463580Y-88519179D01*
X128463578Y-88519179D01*
X128458410Y-88519116D01*
X128229463Y-88554150D01*
X128009313Y-88626106D01*
X128004725Y-88628494D01*
X128004721Y-88628496D01*
X127844112Y-88712104D01*
X127803871Y-88733052D01*
X127799738Y-88736155D01*
X127799735Y-88736157D01*
X127638961Y-88856870D01*
X127618654Y-88872117D01*
X127458638Y-89039564D01*
X127455724Y-89043836D01*
X127455723Y-89043837D01*
X127440151Y-89066665D01*
X127328118Y-89230899D01*
X127230601Y-89440981D01*
X127168706Y-89664169D01*
X127144094Y-89894469D01*
X127144391Y-89899622D01*
X127144391Y-89899625D01*
X127157128Y-90120529D01*
X127157426Y-90125697D01*
X127158563Y-90130743D01*
X127158564Y-90130749D01*
X127190281Y-90271486D01*
X127185745Y-90342338D01*
X127156459Y-90388282D01*
X123740145Y-93804595D01*
X123677833Y-93838621D01*
X123651050Y-93841500D01*
X106637502Y-93841500D01*
X106569381Y-93821498D01*
X106559410Y-93814382D01*
X106538414Y-93797800D01*
X106538410Y-93797798D01*
X106534359Y-93794598D01*
X106493053Y-93771796D01*
X106443084Y-93721364D01*
X106428312Y-93651921D01*
X106453428Y-93585516D01*
X106480780Y-93558909D01*
X106524603Y-93527650D01*
X106659860Y-93431173D01*
X106818096Y-93273489D01*
X106853190Y-93224651D01*
X106945435Y-93096277D01*
X106948453Y-93092077D01*
X107010402Y-92966733D01*
X107045136Y-92896453D01*
X107045137Y-92896451D01*
X107047430Y-92891811D01*
X107103316Y-92707869D01*
X107142255Y-92648507D01*
X107207109Y-92619620D01*
X107223873Y-92618500D01*
X110224983Y-92618500D01*
X110293104Y-92638502D01*
X110332126Y-92678196D01*
X110341190Y-92692843D01*
X110466365Y-92817800D01*
X110472595Y-92821640D01*
X110472596Y-92821641D01*
X110609758Y-92906189D01*
X110616930Y-92910610D01*
X110696673Y-92937059D01*
X110778279Y-92964127D01*
X110778281Y-92964127D01*
X110784807Y-92966292D01*
X110791643Y-92966992D01*
X110791646Y-92966993D01*
X110834699Y-92971404D01*
X110889268Y-92976995D01*
X111890068Y-92976995D01*
X111893314Y-92976658D01*
X111893318Y-92976658D01*
X111988976Y-92966733D01*
X111988980Y-92966732D01*
X111995834Y-92966021D01*
X112002370Y-92963840D01*
X112002372Y-92963840D01*
X112134474Y-92919767D01*
X112163614Y-92910045D01*
X112314016Y-92816973D01*
X112438973Y-92691798D01*
X112481708Y-92622469D01*
X112527943Y-92547463D01*
X112527944Y-92547461D01*
X112531783Y-92541233D01*
X112569458Y-92427646D01*
X112585300Y-92379884D01*
X112585300Y-92379882D01*
X112587465Y-92373356D01*
X112598168Y-92268895D01*
X112598168Y-91643095D01*
X112597831Y-91639845D01*
X112587906Y-91544187D01*
X112587905Y-91544183D01*
X112587194Y-91537329D01*
X112584216Y-91528401D01*
X112533536Y-91376497D01*
X112531218Y-91369549D01*
X112438146Y-91219147D01*
X112351559Y-91132711D01*
X112317480Y-91070429D01*
X112322483Y-90999609D01*
X112351404Y-90954520D01*
X112433802Y-90871978D01*
X112438973Y-90866798D01*
X112449710Y-90849379D01*
X112502481Y-90801886D01*
X112556970Y-90789495D01*
X119262949Y-90789495D01*
X119274805Y-90790054D01*
X119274808Y-90790054D01*
X119282542Y-90791783D01*
X119353374Y-90789557D01*
X119357332Y-90789495D01*
X119386437Y-90789495D01*
X119390837Y-90788939D01*
X119402669Y-90788007D01*
X119448836Y-90786557D01*
X119469426Y-90780575D01*
X119488787Y-90776565D01*
X119495775Y-90775683D01*
X119502209Y-90774870D01*
X119502210Y-90774870D01*
X119510069Y-90773877D01*
X119517434Y-90770961D01*
X119517438Y-90770960D01*
X119553026Y-90756869D01*
X119564236Y-90753030D01*
X119608605Y-90740140D01*
X119627070Y-90729220D01*
X119644810Y-90720529D01*
X119664761Y-90712630D01*
X119702134Y-90685477D01*
X119712053Y-90678962D01*
X119744982Y-90659488D01*
X119744986Y-90659485D01*
X119751812Y-90655448D01*
X119766976Y-90640284D01*
X119782010Y-90627443D01*
X119792948Y-90619496D01*
X119799362Y-90614836D01*
X119828808Y-90579242D01*
X119836797Y-90570463D01*
X125814854Y-84592406D01*
X127750423Y-84592406D01*
X127755704Y-84599461D01*
X127932080Y-84702527D01*
X127941363Y-84706974D01*
X128148003Y-84785883D01*
X128157901Y-84788759D01*
X128374653Y-84832857D01*
X128384883Y-84834076D01*
X128605914Y-84842182D01*
X128616223Y-84841714D01*
X128835623Y-84813608D01*
X128845688Y-84811468D01*
X129057557Y-84747905D01*
X129067152Y-84744144D01*
X129265778Y-84646838D01*
X129274636Y-84641559D01*
X129332097Y-84600572D01*
X129340497Y-84589874D01*
X129333510Y-84576721D01*
X128559811Y-83803021D01*
X128545868Y-83795408D01*
X128544034Y-83795539D01*
X128537420Y-83799790D01*
X127757180Y-84580031D01*
X127750423Y-84592406D01*
X125814854Y-84592406D01*
X126929137Y-83478123D01*
X126991449Y-83444097D01*
X127062264Y-83449162D01*
X127119100Y-83491709D01*
X127144023Y-83559966D01*
X127147627Y-83622468D01*
X127149061Y-83632670D01*
X127197685Y-83848439D01*
X127200773Y-83858292D01*
X127283986Y-84063220D01*
X127288634Y-84072421D01*
X127377097Y-84216781D01*
X127387553Y-84226242D01*
X127396331Y-84222458D01*
X128186658Y-83432132D01*
X128911408Y-83432132D01*
X128911539Y-83433966D01*
X128915790Y-83440580D01*
X129693307Y-84218096D01*
X129705313Y-84224652D01*
X129717052Y-84215684D01*
X129755010Y-84162859D01*
X129760321Y-84154020D01*
X129858318Y-83955737D01*
X129862117Y-83946142D01*
X129926415Y-83734517D01*
X129928594Y-83724436D01*
X129957702Y-83503338D01*
X129958221Y-83496663D01*
X129959744Y-83434364D01*
X129959550Y-83427646D01*
X129941279Y-83205400D01*
X129939596Y-83195238D01*
X129885710Y-82980708D01*
X129882389Y-82970953D01*
X129794193Y-82768118D01*
X129789315Y-82759020D01*
X129716224Y-82646038D01*
X129705538Y-82636835D01*
X129695973Y-82641238D01*
X128919021Y-83418189D01*
X128911408Y-83432132D01*
X128186658Y-83432132D01*
X128547000Y-83071790D01*
X129335992Y-82282797D01*
X129343011Y-82269943D01*
X129332361Y-82255326D01*
X129308412Y-82188491D01*
X129324400Y-82119317D01*
X129361029Y-82078549D01*
X129369474Y-82072525D01*
X129459243Y-82008494D01*
X129623303Y-81845005D01*
X129758458Y-81656917D01*
X129861078Y-81449280D01*
X129928408Y-81227671D01*
X129958640Y-80998041D01*
X129959590Y-80959174D01*
X129960245Y-80932365D01*
X129960245Y-80932361D01*
X129960327Y-80929000D01*
X129950447Y-80808831D01*
X129941773Y-80703318D01*
X129941772Y-80703312D01*
X129941349Y-80698167D01*
X129908896Y-80568965D01*
X129886184Y-80478544D01*
X129886183Y-80478540D01*
X129884925Y-80473533D01*
X129882866Y-80468797D01*
X129794630Y-80265868D01*
X129794628Y-80265865D01*
X129792570Y-80261131D01*
X129666764Y-80066665D01*
X129510887Y-79895358D01*
X129506836Y-79892159D01*
X129506832Y-79892155D01*
X129333177Y-79755011D01*
X129333172Y-79755008D01*
X129329123Y-79751810D01*
X129324607Y-79749317D01*
X129324604Y-79749315D01*
X129130879Y-79642373D01*
X129130875Y-79642371D01*
X129126355Y-79639876D01*
X129121486Y-79638152D01*
X129121482Y-79638150D01*
X128912903Y-79564288D01*
X128912899Y-79564287D01*
X128908028Y-79562562D01*
X128902935Y-79561655D01*
X128902932Y-79561654D01*
X128685095Y-79522851D01*
X128685089Y-79522850D01*
X128680006Y-79521945D01*
X128607096Y-79521054D01*
X128453581Y-79519179D01*
X128453579Y-79519179D01*
X128448411Y-79519116D01*
X128219464Y-79554150D01*
X127999314Y-79626106D01*
X127994726Y-79628494D01*
X127994722Y-79628496D01*
X127930648Y-79661851D01*
X127793872Y-79733052D01*
X127789739Y-79736155D01*
X127789736Y-79736157D01*
X127612790Y-79869012D01*
X127608655Y-79872117D01*
X127448639Y-80039564D01*
X127445725Y-80043836D01*
X127445724Y-80043837D01*
X127430152Y-80066665D01*
X127318119Y-80230899D01*
X127220602Y-80440981D01*
X127158707Y-80664169D01*
X127134095Y-80894469D01*
X127134392Y-80899622D01*
X127134392Y-80899625D01*
X127145843Y-81098222D01*
X127147427Y-81125697D01*
X127148564Y-81130743D01*
X127148565Y-81130749D01*
X127182121Y-81279645D01*
X127177585Y-81350497D01*
X127148299Y-81396441D01*
X119109150Y-89435590D01*
X119046838Y-89469616D01*
X119020055Y-89472495D01*
X112556833Y-89472495D01*
X112488712Y-89452493D01*
X112449690Y-89412800D01*
X112441999Y-89400372D01*
X112441995Y-89400367D01*
X112438146Y-89394147D01*
X112312971Y-89269190D01*
X112299897Y-89261131D01*
X112168636Y-89180220D01*
X112168634Y-89180219D01*
X112162406Y-89176380D01*
X112001922Y-89123150D01*
X112001057Y-89122863D01*
X112001055Y-89122863D01*
X111994529Y-89120698D01*
X111987693Y-89119998D01*
X111987690Y-89119997D01*
X111944637Y-89115586D01*
X111890068Y-89109995D01*
X110889268Y-89109995D01*
X110886022Y-89110332D01*
X110886018Y-89110332D01*
X110790360Y-89120257D01*
X110790356Y-89120258D01*
X110783502Y-89120969D01*
X110776966Y-89123150D01*
X110776964Y-89123150D01*
X110644862Y-89167223D01*
X110615722Y-89176945D01*
X110465320Y-89270017D01*
X110340363Y-89395192D01*
X110336523Y-89401422D01*
X110336522Y-89401423D01*
X110292713Y-89472495D01*
X110247553Y-89545757D01*
X110244623Y-89554590D01*
X110195225Y-89703523D01*
X110191871Y-89713634D01*
X110191171Y-89720470D01*
X110191170Y-89720473D01*
X110188706Y-89744525D01*
X110181168Y-89818095D01*
X110181168Y-90443895D01*
X110192142Y-90549661D01*
X110194323Y-90556197D01*
X110194323Y-90556199D01*
X110227315Y-90655088D01*
X110248118Y-90717441D01*
X110341190Y-90867843D01*
X110346372Y-90873016D01*
X110427777Y-90954279D01*
X110461856Y-91016561D01*
X110456853Y-91087381D01*
X110427932Y-91132470D01*
X110427047Y-91133357D01*
X110340363Y-91220192D01*
X110336523Y-91226422D01*
X110336522Y-91226423D01*
X110327157Y-91241616D01*
X110274385Y-91289109D01*
X110219897Y-91301500D01*
X106637502Y-91301500D01*
X106569381Y-91281498D01*
X106559410Y-91274382D01*
X106538414Y-91257800D01*
X106538410Y-91257798D01*
X106534359Y-91254598D01*
X106493053Y-91231796D01*
X106443084Y-91181364D01*
X106428312Y-91111921D01*
X106453428Y-91045516D01*
X106480780Y-91018909D01*
X106524603Y-90987650D01*
X106659860Y-90891173D01*
X106684321Y-90866798D01*
X106796828Y-90754683D01*
X106818096Y-90733489D01*
X106821162Y-90729223D01*
X106945435Y-90556277D01*
X106948453Y-90552077D01*
X106953037Y-90542803D01*
X107045136Y-90356453D01*
X107045137Y-90356451D01*
X107047430Y-90351811D01*
X107112370Y-90138069D01*
X107141529Y-89916590D01*
X107142061Y-89894817D01*
X107143074Y-89853365D01*
X107143074Y-89853361D01*
X107143156Y-89850000D01*
X107124852Y-89627361D01*
X107070431Y-89410702D01*
X106981354Y-89205840D01*
X106927674Y-89122863D01*
X106862822Y-89022617D01*
X106862820Y-89022614D01*
X106860014Y-89018277D01*
X106709670Y-88853051D01*
X106705619Y-88849852D01*
X106705615Y-88849848D01*
X106538414Y-88717800D01*
X106538410Y-88717798D01*
X106534359Y-88714598D01*
X106493053Y-88691796D01*
X106443084Y-88641364D01*
X106428312Y-88571921D01*
X106453428Y-88505516D01*
X106480780Y-88478909D01*
X106524603Y-88447650D01*
X106659860Y-88351173D01*
X106818096Y-88193489D01*
X106877594Y-88110689D01*
X106945435Y-88016277D01*
X106948453Y-88012077D01*
X107047430Y-87811811D01*
X107112370Y-87598069D01*
X107141529Y-87376590D01*
X107143156Y-87310000D01*
X107124852Y-87087361D01*
X107070431Y-86870702D01*
X106981354Y-86665840D01*
X106860014Y-86478277D01*
X106709670Y-86313051D01*
X106705619Y-86309852D01*
X106705615Y-86309848D01*
X106538414Y-86177800D01*
X106538410Y-86177798D01*
X106534359Y-86174598D01*
X106493053Y-86151796D01*
X106443084Y-86101364D01*
X106428312Y-86031921D01*
X106453428Y-85965516D01*
X106480780Y-85938909D01*
X106524603Y-85907650D01*
X106659860Y-85811173D01*
X106818096Y-85653489D01*
X106877594Y-85570689D01*
X106945435Y-85476277D01*
X106948453Y-85472077D01*
X107047430Y-85271811D01*
X107112370Y-85058069D01*
X107141529Y-84836590D01*
X107143156Y-84770000D01*
X107124852Y-84547361D01*
X107070431Y-84330702D01*
X106981354Y-84125840D01*
X106940843Y-84063220D01*
X106862822Y-83942617D01*
X106862820Y-83942614D01*
X106860014Y-83938277D01*
X106709670Y-83773051D01*
X106705619Y-83769852D01*
X106705615Y-83769848D01*
X106538414Y-83637800D01*
X106538410Y-83637798D01*
X106534359Y-83634598D01*
X106493053Y-83611796D01*
X106443084Y-83561364D01*
X106428312Y-83491921D01*
X106453428Y-83425516D01*
X106480780Y-83398909D01*
X106524603Y-83367650D01*
X106659860Y-83271173D01*
X106818096Y-83113489D01*
X106877594Y-83030689D01*
X106945435Y-82936277D01*
X106948453Y-82932077D01*
X107047430Y-82731811D01*
X107112370Y-82518069D01*
X107141529Y-82296590D01*
X107143156Y-82230000D01*
X107124852Y-82007361D01*
X107070431Y-81790702D01*
X106981354Y-81585840D01*
X106941906Y-81524862D01*
X106862822Y-81402617D01*
X106862820Y-81402614D01*
X106860014Y-81398277D01*
X106709670Y-81233051D01*
X106705619Y-81229852D01*
X106705615Y-81229848D01*
X106538414Y-81097800D01*
X106538410Y-81097798D01*
X106534359Y-81094598D01*
X106493053Y-81071796D01*
X106443084Y-81021364D01*
X106428312Y-80951921D01*
X106453428Y-80885516D01*
X106480780Y-80858909D01*
X106524603Y-80827650D01*
X106659860Y-80731173D01*
X106818096Y-80573489D01*
X106877594Y-80490689D01*
X106945435Y-80396277D01*
X106948453Y-80392077D01*
X107047430Y-80191811D01*
X107112370Y-79978069D01*
X107141529Y-79756590D01*
X107142104Y-79733052D01*
X107143074Y-79693365D01*
X107143074Y-79693361D01*
X107143156Y-79690000D01*
X107124852Y-79467361D01*
X107070431Y-79250702D01*
X106981354Y-79045840D01*
X106860014Y-78858277D01*
X106709670Y-78693051D01*
X106705619Y-78689852D01*
X106705615Y-78689848D01*
X106538414Y-78557800D01*
X106538410Y-78557798D01*
X106534359Y-78554598D01*
X106493053Y-78531796D01*
X106443084Y-78481364D01*
X106428312Y-78411921D01*
X106453428Y-78345516D01*
X106480780Y-78318909D01*
X106537935Y-78278141D01*
X106659860Y-78191173D01*
X106818096Y-78033489D01*
X106877594Y-77950689D01*
X106945435Y-77856277D01*
X106948453Y-77852077D01*
X106964101Y-77820417D01*
X107045136Y-77656453D01*
X107045137Y-77656451D01*
X107047430Y-77651811D01*
X107112370Y-77438069D01*
X107141529Y-77216590D01*
X107141611Y-77213240D01*
X107143074Y-77153365D01*
X107143074Y-77153361D01*
X107143156Y-77150000D01*
X107124852Y-76927361D01*
X107070431Y-76710702D01*
X106981354Y-76505840D01*
X106860014Y-76318277D01*
X106709670Y-76153051D01*
X106705619Y-76149852D01*
X106705615Y-76149848D01*
X106538414Y-76017800D01*
X106538410Y-76017798D01*
X106534359Y-76014598D01*
X106493053Y-75991796D01*
X106443084Y-75941364D01*
X106428312Y-75871921D01*
X106439475Y-75842406D01*
X127760422Y-75842406D01*
X127765703Y-75849461D01*
X127942079Y-75952527D01*
X127951362Y-75956974D01*
X128158002Y-76035883D01*
X128167900Y-76038759D01*
X128384652Y-76082857D01*
X128394882Y-76084076D01*
X128615913Y-76092182D01*
X128626222Y-76091714D01*
X128845622Y-76063608D01*
X128855687Y-76061468D01*
X129067556Y-75997905D01*
X129077151Y-75994144D01*
X129275777Y-75896838D01*
X129284635Y-75891559D01*
X129342096Y-75850572D01*
X129350496Y-75839874D01*
X129343509Y-75826721D01*
X128569810Y-75053021D01*
X128555867Y-75045408D01*
X128554033Y-75045539D01*
X128547419Y-75049790D01*
X127767179Y-75830031D01*
X127760422Y-75842406D01*
X106439475Y-75842406D01*
X106453428Y-75805516D01*
X106480780Y-75778909D01*
X106538829Y-75737503D01*
X106659860Y-75651173D01*
X106694388Y-75616766D01*
X106814435Y-75497137D01*
X106818096Y-75493489D01*
X106831633Y-75474651D01*
X106945435Y-75316277D01*
X106948453Y-75312077D01*
X106954593Y-75299655D01*
X107045136Y-75116453D01*
X107045137Y-75116451D01*
X107047430Y-75111811D01*
X107112370Y-74898069D01*
X107141529Y-74676590D01*
X107142139Y-74651638D01*
X107143074Y-74613365D01*
X107143074Y-74613361D01*
X107143156Y-74610000D01*
X107124852Y-74387361D01*
X107070431Y-74170702D01*
X106981354Y-73965840D01*
X106937140Y-73897495D01*
X106862822Y-73782617D01*
X106862820Y-73782614D01*
X106860014Y-73778277D01*
X106709670Y-73613051D01*
X106705619Y-73609852D01*
X106705615Y-73609848D01*
X106538414Y-73477800D01*
X106538410Y-73477798D01*
X106534359Y-73474598D01*
X106493053Y-73451796D01*
X106443084Y-73401364D01*
X106428312Y-73331921D01*
X106453428Y-73265516D01*
X106480780Y-73238909D01*
X106524603Y-73207650D01*
X106659860Y-73111173D01*
X106818096Y-72953489D01*
X106850527Y-72908357D01*
X106945435Y-72776277D01*
X106948453Y-72772077D01*
X106953050Y-72762777D01*
X107045136Y-72576453D01*
X107045137Y-72576451D01*
X107047430Y-72571811D01*
X107098264Y-72404498D01*
X107110865Y-72363023D01*
X107110865Y-72363021D01*
X107112370Y-72358069D01*
X107141529Y-72136590D01*
X107143156Y-72070000D01*
X107124852Y-71847361D01*
X107070431Y-71630702D01*
X106981354Y-71425840D01*
X106890708Y-71285722D01*
X106867598Y-71250000D01*
X110736835Y-71250000D01*
X110755465Y-71486711D01*
X110756619Y-71491518D01*
X110756620Y-71491524D01*
X110789992Y-71630528D01*
X110810895Y-71717594D01*
X110812788Y-71722165D01*
X110812789Y-71722167D01*
X110883681Y-71893315D01*
X110901760Y-71936963D01*
X110904346Y-71941183D01*
X111023241Y-72135202D01*
X111023245Y-72135208D01*
X111025824Y-72139416D01*
X111180031Y-72319969D01*
X111360584Y-72474176D01*
X111364792Y-72476755D01*
X111364798Y-72476759D01*
X111511825Y-72566857D01*
X111563037Y-72598240D01*
X111567607Y-72600133D01*
X111567611Y-72600135D01*
X111776853Y-72686805D01*
X111782406Y-72689105D01*
X111847910Y-72704831D01*
X112008476Y-72743380D01*
X112008482Y-72743381D01*
X112013289Y-72744535D01*
X112250000Y-72763165D01*
X112486711Y-72744535D01*
X112491518Y-72743381D01*
X112491524Y-72743380D01*
X112652090Y-72704831D01*
X112717594Y-72689105D01*
X112723147Y-72686805D01*
X112932389Y-72600135D01*
X112932393Y-72600133D01*
X112936963Y-72598240D01*
X112988175Y-72566857D01*
X113135202Y-72476759D01*
X113135208Y-72476755D01*
X113139416Y-72474176D01*
X113319969Y-72319969D01*
X113474176Y-72139416D01*
X113476755Y-72135208D01*
X113476759Y-72135202D01*
X113595654Y-71941183D01*
X113598240Y-71936963D01*
X113616320Y-71893315D01*
X113687211Y-71722167D01*
X113687212Y-71722165D01*
X113689105Y-71717594D01*
X113710008Y-71630528D01*
X113743380Y-71491524D01*
X113743381Y-71491518D01*
X113744535Y-71486711D01*
X113763165Y-71250000D01*
X117736835Y-71250000D01*
X117755465Y-71486711D01*
X117756619Y-71491518D01*
X117756620Y-71491524D01*
X117789992Y-71630528D01*
X117810895Y-71717594D01*
X117812788Y-71722165D01*
X117812789Y-71722167D01*
X117883681Y-71893315D01*
X117901760Y-71936963D01*
X117904346Y-71941183D01*
X118023241Y-72135202D01*
X118023245Y-72135208D01*
X118025824Y-72139416D01*
X118180031Y-72319969D01*
X118360584Y-72474176D01*
X118364792Y-72476755D01*
X118364798Y-72476759D01*
X118511825Y-72566857D01*
X118563037Y-72598240D01*
X118567607Y-72600133D01*
X118567611Y-72600135D01*
X118776853Y-72686805D01*
X118782406Y-72689105D01*
X118847910Y-72704831D01*
X119008476Y-72743380D01*
X119008482Y-72743381D01*
X119013289Y-72744535D01*
X119250000Y-72763165D01*
X119486711Y-72744535D01*
X119491518Y-72743381D01*
X119491524Y-72743380D01*
X119652090Y-72704831D01*
X119717594Y-72689105D01*
X119723147Y-72686805D01*
X119932389Y-72600135D01*
X119932393Y-72600133D01*
X119936963Y-72598240D01*
X119988175Y-72566857D01*
X120135202Y-72476759D01*
X120135208Y-72476755D01*
X120139416Y-72474176D01*
X120319969Y-72319969D01*
X120444284Y-72174415D01*
X126643887Y-72174415D01*
X126670192Y-72450130D01*
X126671277Y-72454564D01*
X126671278Y-72454570D01*
X126706434Y-72598240D01*
X126736023Y-72719159D01*
X126737735Y-72723385D01*
X126737736Y-72723389D01*
X126832414Y-72957137D01*
X126840001Y-72975868D01*
X126877570Y-73040031D01*
X126964937Y-73189242D01*
X126979947Y-73214878D01*
X127068589Y-73325719D01*
X127144395Y-73420509D01*
X127152930Y-73431182D01*
X127355326Y-73620250D01*
X127359077Y-73622852D01*
X127359088Y-73622861D01*
X127402470Y-73652956D01*
X127447040Y-73708219D01*
X127454657Y-73778806D01*
X127434738Y-73827488D01*
X127331470Y-73978873D01*
X127326375Y-73987841D01*
X127233251Y-74188459D01*
X127229688Y-74198146D01*
X127170580Y-74411280D01*
X127168649Y-74421400D01*
X127145144Y-74641349D01*
X127144892Y-74651638D01*
X127157626Y-74872468D01*
X127159060Y-74882670D01*
X127207684Y-75098439D01*
X127210772Y-75108292D01*
X127293985Y-75313220D01*
X127298633Y-75322421D01*
X127387096Y-75466781D01*
X127397552Y-75476242D01*
X127406330Y-75472458D01*
X128467904Y-74410885D01*
X128530216Y-74376859D01*
X128601032Y-74381924D01*
X128646094Y-74410885D01*
X129703302Y-75468092D01*
X129715313Y-75474651D01*
X129727051Y-75465684D01*
X129765009Y-75412859D01*
X129770320Y-75404020D01*
X129868317Y-75205737D01*
X129872116Y-75196142D01*
X129936414Y-74984517D01*
X129938593Y-74974436D01*
X129967701Y-74753338D01*
X129968220Y-74746663D01*
X129969743Y-74684364D01*
X129969549Y-74677646D01*
X129951278Y-74455400D01*
X129949595Y-74445238D01*
X129895709Y-74230706D01*
X129892389Y-74220953D01*
X129890124Y-74215745D01*
X129881302Y-74145299D01*
X129911967Y-74081266D01*
X129972382Y-74043977D01*
X130005672Y-74039500D01*
X135808623Y-74039500D01*
X135876744Y-74059502D01*
X135923237Y-74113158D01*
X135934623Y-74165500D01*
X135934623Y-75296258D01*
X135941378Y-75358440D01*
X135992508Y-75494829D01*
X136079862Y-75611385D01*
X136196418Y-75698739D01*
X136332807Y-75749869D01*
X136394989Y-75756624D01*
X142991257Y-75756624D01*
X143053439Y-75749869D01*
X143189828Y-75698739D01*
X143306384Y-75611385D01*
X143393738Y-75494829D01*
X143444868Y-75358440D01*
X143451623Y-75296258D01*
X143451623Y-69199990D01*
X143444868Y-69137808D01*
X143393738Y-69001419D01*
X143306384Y-68884863D01*
X143189828Y-68797509D01*
X143053439Y-68746379D01*
X142991257Y-68739624D01*
X136394989Y-68739624D01*
X136332807Y-68746379D01*
X136196418Y-68797509D01*
X136079862Y-68884863D01*
X135992508Y-69001419D01*
X135941378Y-69137808D01*
X135934623Y-69199990D01*
X135934623Y-70096500D01*
X135914621Y-70164621D01*
X135860965Y-70211114D01*
X135808623Y-70222500D01*
X128486643Y-70222500D01*
X128484375Y-70222665D01*
X128484363Y-70222665D01*
X128365208Y-70231311D01*
X128280758Y-70237439D01*
X128192719Y-70256876D01*
X128014764Y-70296164D01*
X128014760Y-70296165D01*
X128010304Y-70297149D01*
X127960152Y-70316150D01*
X127755573Y-70393658D01*
X127755570Y-70393659D01*
X127751303Y-70395276D01*
X127583841Y-70488293D01*
X127520644Y-70523396D01*
X127509179Y-70529764D01*
X127444012Y-70579498D01*
X127352626Y-70649242D01*
X127289006Y-70697795D01*
X127285813Y-70701061D01*
X127285811Y-70701063D01*
X127206293Y-70782406D01*
X127095395Y-70895849D01*
X126994823Y-71034022D01*
X126941846Y-71106805D01*
X126932403Y-71119778D01*
X126803443Y-71364890D01*
X126801925Y-71369188D01*
X126801923Y-71369193D01*
X126752605Y-71508850D01*
X126711217Y-71626051D01*
X126657658Y-71897790D01*
X126657431Y-71902347D01*
X126657431Y-71902348D01*
X126645546Y-72141098D01*
X126643887Y-72174415D01*
X120444284Y-72174415D01*
X120474176Y-72139416D01*
X120476755Y-72135208D01*
X120476759Y-72135202D01*
X120595654Y-71941183D01*
X120598240Y-71936963D01*
X120616320Y-71893315D01*
X120687211Y-71722167D01*
X120687212Y-71722165D01*
X120689105Y-71717594D01*
X120710008Y-71630528D01*
X120743380Y-71491524D01*
X120743381Y-71491518D01*
X120744535Y-71486711D01*
X120763165Y-71250000D01*
X120744535Y-71013289D01*
X120741614Y-71001120D01*
X120707968Y-70860978D01*
X120689105Y-70782406D01*
X120672377Y-70742021D01*
X120600135Y-70567611D01*
X120600133Y-70567607D01*
X120598240Y-70563037D01*
X120573948Y-70523396D01*
X120476759Y-70364798D01*
X120476755Y-70364792D01*
X120474176Y-70360584D01*
X120319969Y-70180031D01*
X120139416Y-70025824D01*
X120135208Y-70023245D01*
X120135202Y-70023241D01*
X119941183Y-69904346D01*
X119936963Y-69901760D01*
X119932393Y-69899867D01*
X119932389Y-69899865D01*
X119722167Y-69812789D01*
X119722165Y-69812788D01*
X119717594Y-69810895D01*
X119637391Y-69791640D01*
X119491524Y-69756620D01*
X119491518Y-69756619D01*
X119486711Y-69755465D01*
X119250000Y-69736835D01*
X119013289Y-69755465D01*
X119008482Y-69756619D01*
X119008476Y-69756620D01*
X118862609Y-69791640D01*
X118782406Y-69810895D01*
X118777835Y-69812788D01*
X118777833Y-69812789D01*
X118567611Y-69899865D01*
X118567607Y-69899867D01*
X118563037Y-69901760D01*
X118558817Y-69904346D01*
X118364798Y-70023241D01*
X118364792Y-70023245D01*
X118360584Y-70025824D01*
X118180031Y-70180031D01*
X118025824Y-70360584D01*
X118023245Y-70364792D01*
X118023241Y-70364798D01*
X117926052Y-70523396D01*
X117901760Y-70563037D01*
X117899867Y-70567607D01*
X117899865Y-70567611D01*
X117827623Y-70742021D01*
X117810895Y-70782406D01*
X117792032Y-70860978D01*
X117758387Y-71001120D01*
X117755465Y-71013289D01*
X117736835Y-71250000D01*
X113763165Y-71250000D01*
X113744535Y-71013289D01*
X113741614Y-71001120D01*
X113707968Y-70860978D01*
X113689105Y-70782406D01*
X113672377Y-70742021D01*
X113600135Y-70567611D01*
X113600133Y-70567607D01*
X113598240Y-70563037D01*
X113573948Y-70523396D01*
X113476759Y-70364798D01*
X113476755Y-70364792D01*
X113474176Y-70360584D01*
X113319969Y-70180031D01*
X113139416Y-70025824D01*
X113135208Y-70023245D01*
X113135202Y-70023241D01*
X112941183Y-69904346D01*
X112936963Y-69901760D01*
X112932393Y-69899867D01*
X112932389Y-69899865D01*
X112722167Y-69812789D01*
X112722165Y-69812788D01*
X112717594Y-69810895D01*
X112637391Y-69791640D01*
X112491524Y-69756620D01*
X112491518Y-69756619D01*
X112486711Y-69755465D01*
X112250000Y-69736835D01*
X112013289Y-69755465D01*
X112008482Y-69756619D01*
X112008476Y-69756620D01*
X111862609Y-69791640D01*
X111782406Y-69810895D01*
X111777835Y-69812788D01*
X111777833Y-69812789D01*
X111567611Y-69899865D01*
X111567607Y-69899867D01*
X111563037Y-69901760D01*
X111558817Y-69904346D01*
X111364798Y-70023241D01*
X111364792Y-70023245D01*
X111360584Y-70025824D01*
X111180031Y-70180031D01*
X111025824Y-70360584D01*
X111023245Y-70364792D01*
X111023241Y-70364798D01*
X110926052Y-70523396D01*
X110901760Y-70563037D01*
X110899867Y-70567607D01*
X110899865Y-70567611D01*
X110827623Y-70742021D01*
X110810895Y-70782406D01*
X110792032Y-70860978D01*
X110758387Y-71001120D01*
X110755465Y-71013289D01*
X110736835Y-71250000D01*
X106867598Y-71250000D01*
X106862822Y-71242617D01*
X106862820Y-71242614D01*
X106860014Y-71238277D01*
X106709670Y-71073051D01*
X106705619Y-71069852D01*
X106705615Y-71069848D01*
X106538414Y-70937800D01*
X106538410Y-70937798D01*
X106534359Y-70934598D01*
X106493053Y-70911796D01*
X106443084Y-70861364D01*
X106428312Y-70791921D01*
X106453428Y-70725516D01*
X106480780Y-70698909D01*
X106544264Y-70653626D01*
X106659860Y-70571173D01*
X106668025Y-70563037D01*
X106806340Y-70425204D01*
X106818096Y-70413489D01*
X106877594Y-70330689D01*
X106945435Y-70236277D01*
X106948453Y-70232077D01*
X106958814Y-70211114D01*
X107045136Y-70036453D01*
X107045137Y-70036451D01*
X107047430Y-70031811D01*
X107112370Y-69818069D01*
X107141529Y-69596590D01*
X107141902Y-69581334D01*
X107143074Y-69533365D01*
X107143074Y-69533361D01*
X107143156Y-69530000D01*
X107124852Y-69307361D01*
X107070431Y-69090702D01*
X106981354Y-68885840D01*
X106941906Y-68824862D01*
X106862822Y-68702617D01*
X106862820Y-68702614D01*
X106860014Y-68698277D01*
X106709670Y-68533051D01*
X106705619Y-68529852D01*
X106705615Y-68529848D01*
X106538414Y-68397800D01*
X106538410Y-68397798D01*
X106534359Y-68394598D01*
X106492569Y-68371529D01*
X106442598Y-68321097D01*
X106427826Y-68251654D01*
X106452942Y-68185248D01*
X106480294Y-68158641D01*
X106655328Y-68033792D01*
X106663200Y-68027139D01*
X106814052Y-67876812D01*
X106820730Y-67868965D01*
X106945003Y-67696020D01*
X106950313Y-67687183D01*
X107044670Y-67496267D01*
X107048469Y-67486672D01*
X107110377Y-67282910D01*
X107112555Y-67272837D01*
X107113986Y-67261962D01*
X107111775Y-67247778D01*
X107098617Y-67244000D01*
X104463225Y-67244000D01*
X104449694Y-67247973D01*
X104448257Y-67257966D01*
X104478565Y-67392446D01*
X104481645Y-67402275D01*
X104561770Y-67599603D01*
X104566413Y-67608794D01*
X104677694Y-67790388D01*
X104683777Y-67798699D01*
X104823213Y-67959667D01*
X104830580Y-67966883D01*
X104994434Y-68102916D01*
X105002881Y-68108831D01*
X105071969Y-68149203D01*
X105120693Y-68200842D01*
X105133764Y-68270625D01*
X105107033Y-68336396D01*
X105066584Y-68369752D01*
X105053607Y-68376507D01*
X105049474Y-68379610D01*
X105049471Y-68379612D01*
X105025247Y-68397800D01*
X104874965Y-68510635D01*
X104720629Y-68672138D01*
X104594743Y-68856680D01*
X104579003Y-68890590D01*
X104511429Y-69036166D01*
X104500688Y-69059305D01*
X104440989Y-69274570D01*
X104417251Y-69496695D01*
X104417548Y-69501848D01*
X104417548Y-69501851D01*
X104423011Y-69596590D01*
X104430110Y-69719715D01*
X104431247Y-69724761D01*
X104431248Y-69724767D01*
X104451085Y-69812789D01*
X104479222Y-69937639D01*
X104563266Y-70144616D01*
X104584968Y-70180031D01*
X104657730Y-70298767D01*
X104679987Y-70335088D01*
X104826250Y-70503938D01*
X104998126Y-70646632D01*
X105052665Y-70678502D01*
X105071445Y-70689476D01*
X105120169Y-70741114D01*
X105133240Y-70810897D01*
X105106509Y-70876669D01*
X105066055Y-70910027D01*
X105053607Y-70916507D01*
X105049474Y-70919610D01*
X105049471Y-70919612D01*
X104879100Y-71047530D01*
X104874965Y-71050635D01*
X104720629Y-71212138D01*
X104717715Y-71216410D01*
X104717714Y-71216411D01*
X104670433Y-71285722D01*
X104594743Y-71396680D01*
X104500688Y-71599305D01*
X104440989Y-71814570D01*
X104417251Y-72036695D01*
X104417548Y-72041848D01*
X104417548Y-72041851D01*
X104422898Y-72134634D01*
X104430110Y-72259715D01*
X104431247Y-72264761D01*
X104431248Y-72264767D01*
X104443689Y-72319969D01*
X104479222Y-72477639D01*
X104563266Y-72684616D01*
X104566725Y-72690260D01*
X104654101Y-72832845D01*
X104679987Y-72875088D01*
X104826250Y-73043938D01*
X104998126Y-73186632D01*
X105052568Y-73218445D01*
X105071445Y-73229476D01*
X105120169Y-73281114D01*
X105133240Y-73350897D01*
X105106509Y-73416669D01*
X105066055Y-73450027D01*
X105053607Y-73456507D01*
X105049474Y-73459610D01*
X105049471Y-73459612D01*
X104985207Y-73507863D01*
X104874965Y-73590635D01*
X104871393Y-73594373D01*
X104732740Y-73739465D01*
X104720629Y-73752138D01*
X104717715Y-73756410D01*
X104717714Y-73756411D01*
X104644372Y-73863927D01*
X104594743Y-73936680D01*
X104500688Y-74139305D01*
X104440989Y-74354570D01*
X104417251Y-74576695D01*
X104417548Y-74581848D01*
X104417548Y-74581851D01*
X104423459Y-74684364D01*
X104430110Y-74799715D01*
X104431247Y-74804761D01*
X104431248Y-74804767D01*
X104446506Y-74872468D01*
X104479222Y-75017639D01*
X104563266Y-75224616D01*
X104565965Y-75229020D01*
X104673205Y-75404020D01*
X104679987Y-75415088D01*
X104826250Y-75583938D01*
X104998126Y-75726632D01*
X105068595Y-75767811D01*
X105071445Y-75769476D01*
X105120169Y-75821114D01*
X105133240Y-75890897D01*
X105106509Y-75956669D01*
X105066055Y-75990027D01*
X105053607Y-75996507D01*
X105049474Y-75999610D01*
X105049471Y-75999612D01*
X104879100Y-76127530D01*
X104874965Y-76130635D01*
X104720629Y-76292138D01*
X104594743Y-76476680D01*
X104579003Y-76510590D01*
X104506459Y-76666873D01*
X104500688Y-76679305D01*
X104440989Y-76894570D01*
X104417251Y-77116695D01*
X104417548Y-77121848D01*
X104417548Y-77121851D01*
X104423780Y-77229933D01*
X104430110Y-77339715D01*
X104431247Y-77344761D01*
X104431248Y-77344767D01*
X104439635Y-77381982D01*
X104479222Y-77557639D01*
X104517461Y-77651811D01*
X104555581Y-77745689D01*
X104563266Y-77764616D01*
X104597461Y-77820417D01*
X104663446Y-77928095D01*
X104679987Y-77955088D01*
X104826250Y-78123938D01*
X104998126Y-78266632D01*
X105017823Y-78278142D01*
X105071445Y-78309476D01*
X105120169Y-78361114D01*
X105133240Y-78430897D01*
X105106509Y-78496669D01*
X105066055Y-78530027D01*
X105053607Y-78536507D01*
X105049474Y-78539610D01*
X105049471Y-78539612D01*
X105020130Y-78561642D01*
X104874965Y-78670635D01*
X104720629Y-78832138D01*
X104717715Y-78836410D01*
X104717714Y-78836411D01*
X104705404Y-78854457D01*
X104594743Y-79016680D01*
X104579003Y-79050590D01*
X104513795Y-79191069D01*
X104500688Y-79219305D01*
X104440989Y-79434570D01*
X104417251Y-79656695D01*
X104417548Y-79661848D01*
X104417548Y-79661851D01*
X104422920Y-79755011D01*
X104430110Y-79879715D01*
X104431247Y-79884761D01*
X104431248Y-79884767D01*
X104445449Y-79947778D01*
X104479222Y-80097639D01*
X104563266Y-80304616D01*
X104679987Y-80495088D01*
X104826250Y-80663938D01*
X104998126Y-80806632D01*
X105068595Y-80847811D01*
X105071445Y-80849476D01*
X105120169Y-80901114D01*
X105133240Y-80970897D01*
X105106509Y-81036669D01*
X105066055Y-81070027D01*
X105053607Y-81076507D01*
X105049474Y-81079610D01*
X105049471Y-81079612D01*
X104981363Y-81130749D01*
X104874965Y-81210635D01*
X104720629Y-81372138D01*
X104717715Y-81376410D01*
X104717714Y-81376411D01*
X104702798Y-81398277D01*
X104594743Y-81556680D01*
X104500688Y-81759305D01*
X104440989Y-81974570D01*
X104417251Y-82196695D01*
X104417548Y-82201848D01*
X104417548Y-82201851D01*
X104423011Y-82296590D01*
X104430110Y-82419715D01*
X104431247Y-82424761D01*
X104431248Y-82424767D01*
X104444597Y-82484000D01*
X104479222Y-82637639D01*
X104563266Y-82844616D01*
X104679987Y-83035088D01*
X104826250Y-83203938D01*
X104998126Y-83346632D01*
X105068595Y-83387811D01*
X105071445Y-83389476D01*
X105120169Y-83441114D01*
X105133240Y-83510897D01*
X105106509Y-83576669D01*
X105066055Y-83610027D01*
X105053607Y-83616507D01*
X105049474Y-83619610D01*
X105049471Y-83619612D01*
X104896432Y-83734517D01*
X104874965Y-83750635D01*
X104720629Y-83912138D01*
X104594743Y-84096680D01*
X104579003Y-84130590D01*
X104534603Y-84226242D01*
X104500688Y-84299305D01*
X104440989Y-84514570D01*
X104417251Y-84736695D01*
X104417548Y-84741848D01*
X104417548Y-84741851D01*
X104422866Y-84834076D01*
X104430110Y-84959715D01*
X104431247Y-84964761D01*
X104431248Y-84964767D01*
X104451119Y-85052939D01*
X104479222Y-85177639D01*
X104563266Y-85384616D01*
X104679987Y-85575088D01*
X104826250Y-85743938D01*
X104998126Y-85886632D01*
X105056885Y-85920968D01*
X105071445Y-85929476D01*
X105120169Y-85981114D01*
X105133240Y-86050897D01*
X105106509Y-86116669D01*
X105066055Y-86150027D01*
X105053607Y-86156507D01*
X105049474Y-86159610D01*
X105049471Y-86159612D01*
X105025247Y-86177800D01*
X104874965Y-86290635D01*
X104720629Y-86452138D01*
X104594743Y-86636680D01*
X104500688Y-86839305D01*
X104440989Y-87054570D01*
X104417251Y-87276695D01*
X104417548Y-87281848D01*
X104417548Y-87281851D01*
X104423011Y-87376590D01*
X104430110Y-87499715D01*
X104431247Y-87504761D01*
X104431248Y-87504767D01*
X104451119Y-87592939D01*
X104479222Y-87717639D01*
X104563266Y-87924616D01*
X104679987Y-88115088D01*
X104826250Y-88283938D01*
X104998126Y-88426632D01*
X105068595Y-88467811D01*
X105071445Y-88469476D01*
X105120169Y-88521114D01*
X105133240Y-88590897D01*
X105106509Y-88656669D01*
X105066055Y-88690027D01*
X105053607Y-88696507D01*
X105049474Y-88699610D01*
X105049471Y-88699612D01*
X104879100Y-88827530D01*
X104874965Y-88830635D01*
X104720629Y-88992138D01*
X104594743Y-89176680D01*
X104500688Y-89379305D01*
X104440989Y-89594570D01*
X104417251Y-89816695D01*
X104417548Y-89821848D01*
X104417548Y-89821851D01*
X104423533Y-89925646D01*
X104430110Y-90039715D01*
X104431247Y-90044761D01*
X104431248Y-90044767D01*
X104448322Y-90120529D01*
X104479222Y-90257639D01*
X104563266Y-90464616D01*
X104565965Y-90469020D01*
X104664187Y-90629304D01*
X104679987Y-90655088D01*
X104826250Y-90823938D01*
X104998126Y-90966632D01*
X105054560Y-90999609D01*
X105071445Y-91009476D01*
X105120169Y-91061114D01*
X105133240Y-91130897D01*
X105106509Y-91196669D01*
X105066055Y-91230027D01*
X105053607Y-91236507D01*
X105049474Y-91239610D01*
X105049471Y-91239612D01*
X104879100Y-91367530D01*
X104874965Y-91370635D01*
X104838090Y-91409222D01*
X104733065Y-91519125D01*
X104720629Y-91532138D01*
X104717715Y-91536410D01*
X104717714Y-91536411D01*
X104642711Y-91646361D01*
X104594743Y-91716680D01*
X104555461Y-91801306D01*
X104511183Y-91896696D01*
X104500688Y-91919305D01*
X104440989Y-92134570D01*
X104417251Y-92356695D01*
X104417548Y-92361848D01*
X104417548Y-92361851D01*
X104423011Y-92456590D01*
X104430110Y-92579715D01*
X104431247Y-92584761D01*
X104431248Y-92584767D01*
X104439103Y-92619620D01*
X104479222Y-92797639D01*
X104525806Y-92912363D01*
X104551914Y-92976658D01*
X104563266Y-93004616D01*
X104604817Y-93072421D01*
X104654821Y-93154020D01*
X104679987Y-93195088D01*
X104826250Y-93363938D01*
X104998126Y-93506632D01*
X105068595Y-93547811D01*
X105071445Y-93549476D01*
X105120169Y-93601114D01*
X105133240Y-93670897D01*
X105106509Y-93736669D01*
X105066055Y-93770027D01*
X105053607Y-93776507D01*
X105049474Y-93779610D01*
X105049471Y-93779612D01*
X104879100Y-93907530D01*
X104874965Y-93910635D01*
X104871393Y-93914373D01*
X104788559Y-94001054D01*
X104720629Y-94072138D01*
X104717715Y-94076410D01*
X104717714Y-94076411D01*
X104702798Y-94098277D01*
X104594743Y-94256680D01*
X104500688Y-94459305D01*
X104440989Y-94674570D01*
X104417251Y-94896695D01*
X104417548Y-94901848D01*
X104417548Y-94901851D01*
X104427914Y-95081635D01*
X104430110Y-95119715D01*
X104431247Y-95124761D01*
X104431248Y-95124767D01*
X104445613Y-95188507D01*
X104479222Y-95337639D01*
X104563266Y-95544616D01*
X104565965Y-95549020D01*
X104654509Y-95693511D01*
X104679987Y-95735088D01*
X104826250Y-95903938D01*
X104998126Y-96046632D01*
X105006226Y-96051365D01*
X105071445Y-96089476D01*
X105120169Y-96141114D01*
X105133240Y-96210897D01*
X105106509Y-96276669D01*
X105066055Y-96310027D01*
X105053607Y-96316507D01*
X105049474Y-96319610D01*
X105049471Y-96319612D01*
X105025247Y-96337800D01*
X104874965Y-96450635D01*
X104720629Y-96612138D01*
X104717715Y-96616410D01*
X104717714Y-96616411D01*
X104642518Y-96726645D01*
X104594743Y-96796680D01*
X104500688Y-96999305D01*
X104440989Y-97214570D01*
X104417251Y-97436695D01*
X104417548Y-97441848D01*
X104417548Y-97441851D01*
X104423011Y-97536590D01*
X104430110Y-97659715D01*
X104431247Y-97664761D01*
X104431248Y-97664767D01*
X104437273Y-97691500D01*
X104479222Y-97877639D01*
X104516920Y-97970479D01*
X104553193Y-98059808D01*
X104563266Y-98084616D01*
X104609673Y-98160346D01*
X104669145Y-98257395D01*
X104679987Y-98275088D01*
X104826250Y-98443938D01*
X104998126Y-98586632D01*
X105023407Y-98601405D01*
X105071445Y-98629476D01*
X105120169Y-98681114D01*
X105133240Y-98750897D01*
X105106509Y-98816669D01*
X105066055Y-98850027D01*
X105053607Y-98856507D01*
X105049474Y-98859610D01*
X105049471Y-98859612D01*
X104886860Y-98981704D01*
X104874965Y-98990635D01*
X104868708Y-98997183D01*
X104771115Y-99099308D01*
X104720629Y-99152138D01*
X104717715Y-99156410D01*
X104717714Y-99156411D01*
X104688649Y-99199019D01*
X104594743Y-99336680D01*
X104559741Y-99412085D01*
X104506021Y-99527817D01*
X104500688Y-99539305D01*
X104440989Y-99754570D01*
X104417251Y-99976695D01*
X104417548Y-99981848D01*
X104417548Y-99981851D01*
X104427454Y-100153650D01*
X104430110Y-100199715D01*
X104431247Y-100204761D01*
X104431248Y-100204767D01*
X104453100Y-100301727D01*
X104479222Y-100417639D01*
X104529148Y-100540593D01*
X104557193Y-100609659D01*
X104563266Y-100624616D01*
X104592285Y-100671971D01*
X104645629Y-100759020D01*
X104679987Y-100815088D01*
X104826250Y-100983938D01*
X104998126Y-101126632D01*
X105005601Y-101131000D01*
X105071445Y-101169476D01*
X105120169Y-101221114D01*
X105133240Y-101290897D01*
X105106509Y-101356669D01*
X105066055Y-101390027D01*
X105053607Y-101396507D01*
X105049474Y-101399610D01*
X105049471Y-101399612D01*
X104911321Y-101503338D01*
X104874965Y-101530635D01*
X104871393Y-101534373D01*
X104768661Y-101641876D01*
X104720629Y-101692138D01*
X104717715Y-101696410D01*
X104717714Y-101696411D01*
X104688649Y-101739019D01*
X104594743Y-101876680D01*
X104579003Y-101910590D01*
X104516259Y-102045761D01*
X104500688Y-102079305D01*
X104440989Y-102294570D01*
X104417251Y-102516695D01*
X100508500Y-102516695D01*
X100508500Y-64416695D01*
X104417251Y-64416695D01*
X104417548Y-64421848D01*
X104417548Y-64421851D01*
X104423011Y-64516590D01*
X104430110Y-64639715D01*
X104431247Y-64644761D01*
X104431248Y-64644767D01*
X104437067Y-64670586D01*
X104479222Y-64857639D01*
X104563266Y-65064616D01*
X104569233Y-65074353D01*
X104672420Y-65242739D01*
X104679987Y-65255088D01*
X104826250Y-65423938D01*
X104998126Y-65566632D01*
X105053743Y-65599132D01*
X105071955Y-65609774D01*
X105120679Y-65661412D01*
X105133750Y-65731195D01*
X105107019Y-65796967D01*
X105066562Y-65830327D01*
X105058457Y-65834546D01*
X105049738Y-65840036D01*
X104879433Y-65967905D01*
X104871726Y-65974748D01*
X104724590Y-66128717D01*
X104718104Y-66136727D01*
X104598098Y-66312649D01*
X104593000Y-66321623D01*
X104503338Y-66514783D01*
X104499775Y-66524470D01*
X104444389Y-66724183D01*
X104445912Y-66732607D01*
X104458292Y-66736000D01*
X107098344Y-66736000D01*
X107111875Y-66732027D01*
X107113180Y-66722947D01*
X107071214Y-66555875D01*
X107067894Y-66546124D01*
X106982972Y-66350814D01*
X106978105Y-66341739D01*
X106862426Y-66162926D01*
X106856136Y-66154757D01*
X106712806Y-65997240D01*
X106705273Y-65990215D01*
X106538139Y-65858222D01*
X106529556Y-65852520D01*
X106492602Y-65832120D01*
X106442631Y-65781687D01*
X106427859Y-65712245D01*
X106452975Y-65645839D01*
X106480327Y-65619232D01*
X106508506Y-65599132D01*
X106659860Y-65491173D01*
X106697826Y-65453340D01*
X106756836Y-65394535D01*
X106818096Y-65333489D01*
X106868908Y-65262777D01*
X106945435Y-65156277D01*
X106948453Y-65152077D01*
X106952749Y-65143386D01*
X107045136Y-64956453D01*
X107045137Y-64956451D01*
X107047430Y-64951811D01*
X107112370Y-64738069D01*
X107141529Y-64516590D01*
X107143156Y-64450000D01*
X107124852Y-64227361D01*
X107070431Y-64010702D01*
X106981354Y-63805840D01*
X106945230Y-63750000D01*
X110736835Y-63750000D01*
X110755465Y-63986711D01*
X110756619Y-63991518D01*
X110756620Y-63991524D01*
X110774839Y-64067411D01*
X110810895Y-64217594D01*
X110812788Y-64222165D01*
X110812789Y-64222167D01*
X110893365Y-64416695D01*
X110901760Y-64436963D01*
X110904346Y-64441183D01*
X111023241Y-64635202D01*
X111023245Y-64635208D01*
X111025824Y-64639416D01*
X111180031Y-64819969D01*
X111360584Y-64974176D01*
X111364792Y-64976755D01*
X111364798Y-64976759D01*
X111524057Y-65074353D01*
X111563037Y-65098240D01*
X111567607Y-65100133D01*
X111567611Y-65100135D01*
X111777833Y-65187211D01*
X111782406Y-65189105D01*
X111862609Y-65208360D01*
X112008476Y-65243380D01*
X112008482Y-65243381D01*
X112013289Y-65244535D01*
X112250000Y-65263165D01*
X112486711Y-65244535D01*
X112491518Y-65243381D01*
X112491524Y-65243380D01*
X112637391Y-65208360D01*
X112717594Y-65189105D01*
X112722167Y-65187211D01*
X112932389Y-65100135D01*
X112932393Y-65100133D01*
X112936963Y-65098240D01*
X112975943Y-65074353D01*
X113135202Y-64976759D01*
X113135208Y-64976755D01*
X113139416Y-64974176D01*
X113319969Y-64819969D01*
X113474176Y-64639416D01*
X113476755Y-64635208D01*
X113476759Y-64635202D01*
X113595654Y-64441183D01*
X113598240Y-64436963D01*
X113606636Y-64416695D01*
X113687211Y-64222167D01*
X113687212Y-64222165D01*
X113689105Y-64217594D01*
X113725161Y-64067411D01*
X113743380Y-63991524D01*
X113743381Y-63991518D01*
X113744535Y-63986711D01*
X113763165Y-63750000D01*
X117736835Y-63750000D01*
X117755465Y-63986711D01*
X117756619Y-63991518D01*
X117756620Y-63991524D01*
X117774839Y-64067411D01*
X117810895Y-64217594D01*
X117812788Y-64222165D01*
X117812789Y-64222167D01*
X117893365Y-64416695D01*
X117901760Y-64436963D01*
X117904346Y-64441183D01*
X118023241Y-64635202D01*
X118023245Y-64635208D01*
X118025824Y-64639416D01*
X118180031Y-64819969D01*
X118360584Y-64974176D01*
X118364792Y-64976755D01*
X118364798Y-64976759D01*
X118524057Y-65074353D01*
X118563037Y-65098240D01*
X118567607Y-65100133D01*
X118567611Y-65100135D01*
X118777833Y-65187211D01*
X118782406Y-65189105D01*
X118862609Y-65208360D01*
X119008476Y-65243380D01*
X119008482Y-65243381D01*
X119013289Y-65244535D01*
X119250000Y-65263165D01*
X119486711Y-65244535D01*
X119491518Y-65243381D01*
X119491524Y-65243380D01*
X119637391Y-65208360D01*
X119717594Y-65189105D01*
X119722167Y-65187211D01*
X119932389Y-65100135D01*
X119932393Y-65100133D01*
X119936963Y-65098240D01*
X119975943Y-65074353D01*
X120135202Y-64976759D01*
X120135208Y-64976755D01*
X120139416Y-64974176D01*
X120319969Y-64819969D01*
X120474176Y-64639416D01*
X120476755Y-64635208D01*
X120476759Y-64635202D01*
X120595654Y-64441183D01*
X120598240Y-64436963D01*
X120606636Y-64416695D01*
X120687211Y-64222167D01*
X120687212Y-64222165D01*
X120689105Y-64217594D01*
X120725161Y-64067411D01*
X143753977Y-64067411D01*
X143762945Y-64306274D01*
X143764040Y-64311492D01*
X143787196Y-64421851D01*
X143812030Y-64540211D01*
X143899829Y-64762533D01*
X144023832Y-64966883D01*
X144027329Y-64970913D01*
X144137818Y-65098240D01*
X144180493Y-65147419D01*
X144213320Y-65174335D01*
X144322514Y-65263869D01*
X144362509Y-65322529D01*
X144368623Y-65361303D01*
X144368623Y-70673258D01*
X144375378Y-70735440D01*
X144426508Y-70871829D01*
X144513862Y-70988385D01*
X144537556Y-71006143D01*
X144623236Y-71070357D01*
X144623239Y-71070359D01*
X144630418Y-71075739D01*
X144716607Y-71108050D01*
X144772540Y-71149589D01*
X144843918Y-71243117D01*
X144847184Y-71246310D01*
X144847186Y-71246312D01*
X144911516Y-71309199D01*
X145041972Y-71436728D01*
X145145523Y-71512100D01*
X145258881Y-71594610D01*
X145265901Y-71599720D01*
X145511013Y-71728680D01*
X145515311Y-71730198D01*
X145515316Y-71730200D01*
X145705002Y-71797185D01*
X145772174Y-71820906D01*
X146043913Y-71874465D01*
X146048470Y-71874692D01*
X146048471Y-71874692D01*
X146315969Y-71888009D01*
X146315975Y-71888009D01*
X146320538Y-71888236D01*
X146596253Y-71861931D01*
X146600687Y-71860846D01*
X146600693Y-71860845D01*
X146860848Y-71797185D01*
X146865282Y-71796100D01*
X146869508Y-71794388D01*
X146869512Y-71794387D01*
X147117762Y-71693835D01*
X147117763Y-71693835D01*
X147121991Y-71692122D01*
X147361001Y-71552176D01*
X147533183Y-71414478D01*
X147573739Y-71382045D01*
X147573741Y-71382044D01*
X147577305Y-71379193D01*
X147584032Y-71371992D01*
X147763255Y-71180135D01*
X147763256Y-71180134D01*
X147766373Y-71176797D01*
X147783341Y-71152338D01*
X147842638Y-71106176D01*
X147915420Y-71078891D01*
X147923828Y-71075739D01*
X148040384Y-70988385D01*
X148127738Y-70871829D01*
X148145979Y-70823171D01*
X148176095Y-70742838D01*
X148176096Y-70742835D01*
X148178868Y-70735440D01*
X148179495Y-70729671D01*
X148214249Y-70668833D01*
X148277204Y-70636011D01*
X148301616Y-70633624D01*
X148811007Y-70633624D01*
X148879128Y-70653626D01*
X148918151Y-70693321D01*
X148926522Y-70706848D01*
X149051697Y-70831805D01*
X149055916Y-70834406D01*
X149096417Y-70891530D01*
X149099649Y-70962453D01*
X149064024Y-71023865D01*
X149056470Y-71030422D01*
X149050652Y-71034022D01*
X148925695Y-71159197D01*
X148919275Y-71169612D01*
X148915849Y-71175170D01*
X148863076Y-71222662D01*
X148819267Y-71233351D01*
X148819335Y-71233783D01*
X148814098Y-71234612D01*
X148812551Y-71234990D01*
X148812274Y-71234999D01*
X148803582Y-71235272D01*
X148782992Y-71241254D01*
X148763631Y-71245264D01*
X148756643Y-71246146D01*
X148750209Y-71246959D01*
X148750208Y-71246959D01*
X148742349Y-71247952D01*
X148734984Y-71250868D01*
X148734980Y-71250869D01*
X148699392Y-71264960D01*
X148688182Y-71268799D01*
X148643813Y-71281689D01*
X148625348Y-71292609D01*
X148607608Y-71301300D01*
X148587657Y-71309199D01*
X148550287Y-71336350D01*
X148540365Y-71342867D01*
X148507436Y-71362341D01*
X148507432Y-71362344D01*
X148500606Y-71366381D01*
X148485442Y-71381545D01*
X148470409Y-71394385D01*
X148453056Y-71406993D01*
X148428457Y-71436728D01*
X148423611Y-71442586D01*
X148415621Y-71451366D01*
X146541268Y-73325719D01*
X146478956Y-73359745D01*
X146452173Y-73362624D01*
X144828989Y-73362624D01*
X144766807Y-73369379D01*
X144630418Y-73420509D01*
X144513862Y-73507863D01*
X144426508Y-73624419D01*
X144375378Y-73760808D01*
X144368623Y-73822990D01*
X144368623Y-75219258D01*
X144375378Y-75281440D01*
X144426508Y-75417829D01*
X144513862Y-75534385D01*
X144630418Y-75621739D01*
X144766807Y-75672869D01*
X144828989Y-75679624D01*
X145492623Y-75679624D01*
X145560744Y-75699626D01*
X145607237Y-75753282D01*
X145618623Y-75805624D01*
X145618623Y-77194918D01*
X145598621Y-77263039D01*
X145558926Y-77302062D01*
X145483892Y-77348495D01*
X145438152Y-77376800D01*
X145313195Y-77501975D01*
X145309355Y-77508205D01*
X145309354Y-77508206D01*
X145242678Y-77616375D01*
X145220385Y-77652540D01*
X145218081Y-77659487D01*
X145181751Y-77769020D01*
X145164703Y-77820417D01*
X145154000Y-77924878D01*
X145154000Y-78925678D01*
X145154337Y-78928924D01*
X145154337Y-78928928D01*
X145163942Y-79021494D01*
X145164974Y-79031444D01*
X145167155Y-79037980D01*
X145167155Y-79037982D01*
X145180966Y-79079378D01*
X145220950Y-79199224D01*
X145314022Y-79349626D01*
X145439197Y-79474583D01*
X145445427Y-79478423D01*
X145445428Y-79478424D01*
X145582590Y-79562972D01*
X145589762Y-79567393D01*
X145647802Y-79586644D01*
X145751111Y-79620910D01*
X145751113Y-79620910D01*
X145757639Y-79623075D01*
X145764475Y-79623775D01*
X145764478Y-79623776D01*
X145807531Y-79628187D01*
X145862100Y-79633778D01*
X146487900Y-79633778D01*
X146491146Y-79633441D01*
X146491150Y-79633441D01*
X146586808Y-79623516D01*
X146586812Y-79623515D01*
X146593666Y-79622804D01*
X146600202Y-79620623D01*
X146600204Y-79620623D01*
X146732306Y-79576550D01*
X146761446Y-79566828D01*
X146911848Y-79473756D01*
X146998284Y-79387169D01*
X147060566Y-79353090D01*
X147131386Y-79358093D01*
X147176475Y-79387014D01*
X147221567Y-79432027D01*
X147264197Y-79474583D01*
X147270427Y-79478423D01*
X147270428Y-79478424D01*
X147407590Y-79562972D01*
X147414762Y-79567393D01*
X147472802Y-79586644D01*
X147576111Y-79620910D01*
X147576113Y-79620910D01*
X147582639Y-79623075D01*
X147589475Y-79623775D01*
X147589478Y-79623776D01*
X147632531Y-79628187D01*
X147687100Y-79633778D01*
X148312900Y-79633778D01*
X148316146Y-79633441D01*
X148316150Y-79633441D01*
X148411808Y-79623516D01*
X148411812Y-79623515D01*
X148418666Y-79622804D01*
X148425202Y-79620623D01*
X148425204Y-79620623D01*
X148557306Y-79576550D01*
X148586446Y-79566828D01*
X148736848Y-79473756D01*
X148861805Y-79348581D01*
X148922139Y-79250702D01*
X148950775Y-79204246D01*
X148950776Y-79204244D01*
X148954615Y-79198016D01*
X148965574Y-79164975D01*
X149006004Y-79106615D01*
X149071568Y-79079378D01*
X149085167Y-79078642D01*
X149921551Y-79078642D01*
X149985690Y-79096189D01*
X150026754Y-79120474D01*
X150126201Y-79179287D01*
X150133812Y-79181498D01*
X150133814Y-79181499D01*
X150166755Y-79191069D01*
X150285971Y-79225704D01*
X150292376Y-79226208D01*
X150292381Y-79226209D01*
X150320844Y-79228449D01*
X150320852Y-79228449D01*
X150323300Y-79228642D01*
X151480302Y-79228642D01*
X151548423Y-79248644D01*
X151594916Y-79302300D01*
X151606302Y-79354642D01*
X151606302Y-79586644D01*
X151609240Y-79623973D01*
X151655657Y-79783743D01*
X151659694Y-79790569D01*
X151736311Y-79920122D01*
X151736313Y-79920125D01*
X151740349Y-79926949D01*
X151857995Y-80044595D01*
X151864819Y-80048631D01*
X151864822Y-80048633D01*
X151938906Y-80092446D01*
X152001201Y-80129287D01*
X152008812Y-80131498D01*
X152008814Y-80131499D01*
X152061033Y-80146670D01*
X152160971Y-80175704D01*
X152167376Y-80176208D01*
X152167381Y-80176209D01*
X152195844Y-80178449D01*
X152195852Y-80178449D01*
X152198300Y-80178642D01*
X153506304Y-80178642D01*
X153508752Y-80178449D01*
X153508760Y-80178449D01*
X153537223Y-80176209D01*
X153537228Y-80176208D01*
X153543633Y-80175704D01*
X153643571Y-80146670D01*
X153695790Y-80131499D01*
X153695792Y-80131498D01*
X153703403Y-80129287D01*
X153765698Y-80092446D01*
X153839782Y-80048633D01*
X153839785Y-80048631D01*
X153846609Y-80044595D01*
X153964255Y-79926949D01*
X153968291Y-79920125D01*
X153968293Y-79920122D01*
X154044910Y-79790569D01*
X154048947Y-79783743D01*
X154095364Y-79623973D01*
X154098302Y-79586644D01*
X154098302Y-79153640D01*
X154098110Y-79151195D01*
X154098109Y-79151181D01*
X154095692Y-79120474D01*
X154110288Y-79050994D01*
X154132209Y-79021494D01*
X158407600Y-74746103D01*
X158416381Y-74738113D01*
X158416390Y-74738105D01*
X158423080Y-74733860D01*
X158471621Y-74682169D01*
X158474375Y-74679328D01*
X158494926Y-74658777D01*
X158497638Y-74655281D01*
X158505349Y-74646252D01*
X158531544Y-74618357D01*
X158536972Y-74612577D01*
X158547301Y-74593789D01*
X158558158Y-74577260D01*
X158566447Y-74566575D01*
X158566448Y-74566573D01*
X158571304Y-74560313D01*
X158589657Y-74517900D01*
X158594868Y-74507263D01*
X158617124Y-74466781D01*
X158622457Y-74446010D01*
X158628859Y-74427308D01*
X158637379Y-74407621D01*
X158644605Y-74361996D01*
X158647013Y-74350370D01*
X158656529Y-74313309D01*
X158656529Y-74313308D01*
X158658500Y-74305632D01*
X158658500Y-74284186D01*
X158660051Y-74264475D01*
X158662166Y-74251122D01*
X158663406Y-74243293D01*
X158659059Y-74197308D01*
X158658500Y-74185450D01*
X158658500Y-72908357D01*
X158678502Y-72840236D01*
X158732158Y-72793743D01*
X158744622Y-72788834D01*
X158766995Y-72781370D01*
X158767002Y-72781367D01*
X158773946Y-72779050D01*
X158924348Y-72685978D01*
X159049305Y-72560803D01*
X159089318Y-72495891D01*
X159138275Y-72416468D01*
X159138276Y-72416466D01*
X159142115Y-72410238D01*
X159197797Y-72242361D01*
X159208500Y-72137900D01*
X159208500Y-71512100D01*
X159205354Y-71481777D01*
X159198238Y-71413192D01*
X159198237Y-71413188D01*
X159197526Y-71406334D01*
X159187357Y-71375852D01*
X159143868Y-71245502D01*
X159141550Y-71238554D01*
X159048478Y-71088152D01*
X158978427Y-71018223D01*
X158961537Y-71001362D01*
X158927458Y-70939079D01*
X158932461Y-70868259D01*
X158961382Y-70823171D01*
X159043739Y-70740671D01*
X159052751Y-70729260D01*
X159137816Y-70591257D01*
X159143963Y-70578076D01*
X159195138Y-70423790D01*
X159198005Y-70410414D01*
X159207672Y-70316062D01*
X159208000Y-70309646D01*
X159208000Y-70272115D01*
X159203525Y-70256876D01*
X159202135Y-70255671D01*
X159194452Y-70254000D01*
X157872000Y-70254000D01*
X157803879Y-70233998D01*
X157757386Y-70180342D01*
X157746000Y-70128000D01*
X157746000Y-69727885D01*
X158254000Y-69727885D01*
X158258475Y-69743124D01*
X158259865Y-69744329D01*
X158267548Y-69746000D01*
X159189884Y-69746000D01*
X159205123Y-69741525D01*
X159206328Y-69740135D01*
X159207999Y-69732452D01*
X159207999Y-69690405D01*
X159207662Y-69683886D01*
X159197743Y-69588294D01*
X159194851Y-69574900D01*
X159143412Y-69420716D01*
X159137239Y-69407538D01*
X159051937Y-69269693D01*
X159042901Y-69258292D01*
X158928171Y-69143761D01*
X158916760Y-69134749D01*
X158778757Y-69049684D01*
X158765576Y-69043537D01*
X158611290Y-68992362D01*
X158597914Y-68989495D01*
X158503562Y-68979828D01*
X158497145Y-68979500D01*
X158272115Y-68979500D01*
X158256876Y-68983975D01*
X158255671Y-68985365D01*
X158254000Y-68993048D01*
X158254000Y-69727885D01*
X157746000Y-69727885D01*
X157746000Y-68997616D01*
X157741525Y-68982377D01*
X157740135Y-68981172D01*
X157732452Y-68979501D01*
X157502905Y-68979501D01*
X157496386Y-68979838D01*
X157400794Y-68989757D01*
X157387400Y-68992649D01*
X157233216Y-69044088D01*
X157220038Y-69050261D01*
X157082193Y-69135563D01*
X157070792Y-69144599D01*
X156956261Y-69259329D01*
X156947249Y-69270740D01*
X156858342Y-69414975D01*
X156855959Y-69413506D01*
X156817573Y-69457125D01*
X156749301Y-69476604D01*
X156681336Y-69456081D01*
X156643408Y-69412404D01*
X156641550Y-69413554D01*
X156552332Y-69269380D01*
X156548478Y-69263152D01*
X156423303Y-69138195D01*
X156410281Y-69130168D01*
X156278968Y-69049225D01*
X156278966Y-69049224D01*
X156272738Y-69045385D01*
X156244830Y-69036128D01*
X156186472Y-68995697D01*
X156159236Y-68930133D01*
X156158500Y-68916536D01*
X156158500Y-66014950D01*
X156178502Y-65946829D01*
X156195405Y-65925855D01*
X162055855Y-60065405D01*
X162118167Y-60031379D01*
X162144950Y-60028500D01*
X162939594Y-60028500D01*
X163007715Y-60048502D01*
X163047027Y-60088665D01*
X163099987Y-60175088D01*
X163246250Y-60343938D01*
X163418126Y-60486632D01*
X163488595Y-60527811D01*
X163491445Y-60529476D01*
X163540169Y-60581114D01*
X163553240Y-60650897D01*
X163526509Y-60716669D01*
X163486055Y-60750027D01*
X163473607Y-60756507D01*
X163469474Y-60759610D01*
X163469471Y-60759612D01*
X163445247Y-60777800D01*
X163294965Y-60890635D01*
X163140629Y-61052138D01*
X163014743Y-61236680D01*
X162920688Y-61439305D01*
X162860989Y-61654570D01*
X162837251Y-61876695D01*
X162837548Y-61881848D01*
X162837548Y-61881851D01*
X162843011Y-61976590D01*
X162850110Y-62099715D01*
X162851247Y-62104761D01*
X162851248Y-62104767D01*
X162871119Y-62192939D01*
X162899222Y-62317639D01*
X162937461Y-62411811D01*
X162978211Y-62512166D01*
X162983266Y-62524616D01*
X162985965Y-62529020D01*
X163080642Y-62683519D01*
X163099987Y-62715088D01*
X163246250Y-62883938D01*
X163418126Y-63026632D01*
X163438941Y-63038795D01*
X163491955Y-63069774D01*
X163540679Y-63121412D01*
X163553750Y-63191195D01*
X163527019Y-63256967D01*
X163486562Y-63290327D01*
X163478457Y-63294546D01*
X163469738Y-63300036D01*
X163299433Y-63427905D01*
X163291726Y-63434748D01*
X163144590Y-63588717D01*
X163138104Y-63596727D01*
X163018098Y-63772649D01*
X163013000Y-63781623D01*
X162923338Y-63974783D01*
X162919775Y-63984470D01*
X162864389Y-64184183D01*
X162865912Y-64192607D01*
X162878292Y-64196000D01*
X165518344Y-64196000D01*
X165531875Y-64192027D01*
X165533180Y-64182947D01*
X165491214Y-64015875D01*
X165487894Y-64006124D01*
X165402972Y-63810814D01*
X165398105Y-63801739D01*
X165282426Y-63622926D01*
X165276136Y-63614757D01*
X165132806Y-63457240D01*
X165125273Y-63450215D01*
X164958139Y-63318222D01*
X164949556Y-63312520D01*
X164912602Y-63292120D01*
X164862631Y-63241687D01*
X164847859Y-63172245D01*
X164872975Y-63105839D01*
X164900327Y-63079232D01*
X164966076Y-63032334D01*
X165079860Y-62951173D01*
X165105217Y-62925905D01*
X165230892Y-62800668D01*
X165238096Y-62793489D01*
X165256221Y-62768266D01*
X165365435Y-62616277D01*
X165368453Y-62612077D01*
X165373312Y-62602247D01*
X165465136Y-62416453D01*
X165465137Y-62416451D01*
X165467430Y-62411811D01*
X165532370Y-62198069D01*
X165561529Y-61976590D01*
X165563156Y-61910000D01*
X165544852Y-61687361D01*
X165490431Y-61470702D01*
X165401354Y-61265840D01*
X165280014Y-61078277D01*
X165129670Y-60913051D01*
X165125619Y-60909852D01*
X165125615Y-60909848D01*
X164958414Y-60777800D01*
X164958410Y-60777798D01*
X164954359Y-60774598D01*
X164913053Y-60751796D01*
X164863084Y-60701364D01*
X164848312Y-60631921D01*
X164873428Y-60565516D01*
X164900780Y-60538909D01*
X164944603Y-60507650D01*
X165079860Y-60411173D01*
X165238096Y-60253489D01*
X165297594Y-60170689D01*
X165365435Y-60076277D01*
X165368453Y-60072077D01*
X165371751Y-60065405D01*
X165465136Y-59876453D01*
X165465137Y-59876451D01*
X165467430Y-59871811D01*
X165528440Y-59671005D01*
X165530865Y-59663023D01*
X165530865Y-59663021D01*
X165532370Y-59658069D01*
X165561529Y-59436590D01*
X165563156Y-59370000D01*
X165544852Y-59147361D01*
X165490431Y-58930702D01*
X165401354Y-58725840D01*
X165334162Y-58621977D01*
X165282822Y-58542617D01*
X165282820Y-58542614D01*
X165280014Y-58538277D01*
X165276532Y-58534450D01*
X165132798Y-58376488D01*
X165101746Y-58312642D01*
X165110141Y-58242143D01*
X165155317Y-58187375D01*
X165181761Y-58173706D01*
X165288297Y-58133767D01*
X165296705Y-58130615D01*
X165413261Y-58043261D01*
X165500615Y-57926705D01*
X165551745Y-57790316D01*
X165558500Y-57728134D01*
X165558500Y-55931866D01*
X165551745Y-55869684D01*
X165500615Y-55733295D01*
X165413261Y-55616739D01*
X165296705Y-55529385D01*
X165160316Y-55478255D01*
X165098134Y-55471500D01*
X163301866Y-55471500D01*
X163239684Y-55478255D01*
X163103295Y-55529385D01*
X162986739Y-55616739D01*
X162899385Y-55733295D01*
X162848255Y-55869684D01*
X162841500Y-55931866D01*
X162841500Y-57728134D01*
X162848255Y-57790316D01*
X162899385Y-57926705D01*
X162986739Y-58043261D01*
X163103295Y-58130615D01*
X163111704Y-58133767D01*
X163111705Y-58133768D01*
X163220451Y-58174535D01*
X163277216Y-58217176D01*
X163301916Y-58283738D01*
X163286709Y-58353087D01*
X163267316Y-58379568D01*
X163140629Y-58512138D01*
X163137715Y-58516410D01*
X163137714Y-58516411D01*
X163042149Y-58656504D01*
X162987238Y-58701507D01*
X162938061Y-58711500D01*
X161902059Y-58711500D01*
X161890203Y-58710941D01*
X161882463Y-58709211D01*
X161874537Y-58709460D01*
X161874536Y-58709460D01*
X161811611Y-58711438D01*
X161807653Y-58711500D01*
X161778568Y-58711500D01*
X161774637Y-58711997D01*
X161774630Y-58711997D01*
X161774179Y-58712054D01*
X161762343Y-58712986D01*
X161716169Y-58714438D01*
X161695579Y-58720420D01*
X161676218Y-58724430D01*
X161669230Y-58725312D01*
X161662796Y-58726125D01*
X161662795Y-58726125D01*
X161654936Y-58727118D01*
X161647571Y-58730034D01*
X161647567Y-58730035D01*
X161611979Y-58744126D01*
X161600769Y-58747965D01*
X161556400Y-58760855D01*
X161537935Y-58771775D01*
X161520195Y-58780466D01*
X161500244Y-58788365D01*
X161462874Y-58815516D01*
X161452952Y-58822033D01*
X161420023Y-58841507D01*
X161420019Y-58841510D01*
X161413193Y-58845547D01*
X161398029Y-58860711D01*
X161382996Y-58873551D01*
X161365643Y-58886159D01*
X161354768Y-58899305D01*
X161336198Y-58921752D01*
X161328208Y-58930532D01*
X155092395Y-65166345D01*
X155083615Y-65174335D01*
X155083613Y-65174337D01*
X155076920Y-65178584D01*
X155071494Y-65184362D01*
X155071493Y-65184363D01*
X155028396Y-65230257D01*
X155025641Y-65233099D01*
X155005073Y-65253667D01*
X155002356Y-65257170D01*
X154994648Y-65266195D01*
X154963028Y-65299867D01*
X154959207Y-65306818D01*
X154959206Y-65306819D01*
X154952697Y-65318658D01*
X154941843Y-65335182D01*
X154934018Y-65345271D01*
X154928696Y-65352132D01*
X154925549Y-65359404D01*
X154925548Y-65359406D01*
X154910346Y-65394535D01*
X154905124Y-65405195D01*
X154893201Y-65426883D01*
X154882876Y-65445663D01*
X154877541Y-65466441D01*
X154871142Y-65485131D01*
X154862620Y-65504824D01*
X154861380Y-65512655D01*
X154855394Y-65550448D01*
X154852987Y-65562071D01*
X154851146Y-65569242D01*
X154841500Y-65606812D01*
X154841500Y-65628259D01*
X154839949Y-65647969D01*
X154836594Y-65669152D01*
X154840668Y-65712245D01*
X154840941Y-65715138D01*
X154841500Y-65726996D01*
X154841500Y-68916643D01*
X154821498Y-68984764D01*
X154767842Y-69031257D01*
X154755378Y-69036166D01*
X154733005Y-69043630D01*
X154732998Y-69043633D01*
X154726054Y-69045950D01*
X154575652Y-69139022D01*
X154450695Y-69264197D01*
X154446856Y-69270425D01*
X154446854Y-69270428D01*
X154403045Y-69341500D01*
X154357885Y-69414762D01*
X154302203Y-69582639D01*
X154301503Y-69589475D01*
X154301502Y-69589478D01*
X154297091Y-69632531D01*
X154291500Y-69687100D01*
X154291500Y-70312900D01*
X154291837Y-70316146D01*
X154291837Y-70316150D01*
X154301618Y-70410414D01*
X154302474Y-70418666D01*
X154304655Y-70425202D01*
X154304655Y-70425204D01*
X154344269Y-70543941D01*
X154358450Y-70586446D01*
X154451522Y-70736848D01*
X154528165Y-70813357D01*
X154538109Y-70823284D01*
X154572188Y-70885566D01*
X154567185Y-70956386D01*
X154538264Y-71001475D01*
X154531275Y-71008476D01*
X154450695Y-71089197D01*
X154446856Y-71095425D01*
X154446854Y-71095428D01*
X154362464Y-71232334D01*
X154357885Y-71239762D01*
X154355581Y-71246709D01*
X154308532Y-71388559D01*
X154302203Y-71407639D01*
X154301503Y-71414475D01*
X154301502Y-71414478D01*
X154298947Y-71439414D01*
X154291500Y-71512100D01*
X154291500Y-72137900D01*
X154291837Y-72141146D01*
X154291837Y-72141150D01*
X154295289Y-72174415D01*
X154302474Y-72243666D01*
X154358450Y-72411446D01*
X154451522Y-72561848D01*
X154576697Y-72686805D01*
X154582927Y-72690645D01*
X154582928Y-72690646D01*
X154720090Y-72775194D01*
X154727262Y-72779615D01*
X154769857Y-72793743D01*
X154888611Y-72833132D01*
X154888613Y-72833132D01*
X154895139Y-72835297D01*
X154901975Y-72835997D01*
X154901978Y-72835998D01*
X154945031Y-72840409D01*
X154999600Y-72846000D01*
X156000400Y-72846000D01*
X156003646Y-72845663D01*
X156003650Y-72845663D01*
X156099308Y-72835738D01*
X156099312Y-72835737D01*
X156106166Y-72835026D01*
X156112702Y-72832845D01*
X156112704Y-72832845D01*
X156244806Y-72788772D01*
X156273946Y-72779050D01*
X156424348Y-72685978D01*
X156549305Y-72560803D01*
X156560042Y-72543384D01*
X156612813Y-72495891D01*
X156667302Y-72483500D01*
X156832835Y-72483500D01*
X156900956Y-72503502D01*
X156939978Y-72543195D01*
X156947669Y-72555623D01*
X156947673Y-72555628D01*
X156951522Y-72561848D01*
X157076697Y-72686805D01*
X157082927Y-72690645D01*
X157082928Y-72690646D01*
X157220090Y-72775194D01*
X157227262Y-72779615D01*
X157255170Y-72788872D01*
X157313528Y-72829303D01*
X157340764Y-72894867D01*
X157341500Y-72908464D01*
X157341500Y-73897495D01*
X157321498Y-73965616D01*
X157304595Y-73986590D01*
X154232451Y-77058733D01*
X154170139Y-77092759D01*
X154099323Y-77087694D01*
X154042488Y-77045147D01*
X154034902Y-77033776D01*
X153967893Y-76920467D01*
X153958251Y-76908038D01*
X153851906Y-76801693D01*
X153839480Y-76792053D01*
X153710023Y-76715494D01*
X153695592Y-76709249D01*
X153549737Y-76666873D01*
X153537135Y-76664572D01*
X153508718Y-76662335D01*
X153503788Y-76662142D01*
X153124417Y-76662142D01*
X153109178Y-76666617D01*
X153107973Y-76668007D01*
X153106302Y-76675690D01*
X153106302Y-77598142D01*
X153086300Y-77666263D01*
X153032644Y-77712756D01*
X152980302Y-77724142D01*
X151969644Y-77724142D01*
X151905505Y-77706595D01*
X151835229Y-77665034D01*
X151835230Y-77665034D01*
X151828403Y-77660997D01*
X151820792Y-77658786D01*
X151820790Y-77658785D01*
X151768571Y-77643614D01*
X151668633Y-77614580D01*
X151662228Y-77614076D01*
X151662223Y-77614075D01*
X151633760Y-77611835D01*
X151633752Y-77611835D01*
X151631304Y-77611642D01*
X150323300Y-77611642D01*
X150320852Y-77611835D01*
X150320844Y-77611835D01*
X150292381Y-77614075D01*
X150292376Y-77614076D01*
X150285971Y-77614580D01*
X150186033Y-77643614D01*
X150133814Y-77658785D01*
X150133812Y-77658786D01*
X150126201Y-77660997D01*
X150080569Y-77687984D01*
X149985690Y-77744095D01*
X149921551Y-77761642D01*
X149081643Y-77761642D01*
X149013522Y-77741640D01*
X148967029Y-77687984D01*
X148962119Y-77675518D01*
X148956368Y-77658280D01*
X148954050Y-77651332D01*
X148860978Y-77500930D01*
X148735803Y-77375973D01*
X148615898Y-77302062D01*
X148591468Y-77287003D01*
X148591466Y-77287002D01*
X148585238Y-77283163D01*
X148424754Y-77229933D01*
X148423889Y-77229646D01*
X148423887Y-77229646D01*
X148417361Y-77227481D01*
X148410525Y-77226781D01*
X148410522Y-77226780D01*
X148367469Y-77222369D01*
X148312900Y-77216778D01*
X147687100Y-77216778D01*
X147683854Y-77217115D01*
X147683850Y-77217115D01*
X147588192Y-77227040D01*
X147588188Y-77227041D01*
X147581334Y-77227752D01*
X147574798Y-77229933D01*
X147574796Y-77229933D01*
X147475566Y-77263039D01*
X147413554Y-77283728D01*
X147263152Y-77376800D01*
X147257979Y-77381982D01*
X147176716Y-77463387D01*
X147114434Y-77497466D01*
X147043614Y-77492463D01*
X146998527Y-77463544D01*
X146972607Y-77437670D01*
X146938526Y-77375388D01*
X146935623Y-77348495D01*
X146935623Y-77198747D01*
X151614863Y-77198747D01*
X151614903Y-77212848D01*
X151622172Y-77216142D01*
X152580187Y-77216142D01*
X152595426Y-77211667D01*
X152596631Y-77210277D01*
X152598302Y-77202594D01*
X152598302Y-76680258D01*
X152593827Y-76665019D01*
X152592437Y-76663814D01*
X152584754Y-76662143D01*
X152200819Y-76662143D01*
X152195882Y-76662337D01*
X152167466Y-76664572D01*
X152154871Y-76666872D01*
X152009012Y-76709249D01*
X151994581Y-76715494D01*
X151865124Y-76792053D01*
X151852698Y-76801693D01*
X151746353Y-76908038D01*
X151736713Y-76920464D01*
X151660154Y-77049921D01*
X151653909Y-77064352D01*
X151614863Y-77198747D01*
X146935623Y-77198747D01*
X146935623Y-75805624D01*
X146955625Y-75737503D01*
X147009281Y-75691010D01*
X147061623Y-75679624D01*
X147725257Y-75679624D01*
X147787439Y-75672869D01*
X147923828Y-75621739D01*
X148040384Y-75534385D01*
X148127738Y-75417829D01*
X148178868Y-75281440D01*
X148185623Y-75219258D01*
X148185623Y-73822990D01*
X148178868Y-73760808D01*
X148176096Y-73753412D01*
X148176094Y-73753406D01*
X148150039Y-73683905D01*
X148144856Y-73613098D01*
X148178926Y-73550581D01*
X148947866Y-72781641D01*
X149010178Y-72747615D01*
X149080993Y-72752680D01*
X149103077Y-72763476D01*
X149195090Y-72820194D01*
X149202262Y-72824615D01*
X149235797Y-72835738D01*
X149363611Y-72878132D01*
X149363613Y-72878132D01*
X149370139Y-72880297D01*
X149376975Y-72880997D01*
X149376978Y-72880998D01*
X149420031Y-72885409D01*
X149474600Y-72891000D01*
X150525400Y-72891000D01*
X150528646Y-72890663D01*
X150528650Y-72890663D01*
X150624308Y-72880738D01*
X150624312Y-72880737D01*
X150631166Y-72880026D01*
X150637702Y-72877845D01*
X150637704Y-72877845D01*
X150783201Y-72829303D01*
X150798946Y-72824050D01*
X150949348Y-72730978D01*
X151074305Y-72605803D01*
X151078146Y-72599572D01*
X151082683Y-72593827D01*
X151084013Y-72594877D01*
X151130107Y-72553392D01*
X151184597Y-72541000D01*
X151378511Y-72541000D01*
X151446632Y-72561002D01*
X151467528Y-72577826D01*
X151576697Y-72686805D01*
X151582927Y-72690645D01*
X151582928Y-72690646D01*
X151720090Y-72775194D01*
X151727262Y-72779615D01*
X151769857Y-72793743D01*
X151888611Y-72833132D01*
X151888613Y-72833132D01*
X151895139Y-72835297D01*
X151901975Y-72835997D01*
X151901978Y-72835998D01*
X151945031Y-72840409D01*
X151999600Y-72846000D01*
X153000400Y-72846000D01*
X153003646Y-72845663D01*
X153003650Y-72845663D01*
X153099308Y-72835738D01*
X153099312Y-72835737D01*
X153106166Y-72835026D01*
X153112702Y-72832845D01*
X153112704Y-72832845D01*
X153244806Y-72788772D01*
X153273946Y-72779050D01*
X153424348Y-72685978D01*
X153549305Y-72560803D01*
X153589318Y-72495891D01*
X153638275Y-72416468D01*
X153638276Y-72416466D01*
X153642115Y-72410238D01*
X153697797Y-72242361D01*
X153708500Y-72137900D01*
X153708500Y-71512100D01*
X153705354Y-71481777D01*
X153698238Y-71413192D01*
X153698237Y-71413188D01*
X153697526Y-71406334D01*
X153687357Y-71375852D01*
X153643868Y-71245502D01*
X153641550Y-71238554D01*
X153548478Y-71088152D01*
X153461891Y-71001716D01*
X153427812Y-70939434D01*
X153432815Y-70868614D01*
X153461736Y-70823525D01*
X153544134Y-70740983D01*
X153549305Y-70735803D01*
X153560159Y-70718195D01*
X153638275Y-70591468D01*
X153638276Y-70591466D01*
X153642115Y-70585238D01*
X153697797Y-70417361D01*
X153708500Y-70312900D01*
X153708500Y-69687100D01*
X153708163Y-69683850D01*
X153698238Y-69588192D01*
X153698237Y-69588188D01*
X153697526Y-69581334D01*
X153656087Y-69457125D01*
X153643868Y-69420502D01*
X153641550Y-69413554D01*
X153548478Y-69263152D01*
X153423303Y-69138195D01*
X153410281Y-69130168D01*
X153278968Y-69049225D01*
X153278966Y-69049224D01*
X153272738Y-69045385D01*
X153192995Y-69018936D01*
X153111389Y-68991868D01*
X153111387Y-68991868D01*
X153104861Y-68989703D01*
X153098025Y-68989003D01*
X153098022Y-68989002D01*
X153049219Y-68984002D01*
X153000400Y-68979000D01*
X151999600Y-68979000D01*
X151996354Y-68979337D01*
X151996350Y-68979337D01*
X151900692Y-68989262D01*
X151900688Y-68989263D01*
X151893834Y-68989974D01*
X151887298Y-68992155D01*
X151887296Y-68992155D01*
X151870928Y-68997616D01*
X151726054Y-69045950D01*
X151575652Y-69139022D01*
X151450695Y-69264197D01*
X151439958Y-69281616D01*
X151387187Y-69329109D01*
X151332698Y-69341500D01*
X151195258Y-69341500D01*
X151127137Y-69321498D01*
X151088113Y-69281802D01*
X151087998Y-69281615D01*
X151073478Y-69258152D01*
X150948303Y-69133195D01*
X150879367Y-69090702D01*
X150803968Y-69044225D01*
X150803966Y-69044224D01*
X150797738Y-69040385D01*
X150698393Y-69007434D01*
X150636389Y-68986868D01*
X150636387Y-68986868D01*
X150629861Y-68984703D01*
X150623025Y-68984003D01*
X150623022Y-68984002D01*
X150574200Y-68979000D01*
X150525400Y-68974000D01*
X149474600Y-68974000D01*
X149471354Y-68974337D01*
X149471350Y-68974337D01*
X149375692Y-68984262D01*
X149375688Y-68984263D01*
X149368834Y-68984974D01*
X149362298Y-68987155D01*
X149362296Y-68987155D01*
X149230194Y-69031228D01*
X149201054Y-69040950D01*
X149050652Y-69134022D01*
X148925695Y-69259197D01*
X148921851Y-69265432D01*
X148919259Y-69268715D01*
X148861343Y-69309778D01*
X148820376Y-69316624D01*
X148311623Y-69316624D01*
X148243502Y-69296622D01*
X148197009Y-69242966D01*
X148185623Y-69190624D01*
X148185623Y-65347259D01*
X148205625Y-65279138D01*
X148241256Y-65242739D01*
X148247336Y-65238646D01*
X148247338Y-65238644D01*
X148251762Y-65235666D01*
X148300571Y-65189105D01*
X148420861Y-65074353D01*
X148424718Y-65070674D01*
X148567402Y-64878900D01*
X148575779Y-64862425D01*
X148673314Y-64670586D01*
X148673314Y-64670585D01*
X148675733Y-64665828D01*
X148716361Y-64534984D01*
X148745032Y-64442651D01*
X148745033Y-64442645D01*
X148746616Y-64437548D01*
X148778023Y-64200589D01*
X148769055Y-63961726D01*
X148740440Y-63825349D01*
X148721067Y-63733016D01*
X148721066Y-63733013D01*
X148719970Y-63727789D01*
X148632171Y-63505467D01*
X148508168Y-63301117D01*
X148496107Y-63287218D01*
X148355007Y-63124614D01*
X148355005Y-63124612D01*
X148351507Y-63120581D01*
X148347381Y-63117198D01*
X148347377Y-63117194D01*
X148170795Y-62972407D01*
X148166667Y-62969022D01*
X148162031Y-62966383D01*
X148162028Y-62966381D01*
X147963577Y-62853416D01*
X147958934Y-62850773D01*
X147734247Y-62769216D01*
X147728998Y-62768267D01*
X147728995Y-62768266D01*
X147607480Y-62746293D01*
X147541824Y-62712406D01*
X147512274Y-62683519D01*
X147480236Y-62660199D01*
X147471992Y-62653652D01*
X147413082Y-62602713D01*
X147413079Y-62602711D01*
X147409618Y-62599718D01*
X147405766Y-62597260D01*
X147405763Y-62597257D01*
X147357161Y-62566235D01*
X147311492Y-62537085D01*
X147305140Y-62532752D01*
X147292042Y-62523218D01*
X147288345Y-62520527D01*
X147277111Y-62514616D01*
X147268005Y-62509326D01*
X147217898Y-62477343D01*
X147176157Y-62450700D01*
X146923629Y-62336945D01*
X146657324Y-62260835D01*
X146652811Y-62260229D01*
X146652807Y-62260228D01*
X146478641Y-62236835D01*
X146382823Y-62223965D01*
X146241494Y-62225568D01*
X146110436Y-62227054D01*
X146110432Y-62227054D01*
X146105874Y-62227106D01*
X145832279Y-62270195D01*
X145635784Y-62331208D01*
X145572130Y-62350973D01*
X145572128Y-62350974D01*
X145567770Y-62352327D01*
X145528468Y-62371115D01*
X145328195Y-62466855D01*
X145317888Y-62471782D01*
X145087867Y-62626059D01*
X145002268Y-62703540D01*
X144995661Y-62709520D01*
X144932509Y-62740220D01*
X144927825Y-62740617D01*
X144922659Y-62741958D01*
X144922658Y-62741958D01*
X144701625Y-62799327D01*
X144701620Y-62799329D01*
X144696460Y-62800668D01*
X144691594Y-62802860D01*
X144483381Y-62896653D01*
X144483378Y-62896654D01*
X144478520Y-62898843D01*
X144280238Y-63032334D01*
X144276381Y-63036013D01*
X144276379Y-63036015D01*
X144248053Y-63063037D01*
X144107282Y-63197326D01*
X143964598Y-63389100D01*
X143962182Y-63393851D01*
X143962180Y-63393855D01*
X143859196Y-63596411D01*
X143856267Y-63602172D01*
X143842713Y-63645823D01*
X143786968Y-63825349D01*
X143786967Y-63825355D01*
X143785384Y-63830452D01*
X143784683Y-63835744D01*
X143760808Y-64015875D01*
X143753977Y-64067411D01*
X120725161Y-64067411D01*
X120743380Y-63991524D01*
X120743381Y-63991518D01*
X120744535Y-63986711D01*
X120763165Y-63750000D01*
X120744535Y-63513289D01*
X120742658Y-63505467D01*
X120708360Y-63362609D01*
X120689105Y-63282406D01*
X120687211Y-63277833D01*
X120600135Y-63067611D01*
X120600133Y-63067607D01*
X120598240Y-63063037D01*
X120595654Y-63058817D01*
X120476759Y-62864798D01*
X120476755Y-62864792D01*
X120474176Y-62860584D01*
X120319969Y-62680031D01*
X120139416Y-62525824D01*
X120135208Y-62523245D01*
X120135202Y-62523241D01*
X119941183Y-62404346D01*
X119936963Y-62401760D01*
X119932393Y-62399867D01*
X119932389Y-62399865D01*
X119722167Y-62312789D01*
X119722165Y-62312788D01*
X119717594Y-62310895D01*
X119647271Y-62294012D01*
X140153500Y-62294012D01*
X140168617Y-62472175D01*
X140169957Y-62477339D01*
X140169958Y-62477343D01*
X140223472Y-62683519D01*
X140228668Y-62703540D01*
X140230860Y-62708406D01*
X140317988Y-62901822D01*
X140326843Y-62921480D01*
X140460334Y-63119762D01*
X140464013Y-63123619D01*
X140464015Y-63123621D01*
X140528193Y-63190897D01*
X140625326Y-63292718D01*
X140629603Y-63295901D01*
X140629604Y-63295901D01*
X140651382Y-63312104D01*
X140817100Y-63435402D01*
X140821851Y-63437818D01*
X140821855Y-63437820D01*
X140954908Y-63505467D01*
X141030172Y-63543733D01*
X141144312Y-63579175D01*
X141253349Y-63613032D01*
X141253355Y-63613033D01*
X141258452Y-63614616D01*
X141385883Y-63631506D01*
X141490127Y-63645323D01*
X141490131Y-63645323D01*
X141495411Y-63646023D01*
X141500740Y-63645823D01*
X141500741Y-63645823D01*
X141598509Y-63642152D01*
X141734274Y-63637055D01*
X141823769Y-63618277D01*
X141962984Y-63589067D01*
X141962987Y-63589066D01*
X141968211Y-63587970D01*
X142190533Y-63500171D01*
X142394883Y-63376168D01*
X142481372Y-63301117D01*
X142571386Y-63223007D01*
X142571388Y-63223005D01*
X142575419Y-63219507D01*
X142578802Y-63215381D01*
X142578806Y-63215377D01*
X142723593Y-63038795D01*
X142726978Y-63034667D01*
X142730003Y-63029354D01*
X142842584Y-62831577D01*
X142845227Y-62826934D01*
X142926784Y-62602247D01*
X142927734Y-62596995D01*
X142968580Y-62371115D01*
X142968581Y-62371107D01*
X142969318Y-62367031D01*
X142970500Y-62341968D01*
X142970500Y-59973988D01*
X142955383Y-59795825D01*
X142921623Y-59665753D01*
X142896673Y-59569625D01*
X142896671Y-59569620D01*
X142895332Y-59564460D01*
X142883199Y-59537525D01*
X142799347Y-59351381D01*
X142799346Y-59351378D01*
X142797157Y-59346520D01*
X142663666Y-59148238D01*
X142658042Y-59142342D01*
X142502353Y-58979139D01*
X142498674Y-58975282D01*
X142306900Y-58832598D01*
X142302149Y-58830182D01*
X142302145Y-58830180D01*
X142098586Y-58726686D01*
X142098585Y-58726686D01*
X142093828Y-58724267D01*
X141951362Y-58680030D01*
X141870651Y-58654968D01*
X141870645Y-58654967D01*
X141865548Y-58653384D01*
X141738117Y-58636494D01*
X141633873Y-58622677D01*
X141633869Y-58622677D01*
X141628589Y-58621977D01*
X141623260Y-58622177D01*
X141623259Y-58622177D01*
X141525491Y-58625848D01*
X141389726Y-58630945D01*
X141302816Y-58649181D01*
X141161016Y-58678933D01*
X141161013Y-58678934D01*
X141155789Y-58680030D01*
X140933467Y-58767829D01*
X140729117Y-58891832D01*
X140725087Y-58895329D01*
X140648227Y-58962025D01*
X140548581Y-59048493D01*
X140545198Y-59052619D01*
X140545194Y-59052623D01*
X140467514Y-59147361D01*
X140397022Y-59233333D01*
X140394383Y-59237969D01*
X140394381Y-59237972D01*
X140319226Y-59370000D01*
X140278773Y-59441066D01*
X140197216Y-59665753D01*
X140196267Y-59671002D01*
X140196266Y-59671005D01*
X140155420Y-59896885D01*
X140155419Y-59896893D01*
X140154682Y-59900969D01*
X140153500Y-59926032D01*
X140153500Y-62294012D01*
X119647271Y-62294012D01*
X119636191Y-62291352D01*
X119491524Y-62256620D01*
X119491518Y-62256619D01*
X119486711Y-62255465D01*
X119250000Y-62236835D01*
X119013289Y-62255465D01*
X119008482Y-62256619D01*
X119008476Y-62256620D01*
X118863809Y-62291352D01*
X118782406Y-62310895D01*
X118777835Y-62312788D01*
X118777833Y-62312789D01*
X118567611Y-62399865D01*
X118567607Y-62399867D01*
X118563037Y-62401760D01*
X118558817Y-62404346D01*
X118364798Y-62523241D01*
X118364792Y-62523245D01*
X118360584Y-62525824D01*
X118180031Y-62680031D01*
X118025824Y-62860584D01*
X118023245Y-62864792D01*
X118023241Y-62864798D01*
X117904346Y-63058817D01*
X117901760Y-63063037D01*
X117899867Y-63067607D01*
X117899865Y-63067611D01*
X117812789Y-63277833D01*
X117810895Y-63282406D01*
X117791640Y-63362609D01*
X117757343Y-63505467D01*
X117755465Y-63513289D01*
X117736835Y-63750000D01*
X113763165Y-63750000D01*
X113744535Y-63513289D01*
X113742658Y-63505467D01*
X113708360Y-63362609D01*
X113689105Y-63282406D01*
X113687211Y-63277833D01*
X113600135Y-63067611D01*
X113600133Y-63067607D01*
X113598240Y-63063037D01*
X113595654Y-63058817D01*
X113476759Y-62864798D01*
X113476755Y-62864792D01*
X113474176Y-62860584D01*
X113319969Y-62680031D01*
X113139416Y-62525824D01*
X113135208Y-62523245D01*
X113135202Y-62523241D01*
X112941183Y-62404346D01*
X112936963Y-62401760D01*
X112932393Y-62399867D01*
X112932389Y-62399865D01*
X112722167Y-62312789D01*
X112722165Y-62312788D01*
X112717594Y-62310895D01*
X112636191Y-62291352D01*
X112491524Y-62256620D01*
X112491518Y-62256619D01*
X112486711Y-62255465D01*
X112250000Y-62236835D01*
X112013289Y-62255465D01*
X112008482Y-62256619D01*
X112008476Y-62256620D01*
X111863809Y-62291352D01*
X111782406Y-62310895D01*
X111777835Y-62312788D01*
X111777833Y-62312789D01*
X111567611Y-62399865D01*
X111567607Y-62399867D01*
X111563037Y-62401760D01*
X111558817Y-62404346D01*
X111364798Y-62523241D01*
X111364792Y-62523245D01*
X111360584Y-62525824D01*
X111180031Y-62680031D01*
X111025824Y-62860584D01*
X111023245Y-62864792D01*
X111023241Y-62864798D01*
X110904346Y-63058817D01*
X110901760Y-63063037D01*
X110899867Y-63067607D01*
X110899865Y-63067611D01*
X110812789Y-63277833D01*
X110810895Y-63282406D01*
X110791640Y-63362609D01*
X110757343Y-63505467D01*
X110755465Y-63513289D01*
X110736835Y-63750000D01*
X106945230Y-63750000D01*
X106877964Y-63646023D01*
X106862822Y-63622617D01*
X106862820Y-63622614D01*
X106860014Y-63618277D01*
X106709670Y-63453051D01*
X106705619Y-63449852D01*
X106705615Y-63449848D01*
X106538414Y-63317800D01*
X106538410Y-63317798D01*
X106534359Y-63314598D01*
X106493053Y-63291796D01*
X106443084Y-63241364D01*
X106428312Y-63171921D01*
X106453428Y-63105516D01*
X106480780Y-63078909D01*
X106549309Y-63030028D01*
X106659860Y-62951173D01*
X106685217Y-62925905D01*
X106810892Y-62800668D01*
X106818096Y-62793489D01*
X106836221Y-62768266D01*
X106945435Y-62616277D01*
X106948453Y-62612077D01*
X106953312Y-62602247D01*
X107045136Y-62416453D01*
X107045137Y-62416451D01*
X107047430Y-62411811D01*
X107112370Y-62198069D01*
X107141529Y-61976590D01*
X107143156Y-61910000D01*
X107124852Y-61687361D01*
X107070431Y-61470702D01*
X106981354Y-61265840D01*
X106860014Y-61078277D01*
X106709670Y-60913051D01*
X106705619Y-60909852D01*
X106705615Y-60909848D01*
X106538414Y-60777800D01*
X106538410Y-60777798D01*
X106534359Y-60774598D01*
X106493053Y-60751796D01*
X106443084Y-60701364D01*
X106428312Y-60631921D01*
X106453428Y-60565516D01*
X106480780Y-60538909D01*
X106524603Y-60507650D01*
X106659860Y-60411173D01*
X106818096Y-60253489D01*
X106877594Y-60170689D01*
X106945435Y-60076277D01*
X106948453Y-60072077D01*
X106951751Y-60065405D01*
X107045136Y-59876453D01*
X107045137Y-59876451D01*
X107047430Y-59871811D01*
X107108440Y-59671005D01*
X107110865Y-59663023D01*
X107110865Y-59663021D01*
X107112370Y-59658069D01*
X107141529Y-59436590D01*
X107143156Y-59370000D01*
X107124852Y-59147361D01*
X107070431Y-58930702D01*
X106981354Y-58725840D01*
X106914162Y-58621977D01*
X106862822Y-58542617D01*
X106862820Y-58542614D01*
X106860014Y-58538277D01*
X106856532Y-58534450D01*
X106736540Y-58402580D01*
X143783662Y-58402580D01*
X143811413Y-58534840D01*
X143814473Y-58545037D01*
X143898315Y-58757340D01*
X143903049Y-58766876D01*
X144021468Y-58962025D01*
X144027734Y-58970618D01*
X144177342Y-59143027D01*
X144184972Y-59150447D01*
X144361488Y-59295180D01*
X144370255Y-59301206D01*
X144568633Y-59414129D01*
X144578297Y-59418595D01*
X144792868Y-59496481D01*
X144803135Y-59499251D01*
X145028932Y-59540081D01*
X145037162Y-59541016D01*
X145056550Y-59541930D01*
X145059526Y-59542000D01*
X145993885Y-59542000D01*
X146009124Y-59537525D01*
X146010329Y-59536135D01*
X146012000Y-59528452D01*
X146012000Y-59523885D01*
X146520000Y-59523885D01*
X146524475Y-59539124D01*
X146525865Y-59540329D01*
X146533548Y-59542000D01*
X147423340Y-59542000D01*
X147428649Y-59541775D01*
X147598771Y-59527340D01*
X147609259Y-59525548D01*
X147830211Y-59468199D01*
X147840239Y-59464667D01*
X148048363Y-59370915D01*
X148057669Y-59365735D01*
X148247024Y-59238253D01*
X148255307Y-59231594D01*
X148420478Y-59074029D01*
X148427530Y-59066058D01*
X148563790Y-58882918D01*
X148569394Y-58873881D01*
X148672851Y-58670394D01*
X148676852Y-58660541D01*
X148744544Y-58442539D01*
X148746828Y-58432152D01*
X148750300Y-58405957D01*
X148748104Y-58391793D01*
X148734919Y-58388000D01*
X146538115Y-58388000D01*
X146522876Y-58392475D01*
X146521671Y-58393865D01*
X146520000Y-58401548D01*
X146520000Y-59523885D01*
X146012000Y-59523885D01*
X146012000Y-58406115D01*
X146007525Y-58390876D01*
X146006135Y-58389671D01*
X145998452Y-58388000D01*
X143798718Y-58388000D01*
X143785187Y-58391973D01*
X143783662Y-58402580D01*
X106736540Y-58402580D01*
X106712798Y-58376488D01*
X106681746Y-58312642D01*
X106690141Y-58242143D01*
X106735317Y-58187375D01*
X106761761Y-58173706D01*
X106868297Y-58133767D01*
X106876705Y-58130615D01*
X106993261Y-58043261D01*
X107080615Y-57926705D01*
X107104856Y-57862043D01*
X143781700Y-57862043D01*
X143783896Y-57876207D01*
X143797081Y-57880000D01*
X145993885Y-57880000D01*
X146009124Y-57875525D01*
X146010329Y-57874135D01*
X146012000Y-57866452D01*
X146012000Y-57861885D01*
X146520000Y-57861885D01*
X146524475Y-57877124D01*
X146525865Y-57878329D01*
X146533548Y-57880000D01*
X148733282Y-57880000D01*
X148746813Y-57876027D01*
X148748338Y-57865420D01*
X148720587Y-57733160D01*
X148717527Y-57722963D01*
X148633685Y-57510660D01*
X148628951Y-57501124D01*
X148510532Y-57305975D01*
X148504266Y-57297382D01*
X148354658Y-57124973D01*
X148347028Y-57117553D01*
X148170512Y-56972820D01*
X148161745Y-56966794D01*
X147963367Y-56853871D01*
X147953703Y-56849405D01*
X147739132Y-56771519D01*
X147728865Y-56768749D01*
X147503068Y-56727919D01*
X147494838Y-56726984D01*
X147475450Y-56726070D01*
X147472474Y-56726000D01*
X146538115Y-56726000D01*
X146522876Y-56730475D01*
X146521671Y-56731865D01*
X146520000Y-56739548D01*
X146520000Y-57861885D01*
X146012000Y-57861885D01*
X146012000Y-56744115D01*
X146007525Y-56728876D01*
X146006135Y-56727671D01*
X145998452Y-56726000D01*
X145108660Y-56726000D01*
X145103351Y-56726225D01*
X144933229Y-56740660D01*
X144922741Y-56742452D01*
X144701789Y-56799801D01*
X144691761Y-56803333D01*
X144483637Y-56897085D01*
X144474331Y-56902265D01*
X144284976Y-57029747D01*
X144276693Y-57036406D01*
X144111522Y-57193971D01*
X144104470Y-57201942D01*
X143968210Y-57385082D01*
X143962606Y-57394119D01*
X143859149Y-57597606D01*
X143855148Y-57607459D01*
X143787456Y-57825461D01*
X143785172Y-57835848D01*
X143781700Y-57862043D01*
X107104856Y-57862043D01*
X107131745Y-57790316D01*
X107138500Y-57728134D01*
X107138500Y-55979721D01*
X110736835Y-55979721D01*
X110755465Y-56216432D01*
X110810895Y-56447315D01*
X110901760Y-56666684D01*
X110904346Y-56670904D01*
X111023241Y-56864923D01*
X111023245Y-56864929D01*
X111025824Y-56869137D01*
X111180031Y-57049690D01*
X111360584Y-57203897D01*
X111364792Y-57206476D01*
X111364798Y-57206480D01*
X111513137Y-57297382D01*
X111563037Y-57327961D01*
X111567607Y-57329854D01*
X111567611Y-57329856D01*
X111777833Y-57416932D01*
X111782406Y-57418826D01*
X111856998Y-57436734D01*
X112008476Y-57473101D01*
X112008482Y-57473102D01*
X112013289Y-57474256D01*
X112250000Y-57492886D01*
X112486711Y-57474256D01*
X112491518Y-57473102D01*
X112491524Y-57473101D01*
X112643002Y-57436734D01*
X112717594Y-57418826D01*
X112722167Y-57416932D01*
X112932389Y-57329856D01*
X112932393Y-57329854D01*
X112936963Y-57327961D01*
X112986863Y-57297382D01*
X113135202Y-57206480D01*
X113135208Y-57206476D01*
X113139416Y-57203897D01*
X113319969Y-57049690D01*
X113474176Y-56869137D01*
X113476755Y-56864929D01*
X113476759Y-56864923D01*
X113595654Y-56670904D01*
X113598240Y-56666684D01*
X113689105Y-56447315D01*
X113744535Y-56216432D01*
X113763165Y-55979721D01*
X117736835Y-55979721D01*
X117755465Y-56216432D01*
X117810895Y-56447315D01*
X117901760Y-56666684D01*
X117904346Y-56670904D01*
X118023241Y-56864923D01*
X118023245Y-56864929D01*
X118025824Y-56869137D01*
X118180031Y-57049690D01*
X118360584Y-57203897D01*
X118364792Y-57206476D01*
X118364798Y-57206480D01*
X118513137Y-57297382D01*
X118563037Y-57327961D01*
X118567607Y-57329854D01*
X118567611Y-57329856D01*
X118777833Y-57416932D01*
X118782406Y-57418826D01*
X118856998Y-57436734D01*
X119008476Y-57473101D01*
X119008482Y-57473102D01*
X119013289Y-57474256D01*
X119250000Y-57492886D01*
X119486711Y-57474256D01*
X119491518Y-57473102D01*
X119491524Y-57473101D01*
X119643002Y-57436734D01*
X119717594Y-57418826D01*
X119722167Y-57416932D01*
X119932389Y-57329856D01*
X119932393Y-57329854D01*
X119936963Y-57327961D01*
X119986863Y-57297382D01*
X120092464Y-57232670D01*
X125382160Y-57232670D01*
X125387887Y-57240320D01*
X125559042Y-57345205D01*
X125567837Y-57349687D01*
X125777988Y-57436734D01*
X125787373Y-57439783D01*
X126008554Y-57492885D01*
X126018301Y-57494428D01*
X126245070Y-57512275D01*
X126254930Y-57512275D01*
X126481699Y-57494428D01*
X126491446Y-57492885D01*
X126712627Y-57439783D01*
X126722012Y-57436734D01*
X126932163Y-57349687D01*
X126940958Y-57345205D01*
X127108445Y-57242568D01*
X127117907Y-57232110D01*
X127114124Y-57223334D01*
X126262812Y-56372022D01*
X126248868Y-56364408D01*
X126247035Y-56364539D01*
X126240420Y-56368790D01*
X125388920Y-57220290D01*
X125382160Y-57232670D01*
X120092464Y-57232670D01*
X120135202Y-57206480D01*
X120135208Y-57206476D01*
X120139416Y-57203897D01*
X120319969Y-57049690D01*
X120474176Y-56869137D01*
X120476755Y-56864929D01*
X120476759Y-56864923D01*
X120595654Y-56670904D01*
X120598240Y-56666684D01*
X120689105Y-56447315D01*
X120744535Y-56216432D01*
X120761181Y-56004930D01*
X124737725Y-56004930D01*
X124755572Y-56231699D01*
X124757115Y-56241446D01*
X124810217Y-56462627D01*
X124813266Y-56472012D01*
X124900313Y-56682163D01*
X124904795Y-56690958D01*
X125007432Y-56858445D01*
X125017890Y-56867907D01*
X125026666Y-56864124D01*
X125877978Y-56012812D01*
X125884356Y-56001132D01*
X126614408Y-56001132D01*
X126614539Y-56002965D01*
X126618790Y-56009580D01*
X127470290Y-56861080D01*
X127482670Y-56867840D01*
X127490320Y-56862113D01*
X127595205Y-56690958D01*
X127599687Y-56682163D01*
X127686734Y-56472012D01*
X127689783Y-56462627D01*
X127742885Y-56241446D01*
X127744428Y-56231699D01*
X127762275Y-56004930D01*
X127762275Y-55995070D01*
X127744428Y-55768301D01*
X127742885Y-55758554D01*
X127689783Y-55537373D01*
X127686734Y-55527988D01*
X127599687Y-55317837D01*
X127595205Y-55309042D01*
X127492568Y-55141555D01*
X127482110Y-55132093D01*
X127473334Y-55135876D01*
X126622022Y-55987188D01*
X126614408Y-56001132D01*
X125884356Y-56001132D01*
X125885592Y-55998868D01*
X125885461Y-55997035D01*
X125881210Y-55990420D01*
X125029710Y-55138920D01*
X125017330Y-55132160D01*
X125009680Y-55137887D01*
X124904795Y-55309042D01*
X124900313Y-55317837D01*
X124813266Y-55527988D01*
X124810217Y-55537373D01*
X124757115Y-55758554D01*
X124755572Y-55768301D01*
X124737725Y-55995070D01*
X124737725Y-56004930D01*
X120761181Y-56004930D01*
X120763165Y-55979721D01*
X120744535Y-55743010D01*
X120740478Y-55726109D01*
X120692913Y-55527988D01*
X120689105Y-55512127D01*
X120598240Y-55292758D01*
X120595654Y-55288538D01*
X120476759Y-55094519D01*
X120476755Y-55094513D01*
X120474176Y-55090305D01*
X120319969Y-54909752D01*
X120153870Y-54767890D01*
X125382093Y-54767890D01*
X125385876Y-54776666D01*
X126237188Y-55627978D01*
X126251132Y-55635592D01*
X126252965Y-55635461D01*
X126259580Y-55631210D01*
X127111080Y-54779710D01*
X127117840Y-54767330D01*
X127112113Y-54759680D01*
X126940958Y-54654795D01*
X126932163Y-54650313D01*
X126722012Y-54563266D01*
X126712627Y-54560217D01*
X126491446Y-54507115D01*
X126481699Y-54505572D01*
X126254930Y-54487725D01*
X126245070Y-54487725D01*
X126018301Y-54505572D01*
X126008554Y-54507115D01*
X125787373Y-54560217D01*
X125777988Y-54563266D01*
X125567837Y-54650313D01*
X125559042Y-54654795D01*
X125391555Y-54757432D01*
X125382093Y-54767890D01*
X120153870Y-54767890D01*
X120139416Y-54755545D01*
X120135208Y-54752966D01*
X120135202Y-54752962D01*
X119941183Y-54634067D01*
X119936963Y-54631481D01*
X119932393Y-54629588D01*
X119932389Y-54629586D01*
X119722167Y-54542510D01*
X119722165Y-54542509D01*
X119717594Y-54540616D01*
X119637391Y-54521361D01*
X119491524Y-54486341D01*
X119491518Y-54486340D01*
X119486711Y-54485186D01*
X119250000Y-54466556D01*
X119013289Y-54485186D01*
X119008482Y-54486340D01*
X119008476Y-54486341D01*
X118862609Y-54521361D01*
X118782406Y-54540616D01*
X118777835Y-54542509D01*
X118777833Y-54542510D01*
X118567611Y-54629586D01*
X118567607Y-54629588D01*
X118563037Y-54631481D01*
X118558817Y-54634067D01*
X118364798Y-54752962D01*
X118364792Y-54752966D01*
X118360584Y-54755545D01*
X118180031Y-54909752D01*
X118025824Y-55090305D01*
X118023245Y-55094513D01*
X118023241Y-55094519D01*
X117904346Y-55288538D01*
X117901760Y-55292758D01*
X117810895Y-55512127D01*
X117807087Y-55527988D01*
X117759523Y-55726109D01*
X117755465Y-55743010D01*
X117736835Y-55979721D01*
X113763165Y-55979721D01*
X113744535Y-55743010D01*
X113740478Y-55726109D01*
X113692913Y-55527988D01*
X113689105Y-55512127D01*
X113598240Y-55292758D01*
X113595654Y-55288538D01*
X113476759Y-55094519D01*
X113476755Y-55094513D01*
X113474176Y-55090305D01*
X113319969Y-54909752D01*
X113139416Y-54755545D01*
X113135208Y-54752966D01*
X113135202Y-54752962D01*
X112941183Y-54634067D01*
X112936963Y-54631481D01*
X112932393Y-54629588D01*
X112932389Y-54629586D01*
X112722167Y-54542510D01*
X112722165Y-54542509D01*
X112717594Y-54540616D01*
X112637391Y-54521361D01*
X112491524Y-54486341D01*
X112491518Y-54486340D01*
X112486711Y-54485186D01*
X112250000Y-54466556D01*
X112013289Y-54485186D01*
X112008482Y-54486340D01*
X112008476Y-54486341D01*
X111862609Y-54521361D01*
X111782406Y-54540616D01*
X111777835Y-54542509D01*
X111777833Y-54542510D01*
X111567611Y-54629586D01*
X111567607Y-54629588D01*
X111563037Y-54631481D01*
X111558817Y-54634067D01*
X111364798Y-54752962D01*
X111364792Y-54752966D01*
X111360584Y-54755545D01*
X111180031Y-54909752D01*
X111025824Y-55090305D01*
X111023245Y-55094513D01*
X111023241Y-55094519D01*
X110904346Y-55288538D01*
X110901760Y-55292758D01*
X110810895Y-55512127D01*
X110807087Y-55527988D01*
X110759523Y-55726109D01*
X110755465Y-55743010D01*
X110736835Y-55979721D01*
X107138500Y-55979721D01*
X107138500Y-55931866D01*
X107131745Y-55869684D01*
X107080615Y-55733295D01*
X106993261Y-55616739D01*
X106876705Y-55529385D01*
X106740316Y-55478255D01*
X106678134Y-55471500D01*
X104881866Y-55471500D01*
X104819684Y-55478255D01*
X104683295Y-55529385D01*
X104566739Y-55616739D01*
X104479385Y-55733295D01*
X104428255Y-55869684D01*
X104421500Y-55931866D01*
X104421500Y-57728134D01*
X104428255Y-57790316D01*
X104479385Y-57926705D01*
X104566739Y-58043261D01*
X104683295Y-58130615D01*
X104691704Y-58133767D01*
X104691705Y-58133768D01*
X104800451Y-58174535D01*
X104857216Y-58217176D01*
X104881916Y-58283738D01*
X104866709Y-58353087D01*
X104847316Y-58379568D01*
X104720629Y-58512138D01*
X104594743Y-58696680D01*
X104564954Y-58760855D01*
X104508295Y-58882918D01*
X104500688Y-58899305D01*
X104440989Y-59114570D01*
X104417251Y-59336695D01*
X104417548Y-59341848D01*
X104417548Y-59341851D01*
X104423001Y-59436423D01*
X104430110Y-59559715D01*
X104431247Y-59564761D01*
X104431248Y-59564767D01*
X104432343Y-59569625D01*
X104479222Y-59777639D01*
X104529301Y-59900969D01*
X104560031Y-59976648D01*
X104563266Y-59984616D01*
X104565965Y-59989020D01*
X104677291Y-60170688D01*
X104679987Y-60175088D01*
X104826250Y-60343938D01*
X104998126Y-60486632D01*
X105068595Y-60527811D01*
X105071445Y-60529476D01*
X105120169Y-60581114D01*
X105133240Y-60650897D01*
X105106509Y-60716669D01*
X105066055Y-60750027D01*
X105053607Y-60756507D01*
X105049474Y-60759610D01*
X105049471Y-60759612D01*
X105025247Y-60777800D01*
X104874965Y-60890635D01*
X104720629Y-61052138D01*
X104594743Y-61236680D01*
X104500688Y-61439305D01*
X104440989Y-61654570D01*
X104417251Y-61876695D01*
X104417548Y-61881848D01*
X104417548Y-61881851D01*
X104423011Y-61976590D01*
X104430110Y-62099715D01*
X104431247Y-62104761D01*
X104431248Y-62104767D01*
X104451119Y-62192939D01*
X104479222Y-62317639D01*
X104517461Y-62411811D01*
X104558211Y-62512166D01*
X104563266Y-62524616D01*
X104565965Y-62529020D01*
X104660642Y-62683519D01*
X104679987Y-62715088D01*
X104826250Y-62883938D01*
X104998126Y-63026632D01*
X105018941Y-63038795D01*
X105071445Y-63069476D01*
X105120169Y-63121114D01*
X105133240Y-63190897D01*
X105106509Y-63256669D01*
X105066055Y-63290027D01*
X105060886Y-63292718D01*
X105053607Y-63296507D01*
X105049474Y-63299610D01*
X105049471Y-63299612D01*
X104923951Y-63393855D01*
X104874965Y-63430635D01*
X104720629Y-63592138D01*
X104717715Y-63596410D01*
X104717714Y-63596411D01*
X104683871Y-63646023D01*
X104594743Y-63776680D01*
X104500688Y-63979305D01*
X104440989Y-64194570D01*
X104417251Y-64416695D01*
X100508500Y-64416695D01*
X100508500Y-50634500D01*
X100528502Y-50566379D01*
X100582158Y-50519886D01*
X100634500Y-50508500D01*
X169365500Y-50508500D01*
X169433621Y-50528502D01*
G37*
%TD.AperFunction*%
%TD*%
M02*
