M48
; DRILL file {KiCad (6.0.8)} date Thu Dec  8 15:17:31 2022
; FORMAT={-:-/ absolute / inch / decimal}
; #@! TF.CreationDate,2022-12-08T15:17:31+02:00
; #@! TF.GenerationSoftware,Kicad,Pcbnew,(6.0.8)
; #@! TF.FileFunction,Plated,1,2,PTH
FMAT,2
INCH
; #@! TA.AperFunction,Plated,PTH,ComponentDrill
T1C0.0394
; #@! TA.AperFunction,Plated,PTH,ComponentDrill
T2C0.0433
; #@! TA.AperFunction,Plated,PTH,ComponentDrill
T3C0.0472
%
G90
G05
T1
X4.1646Y-2.2374
X4.1646Y-2.3374
X4.1646Y-2.4374
X4.1646Y-2.5374
X4.1646Y-2.6374
X4.1646Y-2.7374
X4.1646Y-2.8374
X4.1646Y-2.9374
X4.1646Y-3.0374
X4.1646Y-3.1374
X4.1646Y-3.2374
X4.1646Y-3.3374
X4.1646Y-3.4374
X4.1646Y-3.5374
X4.1646Y-3.6374
X4.1646Y-3.7374
X4.1646Y-3.8374
X4.1646Y-3.9374
X4.1646Y-4.0374
X4.4193Y-2.2039
X4.4193Y-2.5098
X4.4193Y-2.8051
X4.6949Y-2.2039
X4.6949Y-2.5098
X4.6949Y-2.8051
X4.9705Y-2.2047
X6.4646Y-2.2374
X6.4646Y-2.3374
X6.4646Y-2.4374
X6.4646Y-2.5374
X6.4646Y-2.6374
X6.4646Y-2.7374
X6.4646Y-2.8374
X6.4646Y-2.9374
X6.4646Y-3.0374
X6.4646Y-3.1374
X6.4646Y-3.2374
X6.4646Y-3.3374
X6.4646Y-3.4374
X6.4646Y-3.5374
X6.4646Y-3.6374
X6.4646Y-3.7374
X6.4646Y-3.8374
X6.4646Y-3.9374
X6.4646Y-4.0374
T2
X5.0609Y-3.1862
X5.0609Y-3.2847
X5.0609Y-3.8948
X5.0609Y-3.9933
X5.0613Y-2.8417
X5.0613Y-2.9402
X5.0613Y-3.5405
X5.0613Y-3.639
T3
G00X5.5733Y-2.3655
M15
G01X5.5733Y-2.4482
M16
G05
G00X5.7998Y-2.2887
M15
G01X5.7172Y-2.2887
M16
G05
G00X5.7998Y-2.525
M15
G01X5.7172Y-2.525
M16
G05
T0
M30
