%TF.GenerationSoftware,KiCad,Pcbnew,(6.0.8)*%
%TF.CreationDate,2022-12-08T15:17:31+02:00*%
%TF.ProjectId,Temperature Controller,54656d70-6572-4617-9475-726520436f6e,rev?*%
%TF.SameCoordinates,Original*%
%TF.FileFunction,Other,Comment*%
%FSLAX46Y46*%
G04 Gerber Fmt 4.6, Leading zero omitted, Abs format (unit mm)*
G04 Created by KiCad (PCBNEW (6.0.8)) date 2022-12-08 15:17:31*
%MOMM*%
%LPD*%
G01*
G04 APERTURE LIST*
%ADD10C,0.150000*%
%ADD11C,0.600000*%
%ADD12C,0.300000*%
G04 APERTURE END LIST*
D10*
%TO.C,J5*%
X143699714Y-63229238D02*
X144509238Y-63229238D01*
X144604476Y-63276857D01*
X144652095Y-63324476D01*
X144699714Y-63419714D01*
X144699714Y-63562571D01*
X144652095Y-63657809D01*
X144318761Y-63229238D02*
X144366380Y-63324476D01*
X144366380Y-63514952D01*
X144318761Y-63610190D01*
X144271142Y-63657809D01*
X144175904Y-63705428D01*
X143890190Y-63705428D01*
X143794952Y-63657809D01*
X143747333Y-63610190D01*
X143699714Y-63514952D01*
X143699714Y-63324476D01*
X143747333Y-63229238D01*
X143699714Y-62324476D02*
X144509238Y-62324476D01*
X144604476Y-62372095D01*
X144652095Y-62419714D01*
X144699714Y-62514952D01*
X144699714Y-62657809D01*
X144652095Y-62753047D01*
X144318761Y-62324476D02*
X144366380Y-62419714D01*
X144366380Y-62610190D01*
X144318761Y-62705428D01*
X144271142Y-62753047D01*
X144175904Y-62800666D01*
X143890190Y-62800666D01*
X143794952Y-62753047D01*
X143747333Y-62705428D01*
X143699714Y-62610190D01*
X143699714Y-62419714D01*
X143747333Y-62324476D01*
X144318761Y-61467333D02*
X144366380Y-61562571D01*
X144366380Y-61753047D01*
X144318761Y-61848285D01*
X144223523Y-61895904D01*
X143842571Y-61895904D01*
X143747333Y-61848285D01*
X143699714Y-61753047D01*
X143699714Y-61562571D01*
X143747333Y-61467333D01*
X143842571Y-61419714D01*
X143937809Y-61419714D01*
X144033047Y-61895904D01*
X144366380Y-60467333D02*
X144366380Y-61038761D01*
X144366380Y-60753047D02*
X143366380Y-60753047D01*
X143509238Y-60848285D01*
X143604476Y-60943523D01*
X143652095Y-61038761D01*
X143461619Y-60086380D02*
X143414000Y-60038761D01*
X143366380Y-59943523D01*
X143366380Y-59705428D01*
X143414000Y-59610190D01*
X143461619Y-59562571D01*
X143556857Y-59514952D01*
X143652095Y-59514952D01*
X143794952Y-59562571D01*
X144366380Y-60134000D01*
X144366380Y-59514952D01*
X143366380Y-59181619D02*
X143366380Y-58514952D01*
X144366380Y-58943523D01*
%TO.C,Q2*%
X140889884Y-72033838D02*
X140889884Y-72843362D01*
X140842265Y-72938600D01*
X140794646Y-72986219D01*
X140699408Y-73033838D01*
X140556551Y-73033838D01*
X140461313Y-72986219D01*
X140889884Y-72652885D02*
X140794646Y-72700504D01*
X140604170Y-72700504D01*
X140508932Y-72652885D01*
X140461313Y-72605266D01*
X140413694Y-72510028D01*
X140413694Y-72224314D01*
X140461313Y-72129076D01*
X140508932Y-72081457D01*
X140604170Y-72033838D01*
X140794646Y-72033838D01*
X140889884Y-72081457D01*
X141794646Y-72033838D02*
X141794646Y-72843362D01*
X141747027Y-72938600D01*
X141699408Y-72986219D01*
X141604170Y-73033838D01*
X141461313Y-73033838D01*
X141366075Y-72986219D01*
X141794646Y-72652885D02*
X141699408Y-72700504D01*
X141508932Y-72700504D01*
X141413694Y-72652885D01*
X141366075Y-72605266D01*
X141318456Y-72510028D01*
X141318456Y-72224314D01*
X141366075Y-72129076D01*
X141413694Y-72081457D01*
X141508932Y-72033838D01*
X141699408Y-72033838D01*
X141794646Y-72081457D01*
X142651789Y-72652885D02*
X142556551Y-72700504D01*
X142366075Y-72700504D01*
X142270837Y-72652885D01*
X142223218Y-72557647D01*
X142223218Y-72176695D01*
X142270837Y-72081457D01*
X142366075Y-72033838D01*
X142556551Y-72033838D01*
X142651789Y-72081457D01*
X142699408Y-72176695D01*
X142699408Y-72271933D01*
X142223218Y-72367171D01*
X143651789Y-72700504D02*
X143080361Y-72700504D01*
X143366075Y-72700504D02*
X143366075Y-71700504D01*
X143270837Y-71843362D01*
X143175599Y-71938600D01*
X143080361Y-71986219D01*
X144032742Y-71795743D02*
X144080361Y-71748124D01*
X144175599Y-71700504D01*
X144413694Y-71700504D01*
X144508932Y-71748124D01*
X144556551Y-71795743D01*
X144604170Y-71890981D01*
X144604170Y-71986219D01*
X144556551Y-72129076D01*
X143985123Y-72700504D01*
X144604170Y-72700504D01*
X145556551Y-72700504D02*
X144985123Y-72700504D01*
X145270837Y-72700504D02*
X145270837Y-71700504D01*
X145175599Y-71843362D01*
X145080361Y-71938600D01*
X144985123Y-71986219D01*
%TO.C,U1*%
X151785714Y-102845238D02*
X152595238Y-102845238D01*
X152690476Y-102892857D01*
X152738095Y-102940476D01*
X152785714Y-103035714D01*
X152785714Y-103178571D01*
X152738095Y-103273809D01*
X152404761Y-102845238D02*
X152452380Y-102940476D01*
X152452380Y-103130952D01*
X152404761Y-103226190D01*
X152357142Y-103273809D01*
X152261904Y-103321428D01*
X151976190Y-103321428D01*
X151880952Y-103273809D01*
X151833333Y-103226190D01*
X151785714Y-103130952D01*
X151785714Y-102940476D01*
X151833333Y-102845238D01*
X151785714Y-101940476D02*
X152595238Y-101940476D01*
X152690476Y-101988095D01*
X152738095Y-102035714D01*
X152785714Y-102130952D01*
X152785714Y-102273809D01*
X152738095Y-102369047D01*
X152404761Y-101940476D02*
X152452380Y-102035714D01*
X152452380Y-102226190D01*
X152404761Y-102321428D01*
X152357142Y-102369047D01*
X152261904Y-102416666D01*
X151976190Y-102416666D01*
X151880952Y-102369047D01*
X151833333Y-102321428D01*
X151785714Y-102226190D01*
X151785714Y-102035714D01*
X151833333Y-101940476D01*
X152404761Y-101083333D02*
X152452380Y-101178571D01*
X152452380Y-101369047D01*
X152404761Y-101464285D01*
X152309523Y-101511904D01*
X151928571Y-101511904D01*
X151833333Y-101464285D01*
X151785714Y-101369047D01*
X151785714Y-101178571D01*
X151833333Y-101083333D01*
X151928571Y-101035714D01*
X152023809Y-101035714D01*
X152119047Y-101511904D01*
X151547619Y-100654761D02*
X151500000Y-100607142D01*
X151452380Y-100511904D01*
X151452380Y-100273809D01*
X151500000Y-100178571D01*
X151547619Y-100130952D01*
X151642857Y-100083333D01*
X151738095Y-100083333D01*
X151880952Y-100130952D01*
X152452380Y-100702380D01*
X152452380Y-100083333D01*
X151547619Y-99702380D02*
X151500000Y-99654761D01*
X151452380Y-99559523D01*
X151452380Y-99321428D01*
X151500000Y-99226190D01*
X151547619Y-99178571D01*
X151642857Y-99130952D01*
X151738095Y-99130952D01*
X151880952Y-99178571D01*
X152452380Y-99750000D01*
X152452380Y-99130952D01*
X151452380Y-98511904D02*
X151452380Y-98416666D01*
X151500000Y-98321428D01*
X151547619Y-98273809D01*
X151642857Y-98226190D01*
X151833333Y-98178571D01*
X152071428Y-98178571D01*
X152261904Y-98226190D01*
X152357142Y-98273809D01*
X152404761Y-98321428D01*
X152452380Y-98416666D01*
X152452380Y-98511904D01*
X152404761Y-98607142D01*
X152357142Y-98654761D01*
X152261904Y-98702380D01*
X152071428Y-98750000D01*
X151833333Y-98750000D01*
X151642857Y-98702380D01*
X151547619Y-98654761D01*
X151500000Y-98607142D01*
X151452380Y-98511904D01*
%TO.C,J4*%
X128342713Y-75525238D02*
X129152237Y-75525238D01*
X129247475Y-75572857D01*
X129295094Y-75620476D01*
X129342713Y-75715714D01*
X129342713Y-75858571D01*
X129295094Y-75953809D01*
X128961760Y-75525238D02*
X129009379Y-75620476D01*
X129009379Y-75810952D01*
X128961760Y-75906190D01*
X128914141Y-75953809D01*
X128818903Y-76001428D01*
X128533189Y-76001428D01*
X128437951Y-75953809D01*
X128390332Y-75906190D01*
X128342713Y-75810952D01*
X128342713Y-75620476D01*
X128390332Y-75525238D01*
X128342713Y-74620476D02*
X129152237Y-74620476D01*
X129247475Y-74668095D01*
X129295094Y-74715714D01*
X129342713Y-74810952D01*
X129342713Y-74953809D01*
X129295094Y-75049047D01*
X128961760Y-74620476D02*
X129009379Y-74715714D01*
X129009379Y-74906190D01*
X128961760Y-75001428D01*
X128914141Y-75049047D01*
X128818903Y-75096666D01*
X128533189Y-75096666D01*
X128437951Y-75049047D01*
X128390332Y-75001428D01*
X128342713Y-74906190D01*
X128342713Y-74715714D01*
X128390332Y-74620476D01*
X128961760Y-73763333D02*
X129009379Y-73858571D01*
X129009379Y-74049047D01*
X128961760Y-74144285D01*
X128866522Y-74191904D01*
X128485570Y-74191904D01*
X128390332Y-74144285D01*
X128342713Y-74049047D01*
X128342713Y-73858571D01*
X128390332Y-73763333D01*
X128485570Y-73715714D01*
X128580808Y-73715714D01*
X128676046Y-74191904D01*
X129009379Y-72763333D02*
X129009379Y-73334761D01*
X129009379Y-73049047D02*
X128009379Y-73049047D01*
X128152237Y-73144285D01*
X128247475Y-73239523D01*
X128295094Y-73334761D01*
X128009379Y-71858571D02*
X128009379Y-72334761D01*
X128485570Y-72382380D01*
X128437951Y-72334761D01*
X128390332Y-72239523D01*
X128390332Y-72001428D01*
X128437951Y-71906190D01*
X128485570Y-71858571D01*
X128580808Y-71810952D01*
X128818903Y-71810952D01*
X128914141Y-71858571D01*
X128961760Y-71906190D01*
X129009379Y-72001428D01*
X129009379Y-72239523D01*
X128961760Y-72334761D01*
X128914141Y-72382380D01*
X128342713Y-70953809D02*
X129009379Y-70953809D01*
X127961760Y-71191904D02*
X128676046Y-71430000D01*
X128676046Y-70810952D01*
%TO.C,J3*%
X128332714Y-84275238D02*
X129142238Y-84275238D01*
X129237476Y-84322857D01*
X129285095Y-84370476D01*
X129332714Y-84465714D01*
X129332714Y-84608571D01*
X129285095Y-84703809D01*
X128951761Y-84275238D02*
X128999380Y-84370476D01*
X128999380Y-84560952D01*
X128951761Y-84656190D01*
X128904142Y-84703809D01*
X128808904Y-84751428D01*
X128523190Y-84751428D01*
X128427952Y-84703809D01*
X128380333Y-84656190D01*
X128332714Y-84560952D01*
X128332714Y-84370476D01*
X128380333Y-84275238D01*
X128332714Y-83370476D02*
X129142238Y-83370476D01*
X129237476Y-83418095D01*
X129285095Y-83465714D01*
X129332714Y-83560952D01*
X129332714Y-83703809D01*
X129285095Y-83799047D01*
X128951761Y-83370476D02*
X128999380Y-83465714D01*
X128999380Y-83656190D01*
X128951761Y-83751428D01*
X128904142Y-83799047D01*
X128808904Y-83846666D01*
X128523190Y-83846666D01*
X128427952Y-83799047D01*
X128380333Y-83751428D01*
X128332714Y-83656190D01*
X128332714Y-83465714D01*
X128380333Y-83370476D01*
X128951761Y-82513333D02*
X128999380Y-82608571D01*
X128999380Y-82799047D01*
X128951761Y-82894285D01*
X128856523Y-82941904D01*
X128475571Y-82941904D01*
X128380333Y-82894285D01*
X128332714Y-82799047D01*
X128332714Y-82608571D01*
X128380333Y-82513333D01*
X128475571Y-82465714D01*
X128570809Y-82465714D01*
X128666047Y-82941904D01*
X128999380Y-81513333D02*
X128999380Y-82084761D01*
X128999380Y-81799047D02*
X127999380Y-81799047D01*
X128142238Y-81894285D01*
X128237476Y-81989523D01*
X128285095Y-82084761D01*
X127999380Y-80608571D02*
X127999380Y-81084761D01*
X128475571Y-81132380D01*
X128427952Y-81084761D01*
X128380333Y-80989523D01*
X128380333Y-80751428D01*
X128427952Y-80656190D01*
X128475571Y-80608571D01*
X128570809Y-80560952D01*
X128808904Y-80560952D01*
X128904142Y-80608571D01*
X128951761Y-80656190D01*
X128999380Y-80751428D01*
X128999380Y-80989523D01*
X128951761Y-81084761D01*
X128904142Y-81132380D01*
X128332714Y-79703809D02*
X128999380Y-79703809D01*
X127951761Y-79941904D02*
X128666047Y-80180000D01*
X128666047Y-79560952D01*
%TO.C,J1*%
X128332714Y-102275238D02*
X129142238Y-102275238D01*
X129237476Y-102322857D01*
X129285095Y-102370476D01*
X129332714Y-102465714D01*
X129332714Y-102608571D01*
X129285095Y-102703809D01*
X128951761Y-102275238D02*
X128999380Y-102370476D01*
X128999380Y-102560952D01*
X128951761Y-102656190D01*
X128904142Y-102703809D01*
X128808904Y-102751428D01*
X128523190Y-102751428D01*
X128427952Y-102703809D01*
X128380333Y-102656190D01*
X128332714Y-102560952D01*
X128332714Y-102370476D01*
X128380333Y-102275238D01*
X128332714Y-101370476D02*
X129142238Y-101370476D01*
X129237476Y-101418095D01*
X129285095Y-101465714D01*
X129332714Y-101560952D01*
X129332714Y-101703809D01*
X129285095Y-101799047D01*
X128951761Y-101370476D02*
X128999380Y-101465714D01*
X128999380Y-101656190D01*
X128951761Y-101751428D01*
X128904142Y-101799047D01*
X128808904Y-101846666D01*
X128523190Y-101846666D01*
X128427952Y-101799047D01*
X128380333Y-101751428D01*
X128332714Y-101656190D01*
X128332714Y-101465714D01*
X128380333Y-101370476D01*
X128951761Y-100513333D02*
X128999380Y-100608571D01*
X128999380Y-100799047D01*
X128951761Y-100894285D01*
X128856523Y-100941904D01*
X128475571Y-100941904D01*
X128380333Y-100894285D01*
X128332714Y-100799047D01*
X128332714Y-100608571D01*
X128380333Y-100513333D01*
X128475571Y-100465714D01*
X128570809Y-100465714D01*
X128666047Y-100941904D01*
X128999380Y-99513333D02*
X128999380Y-100084761D01*
X128999380Y-99799047D02*
X127999380Y-99799047D01*
X128142238Y-99894285D01*
X128237476Y-99989523D01*
X128285095Y-100084761D01*
X127999380Y-98608571D02*
X127999380Y-99084761D01*
X128475571Y-99132380D01*
X128427952Y-99084761D01*
X128380333Y-98989523D01*
X128380333Y-98751428D01*
X128427952Y-98656190D01*
X128475571Y-98608571D01*
X128570809Y-98560952D01*
X128808904Y-98560952D01*
X128904142Y-98608571D01*
X128951761Y-98656190D01*
X128999380Y-98751428D01*
X128999380Y-98989523D01*
X128951761Y-99084761D01*
X128904142Y-99132380D01*
X128332714Y-97703809D02*
X128999380Y-97703809D01*
X127951761Y-97941904D02*
X128666047Y-98180000D01*
X128666047Y-97560952D01*
%TO.C,J2*%
X128342713Y-93275238D02*
X129152237Y-93275238D01*
X129247475Y-93322857D01*
X129295094Y-93370476D01*
X129342713Y-93465714D01*
X129342713Y-93608571D01*
X129295094Y-93703809D01*
X128961760Y-93275238D02*
X129009379Y-93370476D01*
X129009379Y-93560952D01*
X128961760Y-93656190D01*
X128914141Y-93703809D01*
X128818903Y-93751428D01*
X128533189Y-93751428D01*
X128437951Y-93703809D01*
X128390332Y-93656190D01*
X128342713Y-93560952D01*
X128342713Y-93370476D01*
X128390332Y-93275238D01*
X128342713Y-92370476D02*
X129152237Y-92370476D01*
X129247475Y-92418095D01*
X129295094Y-92465714D01*
X129342713Y-92560952D01*
X129342713Y-92703809D01*
X129295094Y-92799047D01*
X128961760Y-92370476D02*
X129009379Y-92465714D01*
X129009379Y-92656190D01*
X128961760Y-92751428D01*
X128914141Y-92799047D01*
X128818903Y-92846666D01*
X128533189Y-92846666D01*
X128437951Y-92799047D01*
X128390332Y-92751428D01*
X128342713Y-92656190D01*
X128342713Y-92465714D01*
X128390332Y-92370476D01*
X128961760Y-91513333D02*
X129009379Y-91608571D01*
X129009379Y-91799047D01*
X128961760Y-91894285D01*
X128866522Y-91941904D01*
X128485570Y-91941904D01*
X128390332Y-91894285D01*
X128342713Y-91799047D01*
X128342713Y-91608571D01*
X128390332Y-91513333D01*
X128485570Y-91465714D01*
X128580808Y-91465714D01*
X128676046Y-91941904D01*
X129009379Y-90513333D02*
X129009379Y-91084761D01*
X129009379Y-90799047D02*
X128009379Y-90799047D01*
X128152237Y-90894285D01*
X128247475Y-90989523D01*
X128295094Y-91084761D01*
X128009379Y-89608571D02*
X128009379Y-90084761D01*
X128485570Y-90132380D01*
X128437951Y-90084761D01*
X128390332Y-89989523D01*
X128390332Y-89751428D01*
X128437951Y-89656190D01*
X128485570Y-89608571D01*
X128580808Y-89560952D01*
X128818903Y-89560952D01*
X128914141Y-89608571D01*
X128961760Y-89656190D01*
X129009379Y-89751428D01*
X129009379Y-89989523D01*
X128961760Y-90084761D01*
X128914141Y-90132380D01*
X128342713Y-88703809D02*
X129009379Y-88703809D01*
X127961760Y-88941904D02*
X128676046Y-89180000D01*
X128676046Y-88560952D01*
D11*
%TO.C,Q2*%
X147247123Y-74534124D02*
G75*
G03*
X147247123Y-74534124I-300000J0D01*
G01*
D12*
%TO.C,U1*%
X148750000Y-98845000D02*
G75*
G03*
X148750000Y-98845000I-150000J0D01*
G01*
%TO.C,J4*%
G36*
X131956999Y-77330000D02*
G01*
X127356999Y-77330000D01*
X127356999Y-77130000D01*
X131756999Y-77130000D01*
X131756999Y-69830000D01*
X127356999Y-69830000D01*
X127356999Y-69630000D01*
X131956999Y-69630000D01*
X131956999Y-77330000D01*
G37*
G36*
X126256999Y-77130000D02*
G01*
X126856999Y-77130000D01*
X126856999Y-77330000D01*
X126056999Y-77330000D01*
X126056999Y-75130000D01*
X126256999Y-75130000D01*
X126256999Y-77130000D01*
G37*
G36*
X126856999Y-69830000D02*
G01*
X126256999Y-69830000D01*
X126256999Y-71830000D01*
X126056999Y-71830000D01*
X126056999Y-69630000D01*
X126856999Y-69630000D01*
X126856999Y-69830000D01*
G37*
%TO.C,J3*%
G36*
X126247000Y-85880000D02*
G01*
X126847000Y-85880000D01*
X126847000Y-86080000D01*
X126047000Y-86080000D01*
X126047000Y-83880000D01*
X126247000Y-83880000D01*
X126247000Y-85880000D01*
G37*
G36*
X126847000Y-78580000D02*
G01*
X126247000Y-78580000D01*
X126247000Y-80580000D01*
X126047000Y-80580000D01*
X126047000Y-78380000D01*
X126847000Y-78380000D01*
X126847000Y-78580000D01*
G37*
G36*
X131947000Y-86080000D02*
G01*
X127347000Y-86080000D01*
X127347000Y-85880000D01*
X131747000Y-85880000D01*
X131747000Y-78580000D01*
X127347000Y-78580000D01*
X127347000Y-78380000D01*
X131947000Y-78380000D01*
X131947000Y-86080000D01*
G37*
%TO.C,J1*%
G36*
X131947000Y-104080000D02*
G01*
X127347000Y-104080000D01*
X127347000Y-103880000D01*
X131747000Y-103880000D01*
X131747000Y-96580000D01*
X127347000Y-96580000D01*
X127347000Y-96380000D01*
X131947000Y-96380000D01*
X131947000Y-104080000D01*
G37*
G36*
X126247000Y-103880000D02*
G01*
X126847000Y-103880000D01*
X126847000Y-104080000D01*
X126047000Y-104080000D01*
X126047000Y-101880000D01*
X126247000Y-101880000D01*
X126247000Y-103880000D01*
G37*
G36*
X126847000Y-96580000D02*
G01*
X126247000Y-96580000D01*
X126247000Y-98580000D01*
X126047000Y-98580000D01*
X126047000Y-96380000D01*
X126847000Y-96380000D01*
X126847000Y-96580000D01*
G37*
%TO.C,J2*%
G36*
X131956999Y-95080000D02*
G01*
X127356999Y-95080000D01*
X127356999Y-94880000D01*
X131756999Y-94880000D01*
X131756999Y-87580000D01*
X127356999Y-87580000D01*
X127356999Y-87380000D01*
X131956999Y-87380000D01*
X131956999Y-95080000D01*
G37*
G36*
X126256999Y-94880000D02*
G01*
X126856999Y-94880000D01*
X126856999Y-95080000D01*
X126056999Y-95080000D01*
X126056999Y-92880000D01*
X126256999Y-92880000D01*
X126256999Y-94880000D01*
G37*
G36*
X126856999Y-87580000D02*
G01*
X126256999Y-87580000D01*
X126256999Y-89580000D01*
X126056999Y-89580000D01*
X126056999Y-87380000D01*
X126856999Y-87380000D01*
X126856999Y-87580000D01*
G37*
%TD*%
M02*
